ISO-10303-21;
HEADER;
FILE_DESCRIPTION(('FreeCAD Model'),'2;1');
FILE_NAME('Open CASCADE Shape Model','2026-07-20T20:08:58',('FreeCAD'),(
    'FreeCAD'),'Open CASCADE STEP processor 7.8','FreeCAD','Unknown');
FILE_SCHEMA(('AUTOMOTIVE_DESIGN { 1 0 10303 214 1 1 1 1 }'));
ENDSEC;
DATA;
#1 = APPLICATION_PROTOCOL_DEFINITION('international standard',
  'automotive_design',2000,#2);
#2 = APPLICATION_CONTEXT(
  'core data for automotive mechanical design processes');
#3 = SHAPE_DEFINITION_REPRESENTATION(#4,#10);
#4 = PRODUCT_DEFINITION_SHAPE('','',#5);
#5 = PRODUCT_DEFINITION('design','',#6,#9);
#6 = PRODUCT_DEFINITION_FORMATION('','',#7);
#7 = PRODUCT('Open CASCADE STEP translator 7.8 16',
  'Open CASCADE STEP translator 7.8 16','',(#8));
#8 = PRODUCT_CONTEXT('',#2,'mechanical');
#9 = PRODUCT_DEFINITION_CONTEXT('part definition',#2,'design');
#10 = ADVANCED_BREP_SHAPE_REPRESENTATION('',(#11,#15),#1317);
#11 = AXIS2_PLACEMENT_3D('',#12,#13,#14);
#12 = CARTESIAN_POINT('',(0.,0.,0.));
#13 = DIRECTION('',(0.,0.,1.));
#14 = DIRECTION('',(1.,0.,-0.));
#15 = MANIFOLD_SOLID_BREP('',#16);
#16 = CLOSED_SHELL('',(#17,#297,#373,#408,#443,#505,#757,#916,#928,#945,
    #973,#990,#1252,#1279,#1291,#1307));
#17 = ADVANCED_FACE('',(#18,#54,#173),#292,.T.);
#18 = FACE_BOUND('',#19,.T.);
#19 = EDGE_LOOP('',(#20,#31,#39,#48));
#20 = ORIENTED_EDGE('',*,*,#21,.F.);
#21 = EDGE_CURVE('',#22,#24,#26,.T.);
#22 = VERTEX_POINT('',#23);
#23 = CARTESIAN_POINT('',(10.983624174197,0.6,12.));
#24 = VERTEX_POINT('',#25);
#25 = CARTESIAN_POINT('',(10.983624174197,-0.6,12.));
#26 = CIRCLE('',#27,11.);
#27 = AXIS2_PLACEMENT_3D('',#28,#29,#30);
#28 = CARTESIAN_POINT('',(0.,0.,12.));
#29 = DIRECTION('',(0.,0.,1.));
#30 = DIRECTION('',(1.,0.,-0.));
#31 = ORIENTED_EDGE('',*,*,#32,.F.);
#32 = EDGE_CURVE('',#33,#22,#35,.T.);
#33 = VERTEX_POINT('',#34);
#34 = CARTESIAN_POINT('',(10.983624174197,0.6,0.));
#35 = LINE('',#36,#37);
#36 = CARTESIAN_POINT('',(10.983624174197,0.6,0.));
#37 = VECTOR('',#38,1.);
#38 = DIRECTION('',(0.,0.,1.));
#39 = ORIENTED_EDGE('',*,*,#40,.T.);
#40 = EDGE_CURVE('',#33,#41,#43,.T.);
#41 = VERTEX_POINT('',#42);
#42 = CARTESIAN_POINT('',(10.983624174197,-0.6,0.));
#43 = CIRCLE('',#44,11.);
#44 = AXIS2_PLACEMENT_3D('',#45,#46,#47);
#45 = CARTESIAN_POINT('',(0.,0.,0.));
#46 = DIRECTION('',(0.,0.,1.));
#47 = DIRECTION('',(1.,0.,-0.));
#48 = ORIENTED_EDGE('',*,*,#49,.T.);
#49 = EDGE_CURVE('',#41,#24,#50,.T.);
#50 = LINE('',#51,#52);
#51 = CARTESIAN_POINT('',(10.983624174197,-0.6,0.));
#52 = VECTOR('',#53,1.);
#53 = DIRECTION('',(0.,0.,1.));
#54 = FACE_BOUND('',#55,.T.);
#55 = EDGE_LOOP('',(#56));
#56 = ORIENTED_EDGE('',*,*,#57,.T.);
#57 = EDGE_CURVE('',#58,#58,#60,.T.);
#58 = VERTEX_POINT('',#59);
#59 = CARTESIAN_POINT('',(6.,-9.219544457293,7.65));
#60 = B_SPLINE_CURVE_WITH_KNOTS('',6,(#61,#62,#63,#64,#65,#66,#67,#68,
    #69,#70,#71,#72,#73,#74,#75,#76,#77,#78,#79,#80,#81,#82,#83,#84,#85,
    #86,#87,#88,#89,#90,#91,#92,#93,#94,#95,#96,#97,#98,#99,#100,#101,
    #102,#103,#104,#105,#106,#107,#108,#109,#110,#111,#112,#113,#114,
    #115,#116,#117,#118,#119,#120,#121,#122,#123,#124,#125,#126,#127,
    #128,#129,#130,#131,#132,#133,#134,#135,#136,#137,#138,#139,#140,
    #141,#142,#143,#144,#145,#146,#147,#148,#149,#150,#151,#152,#153,
    #154,#155,#156,#157,#158,#159,#160,#161,#162,#163,#164,#165,#166,
    #167,#168,#169,#170,#171,#172),.UNSPECIFIED.,.T.,.F.,(7,5,5,5,5,5,5,
    5,5,5,5,5,5,5,5,5,5,5,5,5,5,5,7),(0.,5.524809854071E-02,
    0.104041427879,0.161684470352,0.187524338281,0.212100908122,
    0.257958533791,0.30368353208,0.354808316533,0.411781775267,
    0.472652414063,0.527316304578,0.576459119044,0.612028411267,
    0.657562330634,0.688446852405,0.757974539841,0.806687496597,
    0.82784487875,0.858549690582,0.887054063532,0.938953747451,1.),
  .UNSPECIFIED.);
#61 = CARTESIAN_POINT('',(6.,-9.219544457293,7.65));
#62 = CARTESIAN_POINT('',(6.097648205502,-9.155995847518,7.65));
#63 = CARTESIAN_POINT('',(6.194153469979,-9.091424412676,7.643065217576)
  );
#64 = CARTESIAN_POINT('',(6.288986633918,-9.026196910771,7.629500537981)
  );
#65 = CARTESIAN_POINT('',(6.381671190087,-8.960710074553,7.60963551795)
  );
#66 = CARTESIAN_POINT('',(6.471777593004,-8.895385162204,7.583825590339)
  );
#67 = CARTESIAN_POINT('',(6.635876769364,-8.773501558363,7.524746251545)
  );
#68 = CARTESIAN_POINT('',(6.71056853903,-8.716775895429,7.492684213042)
  );
#69 = CARTESIAN_POINT('',(6.782819260082,-8.660716029615,7.45648508259)
  );
#70 = CARTESIAN_POINT('',(6.852467064274,-8.60556338221,7.416347935837)
  );
#71 = CARTESIAN_POINT('',(6.919357953794,-8.551569647025,7.372453960096)
  );
#72 = CARTESIAN_POINT('',(7.058930751722,-8.436887330008,7.268868180233)
  );
#73 = CARTESIAN_POINT('',(7.130492762611,-8.376735970887,7.207732756292)
  );
#74 = CARTESIAN_POINT('',(7.19776793829,-8.318980578602,7.141826815496)
  );
#75 = CARTESIAN_POINT('',(7.26048965742,-8.264093452726,7.07139862838));
#76 = CARTESIAN_POINT('',(7.318375274023,-8.212577674485,6.996682005311)
  );
#77 = CARTESIAN_POINT('',(7.394759297407,-8.143620169741,6.882582977827)
  );
#78 = CARTESIAN_POINT('',(7.417365206261,-8.12306292501,6.846453851831)
  );
#79 = CARTESIAN_POINT('',(7.438900318647,-8.103346249753,6.809542562732)
  );
#80 = CARTESIAN_POINT('',(7.45933129424,-8.084523145823,6.771880419869)
  );
#81 = CARTESIAN_POINT('',(7.478625557484,-8.066645725772,6.733499334614)
  );
#82 = CARTESIAN_POINT('',(7.513990879428,-8.033709979677,6.65727429717)
  );
#83 = CARTESIAN_POINT('',(7.530173729055,-8.018556022633,6.619494780925)
  );
#84 = CARTESIAN_POINT('',(7.54526706097,-8.004352533657,6.581132814837)
  );
#85 = CARTESIAN_POINT('',(7.559240627982,-7.991145239205,6.542228654673)
  );
#86 = CARTESIAN_POINT('',(7.572066721219,-7.978976400241,6.502823268764)
  );
#87 = CARTESIAN_POINT('',(7.605464437175,-7.947188926137,6.388574032811)
  );
#88 = CARTESIAN_POINT('',(7.623136788948,-7.930232638389,6.312551049031)
  );
#89 = CARTESIAN_POINT('',(7.636529261076,-7.917308923863,6.235280885868)
  );
#90 = CARTESIAN_POINT('',(7.645506656015,-7.90861950886,6.157162684801)
  );
#91 = CARTESIAN_POINT('',(7.65,-7.904270997379,6.078600405211));
#92 = CARTESIAN_POINT('',(7.65,-7.904270997379,5.921626919377));
#93 = CARTESIAN_POINT('',(7.645532611781,-7.908594392592,5.84329144976)
  );
#94 = CARTESIAN_POINT('',(7.636606976597,-7.9172336999,5.76539621477));
#95 = CARTESIAN_POINT('',(7.623291313624,-7.930083517156,5.68834187319)
  );
#96 = CARTESIAN_POINT('',(7.605719356054,-7.946944332968,5.612524333959)
  );
#97 = CARTESIAN_POINT('',(7.559920751879,-7.990538923323,5.455378035751)
  );
#98 = CARTESIAN_POINT('',(7.530686899195,-8.018198092602,5.374475737071)
  );
#99 = CARTESIAN_POINT('',(7.496624175528,-8.05015667042,5.295941215669)
  );
#100 = CARTESIAN_POINT('',(7.457975815752,-8.086022404485,5.220079631062
    ));
#101 = CARTESIAN_POINT('',(7.41501293217,-8.125366689569,5.147183916033)
  );
#102 = CARTESIAN_POINT('',(7.315710499333,-8.21494663491,4.999915143167)
  );
#103 = CARTESIAN_POINT('',(7.258367154572,-8.265945821208,4.926273135162
    ));
#104 = CARTESIAN_POINT('',(7.196313989732,-8.320220351634,4.856821110581
    ));
#105 = CARTESIAN_POINT('',(7.129822809586,-8.377286330958,4.791783969441
    ));
#106 = CARTESIAN_POINT('',(7.059150034911,-8.436689309522,4.731400609971
    ));
#107 = CARTESIAN_POINT('',(6.904837622982,-8.563519287008,4.616658040476
    ));
#108 = CARTESIAN_POINT('',(6.820598157916,-8.631252865373,4.562961007684
    ));
#109 = CARTESIAN_POINT('',(6.732122116604,-8.700696833255,4.515162269804
    ));
#110 = CARTESIAN_POINT('',(6.639718371538,-8.771360536479,4.473626024733
    ));
#111 = CARTESIAN_POINT('',(6.543722014381,-8.842776167429,4.438756794633
    ));
#112 = CARTESIAN_POINT('',(6.355408147269,-8.978912779082,4.386077806989
    ));
#113 = CARTESIAN_POINT('',(6.263662616057,-9.043610828897,4.366877409387
    ));
#114 = CARTESIAN_POINT('',(6.169725664456,-9.108137191601,4.35379122688)
  );
#115 = CARTESIAN_POINT('',(6.074095203753,-9.17206156837,4.347159116187)
  );
#116 = CARTESIAN_POINT('',(5.977314334358,-9.234986677137,4.347271684097
    ));
#117 = CARTESIAN_POINT('',(5.79246527344,-9.351901801228,4.360753871635)
  );
#118 = CARTESIAN_POINT('',(5.704524234999,-9.406139879332,4.372782027072
    ));
#119 = CARTESIAN_POINT('',(5.61678451539,-9.458877483093,4.390610268659)
  );
#120 = CARTESIAN_POINT('',(5.52988503072,-9.509788818779,4.414277729696)
  );
#121 = CARTESIAN_POINT('',(5.444456944051,-9.558608649197,4.4437083422)
  );
#122 = CARTESIAN_POINT('',(5.300784857137,-9.638799344777,4.504045716476
    ));
#123 = CARTESIAN_POINT('',(5.241579166564,-9.671248765229,4.532287026089
    ));
#124 = CARTESIAN_POINT('',(5.18372927704,-9.702396030375,4.563353668284)
  );
#125 = CARTESIAN_POINT('',(5.127459623975,-9.73217886729,4.597131895638)
  );
#126 = CARTESIAN_POINT('',(5.072979218411,-9.760551394655,4.633475589797
    ));
#127 = CARTESIAN_POINT('',(4.953267839905,-9.821957208066,4.721787488594
    ));
#128 = CARTESIAN_POINT('',(4.889326714601,-9.854056149981,4.775261478959
    ));
#129 = CARTESIAN_POINT('',(4.828954579963,-9.883763632587,4.832315923147
    ));
#130 = CARTESIAN_POINT('',(4.772414012728,-9.911087753896,4.892598585622
    ));
#131 = CARTESIAN_POINT('',(4.719921716933,-9.936054701873,4.955718204236
    ));
#132 = CARTESIAN_POINT('',(4.638892420082,-9.974065647537,5.065690640878
    ));
#133 = CARTESIAN_POINT('',(4.608069032806,-9.988367202352,5.111260653685
    ));
#134 = CARTESIAN_POINT('',(4.579201835927,-10.00162943641,5.157852670876
    ));
#135 = CARTESIAN_POINT('',(4.552316800715,-10.01387277215,5.205363722421
    ));
#136 = CARTESIAN_POINT('',(4.527434291675,-10.02511680192,5.253690503771
    ));
#137 = CARTESIAN_POINT('',(4.453094537102,-10.05848559804,5.413126402437
    ));
#138 = CARTESIAN_POINT('',(4.411861409899,-10.07661323562,5.527093420239
    ));
#139 = CARTESIAN_POINT('',(4.380923583256,-10.09002676368,5.643656282806
    ));
#140 = CARTESIAN_POINT('',(4.360303244846,-10.09890501316,5.761906995576
    ));
#141 = CARTESIAN_POINT('',(4.35,-10.10334103156,5.88097525706));
#142 = CARTESIAN_POINT('',(4.35,-10.10334103156,6.083391917229));
#143 = CARTESIAN_POINT('',(4.355057501656,-10.10116353475,6.166789481549
    ));
#144 = CARTESIAN_POINT('',(4.36517430025,-10.09680770193,6.249906402308)
  );
#145 = CARTESIAN_POINT('',(4.380351203777,-10.09025080814,6.332450715618
    ));
#146 = CARTESIAN_POINT('',(4.400587379052,-10.08144801027,6.414123282982
    ));
#147 = CARTESIAN_POINT('',(4.436864850213,-10.06550417433,6.529576625361
    ));
#148 = CARTESIAN_POINT('',(4.44880293906,-10.06024026622,6.564311847393)
  );
#149 = CARTESIAN_POINT('',(4.461693159047,-10.05453512007,6.598795165268
    ));
#150 = CARTESIAN_POINT('',(4.475533792449,-10.04838304397,6.632998628052
    ));
#151 = CARTESIAN_POINT('',(4.49032220913,-10.04177792448,6.666893124625)
  );
#152 = CARTESIAN_POINT('',(4.528887005307,-10.02446052999,6.749145708705
    ));
#153 = CARTESIAN_POINT('',(4.553711073315,-10.01323851745,6.797135600303
    ));
#154 = CARTESIAN_POINT('',(4.580512374805,-10.00102874885,6.844316168634
    ));
#155 = CARTESIAN_POINT('',(4.609270710182,-9.987811997446,6.890585870308
    ));
#156 = CARTESIAN_POINT('',(4.639960376014,-9.973568249863,6.935843508389
    ));
#157 = CARTESIAN_POINT('',(4.70280442959,-9.944081020137,7.020969355609)
  );
#158 = CARTESIAN_POINT('',(4.73469725895,-9.928982053921,7.060992539256)
  );
#159 = CARTESIAN_POINT('',(4.768191533098,-9.912968621544,7.099960639448
    ));
#160 = CARTESIAN_POINT('',(4.803243614022,-9.896031391662,7.13778081266)
  );
#161 = CARTESIAN_POINT('',(4.839803345711,-9.878162887496,7.17436451573)
  );
#162 = CARTESIAN_POINT('',(4.947022514091,-9.82511732473,7.273833024257)
  );
#163 = CARTESIAN_POINT('',(5.021085306791,-9.787749878513,7.333700313175
    ));
#164 = CARTESIAN_POINT('',(5.099528706807,-9.747287254684,7.388578370224
    ));
#165 = CARTESIAN_POINT('',(5.18177758305,-9.703813873492,7.437946163762)
  );
#166 = CARTESIAN_POINT('',(5.267180991068,-9.657480041101,7.481413913526
    ));
#167 = CARTESIAN_POINT('',(5.458378025327,-9.550921714089,7.562610257518
    ));
#168 = CARTESIAN_POINT('',(5.564923725041,-9.4897934458,7.597897645714)
  );
#169 = CARTESIAN_POINT('',(5.673545364827,-9.42550986037,7.624243108962)
  );
#170 = CARTESIAN_POINT('',(5.783049992245,-9.358582491578,7.641556206631
    ));
#171 = CARTESIAN_POINT('',(5.892249640709,-9.289667461606,7.65));
#172 = CARTESIAN_POINT('',(6.,-9.219544457293,7.65));
#173 = FACE_BOUND('',#174,.T.);
#174 = EDGE_LOOP('',(#175));
#175 = ORIENTED_EDGE('',*,*,#176,.F.);
#176 = EDGE_CURVE('',#177,#177,#179,.T.);
#177 = VERTEX_POINT('',#178);
#178 = CARTESIAN_POINT('',(6.,9.219544457293,7.65));
#179 = B_SPLINE_CURVE_WITH_KNOTS('',6,(#180,#181,#182,#183,#184,#185,
    #186,#187,#188,#189,#190,#191,#192,#193,#194,#195,#196,#197,#198,
    #199,#200,#201,#202,#203,#204,#205,#206,#207,#208,#209,#210,#211,
    #212,#213,#214,#215,#216,#217,#218,#219,#220,#221,#222,#223,#224,
    #225,#226,#227,#228,#229,#230,#231,#232,#233,#234,#235,#236,#237,
    #238,#239,#240,#241,#242,#243,#244,#245,#246,#247,#248,#249,#250,
    #251,#252,#253,#254,#255,#256,#257,#258,#259,#260,#261,#262,#263,
    #264,#265,#266,#267,#268,#269,#270,#271,#272,#273,#274,#275,#276,
    #277,#278,#279,#280,#281,#282,#283,#284,#285,#286,#287,#288,#289,
    #290,#291),.UNSPECIFIED.,.T.,.F.,(7,5,5,5,5,5,5,5,5,5,5,5,5,5,5,5,5,
    5,5,5,5,5,7),(0.,5.524809721622E-02,0.104041425385,0.161684466476,
    0.187524331191,0.212100898474,0.257958524824,0.303683523791,
    0.354808309002,0.411781768581,0.47265240828,0.527316299605,
    0.576459114799,0.61202840755,0.657562327592,0.688446849821,
    0.757974536249,0.806687493635,0.827844876062,0.858549688291,
    0.887054061656,0.938953746416,1.),.UNSPECIFIED.);
#180 = CARTESIAN_POINT('',(6.,9.219544457293,7.65));
#181 = CARTESIAN_POINT('',(6.097648205502,9.155995847518,7.65));
#182 = CARTESIAN_POINT('',(6.194153469979,9.091424412676,7.643065217576)
  );
#183 = CARTESIAN_POINT('',(6.288986633918,9.026196910771,7.629500537981)
  );
#184 = CARTESIAN_POINT('',(6.381671190087,8.960710074553,7.60963551795)
  );
#185 = CARTESIAN_POINT('',(6.471777593004,8.895385162204,7.583825590339)
  );
#186 = CARTESIAN_POINT('',(6.635876769364,8.773501558363,7.524746251545)
  );
#187 = CARTESIAN_POINT('',(6.71056853903,8.716775895429,7.492684213042)
  );
#188 = CARTESIAN_POINT('',(6.782819260082,8.660716029615,7.45648508259)
  );
#189 = CARTESIAN_POINT('',(6.852467064274,8.60556338221,7.416347935837)
  );
#190 = CARTESIAN_POINT('',(6.919357953794,8.551569647025,7.372453960096)
  );
#191 = CARTESIAN_POINT('',(7.058930751722,8.436887330008,7.268868180233)
  );
#192 = CARTESIAN_POINT('',(7.130492762611,8.376735970887,7.207732756292)
  );
#193 = CARTESIAN_POINT('',(7.19776793829,8.318980578602,7.141826815496)
  );
#194 = CARTESIAN_POINT('',(7.26048965742,8.264093452726,7.07139862838));
#195 = CARTESIAN_POINT('',(7.318375274023,8.212577674485,6.996682005311)
  );
#196 = CARTESIAN_POINT('',(7.394759295033,8.143620171884,6.882582981374)
  );
#197 = CARTESIAN_POINT('',(7.417365206586,8.123062924688,6.846453850704)
  );
#198 = CARTESIAN_POINT('',(7.438900320733,8.103346247843,6.809542559012)
  );
#199 = CARTESIAN_POINT('',(7.459331295026,8.084523145126,6.771880419005)
  );
#200 = CARTESIAN_POINT('',(7.478625555685,8.066645727447,6.73349933849)
  );
#201 = CARTESIAN_POINT('',(7.513990881489,8.033709977758,6.657274292728)
  );
#202 = CARTESIAN_POINT('',(7.530173728866,8.018556022825,6.619494782274)
  );
#203 = CARTESIAN_POINT('',(7.545267059246,8.004352535278,6.581132819438)
  );
#204 = CARTESIAN_POINT('',(7.559240627251,7.991145239878,6.542228655785)
  );
#205 = CARTESIAN_POINT('',(7.572066722604,7.978976398923,6.502823264026)
  );
#206 = CARTESIAN_POINT('',(7.605464437175,7.947188926137,6.388574032811)
  );
#207 = CARTESIAN_POINT('',(7.623136788948,7.930232638389,6.312551049031)
  );
#208 = CARTESIAN_POINT('',(7.636529261076,7.917308923863,6.235280885868)
  );
#209 = CARTESIAN_POINT('',(7.645506656015,7.90861950886,6.157162684801)
  );
#210 = CARTESIAN_POINT('',(7.65,7.904270997379,6.078600405211));
#211 = CARTESIAN_POINT('',(7.65,7.904270997379,5.921626919377));
#212 = CARTESIAN_POINT('',(7.645532611781,7.908594392592,5.84329144976)
  );
#213 = CARTESIAN_POINT('',(7.636606976597,7.9172336999,5.76539621477));
#214 = CARTESIAN_POINT('',(7.623291313624,7.930083517156,5.68834187319)
  );
#215 = CARTESIAN_POINT('',(7.605719356054,7.946944332968,5.612524333959)
  );
#216 = CARTESIAN_POINT('',(7.559920751879,7.990538923323,5.455378035751)
  );
#217 = CARTESIAN_POINT('',(7.530686899195,8.018198092602,5.374475737071)
  );
#218 = CARTESIAN_POINT('',(7.496624175528,8.05015667042,5.295941215669)
  );
#219 = CARTESIAN_POINT('',(7.457975815752,8.086022404485,5.220079631062)
  );
#220 = CARTESIAN_POINT('',(7.41501293217,8.125366689569,5.147183916033)
  );
#221 = CARTESIAN_POINT('',(7.315710499333,8.21494663491,4.999915143167)
  );
#222 = CARTESIAN_POINT('',(7.258367154572,8.265945821208,4.926273135162)
  );
#223 = CARTESIAN_POINT('',(7.196313989732,8.320220351634,4.85682111058)
  );
#224 = CARTESIAN_POINT('',(7.129822809586,8.377286330958,4.791783969441)
  );
#225 = CARTESIAN_POINT('',(7.059150034911,8.436689309522,4.731400609971)
  );
#226 = CARTESIAN_POINT('',(6.904837622982,8.563519287008,4.616658040476)
  );
#227 = CARTESIAN_POINT('',(6.820598157916,8.631252865373,4.562961007684)
  );
#228 = CARTESIAN_POINT('',(6.732122116604,8.700696833255,4.515162269804)
  );
#229 = CARTESIAN_POINT('',(6.639718371538,8.771360536479,4.473626024733)
  );
#230 = CARTESIAN_POINT('',(6.543722014381,8.842776167429,4.438756794633)
  );
#231 = CARTESIAN_POINT('',(6.355408147269,8.978912779082,4.386077806989)
  );
#232 = CARTESIAN_POINT('',(6.263662616057,9.043610828897,4.366877409387)
  );
#233 = CARTESIAN_POINT('',(6.169725664456,9.108137191601,4.35379122688)
  );
#234 = CARTESIAN_POINT('',(6.074095203753,9.17206156837,4.347159116187)
  );
#235 = CARTESIAN_POINT('',(5.977314334358,9.234986677137,4.347271684097)
  );
#236 = CARTESIAN_POINT('',(5.79246527344,9.351901801228,4.360753871635)
  );
#237 = CARTESIAN_POINT('',(5.704524234999,9.406139879332,4.372782027072)
  );
#238 = CARTESIAN_POINT('',(5.61678451539,9.458877483093,4.390610268659)
  );
#239 = CARTESIAN_POINT('',(5.52988503072,9.509788818779,4.414277729696)
  );
#240 = CARTESIAN_POINT('',(5.444456944051,9.558608649197,4.4437083422));
#241 = CARTESIAN_POINT('',(5.300784857137,9.638799344777,4.504045716476)
  );
#242 = CARTESIAN_POINT('',(5.241579166564,9.671248765229,4.532287026089)
  );
#243 = CARTESIAN_POINT('',(5.18372927704,9.702396030375,4.563353668284)
  );
#244 = CARTESIAN_POINT('',(5.127459623975,9.73217886729,4.597131895638)
  );
#245 = CARTESIAN_POINT('',(5.072979218411,9.760551394656,4.633475589797)
  );
#246 = CARTESIAN_POINT('',(4.953267839905,9.821957208066,4.721787488594)
  );
#247 = CARTESIAN_POINT('',(4.889326714601,9.854056149981,4.775261478959)
  );
#248 = CARTESIAN_POINT('',(4.828954579963,9.883763632587,4.832315923147)
  );
#249 = CARTESIAN_POINT('',(4.772414012728,9.911087753896,4.892598585622)
  );
#250 = CARTESIAN_POINT('',(4.719921716933,9.936054701873,4.955718204236)
  );
#251 = CARTESIAN_POINT('',(4.638892420082,9.974065647536,5.065690640878)
  );
#252 = CARTESIAN_POINT('',(4.608069032806,9.988367202352,5.111260653685)
  );
#253 = CARTESIAN_POINT('',(4.579201835927,10.001629436418,5.157852670876
    ));
#254 = CARTESIAN_POINT('',(4.552316800715,10.013872772159,5.205363722421
    ));
#255 = CARTESIAN_POINT('',(4.527434291676,10.025116801924,5.25369050377)
  );
#256 = CARTESIAN_POINT('',(4.453094538612,10.058485597372,5.413126399199
    ));
#257 = CARTESIAN_POINT('',(4.411861408538,10.076613236231,5.527093425511
    ));
#258 = CARTESIAN_POINT('',(4.380923582555,10.090026763996,5.643656282797
    ));
#259 = CARTESIAN_POINT('',(4.360303245876,10.0989050127,5.761906990303)
  );
#260 = CARTESIAN_POINT('',(4.35,10.10334103156,5.880975260325));
#261 = CARTESIAN_POINT('',(4.35,10.10334103156,6.083391917229));
#262 = CARTESIAN_POINT('',(4.355057501656,10.101163534753,6.166789481549
    ));
#263 = CARTESIAN_POINT('',(4.36517430025,10.096807701935,6.249906402308)
  );
#264 = CARTESIAN_POINT('',(4.380351203777,10.090250808143,6.332450715618
    ));
#265 = CARTESIAN_POINT('',(4.400587379052,10.081448010274,6.414123282982
    ));
#266 = CARTESIAN_POINT('',(4.436864850213,10.065504174333,6.529576625361
    ));
#267 = CARTESIAN_POINT('',(4.44880293906,10.060240266229,6.564311847393)
  );
#268 = CARTESIAN_POINT('',(4.461693159047,10.054535120071,6.598795165268
    ));
#269 = CARTESIAN_POINT('',(4.475533792449,10.048383043974,6.632998628052
    ));
#270 = CARTESIAN_POINT('',(4.49032220913,10.041777924484,6.666893124625)
  );
#271 = CARTESIAN_POINT('',(4.528887005307,10.024460529999,6.749145708705
    ));
#272 = CARTESIAN_POINT('',(4.553711073315,10.013238517458,6.797135600303
    ));
#273 = CARTESIAN_POINT('',(4.580512374805,10.001028748853,6.844316168634
    ));
#274 = CARTESIAN_POINT('',(4.609270710182,9.987811997446,6.890585870308)
  );
#275 = CARTESIAN_POINT('',(4.639960376014,9.973568249863,6.935843508389)
  );
#276 = CARTESIAN_POINT('',(4.702804429639,9.944081020114,7.020969355675)
  );
#277 = CARTESIAN_POINT('',(4.734697258929,9.928982053932,7.060992539242)
  );
#278 = CARTESIAN_POINT('',(4.768191533041,9.912968621571,7.099960639385)
  );
#279 = CARTESIAN_POINT('',(4.803243614013,9.896031391665,7.13778081264)
  );
#280 = CARTESIAN_POINT('',(4.839803345775,9.878162887464,7.174364515789)
  );
#281 = CARTESIAN_POINT('',(4.947022514091,9.82511732473,7.273833024257)
  );
#282 = CARTESIAN_POINT('',(5.021085306791,9.787749878513,7.333700313175)
  );
#283 = CARTESIAN_POINT('',(5.099528706807,9.747287254684,7.388578370224)
  );
#284 = CARTESIAN_POINT('',(5.18177758305,9.703813873492,7.437946163762)
  );
#285 = CARTESIAN_POINT('',(5.267180991068,9.657480041101,7.481413913526)
  );
#286 = CARTESIAN_POINT('',(5.458378025401,9.550921714047,7.562610257549)
  );
#287 = CARTESIAN_POINT('',(5.564923725024,9.489793445807,7.597897645692)
  );
#288 = CARTESIAN_POINT('',(5.673545364748,9.425509860417,7.624243108946)
  );
#289 = CARTESIAN_POINT('',(5.783049992221,9.358582491597,7.641556206643)
  );
#290 = CARTESIAN_POINT('',(5.89224964079,9.289667461553,7.65));
#291 = CARTESIAN_POINT('',(6.,9.219544457293,7.65));
#292 = CYLINDRICAL_SURFACE('',#293,11.);
#293 = AXIS2_PLACEMENT_3D('',#294,#295,#296);
#294 = CARTESIAN_POINT('',(0.,0.,0.));
#295 = DIRECTION('',(0.,0.,1.));
#296 = DIRECTION('',(1.,0.,-0.));
#297 = ADVANCED_FACE('',(#298,#324,#335,#346,#357),#368,.T.);
#298 = FACE_BOUND('',#299,.T.);
#299 = EDGE_LOOP('',(#300,#308,#309,#317));
#300 = ORIENTED_EDGE('',*,*,#301,.F.);
#301 = EDGE_CURVE('',#22,#302,#304,.T.);
#302 = VERTEX_POINT('',#303);
#303 = CARTESIAN_POINT('',(2.529822128135,0.6,12.));
#304 = LINE('',#305,#306);
#305 = CARTESIAN_POINT('',(0.,0.6,12.));
#306 = VECTOR('',#307,1.);
#307 = DIRECTION('',(-1.,-0.,0.));
#308 = ORIENTED_EDGE('',*,*,#21,.T.);
#309 = ORIENTED_EDGE('',*,*,#310,.T.);
#310 = EDGE_CURVE('',#24,#311,#313,.T.);
#311 = VERTEX_POINT('',#312);
#312 = CARTESIAN_POINT('',(2.529822128135,-0.6,12.));
#313 = LINE('',#314,#315);
#314 = CARTESIAN_POINT('',(0.,-0.6,12.));
#315 = VECTOR('',#316,1.);
#316 = DIRECTION('',(-1.,-0.,0.));
#317 = ORIENTED_EDGE('',*,*,#318,.F.);
#318 = EDGE_CURVE('',#302,#311,#319,.T.);
#319 = CIRCLE('',#320,2.6);
#320 = AXIS2_PLACEMENT_3D('',#321,#322,#323);
#321 = CARTESIAN_POINT('',(0.,0.,12.));
#322 = DIRECTION('',(0.,0.,1.));
#323 = DIRECTION('',(1.,0.,-0.));
#324 = FACE_BOUND('',#325,.T.);
#325 = EDGE_LOOP('',(#326));
#326 = ORIENTED_EDGE('',*,*,#327,.F.);
#327 = EDGE_CURVE('',#328,#328,#330,.T.);
#328 = VERTEX_POINT('',#329);
#329 = CARTESIAN_POINT('',(-3.653300858899,-5.303300858899,12.));
#330 = CIRCLE('',#331,1.65);
#331 = AXIS2_PLACEMENT_3D('',#332,#333,#334);
#332 = CARTESIAN_POINT('',(-5.303300858899,-5.303300858899,12.));
#333 = DIRECTION('',(0.,0.,1.));
#334 = DIRECTION('',(1.,0.,-0.));
#335 = FACE_BOUND('',#336,.T.);
#336 = EDGE_LOOP('',(#337));
#337 = ORIENTED_EDGE('',*,*,#338,.F.);
#338 = EDGE_CURVE('',#339,#339,#341,.T.);
#339 = VERTEX_POINT('',#340);
#340 = CARTESIAN_POINT('',(6.953300858899,-5.303300858899,12.));
#341 = CIRCLE('',#342,1.65);
#342 = AXIS2_PLACEMENT_3D('',#343,#344,#345);
#343 = CARTESIAN_POINT('',(5.303300858899,-5.303300858899,12.));
#344 = DIRECTION('',(0.,0.,1.));
#345 = DIRECTION('',(1.,0.,-0.));
#346 = FACE_BOUND('',#347,.T.);
#347 = EDGE_LOOP('',(#348));
#348 = ORIENTED_EDGE('',*,*,#349,.F.);
#349 = EDGE_CURVE('',#350,#350,#352,.T.);
#350 = VERTEX_POINT('',#351);
#351 = CARTESIAN_POINT('',(-3.653300858899,5.303300858899,12.));
#352 = CIRCLE('',#353,1.65);
#353 = AXIS2_PLACEMENT_3D('',#354,#355,#356);
#354 = CARTESIAN_POINT('',(-5.303300858899,5.303300858899,12.));
#355 = DIRECTION('',(0.,0.,1.));
#356 = DIRECTION('',(1.,0.,-0.));
#357 = FACE_BOUND('',#358,.T.);
#358 = EDGE_LOOP('',(#359));
#359 = ORIENTED_EDGE('',*,*,#360,.F.);
#360 = EDGE_CURVE('',#361,#361,#363,.T.);
#361 = VERTEX_POINT('',#362);
#362 = CARTESIAN_POINT('',(6.953300858899,5.303300858899,12.));
#363 = CIRCLE('',#364,1.65);
#364 = AXIS2_PLACEMENT_3D('',#365,#366,#367);
#365 = CARTESIAN_POINT('',(5.303300858899,5.303300858899,12.));
#366 = DIRECTION('',(0.,0.,1.));
#367 = DIRECTION('',(1.,0.,-0.));
#368 = PLANE('',#369);
#369 = AXIS2_PLACEMENT_3D('',#370,#371,#372);
#370 = CARTESIAN_POINT('',(0.,0.,12.));
#371 = DIRECTION('',(0.,0.,1.));
#372 = DIRECTION('',(1.,0.,-0.));
#373 = ADVANCED_FACE('',(#374,#392),#403,.F.);
#374 = FACE_BOUND('',#375,.F.);
#375 = EDGE_LOOP('',(#376,#377,#385,#391));
#376 = ORIENTED_EDGE('',*,*,#32,.F.);
#377 = ORIENTED_EDGE('',*,*,#378,.T.);
#378 = EDGE_CURVE('',#33,#379,#381,.T.);
#379 = VERTEX_POINT('',#380);
#380 = CARTESIAN_POINT('',(2.529822128135,0.6,0.));
#381 = LINE('',#382,#383);
#382 = CARTESIAN_POINT('',(0.,0.6,0.));
#383 = VECTOR('',#384,1.);
#384 = DIRECTION('',(-1.,-0.,0.));
#385 = ORIENTED_EDGE('',*,*,#386,.T.);
#386 = EDGE_CURVE('',#379,#302,#387,.T.);
#387 = LINE('',#388,#389);
#388 = CARTESIAN_POINT('',(2.529822128135,0.6,-1.));
#389 = VECTOR('',#390,1.);
#390 = DIRECTION('',(0.,0.,1.));
#391 = ORIENTED_EDGE('',*,*,#301,.F.);
#392 = FACE_BOUND('',#393,.F.);
#393 = EDGE_LOOP('',(#394));
#394 = ORIENTED_EDGE('',*,*,#395,.T.);
#395 = EDGE_CURVE('',#396,#396,#398,.T.);
#396 = VERTEX_POINT('',#397);
#397 = CARTESIAN_POINT('',(6.,0.6,3.75));
#398 = CIRCLE('',#399,2.25);
#399 = AXIS2_PLACEMENT_3D('',#400,#401,#402);
#400 = CARTESIAN_POINT('',(6.,0.6,6.));
#401 = DIRECTION('',(0.,-1.,0.));
#402 = DIRECTION('',(0.,-0.,-1.));
#403 = PLANE('',#404);
#404 = AXIS2_PLACEMENT_3D('',#405,#406,#407);
#405 = CARTESIAN_POINT('',(0.,0.6,-1.));
#406 = DIRECTION('',(-0.,1.,0.));
#407 = DIRECTION('',(0.,0.,1.));
#408 = ADVANCED_FACE('',(#409,#427),#438,.T.);
#409 = FACE_BOUND('',#410,.T.);
#410 = EDGE_LOOP('',(#411,#412,#420,#426));
#411 = ORIENTED_EDGE('',*,*,#49,.F.);
#412 = ORIENTED_EDGE('',*,*,#413,.T.);
#413 = EDGE_CURVE('',#41,#414,#416,.T.);
#414 = VERTEX_POINT('',#415);
#415 = CARTESIAN_POINT('',(2.529822128135,-0.6,0.));
#416 = LINE('',#417,#418);
#417 = CARTESIAN_POINT('',(0.,-0.6,0.));
#418 = VECTOR('',#419,1.);
#419 = DIRECTION('',(-1.,-0.,0.));
#420 = ORIENTED_EDGE('',*,*,#421,.T.);
#421 = EDGE_CURVE('',#414,#311,#422,.T.);
#422 = LINE('',#423,#424);
#423 = CARTESIAN_POINT('',(2.529822128135,-0.6,-1.));
#424 = VECTOR('',#425,1.);
#425 = DIRECTION('',(0.,0.,1.));
#426 = ORIENTED_EDGE('',*,*,#310,.F.);
#427 = FACE_BOUND('',#428,.T.);
#428 = EDGE_LOOP('',(#429));
#429 = ORIENTED_EDGE('',*,*,#430,.F.);
#430 = EDGE_CURVE('',#431,#431,#433,.T.);
#431 = VERTEX_POINT('',#432);
#432 = CARTESIAN_POINT('',(6.,-0.6,7.65));
#433 = CIRCLE('',#434,1.65);
#434 = AXIS2_PLACEMENT_3D('',#435,#436,#437);
#435 = CARTESIAN_POINT('',(6.,-0.6,6.));
#436 = DIRECTION('',(0.,1.,0.));
#437 = DIRECTION('',(0.,-0.,1.));
#438 = PLANE('',#439);
#439 = AXIS2_PLACEMENT_3D('',#440,#441,#442);
#440 = CARTESIAN_POINT('',(0.,-0.6,-1.));
#441 = DIRECTION('',(-0.,1.,0.));
#442 = DIRECTION('',(0.,0.,1.));
#443 = ADVANCED_FACE('',(#444,#456,#467,#478,#489),#500,.F.);
#444 = FACE_BOUND('',#445,.F.);
#445 = EDGE_LOOP('',(#446,#447,#448,#449));
#446 = ORIENTED_EDGE('',*,*,#378,.F.);
#447 = ORIENTED_EDGE('',*,*,#40,.T.);
#448 = ORIENTED_EDGE('',*,*,#413,.T.);
#449 = ORIENTED_EDGE('',*,*,#450,.F.);
#450 = EDGE_CURVE('',#379,#414,#451,.T.);
#451 = CIRCLE('',#452,2.6);
#452 = AXIS2_PLACEMENT_3D('',#453,#454,#455);
#453 = CARTESIAN_POINT('',(0.,0.,0.));
#454 = DIRECTION('',(0.,0.,1.));
#455 = DIRECTION('',(1.,0.,-0.));
#456 = FACE_BOUND('',#457,.F.);
#457 = EDGE_LOOP('',(#458));
#458 = ORIENTED_EDGE('',*,*,#459,.F.);
#459 = EDGE_CURVE('',#460,#460,#462,.T.);
#460 = VERTEX_POINT('',#461);
#461 = CARTESIAN_POINT('',(-3.653300858899,-5.303300858899,0.));
#462 = CIRCLE('',#463,1.65);
#463 = AXIS2_PLACEMENT_3D('',#464,#465,#466);
#464 = CARTESIAN_POINT('',(-5.303300858899,-5.303300858899,0.));
#465 = DIRECTION('',(0.,0.,1.));
#466 = DIRECTION('',(1.,0.,-0.));
#467 = FACE_BOUND('',#468,.F.);
#468 = EDGE_LOOP('',(#469));
#469 = ORIENTED_EDGE('',*,*,#470,.F.);
#470 = EDGE_CURVE('',#471,#471,#473,.T.);
#471 = VERTEX_POINT('',#472);
#472 = CARTESIAN_POINT('',(6.953300858899,-5.303300858899,0.));
#473 = CIRCLE('',#474,1.65);
#474 = AXIS2_PLACEMENT_3D('',#475,#476,#477);
#475 = CARTESIAN_POINT('',(5.303300858899,-5.303300858899,0.));
#476 = DIRECTION('',(0.,0.,1.));
#477 = DIRECTION('',(1.,0.,-0.));
#478 = FACE_BOUND('',#479,.F.);
#479 = EDGE_LOOP('',(#480));
#480 = ORIENTED_EDGE('',*,*,#481,.F.);
#481 = EDGE_CURVE('',#482,#482,#484,.T.);
#482 = VERTEX_POINT('',#483);
#483 = CARTESIAN_POINT('',(-3.653300858899,5.303300858899,0.));
#484 = CIRCLE('',#485,1.65);
#485 = AXIS2_PLACEMENT_3D('',#486,#487,#488);
#486 = CARTESIAN_POINT('',(-5.303300858899,5.303300858899,0.));
#487 = DIRECTION('',(0.,0.,1.));
#488 = DIRECTION('',(1.,0.,-0.));
#489 = FACE_BOUND('',#490,.F.);
#490 = EDGE_LOOP('',(#491));
#491 = ORIENTED_EDGE('',*,*,#492,.F.);
#492 = EDGE_CURVE('',#493,#493,#495,.T.);
#493 = VERTEX_POINT('',#494);
#494 = CARTESIAN_POINT('',(6.953300858899,5.303300858899,0.));
#495 = CIRCLE('',#496,1.65);
#496 = AXIS2_PLACEMENT_3D('',#497,#498,#499);
#497 = CARTESIAN_POINT('',(5.303300858899,5.303300858899,0.));
#498 = DIRECTION('',(0.,0.,1.));
#499 = DIRECTION('',(1.,0.,-0.));
#500 = PLANE('',#501);
#501 = AXIS2_PLACEMENT_3D('',#502,#503,#504);
#502 = CARTESIAN_POINT('',(0.,0.,0.));
#503 = DIRECTION('',(0.,0.,1.));
#504 = DIRECTION('',(1.,0.,-0.));
#505 = ADVANCED_FACE('',(#506),#752,.F.);
#506 = FACE_BOUND('',#507,.F.);
#507 = EDGE_LOOP('',(#508,#509,#517,#549,#581,#587,#588,#589,#671,#751)
  );
#508 = ORIENTED_EDGE('',*,*,#430,.F.);
#509 = ORIENTED_EDGE('',*,*,#510,.F.);
#510 = EDGE_CURVE('',#511,#431,#513,.T.);
#511 = VERTEX_POINT('',#512);
#512 = CARTESIAN_POINT('',(6.,-3.807603594481,7.65));
#513 = LINE('',#514,#515);
#514 = CARTESIAN_POINT('',(6.,-12.,7.65));
#515 = VECTOR('',#516,1.);
#516 = DIRECTION('',(0.,1.,0.));
#517 = ORIENTED_EDGE('',*,*,#518,.T.);
#518 = EDGE_CURVE('',#511,#519,#521,.T.);
#519 = VERTEX_POINT('',#520);
#520 = CARTESIAN_POINT('',(6.953300858899,-5.303300858899,7.346743283786
    ));
#521 = B_SPLINE_CURVE_WITH_KNOTS('',6,(#522,#523,#524,#525,#526,#527,
    #528,#529,#530,#531,#532,#533,#534,#535,#536,#537,#538,#539,#540,
    #541,#542,#543,#544,#545,#546,#547,#548),.UNSPECIFIED.,.F.,.F.,(7,5,
    5,5,5,7),(0.,0.174460086743,0.277247589021,0.522962306368,
    0.763881567709,1.),.UNSPECIFIED.);
#522 = CARTESIAN_POINT('',(6.,-3.807603594481,7.65));
#523 = CARTESIAN_POINT('',(6.054255514641,-3.832875934913,7.65));
#524 = CARTESIAN_POINT('',(6.107032293049,-3.860333646674,7.647859225698
    ));
#525 = CARTESIAN_POINT('',(6.158186516851,-3.889834313537,7.643796152731
    ));
#526 = CARTESIAN_POINT('',(6.207589128389,-3.921216935816,7.638037294885
    ));
#527 = CARTESIAN_POINT('',(6.255127112179,-3.954301138405,7.630815392761
    ));
#528 = CARTESIAN_POINT('',(6.327557991608,-4.009263134018,7.617390376527
    ));
#529 = CARTESIAN_POINT('',(6.353748428407,-4.03017458643,7.611984226428)
  );
#530 = CARTESIAN_POINT('',(6.379269035092,-4.051591064446,7.60619414661)
  );
#531 = CARTESIAN_POINT('',(6.404115788539,-4.073485648368,7.600063326217
    ));
#532 = CARTESIAN_POINT('',(6.428287694163,-4.095834170424,7.59363314908)
  );
#533 = CARTESIAN_POINT('',(6.507961637546,-4.173073565683,7.570950777747
    ));
#534 = CARTESIAN_POINT('',(6.560272371924,-4.229985944712,7.553479230063
    ));
#535 = CARTESIAN_POINT('',(6.608772720852,-4.289089405055,7.535059883391
    ));
#536 = CARTESIAN_POINT('',(6.653512978396,-4.350168506496,7.516177306241
    ));
#537 = CARTESIAN_POINT('',(6.694533574599,-4.413056396385,7.497283370518
    ));
#538 = CARTESIAN_POINT('',(6.768455274309,-4.540955028459,7.4606997749)
  );
#539 = CARTESIAN_POINT('',(6.801525886507,-4.605947061898,7.442980499771
    ));
#540 = CARTESIAN_POINT('',(6.831040227524,-4.67243353936,7.426081596314)
  );
#541 = CARTESIAN_POINT('',(6.856974220035,-4.740265474651,7.410415617382
    ));
#542 = CARTESIAN_POINT('',(6.87929531439,-4.809321705644,7.39636458916)
  );
#543 = CARTESIAN_POINT('',(6.916228665159,-4.948294203828,7.372406588665
    ));
#544 = CARTESIAN_POINT('',(6.930994457956,-5.018199140632,7.362416683499
    ));
#545 = CARTESIAN_POINT('',(6.942125482255,-5.088905167732,7.354653863199
    ));
#546 = CARTESIAN_POINT('',(6.949570921699,-5.160145663096,7.349383538696
    ));
#547 = CARTESIAN_POINT('',(6.953300858899,-5.231685990998,7.346743283786
    ));
#548 = CARTESIAN_POINT('',(6.953300858899,-5.303300858899,7.346743283786
    ));
#549 = ORIENTED_EDGE('',*,*,#550,.F.);
#550 = EDGE_CURVE('',#551,#519,#553,.T.);
#551 = VERTEX_POINT('',#552);
#552 = CARTESIAN_POINT('',(6.,-6.798998123318,7.65));
#553 = B_SPLINE_CURVE_WITH_KNOTS('',6,(#554,#555,#556,#557,#558,#559,
    #560,#561,#562,#563,#564,#565,#566,#567,#568,#569,#570,#571,#572,
    #573,#574,#575,#576,#577,#578,#579,#580),.UNSPECIFIED.,.F.,.F.,(7,5,
    5,5,5,7),(0.,0.174460086701,0.277247588984,0.522962306344,
    0.763881567697,1.),.UNSPECIFIED.);
#554 = CARTESIAN_POINT('',(6.,-6.798998123318,7.65));
#555 = CARTESIAN_POINT('',(6.054255514659,-6.773725782877,7.65));
#556 = CARTESIAN_POINT('',(6.107032293044,-6.746268071125,7.647859225697
    ));
#557 = CARTESIAN_POINT('',(6.158186516836,-6.71676740427,7.643796152733)
  );
#558 = CARTESIAN_POINT('',(6.207589128386,-6.685384781987,7.638037294887
    ));
#559 = CARTESIAN_POINT('',(6.255127112192,-6.652300579384,7.630815392758
    ));
#560 = CARTESIAN_POINT('',(6.327557991608,-6.597338583781,7.617390376527
    ));
#561 = CARTESIAN_POINT('',(6.353748428407,-6.576427131368,7.611984226428
    ));
#562 = CARTESIAN_POINT('',(6.379269035092,-6.555010653353,7.60619414661)
  );
#563 = CARTESIAN_POINT('',(6.404115788539,-6.53311606943,7.600063326217)
  );
#564 = CARTESIAN_POINT('',(6.428287694163,-6.510767547375,7.59363314908)
  );
#565 = CARTESIAN_POINT('',(6.507961637546,-6.433528152115,7.570950777747
    ));
#566 = CARTESIAN_POINT('',(6.560272371924,-6.376615773087,7.553479230063
    ));
#567 = CARTESIAN_POINT('',(6.608772720852,-6.317512312744,7.535059883391
    ));
#568 = CARTESIAN_POINT('',(6.653512978396,-6.256433211303,7.516177306241
    ));
#569 = CARTESIAN_POINT('',(6.694533574599,-6.193545321413,7.497283370518
    ));
#570 = CARTESIAN_POINT('',(6.768455274309,-6.065646689339,7.4606997749)
  );
#571 = CARTESIAN_POINT('',(6.801525886507,-6.0006546559,7.442980499771)
  );
#572 = CARTESIAN_POINT('',(6.831040227524,-5.934168178438,7.426081596314
    ));
#573 = CARTESIAN_POINT('',(6.856974220035,-5.866336243147,7.410415617382
    ));
#574 = CARTESIAN_POINT('',(6.87929531439,-5.797280012154,7.39636458916)
  );
#575 = CARTESIAN_POINT('',(6.916228665159,-5.658307513971,7.372406588665
    ));
#576 = CARTESIAN_POINT('',(6.930994457956,-5.588402577166,7.362416683499
    ));
#577 = CARTESIAN_POINT('',(6.942125482255,-5.517696550067,7.354653863199
    ));
#578 = CARTESIAN_POINT('',(6.949570921699,-5.446456054702,7.349383538696
    ));
#579 = CARTESIAN_POINT('',(6.953300858899,-5.374915726801,7.346743283786
    ));
#580 = CARTESIAN_POINT('',(6.953300858899,-5.303300858899,7.346743283786
    ));
#581 = ORIENTED_EDGE('',*,*,#582,.F.);
#582 = EDGE_CURVE('',#58,#551,#583,.T.);
#583 = LINE('',#584,#585);
#584 = CARTESIAN_POINT('',(6.,-12.,7.65));
#585 = VECTOR('',#586,1.);
#586 = DIRECTION('',(0.,1.,0.));
#587 = ORIENTED_EDGE('',*,*,#57,.T.);
#588 = ORIENTED_EDGE('',*,*,#582,.T.);
#589 = ORIENTED_EDGE('',*,*,#590,.F.);
#590 = EDGE_CURVE('',#591,#551,#593,.T.);
#591 = VERTEX_POINT('',#592);
#592 = CARTESIAN_POINT('',(6.953300858899,-5.303300858899,4.653256716214
    ));
#593 = B_SPLINE_CURVE_WITH_KNOTS('',6,(#594,#595,#596,#597,#598,#599,
    #600,#601,#602,#603,#604,#605,#606,#607,#608,#609,#610,#611,#612,
    #613,#614,#615,#616,#617,#618,#619,#620,#621,#622,#623,#624,#625,
    #626,#627,#628,#629,#630,#631,#632,#633,#634,#635,#636,#637,#638,
    #639,#640,#641,#642,#643,#644,#645,#646,#647,#648,#649,#650,#651,
    #652,#653,#654,#655,#656,#657,#658,#659,#660,#661,#662,#663,#664,
    #665,#666,#667,#668,#669,#670),.UNSPECIFIED.,.F.,.F.,(7,5,5,5,5,5,5,
    5,5,5,5,5,5,5,5,7),(0.,6.232735261489E-02,0.127790995144,
    0.203779585056,0.236606292407,0.282756023787,0.368646775958,
    0.429772716713,0.50583232952,0.570046158173,0.634482832793,
    0.697655252099,0.762828693658,0.872787779309,0.916945032754,1.),
  .UNSPECIFIED.);
#594 = CARTESIAN_POINT('',(6.953300858899,-5.303300858899,4.653256716214
    ));
#595 = CARTESIAN_POINT('',(6.953300858899,-5.373581402222,4.653256716214
    ));
#596 = CARTESIAN_POINT('',(6.949708616677,-5.443794652568,4.650713928759
    ));
#597 = CARTESIAN_POINT('',(6.942536925092,-5.513724957308,4.645637381946
    ));
#598 = CARTESIAN_POINT('',(6.931813830278,-5.583148248297,4.638154881634
    ));
#599 = CARTESIAN_POINT('',(6.917587423929,-5.65181108076,4.628513519658)
  );
#600 = CARTESIAN_POINT('',(6.88146472151,-5.790417721793,4.605006316529)
  );
#601 = CARTESIAN_POINT('',(6.859210855054,-5.860281629989,4.590947090191
    ));
#602 = CARTESIAN_POINT('',(6.833266011262,-5.928906513436,4.575214625307
    ));
#603 = CARTESIAN_POINT('',(6.803664517985,-5.996166217088,4.558201820957
    ));
#604 = CARTESIAN_POINT('',(6.770432601683,-6.061905481478,4.540334247692
    ));
#605 = CARTESIAN_POINT('',(6.690854756158,-6.200265908926,4.500834402741
    ));
#606 = CARTESIAN_POINT('',(6.643214993978,-6.272371227383,4.479036557984
    ));
#607 = CARTESIAN_POINT('',(6.590656651104,-6.342064747021,4.45732229787)
  );
#608 = CARTESIAN_POINT('',(6.533110307107,-6.409086810907,4.436380360559
    ));
#609 = CARTESIAN_POINT('',(6.470496193018,-6.473090785165,4.416960852851
    ));
#610 = CARTESIAN_POINT('',(6.373491089365,-6.559777330099,4.392543923413
    ));
#611 = CARTESIAN_POINT('',(6.343271171838,-6.585280475924,4.385620282372
    ));
#612 = CARTESIAN_POINT('',(6.312103495441,-6.610087825404,4.379210533172
    ));
#613 = CARTESIAN_POINT('',(6.279999081373,-6.634150856997,4.373388287557
    ));
#614 = CARTESIAN_POINT('',(6.246971696576,-6.657420423811,4.368229180229
    ));
#615 = CARTESIAN_POINT('',(6.165331645627,-6.711375017619,4.357599344777
    ));
#616 = CARTESIAN_POINT('',(6.115787242189,-6.741267530811,4.352845862445
    ));
#617 = CARTESIAN_POINT('',(6.064556622068,-6.769305994599,4.349786846722
    ));
#618 = CARTESIAN_POINT('',(6.011810649423,-6.795308125199,4.348642686761
    ));
#619 = CARTESIAN_POINT('',(5.957735732817,-6.819125928492,4.349614583416
    ));
#620 = CARTESIAN_POINT('',(5.799786216801,-6.880691904427,4.358961368056
    ));
#621 = CARTESIAN_POINT('',(5.693334619386,-6.912692464506,4.372978069371
    ));
#622 = CARTESIAN_POINT('',(5.585444541237,-6.935593307993,4.395972509706
    ));
#623 = CARTESIAN_POINT('',(5.478532041177,-6.949319054652,4.428211745308
    ));
#624 = CARTESIAN_POINT('',(5.374975096579,-6.954658103816,4.469070567361
    ));
#625 = CARTESIAN_POINT('',(5.207131067945,-6.951973847723,4.550901504823
    ));
#626 = CARTESIAN_POINT('',(5.140020687779,-6.947357690114,4.588497714651
    ));
#627 = CARTESIAN_POINT('',(5.075823880264,-6.939742375228,4.62935220451)
  );
#628 = CARTESIAN_POINT('',(5.014737770759,-6.929627587136,4.67312598963)
  );
#629 = CARTESIAN_POINT('',(4.956918166773,-6.917509158509,4.719454984121
    ));
#630 = CARTESIAN_POINT('',(4.834741221587,-6.886913220174,4.828291155459
    ));
#631 = CARTESIAN_POINT('',(4.77211153772,-6.867573863758,4.892097932516)
  );
#632 = CARTESIAN_POINT('',(4.714532526152,-6.846701378676,4.958919944851
    ));
#633 = CARTESIAN_POINT('',(4.661925125597,-6.825043015557,5.028410649963
    ));
#634 = CARTESIAN_POINT('',(4.614219964849,-6.8032846936,5.100310148026)
  );
#635 = CARTESIAN_POINT('',(4.535226944761,-6.764187717979,5.237003823219
    ));
#636 = CARTESIAN_POINT('',(4.502511446273,-6.746674606817,5.3012086714)
  );
#637 = CARTESIAN_POINT('',(4.473268557261,-6.729958440363,5.366873229251
    ));
#638 = CARTESIAN_POINT('',(4.447520546491,-6.714436723082,5.433855452647
    ));
#639 = CARTESIAN_POINT('',(4.425298451354,-6.700478362193,5.50203970767)
  );
#640 = CARTESIAN_POINT('',(4.387947989247,-6.676299677735,5.640871140799
    ));
#641 = CARTESIAN_POINT('',(4.372834543223,-6.666085789785,5.71156328343)
  );
#642 = CARTESIAN_POINT('',(4.361440535121,-6.658142418341,5.783083306214
    ));
#643 = CARTESIAN_POINT('',(4.353818641728,-6.65274718709,5.85515567595)
  );
#644 = CARTESIAN_POINT('',(4.35,-6.650044142685,5.92753856125));
#645 = CARTESIAN_POINT('',(4.35,-6.650044142685,6.071039736598));
#646 = CARTESIAN_POINT('',(4.353670269274,-6.65264216153,6.142007777247)
  );
#647 = CARTESIAN_POINT('',(4.360997032537,-6.657828479221,6.212683108964
    ));
#648 = CARTESIAN_POINT('',(4.371951159971,-6.665469775219,6.282835849461
    ));
#649 = CARTESIAN_POINT('',(4.386483056151,-6.675308696144,6.35220533145)
  );
#650 = CARTESIAN_POINT('',(4.423040311267,-6.699055631511,6.490922096128
    ));
#651 = CARTESIAN_POINT('',(4.44529695103,-6.713088429828,6.560231500337)
  );
#652 = CARTESIAN_POINT('',(4.471190100706,-6.728757156976,6.628314034656
    ));
#653 = CARTESIAN_POINT('',(4.500686481641,-6.745676713919,6.695046634914
    ));
#654 = CARTESIAN_POINT('',(4.533760985094,-6.763430680863,6.760278049541
    ));
#655 = CARTESIAN_POINT('',(4.632167028073,-6.81221940416,6.931045770117)
  );
#656 = CARTESIAN_POINT('',(4.704208221139,-6.844076313343,7.03375629156)
  );
#657 = CARTESIAN_POINT('',(4.786588508906,-6.875154691852,7.131280487253
    ));
#658 = CARTESIAN_POINT('',(4.87949877579,-6.903274083918,7.222648458817)
  );
#659 = CARTESIAN_POINT('',(4.983076645382,-6.926007259529,7.306499715293
    ));
#660 = CARTESIAN_POINT('',(5.142962689073,-6.946140942473,7.411021791128
    ));
#661 = CARTESIAN_POINT('',(5.190441228758,-6.950557049361,7.439457123155
    ));
#662 = CARTESIAN_POINT('',(5.239453760242,-6.953414795912,7.466191256433
    ));
#663 = CARTESIAN_POINT('',(5.289850445726,-6.954521967428,7.491065327867
    ));
#664 = CARTESIAN_POINT('',(5.34146845359,-6.953702444344,7.513949203425)
  );
#665 = CARTESIAN_POINT('',(5.493193973488,-6.945337151386,7.57384549291)
  );
#666 = CARTESIAN_POINT('',(5.595837755352,-6.932509167371,7.605497295829
    ));
#667 = CARTESIAN_POINT('',(5.700006047944,-6.911346243461,7.628698576535
    ));
#668 = CARTESIAN_POINT('',(5.803504073408,-6.881558082417,7.643320441493
    ));
#669 = CARTESIAN_POINT('',(5.904161637426,-6.843639847601,7.65));
#670 = CARTESIAN_POINT('',(6.,-6.798998123318,7.65));
#671 = ORIENTED_EDGE('',*,*,#672,.T.);
#672 = EDGE_CURVE('',#591,#511,#673,.T.);
#673 = B_SPLINE_CURVE_WITH_KNOTS('',6,(#674,#675,#676,#677,#678,#679,
    #680,#681,#682,#683,#684,#685,#686,#687,#688,#689,#690,#691,#692,
    #693,#694,#695,#696,#697,#698,#699,#700,#701,#702,#703,#704,#705,
    #706,#707,#708,#709,#710,#711,#712,#713,#714,#715,#716,#717,#718,
    #719,#720,#721,#722,#723,#724,#725,#726,#727,#728,#729,#730,#731,
    #732,#733,#734,#735,#736,#737,#738,#739,#740,#741,#742,#743,#744,
    #745,#746,#747,#748,#749,#750),.UNSPECIFIED.,.F.,.F.,(7,5,5,5,5,5,5,
    5,5,5,5,5,5,5,5,7),(0.,6.23273422486E-02,0.12779097389,
    0.203779551164,0.236606256405,0.282755989862,0.36864674604,
    0.429772689672,0.505832306086,0.570046137785,0.63448281546,
    0.697655237763,0.762828682412,0.872787773277,0.916945028816,1.),
  .UNSPECIFIED.);
#674 = CARTESIAN_POINT('',(6.953300858899,-5.303300858899,4.653256716214
    ));
#675 = CARTESIAN_POINT('',(6.953300858899,-5.233020315576,4.653256716214
    ));
#676 = CARTESIAN_POINT('',(6.949708616677,-5.16280706523,4.650713928759)
  );
#677 = CARTESIAN_POINT('',(6.942536925092,-5.09287676049,4.645637381946)
  );
#678 = CARTESIAN_POINT('',(6.931813830278,-5.023453469502,4.638154881634
    ));
#679 = CARTESIAN_POINT('',(6.917587423929,-4.954790637038,4.628513519658
    ));
#680 = CARTESIAN_POINT('',(6.88146472151,-4.816183996005,4.605006316529)
  );
#681 = CARTESIAN_POINT('',(6.859210855054,-4.746320087809,4.590947090191
    ));
#682 = CARTESIAN_POINT('',(6.833266011262,-4.677695204362,4.575214625307
    ));
#683 = CARTESIAN_POINT('',(6.803664517985,-4.61043550071,4.558201820957)
  );
#684 = CARTESIAN_POINT('',(6.770432601683,-4.54469623632,4.540334247692)
  );
#685 = CARTESIAN_POINT('',(6.690854756158,-4.406335808872,4.500834402741
    ));
#686 = CARTESIAN_POINT('',(6.643214993978,-4.334230490416,4.479036557984
    ));
#687 = CARTESIAN_POINT('',(6.590656651104,-4.264536970777,4.45732229787)
  );
#688 = CARTESIAN_POINT('',(6.533110307107,-4.197514906892,4.436380360559
    ));
#689 = CARTESIAN_POINT('',(6.470496193018,-4.133510932633,4.416960852851
    ));
#690 = CARTESIAN_POINT('',(6.37349108638,-4.046824385031,4.392543922661)
  );
#691 = CARTESIAN_POINT('',(6.343271172989,-4.021321242457,4.38562028243)
  );
#692 = CARTESIAN_POINT('',(6.312103498757,-3.996513894945,4.379210533794
    ));
#693 = CARTESIAN_POINT('',(6.279999081986,-3.972450861586,4.373388287835
    ));
#694 = CARTESIAN_POINT('',(6.246971692918,-3.94918129157,4.368229179753)
  );
#695 = CARTESIAN_POINT('',(6.165331645556,-3.895226700132,4.357599344768
    ));
#696 = CARTESIAN_POINT('',(6.115787242208,-3.865334187008,4.352845862454
    ));
#697 = CARTESIAN_POINT('',(6.064556622149,-3.837295723241,4.349786846724
    ));
#698 = CARTESIAN_POINT('',(6.011810649447,-3.8112935926,4.348642686753)
  );
#699 = CARTESIAN_POINT('',(5.957735732725,-3.78747578927,4.349614583421)
  );
#700 = CARTESIAN_POINT('',(5.799786216801,-3.725909813371,4.358961368056
    ));
#701 = CARTESIAN_POINT('',(5.693334619386,-3.693909253292,4.372978069371
    ));
#702 = CARTESIAN_POINT('',(5.585444541237,-3.671008409805,4.395972509706
    ));
#703 = CARTESIAN_POINT('',(5.478532041177,-3.657282663146,4.428211745308
    ));
#704 = CARTESIAN_POINT('',(5.374975096579,-3.651943613982,4.469070567361
    ));
#705 = CARTESIAN_POINT('',(5.207131067917,-3.654627870076,4.550901504836
    ));
#706 = CARTESIAN_POINT('',(5.140020687787,-3.659244027686,4.58849771465)
  );
#707 = CARTESIAN_POINT('',(5.075823880287,-3.666859342567,4.629352204495
    ));
#708 = CARTESIAN_POINT('',(5.014737770764,-3.676974130659,4.673125989622
    ));
#709 = CARTESIAN_POINT('',(4.956918166754,-3.689092559294,4.719454984139
    ));
#710 = CARTESIAN_POINT('',(4.834741221587,-3.719688497624,4.828291155459
    ));
#711 = CARTESIAN_POINT('',(4.77211153772,-3.739027854041,4.892097932516)
  );
#712 = CARTESIAN_POINT('',(4.714532526152,-3.759900339122,4.958919944851
    ));
#713 = CARTESIAN_POINT('',(4.661925125597,-3.781558702241,5.028410649963
    ));
#714 = CARTESIAN_POINT('',(4.61421996485,-3.803317024198,5.100310148026)
  );
#715 = CARTESIAN_POINT('',(4.535226944761,-3.842413999819,5.237003823219
    ));
#716 = CARTESIAN_POINT('',(4.502511446273,-3.859927110982,5.3012086714)
  );
#717 = CARTESIAN_POINT('',(4.473268557261,-3.876643277435,5.366873229251
    ));
#718 = CARTESIAN_POINT('',(4.447520546491,-3.892164994716,5.433855452647
    ));
#719 = CARTESIAN_POINT('',(4.425298451354,-3.906123355605,5.50203970767)
  );
#720 = CARTESIAN_POINT('',(4.387947989247,-3.930302040063,5.640871140799
    ));
#721 = CARTESIAN_POINT('',(4.372834543223,-3.940515928014,5.71156328343)
  );
#722 = CARTESIAN_POINT('',(4.361440535121,-3.948459299458,5.783083306214
    ));
#723 = CARTESIAN_POINT('',(4.353818641727,-3.953854530708,5.85515567595)
  );
#724 = CARTESIAN_POINT('',(4.35,-3.956557575113,5.92753856125));
#725 = CARTESIAN_POINT('',(4.35,-3.956557575113,6.071039736598));
#726 = CARTESIAN_POINT('',(4.353670269274,-3.953959556268,6.142007777247
    ));
#727 = CARTESIAN_POINT('',(4.360997032537,-3.948773238577,6.212683108965
    ));
#728 = CARTESIAN_POINT('',(4.371951159971,-3.941131942579,6.282835849461
    ));
#729 = CARTESIAN_POINT('',(4.386483056151,-3.931293021654,6.35220533145)
  );
#730 = CARTESIAN_POINT('',(4.423040311267,-3.907546086287,6.490922096128
    ));
#731 = CARTESIAN_POINT('',(4.44529695103,-3.89351328797,6.560231500337)
  );
#732 = CARTESIAN_POINT('',(4.471190100706,-3.877844560822,6.628314034656
    ));
#733 = CARTESIAN_POINT('',(4.500686481641,-3.860925003879,6.695046634914
    ));
#734 = CARTESIAN_POINT('',(4.533760985094,-3.843171036935,6.760278049541
    ));
#735 = CARTESIAN_POINT('',(4.632167028073,-3.794382313638,6.931045770117
    ));
#736 = CARTESIAN_POINT('',(4.704208221138,-3.762525404455,7.033756291559
    ));
#737 = CARTESIAN_POINT('',(4.786588508907,-3.731447025946,7.131280487254
    ));
#738 = CARTESIAN_POINT('',(4.87949877579,-3.703327633881,7.222648458817)
  );
#739 = CARTESIAN_POINT('',(4.983076645382,-3.680594458269,7.306499715293
    ));
#740 = CARTESIAN_POINT('',(5.142962689073,-3.660460775325,7.411021791128
    ));
#741 = CARTESIAN_POINT('',(5.190441228758,-3.656044668437,7.439457123155
    ));
#742 = CARTESIAN_POINT('',(5.239453760242,-3.653186921886,7.466191256433
    ));
#743 = CARTESIAN_POINT('',(5.289850445726,-3.65207975037,7.491065327867)
  );
#744 = CARTESIAN_POINT('',(5.34146845359,-3.652899273454,7.513949203425)
  );
#745 = CARTESIAN_POINT('',(5.493193973488,-3.661264566412,7.57384549291)
  );
#746 = CARTESIAN_POINT('',(5.595837755352,-3.674092550427,7.605497295829
    ));
#747 = CARTESIAN_POINT('',(5.700006047944,-3.695255474337,7.628698576535
    ));
#748 = CARTESIAN_POINT('',(5.803504073408,-3.725043635381,7.643320441493
    ));
#749 = CARTESIAN_POINT('',(5.904161637426,-3.762961870197,7.65));
#750 = CARTESIAN_POINT('',(6.,-3.807603594481,7.65));
#751 = ORIENTED_EDGE('',*,*,#510,.T.);
#752 = CYLINDRICAL_SURFACE('',#753,1.65);
#753 = AXIS2_PLACEMENT_3D('',#754,#755,#756);
#754 = CARTESIAN_POINT('',(6.,-12.,6.));
#755 = DIRECTION('',(0.,1.,0.));
#756 = DIRECTION('',(0.,-0.,1.));
#757 = ADVANCED_FACE('',(#758),#911,.F.);
#758 = FACE_BOUND('',#759,.F.);
#759 = EDGE_LOOP('',(#760,#768,#769,#770,#802,#811));
#760 = ORIENTED_EDGE('',*,*,#761,.T.);
#761 = EDGE_CURVE('',#762,#177,#764,.T.);
#762 = VERTEX_POINT('',#763);
#763 = CARTESIAN_POINT('',(6.,6.798998123318,7.65));
#764 = LINE('',#765,#766);
#765 = CARTESIAN_POINT('',(6.,-12.,7.65));
#766 = VECTOR('',#767,1.);
#767 = DIRECTION('',(0.,1.,0.));
#768 = ORIENTED_EDGE('',*,*,#176,.F.);
#769 = ORIENTED_EDGE('',*,*,#761,.F.);
#770 = ORIENTED_EDGE('',*,*,#771,.F.);
#771 = EDGE_CURVE('',#772,#762,#774,.T.);
#772 = VERTEX_POINT('',#773);
#773 = CARTESIAN_POINT('',(6.798998123609,6.,7.443641926389));
#774 = B_SPLINE_CURVE_WITH_KNOTS('',6,(#775,#776,#777,#778,#779,#780,
    #781,#782,#783,#784,#785,#786,#787,#788,#789,#790,#791,#792,#793,
    #794,#795,#796,#797,#798,#799,#800,#801),.UNSPECIFIED.,.F.,.F.,(7,5,
    5,5,5,7),(0.,0.234224009472,0.478485314922,0.72611535799,
    0.830235609998,1.),.UNSPECIFIED.);
#775 = CARTESIAN_POINT('',(6.953300858899,5.303300858899,7.346743283786)
  );
#776 = CARTESIAN_POINT('',(6.953300858899,5.374340595497,7.346743283786)
  );
#777 = CARTESIAN_POINT('',(6.949630589625,5.445308636146,7.349341302631)
  );
#778 = CARTESIAN_POINT('',(6.942303826363,5.515983967864,7.354527620322)
  );
#779 = CARTESIAN_POINT('',(6.931349698928,5.58613670836,7.36216891632));
#780 = CARTESIAN_POINT('',(6.916817802748,5.655506190349,7.372007837245)
  );
#781 = CARTESIAN_POINT('',(6.880059417591,5.794986144397,7.395885423068)
  );
#782 = CARTESIAN_POINT('',(6.857521757751,5.865031971478,7.41009153137)
  );
#783 = CARTESIAN_POINT('',(6.831269661027,5.933822246403,7.425965023455)
  );
#784 = CARTESIAN_POINT('',(6.801336965448,6.001230841568,7.443107990981)
  );
#785 = CARTESIAN_POINT('',(6.767748588438,6.067102203765,7.461090174553)
  );
#786 = CARTESIAN_POINT('',(6.692810704535,6.196281698019,7.498093307308)
  );
#787 = CARTESIAN_POINT('',(6.651331306879,6.259592932388,7.517139712518)
  );
#788 = CARTESIAN_POINT('',(6.606072820152,6.321062696561,7.536160469739)
  );
#789 = CARTESIAN_POINT('',(6.556993518606,6.380518810301,7.554692415462)
  );
#790 = CARTESIAN_POINT('',(6.504041987256,6.437738718168,7.572238286356)
  );
#791 = CARTESIAN_POINT('',(6.423248568272,6.515455256078,7.594985244414)
  );
#792 = CARTESIAN_POINT('',(6.398642706095,6.538013120916,7.601446604844)
  );
#793 = CARTESIAN_POINT('',(6.373344361014,6.560101736908,7.607594752846)
  );
#794 = CARTESIAN_POINT('',(6.347354874611,6.581695664628,7.613386462552)
  );
#795 = CARTESIAN_POINT('',(6.32067889999,6.602766565422,7.618776615515)
  );
#796 = CARTESIAN_POINT('',(6.248723859497,6.656734851075,7.631775280676)
  );
#797 = CARTESIAN_POINT('',(6.202269864798,6.68875090747,7.638649156138)
  );
#798 = CARTESIAN_POINT('',(6.154054965961,6.719144052051,7.644120144217)
  );
#799 = CARTESIAN_POINT('',(6.104187541582,6.747746289382,7.647973268374)
  );
#800 = CARTESIAN_POINT('',(6.052790503546,6.77440818834,7.65));
#801 = CARTESIAN_POINT('',(6.,6.798998123318,7.65));
#802 = ORIENTED_EDGE('',*,*,#803,.T.);
#803 = EDGE_CURVE('',#772,#804,#806,.T.);
#804 = VERTEX_POINT('',#805);
#805 = CARTESIAN_POINT('',(6.798998123609,6.,4.556358073611));
#806 = CIRCLE('',#807,1.65);
#807 = AXIS2_PLACEMENT_3D('',#808,#809,#810);
#808 = CARTESIAN_POINT('',(6.,6.,6.));
#809 = DIRECTION('',(0.,1.,0.));
#810 = DIRECTION('',(0.,-0.,1.));
#811 = ORIENTED_EDGE('',*,*,#812,.T.);
#812 = EDGE_CURVE('',#804,#762,#813,.T.);
#813 = B_SPLINE_CURVE_WITH_KNOTS('',6,(#814,#815,#816,#817,#818,#819,
    #820,#821,#822,#823,#824,#825,#826,#827,#828,#829,#830,#831,#832,
    #833,#834,#835,#836,#837,#838,#839,#840,#841,#842,#843,#844,#845,
    #846,#847,#848,#849,#850,#851,#852,#853,#854,#855,#856,#857,#858,
    #859,#860,#861,#862,#863,#864,#865,#866,#867,#868,#869,#870,#871,
    #872,#873,#874,#875,#876,#877,#878,#879,#880,#881,#882,#883,#884,
    #885,#886,#887,#888,#889,#890,#891,#892,#893,#894,#895,#896,#897,
    #898,#899,#900,#901,#902,#903,#904,#905,#906,#907,#908,#909,#910),
  .UNSPECIFIED.,.F.,.F.,(7,5,5,5,5,5,5,5,5,5,5,5,5,5,5,5,5,5,5,7),(0.,
    6.306035061559E-02,0.128823051879,0.203928226796,0.236960264289,
    0.266121813964,0.282543209961,0.316644111892,0.367770321733,
    0.397418273151,0.430464552285,0.505441234267,0.570439717496,
    0.634755020756,0.699070324016,0.764068807245,0.872022482201,
    0.901617921746,0.952653565826,1.),.UNSPECIFIED.);
#814 = CARTESIAN_POINT('',(6.953300858899,5.303300858899,4.653256716214)
  );
#815 = CARTESIAN_POINT('',(6.953300858899,5.374340595497,4.653256716214)
  );
#816 = CARTESIAN_POINT('',(6.949630589625,5.445308636146,4.650658697369)
  );
#817 = CARTESIAN_POINT('',(6.942303826362,5.515983967864,4.645472379678)
  );
#818 = CARTESIAN_POINT('',(6.931349698928,5.58613670836,4.63783108368));
#819 = CARTESIAN_POINT('',(6.916817802748,5.655506190349,4.627992162755)
  );
#820 = CARTESIAN_POINT('',(6.880059417591,5.794986144397,4.604114576932)
  );
#821 = CARTESIAN_POINT('',(6.857521757751,5.865031971478,4.58990846863)
  );
#822 = CARTESIAN_POINT('',(6.831269661027,5.933822246403,4.574034976545)
  );
#823 = CARTESIAN_POINT('',(6.801336965448,6.001230841568,4.556892009019)
  );
#824 = CARTESIAN_POINT('',(6.767748588438,6.067102203765,4.538909825447)
  );
#825 = CARTESIAN_POINT('',(6.688037408482,6.204510005757,4.499549715176)
  );
#826 = CARTESIAN_POINT('',(6.640769344395,6.275594772907,4.478031270014)
  );
#827 = CARTESIAN_POINT('',(6.588703350923,6.344319341222,4.456617928455)
  );
#828 = CARTESIAN_POINT('',(6.531772294884,6.410431740453,4.435974097715)
  );
#829 = CARTESIAN_POINT('',(6.469899704408,6.473596988182,4.416822908954)
  );
#830 = CARTESIAN_POINT('',(6.373618356053,6.559675324873,4.392570628995)
  );
#831 = CARTESIAN_POINT('',(6.343241667911,6.585314736623,4.385608947268)
  );
#832 = CARTESIAN_POINT('',(6.311907191676,6.610251049479,4.379166506396)
  );
#833 = CARTESIAN_POINT('',(6.279626147041,6.634434955852,4.373318091708)
  );
#834 = CARTESIAN_POINT('',(6.246412569863,6.657816508587,4.368140552431)
  );
#835 = CARTESIAN_POINT('',(6.182153107688,6.700233971252,4.359803867109)
  );
#836 = CARTESIAN_POINT('',(6.151306648781,6.719459746931,4.356478943647)
  );
#837 = CARTESIAN_POINT('',(6.119775165541,6.737974568669,4.353795291586)
  );
#838 = CARTESIAN_POINT('',(6.087592350053,6.755734443516,4.351808469337)
  );
#839 = CARTESIAN_POINT('',(6.05479435639,6.772699264902,4.350572333436)
  );
#840 = CARTESIAN_POINT('',(6.002625984684,6.797917905125,4.349895042352)
  );
#841 = CARTESIAN_POINT('',(5.983652597173,6.80673784942,4.349905619605)
  );
#842 = CARTESIAN_POINT('',(5.96450904901,6.815285055972,4.35018004436));
#843 = CARTESIAN_POINT('',(5.945205972338,6.823552340946,4.350726985563)
  );
#844 = CARTESIAN_POINT('',(5.925755220514,6.831532926222,4.351554507051)
  );
#845 = CARTESIAN_POINT('',(5.86549864978,6.855184437381,4.354986656172)
  );
#846 = CARTESIAN_POINT('',(5.824230479068,6.869891266363,4.358546109053)
  );
#847 = CARTESIAN_POINT('',(5.782504714668,6.883273887366,4.363414742481)
  );
#848 = CARTESIAN_POINT('',(5.74046510619,6.8952891926,4.369640291056));
#849 = CARTESIAN_POINT('',(5.698257524491,6.905916842839,4.377250524167)
  );
#850 = CARTESIAN_POINT('',(5.592714079931,6.929013184062,4.399747233148)
  );
#851 = CARTESIAN_POINT('',(5.529450811868,6.939730128517,4.416348162351)
  );
#852 = CARTESIAN_POINT('',(5.466695280036,6.947338498549,4.436065087859)
  );
#853 = CARTESIAN_POINT('',(5.404905609802,6.951965252147,4.458810353208)
  );
#854 = CARTESIAN_POINT('',(5.344525586537,6.95382492894,4.48439049835));
#855 = CARTESIAN_POINT('',(5.25201311338,6.952853142454,4.528798333951)
  );
#856 = CARTESIAN_POINT('',(5.218647677028,6.951663898718,4.545958884987)
  );
#857 = CARTESIAN_POINT('',(5.185914116477,6.949696592164,4.563942443351)
  );
#858 = CARTESIAN_POINT('',(5.153850633871,6.947007557955,4.582707085095)
  );
#859 = CARTESIAN_POINT('',(5.122492790428,6.943654977269,4.602206722386)
  );
#860 = CARTESIAN_POINT('',(5.057744557991,6.935289318544,4.644889072535)
  );
#861 = CARTESIAN_POINT('',(5.024529811142,6.930129485579,4.668239954415)
  );
#862 = CARTESIAN_POINT('',(4.992246203924,6.924298179893,4.692393219842)
  );
#863 = CARTESIAN_POINT('',(4.960907866018,6.917872156581,4.717298949071)
  );
#864 = CARTESIAN_POINT('',(4.93052611875,6.910926124339,4.742907831917)
  );
#865 = CARTESIAN_POINT('',(4.834367851115,6.886758360249,4.828758444468)
  );
#866 = CARTESIAN_POINT('',(4.7725967747,6.867682273431,4.891712766097));
#867 = CARTESIAN_POINT('',(4.715740642438,6.847112904035,4.957603488383)
  );
#868 = CARTESIAN_POINT('',(4.663724379628,6.825768358409,5.026097109873)
  );
#869 = CARTESIAN_POINT('',(4.616481905657,6.804308610072,5.0969417725));
#870 = CARTESIAN_POINT('',(4.537143005725,6.76521365238,5.233245288384)
  );
#871 = CARTESIAN_POINT('',(4.503837575192,6.747434661373,5.298217543229)
  );
#872 = CARTESIAN_POINT('',(4.474095431019,6.73045971224,5.364691633943)
  );
#873 = CARTESIAN_POINT('',(4.447938942866,6.714702384928,5.432520116127)
  );
#874 = CARTESIAN_POINT('',(4.425399945492,6.700546407232,5.501583285482)
  );
#875 = CARTESIAN_POINT('',(4.387866264254,6.676244439734,5.641253758095)
  );
#876 = CARTESIAN_POINT('',(4.37278523725,6.666051418536,5.711872905143)
  );
#877 = CARTESIAN_POINT('',(4.361415761679,6.65812488163,5.783317481163)
  );
#878 = CARTESIAN_POINT('',(4.35381035,6.65274131793,5.855312670327));
#879 = CARTESIAN_POINT('',(4.35,6.650044142685,5.927617276321));
#880 = CARTESIAN_POINT('',(4.35,6.650044142685,6.072382723679));
#881 = CARTESIAN_POINT('',(4.35381035,6.65274131793,6.144687329674));
#882 = CARTESIAN_POINT('',(4.361415761679,6.65812488163,6.216682518837)
  );
#883 = CARTESIAN_POINT('',(4.37278523725,6.666051418536,6.288127094857)
  );
#884 = CARTESIAN_POINT('',(4.387866264254,6.676244439734,6.358746241904)
  );
#885 = CARTESIAN_POINT('',(4.425399945492,6.700546407232,6.498416714518)
  );
#886 = CARTESIAN_POINT('',(4.447938942866,6.714702384928,6.567479883873)
  );
#887 = CARTESIAN_POINT('',(4.474095431019,6.73045971224,6.635308366057)
  );
#888 = CARTESIAN_POINT('',(4.503837575192,6.747434661373,6.701782456771)
  );
#889 = CARTESIAN_POINT('',(4.537143005725,6.76521365238,6.766754711616)
  );
#890 = CARTESIAN_POINT('',(4.635173495281,6.813519059248,6.935170210215)
  );
#891 = CARTESIAN_POINT('',(4.706273976568,6.844781897693,7.035931745361)
  );
#892 = CARTESIAN_POINT('',(4.787367998663,6.875249771635,7.131669095134)
  );
#893 = CARTESIAN_POINT('',(4.878630618533,6.902847036852,7.221450161487)
  );
#894 = CARTESIAN_POINT('',(4.980185234329,6.925268429814,7.303983443591)
  );
#895 = CARTESIAN_POINT('',(5.122492783704,6.943654976401,7.397793273181)
  );
#896 = CARTESIAN_POINT('',(5.153850636333,6.947007557782,7.417292915785)
  );
#897 = CARTESIAN_POINT('',(5.185914123823,6.949696592662,7.436057560807)
  );
#898 = CARTESIAN_POINT('',(5.218647678473,6.951663899174,7.454041116369)
  );
#899 = CARTESIAN_POINT('',(5.252013105385,6.95285314237,7.471201662211)
  );
#900 = CARTESIAN_POINT('',(5.344525586537,6.95382492894,7.51560950165));
#901 = CARTESIAN_POINT('',(5.404905609802,6.951965252147,7.541189646792)
  );
#902 = CARTESIAN_POINT('',(5.466695280036,6.947338498549,7.563934912141)
  );
#903 = CARTESIAN_POINT('',(5.529450811868,6.939730128517,7.583651837649)
  );
#904 = CARTESIAN_POINT('',(5.592714079931,6.929013184062,7.600252766852)
  );
#905 = CARTESIAN_POINT('',(5.714764557613,6.902304566669,7.626267969301)
  );
#906 = CARTESIAN_POINT('',(5.773425033732,6.886776260523,7.636089580281)
  );
#907 = CARTESIAN_POINT('',(5.831640892151,6.868570332176,7.643240784151)
  );
#908 = CARTESIAN_POINT('',(5.889043792596,6.847757768831,7.647822110473)
  );
#909 = CARTESIAN_POINT('',(5.945275816373,6.824488770815,7.65));
#910 = CARTESIAN_POINT('',(6.,6.798998123318,7.65));
#911 = CYLINDRICAL_SURFACE('',#912,1.65);
#912 = AXIS2_PLACEMENT_3D('',#913,#914,#915);
#913 = CARTESIAN_POINT('',(6.,-12.,6.));
#914 = DIRECTION('',(0.,1.,0.));
#915 = DIRECTION('',(0.,-0.,1.));
#916 = ADVANCED_FACE('',(#917),#923,.F.);
#917 = FACE_BOUND('',#918,.F.);
#918 = EDGE_LOOP('',(#919,#920,#921,#922));
#919 = ORIENTED_EDGE('',*,*,#318,.F.);
#920 = ORIENTED_EDGE('',*,*,#386,.F.);
#921 = ORIENTED_EDGE('',*,*,#450,.T.);
#922 = ORIENTED_EDGE('',*,*,#421,.T.);
#923 = CYLINDRICAL_SURFACE('',#924,2.6);
#924 = AXIS2_PLACEMENT_3D('',#925,#926,#927);
#925 = CARTESIAN_POINT('',(0.,0.,-1.));
#926 = DIRECTION('',(0.,0.,1.));
#927 = DIRECTION('',(1.,0.,-0.));
#928 = ADVANCED_FACE('',(#929),#940,.F.);
#929 = FACE_BOUND('',#930,.F.);
#930 = EDGE_LOOP('',(#931,#932,#938,#939));
#931 = ORIENTED_EDGE('',*,*,#327,.F.);
#932 = ORIENTED_EDGE('',*,*,#933,.F.);
#933 = EDGE_CURVE('',#460,#328,#934,.T.);
#934 = LINE('',#935,#936);
#935 = CARTESIAN_POINT('',(-3.653300858899,-5.303300858899,-1.));
#936 = VECTOR('',#937,1.);
#937 = DIRECTION('',(0.,0.,1.));
#938 = ORIENTED_EDGE('',*,*,#459,.T.);
#939 = ORIENTED_EDGE('',*,*,#933,.T.);
#940 = CYLINDRICAL_SURFACE('',#941,1.65);
#941 = AXIS2_PLACEMENT_3D('',#942,#943,#944);
#942 = CARTESIAN_POINT('',(-5.303300858899,-5.303300858899,-1.));
#943 = DIRECTION('',(0.,0.,1.));
#944 = DIRECTION('',(1.,0.,-0.));
#945 = ADVANCED_FACE('',(#946),#968,.F.);
#946 = FACE_BOUND('',#947,.F.);
#947 = EDGE_LOOP('',(#948,#954,#955,#956,#957,#958,#964,#965,#966,#967)
  );
#948 = ORIENTED_EDGE('',*,*,#949,.T.);
#949 = EDGE_CURVE('',#519,#339,#950,.T.);
#950 = LINE('',#951,#952);
#951 = CARTESIAN_POINT('',(6.953300858899,-5.303300858899,-1.));
#952 = VECTOR('',#953,1.);
#953 = DIRECTION('',(0.,0.,1.));
#954 = ORIENTED_EDGE('',*,*,#338,.F.);
#955 = ORIENTED_EDGE('',*,*,#949,.F.);
#956 = ORIENTED_EDGE('',*,*,#518,.F.);
#957 = ORIENTED_EDGE('',*,*,#672,.F.);
#958 = ORIENTED_EDGE('',*,*,#959,.F.);
#959 = EDGE_CURVE('',#471,#591,#960,.T.);
#960 = LINE('',#961,#962);
#961 = CARTESIAN_POINT('',(6.953300858899,-5.303300858899,-1.));
#962 = VECTOR('',#963,1.);
#963 = DIRECTION('',(0.,0.,1.));
#964 = ORIENTED_EDGE('',*,*,#470,.T.);
#965 = ORIENTED_EDGE('',*,*,#959,.T.);
#966 = ORIENTED_EDGE('',*,*,#590,.T.);
#967 = ORIENTED_EDGE('',*,*,#550,.T.);
#968 = CYLINDRICAL_SURFACE('',#969,1.65);
#969 = AXIS2_PLACEMENT_3D('',#970,#971,#972);
#970 = CARTESIAN_POINT('',(5.303300858899,-5.303300858899,-1.));
#971 = DIRECTION('',(0.,0.,1.));
#972 = DIRECTION('',(1.,0.,-0.));
#973 = ADVANCED_FACE('',(#974),#985,.F.);
#974 = FACE_BOUND('',#975,.F.);
#975 = EDGE_LOOP('',(#976,#977,#983,#984));
#976 = ORIENTED_EDGE('',*,*,#349,.F.);
#977 = ORIENTED_EDGE('',*,*,#978,.F.);
#978 = EDGE_CURVE('',#482,#350,#979,.T.);
#979 = LINE('',#980,#981);
#980 = CARTESIAN_POINT('',(-3.653300858899,5.303300858899,-1.));
#981 = VECTOR('',#982,1.);
#982 = DIRECTION('',(0.,0.,1.));
#983 = ORIENTED_EDGE('',*,*,#481,.T.);
#984 = ORIENTED_EDGE('',*,*,#978,.T.);
#985 = CYLINDRICAL_SURFACE('',#986,1.65);
#986 = AXIS2_PLACEMENT_3D('',#987,#988,#989);
#987 = CARTESIAN_POINT('',(-5.303300858899,5.303300858899,-1.));
#988 = DIRECTION('',(0.,0.,1.));
#989 = DIRECTION('',(1.,0.,-0.));
#990 = ADVANCED_FACE('',(#991,#1205),#1247,.F.);
#991 = FACE_BOUND('',#992,.F.);
#992 = EDGE_LOOP('',(#993,#1114,#1120,#1121,#1122,#1139,#1145,#1146,
    #1147,#1155,#1172,#1178,#1179,#1180));
#993 = ORIENTED_EDGE('',*,*,#994,.F.);
#994 = EDGE_CURVE('',#995,#997,#999,.T.);
#995 = VERTEX_POINT('',#996);
#996 = CARTESIAN_POINT('',(6.953300858899,5.303300858899,8.038067092228)
  );
#997 = VERTEX_POINT('',#998);
#998 = CARTESIAN_POINT('',(6.,3.807603594481,3.75));
#999 = B_SPLINE_CURVE_WITH_KNOTS('',8,(#1000,#1001,#1002,#1003,#1004,
    #1005,#1006,#1007,#1008,#1009,#1010,#1011,#1012,#1013,#1014,#1015,
    #1016,#1017,#1018,#1019,#1020,#1021,#1022,#1023,#1024,#1025,#1026,
    #1027,#1028,#1029,#1030,#1031,#1032,#1033,#1034,#1035,#1036,#1037,
    #1038,#1039,#1040,#1041,#1042,#1043,#1044,#1045,#1046,#1047,#1048,
    #1049,#1050,#1051,#1052,#1053,#1054,#1055,#1056,#1057,#1058,#1059,
    #1060,#1061,#1062,#1063,#1064,#1065,#1066,#1067,#1068,#1069,#1070,
    #1071,#1072,#1073,#1074,#1075,#1076,#1077,#1078,#1079,#1080,#1081,
    #1082,#1083,#1084,#1085,#1086,#1087,#1088,#1089,#1090,#1091,#1092,
    #1093,#1094,#1095,#1096,#1097,#1098,#1099,#1100,#1101,#1102,#1103,
    #1104,#1105,#1106,#1107,#1108,#1109,#1110,#1111,#1112,#1113),
  .UNSPECIFIED.,.F.,.F.,(9,7,7,7,7,7,7,7,7,7,7,7,7,7,7,7,9),(0.,
    7.964558801337E-02,0.132856368758,0.152017692529,0.179618252765,
    0.203270970722,0.244973124903,0.293737599047,0.468763401233,
    0.558310531288,0.595796124845,0.633281718402,0.70380252932,
    0.723193261401,0.872197102705,0.922238089372,1.),.UNSPECIFIED.);
#1000 = CARTESIAN_POINT('',(6.953300858899,5.303300858899,8.038067092228
    ));
#1001 = CARTESIAN_POINT('',(6.953300858899,5.215875385319,8.038067092228
    ));
#1002 = CARTESIAN_POINT('',(6.948006934992,5.128540950959,8.040543276247
    ));
#1003 = CARTESIAN_POINT('',(6.937438039539,5.041557851697,8.045486938105
    ));
#1004 = CARTESIAN_POINT('',(6.921607123999,4.955192216468,8.052797927976
    ));
#1005 = CARTESIAN_POINT('',(6.900523965657,4.869722377951,8.062285663826
    ));
#1006 = CARTESIAN_POINT('',(6.874201549513,4.785444585154,8.073674606494
    ));
#1007 = CARTESIAN_POINT('',(6.842666005329,4.702678057906,8.086614198429
    ));
#1008 = CARTESIAN_POINT('',(6.781453766549,4.567714741216,8.110099414));
#1009 = CARTESIAN_POINT('',(6.754617046873,4.514451329772,8.120020800969
    ));
#1010 = CARTESIAN_POINT('',(6.725451902785,4.462045274337,8.130342623864
    ));
#1011 = CARTESIAN_POINT('',(6.693947072024,4.41057153154,8.140939519922)
  );
#1012 = CARTESIAN_POINT('',(6.660088632718,4.360114153294,8.151675375417
    ));
#1013 = CARTESIAN_POINT('',(6.623860568017,4.310766550893,8.162403134329
    ));
#1014 = CARTESIAN_POINT('',(6.585245330715,4.262631759097,8.172964607018
    ));
#1015 = CARTESIAN_POINT('',(6.529452679808,4.198966651142,8.186872566712
    ));
#1016 = CARTESIAN_POINT('',(6.514369023205,4.182282533444,8.19051129536)
  );
#1017 = CARTESIAN_POINT('',(6.49897258737,4.165775740404,8.194098514596)
  );
#1018 = CARTESIAN_POINT('',(6.48326269037,4.149451973353,8.197626040917)
  );
#1019 = CARTESIAN_POINT('',(6.467238819048,4.133317241686,8.201085457559
    ));
#1020 = CARTESIAN_POINT('',(6.450900629021,4.11737786286,8.204468114496)
  );
#1021 = CARTESIAN_POINT('',(6.434247944675,4.1016404624,8.207765128442)
  );
#1022 = CARTESIAN_POINT('',(6.392840703201,4.063744261329,8.215580008612
    ));
#1023 = CARTESIAN_POINT('',(6.367744220679,4.041806385515,8.219996806586
    ));
#1024 = CARTESIAN_POINT('',(6.341994452564,4.020322344253,8.224189717548
    ));
#1025 = CARTESIAN_POINT('',(6.315595271108,3.999316409455,8.228130035488
    ));
#1026 = CARTESIAN_POINT('',(6.288551279855,3.978813127143,8.231788407611
    ));
#1027 = CARTESIAN_POINT('',(6.260867813645,3.958837317446,8.235134834335
    ));
#1028 = CARTESIAN_POINT('',(6.232550938612,3.939414074602,8.238138669295
    ));
#1029 = CARTESIAN_POINT('',(6.178803893295,3.904418995258,8.243022394846
    ));
#1030 = CARTESIAN_POINT('',(6.153538883284,3.88869287542,8.245001788807)
  );
#1031 = CARTESIAN_POINT('',(6.127824408181,3.873411431313,8.246686267414
    ));
#1032 = CARTESIAN_POINT('',(6.101673055558,3.858594824741,8.248055622229
    ));
#1033 = CARTESIAN_POINT('',(6.075098014531,3.844262355435,8.249089970185
    ));
#1034 = CARTESIAN_POINT('',(6.048113075755,3.830432461054,8.249769753585
    ));
#1035 = CARTESIAN_POINT('',(6.020732631431,3.817122717186,8.250075740103
    ));
#1036 = CARTESIAN_POINT('',(5.944026278207,3.781829947448,8.249836131308
    ));
#1037 = CARTESIAN_POINT('',(5.893857347078,3.760960370501,8.248462677902
    ));
#1038 = CARTESIAN_POINT('',(5.842630210553,3.741877609597,8.245761991679
    ));
#1039 = CARTESIAN_POINT('',(5.790517772676,3.724690096656,8.241643688522
    ));
#1040 = CARTESIAN_POINT('',(5.737698706957,3.709479147831,8.236035322232
    ));
#1041 = CARTESIAN_POINT('',(5.684355650433,3.69629991891,8.228884035658)
  );
#1042 = CARTESIAN_POINT('',(5.630673397731,3.685182360714,8.22015821184)
  );
#1043 = CARTESIAN_POINT('',(5.51388353702,3.665549326208,8.197794179764)
  );
#1044 = CARTESIAN_POINT('',(5.450890388783,3.65782208156,8.183606963056)
  );
#1045 = CARTESIAN_POINT('',(5.388134914065,3.652928726216,8.167289312396
    ));
#1046 = CARTESIAN_POINT('',(5.325892836459,3.650807979778,8.148882240135
    ));
#1047 = CARTESIAN_POINT('',(5.264435876181,3.651359868613,8.128466907525
    ));
#1048 = CARTESIAN_POINT('',(5.204029286756,3.654446598681,8.106165598626
    ));
#1049 = CARTESIAN_POINT('',(5.144929391699,3.659893428362,8.082142694222
    ));
#1050 = CARTESIAN_POINT('',(4.880828453803,3.694753564505,7.964947887171
    ));
#1051 = CARTESIAN_POINT('',(4.693566555604,3.749797458033,7.853472980162
    ));
#1052 = CARTESIAN_POINT('',(4.526698513893,3.824587354106,7.726891468551
    ));
#1053 = CARTESIAN_POINT('',(4.379964528487,3.913417065213,7.589257788743
    ));
#1054 = CARTESIAN_POINT('',(4.252758527244,4.011534419761,7.443833071312
    ));
#1055 = CARTESIAN_POINT('',(4.144225800355,4.114793784274,7.293523085479
    ));
#1056 = CARTESIAN_POINT('',(4.053320530278,4.219013714954,7.140935589046
    ));
#1057 = CARTESIAN_POINT('',(3.940628022659,4.370716351703,6.910507748941
    ));
#1058 = CARTESIAN_POINT('',(3.906792075649,4.421015704357,6.832608220101
    ));
#1059 = CARTESIAN_POINT('',(3.876266385471,4.470732260395,6.75345207023)
  );
#1060 = CARTESIAN_POINT('',(3.848709729864,4.519927011878,6.672017985392
    ));
#1061 = CARTESIAN_POINT('',(3.824298908148,4.567948149118,6.587909623236
    ));
#1062 = CARTESIAN_POINT('',(3.803381145351,4.61326379487,6.501285494236)
  );
#1063 = CARTESIAN_POINT('',(3.786208636593,4.653555308105,6.412461550163
    ));
#1064 = CARTESIAN_POINT('',(3.767539644634,4.699848746417,6.283036573811
    ));
#1065 = CARTESIAN_POINT('',(3.762661900282,4.712345640925,6.24392403618)
  );
#1066 = CARTESIAN_POINT('',(3.758512597075,4.723313295456,6.204168250674
    ));
#1067 = CARTESIAN_POINT('',(3.755146247733,4.732447537784,6.163955815635
    ));
#1068 = CARTESIAN_POINT('',(3.752592804474,4.739506640646,6.12339829547)
  );
#1069 = CARTESIAN_POINT('',(3.750871446055,4.744311247089,6.082548922222
    ));
#1070 = CARTESIAN_POINT('',(3.75,4.746743187365,6.041419855392));
#1071 = CARTESIAN_POINT('',(3.75,4.746743187365,5.958580144608));
#1072 = CARTESIAN_POINT('',(3.750871446055,4.744311247089,5.917451077778
    ));
#1073 = CARTESIAN_POINT('',(3.752592804474,4.739506640646,5.87660170453)
  );
#1074 = CARTESIAN_POINT('',(3.755146247733,4.732447537784,5.836044184365
    ));
#1075 = CARTESIAN_POINT('',(3.758512597075,4.723313295456,5.795831749326
    ));
#1076 = CARTESIAN_POINT('',(3.762661900282,4.712345640925,5.75607596382)
  );
#1077 = CARTESIAN_POINT('',(3.767539644634,4.699848746417,5.716963426189
    ));
#1078 = CARTESIAN_POINT('',(3.783412489357,4.660488905262,5.606923068496
    ));
#1079 = CARTESIAN_POINT('',(3.796229667907,4.630127984463,5.536813990269
    ));
#1080 = CARTESIAN_POINT('',(3.811342856505,4.596438058283,5.468299821862
    ));
#1081 = CARTESIAN_POINT('',(3.828611951528,4.560585334365,5.401431953709
    ));
#1082 = CARTESIAN_POINT('',(3.84788587952,4.523416756334,5.336213675038)
  );
#1083 = CARTESIAN_POINT('',(3.86908109564,4.485407421471,5.272442819666)
  );
#1084 = CARTESIAN_POINT('',(3.892297517807,4.44668429812,5.209649829099)
  );
#1085 = CARTESIAN_POINT('',(3.924943199517,4.396218621346,5.129951567987
    ));
#1086 = CARTESIAN_POINT('',(3.932144359617,4.385300941753,5.112833574491
    ));
#1087 = CARTESIAN_POINT('',(3.939506853258,4.374354788362,5.095783710438
    ));
#1088 = CARTESIAN_POINT('',(3.947031461056,4.363385425323,5.078800214199
    ));
#1089 = CARTESIAN_POINT('',(3.954719054682,4.352397832394,5.061881528863
    ));
#1090 = CARTESIAN_POINT('',(3.962570596868,4.341396704948,5.045026302236
    ));
#1091 = CARTESIAN_POINT('',(3.970587141401,4.330386453968,5.028233386837
    ));
#1092 = CARTESIAN_POINT('',(4.04164793871,4.234726941645,4.882931925487)
  );
#1093 = CARTESIAN_POINT('',(4.114169599498,4.150015359518,4.758325040179
    ));
#1094 = CARTESIAN_POINT('',(4.196893225107,4.066970390209,4.636938403992
    ));
#1095 = CARTESIAN_POINT('',(4.290708948887,3.986695354931,4.518775770795
    ));
#1096 = CARTESIAN_POINT('',(4.396772624717,3.910607182977,4.404182904308
    ));
#1097 = CARTESIAN_POINT('',(4.516353343737,3.840702986414,4.294307930941
    ));
#1098 = CARTESIAN_POINT('',(4.650367051773,3.779997528831,4.191196531015
    ));
#1099 = CARTESIAN_POINT('',(4.848527525018,3.716348064449,4.0660706833)
  );
#1100 = CARTESIAN_POINT('',(4.900074980147,3.701782729283,4.035607153407
    ));
#1101 = CARTESIAN_POINT('',(4.953283332976,3.688836648418,4.006295497513
    ));
#1102 = CARTESIAN_POINT('',(5.008075057959,3.67768767625,3.978283720311)
  );
#1103 = CARTESIAN_POINT('',(5.064362940117,3.668509159611,3.951709295448
    ));
#1104 = CARTESIAN_POINT('',(5.122050008658,3.661470332779,3.92669869344)
  );
#1105 = CARTESIAN_POINT('',(5.181029470593,3.656736712477,3.90336690958)
  );
#1106 = CARTESIAN_POINT('',(5.3346636414,3.650948868371,3.848329187384)
  );
#1107 = CARTESIAN_POINT('',(5.43087112241,3.653389686133,3.819184122001)
  );
#1108 = CARTESIAN_POINT('',(5.528666949553,3.662404591388,3.794995584849
    ));
#1109 = CARTESIAN_POINT('',(5.626867219363,3.678328218272,3.776082381186
    ));
#1110 = CARTESIAN_POINT('',(5.724267890989,3.701213592615,3.762475557698
    ));
#1111 = CARTESIAN_POINT('',(5.819674627276,3.730818741935,3.75393851396)
  );
#1112 = CARTESIAN_POINT('',(5.911938848677,3.766584512645,3.75));
#1113 = CARTESIAN_POINT('',(6.,3.807603594481,3.75));
#1114 = ORIENTED_EDGE('',*,*,#1115,.T.);
#1115 = EDGE_CURVE('',#995,#361,#1116,.T.);
#1116 = LINE('',#1117,#1118);
#1117 = CARTESIAN_POINT('',(6.953300858899,5.303300858899,-1.));
#1118 = VECTOR('',#1119,1.);
#1119 = DIRECTION('',(0.,0.,1.));
#1120 = ORIENTED_EDGE('',*,*,#360,.F.);
#1121 = ORIENTED_EDGE('',*,*,#1115,.F.);
#1122 = ORIENTED_EDGE('',*,*,#1123,.T.);
#1123 = EDGE_CURVE('',#995,#1124,#1126,.T.);
#1124 = VERTEX_POINT('',#1125);
#1125 = CARTESIAN_POINT('',(6.798998123318,6.,8.103354938886));
#1126 = B_SPLINE_CURVE_WITH_KNOTS('',6,(#1127,#1128,#1129,#1130,#1131,
    #1132,#1133,#1134,#1135,#1136,#1137,#1138),.UNSPECIFIED.,.F.,.F.,(7,
    5,7),(0.,0.869559515568,1.),.UNSPECIFIED.);
#1127 = CARTESIAN_POINT('',(6.953300858899,5.303300858899,8.038067092228
    ));
#1128 = CARTESIAN_POINT('',(6.953300858899,5.407024855093,8.038067092228
    ));
#1129 = CARTESIAN_POINT('',(6.945476437814,5.510648118494,8.04172692095)
  );
#1130 = CARTESIAN_POINT('',(6.929855662569,5.613635731085,8.049033615035
    ));
#1131 = CARTESIAN_POINT('',(6.906459104992,5.715438256991,8.059702451878
    ));
#1132 = CARTESIAN_POINT('',(6.875312138478,5.815456496787,8.073179979138
    ));
#1133 = CARTESIAN_POINT('',(6.830696167125,5.927649809174,8.091048344636
    ));
#1134 = CARTESIAN_POINT('',(6.824703170149,5.942231889302,8.093425916499
    ));
#1135 = CARTESIAN_POINT('',(6.818536896807,5.956759753619,8.095847896378
    ));
#1136 = CARTESIAN_POINT('',(6.812197306012,5.971231656704,8.098311799802
    ));
#1137 = CARTESIAN_POINT('',(6.805684323902,5.985645853638,8.100815063432
    ));
#1138 = CARTESIAN_POINT('',(6.798997843836,6.0000006,8.103355045052));
#1139 = ORIENTED_EDGE('',*,*,#1140,.F.);
#1140 = EDGE_CURVE('',#772,#1124,#1141,.T.);
#1141 = LINE('',#1142,#1143);
#1142 = CARTESIAN_POINT('',(6.798998123318,6.,-1.));
#1143 = VECTOR('',#1144,1.);
#1144 = DIRECTION('',(0.,0.,1.));
#1145 = ORIENTED_EDGE('',*,*,#771,.T.);
#1146 = ORIENTED_EDGE('',*,*,#812,.F.);
#1147 = ORIENTED_EDGE('',*,*,#1148,.F.);
#1148 = EDGE_CURVE('',#1149,#804,#1151,.T.);
#1149 = VERTEX_POINT('',#1150);
#1150 = CARTESIAN_POINT('',(6.798998123318,6.,3.896645061114));
#1151 = LINE('',#1152,#1153);
#1152 = CARTESIAN_POINT('',(6.798998123318,6.,-1.));
#1153 = VECTOR('',#1154,1.);
#1154 = DIRECTION('',(0.,0.,1.));
#1155 = ORIENTED_EDGE('',*,*,#1156,.F.);
#1156 = EDGE_CURVE('',#1157,#1149,#1159,.T.);
#1157 = VERTEX_POINT('',#1158);
#1158 = CARTESIAN_POINT('',(6.953300858899,5.303300858899,3.961932907772
    ));
#1159 = B_SPLINE_CURVE_WITH_KNOTS('',6,(#1160,#1161,#1162,#1163,#1164,
    #1165,#1166,#1167,#1168,#1169,#1170,#1171),.UNSPECIFIED.,.F.,.F.,(7,
    5,7),(0.,0.869559515568,1.),.UNSPECIFIED.);
#1160 = CARTESIAN_POINT('',(6.953300858899,5.303300858899,3.961932907772
    ));
#1161 = CARTESIAN_POINT('',(6.953300858899,5.407024855093,3.961932907772
    ));
#1162 = CARTESIAN_POINT('',(6.945476437814,5.510648118494,3.95827307905)
  );
#1163 = CARTESIAN_POINT('',(6.929855662569,5.613635731085,3.950966384965
    ));
#1164 = CARTESIAN_POINT('',(6.906459104992,5.715438256991,3.940297548122
    ));
#1165 = CARTESIAN_POINT('',(6.875312138478,5.815456496787,3.926820020862
    ));
#1166 = CARTESIAN_POINT('',(6.830696167125,5.927649809174,3.908951655364
    ));
#1167 = CARTESIAN_POINT('',(6.824703170149,5.942231889302,3.906574083501
    ));
#1168 = CARTESIAN_POINT('',(6.818536896807,5.956759753619,3.904152103622
    ));
#1169 = CARTESIAN_POINT('',(6.812197306012,5.971231656704,3.901688200198
    ));
#1170 = CARTESIAN_POINT('',(6.805684323902,5.985645853638,3.899184936568
    ));
#1171 = CARTESIAN_POINT('',(6.798997843836,6.0000006,3.896644954948));
#1172 = ORIENTED_EDGE('',*,*,#1173,.F.);
#1173 = EDGE_CURVE('',#493,#1157,#1174,.T.);
#1174 = LINE('',#1175,#1176);
#1175 = CARTESIAN_POINT('',(6.953300858899,5.303300858899,-1.));
#1176 = VECTOR('',#1177,1.);
#1177 = DIRECTION('',(0.,0.,1.));
#1178 = ORIENTED_EDGE('',*,*,#492,.T.);
#1179 = ORIENTED_EDGE('',*,*,#1173,.T.);
#1180 = ORIENTED_EDGE('',*,*,#1181,.F.);
#1181 = EDGE_CURVE('',#997,#1157,#1182,.T.);
#1182 = B_SPLINE_CURVE_WITH_KNOTS('',6,(#1183,#1184,#1185,#1186,#1187,
    #1188,#1189,#1190,#1191,#1192,#1193,#1194,#1195,#1196,#1197,#1198,
    #1199,#1200,#1201,#1202,#1203,#1204),.UNSPECIFIED.,.F.,.F.,(7,5,5,5,
    7),(0.,0.179330581848,0.293345395593,0.606720057545,1.),
  .UNSPECIFIED.);
#1183 = CARTESIAN_POINT('',(6.,3.807603594481,3.75));
#1184 = CARTESIAN_POINT('',(6.056685991668,3.834008056565,3.75));
#1185 = CARTESIAN_POINT('',(6.111647139458,3.862746500836,3.751713714789
    ));
#1186 = CARTESIAN_POINT('',(6.164761476916,3.893653265269,3.754945814827
    ));
#1187 = CARTESIAN_POINT('',(6.215920026499,3.926550867479,3.7594954482)
  );
#1188 = CARTESIAN_POINT('',(6.265028379198,3.961248544528,3.765159884369
    ));
#1189 = CARTESIAN_POINT('',(6.341877156076,4.020614681614,3.775920493285
    ));
#1190 = CARTESIAN_POINT('',(6.370902989304,4.044346739399,3.780474746597
    ));
#1191 = CARTESIAN_POINT('',(6.399078943212,4.068696480331,3.785351981958
    ));
#1192 = CARTESIAN_POINT('',(6.426401477911,4.093626823833,3.790505561986
    ));
#1193 = CARTESIAN_POINT('',(6.452870344254,4.1191040945,3.795891147818)
  );
#1194 = CARTESIAN_POINT('',(6.548901426731,4.216543459829,3.816791343708
    ));
#1195 = CARTESIAN_POINT('',(6.612876410336,4.291882204814,3.833548763971
    ));
#1196 = CARTESIAN_POINT('',(6.670490798155,4.370512089106,3.850874944064
    ));
#1197 = CARTESIAN_POINT('',(6.721834602242,4.451950597285,3.868022280647
    ));
#1198 = CARTESIAN_POINT('',(6.76698322481,4.535809482622,3.884348693128)
  );
#1199 = CARTESIAN_POINT('',(6.854897973825,4.729647616131,3.918078824121
    ));
#1200 = CARTESIAN_POINT('',(6.894193173374,4.840993840501,3.934723892986
    ));
#1201 = CARTESIAN_POINT('',(6.92370795163,4.954837612671,3.948090654571)
  );
#1202 = CARTESIAN_POINT('',(6.943418867605,5.070336202562,3.957310697603
    ));
#1203 = CARTESIAN_POINT('',(6.953300858899,5.186733560792,3.961932907772
    ));
#1204 = CARTESIAN_POINT('',(6.953300858899,5.303300858899,3.961932907772
    ));
#1205 = FACE_BOUND('',#1206,.F.);
#1206 = EDGE_LOOP('',(#1207,#1241));
#1207 = ORIENTED_EDGE('',*,*,#1208,.F.);
#1208 = EDGE_CURVE('',#1209,#1211,#1213,.T.);
#1209 = VERTEX_POINT('',#1210);
#1210 = CARTESIAN_POINT('',(3.807603594481,6.,5.494136380963));
#1211 = VERTEX_POINT('',#1212);
#1212 = CARTESIAN_POINT('',(3.807603594481,6.,6.505863619037));
#1213 = B_SPLINE_CURVE_WITH_KNOTS('',6,(#1214,#1215,#1216,#1217,#1218,
    #1219,#1220,#1221,#1222,#1223,#1224,#1225,#1226,#1227,#1228,#1229,
    #1230,#1231,#1232,#1233,#1234,#1235,#1236,#1237,#1238,#1239,#1240),
  .UNSPECIFIED.,.F.,.F.,(7,5,5,5,5,7),(0.,0.243320839513,0.500859703443,
    0.666175813507,0.757759993456,1.),.UNSPECIFIED.);
#1214 = CARTESIAN_POINT('',(3.807603873962,6.0000006,5.494135169701));
#1215 = CARTESIAN_POINT('',(3.798871234462,5.981253094008,5.531982048677
    ));
#1216 = CARTESIAN_POINT('',(3.790836506987,5.96326770223,5.570382895252)
  );
#1217 = CARTESIAN_POINT('',(3.783524117248,5.946226020588,5.60936453988)
  );
#1218 = CARTESIAN_POINT('',(3.776962241295,5.930354768624,5.648960854308
    ));
#1219 = CARTESIAN_POINT('',(3.771185531823,5.915924547507,5.689213546921
    ));
#1220 = CARTESIAN_POINT('',(3.761001047739,5.889831951795,5.773525760247
    ));
#1221 = CARTESIAN_POINT('',(3.756665731922,5.878310100226,5.817895996661
    ));
#1222 = CARTESIAN_POINT('',(3.75336056304,5.869237988498,5.862876626688)
  );
#1223 = CARTESIAN_POINT('',(3.751129392118,5.863010418953,5.908264490387
    ));
#1224 = CARTESIAN_POINT('',(3.75,5.859858530433,5.953982943653));
#1225 = CARTESIAN_POINT('',(3.75,5.859858530433,6.029538690339));
#1226 = CARTESIAN_POINT('',(3.750465353341,5.861156959668,6.059031945837
    ));
#1227 = CARTESIAN_POINT('',(3.751393366748,5.863747811728,6.088443115276
    ));
#1228 = CARTESIAN_POINT('',(3.752778257884,5.867586451182,6.117717298322
    ));
#1229 = CARTESIAN_POINT('',(3.7546074757,5.872590295502,6.146780593066)
  );
#1230 = CARTESIAN_POINT('',(3.758104809916,5.881990720038,6.191471526935
    ));
#1231 = CARTESIAN_POINT('',(3.759481941019,5.885665721806,6.207322964643
    ));
#1232 = CARTESIAN_POINT('',(3.760986580944,5.889646826955,6.223087667048
    ));
#1233 = CARTESIAN_POINT('',(3.762615938026,5.893916266061,6.23876134957)
  );
#1234 = CARTESIAN_POINT('',(3.764367262095,5.898456175618,6.254341432683
    ));
#1235 = CARTESIAN_POINT('',(3.771185531823,5.915924547507,6.310786453079
    ));
#1236 = CARTESIAN_POINT('',(3.776962241295,5.930354768624,6.351039145692
    ));
#1237 = CARTESIAN_POINT('',(3.783524117248,5.946226020588,6.39063546012)
  );
#1238 = CARTESIAN_POINT('',(3.790836506987,5.96326770223,6.429617104748)
  );
#1239 = CARTESIAN_POINT('',(3.798871234462,5.981253094008,6.468017951323
    ));
#1240 = CARTESIAN_POINT('',(3.807603873962,6.0000006,6.505864830299));
#1241 = ORIENTED_EDGE('',*,*,#1242,.T.);
#1242 = EDGE_CURVE('',#1209,#1211,#1243,.T.);
#1243 = LINE('',#1244,#1245);
#1244 = CARTESIAN_POINT('',(3.807603594481,6.,-1.));
#1245 = VECTOR('',#1246,1.);
#1246 = DIRECTION('',(0.,0.,1.));
#1247 = CYLINDRICAL_SURFACE('',#1248,1.65);
#1248 = AXIS2_PLACEMENT_3D('',#1249,#1250,#1251);
#1249 = CARTESIAN_POINT('',(5.303300858899,5.303300858899,-1.));
#1250 = DIRECTION('',(0.,0.,1.));
#1251 = DIRECTION('',(1.,0.,-0.));
#1252 = ADVANCED_FACE('',(#1253),#1274,.F.);
#1253 = FACE_BOUND('',#1254,.F.);
#1254 = EDGE_LOOP('',(#1255,#1256,#1262,#1263,#1264,#1271,#1272,#1273));
#1255 = ORIENTED_EDGE('',*,*,#395,.F.);
#1256 = ORIENTED_EDGE('',*,*,#1257,.F.);
#1257 = EDGE_CURVE('',#997,#396,#1258,.T.);
#1258 = LINE('',#1259,#1260);
#1259 = CARTESIAN_POINT('',(6.,6.,3.75));
#1260 = VECTOR('',#1261,1.);
#1261 = DIRECTION('',(0.,-1.,0.));
#1262 = ORIENTED_EDGE('',*,*,#1181,.T.);
#1263 = ORIENTED_EDGE('',*,*,#1156,.T.);
#1264 = ORIENTED_EDGE('',*,*,#1265,.T.);
#1265 = EDGE_CURVE('',#1149,#1124,#1266,.T.);
#1266 = CIRCLE('',#1267,2.25);
#1267 = AXIS2_PLACEMENT_3D('',#1268,#1269,#1270);
#1268 = CARTESIAN_POINT('',(6.,6.,6.));
#1269 = DIRECTION('',(0.,-1.,0.));
#1270 = DIRECTION('',(0.,-0.,-1.));
#1271 = ORIENTED_EDGE('',*,*,#1123,.F.);
#1272 = ORIENTED_EDGE('',*,*,#994,.T.);
#1273 = ORIENTED_EDGE('',*,*,#1257,.T.);
#1274 = CYLINDRICAL_SURFACE('',#1275,2.25);
#1275 = AXIS2_PLACEMENT_3D('',#1276,#1277,#1278);
#1276 = CARTESIAN_POINT('',(6.,6.,6.));
#1277 = DIRECTION('',(0.,-1.,0.));
#1278 = DIRECTION('',(0.,-0.,-1.));
#1279 = ADVANCED_FACE('',(#1280),#1286,.T.);
#1280 = FACE_BOUND('',#1281,.T.);
#1281 = EDGE_LOOP('',(#1282,#1283,#1284,#1285));
#1282 = ORIENTED_EDGE('',*,*,#1148,.F.);
#1283 = ORIENTED_EDGE('',*,*,#1265,.T.);
#1284 = ORIENTED_EDGE('',*,*,#1140,.F.);
#1285 = ORIENTED_EDGE('',*,*,#803,.T.);
#1286 = PLANE('',#1287);
#1287 = AXIS2_PLACEMENT_3D('',#1288,#1289,#1290);
#1288 = CARTESIAN_POINT('',(6.,6.,6.));
#1289 = DIRECTION('',(0.,-1.,0.));
#1290 = DIRECTION('',(0.,-0.,-1.));
#1291 = ADVANCED_FACE('',(#1292),#1302,.F.);
#1292 = FACE_BOUND('',#1293,.F.);
#1293 = EDGE_LOOP('',(#1294,#1301));
#1294 = ORIENTED_EDGE('',*,*,#1295,.T.);
#1295 = EDGE_CURVE('',#1211,#1209,#1296,.T.);
#1296 = CIRCLE('',#1297,2.25);
#1297 = AXIS2_PLACEMENT_3D('',#1298,#1299,#1300);
#1298 = CARTESIAN_POINT('',(6.,6.,6.));
#1299 = DIRECTION('',(0.,-1.,0.));
#1300 = DIRECTION('',(0.,-0.,-1.));
#1301 = ORIENTED_EDGE('',*,*,#1208,.T.);
#1302 = CYLINDRICAL_SURFACE('',#1303,2.25);
#1303 = AXIS2_PLACEMENT_3D('',#1304,#1305,#1306);
#1304 = CARTESIAN_POINT('',(6.,6.,6.));
#1305 = DIRECTION('',(0.,-1.,0.));
#1306 = DIRECTION('',(0.,-0.,-1.));
#1307 = ADVANCED_FACE('',(#1308),#1312,.T.);
#1308 = FACE_BOUND('',#1309,.T.);
#1309 = EDGE_LOOP('',(#1310,#1311));
#1310 = ORIENTED_EDGE('',*,*,#1295,.T.);
#1311 = ORIENTED_EDGE('',*,*,#1242,.T.);
#1312 = PLANE('',#1313);
#1313 = AXIS2_PLACEMENT_3D('',#1314,#1315,#1316);
#1314 = CARTESIAN_POINT('',(6.,6.,6.));
#1315 = DIRECTION('',(0.,-1.,0.));
#1316 = DIRECTION('',(0.,-0.,-1.));
#1317 = ( GEOMETRIC_REPRESENTATION_CONTEXT(3) 
GLOBAL_UNCERTAINTY_ASSIGNED_CONTEXT((#1321)) 
GLOBAL_UNIT_ASSIGNED_CONTEXT((#1318,#1319,#1320)) REPRESENTATION_CONTEXT
('Context #1','3D Context with UNIT and UNCERTAINTY') );
#1318 = ( LENGTH_UNIT() NAMED_UNIT(*) SI_UNIT(.MILLI.,.METRE.) );
#1319 = ( NAMED_UNIT(*) PLANE_ANGLE_UNIT() SI_UNIT($,.RADIAN.) );
#1320 = ( NAMED_UNIT(*) SI_UNIT($,.STERADIAN.) SOLID_ANGLE_UNIT() );
#1321 = UNCERTAINTY_MEASURE_WITH_UNIT(LENGTH_MEASURE(1.E-07),#1318,
  'distance_accuracy_value','confusion accuracy');
#1322 = PRODUCT_RELATED_PRODUCT_CATEGORY('part',$,(#7));
ENDSEC;
END-ISO-10303-21;
