ISO-10303-21;
HEADER;
FILE_DESCRIPTION(('FreeCAD Model'),'2;1');
FILE_NAME('Open CASCADE Shape Model','2026-08-01T09:36:37',('FreeCAD'),(
    'FreeCAD'),'Open CASCADE STEP processor 7.8','FreeCAD','Unknown');
FILE_SCHEMA(('AUTOMOTIVE_DESIGN { 1 0 10303 214 1 1 1 1 }'));
ENDSEC;
DATA;
#1 = APPLICATION_PROTOCOL_DEFINITION('international standard',
  'automotive_design',2000,#2);
#2 = APPLICATION_CONTEXT(
  'core data for automotive mechanical design processes');
#3 = SHAPE_DEFINITION_REPRESENTATION(#4,#10);
#4 = PRODUCT_DEFINITION_SHAPE('','',#5);
#5 = PRODUCT_DEFINITION('design','',#6,#9);
#6 = PRODUCT_DEFINITION_FORMATION('','',#7);
#7 = PRODUCT('Open CASCADE STEP translator 7.8 20',
  'Open CASCADE STEP translator 7.8 20','',(#8));
#8 = PRODUCT_CONTEXT('',#2,'mechanical');
#9 = PRODUCT_DEFINITION_CONTEXT('part definition',#2,'design');
#10 = ADVANCED_BREP_SHAPE_REPRESENTATION('',(#11,#15),#742);
#11 = AXIS2_PLACEMENT_3D('',#12,#13,#14);
#12 = CARTESIAN_POINT('',(0.,0.,0.));
#13 = DIRECTION('',(0.,0.,1.));
#14 = DIRECTION('',(1.,0.,-0.));
#15 = MANIFOLD_SOLID_BREP('',#16);
#16 = CLOSED_SHELL('',(#17,#50,#137,#224,#241,#258,#497,#539,#581,#598,
    #616,#628,#664,#680,#697,#714,#728));
#17 = ADVANCED_FACE('',(#18),#45,.T.);
#18 = FACE_BOUND('',#19,.T.);
#19 = EDGE_LOOP('',(#20,#29,#37,#44));
#20 = ORIENTED_EDGE('',*,*,#21,.F.);
#21 = EDGE_CURVE('',#22,#22,#24,.T.);
#22 = VERTEX_POINT('',#23);
#23 = CARTESIAN_POINT('',(17.,-4.E-15,4.));
#24 = CIRCLE('',#25,17.);
#25 = AXIS2_PLACEMENT_3D('',#26,#27,#28);
#26 = CARTESIAN_POINT('',(0.,0.,4.));
#27 = DIRECTION('',(0.,0.,1.));
#28 = DIRECTION('',(1.,0.,0.));
#29 = ORIENTED_EDGE('',*,*,#30,.F.);
#30 = EDGE_CURVE('',#31,#22,#33,.T.);
#31 = VERTEX_POINT('',#32);
#32 = CARTESIAN_POINT('',(17.,-4.E-15,0.));
#33 = LINE('',#34,#35);
#34 = CARTESIAN_POINT('',(17.,-4.16E-15,0.));
#35 = VECTOR('',#36,1.);
#36 = DIRECTION('',(0.,0.,1.));
#37 = ORIENTED_EDGE('',*,*,#38,.T.);
#38 = EDGE_CURVE('',#31,#31,#39,.T.);
#39 = CIRCLE('',#40,17.);
#40 = AXIS2_PLACEMENT_3D('',#41,#42,#43);
#41 = CARTESIAN_POINT('',(0.,0.,0.));
#42 = DIRECTION('',(0.,0.,1.));
#43 = DIRECTION('',(1.,0.,0.));
#44 = ORIENTED_EDGE('',*,*,#30,.T.);
#45 = CYLINDRICAL_SURFACE('',#46,17.);
#46 = AXIS2_PLACEMENT_3D('',#47,#48,#49);
#47 = CARTESIAN_POINT('',(0.,0.,0.));
#48 = DIRECTION('',(0.,0.,1.));
#49 = DIRECTION('',(1.,0.,0.));
#50 = ADVANCED_FACE('',(#51,#54,#65,#76,#121),#132,.T.);
#51 = FACE_BOUND('',#52,.T.);
#52 = EDGE_LOOP('',(#53));
#53 = ORIENTED_EDGE('',*,*,#21,.T.);
#54 = FACE_BOUND('',#55,.T.);
#55 = EDGE_LOOP('',(#56));
#56 = ORIENTED_EDGE('',*,*,#57,.F.);
#57 = EDGE_CURVE('',#58,#58,#60,.T.);
#58 = VERTEX_POINT('',#59);
#59 = CARTESIAN_POINT('',(1.65,-13.,4.));
#60 = CIRCLE('',#61,1.65);
#61 = AXIS2_PLACEMENT_3D('',#62,#63,#64);
#62 = CARTESIAN_POINT('',(-2.39E-15,-13.,4.));
#63 = DIRECTION('',(0.,0.,1.));
#64 = DIRECTION('',(1.,0.,0.));
#65 = FACE_BOUND('',#66,.T.);
#66 = EDGE_LOOP('',(#67));
#67 = ORIENTED_EDGE('',*,*,#68,.F.);
#68 = EDGE_CURVE('',#69,#69,#71,.T.);
#69 = VERTEX_POINT('',#70);
#70 = CARTESIAN_POINT('',(-11.35,1.E-15,4.));
#71 = CIRCLE('',#72,1.65);
#72 = AXIS2_PLACEMENT_3D('',#73,#74,#75);
#73 = CARTESIAN_POINT('',(-13.,1.59E-15,4.));
#74 = DIRECTION('',(0.,0.,1.));
#75 = DIRECTION('',(1.,0.,0.));
#76 = FACE_BOUND('',#77,.T.);
#77 = EDGE_LOOP('',(#78,#89,#97,#106,#115));
#78 = ORIENTED_EDGE('',*,*,#79,.F.);
#79 = EDGE_CURVE('',#80,#82,#84,.T.);
#80 = VERTEX_POINT('',#81);
#81 = CARTESIAN_POINT('',(10.983624174197,0.6,4.));
#82 = VERTEX_POINT('',#83);
#83 = CARTESIAN_POINT('',(10.983624174197,-0.6,4.));
#84 = CIRCLE('',#85,11.);
#85 = AXIS2_PLACEMENT_3D('',#86,#87,#88);
#86 = CARTESIAN_POINT('',(0.,0.,4.));
#87 = DIRECTION('',(0.,0.,1.));
#88 = DIRECTION('',(1.,0.,0.));
#89 = ORIENTED_EDGE('',*,*,#90,.F.);
#90 = EDGE_CURVE('',#91,#80,#93,.T.);
#91 = VERTEX_POINT('',#92);
#92 = CARTESIAN_POINT('',(11.462957385106,0.6,4.));
#93 = LINE('',#94,#95);
#94 = CARTESIAN_POINT('',(0.,0.6,4.));
#95 = VECTOR('',#96,1.);
#96 = DIRECTION('',(-1.,0.,0.));
#97 = ORIENTED_EDGE('',*,*,#98,.F.);
#98 = EDGE_CURVE('',#99,#91,#101,.T.);
#99 = VERTEX_POINT('',#100);
#100 = CARTESIAN_POINT('',(14.65,0.,4.));
#101 = CIRCLE('',#102,1.65);
#102 = AXIS2_PLACEMENT_3D('',#103,#104,#105);
#103 = CARTESIAN_POINT('',(13.,0.,4.));
#104 = DIRECTION('',(0.,0.,1.));
#105 = DIRECTION('',(1.,0.,0.));
#106 = ORIENTED_EDGE('',*,*,#107,.F.);
#107 = EDGE_CURVE('',#108,#99,#110,.T.);
#108 = VERTEX_POINT('',#109);
#109 = CARTESIAN_POINT('',(11.462957385106,-0.6,4.));
#110 = CIRCLE('',#111,1.65);
#111 = AXIS2_PLACEMENT_3D('',#112,#113,#114);
#112 = CARTESIAN_POINT('',(13.,0.,4.));
#113 = DIRECTION('',(0.,0.,1.));
#114 = DIRECTION('',(1.,0.,0.));
#115 = ORIENTED_EDGE('',*,*,#116,.T.);
#116 = EDGE_CURVE('',#108,#82,#117,.T.);
#117 = LINE('',#118,#119);
#118 = CARTESIAN_POINT('',(0.,-0.6,4.));
#119 = VECTOR('',#120,1.);
#120 = DIRECTION('',(-1.,0.,0.));
#121 = FACE_BOUND('',#122,.T.);
#122 = EDGE_LOOP('',(#123));
#123 = ORIENTED_EDGE('',*,*,#124,.F.);
#124 = EDGE_CURVE('',#125,#125,#127,.T.);
#125 = VERTEX_POINT('',#126);
#126 = CARTESIAN_POINT('',(1.65,13.,4.));
#127 = CIRCLE('',#128,1.65);
#128 = AXIS2_PLACEMENT_3D('',#129,#130,#131);
#129 = CARTESIAN_POINT('',(8.E-16,13.,4.));
#130 = DIRECTION('',(0.,0.,1.));
#131 = DIRECTION('',(1.,0.,0.));
#132 = PLANE('',#133);
#133 = AXIS2_PLACEMENT_3D('',#134,#135,#136);
#134 = CARTESIAN_POINT('',(0.,0.,4.));
#135 = DIRECTION('',(0.,0.,1.));
#136 = DIRECTION('',(1.,0.,0.));
#137 = ADVANCED_FACE('',(#138,#141,#186,#197,#208),#219,.F.);
#138 = FACE_BOUND('',#139,.T.);
#139 = EDGE_LOOP('',(#140));
#140 = ORIENTED_EDGE('',*,*,#38,.F.);
#141 = FACE_BOUND('',#142,.F.);
#142 = EDGE_LOOP('',(#143,#154,#162,#171,#180));
#143 = ORIENTED_EDGE('',*,*,#144,.F.);
#144 = EDGE_CURVE('',#145,#147,#149,.T.);
#145 = VERTEX_POINT('',#146);
#146 = CARTESIAN_POINT('',(2.426932219902,0.6,0.));
#147 = VERTEX_POINT('',#148);
#148 = CARTESIAN_POINT('',(2.426932219902,-0.6,0.));
#149 = CIRCLE('',#150,2.5);
#150 = AXIS2_PLACEMENT_3D('',#151,#152,#153);
#151 = CARTESIAN_POINT('',(0.,0.,0.));
#152 = DIRECTION('',(0.,0.,1.));
#153 = DIRECTION('',(1.,0.,0.));
#154 = ORIENTED_EDGE('',*,*,#155,.T.);
#155 = EDGE_CURVE('',#145,#156,#158,.T.);
#156 = VERTEX_POINT('',#157);
#157 = CARTESIAN_POINT('',(11.462957385106,0.6,0.));
#158 = LINE('',#159,#160);
#159 = CARTESIAN_POINT('',(0.,0.6,0.));
#160 = VECTOR('',#161,1.);
#161 = DIRECTION('',(1.,0.,0.));
#162 = ORIENTED_EDGE('',*,*,#163,.F.);
#163 = EDGE_CURVE('',#164,#156,#166,.T.);
#164 = VERTEX_POINT('',#165);
#165 = CARTESIAN_POINT('',(14.65,0.,0.));
#166 = CIRCLE('',#167,1.65);
#167 = AXIS2_PLACEMENT_3D('',#168,#169,#170);
#168 = CARTESIAN_POINT('',(13.,0.,0.));
#169 = DIRECTION('',(0.,0.,1.));
#170 = DIRECTION('',(1.,0.,0.));
#171 = ORIENTED_EDGE('',*,*,#172,.F.);
#172 = EDGE_CURVE('',#173,#164,#175,.T.);
#173 = VERTEX_POINT('',#174);
#174 = CARTESIAN_POINT('',(11.462957385106,-0.6,0.));
#175 = CIRCLE('',#176,1.65);
#176 = AXIS2_PLACEMENT_3D('',#177,#178,#179);
#177 = CARTESIAN_POINT('',(13.,0.,0.));
#178 = DIRECTION('',(0.,0.,1.));
#179 = DIRECTION('',(1.,0.,0.));
#180 = ORIENTED_EDGE('',*,*,#181,.F.);
#181 = EDGE_CURVE('',#147,#173,#182,.T.);
#182 = LINE('',#183,#184);
#183 = CARTESIAN_POINT('',(0.,-0.6,0.));
#184 = VECTOR('',#185,1.);
#185 = DIRECTION('',(1.,0.,0.));
#186 = FACE_BOUND('',#187,.F.);
#187 = EDGE_LOOP('',(#188));
#188 = ORIENTED_EDGE('',*,*,#189,.F.);
#189 = EDGE_CURVE('',#190,#190,#192,.T.);
#190 = VERTEX_POINT('',#191);
#191 = CARTESIAN_POINT('',(1.65,-13.,0.));
#192 = CIRCLE('',#193,1.65);
#193 = AXIS2_PLACEMENT_3D('',#194,#195,#196);
#194 = CARTESIAN_POINT('',(-2.39E-15,-13.,0.));
#195 = DIRECTION('',(0.,0.,1.));
#196 = DIRECTION('',(1.,0.,0.));
#197 = FACE_BOUND('',#198,.F.);
#198 = EDGE_LOOP('',(#199));
#199 = ORIENTED_EDGE('',*,*,#200,.F.);
#200 = EDGE_CURVE('',#201,#201,#203,.T.);
#201 = VERTEX_POINT('',#202);
#202 = CARTESIAN_POINT('',(-11.35,1.E-15,0.));
#203 = CIRCLE('',#204,1.65);
#204 = AXIS2_PLACEMENT_3D('',#205,#206,#207);
#205 = CARTESIAN_POINT('',(-13.,1.59E-15,0.));
#206 = DIRECTION('',(0.,0.,1.));
#207 = DIRECTION('',(1.,0.,0.));
#208 = FACE_BOUND('',#209,.F.);
#209 = EDGE_LOOP('',(#210));
#210 = ORIENTED_EDGE('',*,*,#211,.F.);
#211 = EDGE_CURVE('',#212,#212,#214,.T.);
#212 = VERTEX_POINT('',#213);
#213 = CARTESIAN_POINT('',(1.65,13.,0.));
#214 = CIRCLE('',#215,1.65);
#215 = AXIS2_PLACEMENT_3D('',#216,#217,#218);
#216 = CARTESIAN_POINT('',(8.E-16,13.,0.));
#217 = DIRECTION('',(0.,0.,1.));
#218 = DIRECTION('',(1.,0.,0.));
#219 = PLANE('',#220);
#220 = AXIS2_PLACEMENT_3D('',#221,#222,#223);
#221 = CARTESIAN_POINT('',(0.,0.,0.));
#222 = DIRECTION('',(0.,0.,1.));
#223 = DIRECTION('',(1.,0.,0.));
#224 = ADVANCED_FACE('',(#225),#236,.F.);
#225 = FACE_BOUND('',#226,.F.);
#226 = EDGE_LOOP('',(#227,#228,#234,#235));
#227 = ORIENTED_EDGE('',*,*,#57,.F.);
#228 = ORIENTED_EDGE('',*,*,#229,.F.);
#229 = EDGE_CURVE('',#190,#58,#230,.T.);
#230 = LINE('',#231,#232);
#231 = CARTESIAN_POINT('',(1.65,-13.,-1.));
#232 = VECTOR('',#233,1.);
#233 = DIRECTION('',(0.,0.,1.));
#234 = ORIENTED_EDGE('',*,*,#189,.T.);
#235 = ORIENTED_EDGE('',*,*,#229,.T.);
#236 = CYLINDRICAL_SURFACE('',#237,1.65);
#237 = AXIS2_PLACEMENT_3D('',#238,#239,#240);
#238 = CARTESIAN_POINT('',(-2.39E-15,-13.,-1.));
#239 = DIRECTION('',(0.,0.,1.));
#240 = DIRECTION('',(1.,0.,0.));
#241 = ADVANCED_FACE('',(#242),#253,.F.);
#242 = FACE_BOUND('',#243,.F.);
#243 = EDGE_LOOP('',(#244,#245,#251,#252));
#244 = ORIENTED_EDGE('',*,*,#68,.F.);
#245 = ORIENTED_EDGE('',*,*,#246,.F.);
#246 = EDGE_CURVE('',#201,#69,#247,.T.);
#247 = LINE('',#248,#249);
#248 = CARTESIAN_POINT('',(-11.35,1.19E-15,-1.));
#249 = VECTOR('',#250,1.);
#250 = DIRECTION('',(0.,0.,1.));
#251 = ORIENTED_EDGE('',*,*,#200,.T.);
#252 = ORIENTED_EDGE('',*,*,#246,.T.);
#253 = CYLINDRICAL_SURFACE('',#254,1.65);
#254 = AXIS2_PLACEMENT_3D('',#255,#256,#257);
#255 = CARTESIAN_POINT('',(-13.,1.59E-15,-1.));
#256 = DIRECTION('',(0.,0.,1.));
#257 = DIRECTION('',(1.,0.,0.));
#258 = ADVANCED_FACE('',(#259,#285,#369),#492,.T.);
#259 = FACE_BOUND('',#260,.T.);
#260 = EDGE_LOOP('',(#261,#269,#270,#278));
#261 = ORIENTED_EDGE('',*,*,#262,.F.);
#262 = EDGE_CURVE('',#80,#263,#265,.T.);
#263 = VERTEX_POINT('',#264);
#264 = CARTESIAN_POINT('',(10.983624174197,0.6,12.));
#265 = LINE('',#266,#267);
#266 = CARTESIAN_POINT('',(10.983624174197,0.6,0.));
#267 = VECTOR('',#268,1.);
#268 = DIRECTION('',(0.,0.,1.));
#269 = ORIENTED_EDGE('',*,*,#79,.T.);
#270 = ORIENTED_EDGE('',*,*,#271,.T.);
#271 = EDGE_CURVE('',#82,#272,#274,.T.);
#272 = VERTEX_POINT('',#273);
#273 = CARTESIAN_POINT('',(10.983624174197,-0.6,12.));
#274 = LINE('',#275,#276);
#275 = CARTESIAN_POINT('',(10.983624174197,-0.6,0.));
#276 = VECTOR('',#277,1.);
#277 = DIRECTION('',(0.,0.,1.));
#278 = ORIENTED_EDGE('',*,*,#279,.F.);
#279 = EDGE_CURVE('',#263,#272,#280,.T.);
#280 = CIRCLE('',#281,11.);
#281 = AXIS2_PLACEMENT_3D('',#282,#283,#284);
#282 = CARTESIAN_POINT('',(0.,0.,12.));
#283 = DIRECTION('',(0.,0.,1.));
#284 = DIRECTION('',(1.,0.,0.));
#285 = FACE_BOUND('',#286,.T.);
#286 = EDGE_LOOP('',(#287,#306,#314,#342,#350));
#287 = ORIENTED_EDGE('',*,*,#288,.F.);
#288 = EDGE_CURVE('',#289,#291,#293,.T.);
#289 = VERTEX_POINT('',#290);
#290 = CARTESIAN_POINT('',(6.321440317814,9.002188195562,9.852683835235)
  );
#291 = VERTEX_POINT('',#292);
#292 = CARTESIAN_POINT('',(8.,7.549834435271,10.5));
#293 = B_SPLINE_CURVE_WITH_KNOTS('',6,(#294,#295,#296,#297,#298,#299,
    #300,#301,#302,#303,#304,#305),.UNSPECIFIED.,.F.,.F.,(7,5,7),(0.,
    0.618420413156,1.),.UNSPECIFIED.);
#294 = CARTESIAN_POINT('',(6.32143946337,9.002188795562,9.852683061095)
  );
#295 = CARTESIAN_POINT('',(6.476534713116,8.89327914541,9.993201842267)
  );
#296 = CARTESIAN_POINT('',(6.643628391755,8.771156244774,10.11622135746)
  );
#297 = CARTESIAN_POINT('',(6.819281211635,8.636587020507,10.220080549756
    ));
#298 = CARTESIAN_POINT('',(6.999669362213,8.490884906728,10.304247819746
    ));
#299 = CARTESIAN_POINT('',(7.18096497864,8.336153028633,10.369239541087)
  );
#300 = CARTESIAN_POINT('',(7.469662059556,8.076268825321,10.445757469607
    ));
#301 = CARTESIAN_POINT('',(7.578993021701,7.974624758653,10.468285837442
    ));
#302 = CARTESIAN_POINT('',(7.687049675962,7.870818134392,10.484559338319
    ));
#303 = CARTESIAN_POINT('',(7.79344791949,7.765182231774,10.494992282156)
  );
#304 = CARTESIAN_POINT('',(7.897858231332,7.658066497358,10.5));
#305 = CARTESIAN_POINT('',(8.,7.549834435271,10.5));
#306 = ORIENTED_EDGE('',*,*,#307,.F.);
#307 = EDGE_CURVE('',#308,#289,#310,.T.);
#308 = VERTEX_POINT('',#309);
#309 = CARTESIAN_POINT('',(6.321440317814,9.002188195562,6.147316164765)
  );
#310 = LINE('',#311,#312);
#311 = CARTESIAN_POINT('',(6.321440317814,9.002188195562,0.));
#312 = VECTOR('',#313,1.);
#313 = DIRECTION('',(0.,0.,1.));
#314 = ORIENTED_EDGE('',*,*,#315,.F.);
#315 = EDGE_CURVE('',#316,#308,#318,.T.);
#316 = VERTEX_POINT('',#317);
#317 = CARTESIAN_POINT('',(9.80702813211,4.982188195562,6.272386232469)
  );
#318 = B_SPLINE_CURVE_WITH_KNOTS('',8,(#319,#320,#321,#322,#323,#324,
    #325,#326,#327,#328,#329,#330,#331,#332,#333,#334,#335,#336,#337,
    #338,#339,#340,#341),.UNSPECIFIED.,.F.,.F.,(9,7,7,9),(0.,
    0.634207492652,0.765461685736,1.),.UNSPECIFIED.);
#319 = CARTESIAN_POINT('',(9.807028436924,4.982187595562,6.272386551294)
  );
#320 = CARTESIAN_POINT('',(9.635168406861,5.320479996172,6.092626454077)
  );
#321 = CARTESIAN_POINT('',(9.443206550457,5.665314910778,5.932753539648)
  );
#322 = CARTESIAN_POINT('',(9.231026684617,6.01236596268,5.792383414291)
  );
#323 = CARTESIAN_POINT('',(8.997510661766,6.360654685661,5.67292710546)
  );
#324 = CARTESIAN_POINT('',(8.741209370971,6.70865351443,5.577653815442)
  );
#325 = CARTESIAN_POINT('',(8.461437491168,7.053800035657,5.512122587547)
  );
#326 = CARTESIAN_POINT('',(8.158645266235,7.392343286378,5.484289961448)
  );
#327 = CARTESIAN_POINT('',(7.77030709859,7.786612366499,5.509679907082)
  );
#328 = CARTESIAN_POINT('',(7.702942309795,7.853672805108,5.516124266831)
  );
#329 = CARTESIAN_POINT('',(7.634881266082,7.920099232845,5.524751658696)
  );
#330 = CARTESIAN_POINT('',(7.566209536966,7.985805853186,5.535652456758)
  );
#331 = CARTESIAN_POINT('',(7.497018472471,8.050710002838,5.548915128942)
  );
#332 = CARTESIAN_POINT('',(7.427405359971,8.114732197297,5.564626258965)
  );
#333 = CARTESIAN_POINT('',(7.357473581042,8.177796176408,5.582870568302)
  );
#334 = CARTESIAN_POINT('',(7.161998044941,8.350675405854,5.641006364233)
  );
#335 = CARTESIAN_POINT('',(7.035766425517,8.458432171643,5.686703152673)
  );
#336 = CARTESIAN_POINT('',(6.909733525186,8.562241616764,5.741207473783)
  );
#337 = CARTESIAN_POINT('',(6.785016543573,8.661401440776,5.80473740753)
  );
#338 = CARTESIAN_POINT('',(6.662739594664,8.755352446914,5.877338262336)
  );
#339 = CARTESIAN_POINT('',(6.544013812989,8.843664115842,5.958877443163)
  );
#340 = CARTESIAN_POINT('',(6.429912236104,8.926017979572,6.049038868882)
  );
#341 = CARTESIAN_POINT('',(6.32143946337,9.002188795562,6.147316938905)
  );
#342 = ORIENTED_EDGE('',*,*,#343,.T.);
#343 = EDGE_CURVE('',#316,#344,#346,.T.);
#344 = VERTEX_POINT('',#345);
#345 = CARTESIAN_POINT('',(9.80702813211,4.982188195562,9.727613767531)
  );
#346 = LINE('',#347,#348);
#347 = CARTESIAN_POINT('',(9.80702813211,4.982188195562,0.));
#348 = VECTOR('',#349,1.);
#349 = DIRECTION('',(0.,0.,1.));
#350 = ORIENTED_EDGE('',*,*,#351,.F.);
#351 = EDGE_CURVE('',#291,#344,#352,.T.);
#352 = B_SPLINE_CURVE_WITH_KNOTS('',8,(#353,#354,#355,#356,#357,#358,
    #359,#360,#361,#362,#363,#364,#365,#366,#367,#368),.UNSPECIFIED.,.F.
  ,.F.,(9,7,9),(0.,0.90045429865,1.),.UNSPECIFIED.);
#353 = CARTESIAN_POINT('',(8.,7.549834435271,10.5));
#354 = CARTESIAN_POINT('',(8.263783909436,7.270322176613,10.5));
#355 = CARTESIAN_POINT('',(8.513081836504,6.983800114378,10.468190906926
    ));
#356 = CARTESIAN_POINT('',(8.746115524797,6.693139347103,10.410688102885
    ));
#357 = CARTESIAN_POINT('',(8.962628375757,6.400482587402,10.332064520849
    ));
#358 = CARTESIAN_POINT('',(9.162996747466,6.107370286101,10.235657460085
    ));
#359 = CARTESIAN_POINT('',(9.34795731488,5.814838447086,10.123660639401)
  );
#360 = CARTESIAN_POINT('',(9.518197372662,5.523688153198,9.997275601419)
  );
#361 = CARTESIAN_POINT('',(9.691276311558,5.203890250225,9.841228553128)
  );
#362 = CARTESIAN_POINT('',(9.708331100949,5.172092119961,9.825520796909)
  );
#363 = CARTESIAN_POINT('',(9.725212044544,5.140332367972,9.809639212402)
  );
#364 = CARTESIAN_POINT('',(9.741919733522,5.108613114017,9.793583708328)
  );
#365 = CARTESIAN_POINT('',(9.758454721064,5.076936595625,9.777353987063)
  );
#366 = CARTESIAN_POINT('',(9.774817522354,5.045305168086,9.760949544638)
  );
#367 = CARTESIAN_POINT('',(9.791008614578,5.013721304457,9.744369670739)
  );
#368 = CARTESIAN_POINT('',(9.807028436924,4.982187595562,9.727613448706)
  );
#369 = FACE_BOUND('',#370,.T.);
#370 = EDGE_LOOP('',(#371));
#371 = ORIENTED_EDGE('',*,*,#372,.T.);
#372 = EDGE_CURVE('',#373,#373,#375,.T.);
#373 = VERTEX_POINT('',#374);
#374 = CARTESIAN_POINT('',(8.,-7.549834435271,9.65));
#375 = B_SPLINE_CURVE_WITH_KNOTS('',7,(#376,#377,#378,#379,#380,#381,
    #382,#383,#384,#385,#386,#387,#388,#389,#390,#391,#392,#393,#394,
    #395,#396,#397,#398,#399,#400,#401,#402,#403,#404,#405,#406,#407,
    #408,#409,#410,#411,#412,#413,#414,#415,#416,#417,#418,#419,#420,
    #421,#422,#423,#424,#425,#426,#427,#428,#429,#430,#431,#432,#433,
    #434,#435,#436,#437,#438,#439,#440,#441,#442,#443,#444,#445,#446,
    #447,#448,#449,#450,#451,#452,#453,#454,#455,#456,#457,#458,#459,
    #460,#461,#462,#463,#464,#465,#466,#467,#468,#469,#470,#471,#472,
    #473,#474,#475,#476,#477,#478,#479,#480,#481,#482,#483,#484,#485,
    #486,#487,#488,#489,#490,#491),.UNSPECIFIED.,.T.,.F.,(8,6,6,6,6,6,6,
    6,6,6,6,6,6,6,6,6,6,6,6,8),(0.,9.394863842229E-02,0.168159172381,
    0.191164417493,0.218157902123,0.237895115133,0.26931288323,
    0.300637222233,0.348151944696,0.443888477768,0.529538006043,
    0.569192388385,0.626624175562,0.675924963779,0.719447982838,
    0.768953895609,0.818631620221,0.861750424665,0.904317418961,1.),
  .UNSPECIFIED.);
#376 = CARTESIAN_POINT('',(8.,-7.549834435271,9.65));
#377 = CARTESIAN_POINT('',(8.129148987781,-7.412984824712,9.65));
#378 = CARTESIAN_POINT('',(8.254893992318,-7.274270598849,9.638206198728
    ));
#379 = CARTESIAN_POINT('',(8.376611078982,-7.134456150061,9.615738846076
    ));
#380 = CARTESIAN_POINT('',(8.49391184939,-6.994213370855,9.583481330978)
  );
#381 = CARTESIAN_POINT('',(8.606521581077,-6.854185759599,9.542105803715
    ));
#382 = CARTESIAN_POINT('',(8.714193077552,-6.715072585945,9.492090222361
    ));
#383 = CARTESIAN_POINT('',(8.897592422026,-6.469247931114,9.387625261138
    ));
#384 = CARTESIAN_POINT('',(8.975179036131,-6.362002914169,9.336371726219
    ));
#385 = CARTESIAN_POINT('',(9.049511993611,-6.256129781801,9.2800097756)
  );
#386 = CARTESIAN_POINT('',(9.120579967723,-6.151894701219,9.218450787865
    ));
#387 = CARTESIAN_POINT('',(9.188232181733,-6.04979311828,9.151524150188)
  );
#388 = CARTESIAN_POINT('',(9.252154835323,-5.950647729451,9.079025985031
    ));
#389 = CARTESIAN_POINT('',(9.330363551709,-5.826278802824,8.976505971861
    ));
#390 = CARTESIAN_POINT('',(9.348475849416,-5.797235646685,8.951678128351
    ));
#391 = CARTESIAN_POINT('',(9.366183219335,-5.768608785013,8.926268358982
    ));
#392 = CARTESIAN_POINT('',(9.383472644474,-5.740433369529,8.900262566686
    ));
#393 = CARTESIAN_POINT('',(9.400327922717,-5.712751047837,8.87364708437)
  );
#394 = CARTESIAN_POINT('',(9.416729666817,-5.685609963414,8.846408674921
    ));
#395 = CARTESIAN_POINT('',(9.451341845291,-5.62791761265,8.785828065065)
  );
#396 = CARTESIAN_POINT('',(9.469376920981,-5.597584398569,8.752239504021
    ));
#397 = CARTESIAN_POINT('',(9.486723566593,-5.568154411863,8.717747825902
    ));
#398 = CARTESIAN_POINT('',(9.503338784468,-5.539730446472,8.68233366508)
  );
#399 = CARTESIAN_POINT('',(9.519173521704,-5.512428814965,8.645979431888
    ));
#400 = CARTESIAN_POINT('',(9.53417264768,-5.486379371704,8.608669432045)
  );
#401 = CARTESIAN_POINT('',(9.558586300616,-5.443699037662,8.542400654975
    ));
#402 = CARTESIAN_POINT('',(9.568420515018,-5.426414333429,8.51388634745)
  );
#403 = CARTESIAN_POINT('',(9.577747347121,-5.409938925822,8.484857945656
    ));
#404 = CARTESIAN_POINT('',(9.586536930295,-5.394340031383,8.455326390883
    ));
#405 = CARTESIAN_POINT('',(9.594759758946,-5.379684580697,8.425302683552
    ));
#406 = CARTESIAN_POINT('',(9.602386688516,-5.36603921839,8.394797883217)
  );
#407 = CARTESIAN_POINT('',(9.620535137914,-5.333463057701,8.314517348614
    ));
#408 = CARTESIAN_POINT('',(9.63012147076,-5.316140970666,8.263917410919)
  );
#409 = CARTESIAN_POINT('',(9.637970984913,-5.30187921694,8.212271202693)
  );
#410 = CARTESIAN_POINT('',(9.643953013435,-5.29096719983,8.159821818484)
  );
#411 = CARTESIAN_POINT('',(9.647979278776,-5.283607491266,8.106806903726
    ));
#412 = CARTESIAN_POINT('',(9.65,-5.279914772039,8.053458018284));
#413 = CARTESIAN_POINT('',(9.65,-5.279914772039,7.94670095336));
#414 = CARTESIAN_POINT('',(9.647991280035,-5.283585564325,7.893509600911
    ));
#415 = CARTESIAN_POINT('',(9.643988772647,-5.290901836267,7.840649190974
    ));
#416 = CARTESIAN_POINT('',(9.63804170105,-5.301750215389,7.788349612021)
  );
#417 = CARTESIAN_POINT('',(9.630237410071,-5.315930311995,7.736846764864
    ));
#418 = CARTESIAN_POINT('',(9.620705197083,-5.3331557618,7.686381934836)
  );
#419 = CARTESIAN_POINT('',(9.592805637437,-5.383240088769,7.562600685487
    ));
#420 = CARTESIAN_POINT('',(9.572410908882,-5.419591889219,7.490921283059
    ));
#421 = CARTESIAN_POINT('',(9.548849103582,-5.461175268746,7.422171079414
    ));
#422 = CARTESIAN_POINT('',(9.522480711546,-5.50713706437,7.35634612074)
  );
#423 = CARTESIAN_POINT('',(9.493629564941,-5.556713484556,7.293429186259
    ));
#424 = CARTESIAN_POINT('',(9.462589031371,-5.609234237759,7.233387996267
    ));
#425 = CARTESIAN_POINT('',(9.363186492276,-5.774719327551,7.060891018371
    ));
#426 = CARTESIAN_POINT('',(9.288282283782,-5.895991656459,6.955977290536
    ));
#427 = CARTESIAN_POINT('',(9.206521998891,-6.023954258476,6.861011781373
    ));
#428 = CARTESIAN_POINT('',(9.11893253181,-6.156086326141,6.775423154759)
  );
#429 = CARTESIAN_POINT('',(9.02600724043,-6.291117903201,6.698619105365)
  );
#430 = CARTESIAN_POINT('',(8.927666209514,-6.428625579328,6.630184284744
    ));
#431 = CARTESIAN_POINT('',(8.730239663917,-6.693824580786,6.51648281592)
  );
#432 = CARTESIAN_POINT('',(8.632690586261,-6.820531540439,6.469745471717
    ));
#433 = CARTESIAN_POINT('',(8.531018598114,-6.948071041091,6.430165996818
    ));
#434 = CARTESIAN_POINT('',(8.425402303245,-7.075914732731,6.398080711209
    ));
#435 = CARTESIAN_POINT('',(8.3160301208,-7.20358339486,6.373963876869));
#436 = CARTESIAN_POINT('',(8.20315532523,-7.330587904071,6.358440503533)
  );
#437 = CARTESIAN_POINT('',(8.033474288565,-7.51462350095,6.349463407988)
  );
#438 = CARTESIAN_POINT('',(7.979122549154,-7.572591353825,6.348635273631
    ));
#439 = CARTESIAN_POINT('',(7.924183144475,-7.630203872188,6.349898383041
    ));
#440 = CARTESIAN_POINT('',(7.868728789596,-7.687378782882,6.353332534462
    ));
#441 = CARTESIAN_POINT('',(7.812839580141,-7.74403387293,6.359018918809)
  );
#442 = CARTESIAN_POINT('',(7.756603513954,-7.800087078565,6.367040149905
    ));
#443 = CARTESIAN_POINT('',(7.61830712132,-7.935648696869,6.392600847389)
  );
#444 = CARTESIAN_POINT('',(7.535883317593,-8.014493828389,6.412811654032
    ));
#445 = CARTESIAN_POINT('',(7.453312060382,-8.091564441563,6.438356042326
    ));
#446 = CARTESIAN_POINT('',(7.371088802336,-8.166469997558,6.469424686992
    ));
#447 = CARTESIAN_POINT('',(7.289733976235,-8.238854710428,6.506154914881
    ));
#448 = CARTESIAN_POINT('',(7.209788981282,-8.308395311596,6.548630010061
    ));
#449 = CARTESIAN_POINT('',(7.06487505183,-8.431801132857,6.638296166364)
  );
#450 = CARTESIAN_POINT('',(6.999439809371,-8.48644774318,6.683936491334)
  );
#451 = CARTESIAN_POINT('',(6.935949971449,-8.538478375574,6.733747201111
    ));
#452 = CARTESIAN_POINT('',(6.874838640157,-8.587673800341,6.787614578795
    ));
#453 = CARTESIAN_POINT('',(6.816519890128,-8.633852051739,6.845363719879
    ));
#454 = CARTESIAN_POINT('',(6.761380168421,-8.676864651913,6.906758768849
    ));
#455 = CARTESIAN_POINT('',(6.664207671468,-8.751665102909,7.028659872528
    ));
#456 = CARTESIAN_POINT('',(6.621413295988,-8.784164369042,7.088405385156
    ));
#457 = CARTESIAN_POINT('',(6.581607179066,-8.814025300366,7.150551453795
    ));
#458 = CARTESIAN_POINT('',(6.544988874943,-8.841197852189,7.214884234349
    ));
#459 = CARTESIAN_POINT('',(6.51173328954,-8.865645596468,7.281165002209)
  );
#460 = CARTESIAN_POINT('',(6.481987088992,-8.887344050306,7.349130875942
    ));
#461 = CARTESIAN_POINT('',(6.42615226813,-8.927816852881,7.497395422733)
  );
#462 = CARTESIAN_POINT('',(6.401123975701,-8.945782461742,7.578117326912
    ));
#463 = CARTESIAN_POINT('',(6.380922329285,-8.960175334233,7.660314502497
    ));
#464 = CARTESIAN_POINT('',(6.365655565822,-8.970997021998,7.743628858996
    ));
#465 = CARTESIAN_POINT('',(6.355396374584,-8.978250253299,7.827692126522
    ));
#466 = CARTESIAN_POINT('',(6.350180210956,-8.981938061196,7.91212701586)
  );
#467 = CARTESIAN_POINT('',(6.349826396572,-8.982188195562,8.081262728225
    ));
#468 = CARTESIAN_POINT('',(6.354723686994,-8.978725816937,8.166011675721
    ));
#469 = CARTESIAN_POINT('',(6.364700552754,-8.971673439791,8.250406566715
    ));
#470 = CARTESIAN_POINT('',(6.379722745596,-8.961028049235,8.334066470771
    ));
#471 = CARTESIAN_POINT('',(6.399718374895,-8.946786818211,8.416619368385
    ));
#472 = CARTESIAN_POINT('',(6.424579584824,-8.92894797414,8.497703338061)
  );
#473 = CARTESIAN_POINT('',(6.479842835071,-8.888905579985,8.645766916822
    ));
#474 = CARTESIAN_POINT('',(6.509083263305,-8.867586907596,8.713204260246
    ));
#475 = CARTESIAN_POINT('',(6.541775074068,-8.843569025703,8.779001645118
    ));
#476 = CARTESIAN_POINT('',(6.577777248001,-8.816875071294,8.842903252115
    ));
#477 = CARTESIAN_POINT('',(6.616921578241,-8.787539522978,8.904676261506
    ));
#478 = CARTESIAN_POINT('',(6.659016060111,-8.755609782894,8.964111543535
    ));
#479 = CARTESIAN_POINT('',(6.748106764041,-8.687126759913,9.07720881609)
  );
#480 = CARTESIAN_POINT('',(6.795020011331,-8.650648213609,9.130918089199
    ));
#481 = CARTESIAN_POINT('',(6.844363965283,-8.611787457558,9.181956940831
    ));
#482 = CARTESIAN_POINT('',(6.895893417793,-8.570636715882,9.230164059612
    ));
#483 = CARTESIAN_POINT('',(6.94934626781,-8.527306976754,9.275412217781)
  );
#484 = CARTESIAN_POINT('',(7.00444777908,-8.481929870168,9.317608438865)
  );
#485 = CARTESIAN_POINT('',(7.18784214438,-8.328404764843,9.444551512451)
  );
#486 = CARTESIAN_POINT('',(7.321002321647,-8.213142395229,9.516232256413
    ));
#487 = CARTESIAN_POINT('',(7.457882124206,-8.090104972447,9.571942581556
    ));
#488 = CARTESIAN_POINT('',(7.596183894944,-7.960631566696,9.612212053487
    ));
#489 = CARTESIAN_POINT('',(7.733837158065,-7.826237336803,9.63786392764)
  );
#490 = CARTESIAN_POINT('',(7.868992823103,-7.688653031117,9.65));
#491 = CARTESIAN_POINT('',(8.,-7.549834435271,9.65));
#492 = CYLINDRICAL_SURFACE('',#493,11.);
#493 = AXIS2_PLACEMENT_3D('',#494,#495,#496);
#494 = CARTESIAN_POINT('',(0.,0.,0.));
#495 = DIRECTION('',(0.,0.,1.));
#496 = DIRECTION('',(1.,0.,0.));
#497 = ADVANCED_FACE('',(#498,#523),#534,.T.);
#498 = FACE_BOUND('',#499,.T.);
#499 = EDGE_LOOP('',(#500,#508,#514,#515,#516,#522));
#500 = ORIENTED_EDGE('',*,*,#501,.T.);
#501 = EDGE_CURVE('',#147,#502,#504,.T.);
#502 = VERTEX_POINT('',#503);
#503 = CARTESIAN_POINT('',(2.426932219902,-0.6,12.));
#504 = LINE('',#505,#506);
#505 = CARTESIAN_POINT('',(2.426932219902,-0.6,-1.));
#506 = VECTOR('',#507,1.);
#507 = DIRECTION('',(0.,0.,1.));
#508 = ORIENTED_EDGE('',*,*,#509,.F.);
#509 = EDGE_CURVE('',#272,#502,#510,.T.);
#510 = LINE('',#511,#512);
#511 = CARTESIAN_POINT('',(0.,-0.6,12.));
#512 = VECTOR('',#513,1.);
#513 = DIRECTION('',(-1.,0.,0.));
#514 = ORIENTED_EDGE('',*,*,#271,.F.);
#515 = ORIENTED_EDGE('',*,*,#116,.F.);
#516 = ORIENTED_EDGE('',*,*,#517,.F.);
#517 = EDGE_CURVE('',#173,#108,#518,.T.);
#518 = LINE('',#519,#520);
#519 = CARTESIAN_POINT('',(11.462957385106,-0.6,-1.));
#520 = VECTOR('',#521,1.);
#521 = DIRECTION('',(0.,0.,1.));
#522 = ORIENTED_EDGE('',*,*,#181,.F.);
#523 = FACE_BOUND('',#524,.T.);
#524 = EDGE_LOOP('',(#525));
#525 = ORIENTED_EDGE('',*,*,#526,.F.);
#526 = EDGE_CURVE('',#527,#527,#529,.T.);
#527 = VERTEX_POINT('',#528);
#528 = CARTESIAN_POINT('',(8.,-0.6,9.65));
#529 = CIRCLE('',#530,1.65);
#530 = AXIS2_PLACEMENT_3D('',#531,#532,#533);
#531 = CARTESIAN_POINT('',(8.,-0.6,8.));
#532 = DIRECTION('',(0.,1.,0.));
#533 = DIRECTION('',(0.,0.,1.));
#534 = PLANE('',#535);
#535 = AXIS2_PLACEMENT_3D('',#536,#537,#538);
#536 = CARTESIAN_POINT('',(0.,-0.6,0.));
#537 = DIRECTION('',(0.,1.,0.));
#538 = DIRECTION('',(0.,0.,1.));
#539 = ADVANCED_FACE('',(#540,#565),#576,.F.);
#540 = FACE_BOUND('',#541,.F.);
#541 = EDGE_LOOP('',(#542,#543,#551,#557,#558,#559));
#542 = ORIENTED_EDGE('',*,*,#155,.F.);
#543 = ORIENTED_EDGE('',*,*,#544,.T.);
#544 = EDGE_CURVE('',#145,#545,#547,.T.);
#545 = VERTEX_POINT('',#546);
#546 = CARTESIAN_POINT('',(2.426932219902,0.6,12.));
#547 = LINE('',#548,#549);
#548 = CARTESIAN_POINT('',(2.426932219902,0.6,-1.));
#549 = VECTOR('',#550,1.);
#550 = DIRECTION('',(0.,0.,1.));
#551 = ORIENTED_EDGE('',*,*,#552,.F.);
#552 = EDGE_CURVE('',#263,#545,#553,.T.);
#553 = LINE('',#554,#555);
#554 = CARTESIAN_POINT('',(0.,0.6,12.));
#555 = VECTOR('',#556,1.);
#556 = DIRECTION('',(-1.,0.,0.));
#557 = ORIENTED_EDGE('',*,*,#262,.F.);
#558 = ORIENTED_EDGE('',*,*,#90,.F.);
#559 = ORIENTED_EDGE('',*,*,#560,.F.);
#560 = EDGE_CURVE('',#156,#91,#561,.T.);
#561 = LINE('',#562,#563);
#562 = CARTESIAN_POINT('',(11.462957385106,0.6,-1.));
#563 = VECTOR('',#564,1.);
#564 = DIRECTION('',(0.,0.,1.));
#565 = FACE_BOUND('',#566,.F.);
#566 = EDGE_LOOP('',(#567));
#567 = ORIENTED_EDGE('',*,*,#568,.F.);
#568 = EDGE_CURVE('',#569,#569,#571,.T.);
#569 = VERTEX_POINT('',#570);
#570 = CARTESIAN_POINT('',(8.,0.6,9.65));
#571 = CIRCLE('',#572,1.65);
#572 = AXIS2_PLACEMENT_3D('',#573,#574,#575);
#573 = CARTESIAN_POINT('',(8.,0.6,8.));
#574 = DIRECTION('',(0.,1.,0.));
#575 = DIRECTION('',(0.,0.,1.));
#576 = PLANE('',#577);
#577 = AXIS2_PLACEMENT_3D('',#578,#579,#580);
#578 = CARTESIAN_POINT('',(0.,0.6,0.));
#579 = DIRECTION('',(0.,1.,0.));
#580 = DIRECTION('',(0.,0.,1.));
#581 = ADVANCED_FACE('',(#582),#593,.F.);
#582 = FACE_BOUND('',#583,.F.);
#583 = EDGE_LOOP('',(#584,#585,#591,#592));
#584 = ORIENTED_EDGE('',*,*,#124,.F.);
#585 = ORIENTED_EDGE('',*,*,#586,.F.);
#586 = EDGE_CURVE('',#212,#125,#587,.T.);
#587 = LINE('',#588,#589);
#588 = CARTESIAN_POINT('',(1.65,13.,-1.));
#589 = VECTOR('',#590,1.);
#590 = DIRECTION('',(0.,0.,1.));
#591 = ORIENTED_EDGE('',*,*,#211,.T.);
#592 = ORIENTED_EDGE('',*,*,#586,.T.);
#593 = CYLINDRICAL_SURFACE('',#594,1.65);
#594 = AXIS2_PLACEMENT_3D('',#595,#596,#597);
#595 = CARTESIAN_POINT('',(8.E-16,13.,-1.));
#596 = DIRECTION('',(0.,0.,1.));
#597 = DIRECTION('',(1.,0.,0.));
#598 = ADVANCED_FACE('',(#599),#611,.F.);
#599 = FACE_BOUND('',#600,.F.);
#600 = EDGE_LOOP('',(#601,#608,#609,#610));
#601 = ORIENTED_EDGE('',*,*,#602,.F.);
#602 = EDGE_CURVE('',#545,#502,#603,.T.);
#603 = CIRCLE('',#604,2.5);
#604 = AXIS2_PLACEMENT_3D('',#605,#606,#607);
#605 = CARTESIAN_POINT('',(0.,0.,12.));
#606 = DIRECTION('',(0.,0.,1.));
#607 = DIRECTION('',(1.,0.,0.));
#608 = ORIENTED_EDGE('',*,*,#544,.F.);
#609 = ORIENTED_EDGE('',*,*,#144,.T.);
#610 = ORIENTED_EDGE('',*,*,#501,.T.);
#611 = CYLINDRICAL_SURFACE('',#612,2.5);
#612 = AXIS2_PLACEMENT_3D('',#613,#614,#615);
#613 = CARTESIAN_POINT('',(0.,0.,-1.));
#614 = DIRECTION('',(0.,0.,1.));
#615 = DIRECTION('',(1.,0.,0.));
#616 = ADVANCED_FACE('',(#617),#623,.T.);
#617 = FACE_BOUND('',#618,.T.);
#618 = EDGE_LOOP('',(#619,#620,#621,#622));
#619 = ORIENTED_EDGE('',*,*,#552,.F.);
#620 = ORIENTED_EDGE('',*,*,#279,.T.);
#621 = ORIENTED_EDGE('',*,*,#509,.T.);
#622 = ORIENTED_EDGE('',*,*,#602,.F.);
#623 = PLANE('',#624);
#624 = AXIS2_PLACEMENT_3D('',#625,#626,#627);
#625 = CARTESIAN_POINT('',(0.,0.,12.));
#626 = DIRECTION('',(0.,0.,1.));
#627 = DIRECTION('',(1.,0.,0.));
#628 = ADVANCED_FACE('',(#629,#648),#659,.T.);
#629 = FACE_BOUND('',#630,.T.);
#630 = EDGE_LOOP('',(#631,#640,#647));
#631 = ORIENTED_EDGE('',*,*,#632,.T.);
#632 = EDGE_CURVE('',#316,#633,#635,.T.);
#633 = VERTEX_POINT('',#634);
#634 = CARTESIAN_POINT('',(8.,4.982188195562,10.5));
#635 = CIRCLE('',#636,2.5);
#636 = AXIS2_PLACEMENT_3D('',#637,#638,#639);
#637 = CARTESIAN_POINT('',(8.,4.982188195562,8.));
#638 = DIRECTION('',(0.,1.,0.));
#639 = DIRECTION('',(0.,0.,1.));
#640 = ORIENTED_EDGE('',*,*,#641,.T.);
#641 = EDGE_CURVE('',#633,#344,#642,.T.);
#642 = CIRCLE('',#643,2.5);
#643 = AXIS2_PLACEMENT_3D('',#644,#645,#646);
#644 = CARTESIAN_POINT('',(8.,4.982188195562,8.));
#645 = DIRECTION('',(0.,1.,0.));
#646 = DIRECTION('',(0.,0.,1.));
#647 = ORIENTED_EDGE('',*,*,#343,.F.);
#648 = FACE_BOUND('',#649,.T.);
#649 = EDGE_LOOP('',(#650));
#650 = ORIENTED_EDGE('',*,*,#651,.F.);
#651 = EDGE_CURVE('',#652,#652,#654,.T.);
#652 = VERTEX_POINT('',#653);
#653 = CARTESIAN_POINT('',(8.,4.982188195562,9.65));
#654 = CIRCLE('',#655,1.65);
#655 = AXIS2_PLACEMENT_3D('',#656,#657,#658);
#656 = CARTESIAN_POINT('',(8.,4.982188195562,8.));
#657 = DIRECTION('',(0.,1.,0.));
#658 = DIRECTION('',(0.,0.,1.));
#659 = PLANE('',#660);
#660 = AXIS2_PLACEMENT_3D('',#661,#662,#663);
#661 = CARTESIAN_POINT('',(8.,4.982188195562,8.));
#662 = DIRECTION('',(0.,1.,0.));
#663 = DIRECTION('',(0.,0.,1.));
#664 = ADVANCED_FACE('',(#665),#675,.F.);
#665 = FACE_BOUND('',#666,.F.);
#666 = EDGE_LOOP('',(#667,#668));
#667 = ORIENTED_EDGE('',*,*,#307,.F.);
#668 = ORIENTED_EDGE('',*,*,#669,.T.);
#669 = EDGE_CURVE('',#308,#289,#670,.T.);
#670 = CIRCLE('',#671,2.5);
#671 = AXIS2_PLACEMENT_3D('',#672,#673,#674);
#672 = CARTESIAN_POINT('',(8.,9.002188195562,8.));
#673 = DIRECTION('',(0.,1.,0.));
#674 = DIRECTION('',(0.,0.,1.));
#675 = PLANE('',#676);
#676 = AXIS2_PLACEMENT_3D('',#677,#678,#679);
#677 = CARTESIAN_POINT('',(8.,9.002188195562,8.));
#678 = DIRECTION('',(0.,1.,0.));
#679 = DIRECTION('',(0.,0.,1.));
#680 = ADVANCED_FACE('',(#681),#692,.F.);
#681 = FACE_BOUND('',#682,.F.);
#682 = EDGE_LOOP('',(#683,#684,#690,#691));
#683 = ORIENTED_EDGE('',*,*,#526,.F.);
#684 = ORIENTED_EDGE('',*,*,#685,.F.);
#685 = EDGE_CURVE('',#373,#527,#686,.T.);
#686 = LINE('',#687,#688);
#687 = CARTESIAN_POINT('',(8.,-12.,9.65));
#688 = VECTOR('',#689,1.);
#689 = DIRECTION('',(0.,1.,0.));
#690 = ORIENTED_EDGE('',*,*,#372,.T.);
#691 = ORIENTED_EDGE('',*,*,#685,.T.);
#692 = CYLINDRICAL_SURFACE('',#693,1.65);
#693 = AXIS2_PLACEMENT_3D('',#694,#695,#696);
#694 = CARTESIAN_POINT('',(8.,-12.,8.));
#695 = DIRECTION('',(0.,1.,0.));
#696 = DIRECTION('',(0.,0.,1.));
#697 = ADVANCED_FACE('',(#698),#709,.F.);
#698 = FACE_BOUND('',#699,.F.);
#699 = EDGE_LOOP('',(#700,#701,#707,#708));
#700 = ORIENTED_EDGE('',*,*,#651,.F.);
#701 = ORIENTED_EDGE('',*,*,#702,.F.);
#702 = EDGE_CURVE('',#569,#652,#703,.T.);
#703 = LINE('',#704,#705);
#704 = CARTESIAN_POINT('',(8.,-12.,9.65));
#705 = VECTOR('',#706,1.);
#706 = DIRECTION('',(0.,1.,0.));
#707 = ORIENTED_EDGE('',*,*,#568,.T.);
#708 = ORIENTED_EDGE('',*,*,#702,.T.);
#709 = CYLINDRICAL_SURFACE('',#710,1.65);
#710 = AXIS2_PLACEMENT_3D('',#711,#712,#713);
#711 = CARTESIAN_POINT('',(8.,-12.,8.));
#712 = DIRECTION('',(0.,1.,0.));
#713 = DIRECTION('',(0.,0.,1.));
#714 = ADVANCED_FACE('',(#715),#723,.F.);
#715 = FACE_BOUND('',#716,.F.);
#716 = EDGE_LOOP('',(#717,#718,#719,#720,#721,#722));
#717 = ORIENTED_EDGE('',*,*,#517,.F.);
#718 = ORIENTED_EDGE('',*,*,#172,.T.);
#719 = ORIENTED_EDGE('',*,*,#163,.T.);
#720 = ORIENTED_EDGE('',*,*,#560,.T.);
#721 = ORIENTED_EDGE('',*,*,#98,.F.);
#722 = ORIENTED_EDGE('',*,*,#107,.F.);
#723 = CYLINDRICAL_SURFACE('',#724,1.65);
#724 = AXIS2_PLACEMENT_3D('',#725,#726,#727);
#725 = CARTESIAN_POINT('',(13.,0.,-1.));
#726 = DIRECTION('',(0.,0.,1.));
#727 = DIRECTION('',(1.,0.,0.));
#728 = ADVANCED_FACE('',(#729),#737,.F.);
#729 = FACE_BOUND('',#730,.F.);
#730 = EDGE_LOOP('',(#731,#732,#733,#734,#735,#736));
#731 = ORIENTED_EDGE('',*,*,#351,.F.);
#732 = ORIENTED_EDGE('',*,*,#288,.F.);
#733 = ORIENTED_EDGE('',*,*,#669,.F.);
#734 = ORIENTED_EDGE('',*,*,#315,.F.);
#735 = ORIENTED_EDGE('',*,*,#632,.T.);
#736 = ORIENTED_EDGE('',*,*,#641,.T.);
#737 = CYLINDRICAL_SURFACE('',#738,2.5);
#738 = AXIS2_PLACEMENT_3D('',#739,#740,#741);
#739 = CARTESIAN_POINT('',(8.,4.982188195562,8.));
#740 = DIRECTION('',(0.,1.,0.));
#741 = DIRECTION('',(0.,0.,1.));
#742 = ( GEOMETRIC_REPRESENTATION_CONTEXT(3) 
GLOBAL_UNCERTAINTY_ASSIGNED_CONTEXT((#746)) GLOBAL_UNIT_ASSIGNED_CONTEXT
((#743,#744,#745)) REPRESENTATION_CONTEXT('Context #1',
  '3D Context with UNIT and UNCERTAINTY') );
#743 = ( LENGTH_UNIT() NAMED_UNIT(*) SI_UNIT(.MILLI.,.METRE.) );
#744 = ( NAMED_UNIT(*) PLANE_ANGLE_UNIT() SI_UNIT($,.RADIAN.) );
#745 = ( NAMED_UNIT(*) SI_UNIT($,.STERADIAN.) SOLID_ANGLE_UNIT() );
#746 = UNCERTAINTY_MEASURE_WITH_UNIT(LENGTH_MEASURE(1.E-07),#743,
  'distance_accuracy_value','confusion accuracy');
#747 = PRODUCT_RELATED_PRODUCT_CATEGORY('part',$,(#7));
ENDSEC;
END-ISO-10303-21;
