ISO-10303-21;
HEADER;
FILE_DESCRIPTION(('FreeCAD Model'),'2;1');
FILE_NAME('Open CASCADE Shape Model','2026-08-01T09:50:56',('FreeCAD'),(
    'FreeCAD'),'Open CASCADE STEP processor 7.8','FreeCAD','Unknown');
FILE_SCHEMA(('AUTOMOTIVE_DESIGN { 1 0 10303 214 1 1 1 1 }'));
ENDSEC;
DATA;
#1 = APPLICATION_PROTOCOL_DEFINITION('international standard',
  'automotive_design',2000,#2);
#2 = APPLICATION_CONTEXT(
  'core data for automotive mechanical design processes');
#3 = SHAPE_DEFINITION_REPRESENTATION(#4,#10);
#4 = PRODUCT_DEFINITION_SHAPE('','',#5);
#5 = PRODUCT_DEFINITION('design','',#6,#9);
#6 = PRODUCT_DEFINITION_FORMATION('','',#7);
#7 = PRODUCT('Open CASCADE STEP translator 7.8 164',
  'Open CASCADE STEP translator 7.8 164','',(#8));
#8 = PRODUCT_CONTEXT('',#2,'mechanical');
#9 = PRODUCT_DEFINITION_CONTEXT('part definition',#2,'design');
#10 = ADVANCED_BREP_SHAPE_REPRESENTATION('',(#11,#15),#1597);
#11 = AXIS2_PLACEMENT_3D('',#12,#13,#14);
#12 = CARTESIAN_POINT('',(0.,0.,0.));
#13 = DIRECTION('',(0.,0.,1.));
#14 = DIRECTION('',(1.,0.,-0.));
#15 = MANIFOLD_SOLID_BREP('',#16);
#16 = CLOSED_SHELL('',(#17,#397,#485,#542,#599,#640,#674,#690,#707,#718,
    #760,#858,#915,#1013,#1038,#1088,#1113,#1138,#1154,#1212,#1228,#1248
    ,#1264,#1280,#1304,#1338,#1358,#1378,#1428,#1453,#1478,#1520,#1546,
    #1571,#1583));
#17 = ADVANCED_FACE('',(#18,#54,#165),#392,.T.);
#18 = FACE_BOUND('',#19,.T.);
#19 = EDGE_LOOP('',(#20,#31,#39,#48));
#20 = ORIENTED_EDGE('',*,*,#21,.F.);
#21 = EDGE_CURVE('',#22,#24,#26,.T.);
#22 = VERTEX_POINT('',#23);
#23 = CARTESIAN_POINT('',(10.482843125794,0.6,8.));
#24 = VERTEX_POINT('',#25);
#25 = CARTESIAN_POINT('',(10.482843125794,-0.6,8.));
#26 = CIRCLE('',#27,10.5);
#27 = AXIS2_PLACEMENT_3D('',#28,#29,#30);
#28 = CARTESIAN_POINT('',(0.,0.,8.));
#29 = DIRECTION('',(0.,0.,1.));
#30 = DIRECTION('',(1.,0.,0.));
#31 = ORIENTED_EDGE('',*,*,#32,.F.);
#32 = EDGE_CURVE('',#33,#22,#35,.T.);
#33 = VERTEX_POINT('',#34);
#34 = CARTESIAN_POINT('',(10.482843125794,0.6,0.));
#35 = LINE('',#36,#37);
#36 = CARTESIAN_POINT('',(10.482843125794,0.6,0.));
#37 = VECTOR('',#38,1.);
#38 = DIRECTION('',(0.,0.,1.));
#39 = ORIENTED_EDGE('',*,*,#40,.T.);
#40 = EDGE_CURVE('',#33,#41,#43,.T.);
#41 = VERTEX_POINT('',#42);
#42 = CARTESIAN_POINT('',(10.482843125794,-0.6,0.));
#43 = CIRCLE('',#44,10.5);
#44 = AXIS2_PLACEMENT_3D('',#45,#46,#47);
#45 = CARTESIAN_POINT('',(0.,0.,0.));
#46 = DIRECTION('',(0.,0.,1.));
#47 = DIRECTION('',(1.,0.,0.));
#48 = ORIENTED_EDGE('',*,*,#49,.T.);
#49 = EDGE_CURVE('',#41,#24,#50,.T.);
#50 = LINE('',#51,#52);
#51 = CARTESIAN_POINT('',(10.482843125794,-0.6,0.));
#52 = VECTOR('',#53,1.);
#53 = DIRECTION('',(0.,0.,1.));
#54 = FACE_BOUND('',#55,.T.);
#55 = EDGE_LOOP('',(#56,#125,#133,#142,#150,#159));
#56 = ORIENTED_EDGE('',*,*,#57,.F.);
#57 = EDGE_CURVE('',#58,#60,#62,.T.);
#58 = VERTEX_POINT('',#59);
#59 = CARTESIAN_POINT('',(7.547184905645,7.3,6.439382847983));
#60 = VERTEX_POINT('',#61);
#61 = CARTESIAN_POINT('',(7.547184905645,7.3,1.560617152017));
#62 = B_SPLINE_CURVE_WITH_KNOTS('',7,(#63,#64,#65,#66,#67,#68,#69,#70,
    #71,#72,#73,#74,#75,#76,#77,#78,#79,#80,#81,#82,#83,#84,#85,#86,#87,
    #88,#89,#90,#91,#92,#93,#94,#95,#96,#97,#98,#99,#100,#101,#102,#103,
    #104,#105,#106,#107,#108,#109,#110,#111,#112,#113,#114,#115,#116,
    #117,#118,#119,#120,#121,#122,#123,#124),.UNSPECIFIED.,.F.,.F.,(8,6,
    6,6,6,6,6,6,6,6,8),(0.,0.175737971247,0.363222229183,0.41139424043,
    0.446414959079,0.499787161007,0.553326317635,0.58823180253,
    0.636386469327,0.824983930026,1.),.UNSPECIFIED.);
#63 = CARTESIAN_POINT('',(7.527787936439,7.3200006,6.443652981532));
#64 = CARTESIAN_POINT('',(7.697379545571,7.145594921763,6.40702404686));
#65 = CARTESIAN_POINT('',(7.859127165052,6.969823667661,6.357716682153)
  );
#66 = CARTESIAN_POINT('',(8.012880433157,6.793469721784,6.297254856794)
  );
#67 = CARTESIAN_POINT('',(8.158716674839,6.617176650757,6.226762730175)
  );
#68 = CARTESIAN_POINT('',(8.29677805762,6.441530158035,6.147030544743));
#69 = CARTESIAN_POINT('',(8.427168475502,6.267179794036,6.058558057935)
  );
#70 = CARTESIAN_POINT('',(8.680855873072,5.911313652933,5.85811067644));
#71 = CARTESIAN_POINT('',(8.802032166977,5.731590823027,5.745799534963)
  );
#72 = CARTESIAN_POINT('',(8.914879073697,5.555190176923,5.62428634884));
#73 = CARTESIAN_POINT('',(9.020024602386,5.382166293672,5.492481292007)
  );
#74 = CARTESIAN_POINT('',(9.116931000385,5.214223458842,5.349273001142)
  );
#75 = CARTESIAN_POINT('',(9.204250565715,5.055483298447,5.193847320851)
  );
#76 = CARTESIAN_POINT('',(9.299330135217,4.875877841755,4.982509541651)
  );
#77 = CARTESIAN_POINT('',(9.318041046708,4.840123240598,4.938367629161)
  );
#78 = CARTESIAN_POINT('',(9.335993070119,4.805434188117,4.893251024923)
  );
#79 = CARTESIAN_POINT('',(9.353145163436,4.771935387901,4.847128365102)
  );
#80 = CARTESIAN_POINT('',(9.369449216838,4.739770402028,4.79997061384));
#81 = CARTESIAN_POINT('',(9.384850052705,4.709101651065,4.751751063251)
  );
#82 = CARTESIAN_POINT('',(9.409779841769,4.659033985501,4.666600409216)
  );
#83 = CARTESIAN_POINT('',(9.419767264026,4.63883759738,4.630170296762));
#84 = CARTESIAN_POINT('',(9.429216740022,4.61960479519,4.593167090206));
#85 = CARTESIAN_POINT('',(9.43809825593,4.601419053986,4.555601904425));
#86 = CARTESIAN_POINT('',(9.446382375343,4.584363679114,4.51748486822));
#87 = CARTESIAN_POINT('',(9.454039878155,4.568521706943,4.478825117505)
  );
#88 = CARTESIAN_POINT('',(9.471711843198,4.531807591625,4.379897929695)
  );
#89 = CARTESIAN_POINT('',(9.480881376229,4.512601861209,4.318794822385)
  );
#90 = CARTESIAN_POINT('',(9.488388085146,4.49677274459,4.256604768503));
#91 = CARTESIAN_POINT('',(9.494114706769,4.484637995102,4.193586528176)
  );
#92 = CARTESIAN_POINT('',(9.497983299073,4.476419260594,4.129981111624)
  );
#93 = CARTESIAN_POINT('',(9.499949912127,4.472242354848,4.066018571065)
  );
#94 = CARTESIAN_POINT('',(9.500048760305,4.472032375256,3.937630521075)
  );
#95 = CARTESIAN_POINT('',(9.498168781289,4.476025228852,3.87345695244));
#96 = CARTESIAN_POINT('',(9.494373512593,4.484089219968,3.809632870373)
  );
#97 = CARTESIAN_POINT('',(9.488706274593,4.496100399887,3.746390855151)
  );
#98 = CARTESIAN_POINT('',(9.481244805808,4.511837608358,3.683974188128)
  );
#99 = CARTESIAN_POINT('',(9.472106551273,4.530982340942,3.622643756185)
  );
#100 = CARTESIAN_POINT('',(9.454508862414,4.567550622335,3.523594109066)
  );
#101 = CARTESIAN_POINT('',(9.446910769583,4.583273862896,3.485033098013)
  );
#102 = CARTESIAN_POINT('',(9.438688750621,4.60020650277,3.447010272583)
  );
#103 = CARTESIAN_POINT('',(9.42987177305,4.618266248209,3.409534991667)
  );
#104 = CARTESIAN_POINT('',(9.420489053129,4.637370445637,3.37261761664)
  );
#105 = CARTESIAN_POINT('',(9.410570415269,4.657436180282,3.336269504503)
  );
#106 = CARTESIAN_POINT('',(9.385766307621,4.707274421461,3.251160496173)
  );
#107 = CARTESIAN_POINT('',(9.370418509036,4.737852593987,3.202904111017)
  );
#108 = CARTESIAN_POINT('',(9.354165654533,4.769933190939,3.155709646399)
  );
#109 = CARTESIAN_POINT('',(9.3370631174,4.803353289134,3.109550604377));
#110 = CARTESIAN_POINT('',(9.319159245355,4.837968743656,3.064398188217)
  );
#111 = CARTESIAN_POINT('',(9.300495360554,4.873654187856,3.020221302393)
  );
#112 = CARTESIAN_POINT('',(9.205166504895,5.05383801466,2.807657916985)
  );
#113 = CARTESIAN_POINT('',(9.11738457346,5.213493252533,2.651197852224)
  );
#114 = CARTESIAN_POINT('',(9.019893954209,5.382477488655,2.507108569076)
  );
#115 = CARTESIAN_POINT('',(8.914071205703,5.556583461323,2.374564546977)
  );
#116 = CARTESIAN_POINT('',(8.800466320657,5.734081473173,2.252434247312)
  );
#117 = CARTESIAN_POINT('',(8.678433248089,5.914928201839,2.139607852451)
  );
#118 = CARTESIAN_POINT('',(8.424062557228,6.271330646123,1.939337952194)
  );
#119 = CARTESIAN_POINT('',(8.29403868676,6.445013764976,1.85138967017));
#120 = CARTESIAN_POINT('',(8.156402171386,6.619973646916,1.77211979545)
  );
#121 = CARTESIAN_POINT('',(8.011050071662,6.795568751895,1.702025942762)
  );
#122 = CARTESIAN_POINT('',(7.857842934488,6.971219145099,1.641891974141)
  );
#123 = CARTESIAN_POINT('',(7.696705878349,7.146287711868,1.592830452353)
  );
#124 = CARTESIAN_POINT('',(7.527787936439,7.3200006,1.556347018468));
#125 = ORIENTED_EDGE('',*,*,#126,.T.);
#126 = EDGE_CURVE('',#58,#127,#129,.T.);
#127 = VERTEX_POINT('',#128);
#128 = CARTESIAN_POINT('',(7.547184905645,7.3,6.9));
#129 = LINE('',#130,#131);
#130 = CARTESIAN_POINT('',(7.547184905645,7.3,0.));
#131 = VECTOR('',#132,1.);
#132 = DIRECTION('',(0.,0.,1.));
#133 = ORIENTED_EDGE('',*,*,#134,.T.);
#134 = EDGE_CURVE('',#127,#135,#137,.T.);
#135 = VERTEX_POINT('',#136);
#136 = CARTESIAN_POINT('',(3.8,9.788258272032,6.9));
#137 = CIRCLE('',#138,10.5);
#138 = AXIS2_PLACEMENT_3D('',#139,#140,#141);
#139 = CARTESIAN_POINT('',(0.,0.,6.9));
#140 = DIRECTION('',(0.,0.,1.));
#141 = DIRECTION('',(1.,0.,0.));
#142 = ORIENTED_EDGE('',*,*,#143,.F.);
#143 = EDGE_CURVE('',#144,#135,#146,.T.);
#144 = VERTEX_POINT('',#145);
#145 = CARTESIAN_POINT('',(3.8,9.788258272032,1.1));
#146 = LINE('',#147,#148);
#147 = CARTESIAN_POINT('',(3.8,9.788258272032,0.));
#148 = VECTOR('',#149,1.);
#149 = DIRECTION('',(0.,0.,1.));
#150 = ORIENTED_EDGE('',*,*,#151,.F.);
#151 = EDGE_CURVE('',#152,#144,#154,.T.);
#152 = VERTEX_POINT('',#153);
#153 = CARTESIAN_POINT('',(7.547184905645,7.3,1.1));
#154 = CIRCLE('',#155,10.5);
#155 = AXIS2_PLACEMENT_3D('',#156,#157,#158);
#156 = CARTESIAN_POINT('',(0.,0.,1.1));
#157 = DIRECTION('',(0.,0.,1.));
#158 = DIRECTION('',(1.,0.,0.));
#159 = ORIENTED_EDGE('',*,*,#160,.T.);
#160 = EDGE_CURVE('',#152,#60,#161,.T.);
#161 = LINE('',#162,#163);
#162 = CARTESIAN_POINT('',(7.547184905645,7.3,0.));
#163 = VECTOR('',#164,1.);
#164 = DIRECTION('',(0.,0.,1.));
#165 = FACE_BOUND('',#166,.T.);
#166 = EDGE_LOOP('',(#167,#177,#294,#302,#384));
#167 = ORIENTED_EDGE('',*,*,#168,.F.);
#168 = EDGE_CURVE('',#169,#171,#173,.T.);
#169 = VERTEX_POINT('',#170);
#170 = CARTESIAN_POINT('',(7.449161025927,-7.4,5.587688374059));
#171 = VERTEX_POINT('',#172);
#172 = CARTESIAN_POINT('',(7.449161026585,-7.4,7.168320433952));
#173 = LINE('',#174,#175);
#174 = CARTESIAN_POINT('',(7.449161026585,-7.4,0.));
#175 = VECTOR('',#176,1.);
#176 = DIRECTION('',(0.,0.,1.));
#177 = ORIENTED_EDGE('',*,*,#178,.T.);
#178 = EDGE_CURVE('',#169,#179,#181,.T.);
#179 = VERTEX_POINT('',#180);
#180 = CARTESIAN_POINT('',(7.449161028205,-7.4,2.412311624643));
#181 = B_SPLINE_CURVE_WITH_KNOTS('',6,(#182,#183,#184,#185,#186,#187,
    #188,#189,#190,#191,#192,#193,#194,#195,#196,#197,#198,#199,#200,
    #201,#202,#203,#204,#205,#206,#207,#208,#209,#210,#211,#212,#213,
    #214,#215,#216,#217,#218,#219,#220,#221,#222,#223,#224,#225,#226,
    #227,#228,#229,#230,#231,#232,#233,#234,#235,#236,#237,#238,#239,
    #240,#241,#242,#243,#244,#245,#246,#247,#248,#249,#250,#251,#252,
    #253,#254,#255,#256,#257,#258,#259,#260,#261,#262,#263,#264,#265,
    #266,#267,#268,#269,#270,#271,#272,#273,#274,#275,#276,#277,#278,
    #279,#280,#281,#282,#283,#284,#285,#286,#287,#288,#289,#290,#291,
    #292,#293),.UNSPECIFIED.,.T.,.F.,(7,5,5,5,5,5,5,5,5,5,5,5,5,5,5,5,5,
    5,5,5,5,5,7),(0.,9.176044844112E-02,0.153433163138,0.174893884499,
    0.203891999902,0.22628015836,0.238718789448,0.264135927069,
    0.301901612522,0.353099081614,0.436125281831,0.506834952794,
    0.573424028698,0.633574978555,0.673151059309,0.716138111819,
    0.764449339034,0.812352536438,0.83457765365,0.855907479131,
    0.894935521786,0.940273138761,1.),.UNSPECIFIED.);
#182 = CARTESIAN_POINT('',(7.,-7.826237921249,5.65));
#183 = CARTESIAN_POINT('',(7.152706029375,-7.689653496346,5.65));
#184 = CARTESIAN_POINT('',(7.301139668042,-7.550454314279,5.633040556952
    ));
#185 = CARTESIAN_POINT('',(7.443978387483,-7.409994016112,5.600901331846
    ));
#186 = CARTESIAN_POINT('',(7.580379712866,-7.269564272873,5.554950688252
    ));
#187 = CARTESIAN_POINT('',(7.70965370352,-7.13053125905,5.496213334823)
  );
#188 = CARTESIAN_POINT('',(7.912721503584,-6.903176956382,5.377812321078
    ));
#189 = CARTESIAN_POINT('',(7.990848852579,-6.813129788392,5.324743631813
    ));
#190 = CARTESIAN_POINT('',(8.065401894059,-6.724771653812,5.266321320802
    ));
#191 = CARTESIAN_POINT('',(8.136223026668,-6.638567883278,5.202562195419
    ));
#192 = CARTESIAN_POINT('',(8.203042986399,-6.555175451684,5.13342163679)
  );
#193 = CARTESIAN_POINT('',(8.287164310887,-6.447801761961,5.032885847407
    ));
#194 = CARTESIAN_POINT('',(8.30834931191,-6.420531188084,5.006269289857)
  );
#195 = CARTESIAN_POINT('',(8.328987554635,-6.393745292209,4.978984082951
    ));
#196 = CARTESIAN_POINT('',(8.349060174319,-6.367486020891,4.951025201463
    ));
#197 = CARTESIAN_POINT('',(8.368545458119,-6.341800307137,4.922387788954
    ));
#198 = CARTESIAN_POINT('',(8.412920907404,-6.282878224632,4.853448589856
    ));
#199 = CARTESIAN_POINT('',(8.437311734621,-6.250150288673,4.812573248384
    ));
#200 = CARTESIAN_POINT('',(8.460522317299,-6.218696048084,4.77044067058)
  );
#201 = CARTESIAN_POINT('',(8.482476645103,-6.188668971137,4.727052776221
    ));
#202 = CARTESIAN_POINT('',(8.503091706804,-6.160236208811,4.682413867639
    ));
#203 = CARTESIAN_POINT('',(8.537089982572,-6.112997433632,4.601106217239
    ));
#204 = CARTESIAN_POINT('',(8.551052150378,-6.093471647372,4.564935571646
    ));
#205 = CARTESIAN_POINT('',(8.564111359793,-6.075100459062,4.528048000112
    ));
#206 = CARTESIAN_POINT('',(8.576217087562,-6.057980088933,4.490473434787
    ));
#207 = CARTESIAN_POINT('',(8.587320921077,-6.042203754398,4.452242432801
    ));
#208 = CARTESIAN_POINT('',(8.602963367281,-6.019893355176,4.391798038871
    ));
#209 = CARTESIAN_POINT('',(8.60822536827,-6.012369430524,4.370021743137)
  );
#210 = CARTESIAN_POINT('',(8.613153755806,-6.005306515903,4.348066205744
    ));
#211 = CARTESIAN_POINT('',(8.617740136472,-5.998720402503,4.325941932713
    ));
#212 = CARTESIAN_POINT('',(8.621976528981,-5.992626052897,4.30366101939)
  );
#213 = CARTESIAN_POINT('',(8.633781388118,-5.975618141088,4.235416146613
    ));
#214 = CARTESIAN_POINT('',(8.640219203737,-5.966304022688,4.188971855171
    ));
#215 = CARTESIAN_POINT('',(8.645096190106,-5.959227160273,4.142056536431
    ));
#216 = CARTESIAN_POINT('',(8.648364580707,-5.954477097235,4.09482222358)
  );
#217 = CARTESIAN_POINT('',(8.65,-5.952100469582,4.047420120569));
#218 = CARTESIAN_POINT('',(8.65,-5.952100469582,3.92954150132));
#219 = CARTESIAN_POINT('',(8.646389289589,-5.957347148105,3.859199224409
    ));
#220 = CARTESIAN_POINT('',(8.639191343248,-5.967809565556,3.789406905427
    ));
#221 = CARTESIAN_POINT('',(8.628515121703,-5.983271870913,3.720606071114
    ));
#222 = CARTESIAN_POINT('',(8.614568764754,-6.003338343709,3.65324240453)
  );
#223 = CARTESIAN_POINT('',(8.574768738908,-6.060109992653,3.498993026523
    ));
#224 = CARTESIAN_POINT('',(8.546447028787,-6.100192591422,3.413693349496
    ));
#225 = CARTESIAN_POINT('',(8.513271009164,-6.146605851912,3.332042260766
    ));
#226 = CARTESIAN_POINT('',(8.475751836001,-6.198314754305,3.254194265365
    ));
#227 = CARTESIAN_POINT('',(8.434378576918,-6.254341826156,3.180279691167
    ));
#228 = CARTESIAN_POINT('',(8.317108600083,-6.410168274069,2.997090709296
    ));
#229 = CARTESIAN_POINT('',(8.235378051659,-6.516005388417,2.893836935027
    ));
#230 = CARTESIAN_POINT('',(8.145880119567,-6.628268650426,2.800473309969
    ));
#231 = CARTESIAN_POINT('',(8.049471849348,-6.745009429489,2.716756058886
    ));
#232 = CARTESIAN_POINT('',(7.946577466701,-6.865047521731,2.642583956435
    ));
#233 = CARTESIAN_POINT('',(7.744206420265,-7.092025758206,2.523407598425
    ));
#234 = CARTESIAN_POINT('',(7.646554344366,-7.198192322979,2.475748425489
    ));
#235 = CARTESIAN_POINT('',(7.544628157436,-7.305399879624,2.435526687434
    ));
#236 = CARTESIAN_POINT('',(7.438702694735,-7.413041234668,2.403145216727
    ));
#237 = CARTESIAN_POINT('',(7.329080489029,-7.520554151342,2.37914372472)
  );
#238 = CARTESIAN_POINT('',(7.109859727614,-7.727956839947,2.350172015297
    ));
#239 = CARTESIAN_POINT('',(7.000511191701,-7.828040453668,2.344158190583
    ));
#240 = CARTESIAN_POINT('',(6.888847879344,-7.926782592461,2.346850936562
    ));
#241 = CARTESIAN_POINT('',(6.775689348909,-8.023409295604,2.358855317907
    ));
#242 = CARTESIAN_POINT('',(6.661971326896,-8.117211110709,2.380712917197
    ));
#243 = CARTESIAN_POINT('',(6.446485520252,-8.289146047047,2.441979997791
    ));
#244 = CARTESIAN_POINT('',(6.344675504078,-8.367876997262,2.479474084805
    ));
#245 = CARTESIAN_POINT('',(6.244551198492,-8.442914166969,2.525596811769
    ));
#246 = CARTESIAN_POINT('',(6.147347162154,-8.513607460135,2.580292853061
    ));
#247 = CARTESIAN_POINT('',(6.054262710903,-8.579470085797,2.643242838726
    ));
#248 = CARTESIAN_POINT('',(5.90857275802,-8.680075151926,2.760327374161)
  );
#249 = CARTESIAN_POINT('',(5.85305366658,-8.717727778474,2.810078867522)
  );
#250 = CARTESIAN_POINT('',(5.800133850537,-8.753016312548,2.862944019766
    ));
#251 = CARTESIAN_POINT('',(5.750091553948,-8.785875470537,2.918704634902
    ));
#252 = CARTESIAN_POINT('',(5.703173244405,-8.816262973246,2.977098552691
    ));
#253 = CARTESIAN_POINT('',(5.612241581475,-8.874452309364,3.103775618981
    ));
#254 = CARTESIAN_POINT('',(5.568830618221,-8.901803293342,3.172472457265
    ));
#255 = CARTESIAN_POINT('',(5.529558179498,-8.926217623267,3.243598930954
    ));
#256 = CARTESIAN_POINT('',(5.494595686256,-8.947713352573,3.316819575241
    ));
#257 = CARTESIAN_POINT('',(5.464075697854,-8.966314725815,3.391776523254
    ));
#258 = CARTESIAN_POINT('',(5.408879322338,-8.999732788531,3.553856655477
    ));
#259 = CARTESIAN_POINT('',(5.385387345873,-9.013799961664,3.641358698736
    ));
#260 = CARTESIAN_POINT('',(5.367706698959,-9.024308828439,3.730162574));
#261 = CARTESIAN_POINT('',(5.355900852784,-9.0312995867,3.819831103242)
  );
#262 = CARTESIAN_POINT('',(5.35,-9.03479385487,3.909924375365));
#263 = CARTESIAN_POINT('',(5.35,-9.03479385487,4.089314858614));
#264 = CARTESIAN_POINT('',(5.355801596438,-9.031358364435,4.178646657746
    ));
#265 = CARTESIAN_POINT('',(5.367408732951,-9.024485265785,4.267564409508
    ));
#266 = CARTESIAN_POINT('',(5.384792272987,-9.014153642441,4.355639480736
    ));
#267 = CARTESIAN_POINT('',(5.407890995819,-9.000324553443,4.442445830407
    ));
#268 = CARTESIAN_POINT('',(5.449938234457,-8.974876927046,4.567049842504
    ));
#269 = CARTESIAN_POINT('',(5.464472339365,-8.966048290874,4.606170017808
    ));
#270 = CARTESIAN_POINT('',(5.48020426253,-8.956451087661,4.644875100877)
  );
#271 = CARTESIAN_POINT('',(5.497120129512,-8.946081005013,4.683118596247
    ));
#272 = CARTESIAN_POINT('',(5.515202836187,-8.934934229555,4.720853185075
    ));
#273 = CARTESIAN_POINT('',(5.552886653242,-8.911561109442,4.793710646819
    ));
#274 = CARTESIAN_POINT('',(5.572397070579,-8.899396547532,4.828877673859
    ));
#275 = CARTESIAN_POINT('',(5.592945166017,-8.886510867579,4.863488934699
    ));
#276 = CARTESIAN_POINT('',(5.614509093538,-8.87290264928,4.897501673018)
  );
#277 = CARTESIAN_POINT('',(5.637063295848,-8.858571945646,4.930873247737
    ));
#278 = CARTESIAN_POINT('',(5.703605230606,-8.815979648294,5.023371476154
    ));
#279 = CARTESIAN_POINT('',(5.749864852319,-8.786015549747,5.080915024487
    ));
#280 = CARTESIAN_POINT('',(5.799158994412,-8.753650307389,5.135900150838
    ));
#281 = CARTESIAN_POINT('',(5.851252009352,-8.718924245152,5.188075953021
    ));
#282 = CARTESIAN_POINT('',(5.905878272461,-8.681899312708,5.237232912139
    ));
#283 = CARTESIAN_POINT('',(6.028814919436,-8.597082809704,5.336606157529
    ));
#284 = CARTESIAN_POINT('',(6.097877785397,-8.548540534432,5.385682971652
    ));
#285 = CARTESIAN_POINT('',(6.169462970753,-8.497189895417,5.430166302135
    ));
#286 = CARTESIAN_POINT('',(6.243058350956,-8.443231598174,5.469879288548
    ));
#287 = CARTESIAN_POINT('',(6.318129538088,-8.386919627997,5.50473576036)
  );
#288 = CARTESIAN_POINT('',(6.494262221394,-8.251696368363,5.574267202361
    ));
#289 = CARTESIAN_POINT('',(6.595898462208,-8.171371057873,5.605329315362
    ));
#290 = CARTESIAN_POINT('',(6.698122559629,-8.088072189605,5.62810133133)
  );
#291 = CARTESIAN_POINT('',(6.800070379566,-8.002352479584,5.642863334279
    ));
#292 = CARTESIAN_POINT('',(6.900940457229,-7.914839469832,5.65));
#293 = CARTESIAN_POINT('',(7.,-7.826237921249,5.65));
#294 = ORIENTED_EDGE('',*,*,#295,.F.);
#295 = EDGE_CURVE('',#296,#179,#298,.T.);
#296 = VERTEX_POINT('',#297);
#297 = CARTESIAN_POINT('',(7.449161026585,-7.4,0.831679566048));
#298 = LINE('',#299,#300);
#299 = CARTESIAN_POINT('',(7.449161026585,-7.4,0.));
#300 = VECTOR('',#301,1.);
#301 = DIRECTION('',(0.,0.,1.));
#302 = ORIENTED_EDGE('',*,*,#303,.T.);
#303 = EDGE_CURVE('',#296,#304,#306,.T.);
#304 = VERTEX_POINT('',#305);
#305 = CARTESIAN_POINT('',(7.,-7.826237921249,7.2));
#306 = B_SPLINE_CURVE_WITH_KNOTS('',6,(#307,#308,#309,#310,#311,#312,
    #313,#314,#315,#316,#317,#318,#319,#320,#321,#322,#323,#324,#325,
    #326,#327,#328,#329,#330,#331,#332,#333,#334,#335,#336,#337,#338,
    #339,#340,#341,#342,#343,#344,#345,#346,#347,#348,#349,#350,#351,
    #352,#353,#354,#355,#356,#357,#358,#359,#360,#361,#362,#363,#364,
    #365,#366,#367,#368,#369,#370,#371,#372,#373,#374,#375,#376,#377,
    #378,#379,#380,#381,#382,#383),.UNSPECIFIED.,.F.,.F.,(7,5,5,5,5,5,5,
    5,5,5,5,5,5,5,5,7),(0.,9.242161723079E-02,0.135437775292,
    0.220050204757,0.302592843148,0.3491084668,0.40155297189,
    0.438447421225,0.525151749761,0.648813082278,0.702602792752,
    0.748677923117,0.830718026436,0.902988270082,0.937029903308,1.),
  .UNSPECIFIED.);
#307 = CARTESIAN_POINT('',(7.449161622626,-7.3999994,0.831679650547));
#308 = CARTESIAN_POINT('',(7.318749259076,-7.531278163843,0.813191548852
    ));
#309 = CARTESIAN_POINT('',(7.184069046486,-7.661300345684,0.800669273835
    ));
#310 = CARTESIAN_POINT('',(7.045354743006,-7.789593010468,0.794780424889
    ));
#311 = CARTESIAN_POINT('',(6.902910575572,-7.915690762985,0.796220308385
    ));
#312 = CARTESIAN_POINT('',(6.757126374667,-8.039143393349,0.805717595692
    ));
#313 = CARTESIAN_POINT('',(6.539313555505,-8.215552521088,0.832567841366
    ));
#314 = CARTESIAN_POINT('',(6.469541747839,-8.270895951375,0.843004457805
    ));
#315 = CARTESIAN_POINT('',(6.399268265735,-8.325478864709,0.855419835996
    ));
#316 = CARTESIAN_POINT('',(6.328587527215,-8.379232801601,0.869878536814
    ));
#317 = CARTESIAN_POINT('',(6.257597388674,-8.432095791712,0.886439676501
    ));
#318 = CARTESIAN_POINT('',(6.046352784317,-8.586131805009,0.941973603964
    ));
#319 = CARTESIAN_POINT('',(5.905382290923,-8.684676449594,0.987163529456
    ));
#320 = CARTESIAN_POINT('',(5.764625614176,-8.778939298318,1.041064243999
    ));
#321 = CARTESIAN_POINT('',(5.625243491659,-8.868409641425,1.103798245584
    ));
#322 = CARTESIAN_POINT('',(5.488378540023,-8.952748389224,1.175263297701
    ));
#323 = CARTESIAN_POINT('',(5.225110063483,-9.108845568828,1.333028654342
    ));
#324 = CARTESIAN_POINT('',(5.098721960052,-9.180748688708,1.418809936812
    ));
#325 = CARTESIAN_POINT('',(4.976901758672,-9.247341276825,1.51213041645)
  );
#326 = CARTESIAN_POINT('',(4.860542673004,-9.30861318304,1.612459808557)
  );
#327 = CARTESIAN_POINT('',(4.750435722001,-9.364646692004,1.719068860727
    ));
#328 = CARTESIAN_POINT('',(4.589063831542,-9.444294578365,1.894115365966
    ));
#329 = CARTESIAN_POINT('',(4.53306343286,-9.471398145652,1.958934831348)
  );
#330 = CARTESIAN_POINT('',(4.479298997274,-9.496944510769,2.025368388473
    ));
#331 = CARTESIAN_POINT('',(4.42783565364,-9.520979888166,2.093294520612)
  );
#332 = CARTESIAN_POINT('',(4.378729510872,-9.543550510464,2.162584703172
    ));
#333 = CARTESIAN_POINT('',(4.279373186801,-9.588550795427,2.312610417854
    ));
#334 = CARTESIAN_POINT('',(4.229772570332,-9.6105965797,2.39368231151));
#335 = CARTESIAN_POINT('',(4.183263192518,-9.630919055499,2.476170048588
    ));
#336 = CARTESIAN_POINT('',(4.139874237313,-9.649590982805,2.559924341559
    ));
#337 = CARTESIAN_POINT('',(4.099626688644,-9.666678807352,2.64479565145)
  );
#338 = CARTESIAN_POINT('',(4.036438336796,-9.693191754246,2.791021172636
    ));
#339 = CARTESIAN_POINT('',(4.01190140956,-9.70338786193,2.851893941543)
  );
#340 = CARTESIAN_POINT('',(3.988924526361,-9.712852850905,2.913206926583
    ));
#341 = CARTESIAN_POINT('',(3.96750839505,-9.72160669769,2.974916975093)
  );
#342 = CARTESIAN_POINT('',(3.947652453676,-9.729667488098,3.036983349725
    ));
#343 = CARTESIAN_POINT('',(3.886354373304,-9.75440412554,3.245975030223)
  );
#344 = CARTESIAN_POINT('',(3.851968736495,-9.768015468757,3.394311457063
    ));
#345 = CARTESIAN_POINT('',(3.826162509868,-9.778100378718,3.543917886102
    ));
#346 = CARTESIAN_POINT('',(3.808908255488,-9.784800017585,3.694353686679
    ));
#347 = CARTESIAN_POINT('',(3.800189294647,-9.788184783964,3.84519554746)
  );
#348 = CARTESIAN_POINT('',(3.799735976077,-9.78836077154,4.211171686268)
  );
#349 = CARTESIAN_POINT('',(3.816825616715,-9.781726219387,4.426398285352
    ));
#350 = CARTESIAN_POINT('',(3.851294145171,-9.768347217101,4.64047725462)
  );
#351 = CARTESIAN_POINT('',(3.903203417548,-9.747936809063,4.852145771711
    ));
#352 = CARTESIAN_POINT('',(3.972637451313,-9.719930761347,5.060049785419
    ));
#353 = CARTESIAN_POINT('',(4.097501444278,-9.667583269392,5.350815696012
    ));
#354 = CARTESIAN_POINT('',(4.138671977648,-9.650114404179,5.437943641042
    ));
#355 = CARTESIAN_POINT('',(4.183150249226,-9.630979793799,5.523899519394
    ));
#356 = CARTESIAN_POINT('',(4.230913674461,-9.61010777126,5.608521796407)
  );
#357 = CARTESIAN_POINT('',(4.281930577897,-9.587419675631,5.691649222192
    ));
#358 = CARTESIAN_POINT('',(4.382612136701,-9.54176672831,5.842907692215)
  );
#359 = CARTESIAN_POINT('',(4.431422623842,-9.519307912464,5.911481276343
    ));
#360 = CARTESIAN_POINT('',(4.482545249021,-9.495408443647,5.978709562117
    ));
#361 = CARTESIAN_POINT('',(4.535924868857,-9.470023433874,6.044467356584
    ));
#362 = CARTESIAN_POINT('',(4.591497602153,-9.44310806803,6.108636295731)
  );
#363 = CARTESIAN_POINT('',(4.751917796213,-9.363888271058,6.282334615379
    ));
#364 = CARTESIAN_POINT('',(4.861455778943,-9.308122394236,6.388267900861
    ));
#365 = CARTESIAN_POINT('',(4.977169221409,-9.247177252256,6.487989116093
    ));
#366 = CARTESIAN_POINT('',(5.098280220799,-9.18097240407,6.580781928741)
  );
#367 = CARTESIAN_POINT('',(5.223910989042,-9.109517794717,6.666124536074
    ));
#368 = CARTESIAN_POINT('',(5.466953851887,-8.965485079304,6.812008959365
    ));
#369 = CARTESIAN_POINT('',(5.583443485356,-8.894125049087,6.874222296562
    ));
#370 = CARTESIAN_POINT('',(5.701906623926,-8.818987042103,6.930099539444
    ));
#371 = CARTESIAN_POINT('',(5.821619842589,-8.740277309457,6.979545818344
    ));
#372 = CARTESIAN_POINT('',(5.941845219337,-8.658295224068,7.022592256206
    ));
#373 = CARTESIAN_POINT('',(6.118377141339,-8.533478409192,7.076725017029
    ));
#374 = CARTESIAN_POINT('',(6.174867267781,-8.492866324944,7.092676321355
    ));
#375 = CARTESIAN_POINT('',(6.231263012316,-8.45163763059,7.107265852855)
  );
#376 = CARTESIAN_POINT('',(6.28750735373,-8.40982403255,7.120517307136)
  );
#377 = CARTESIAN_POINT('',(6.343544289611,-8.367460483168,7.132457552189
    ));
#378 = CARTESIAN_POINT('',(6.502490402112,-8.245274592866,7.162833751072
    ));
#379 = CARTESIAN_POINT('',(6.60472812839,-8.164240484564,7.178160223665)
  );
#380 = CARTESIAN_POINT('',(6.705800643013,-8.081639641156,7.18931328521)
  );
#381 = CARTESIAN_POINT('',(6.805495694126,-7.997644405825,7.196516548485
    ));
#382 = CARTESIAN_POINT('',(6.903620150195,-7.912442679579,7.2));
#383 = CARTESIAN_POINT('',(7.,-7.826237921249,7.2));
#384 = ORIENTED_EDGE('',*,*,#385,.T.);
#385 = EDGE_CURVE('',#304,#171,#386,.T.);
#386 = B_SPLINE_CURVE_WITH_KNOTS('',4,(#387,#388,#389,#390,#391),
  .UNSPECIFIED.,.F.,.F.,(5,5),(0.,1.),.PIECEWISE_BEZIER_KNOTS.);
#387 = CARTESIAN_POINT('',(7.,-7.826237921249,7.2));
#388 = CARTESIAN_POINT('',(7.116689590834,-7.7218675783,7.2));
#389 = CARTESIAN_POINT('',(7.230586477777,-7.615818867718,7.194326659638
    ));
#390 = CARTESIAN_POINT('',(7.341453502817,-7.508423083457,7.183589750438
    ));
#391 = CARTESIAN_POINT('',(7.449161622626,-7.3999994,7.168320349453));
#392 = CYLINDRICAL_SURFACE('',#393,10.5);
#393 = AXIS2_PLACEMENT_3D('',#394,#395,#396);
#394 = CARTESIAN_POINT('',(0.,0.,0.));
#395 = DIRECTION('',(0.,0.,1.));
#396 = DIRECTION('',(1.,0.,0.));
#397 = ADVANCED_FACE('',(#398,#458,#469),#480,.T.);
#398 = FACE_BOUND('',#399,.T.);
#399 = EDGE_LOOP('',(#400,#408,#409,#417,#426,#434,#443,#451));
#400 = ORIENTED_EDGE('',*,*,#401,.F.);
#401 = EDGE_CURVE('',#22,#402,#404,.T.);
#402 = VERTEX_POINT('',#403);
#403 = CARTESIAN_POINT('',(9.426932219902,0.6,8.));
#404 = LINE('',#405,#406);
#405 = CARTESIAN_POINT('',(1.,0.6,8.));
#406 = VECTOR('',#407,1.);
#407 = DIRECTION('',(-1.,0.,0.));
#408 = ORIENTED_EDGE('',*,*,#21,.T.);
#409 = ORIENTED_EDGE('',*,*,#410,.T.);
#410 = EDGE_CURVE('',#24,#411,#413,.T.);
#411 = VERTEX_POINT('',#412);
#412 = CARTESIAN_POINT('',(9.426932219902,-0.6,8.));
#413 = LINE('',#414,#415);
#414 = CARTESIAN_POINT('',(1.,-0.6,8.));
#415 = VECTOR('',#416,1.);
#416 = DIRECTION('',(-1.,0.,0.));
#417 = ORIENTED_EDGE('',*,*,#418,.F.);
#418 = EDGE_CURVE('',#419,#411,#421,.T.);
#419 = VERTEX_POINT('',#420);
#420 = CARTESIAN_POINT('',(4.573067780098,-0.6,8.));
#421 = CIRCLE('',#422,2.5);
#422 = AXIS2_PLACEMENT_3D('',#423,#424,#425);
#423 = CARTESIAN_POINT('',(7.,0.,8.));
#424 = DIRECTION('',(0.,0.,1.));
#425 = DIRECTION('',(1.,0.,0.));
#426 = ORIENTED_EDGE('',*,*,#427,.T.);
#427 = EDGE_CURVE('',#419,#428,#430,.T.);
#428 = VERTEX_POINT('',#429);
#429 = CARTESIAN_POINT('',(2.323790007724,-0.6,8.));
#430 = LINE('',#431,#432);
#431 = CARTESIAN_POINT('',(1.,-0.6,8.));
#432 = VECTOR('',#433,1.);
#433 = DIRECTION('',(-1.,0.,0.));
#434 = ORIENTED_EDGE('',*,*,#435,.F.);
#435 = EDGE_CURVE('',#436,#428,#438,.T.);
#436 = VERTEX_POINT('',#437);
#437 = CARTESIAN_POINT('',(2.323790007724,0.6,8.));
#438 = CIRCLE('',#439,2.4);
#439 = AXIS2_PLACEMENT_3D('',#440,#441,#442);
#440 = CARTESIAN_POINT('',(0.,0.,8.));
#441 = DIRECTION('',(0.,0.,1.));
#442 = DIRECTION('',(1.,0.,0.));
#443 = ORIENTED_EDGE('',*,*,#444,.F.);
#444 = EDGE_CURVE('',#445,#436,#447,.T.);
#445 = VERTEX_POINT('',#446);
#446 = CARTESIAN_POINT('',(4.573067780098,0.6,8.));
#447 = LINE('',#448,#449);
#448 = CARTESIAN_POINT('',(1.,0.6,8.));
#449 = VECTOR('',#450,1.);
#450 = DIRECTION('',(-1.,0.,0.));
#451 = ORIENTED_EDGE('',*,*,#452,.F.);
#452 = EDGE_CURVE('',#402,#445,#453,.T.);
#453 = CIRCLE('',#454,2.5);
#454 = AXIS2_PLACEMENT_3D('',#455,#456,#457);
#455 = CARTESIAN_POINT('',(7.,0.,8.));
#456 = DIRECTION('',(0.,0.,1.));
#457 = DIRECTION('',(1.,0.,0.));
#458 = FACE_BOUND('',#459,.T.);
#459 = EDGE_LOOP('',(#460));
#460 = ORIENTED_EDGE('',*,*,#461,.F.);
#461 = EDGE_CURVE('',#462,#462,#464,.T.);
#462 = VERTEX_POINT('',#463);
#463 = CARTESIAN_POINT('',(-1.,-6.062177826491,8.));
#464 = CIRCLE('',#465,2.5);
#465 = AXIS2_PLACEMENT_3D('',#466,#467,#468);
#466 = CARTESIAN_POINT('',(-3.5,-6.062177826491,8.));
#467 = DIRECTION('',(0.,0.,1.));
#468 = DIRECTION('',(1.,0.,0.));
#469 = FACE_BOUND('',#470,.T.);
#470 = EDGE_LOOP('',(#471));
#471 = ORIENTED_EDGE('',*,*,#472,.F.);
#472 = EDGE_CURVE('',#473,#473,#475,.T.);
#473 = VERTEX_POINT('',#474);
#474 = CARTESIAN_POINT('',(-1.,6.062177826491,8.));
#475 = CIRCLE('',#476,2.5);
#476 = AXIS2_PLACEMENT_3D('',#477,#478,#479);
#477 = CARTESIAN_POINT('',(-3.5,6.062177826491,8.));
#478 = DIRECTION('',(0.,0.,1.));
#479 = DIRECTION('',(1.,0.,0.));
#480 = PLANE('',#481);
#481 = AXIS2_PLACEMENT_3D('',#482,#483,#484);
#482 = CARTESIAN_POINT('',(0.,0.,8.));
#483 = DIRECTION('',(0.,0.,1.));
#484 = DIRECTION('',(1.,0.,0.));
#485 = ADVANCED_FACE('',(#486),#537,.F.);
#486 = FACE_BOUND('',#487,.F.);
#487 = EDGE_LOOP('',(#488,#489,#497,#505,#513,#522,#530,#536));
#488 = ORIENTED_EDGE('',*,*,#32,.F.);
#489 = ORIENTED_EDGE('',*,*,#490,.T.);
#490 = EDGE_CURVE('',#33,#491,#493,.T.);
#491 = VERTEX_POINT('',#492);
#492 = CARTESIAN_POINT('',(8.622621335987,0.6,0.));
#493 = LINE('',#494,#495);
#494 = CARTESIAN_POINT('',(1.,0.6,0.));
#495 = VECTOR('',#496,1.);
#496 = DIRECTION('',(-1.,0.,0.));
#497 = ORIENTED_EDGE('',*,*,#498,.T.);
#498 = EDGE_CURVE('',#491,#499,#501,.T.);
#499 = VERTEX_POINT('',#500);
#500 = CARTESIAN_POINT('',(8.622621335987,0.6,3.56125178063));
#501 = LINE('',#502,#503);
#502 = CARTESIAN_POINT('',(8.622621335987,0.6,0.));
#503 = VECTOR('',#504,1.);
#504 = DIRECTION('',(0.,0.,1.));
#505 = ORIENTED_EDGE('',*,*,#506,.F.);
#506 = EDGE_CURVE('',#507,#499,#509,.T.);
#507 = VERTEX_POINT('',#508);
#508 = CARTESIAN_POINT('',(8.590597372059,0.6,3.56125178063));
#509 = LINE('',#510,#511);
#510 = CARTESIAN_POINT('',(4.5,0.6,3.56125178063));
#511 = VECTOR('',#512,1.);
#512 = DIRECTION('',(1.,0.,0.));
#513 = ORIENTED_EDGE('',*,*,#514,.F.);
#514 = EDGE_CURVE('',#515,#507,#517,.T.);
#515 = VERTEX_POINT('',#516);
#516 = CARTESIAN_POINT('',(8.65,0.6,4.));
#517 = CIRCLE('',#518,1.65);
#518 = AXIS2_PLACEMENT_3D('',#519,#520,#521);
#519 = CARTESIAN_POINT('',(7.,0.6,4.));
#520 = DIRECTION('',(0.,1.,0.));
#521 = DIRECTION('',(0.,0.,1.));
#522 = ORIENTED_EDGE('',*,*,#523,.T.);
#523 = EDGE_CURVE('',#515,#524,#526,.T.);
#524 = VERTEX_POINT('',#525);
#525 = CARTESIAN_POINT('',(9.426932219902,0.6,4.));
#526 = LINE('',#527,#528);
#527 = CARTESIAN_POINT('',(4.5,0.6,4.));
#528 = VECTOR('',#529,1.);
#529 = DIRECTION('',(1.,0.,0.));
#530 = ORIENTED_EDGE('',*,*,#531,.T.);
#531 = EDGE_CURVE('',#524,#402,#532,.T.);
#532 = LINE('',#533,#534);
#533 = CARTESIAN_POINT('',(9.426932219902,0.6,4.));
#534 = VECTOR('',#535,1.);
#535 = DIRECTION('',(0.,0.,1.));
#536 = ORIENTED_EDGE('',*,*,#401,.F.);
#537 = PLANE('',#538);
#538 = AXIS2_PLACEMENT_3D('',#539,#540,#541);
#539 = CARTESIAN_POINT('',(2.,0.6,-1.));
#540 = DIRECTION('',(0.,1.,0.));
#541 = DIRECTION('',(0.,0.,1.));
#542 = ADVANCED_FACE('',(#543),#594,.T.);
#543 = FACE_BOUND('',#544,.T.);
#544 = EDGE_LOOP('',(#545,#546,#554,#562,#570,#579,#587,#593));
#545 = ORIENTED_EDGE('',*,*,#49,.F.);
#546 = ORIENTED_EDGE('',*,*,#547,.T.);
#547 = EDGE_CURVE('',#41,#548,#550,.T.);
#548 = VERTEX_POINT('',#549);
#549 = CARTESIAN_POINT('',(8.622621335987,-0.6,0.));
#550 = LINE('',#551,#552);
#551 = CARTESIAN_POINT('',(1.,-0.6,0.));
#552 = VECTOR('',#553,1.);
#553 = DIRECTION('',(-1.,0.,0.));
#554 = ORIENTED_EDGE('',*,*,#555,.T.);
#555 = EDGE_CURVE('',#548,#556,#558,.T.);
#556 = VERTEX_POINT('',#557);
#557 = CARTESIAN_POINT('',(8.622621335987,-0.6,3.56125178063));
#558 = LINE('',#559,#560);
#559 = CARTESIAN_POINT('',(8.622621335987,-0.6,0.));
#560 = VECTOR('',#561,1.);
#561 = DIRECTION('',(0.,0.,1.));
#562 = ORIENTED_EDGE('',*,*,#563,.F.);
#563 = EDGE_CURVE('',#564,#556,#566,.T.);
#564 = VERTEX_POINT('',#565);
#565 = CARTESIAN_POINT('',(8.590597372059,-0.6,3.56125178063));
#566 = LINE('',#567,#568);
#567 = CARTESIAN_POINT('',(4.5,-0.6,3.56125178063));
#568 = VECTOR('',#569,1.);
#569 = DIRECTION('',(1.,0.,0.));
#570 = ORIENTED_EDGE('',*,*,#571,.F.);
#571 = EDGE_CURVE('',#572,#564,#574,.T.);
#572 = VERTEX_POINT('',#573);
#573 = CARTESIAN_POINT('',(8.65,-0.6,4.));
#574 = CIRCLE('',#575,1.65);
#575 = AXIS2_PLACEMENT_3D('',#576,#577,#578);
#576 = CARTESIAN_POINT('',(7.,-0.6,4.));
#577 = DIRECTION('',(0.,1.,0.));
#578 = DIRECTION('',(0.,0.,1.));
#579 = ORIENTED_EDGE('',*,*,#580,.T.);
#580 = EDGE_CURVE('',#572,#581,#583,.T.);
#581 = VERTEX_POINT('',#582);
#582 = CARTESIAN_POINT('',(9.426932219902,-0.6,4.));
#583 = LINE('',#584,#585);
#584 = CARTESIAN_POINT('',(4.5,-0.6,4.));
#585 = VECTOR('',#586,1.);
#586 = DIRECTION('',(1.,0.,0.));
#587 = ORIENTED_EDGE('',*,*,#588,.T.);
#588 = EDGE_CURVE('',#581,#411,#589,.T.);
#589 = LINE('',#590,#591);
#590 = CARTESIAN_POINT('',(9.426932219902,-0.6,4.));
#591 = VECTOR('',#592,1.);
#592 = DIRECTION('',(0.,0.,1.));
#593 = ORIENTED_EDGE('',*,*,#410,.F.);
#594 = PLANE('',#595);
#595 = AXIS2_PLACEMENT_3D('',#596,#597,#598);
#596 = CARTESIAN_POINT('',(2.,-0.6,-1.));
#597 = DIRECTION('',(0.,1.,0.));
#598 = DIRECTION('',(0.,0.,1.));
#599 = ADVANCED_FACE('',(#600),#635,.F.);
#600 = FACE_BOUND('',#601,.F.);
#601 = EDGE_LOOP('',(#602,#611,#619,#626,#627,#634));
#602 = ORIENTED_EDGE('',*,*,#603,.F.);
#603 = EDGE_CURVE('',#604,#58,#606,.T.);
#604 = VERTEX_POINT('',#605);
#605 = CARTESIAN_POINT('',(7.,7.3,6.5));
#606 = CIRCLE('',#607,2.5);
#607 = AXIS2_PLACEMENT_3D('',#608,#609,#610);
#608 = CARTESIAN_POINT('',(7.,7.3,4.));
#609 = DIRECTION('',(0.,1.,0.));
#610 = DIRECTION('',(0.,0.,1.));
#611 = ORIENTED_EDGE('',*,*,#612,.F.);
#612 = EDGE_CURVE('',#613,#604,#615,.T.);
#613 = VERTEX_POINT('',#614);
#614 = CARTESIAN_POINT('',(7.,3.3,6.5));
#615 = LINE('',#616,#617);
#616 = CARTESIAN_POINT('',(7.,3.3,6.5));
#617 = VECTOR('',#618,1.);
#618 = DIRECTION('',(0.,1.,0.));
#619 = ORIENTED_EDGE('',*,*,#620,.T.);
#620 = EDGE_CURVE('',#613,#613,#621,.T.);
#621 = CIRCLE('',#622,2.5);
#622 = AXIS2_PLACEMENT_3D('',#623,#624,#625);
#623 = CARTESIAN_POINT('',(7.,3.3,4.));
#624 = DIRECTION('',(0.,1.,0.));
#625 = DIRECTION('',(0.,0.,1.));
#626 = ORIENTED_EDGE('',*,*,#612,.T.);
#627 = ORIENTED_EDGE('',*,*,#628,.F.);
#628 = EDGE_CURVE('',#60,#604,#629,.T.);
#629 = CIRCLE('',#630,2.5);
#630 = AXIS2_PLACEMENT_3D('',#631,#632,#633);
#631 = CARTESIAN_POINT('',(7.,7.3,4.));
#632 = DIRECTION('',(0.,1.,0.));
#633 = DIRECTION('',(0.,0.,1.));
#634 = ORIENTED_EDGE('',*,*,#57,.F.);
#635 = CYLINDRICAL_SURFACE('',#636,2.5);
#636 = AXIS2_PLACEMENT_3D('',#637,#638,#639);
#637 = CARTESIAN_POINT('',(7.,3.3,4.));
#638 = DIRECTION('',(0.,1.,0.));
#639 = DIRECTION('',(0.,0.,1.));
#640 = ADVANCED_FACE('',(#641),#669,.T.);
#641 = FACE_BOUND('',#642,.T.);
#642 = EDGE_LOOP('',(#643,#651,#659,#665,#666,#667,#668));
#643 = ORIENTED_EDGE('',*,*,#644,.F.);
#644 = EDGE_CURVE('',#645,#152,#647,.T.);
#645 = VERTEX_POINT('',#646);
#646 = CARTESIAN_POINT('',(3.8,7.3,1.1));
#647 = LINE('',#648,#649);
#648 = CARTESIAN_POINT('',(3.8,7.3,1.1));
#649 = VECTOR('',#650,1.);
#650 = DIRECTION('',(1.,0.,0.));
#651 = ORIENTED_EDGE('',*,*,#652,.T.);
#652 = EDGE_CURVE('',#645,#653,#655,.T.);
#653 = VERTEX_POINT('',#654);
#654 = CARTESIAN_POINT('',(3.8,7.3,6.9));
#655 = LINE('',#656,#657);
#656 = CARTESIAN_POINT('',(3.8,7.3,1.1));
#657 = VECTOR('',#658,1.);
#658 = DIRECTION('',(0.,0.,1.));
#659 = ORIENTED_EDGE('',*,*,#660,.T.);
#660 = EDGE_CURVE('',#653,#127,#661,.T.);
#661 = LINE('',#662,#663);
#662 = CARTESIAN_POINT('',(3.8,7.3,6.9));
#663 = VECTOR('',#664,1.);
#664 = DIRECTION('',(1.,0.,0.));
#665 = ORIENTED_EDGE('',*,*,#126,.F.);
#666 = ORIENTED_EDGE('',*,*,#603,.F.);
#667 = ORIENTED_EDGE('',*,*,#628,.F.);
#668 = ORIENTED_EDGE('',*,*,#160,.F.);
#669 = PLANE('',#670);
#670 = AXIS2_PLACEMENT_3D('',#671,#672,#673);
#671 = CARTESIAN_POINT('',(3.8,7.3,1.1));
#672 = DIRECTION('',(0.,1.,0.));
#673 = DIRECTION('',(0.,0.,1.));
#674 = ADVANCED_FACE('',(#675),#685,.T.);
#675 = FACE_BOUND('',#676,.T.);
#676 = EDGE_LOOP('',(#677,#683,#684));
#677 = ORIENTED_EDGE('',*,*,#678,.F.);
#678 = EDGE_CURVE('',#645,#144,#679,.T.);
#679 = LINE('',#680,#681);
#680 = CARTESIAN_POINT('',(3.8,7.3,1.1));
#681 = VECTOR('',#682,1.);
#682 = DIRECTION('',(0.,1.,0.));
#683 = ORIENTED_EDGE('',*,*,#644,.T.);
#684 = ORIENTED_EDGE('',*,*,#151,.T.);
#685 = PLANE('',#686);
#686 = AXIS2_PLACEMENT_3D('',#687,#688,#689);
#687 = CARTESIAN_POINT('',(3.8,7.3,1.1));
#688 = DIRECTION('',(0.,0.,1.));
#689 = DIRECTION('',(1.,0.,0.));
#690 = ADVANCED_FACE('',(#691),#702,.T.);
#691 = FACE_BOUND('',#692,.T.);
#692 = EDGE_LOOP('',(#693,#699,#700,#701));
#693 = ORIENTED_EDGE('',*,*,#694,.F.);
#694 = EDGE_CURVE('',#653,#135,#695,.T.);
#695 = LINE('',#696,#697);
#696 = CARTESIAN_POINT('',(3.8,7.3,6.9));
#697 = VECTOR('',#698,1.);
#698 = DIRECTION('',(0.,1.,0.));
#699 = ORIENTED_EDGE('',*,*,#652,.F.);
#700 = ORIENTED_EDGE('',*,*,#678,.T.);
#701 = ORIENTED_EDGE('',*,*,#143,.T.);
#702 = PLANE('',#703);
#703 = AXIS2_PLACEMENT_3D('',#704,#705,#706);
#704 = CARTESIAN_POINT('',(3.8,7.3,1.1));
#705 = DIRECTION('',(1.,0.,0.));
#706 = DIRECTION('',(0.,0.,1.));
#707 = ADVANCED_FACE('',(#708),#713,.F.);
#708 = FACE_BOUND('',#709,.F.);
#709 = EDGE_LOOP('',(#710,#711,#712));
#710 = ORIENTED_EDGE('',*,*,#694,.F.);
#711 = ORIENTED_EDGE('',*,*,#660,.T.);
#712 = ORIENTED_EDGE('',*,*,#134,.T.);
#713 = PLANE('',#714);
#714 = AXIS2_PLACEMENT_3D('',#715,#716,#717);
#715 = CARTESIAN_POINT('',(3.8,7.3,6.9));
#716 = DIRECTION('',(0.,0.,1.));
#717 = DIRECTION('',(1.,0.,0.));
#718 = ADVANCED_FACE('',(#719),#755,.F.);
#719 = FACE_BOUND('',#720,.F.);
#720 = EDGE_LOOP('',(#721,#730,#737,#738,#747,#754));
#721 = ORIENTED_EDGE('',*,*,#722,.T.);
#722 = EDGE_CURVE('',#296,#723,#725,.T.);
#723 = VERTEX_POINT('',#724);
#724 = CARTESIAN_POINT('',(7.,-7.4,7.2));
#725 = CIRCLE('',#726,3.2);
#726 = AXIS2_PLACEMENT_3D('',#727,#728,#729);
#727 = CARTESIAN_POINT('',(7.,-7.4,4.));
#728 = DIRECTION('',(0.,1.,0.));
#729 = DIRECTION('',(0.,0.,1.));
#730 = ORIENTED_EDGE('',*,*,#731,.T.);
#731 = EDGE_CURVE('',#723,#171,#732,.T.);
#732 = CIRCLE('',#733,3.2);
#733 = AXIS2_PLACEMENT_3D('',#734,#735,#736);
#734 = CARTESIAN_POINT('',(7.,-7.4,4.));
#735 = DIRECTION('',(0.,1.,0.));
#736 = DIRECTION('',(0.,0.,1.));
#737 = ORIENTED_EDGE('',*,*,#168,.F.);
#738 = ORIENTED_EDGE('',*,*,#739,.F.);
#739 = EDGE_CURVE('',#740,#169,#742,.T.);
#740 = VERTEX_POINT('',#741);
#741 = CARTESIAN_POINT('',(7.,-7.4,5.65));
#742 = CIRCLE('',#743,1.65);
#743 = AXIS2_PLACEMENT_3D('',#744,#745,#746);
#744 = CARTESIAN_POINT('',(7.,-7.4,4.));
#745 = DIRECTION('',(0.,1.,0.));
#746 = DIRECTION('',(0.,0.,1.));
#747 = ORIENTED_EDGE('',*,*,#748,.F.);
#748 = EDGE_CURVE('',#179,#740,#749,.T.);
#749 = CIRCLE('',#750,1.65);
#750 = AXIS2_PLACEMENT_3D('',#751,#752,#753);
#751 = CARTESIAN_POINT('',(7.,-7.4,4.));
#752 = DIRECTION('',(0.,1.,0.));
#753 = DIRECTION('',(0.,0.,1.));
#754 = ORIENTED_EDGE('',*,*,#295,.F.);
#755 = PLANE('',#756);
#756 = AXIS2_PLACEMENT_3D('',#757,#758,#759);
#757 = CARTESIAN_POINT('',(7.,-7.4,4.));
#758 = DIRECTION('',(0.,1.,0.));
#759 = DIRECTION('',(0.,0.,1.));
#760 = ADVANCED_FACE('',(#761),#853,.F.);
#761 = FACE_BOUND('',#762,.F.);
#762 = EDGE_LOOP('',(#763,#764,#773,#805,#837,#846,#852));
#763 = ORIENTED_EDGE('',*,*,#531,.F.);
#764 = ORIENTED_EDGE('',*,*,#765,.T.);
#765 = EDGE_CURVE('',#524,#766,#768,.T.);
#766 = VERTEX_POINT('',#767);
#767 = CARTESIAN_POINT('',(8.65,1.878163997099,4.));
#768 = CIRCLE('',#769,2.5);
#769 = AXIS2_PLACEMENT_3D('',#770,#771,#772);
#770 = CARTESIAN_POINT('',(7.,0.,4.));
#771 = DIRECTION('',(0.,0.,1.));
#772 = DIRECTION('',(1.,0.,0.));
#773 = ORIENTED_EDGE('',*,*,#774,.F.);
#774 = EDGE_CURVE('',#775,#766,#777,.T.);
#775 = VERTEX_POINT('',#776);
#776 = CARTESIAN_POINT('',(7.,2.5,5.65));
#777 = B_SPLINE_CURVE_WITH_KNOTS('',6,(#778,#779,#780,#781,#782,#783,
    #784,#785,#786,#787,#788,#789,#790,#791,#792,#793,#794,#795,#796,
    #797,#798,#799,#800,#801,#802,#803,#804),.UNSPECIFIED.,.F.,.F.,(7,5,
    5,5,5,7),(0.,0.237265508986,0.339043143581,0.579352452521,
    0.844439947757,1.),.UNSPECIFIED.);
#778 = CARTESIAN_POINT('',(7.,2.5,5.65));
#779 = CARTESIAN_POINT('',(7.120441903851,2.5,5.65));
#780 = CARTESIAN_POINT('',(7.240065947638,2.493036782688,5.639449976874)
  );
#781 = CARTESIAN_POINT('',(7.357165062353,2.479289074888,5.618618713607)
  );
#782 = CARTESIAN_POINT('',(7.470076864657,2.45944010544,5.588262359033)
  );
#783 = CARTESIAN_POINT('',(7.577275624431,2.434663339231,5.549620999387)
  );
#784 = CARTESIAN_POINT('',(7.720437586091,2.394360663404,5.485156925831)
  );
#785 = CARTESIAN_POINT('',(7.762256568513,2.381593807181,5.464554576366)
  );
#786 = CARTESIAN_POINT('',(7.802904407744,2.368240683323,5.442784012152)
  );
#787 = CARTESIAN_POINT('',(7.842370531303,2.354381755675,5.419923740455)
  );
#788 = CARTESIAN_POINT('',(7.880648015162,2.340095856087,5.396048163305)
  );
#789 = CARTESIAN_POINT('',(8.005297097995,2.290903592867,5.312623171439)
  );
#790 = CARTESIAN_POINT('',(8.086227256108,2.254391723941,5.248742789437)
  );
#791 = CARTESIAN_POINT('',(8.160684839016,2.2168560219,5.180370166289));
#792 = CARTESIAN_POINT('',(8.228862553508,2.179118022292,5.108061771974)
  );
#793 = CARTESIAN_POINT('',(8.290926620934,2.141945881927,5.032191763414)
  );
#794 = CARTESIAN_POINT('',(8.408767519279,2.066581007644,4.865636365558)
  );
#795 = CARTESIAN_POINT('',(8.463378827687,2.028587410695,4.774028594512)
  );
#796 = CARTESIAN_POINT('',(8.510644949112,1.993304658908,4.678731107036)
  );
#797 = CARTESIAN_POINT('',(8.550437927815,1.961912993762,4.580207811169)
  );
#798 = CARTESIAN_POINT('',(8.582610393675,1.935548411377,4.478808959532)
  );
#799 = CARTESIAN_POINT('',(8.621115522469,1.903241962266,4.313711526702)
  );
#800 = CARTESIAN_POINT('',(8.63261639984,1.893375624924,4.25181381525));
#801 = CARTESIAN_POINT('',(8.641292652898,1.88581436031,4.189293743155)
  );
#802 = CARTESIAN_POINT('',(8.647094961821,1.880715682047,4.126358289187)
  );
#803 = CARTESIAN_POINT('',(8.650000022982,1.878163976909,4.063200550297)
  );
#804 = CARTESIAN_POINT('',(8.65,1.878163997099,3.9999994));
#805 = ORIENTED_EDGE('',*,*,#806,.F.);
#806 = EDGE_CURVE('',#807,#775,#809,.T.);
#807 = VERTEX_POINT('',#808);
#808 = CARTESIAN_POINT('',(5.35,1.878163997099,4.));
#809 = B_SPLINE_CURVE_WITH_KNOTS('',6,(#810,#811,#812,#813,#814,#815,
    #816,#817,#818,#819,#820,#821,#822,#823,#824,#825,#826,#827,#828,
    #829,#830,#831,#832,#833,#834,#835,#836),.UNSPECIFIED.,.F.,.F.,(7,5,
    5,5,5,7),(0.,0.150509117056,0.422227830442,0.660954584809,
    0.760578483371,1.),.UNSPECIFIED.);
#810 = CARTESIAN_POINT('',(5.35,1.878163997099,3.9999994));
#811 = CARTESIAN_POINT('',(5.349999977762,1.878163977563,4.061153754043)
  );
#812 = CARTESIAN_POINT('',(5.352719913028,1.880553119974,4.122270881112)
  );
#813 = CARTESIAN_POINT('',(5.358153305529,1.885327490251,4.183186436242)
  );
#814 = CARTESIAN_POINT('',(5.366279366783,1.892412981658,4.243723850785)
  );
#815 = CARTESIAN_POINT('',(5.377054264763,1.901670702993,4.303694637857)
  );
#816 = CARTESIAN_POINT('',(5.414500108679,1.933179233026,4.469781598331)
  );
#817 = CARTESIAN_POINT('',(5.446928971104,1.959844035709,4.573920854335)
  );
#818 = CARTESIAN_POINT('',(5.487375280279,1.991855986796,4.675068635361)
  );
#819 = CARTESIAN_POINT('',(5.535681073499,2.027992342174,4.772845336213)
  );
#820 = CARTESIAN_POINT('',(5.59170667409,2.066977918892,4.866745118391)
  );
#821 = CARTESIAN_POINT('',(5.711143688806,2.143184511318,5.034717817303)
  );
#822 = CARTESIAN_POINT('',(5.77295691687,2.180124214467,5.109988857623)
  );
#823 = CARTESIAN_POINT('',(5.840805996979,2.217607107235,5.181738060238)
  );
#824 = CARTESIAN_POINT('',(5.914854180434,2.254879549915,5.249596299707)
  );
#825 = CARTESIAN_POINT('',(5.99529015575,2.291135571712,5.31301667854));
#826 = CARTESIAN_POINT('',(6.118570046587,2.339787174832,5.395524632182)
  );
#827 = CARTESIAN_POINT('',(6.156009978258,2.353776881137,5.418912652118)
  );
#828 = CARTESIAN_POINT('',(6.194588508318,2.367359082574,5.441329383469)
  );
#829 = CARTESIAN_POINT('',(6.234299477426,2.380459996133,5.462705311362)
  );
#830 = CARTESIAN_POINT('',(6.275133393783,2.393004298671,5.482967089208)
  );
#831 = CARTESIAN_POINT('',(6.417879606713,2.433539870614,5.547868669649)
  );
#832 = CARTESIAN_POINT('',(6.525848433697,2.458720929335,5.587162312126)
  );
#833 = CARTESIAN_POINT('',(6.639662552877,2.478914239867,5.618050687179)
  );
#834 = CARTESIAN_POINT('',(6.757765957886,2.492909241358,5.639256763274)
  );
#835 = CARTESIAN_POINT('',(6.878460193887,2.5,5.65));
#836 = CARTESIAN_POINT('',(7.,2.5,5.65));
#837 = ORIENTED_EDGE('',*,*,#838,.T.);
#838 = EDGE_CURVE('',#807,#839,#841,.T.);
#839 = VERTEX_POINT('',#840);
#840 = CARTESIAN_POINT('',(4.573067780098,0.6,4.));
#841 = CIRCLE('',#842,2.5);
#842 = AXIS2_PLACEMENT_3D('',#843,#844,#845);
#843 = CARTESIAN_POINT('',(7.,0.,4.));
#844 = DIRECTION('',(0.,0.,1.));
#845 = DIRECTION('',(1.,0.,0.));
#846 = ORIENTED_EDGE('',*,*,#847,.T.);
#847 = EDGE_CURVE('',#839,#445,#848,.T.);
#848 = LINE('',#849,#850);
#849 = CARTESIAN_POINT('',(4.573067780098,0.6,4.));
#850 = VECTOR('',#851,1.);
#851 = DIRECTION('',(0.,0.,1.));
#852 = ORIENTED_EDGE('',*,*,#452,.F.);
#853 = CYLINDRICAL_SURFACE('',#854,2.5);
#854 = AXIS2_PLACEMENT_3D('',#855,#856,#857);
#855 = CARTESIAN_POINT('',(7.,0.,4.));
#856 = DIRECTION('',(0.,0.,1.));
#857 = DIRECTION('',(1.,0.,0.));
#858 = ADVANCED_FACE('',(#859),#910,.F.);
#859 = FACE_BOUND('',#860,.F.);
#860 = EDGE_LOOP('',(#861,#862,#863,#871,#880,#888,#896,#904));
#861 = ORIENTED_EDGE('',*,*,#444,.F.);
#862 = ORIENTED_EDGE('',*,*,#847,.F.);
#863 = ORIENTED_EDGE('',*,*,#864,.T.);
#864 = EDGE_CURVE('',#839,#865,#867,.T.);
#865 = VERTEX_POINT('',#866);
#866 = CARTESIAN_POINT('',(5.35,0.6,4.));
#867 = LINE('',#868,#869);
#868 = CARTESIAN_POINT('',(4.5,0.6,4.));
#869 = VECTOR('',#870,1.);
#870 = DIRECTION('',(1.,0.,0.));
#871 = ORIENTED_EDGE('',*,*,#872,.F.);
#872 = EDGE_CURVE('',#873,#865,#875,.T.);
#873 = VERTEX_POINT('',#874);
#874 = CARTESIAN_POINT('',(5.409402627941,0.6,3.56125178063));
#875 = CIRCLE('',#876,1.65);
#876 = AXIS2_PLACEMENT_3D('',#877,#878,#879);
#877 = CARTESIAN_POINT('',(7.,0.6,4.));
#878 = DIRECTION('',(0.,1.,0.));
#879 = DIRECTION('',(0.,0.,1.));
#880 = ORIENTED_EDGE('',*,*,#881,.F.);
#881 = EDGE_CURVE('',#882,#873,#884,.T.);
#882 = VERTEX_POINT('',#883);
#883 = CARTESIAN_POINT('',(5.377378664013,0.6,3.56125178063));
#884 = LINE('',#885,#886);
#885 = CARTESIAN_POINT('',(4.5,0.6,3.56125178063));
#886 = VECTOR('',#887,1.);
#887 = DIRECTION('',(1.,0.,0.));
#888 = ORIENTED_EDGE('',*,*,#889,.F.);
#889 = EDGE_CURVE('',#890,#882,#892,.T.);
#890 = VERTEX_POINT('',#891);
#891 = CARTESIAN_POINT('',(5.377378664013,0.6,0.));
#892 = LINE('',#893,#894);
#893 = CARTESIAN_POINT('',(5.377378664013,0.6,0.));
#894 = VECTOR('',#895,1.);
#895 = DIRECTION('',(0.,0.,1.));
#896 = ORIENTED_EDGE('',*,*,#897,.T.);
#897 = EDGE_CURVE('',#890,#898,#900,.T.);
#898 = VERTEX_POINT('',#899);
#899 = CARTESIAN_POINT('',(2.323790007724,0.6,0.));
#900 = LINE('',#901,#902);
#901 = CARTESIAN_POINT('',(1.,0.6,0.));
#902 = VECTOR('',#903,1.);
#903 = DIRECTION('',(-1.,0.,0.));
#904 = ORIENTED_EDGE('',*,*,#905,.T.);
#905 = EDGE_CURVE('',#898,#436,#906,.T.);
#906 = LINE('',#907,#908);
#907 = CARTESIAN_POINT('',(2.323790007724,0.6,-1.));
#908 = VECTOR('',#909,1.);
#909 = DIRECTION('',(0.,0.,1.));
#910 = PLANE('',#911);
#911 = AXIS2_PLACEMENT_3D('',#912,#913,#914);
#912 = CARTESIAN_POINT('',(2.,0.6,-1.));
#913 = DIRECTION('',(0.,1.,0.));
#914 = DIRECTION('',(0.,0.,1.));
#915 = ADVANCED_FACE('',(#916),#1008,.F.);
#916 = FACE_BOUND('',#917,.F.);
#917 = EDGE_LOOP('',(#918,#927,#928,#929,#937,#946,#978));
#918 = ORIENTED_EDGE('',*,*,#919,.T.);
#919 = EDGE_CURVE('',#920,#581,#922,.T.);
#920 = VERTEX_POINT('',#921);
#921 = CARTESIAN_POINT('',(8.65,-1.878163997099,4.));
#922 = CIRCLE('',#923,2.5);
#923 = AXIS2_PLACEMENT_3D('',#924,#925,#926);
#924 = CARTESIAN_POINT('',(7.,0.,4.));
#925 = DIRECTION('',(0.,0.,1.));
#926 = DIRECTION('',(1.,0.,0.));
#927 = ORIENTED_EDGE('',*,*,#588,.T.);
#928 = ORIENTED_EDGE('',*,*,#418,.F.);
#929 = ORIENTED_EDGE('',*,*,#930,.F.);
#930 = EDGE_CURVE('',#931,#419,#933,.T.);
#931 = VERTEX_POINT('',#932);
#932 = CARTESIAN_POINT('',(4.573067780098,-0.6,4.));
#933 = LINE('',#934,#935);
#934 = CARTESIAN_POINT('',(4.573067780098,-0.6,4.));
#935 = VECTOR('',#936,1.);
#936 = DIRECTION('',(0.,0.,1.));
#937 = ORIENTED_EDGE('',*,*,#938,.T.);
#938 = EDGE_CURVE('',#931,#939,#941,.T.);
#939 = VERTEX_POINT('',#940);
#940 = CARTESIAN_POINT('',(5.35,-1.878163997099,4.));
#941 = CIRCLE('',#942,2.5);
#942 = AXIS2_PLACEMENT_3D('',#943,#944,#945);
#943 = CARTESIAN_POINT('',(7.,0.,4.));
#944 = DIRECTION('',(0.,0.,1.));
#945 = DIRECTION('',(1.,0.,0.));
#946 = ORIENTED_EDGE('',*,*,#947,.T.);
#947 = EDGE_CURVE('',#939,#948,#950,.T.);
#948 = VERTEX_POINT('',#949);
#949 = CARTESIAN_POINT('',(7.,-2.5,5.65));
#950 = B_SPLINE_CURVE_WITH_KNOTS('',6,(#951,#952,#953,#954,#955,#956,
    #957,#958,#959,#960,#961,#962,#963,#964,#965,#966,#967,#968,#969,
    #970,#971,#972,#973,#974,#975,#976,#977),.UNSPECIFIED.,.F.,.F.,(7,5,
    5,5,5,7),(0.,0.1680973137,0.422301722505,0.660997967479,
    0.76060912915,1.),.UNSPECIFIED.);
#951 = CARTESIAN_POINT('',(5.35,-1.878163997099,3.9999994));
#952 = CARTESIAN_POINT('',(5.349999975169,-1.878163975285,4.068284177468
    ));
#953 = CARTESIAN_POINT('',(5.353391207276,-1.881142556875,4.136506580944
    ));
#954 = CARTESIAN_POINT('',(5.360161521093,-1.887092305226,4.204449195549
    ));
#955 = CARTESIAN_POINT('',(5.370280577675,-1.895898766307,4.271874400332
    ));
#956 = CARTESIAN_POINT('',(5.383683576458,-1.907350581997,4.338524772923
    ));
#957 = CARTESIAN_POINT('',(5.425314953814,-1.942017111572,4.503324866218
    ));
#958 = CARTESIAN_POINT('',(5.45759335482,-1.968231135355,4.60001458388)
  );
#959 = CARTESIAN_POINT('',(5.496847138315,-1.99890428201,4.693989406949)
  );
#960 = CARTESIAN_POINT('',(5.542949494895,-2.033033253065,4.784948869791
    ));
#961 = CARTESIAN_POINT('',(5.595797176875,-2.069587857522,4.872497881002
    ));
#962 = CARTESIAN_POINT('',(5.71114368319,-2.143184507734,5.034717809405)
  );
#963 = CARTESIAN_POINT('',(5.772956928125,-2.180124220184,5.109988868886
    ));
#964 = CARTESIAN_POINT('',(5.840805995805,-2.217607107427,5.181738061436
    ));
#965 = CARTESIAN_POINT('',(5.914854168476,-2.254879544247,5.249596288963
    ));
#966 = CARTESIAN_POINT('',(5.995290163521,-2.291135574779,5.313016683741
    ));
#967 = CARTESIAN_POINT('',(6.118570041555,-2.339787172846,5.395524628814
    ));
#968 = CARTESIAN_POINT('',(6.156009980247,-2.353776881564,5.418912652753
    ));
#969 = CARTESIAN_POINT('',(6.194588513949,-2.367359084468,5.441329386597
    ));
#970 = CARTESIAN_POINT('',(6.234299478423,-2.380459996724,5.46270531241)
  );
#971 = CARTESIAN_POINT('',(6.275133387511,-2.39300429689,5.482967086356)
  );
#972 = CARTESIAN_POINT('',(6.417879606713,-2.433539870614,5.547868669649
    ));
#973 = CARTESIAN_POINT('',(6.525848433697,-2.458720929335,5.587162312126
    ));
#974 = CARTESIAN_POINT('',(6.639662552878,-2.478914239867,5.618050687179
    ));
#975 = CARTESIAN_POINT('',(6.757765957886,-2.492909241358,5.639256763274
    ));
#976 = CARTESIAN_POINT('',(6.878460193887,-2.5,5.65));
#977 = CARTESIAN_POINT('',(7.,-2.5,5.65));
#978 = ORIENTED_EDGE('',*,*,#979,.T.);
#979 = EDGE_CURVE('',#948,#920,#980,.T.);
#980 = B_SPLINE_CURVE_WITH_KNOTS('',6,(#981,#982,#983,#984,#985,#986,
    #987,#988,#989,#990,#991,#992,#993,#994,#995,#996,#997,#998,#999,
    #1000,#1001,#1002,#1003,#1004,#1005,#1006,#1007),.UNSPECIFIED.,.F.,
  .F.,(7,5,5,5,5,7),(0.,0.23728616452,0.339072642751,0.579402774107,
    0.854968186294,1.),.UNSPECIFIED.);
#981 = CARTESIAN_POINT('',(7.,-2.5,5.65));
#982 = CARTESIAN_POINT('',(7.120441903495,-2.5,5.65));
#983 = CARTESIAN_POINT('',(7.240065947684,-2.49303678273,5.639449976936)
  );
#984 = CARTESIAN_POINT('',(7.357165062669,-2.479289074845,5.618618713546
    ));
#985 = CARTESIAN_POINT('',(7.470076864773,-2.459440105379,5.588262358931
    ));
#986 = CARTESIAN_POINT('',(7.577275624173,-2.434663339303,5.549620999502
    ));
#987 = CARTESIAN_POINT('',(7.720437579116,-2.394360665368,5.485156928971
    ));
#988 = CARTESIAN_POINT('',(7.762256569597,-2.381593806527,5.464554575207
    ));
#989 = CARTESIAN_POINT('',(7.802904413981,-2.368240681233,5.442784008701
    ));
#990 = CARTESIAN_POINT('',(7.842370533524,-2.354381755204,5.419923739757
    ));
#991 = CARTESIAN_POINT('',(7.880648009609,-2.340095858278,5.396048167022
    ));
#992 = CARTESIAN_POINT('',(8.005297089799,-2.290903596101,5.312623176925
    ));
#993 = CARTESIAN_POINT('',(8.086227268433,-2.254391718139,5.248742778469
    ));
#994 = CARTESIAN_POINT('',(8.160684840265,-2.2168560221,5.180370167552)
  );
#995 = CARTESIAN_POINT('',(8.228862541884,-2.179118028173,5.10806178355)
  );
#996 = CARTESIAN_POINT('',(8.290926626717,-2.141945878228,5.03219175524)
  );
#997 = CARTESIAN_POINT('',(8.411205030371,-2.065022103057,4.862191206572
    ));
#998 = CARTESIAN_POINT('',(8.4676960752,-2.025579658297,4.766766765476)
  );
#999 = CARTESIAN_POINT('',(8.516240344318,-1.989114913459,4.667367102419
    ));
#1000 = CARTESIAN_POINT('',(8.556686172034,-1.956964789296,4.56452877161
    ));
#1001 = CARTESIAN_POINT('',(8.588866978336,-1.930402585426,
    4.458653574974));
#1002 = CARTESIAN_POINT('',(8.624863596225,-1.900021608162,
    4.292817988364));
#1003 = CARTESIAN_POINT('',(8.634877401362,-1.89140400693,4.234944711565
    ));
#1004 = CARTESIAN_POINT('',(8.642426966192,-1.884817586247,
    4.176561591609));
#1005 = CARTESIAN_POINT('',(8.647473926228,-1.880382897265,4.11783829636
    ));
#1006 = CARTESIAN_POINT('',(8.650000021431,-1.878163978272,
    4.058934459118));
#1007 = CARTESIAN_POINT('',(8.65,-1.878163997099,3.9999994));
#1008 = CYLINDRICAL_SURFACE('',#1009,2.5);
#1009 = AXIS2_PLACEMENT_3D('',#1010,#1011,#1012);
#1010 = CARTESIAN_POINT('',(7.,0.,4.));
#1011 = DIRECTION('',(0.,0.,1.));
#1012 = DIRECTION('',(1.,0.,0.));
#1013 = ADVANCED_FACE('',(#1014),#1033,.F.);
#1014 = FACE_BOUND('',#1015,.F.);
#1015 = EDGE_LOOP('',(#1016,#1017,#1018,#1027));
#1016 = ORIENTED_EDGE('',*,*,#435,.F.);
#1017 = ORIENTED_EDGE('',*,*,#905,.F.);
#1018 = ORIENTED_EDGE('',*,*,#1019,.T.);
#1019 = EDGE_CURVE('',#898,#1020,#1022,.T.);
#1020 = VERTEX_POINT('',#1021);
#1021 = CARTESIAN_POINT('',(2.323790007724,-0.6,0.));
#1022 = CIRCLE('',#1023,2.4);
#1023 = AXIS2_PLACEMENT_3D('',#1024,#1025,#1026);
#1024 = CARTESIAN_POINT('',(0.,0.,0.));
#1025 = DIRECTION('',(0.,0.,1.));
#1026 = DIRECTION('',(1.,0.,0.));
#1027 = ORIENTED_EDGE('',*,*,#1028,.T.);
#1028 = EDGE_CURVE('',#1020,#428,#1029,.T.);
#1029 = LINE('',#1030,#1031);
#1030 = CARTESIAN_POINT('',(2.323790007724,-0.6,-1.));
#1031 = VECTOR('',#1032,1.);
#1032 = DIRECTION('',(0.,0.,1.));
#1033 = CYLINDRICAL_SURFACE('',#1034,2.4);
#1034 = AXIS2_PLACEMENT_3D('',#1035,#1036,#1037);
#1035 = CARTESIAN_POINT('',(0.,0.,-1.));
#1036 = DIRECTION('',(0.,0.,1.));
#1037 = DIRECTION('',(1.,0.,0.));
#1038 = ADVANCED_FACE('',(#1039),#1083,.T.);
#1039 = FACE_BOUND('',#1040,.T.);
#1040 = EDGE_LOOP('',(#1041,#1042,#1043,#1051,#1060,#1068,#1076,#1082));
#1041 = ORIENTED_EDGE('',*,*,#427,.F.);
#1042 = ORIENTED_EDGE('',*,*,#930,.F.);
#1043 = ORIENTED_EDGE('',*,*,#1044,.T.);
#1044 = EDGE_CURVE('',#931,#1045,#1047,.T.);
#1045 = VERTEX_POINT('',#1046);
#1046 = CARTESIAN_POINT('',(5.35,-0.6,4.));
#1047 = LINE('',#1048,#1049);
#1048 = CARTESIAN_POINT('',(4.5,-0.6,4.));
#1049 = VECTOR('',#1050,1.);
#1050 = DIRECTION('',(1.,0.,0.));
#1051 = ORIENTED_EDGE('',*,*,#1052,.F.);
#1052 = EDGE_CURVE('',#1053,#1045,#1055,.T.);
#1053 = VERTEX_POINT('',#1054);
#1054 = CARTESIAN_POINT('',(5.409402627941,-0.6,3.56125178063));
#1055 = CIRCLE('',#1056,1.65);
#1056 = AXIS2_PLACEMENT_3D('',#1057,#1058,#1059);
#1057 = CARTESIAN_POINT('',(7.,-0.6,4.));
#1058 = DIRECTION('',(0.,1.,0.));
#1059 = DIRECTION('',(0.,0.,1.));
#1060 = ORIENTED_EDGE('',*,*,#1061,.F.);
#1061 = EDGE_CURVE('',#1062,#1053,#1064,.T.);
#1062 = VERTEX_POINT('',#1063);
#1063 = CARTESIAN_POINT('',(5.377378664013,-0.6,3.56125178063));
#1064 = LINE('',#1065,#1066);
#1065 = CARTESIAN_POINT('',(4.5,-0.6,3.56125178063));
#1066 = VECTOR('',#1067,1.);
#1067 = DIRECTION('',(1.,0.,0.));
#1068 = ORIENTED_EDGE('',*,*,#1069,.F.);
#1069 = EDGE_CURVE('',#1070,#1062,#1072,.T.);
#1070 = VERTEX_POINT('',#1071);
#1071 = CARTESIAN_POINT('',(5.377378664013,-0.6,0.));
#1072 = LINE('',#1073,#1074);
#1073 = CARTESIAN_POINT('',(5.377378664013,-0.6,0.));
#1074 = VECTOR('',#1075,1.);
#1075 = DIRECTION('',(0.,0.,1.));
#1076 = ORIENTED_EDGE('',*,*,#1077,.T.);
#1077 = EDGE_CURVE('',#1070,#1020,#1078,.T.);
#1078 = LINE('',#1079,#1080);
#1079 = CARTESIAN_POINT('',(1.,-0.6,0.));
#1080 = VECTOR('',#1081,1.);
#1081 = DIRECTION('',(-1.,0.,0.));
#1082 = ORIENTED_EDGE('',*,*,#1028,.T.);
#1083 = PLANE('',#1084);
#1084 = AXIS2_PLACEMENT_3D('',#1085,#1086,#1087);
#1085 = CARTESIAN_POINT('',(2.,-0.6,-1.));
#1086 = DIRECTION('',(0.,1.,0.));
#1087 = DIRECTION('',(0.,0.,1.));
#1088 = ADVANCED_FACE('',(#1089),#1108,.F.);
#1089 = FACE_BOUND('',#1090,.F.);
#1090 = EDGE_LOOP('',(#1091,#1092,#1100,#1107));
#1091 = ORIENTED_EDGE('',*,*,#461,.F.);
#1092 = ORIENTED_EDGE('',*,*,#1093,.F.);
#1093 = EDGE_CURVE('',#1094,#462,#1096,.T.);
#1094 = VERTEX_POINT('',#1095);
#1095 = CARTESIAN_POINT('',(-1.,-6.062177826491,4.));
#1096 = LINE('',#1097,#1098);
#1097 = CARTESIAN_POINT('',(-1.,-6.062177826491,4.));
#1098 = VECTOR('',#1099,1.);
#1099 = DIRECTION('',(0.,0.,1.));
#1100 = ORIENTED_EDGE('',*,*,#1101,.T.);
#1101 = EDGE_CURVE('',#1094,#1094,#1102,.T.);
#1102 = CIRCLE('',#1103,2.5);
#1103 = AXIS2_PLACEMENT_3D('',#1104,#1105,#1106);
#1104 = CARTESIAN_POINT('',(-3.5,-6.062177826491,4.));
#1105 = DIRECTION('',(0.,0.,1.));
#1106 = DIRECTION('',(1.,0.,0.));
#1107 = ORIENTED_EDGE('',*,*,#1093,.T.);
#1108 = CYLINDRICAL_SURFACE('',#1109,2.5);
#1109 = AXIS2_PLACEMENT_3D('',#1110,#1111,#1112);
#1110 = CARTESIAN_POINT('',(-3.5,-6.062177826491,4.));
#1111 = DIRECTION('',(0.,0.,1.));
#1112 = DIRECTION('',(1.,0.,0.));
#1113 = ADVANCED_FACE('',(#1114),#1133,.F.);
#1114 = FACE_BOUND('',#1115,.F.);
#1115 = EDGE_LOOP('',(#1116,#1117,#1125,#1132));
#1116 = ORIENTED_EDGE('',*,*,#472,.F.);
#1117 = ORIENTED_EDGE('',*,*,#1118,.F.);
#1118 = EDGE_CURVE('',#1119,#473,#1121,.T.);
#1119 = VERTEX_POINT('',#1120);
#1120 = CARTESIAN_POINT('',(-1.,6.062177826491,4.));
#1121 = LINE('',#1122,#1123);
#1122 = CARTESIAN_POINT('',(-1.,6.062177826491,4.));
#1123 = VECTOR('',#1124,1.);
#1124 = DIRECTION('',(0.,0.,1.));
#1125 = ORIENTED_EDGE('',*,*,#1126,.T.);
#1126 = EDGE_CURVE('',#1119,#1119,#1127,.T.);
#1127 = CIRCLE('',#1128,2.5);
#1128 = AXIS2_PLACEMENT_3D('',#1129,#1130,#1131);
#1129 = CARTESIAN_POINT('',(-3.5,6.062177826491,4.));
#1130 = DIRECTION('',(0.,0.,1.));
#1131 = DIRECTION('',(1.,0.,0.));
#1132 = ORIENTED_EDGE('',*,*,#1118,.T.);
#1133 = CYLINDRICAL_SURFACE('',#1134,2.5);
#1134 = AXIS2_PLACEMENT_3D('',#1135,#1136,#1137);
#1135 = CARTESIAN_POINT('',(-3.5,6.062177826491,4.));
#1136 = DIRECTION('',(0.,0.,1.));
#1137 = DIRECTION('',(1.,0.,0.));
#1138 = ADVANCED_FACE('',(#1139),#1149,.T.);
#1139 = FACE_BOUND('',#1140,.T.);
#1140 = EDGE_LOOP('',(#1141,#1142,#1143));
#1141 = ORIENTED_EDGE('',*,*,#523,.T.);
#1142 = ORIENTED_EDGE('',*,*,#765,.T.);
#1143 = ORIENTED_EDGE('',*,*,#1144,.F.);
#1144 = EDGE_CURVE('',#515,#766,#1145,.T.);
#1145 = LINE('',#1146,#1147);
#1146 = CARTESIAN_POINT('',(8.65,-11.,4.));
#1147 = VECTOR('',#1148,1.);
#1148 = DIRECTION('',(0.,1.,0.));
#1149 = PLANE('',#1150);
#1150 = AXIS2_PLACEMENT_3D('',#1151,#1152,#1153);
#1151 = CARTESIAN_POINT('',(7.,0.,4.));
#1152 = DIRECTION('',(0.,0.,1.));
#1153 = DIRECTION('',(1.,0.,0.));
#1154 = ADVANCED_FACE('',(#1155),#1207,.T.);
#1155 = FACE_BOUND('',#1156,.T.);
#1156 = EDGE_LOOP('',(#1157,#1165,#1166,#1175,#1182,#1183,#1191,#1200));
#1157 = ORIENTED_EDGE('',*,*,#1158,.F.);
#1158 = EDGE_CURVE('',#564,#1159,#1161,.T.);
#1159 = VERTEX_POINT('',#1160);
#1160 = CARTESIAN_POINT('',(8.590597372059,-0.43874821937,3.56125178063)
  );
#1161 = LINE('',#1162,#1163);
#1162 = CARTESIAN_POINT('',(8.590597372059,-7.6,3.56125178063));
#1163 = VECTOR('',#1164,1.);
#1164 = DIRECTION('',(0.,1.,0.));
#1165 = ORIENTED_EDGE('',*,*,#563,.T.);
#1166 = ORIENTED_EDGE('',*,*,#1167,.T.);
#1167 = EDGE_CURVE('',#556,#1168,#1170,.T.);
#1168 = VERTEX_POINT('',#1169);
#1169 = CARTESIAN_POINT('',(8.73,-4.23727792505E-16,3.56125178063));
#1170 = CIRCLE('',#1171,1.73);
#1171 = AXIS2_PLACEMENT_3D('',#1172,#1173,#1174);
#1172 = CARTESIAN_POINT('',(7.,0.,3.56125178063));
#1173 = DIRECTION('',(0.,0.,1.));
#1174 = DIRECTION('',(1.,0.,0.));
#1175 = ORIENTED_EDGE('',*,*,#1176,.T.);
#1176 = EDGE_CURVE('',#1168,#499,#1177,.T.);
#1177 = CIRCLE('',#1178,1.73);
#1178 = AXIS2_PLACEMENT_3D('',#1179,#1180,#1181);
#1179 = CARTESIAN_POINT('',(7.,0.,3.56125178063));
#1180 = DIRECTION('',(0.,0.,1.));
#1181 = DIRECTION('',(1.,0.,0.));
#1182 = ORIENTED_EDGE('',*,*,#506,.F.);
#1183 = ORIENTED_EDGE('',*,*,#1184,.F.);
#1184 = EDGE_CURVE('',#1185,#507,#1187,.T.);
#1185 = VERTEX_POINT('',#1186);
#1186 = CARTESIAN_POINT('',(8.590597372059,0.43874821937,3.56125178063)
  );
#1187 = LINE('',#1188,#1189);
#1188 = CARTESIAN_POINT('',(8.590597372059,-7.6,3.56125178063));
#1189 = VECTOR('',#1190,1.);
#1190 = DIRECTION('',(0.,1.,0.));
#1191 = ORIENTED_EDGE('',*,*,#1192,.F.);
#1192 = EDGE_CURVE('',#1193,#1185,#1195,.T.);
#1193 = VERTEX_POINT('',#1194);
#1194 = CARTESIAN_POINT('',(8.65,-4.041334437186E-16,3.56125178063));
#1195 = CIRCLE('',#1196,1.65);
#1196 = AXIS2_PLACEMENT_3D('',#1197,#1198,#1199);
#1197 = CARTESIAN_POINT('',(7.,0.,3.56125178063));
#1198 = DIRECTION('',(0.,0.,1.));
#1199 = DIRECTION('',(1.,0.,0.));
#1200 = ORIENTED_EDGE('',*,*,#1201,.F.);
#1201 = EDGE_CURVE('',#1159,#1193,#1202,.T.);
#1202 = CIRCLE('',#1203,1.65);
#1203 = AXIS2_PLACEMENT_3D('',#1204,#1205,#1206);
#1204 = CARTESIAN_POINT('',(7.,0.,3.56125178063));
#1205 = DIRECTION('',(0.,0.,1.));
#1206 = DIRECTION('',(1.,0.,0.));
#1207 = PLANE('',#1208);
#1208 = AXIS2_PLACEMENT_3D('',#1209,#1210,#1211);
#1209 = CARTESIAN_POINT('',(7.,0.,3.56125178063));
#1210 = DIRECTION('',(0.,0.,1.));
#1211 = DIRECTION('',(1.,0.,0.));
#1212 = ADVANCED_FACE('',(#1213),#1223,.T.);
#1213 = FACE_BOUND('',#1214,.T.);
#1214 = EDGE_LOOP('',(#1215,#1216,#1217));
#1215 = ORIENTED_EDGE('',*,*,#919,.T.);
#1216 = ORIENTED_EDGE('',*,*,#580,.F.);
#1217 = ORIENTED_EDGE('',*,*,#1218,.F.);
#1218 = EDGE_CURVE('',#920,#572,#1219,.T.);
#1219 = LINE('',#1220,#1221);
#1220 = CARTESIAN_POINT('',(8.65,-11.,4.));
#1221 = VECTOR('',#1222,1.);
#1222 = DIRECTION('',(0.,1.,0.));
#1223 = PLANE('',#1224);
#1224 = AXIS2_PLACEMENT_3D('',#1225,#1226,#1227);
#1225 = CARTESIAN_POINT('',(7.,0.,4.));
#1226 = DIRECTION('',(0.,0.,1.));
#1227 = DIRECTION('',(1.,0.,0.));
#1228 = ADVANCED_FACE('',(#1229,#1232),#1243,.T.);
#1229 = FACE_BOUND('',#1230,.T.);
#1230 = EDGE_LOOP('',(#1231));
#1231 = ORIENTED_EDGE('',*,*,#620,.T.);
#1232 = FACE_BOUND('',#1233,.T.);
#1233 = EDGE_LOOP('',(#1234));
#1234 = ORIENTED_EDGE('',*,*,#1235,.F.);
#1235 = EDGE_CURVE('',#1236,#1236,#1238,.T.);
#1236 = VERTEX_POINT('',#1237);
#1237 = CARTESIAN_POINT('',(7.,3.3,5.65));
#1238 = CIRCLE('',#1239,1.65);
#1239 = AXIS2_PLACEMENT_3D('',#1240,#1241,#1242);
#1240 = CARTESIAN_POINT('',(7.,3.3,4.));
#1241 = DIRECTION('',(0.,1.,0.));
#1242 = DIRECTION('',(0.,0.,1.));
#1243 = PLANE('',#1244);
#1244 = AXIS2_PLACEMENT_3D('',#1245,#1246,#1247);
#1245 = CARTESIAN_POINT('',(7.,3.3,4.));
#1246 = DIRECTION('',(0.,1.,0.));
#1247 = DIRECTION('',(0.,0.,1.));
#1248 = ADVANCED_FACE('',(#1249),#1259,.T.);
#1249 = FACE_BOUND('',#1250,.T.);
#1250 = EDGE_LOOP('',(#1251,#1252,#1258));
#1251 = ORIENTED_EDGE('',*,*,#938,.T.);
#1252 = ORIENTED_EDGE('',*,*,#1253,.T.);
#1253 = EDGE_CURVE('',#939,#1045,#1254,.T.);
#1254 = LINE('',#1255,#1256);
#1255 = CARTESIAN_POINT('',(5.35,-11.,4.));
#1256 = VECTOR('',#1257,1.);
#1257 = DIRECTION('',(0.,1.,0.));
#1258 = ORIENTED_EDGE('',*,*,#1044,.F.);
#1259 = PLANE('',#1260);
#1260 = AXIS2_PLACEMENT_3D('',#1261,#1262,#1263);
#1261 = CARTESIAN_POINT('',(7.,0.,4.));
#1262 = DIRECTION('',(0.,0.,1.));
#1263 = DIRECTION('',(1.,0.,0.));
#1264 = ADVANCED_FACE('',(#1265),#1275,.T.);
#1265 = FACE_BOUND('',#1266,.T.);
#1266 = EDGE_LOOP('',(#1267,#1273,#1274));
#1267 = ORIENTED_EDGE('',*,*,#1268,.T.);
#1268 = EDGE_CURVE('',#865,#807,#1269,.T.);
#1269 = LINE('',#1270,#1271);
#1270 = CARTESIAN_POINT('',(5.35,-11.,4.));
#1271 = VECTOR('',#1272,1.);
#1272 = DIRECTION('',(0.,1.,0.));
#1273 = ORIENTED_EDGE('',*,*,#838,.T.);
#1274 = ORIENTED_EDGE('',*,*,#864,.T.);
#1275 = PLANE('',#1276);
#1276 = AXIS2_PLACEMENT_3D('',#1277,#1278,#1279);
#1277 = CARTESIAN_POINT('',(7.,0.,4.));
#1278 = DIRECTION('',(0.,0.,1.));
#1279 = DIRECTION('',(1.,0.,0.));
#1280 = ADVANCED_FACE('',(#1281),#1299,.T.);
#1281 = FACE_BOUND('',#1282,.T.);
#1282 = EDGE_LOOP('',(#1283,#1284,#1291,#1292));
#1283 = ORIENTED_EDGE('',*,*,#889,.F.);
#1284 = ORIENTED_EDGE('',*,*,#1285,.T.);
#1285 = EDGE_CURVE('',#890,#1070,#1286,.T.);
#1286 = CIRCLE('',#1287,1.73);
#1287 = AXIS2_PLACEMENT_3D('',#1288,#1289,#1290);
#1288 = CARTESIAN_POINT('',(7.,0.,0.));
#1289 = DIRECTION('',(0.,0.,1.));
#1290 = DIRECTION('',(1.,0.,0.));
#1291 = ORIENTED_EDGE('',*,*,#1069,.T.);
#1292 = ORIENTED_EDGE('',*,*,#1293,.F.);
#1293 = EDGE_CURVE('',#882,#1062,#1294,.T.);
#1294 = CIRCLE('',#1295,1.73);
#1295 = AXIS2_PLACEMENT_3D('',#1296,#1297,#1298);
#1296 = CARTESIAN_POINT('',(7.,0.,3.56125178063));
#1297 = DIRECTION('',(0.,0.,1.));
#1298 = DIRECTION('',(1.,0.,0.));
#1299 = CYLINDRICAL_SURFACE('',#1300,1.73);
#1300 = AXIS2_PLACEMENT_3D('',#1301,#1302,#1303);
#1301 = CARTESIAN_POINT('',(7.,0.,0.));
#1302 = DIRECTION('',(0.,0.,1.));
#1303 = DIRECTION('',(1.,0.,0.));
#1304 = ADVANCED_FACE('',(#1305),#1333,.T.);
#1305 = FACE_BOUND('',#1306,.T.);
#1306 = EDGE_LOOP('',(#1307,#1308,#1309,#1317,#1326,#1332));
#1307 = ORIENTED_EDGE('',*,*,#1293,.T.);
#1308 = ORIENTED_EDGE('',*,*,#1061,.T.);
#1309 = ORIENTED_EDGE('',*,*,#1310,.T.);
#1310 = EDGE_CURVE('',#1053,#1311,#1313,.T.);
#1311 = VERTEX_POINT('',#1312);
#1312 = CARTESIAN_POINT('',(5.409402627941,-0.43874821937,3.56125178063)
  );
#1313 = LINE('',#1314,#1315);
#1314 = CARTESIAN_POINT('',(5.409402627941,-7.6,3.56125178063));
#1315 = VECTOR('',#1316,1.);
#1316 = DIRECTION('',(0.,1.,0.));
#1317 = ORIENTED_EDGE('',*,*,#1318,.F.);
#1318 = EDGE_CURVE('',#1319,#1311,#1321,.T.);
#1319 = VERTEX_POINT('',#1320);
#1320 = CARTESIAN_POINT('',(5.409402627941,0.43874821937,3.56125178063)
  );
#1321 = CIRCLE('',#1322,1.65);
#1322 = AXIS2_PLACEMENT_3D('',#1323,#1324,#1325);
#1323 = CARTESIAN_POINT('',(7.,0.,3.56125178063));
#1324 = DIRECTION('',(0.,0.,1.));
#1325 = DIRECTION('',(1.,0.,0.));
#1326 = ORIENTED_EDGE('',*,*,#1327,.T.);
#1327 = EDGE_CURVE('',#1319,#873,#1328,.T.);
#1328 = LINE('',#1329,#1330);
#1329 = CARTESIAN_POINT('',(5.409402627941,-7.6,3.56125178063));
#1330 = VECTOR('',#1331,1.);
#1331 = DIRECTION('',(0.,1.,0.));
#1332 = ORIENTED_EDGE('',*,*,#881,.F.);
#1333 = PLANE('',#1334);
#1334 = AXIS2_PLACEMENT_3D('',#1335,#1336,#1337);
#1335 = CARTESIAN_POINT('',(7.,0.,3.56125178063));
#1336 = DIRECTION('',(0.,0.,1.));
#1337 = DIRECTION('',(1.,0.,0.));
#1338 = ADVANCED_FACE('',(#1339,#1342),#1353,.T.);
#1339 = FACE_BOUND('',#1340,.T.);
#1340 = EDGE_LOOP('',(#1341));
#1341 = ORIENTED_EDGE('',*,*,#1101,.T.);
#1342 = FACE_BOUND('',#1343,.T.);
#1343 = EDGE_LOOP('',(#1344));
#1344 = ORIENTED_EDGE('',*,*,#1345,.F.);
#1345 = EDGE_CURVE('',#1346,#1346,#1348,.T.);
#1346 = VERTEX_POINT('',#1347);
#1347 = CARTESIAN_POINT('',(-1.85,-6.062177826491,4.));
#1348 = CIRCLE('',#1349,1.65);
#1349 = AXIS2_PLACEMENT_3D('',#1350,#1351,#1352);
#1350 = CARTESIAN_POINT('',(-3.5,-6.062177826491,4.));
#1351 = DIRECTION('',(0.,0.,1.));
#1352 = DIRECTION('',(1.,0.,0.));
#1353 = PLANE('',#1354);
#1354 = AXIS2_PLACEMENT_3D('',#1355,#1356,#1357);
#1355 = CARTESIAN_POINT('',(-3.5,-6.062177826491,4.));
#1356 = DIRECTION('',(0.,0.,1.));
#1357 = DIRECTION('',(1.,0.,0.));
#1358 = ADVANCED_FACE('',(#1359,#1362),#1373,.T.);
#1359 = FACE_BOUND('',#1360,.T.);
#1360 = EDGE_LOOP('',(#1361));
#1361 = ORIENTED_EDGE('',*,*,#1126,.T.);
#1362 = FACE_BOUND('',#1363,.T.);
#1363 = EDGE_LOOP('',(#1364));
#1364 = ORIENTED_EDGE('',*,*,#1365,.F.);
#1365 = EDGE_CURVE('',#1366,#1366,#1368,.T.);
#1366 = VERTEX_POINT('',#1367);
#1367 = CARTESIAN_POINT('',(-1.85,6.062177826491,4.));
#1368 = CIRCLE('',#1369,1.65);
#1369 = AXIS2_PLACEMENT_3D('',#1370,#1371,#1372);
#1370 = CARTESIAN_POINT('',(-3.5,6.062177826491,4.));
#1371 = DIRECTION('',(0.,0.,1.));
#1372 = DIRECTION('',(1.,0.,0.));
#1373 = PLANE('',#1374);
#1374 = AXIS2_PLACEMENT_3D('',#1375,#1376,#1377);
#1375 = CARTESIAN_POINT('',(-3.5,6.062177826491,4.));
#1376 = DIRECTION('',(0.,0.,1.));
#1377 = DIRECTION('',(1.,0.,0.));
#1378 = ADVANCED_FACE('',(#1379),#1423,.F.);
#1379 = FACE_BOUND('',#1380,.F.);
#1380 = EDGE_LOOP('',(#1381,#1382,#1390,#1397,#1398,#1399,#1406,#1407,
    #1416));
#1381 = ORIENTED_EDGE('',*,*,#1192,.F.);
#1382 = ORIENTED_EDGE('',*,*,#1383,.F.);
#1383 = EDGE_CURVE('',#1384,#1193,#1386,.T.);
#1384 = VERTEX_POINT('',#1385);
#1385 = CARTESIAN_POINT('',(8.65,-4.041334437186E-16,0.));
#1386 = LINE('',#1387,#1388);
#1387 = CARTESIAN_POINT('',(8.65,-4.041334437186E-16,-0.2));
#1388 = VECTOR('',#1389,1.);
#1389 = DIRECTION('',(0.,0.,1.));
#1390 = ORIENTED_EDGE('',*,*,#1391,.T.);
#1391 = EDGE_CURVE('',#1384,#1384,#1392,.T.);
#1392 = CIRCLE('',#1393,1.65);
#1393 = AXIS2_PLACEMENT_3D('',#1394,#1395,#1396);
#1394 = CARTESIAN_POINT('',(7.,0.,0.));
#1395 = DIRECTION('',(0.,0.,1.));
#1396 = DIRECTION('',(1.,0.,0.));
#1397 = ORIENTED_EDGE('',*,*,#1383,.T.);
#1398 = ORIENTED_EDGE('',*,*,#1201,.F.);
#1399 = ORIENTED_EDGE('',*,*,#1400,.T.);
#1400 = EDGE_CURVE('',#1159,#1311,#1401,.T.);
#1401 = ELLIPSE('',#1402,2.333452377916,1.65);
#1402 = AXIS2_PLACEMENT_3D('',#1403,#1404,#1405);
#1403 = CARTESIAN_POINT('',(7.,0.,4.));
#1404 = DIRECTION('',(0.,0.707106781187,-0.707106781187));
#1405 = DIRECTION('',(0.,0.707106781187,0.707106781187));
#1406 = ORIENTED_EDGE('',*,*,#1318,.F.);
#1407 = ORIENTED_EDGE('',*,*,#1408,.F.);
#1408 = EDGE_CURVE('',#1409,#1319,#1411,.T.);
#1409 = VERTEX_POINT('',#1410);
#1410 = CARTESIAN_POINT('',(7.,1.65,2.35));
#1411 = ELLIPSE('',#1412,2.333452377916,1.65);
#1412 = AXIS2_PLACEMENT_3D('',#1413,#1414,#1415);
#1413 = CARTESIAN_POINT('',(7.,0.,4.));
#1414 = DIRECTION('',(0.,0.707106781187,0.707106781187));
#1415 = DIRECTION('',(0.,0.707106781187,-0.707106781187));
#1416 = ORIENTED_EDGE('',*,*,#1417,.F.);
#1417 = EDGE_CURVE('',#1185,#1409,#1418,.T.);
#1418 = ELLIPSE('',#1419,2.333452377916,1.65);
#1419 = AXIS2_PLACEMENT_3D('',#1420,#1421,#1422);
#1420 = CARTESIAN_POINT('',(7.,0.,4.));
#1421 = DIRECTION('',(0.,0.707106781187,0.707106781187));
#1422 = DIRECTION('',(0.,0.707106781187,-0.707106781187));
#1423 = CYLINDRICAL_SURFACE('',#1424,1.65);
#1424 = AXIS2_PLACEMENT_3D('',#1425,#1426,#1427);
#1425 = CARTESIAN_POINT('',(7.,0.,-0.2));
#1426 = DIRECTION('',(0.,0.,1.));
#1427 = DIRECTION('',(1.,0.,0.));
#1428 = ADVANCED_FACE('',(#1429),#1448,.F.);
#1429 = FACE_BOUND('',#1430,.F.);
#1430 = EDGE_LOOP('',(#1431,#1432,#1440,#1447));
#1431 = ORIENTED_EDGE('',*,*,#1345,.F.);
#1432 = ORIENTED_EDGE('',*,*,#1433,.F.);
#1433 = EDGE_CURVE('',#1434,#1346,#1436,.T.);
#1434 = VERTEX_POINT('',#1435);
#1435 = CARTESIAN_POINT('',(-1.85,-6.062177826491,0.));
#1436 = LINE('',#1437,#1438);
#1437 = CARTESIAN_POINT('',(-1.85,-6.062177826491,-0.2));
#1438 = VECTOR('',#1439,1.);
#1439 = DIRECTION('',(0.,0.,1.));
#1440 = ORIENTED_EDGE('',*,*,#1441,.T.);
#1441 = EDGE_CURVE('',#1434,#1434,#1442,.T.);
#1442 = CIRCLE('',#1443,1.65);
#1443 = AXIS2_PLACEMENT_3D('',#1444,#1445,#1446);
#1444 = CARTESIAN_POINT('',(-3.5,-6.062177826491,0.));
#1445 = DIRECTION('',(0.,0.,1.));
#1446 = DIRECTION('',(1.,0.,0.));
#1447 = ORIENTED_EDGE('',*,*,#1433,.T.);
#1448 = CYLINDRICAL_SURFACE('',#1449,1.65);
#1449 = AXIS2_PLACEMENT_3D('',#1450,#1451,#1452);
#1450 = CARTESIAN_POINT('',(-3.5,-6.062177826491,-0.2));
#1451 = DIRECTION('',(0.,0.,1.));
#1452 = DIRECTION('',(1.,0.,0.));
#1453 = ADVANCED_FACE('',(#1454),#1473,.F.);
#1454 = FACE_BOUND('',#1455,.F.);
#1455 = EDGE_LOOP('',(#1456,#1457,#1465,#1472));
#1456 = ORIENTED_EDGE('',*,*,#1365,.F.);
#1457 = ORIENTED_EDGE('',*,*,#1458,.F.);
#1458 = EDGE_CURVE('',#1459,#1366,#1461,.T.);
#1459 = VERTEX_POINT('',#1460);
#1460 = CARTESIAN_POINT('',(-1.85,6.062177826491,0.));
#1461 = LINE('',#1462,#1463);
#1462 = CARTESIAN_POINT('',(-1.85,6.062177826491,-0.2));
#1463 = VECTOR('',#1464,1.);
#1464 = DIRECTION('',(0.,0.,1.));
#1465 = ORIENTED_EDGE('',*,*,#1466,.T.);
#1466 = EDGE_CURVE('',#1459,#1459,#1467,.T.);
#1467 = CIRCLE('',#1468,1.65);
#1468 = AXIS2_PLACEMENT_3D('',#1469,#1470,#1471);
#1469 = CARTESIAN_POINT('',(-3.5,6.062177826491,0.));
#1470 = DIRECTION('',(0.,0.,1.));
#1471 = DIRECTION('',(1.,0.,0.));
#1472 = ORIENTED_EDGE('',*,*,#1458,.T.);
#1473 = CYLINDRICAL_SURFACE('',#1474,1.65);
#1474 = AXIS2_PLACEMENT_3D('',#1475,#1476,#1477);
#1475 = CARTESIAN_POINT('',(-3.5,6.062177826491,-0.2));
#1476 = DIRECTION('',(0.,0.,1.));
#1477 = DIRECTION('',(1.,0.,0.));
#1478 = ADVANCED_FACE('',(#1479,#1500,#1506,#1509,#1512),#1515,.T.);
#1479 = FACE_BOUND('',#1480,.T.);
#1480 = EDGE_LOOP('',(#1481,#1482,#1491,#1498,#1499));
#1481 = ORIENTED_EDGE('',*,*,#490,.T.);
#1482 = ORIENTED_EDGE('',*,*,#1483,.F.);
#1483 = EDGE_CURVE('',#1484,#491,#1486,.T.);
#1484 = VERTEX_POINT('',#1485);
#1485 = CARTESIAN_POINT('',(8.73,-4.23727792505E-16,0.));
#1486 = CIRCLE('',#1487,1.73);
#1487 = AXIS2_PLACEMENT_3D('',#1488,#1489,#1490);
#1488 = CARTESIAN_POINT('',(7.,0.,0.));
#1489 = DIRECTION('',(0.,0.,1.));
#1490 = DIRECTION('',(1.,0.,0.));
#1491 = ORIENTED_EDGE('',*,*,#1492,.F.);
#1492 = EDGE_CURVE('',#548,#1484,#1493,.T.);
#1493 = CIRCLE('',#1494,1.73);
#1494 = AXIS2_PLACEMENT_3D('',#1495,#1496,#1497);
#1495 = CARTESIAN_POINT('',(7.,0.,0.));
#1496 = DIRECTION('',(0.,0.,1.));
#1497 = DIRECTION('',(1.,0.,0.));
#1498 = ORIENTED_EDGE('',*,*,#547,.F.);
#1499 = ORIENTED_EDGE('',*,*,#40,.F.);
#1500 = FACE_BOUND('',#1501,.T.);
#1501 = EDGE_LOOP('',(#1502,#1503,#1504,#1505));
#1502 = ORIENTED_EDGE('',*,*,#897,.T.);
#1503 = ORIENTED_EDGE('',*,*,#1019,.T.);
#1504 = ORIENTED_EDGE('',*,*,#1077,.F.);
#1505 = ORIENTED_EDGE('',*,*,#1285,.F.);
#1506 = FACE_BOUND('',#1507,.T.);
#1507 = EDGE_LOOP('',(#1508));
#1508 = ORIENTED_EDGE('',*,*,#1466,.T.);
#1509 = FACE_BOUND('',#1510,.T.);
#1510 = EDGE_LOOP('',(#1511));
#1511 = ORIENTED_EDGE('',*,*,#1391,.T.);
#1512 = FACE_BOUND('',#1513,.T.);
#1513 = EDGE_LOOP('',(#1514));
#1514 = ORIENTED_EDGE('',*,*,#1441,.T.);
#1515 = PLANE('',#1516);
#1516 = AXIS2_PLACEMENT_3D('',#1517,#1518,#1519);
#1517 = CARTESIAN_POINT('',(0.673732910679,-8.746872057204E-16,0.));
#1518 = DIRECTION('',(-0.,-0.,-1.));
#1519 = DIRECTION('',(-1.,0.,0.));
#1520 = ADVANCED_FACE('',(#1521),#1541,.F.);
#1521 = FACE_BOUND('',#1522,.F.);
#1522 = EDGE_LOOP('',(#1523,#1524,#1525,#1526,#1527,#1528,#1533,#1534,
    #1535,#1536,#1537,#1538,#1539,#1540));
#1523 = ORIENTED_EDGE('',*,*,#1400,.F.);
#1524 = ORIENTED_EDGE('',*,*,#1158,.F.);
#1525 = ORIENTED_EDGE('',*,*,#571,.F.);
#1526 = ORIENTED_EDGE('',*,*,#1218,.F.);
#1527 = ORIENTED_EDGE('',*,*,#979,.F.);
#1528 = ORIENTED_EDGE('',*,*,#1529,.F.);
#1529 = EDGE_CURVE('',#740,#948,#1530,.T.);
#1530 = B_SPLINE_CURVE_WITH_KNOTS('',1,(#1531,#1532),.UNSPECIFIED.,.F.,
  .F.,(2,2),(3.6,8.5),.PIECEWISE_BEZIER_KNOTS.);
#1531 = CARTESIAN_POINT('',(7.,-7.4,5.65));
#1532 = CARTESIAN_POINT('',(7.,-2.5,5.65));
#1533 = ORIENTED_EDGE('',*,*,#739,.T.);
#1534 = ORIENTED_EDGE('',*,*,#178,.T.);
#1535 = ORIENTED_EDGE('',*,*,#748,.T.);
#1536 = ORIENTED_EDGE('',*,*,#1529,.T.);
#1537 = ORIENTED_EDGE('',*,*,#947,.F.);
#1538 = ORIENTED_EDGE('',*,*,#1253,.T.);
#1539 = ORIENTED_EDGE('',*,*,#1052,.F.);
#1540 = ORIENTED_EDGE('',*,*,#1310,.T.);
#1541 = CYLINDRICAL_SURFACE('',#1542,1.65);
#1542 = AXIS2_PLACEMENT_3D('',#1543,#1544,#1545);
#1543 = CARTESIAN_POINT('',(7.,-11.,4.));
#1544 = DIRECTION('',(0.,1.,0.));
#1545 = DIRECTION('',(0.,0.,1.));
#1546 = ADVANCED_FACE('',(#1547),#1566,.F.);
#1547 = FACE_BOUND('',#1548,.F.);
#1548 = EDGE_LOOP('',(#1549,#1550,#1551,#1552,#1557,#1558,#1559,#1560,
    #1561,#1562,#1563,#1564,#1565));
#1549 = ORIENTED_EDGE('',*,*,#872,.T.);
#1550 = ORIENTED_EDGE('',*,*,#1268,.T.);
#1551 = ORIENTED_EDGE('',*,*,#806,.T.);
#1552 = ORIENTED_EDGE('',*,*,#1553,.T.);
#1553 = EDGE_CURVE('',#775,#1236,#1554,.T.);
#1554 = B_SPLINE_CURVE_WITH_KNOTS('',1,(#1555,#1556),.UNSPECIFIED.,.F.,
  .F.,(2,2),(13.5,14.3),.PIECEWISE_BEZIER_KNOTS.);
#1555 = CARTESIAN_POINT('',(7.,2.5,5.65));
#1556 = CARTESIAN_POINT('',(7.,3.3,5.65));
#1557 = ORIENTED_EDGE('',*,*,#1235,.F.);
#1558 = ORIENTED_EDGE('',*,*,#1553,.F.);
#1559 = ORIENTED_EDGE('',*,*,#774,.T.);
#1560 = ORIENTED_EDGE('',*,*,#1144,.F.);
#1561 = ORIENTED_EDGE('',*,*,#514,.T.);
#1562 = ORIENTED_EDGE('',*,*,#1184,.F.);
#1563 = ORIENTED_EDGE('',*,*,#1417,.T.);
#1564 = ORIENTED_EDGE('',*,*,#1408,.T.);
#1565 = ORIENTED_EDGE('',*,*,#1327,.T.);
#1566 = CYLINDRICAL_SURFACE('',#1567,1.65);
#1567 = AXIS2_PLACEMENT_3D('',#1568,#1569,#1570);
#1568 = CARTESIAN_POINT('',(7.,-11.,4.));
#1569 = DIRECTION('',(0.,1.,0.));
#1570 = DIRECTION('',(0.,0.,1.));
#1571 = ADVANCED_FACE('',(#1572),#1578,.F.);
#1572 = FACE_BOUND('',#1573,.F.);
#1573 = EDGE_LOOP('',(#1574,#1575,#1576,#1577));
#1574 = ORIENTED_EDGE('',*,*,#303,.T.);
#1575 = ORIENTED_EDGE('',*,*,#385,.T.);
#1576 = ORIENTED_EDGE('',*,*,#731,.F.);
#1577 = ORIENTED_EDGE('',*,*,#722,.F.);
#1578 = CYLINDRICAL_SURFACE('',#1579,3.2);
#1579 = AXIS2_PLACEMENT_3D('',#1580,#1581,#1582);
#1580 = CARTESIAN_POINT('',(7.,-10.6,4.));
#1581 = DIRECTION('',(0.,1.,0.));
#1582 = DIRECTION('',(0.,0.,1.));
#1583 = ADVANCED_FACE('',(#1584),#1592,.T.);
#1584 = FACE_BOUND('',#1585,.T.);
#1585 = EDGE_LOOP('',(#1586,#1587,#1588,#1589,#1590,#1591));
#1586 = ORIENTED_EDGE('',*,*,#1167,.F.);
#1587 = ORIENTED_EDGE('',*,*,#555,.F.);
#1588 = ORIENTED_EDGE('',*,*,#1492,.T.);
#1589 = ORIENTED_EDGE('',*,*,#1483,.T.);
#1590 = ORIENTED_EDGE('',*,*,#498,.T.);
#1591 = ORIENTED_EDGE('',*,*,#1176,.F.);
#1592 = CYLINDRICAL_SURFACE('',#1593,1.73);
#1593 = AXIS2_PLACEMENT_3D('',#1594,#1595,#1596);
#1594 = CARTESIAN_POINT('',(7.,0.,0.));
#1595 = DIRECTION('',(0.,0.,1.));
#1596 = DIRECTION('',(1.,0.,0.));
#1597 = ( GEOMETRIC_REPRESENTATION_CONTEXT(3) 
GLOBAL_UNCERTAINTY_ASSIGNED_CONTEXT((#1601)) 
GLOBAL_UNIT_ASSIGNED_CONTEXT((#1598,#1599,#1600)) REPRESENTATION_CONTEXT
('Context #1','3D Context with UNIT and UNCERTAINTY') );
#1598 = ( LENGTH_UNIT() NAMED_UNIT(*) SI_UNIT(.MILLI.,.METRE.) );
#1599 = ( NAMED_UNIT(*) PLANE_ANGLE_UNIT() SI_UNIT($,.RADIAN.) );
#1600 = ( NAMED_UNIT(*) SI_UNIT($,.STERADIAN.) SOLID_ANGLE_UNIT() );
#1601 = UNCERTAINTY_MEASURE_WITH_UNIT(LENGTH_MEASURE(5.E-07),#1598,
  'distance_accuracy_value','confusion accuracy');
#1602 = PRODUCT_RELATED_PRODUCT_CATEGORY('part',$,(#7));
ENDSEC;
END-ISO-10303-21;
