ISO-10303-21;
HEADER;
FILE_DESCRIPTION(('FreeCAD Model'),'2;1');
FILE_NAME('Open CASCADE Shape Model','2026-07-30T12:08:39',('FreeCAD'),(
    'FreeCAD'),'Open CASCADE STEP processor 7.8','FreeCAD','Unknown');
FILE_SCHEMA(('AUTOMOTIVE_DESIGN { 1 0 10303 214 1 1 1 1 }'));
ENDSEC;
DATA;
#1 = APPLICATION_PROTOCOL_DEFINITION('international standard',
  'automotive_design',2000,#2);
#2 = APPLICATION_CONTEXT(
  'core data for automotive mechanical design processes');
#3 = SHAPE_DEFINITION_REPRESENTATION(#4,#10);
#4 = PRODUCT_DEFINITION_SHAPE('','',#5);
#5 = PRODUCT_DEFINITION('design','',#6,#9);
#6 = PRODUCT_DEFINITION_FORMATION('','',#7);
#7 = PRODUCT('Open CASCADE STEP translator 7.8 22',
  'Open CASCADE STEP translator 7.8 22','',(#8));
#8 = PRODUCT_CONTEXT('',#2,'mechanical');
#9 = PRODUCT_DEFINITION_CONTEXT('part definition',#2,'design');
#10 = ADVANCED_BREP_SHAPE_REPRESENTATION('',(#11,#15),#1079);
#11 = AXIS2_PLACEMENT_3D('',#12,#13,#14);
#12 = CARTESIAN_POINT('',(0.,0.,0.));
#13 = DIRECTION('',(0.,0.,1.));
#14 = DIRECTION('',(1.,0.,-0.));
#15 = MANIFOLD_SOLID_BREP('',#16);
#16 = CLOSED_SHELL('',(#17,#68,#143,#167,#191,#252,#277,#300,#414,#539,
    #597,#655,#675,#700,#735,#758,#791,#840,#864,#906,#923,#943,#960,
    #993,#1005,#1017,#1042,#1067));
#17 = ADVANCED_FACE('',(#18,#52),#63,.F.);
#18 = FACE_BOUND('',#19,.F.);
#19 = EDGE_LOOP('',(#20,#30,#38,#46));
#20 = ORIENTED_EDGE('',*,*,#21,.F.);
#21 = EDGE_CURVE('',#22,#24,#26,.T.);
#22 = VERTEX_POINT('',#23);
#23 = CARTESIAN_POINT('',(0.,-17.,-17.));
#24 = VERTEX_POINT('',#25);
#25 = CARTESIAN_POINT('',(0.,-17.,17.));
#26 = LINE('',#27,#28);
#27 = CARTESIAN_POINT('',(0.,-17.,-17.));
#28 = VECTOR('',#29,1.);
#29 = DIRECTION('',(0.,0.,1.));
#30 = ORIENTED_EDGE('',*,*,#31,.T.);
#31 = EDGE_CURVE('',#22,#32,#34,.T.);
#32 = VERTEX_POINT('',#33);
#33 = CARTESIAN_POINT('',(0.,17.,-17.));
#34 = LINE('',#35,#36);
#35 = CARTESIAN_POINT('',(0.,-17.,-17.));
#36 = VECTOR('',#37,1.);
#37 = DIRECTION('',(0.,1.,0.));
#38 = ORIENTED_EDGE('',*,*,#39,.T.);
#39 = EDGE_CURVE('',#32,#40,#42,.T.);
#40 = VERTEX_POINT('',#41);
#41 = CARTESIAN_POINT('',(0.,17.,17.));
#42 = LINE('',#43,#44);
#43 = CARTESIAN_POINT('',(0.,17.,-17.));
#44 = VECTOR('',#45,1.);
#45 = DIRECTION('',(0.,0.,1.));
#46 = ORIENTED_EDGE('',*,*,#47,.F.);
#47 = EDGE_CURVE('',#24,#40,#48,.T.);
#48 = LINE('',#49,#50);
#49 = CARTESIAN_POINT('',(0.,-17.,17.));
#50 = VECTOR('',#51,1.);
#51 = DIRECTION('',(0.,1.,0.));
#52 = FACE_BOUND('',#53,.F.);
#53 = EDGE_LOOP('',(#54));
#54 = ORIENTED_EDGE('',*,*,#55,.F.);
#55 = EDGE_CURVE('',#56,#56,#58,.T.);
#56 = VERTEX_POINT('',#57);
#57 = CARTESIAN_POINT('',(0.,2.E-15,7.6));
#58 = CIRCLE('',#59,7.6);
#59 = AXIS2_PLACEMENT_3D('',#60,#61,#62);
#60 = CARTESIAN_POINT('',(0.,0.,0.));
#61 = DIRECTION('',(1.,0.,-0.));
#62 = DIRECTION('',(0.,0.,1.));
#63 = PLANE('',#64);
#64 = AXIS2_PLACEMENT_3D('',#65,#66,#67);
#65 = CARTESIAN_POINT('',(0.,-17.,-17.));
#66 = DIRECTION('',(1.,0.,0.));
#67 = DIRECTION('',(0.,0.,1.));
#68 = ADVANCED_FACE('',(#69,#94,#105,#116,#127),#138,.F.);
#69 = FACE_BOUND('',#70,.F.);
#70 = EDGE_LOOP('',(#71,#79,#80,#88));
#71 = ORIENTED_EDGE('',*,*,#72,.F.);
#72 = EDGE_CURVE('',#22,#73,#75,.T.);
#73 = VERTEX_POINT('',#74);
#74 = CARTESIAN_POINT('',(44.,-17.,-17.));
#75 = LINE('',#76,#77);
#76 = CARTESIAN_POINT('',(0.,-17.,-17.));
#77 = VECTOR('',#78,1.);
#78 = DIRECTION('',(1.,0.,0.));
#79 = ORIENTED_EDGE('',*,*,#21,.T.);
#80 = ORIENTED_EDGE('',*,*,#81,.T.);
#81 = EDGE_CURVE('',#24,#82,#84,.T.);
#82 = VERTEX_POINT('',#83);
#83 = CARTESIAN_POINT('',(44.,-17.,17.));
#84 = LINE('',#85,#86);
#85 = CARTESIAN_POINT('',(0.,-17.,17.));
#86 = VECTOR('',#87,1.);
#87 = DIRECTION('',(1.,0.,0.));
#88 = ORIENTED_EDGE('',*,*,#89,.F.);
#89 = EDGE_CURVE('',#73,#82,#90,.T.);
#90 = LINE('',#91,#92);
#91 = CARTESIAN_POINT('',(44.,-17.,-17.));
#92 = VECTOR('',#93,1.);
#93 = DIRECTION('',(0.,0.,1.));
#94 = FACE_BOUND('',#95,.F.);
#95 = EDGE_LOOP('',(#96));
#96 = ORIENTED_EDGE('',*,*,#97,.F.);
#97 = EDGE_CURVE('',#98,#98,#100,.T.);
#98 = VERTEX_POINT('',#99);
#99 = CARTESIAN_POINT('',(4.,-17.,-6.35));
#100 = CIRCLE('',#101,1.65);
#101 = AXIS2_PLACEMENT_3D('',#102,#103,#104);
#102 = CARTESIAN_POINT('',(4.,-17.,-8.));
#103 = DIRECTION('',(0.,1.,0.));
#104 = DIRECTION('',(0.,0.,1.));
#105 = FACE_BOUND('',#106,.F.);
#106 = EDGE_LOOP('',(#107));
#107 = ORIENTED_EDGE('',*,*,#108,.F.);
#108 = EDGE_CURVE('',#109,#109,#111,.T.);
#109 = VERTEX_POINT('',#110);
#110 = CARTESIAN_POINT('',(4.,-17.,9.65));
#111 = CIRCLE('',#112,1.65);
#112 = AXIS2_PLACEMENT_3D('',#113,#114,#115);
#113 = CARTESIAN_POINT('',(4.,-17.,8.));
#114 = DIRECTION('',(0.,1.,0.));
#115 = DIRECTION('',(0.,0.,1.));
#116 = FACE_BOUND('',#117,.F.);
#117 = EDGE_LOOP('',(#118));
#118 = ORIENTED_EDGE('',*,*,#119,.F.);
#119 = EDGE_CURVE('',#120,#120,#122,.T.);
#120 = VERTEX_POINT('',#121);
#121 = CARTESIAN_POINT('',(12.,-17.,-6.35));
#122 = CIRCLE('',#123,1.65);
#123 = AXIS2_PLACEMENT_3D('',#124,#125,#126);
#124 = CARTESIAN_POINT('',(12.,-17.,-8.));
#125 = DIRECTION('',(0.,1.,0.));
#126 = DIRECTION('',(0.,0.,1.));
#127 = FACE_BOUND('',#128,.F.);
#128 = EDGE_LOOP('',(#129));
#129 = ORIENTED_EDGE('',*,*,#130,.F.);
#130 = EDGE_CURVE('',#131,#131,#133,.T.);
#131 = VERTEX_POINT('',#132);
#132 = CARTESIAN_POINT('',(12.,-17.,9.65));
#133 = CIRCLE('',#134,1.65);
#134 = AXIS2_PLACEMENT_3D('',#135,#136,#137);
#135 = CARTESIAN_POINT('',(12.,-17.,8.));
#136 = DIRECTION('',(0.,1.,0.));
#137 = DIRECTION('',(0.,0.,1.));
#138 = PLANE('',#139);
#139 = AXIS2_PLACEMENT_3D('',#140,#141,#142);
#140 = CARTESIAN_POINT('',(0.,-17.,-17.));
#141 = DIRECTION('',(0.,1.,0.));
#142 = DIRECTION('',(0.,0.,1.));
#143 = ADVANCED_FACE('',(#144),#162,.T.);
#144 = FACE_BOUND('',#145,.T.);
#145 = EDGE_LOOP('',(#146,#147,#148,#156));
#146 = ORIENTED_EDGE('',*,*,#47,.F.);
#147 = ORIENTED_EDGE('',*,*,#81,.T.);
#148 = ORIENTED_EDGE('',*,*,#149,.T.);
#149 = EDGE_CURVE('',#82,#150,#152,.T.);
#150 = VERTEX_POINT('',#151);
#151 = CARTESIAN_POINT('',(44.,17.,17.));
#152 = LINE('',#153,#154);
#153 = CARTESIAN_POINT('',(44.,-17.,17.));
#154 = VECTOR('',#155,1.);
#155 = DIRECTION('',(0.,1.,0.));
#156 = ORIENTED_EDGE('',*,*,#157,.F.);
#157 = EDGE_CURVE('',#40,#150,#158,.T.);
#158 = LINE('',#159,#160);
#159 = CARTESIAN_POINT('',(0.,17.,17.));
#160 = VECTOR('',#161,1.);
#161 = DIRECTION('',(1.,0.,0.));
#162 = PLANE('',#163);
#163 = AXIS2_PLACEMENT_3D('',#164,#165,#166);
#164 = CARTESIAN_POINT('',(0.,-17.,17.));
#165 = DIRECTION('',(0.,0.,1.));
#166 = DIRECTION('',(1.,0.,0.));
#167 = ADVANCED_FACE('',(#168),#186,.F.);
#168 = FACE_BOUND('',#169,.F.);
#169 = EDGE_LOOP('',(#170,#171,#172,#180));
#170 = ORIENTED_EDGE('',*,*,#31,.F.);
#171 = ORIENTED_EDGE('',*,*,#72,.T.);
#172 = ORIENTED_EDGE('',*,*,#173,.T.);
#173 = EDGE_CURVE('',#73,#174,#176,.T.);
#174 = VERTEX_POINT('',#175);
#175 = CARTESIAN_POINT('',(44.,17.,-17.));
#176 = LINE('',#177,#178);
#177 = CARTESIAN_POINT('',(44.,-17.,-17.));
#178 = VECTOR('',#179,1.);
#179 = DIRECTION('',(0.,1.,0.));
#180 = ORIENTED_EDGE('',*,*,#181,.F.);
#181 = EDGE_CURVE('',#32,#174,#182,.T.);
#182 = LINE('',#183,#184);
#183 = CARTESIAN_POINT('',(0.,17.,-17.));
#184 = VECTOR('',#185,1.);
#185 = DIRECTION('',(1.,0.,0.));
#186 = PLANE('',#187);
#187 = AXIS2_PLACEMENT_3D('',#188,#189,#190);
#188 = CARTESIAN_POINT('',(0.,-17.,-17.));
#189 = DIRECTION('',(0.,0.,1.));
#190 = DIRECTION('',(1.,0.,0.));
#191 = ADVANCED_FACE('',(#192,#203,#214,#225,#236),#247,.T.);
#192 = FACE_BOUND('',#193,.T.);
#193 = EDGE_LOOP('',(#194,#195,#196,#197));
#194 = ORIENTED_EDGE('',*,*,#181,.F.);
#195 = ORIENTED_EDGE('',*,*,#39,.T.);
#196 = ORIENTED_EDGE('',*,*,#157,.T.);
#197 = ORIENTED_EDGE('',*,*,#198,.F.);
#198 = EDGE_CURVE('',#174,#150,#199,.T.);
#199 = LINE('',#200,#201);
#200 = CARTESIAN_POINT('',(44.,17.,-17.));
#201 = VECTOR('',#202,1.);
#202 = DIRECTION('',(0.,0.,1.));
#203 = FACE_BOUND('',#204,.T.);
#204 = EDGE_LOOP('',(#205));
#205 = ORIENTED_EDGE('',*,*,#206,.F.);
#206 = EDGE_CURVE('',#207,#207,#209,.T.);
#207 = VERTEX_POINT('',#208);
#208 = CARTESIAN_POINT('',(4.,17.,-6.35));
#209 = CIRCLE('',#210,1.65);
#210 = AXIS2_PLACEMENT_3D('',#211,#212,#213);
#211 = CARTESIAN_POINT('',(4.,17.,-8.));
#212 = DIRECTION('',(0.,1.,0.));
#213 = DIRECTION('',(0.,0.,1.));
#214 = FACE_BOUND('',#215,.T.);
#215 = EDGE_LOOP('',(#216));
#216 = ORIENTED_EDGE('',*,*,#217,.F.);
#217 = EDGE_CURVE('',#218,#218,#220,.T.);
#218 = VERTEX_POINT('',#219);
#219 = CARTESIAN_POINT('',(4.,17.,9.65));
#220 = CIRCLE('',#221,1.65);
#221 = AXIS2_PLACEMENT_3D('',#222,#223,#224);
#222 = CARTESIAN_POINT('',(4.,17.,8.));
#223 = DIRECTION('',(0.,1.,0.));
#224 = DIRECTION('',(0.,0.,1.));
#225 = FACE_BOUND('',#226,.T.);
#226 = EDGE_LOOP('',(#227));
#227 = ORIENTED_EDGE('',*,*,#228,.F.);
#228 = EDGE_CURVE('',#229,#229,#231,.T.);
#229 = VERTEX_POINT('',#230);
#230 = CARTESIAN_POINT('',(12.,17.,-6.35));
#231 = CIRCLE('',#232,1.65);
#232 = AXIS2_PLACEMENT_3D('',#233,#234,#235);
#233 = CARTESIAN_POINT('',(12.,17.,-8.));
#234 = DIRECTION('',(0.,1.,0.));
#235 = DIRECTION('',(0.,0.,1.));
#236 = FACE_BOUND('',#237,.T.);
#237 = EDGE_LOOP('',(#238));
#238 = ORIENTED_EDGE('',*,*,#239,.F.);
#239 = EDGE_CURVE('',#240,#240,#242,.T.);
#240 = VERTEX_POINT('',#241);
#241 = CARTESIAN_POINT('',(12.,17.,9.65));
#242 = CIRCLE('',#243,1.65);
#243 = AXIS2_PLACEMENT_3D('',#244,#245,#246);
#244 = CARTESIAN_POINT('',(12.,17.,8.));
#245 = DIRECTION('',(0.,1.,0.));
#246 = DIRECTION('',(0.,0.,1.));
#247 = PLANE('',#248);
#248 = AXIS2_PLACEMENT_3D('',#249,#250,#251);
#249 = CARTESIAN_POINT('',(0.,17.,-17.));
#250 = DIRECTION('',(0.,1.,0.));
#251 = DIRECTION('',(0.,0.,1.));
#252 = ADVANCED_FACE('',(#253),#272,.F.);
#253 = FACE_BOUND('',#254,.F.);
#254 = EDGE_LOOP('',(#255,#263,#270,#271));
#255 = ORIENTED_EDGE('',*,*,#256,.T.);
#256 = EDGE_CURVE('',#56,#257,#259,.T.);
#257 = VERTEX_POINT('',#258);
#258 = CARTESIAN_POINT('',(1.1,2.E-15,7.6));
#259 = LINE('',#260,#261);
#260 = CARTESIAN_POINT('',(-0.1,1.86E-15,7.6));
#261 = VECTOR('',#262,1.);
#262 = DIRECTION('',(1.,0.,0.));
#263 = ORIENTED_EDGE('',*,*,#264,.F.);
#264 = EDGE_CURVE('',#257,#257,#265,.T.);
#265 = CIRCLE('',#266,7.6);
#266 = AXIS2_PLACEMENT_3D('',#267,#268,#269);
#267 = CARTESIAN_POINT('',(1.1,0.,0.));
#268 = DIRECTION('',(1.,0.,-0.));
#269 = DIRECTION('',(0.,0.,1.));
#270 = ORIENTED_EDGE('',*,*,#256,.F.);
#271 = ORIENTED_EDGE('',*,*,#55,.T.);
#272 = CYLINDRICAL_SURFACE('',#273,7.6);
#273 = AXIS2_PLACEMENT_3D('',#274,#275,#276);
#274 = CARTESIAN_POINT('',(-0.1,0.,0.));
#275 = DIRECTION('',(1.,0.,0.));
#276 = DIRECTION('',(0.,0.,1.));
#277 = ADVANCED_FACE('',(#278,#284),#295,.T.);
#278 = FACE_BOUND('',#279,.T.);
#279 = EDGE_LOOP('',(#280,#281,#282,#283));
#280 = ORIENTED_EDGE('',*,*,#89,.F.);
#281 = ORIENTED_EDGE('',*,*,#173,.T.);
#282 = ORIENTED_EDGE('',*,*,#198,.T.);
#283 = ORIENTED_EDGE('',*,*,#149,.F.);
#284 = FACE_BOUND('',#285,.T.);
#285 = EDGE_LOOP('',(#286));
#286 = ORIENTED_EDGE('',*,*,#287,.F.);
#287 = EDGE_CURVE('',#288,#288,#290,.T.);
#288 = VERTEX_POINT('',#289);
#289 = CARTESIAN_POINT('',(44.,2.E-15,7.6));
#290 = CIRCLE('',#291,7.6);
#291 = AXIS2_PLACEMENT_3D('',#292,#293,#294);
#292 = CARTESIAN_POINT('',(44.,0.,0.));
#293 = DIRECTION('',(1.,0.,-0.));
#294 = DIRECTION('',(0.,0.,1.));
#295 = PLANE('',#296);
#296 = AXIS2_PLACEMENT_3D('',#297,#298,#299);
#297 = CARTESIAN_POINT('',(44.,-17.,-17.));
#298 = DIRECTION('',(1.,0.,0.));
#299 = DIRECTION('',(0.,0.,1.));
#300 = ADVANCED_FACE('',(#301),#409,.F.);
#301 = FACE_BOUND('',#302,.F.);
#302 = EDGE_LOOP('',(#303,#311,#312,#313,#323,#331,#341,#347,#348,#349)
  );
#303 = ORIENTED_EDGE('',*,*,#304,.T.);
#304 = EDGE_CURVE('',#305,#207,#307,.T.);
#305 = VERTEX_POINT('',#306);
#306 = CARTESIAN_POINT('',(4.,1.705322550135,-6.35));
#307 = LINE('',#308,#309);
#308 = CARTESIAN_POINT('',(4.,-18.,-6.35));
#309 = VECTOR('',#310,1.);
#310 = DIRECTION('',(0.,1.,0.));
#311 = ORIENTED_EDGE('',*,*,#206,.F.);
#312 = ORIENTED_EDGE('',*,*,#304,.F.);
#313 = ORIENTED_EDGE('',*,*,#314,.T.);
#314 = EDGE_CURVE('',#305,#315,#317,.T.);
#315 = VERTEX_POINT('',#316);
#316 = CARTESIAN_POINT('',(4.13,1.686107365958,-6.355129184404));
#317 = B_SPLINE_CURVE_WITH_KNOTS('',4,(#318,#319,#320,#321,#322),
  .UNSPECIFIED.,.F.,.F.,(5,5),(0.,1.),.PIECEWISE_BEZIER_KNOTS.);
#318 = CARTESIAN_POINT('',(4.,1.705322550135,-6.35));
#319 = CARTESIAN_POINT('',(4.032925679818,1.705322550135,-6.35));
#320 = CARTESIAN_POINT('',(4.065835499873,1.702060446803,-6.350876289556
    ));
#321 = CARTESIAN_POINT('',(4.098321782853,1.69554392176,-6.352625530429)
  );
#322 = CARTESIAN_POINT('',(4.1300006,1.686107187226,-6.355129231824));
#323 = ORIENTED_EDGE('',*,*,#324,.F.);
#324 = EDGE_CURVE('',#325,#315,#327,.T.);
#325 = VERTEX_POINT('',#326);
#326 = CARTESIAN_POINT('',(4.13,-1.686107365958,-6.355129184404));
#327 = LINE('',#328,#329);
#328 = CARTESIAN_POINT('',(4.13,-18.,-6.355129184404));
#329 = VECTOR('',#330,1.);
#330 = DIRECTION('',(0.,1.,0.));
#331 = ORIENTED_EDGE('',*,*,#332,.F.);
#332 = EDGE_CURVE('',#333,#325,#335,.T.);
#333 = VERTEX_POINT('',#334);
#334 = CARTESIAN_POINT('',(4.,-1.705322550135,-6.35));
#335 = B_SPLINE_CURVE_WITH_KNOTS('',4,(#336,#337,#338,#339,#340),
  .UNSPECIFIED.,.F.,.F.,(5,5),(0.,1.),.PIECEWISE_BEZIER_KNOTS.);
#336 = CARTESIAN_POINT('',(4.,-1.705322550135,-6.35));
#337 = CARTESIAN_POINT('',(4.032925679818,-1.705322550135,-6.35));
#338 = CARTESIAN_POINT('',(4.065835499875,-1.702060446802,
    -6.350876289556));
#339 = CARTESIAN_POINT('',(4.098321782852,-1.69554392176,-6.352625530429
    ));
#340 = CARTESIAN_POINT('',(4.1300006,-1.686107187226,-6.355129231824));
#341 = ORIENTED_EDGE('',*,*,#342,.F.);
#342 = EDGE_CURVE('',#98,#333,#343,.T.);
#343 = LINE('',#344,#345);
#344 = CARTESIAN_POINT('',(4.,-18.,-6.35));
#345 = VECTOR('',#346,1.);
#346 = DIRECTION('',(0.,1.,0.));
#347 = ORIENTED_EDGE('',*,*,#97,.T.);
#348 = ORIENTED_EDGE('',*,*,#342,.T.);
#349 = ORIENTED_EDGE('',*,*,#350,.T.);
#350 = EDGE_CURVE('',#333,#305,#351,.T.);
#351 = B_SPLINE_CURVE_WITH_KNOTS('',6,(#352,#353,#354,#355,#356,#357,
    #358,#359,#360,#361,#362,#363,#364,#365,#366,#367,#368,#369,#370,
    #371,#372,#373,#374,#375,#376,#377,#378,#379,#380,#381,#382,#383,
    #384,#385,#386,#387,#388,#389,#390,#391,#392,#393,#394,#395,#396,
    #397,#398,#399,#400,#401,#402,#403,#404,#405,#406,#407,#408),
  .UNSPECIFIED.,.F.,.F.,(7,5,5,5,5,5,5,5,5,5,5,7),(0.,6.525305370027E-02
    ,0.11077901416,0.180196553909,0.246752129574,0.307920910046,
    0.4997302759,0.725962338199,0.79112143271,0.859622968742,
    0.924154970072,1.),.UNSPECIFIED.);
#352 = CARTESIAN_POINT('',(4.,-1.705322550135,-6.35));
#353 = CARTESIAN_POINT('',(3.957273407913,-1.705322550135,-6.35));
#354 = CARTESIAN_POINT('',(3.914697774062,-1.700378584922,
    -6.351327207216));
#355 = CARTESIAN_POINT('',(3.872768408438,-1.690557159033,
    -6.353966320238));
#356 = CARTESIAN_POINT('',(3.831966410252,-1.676157397103,
    -6.357800727807));
#357 = CARTESIAN_POINT('',(3.792736655899,-1.657708440766,
    -6.362635587407));
#358 = CARTESIAN_POINT('',(3.729462527122,-1.620798099458,
    -6.372117685398));
#359 = CARTESIAN_POINT('',(3.704344354914,-1.603986716366,
    -6.376390252657));
#360 = CARTESIAN_POINT('',(3.680130112796,-1.585702208991,
    -6.380976327074));
#361 = CARTESIAN_POINT('',(3.656831153471,-1.56610868565,-6.385815478903
    ));
#362 = CARTESIAN_POINT('',(3.634451541931,-1.545365053354,
    -6.390850592176));
#363 = CARTESIAN_POINT('',(3.580261251246,-1.490476536754,
    -6.403925818057));
#364 = CARTESIAN_POINT('',(3.549641657891,-1.454988821095,
    -6.412161763828));
#365 = CARTESIAN_POINT('',(3.521020820783,-1.417592882531,
    -6.420577480823));
#366 = CARTESIAN_POINT('',(3.494283525562,-1.378638814627,
    -6.429047357465));
#367 = CARTESIAN_POINT('',(3.469309040333,-1.338396314462,
    -6.437476105882));
#368 = CARTESIAN_POINT('',(3.42359741027,-1.257418118182,-6.453770942173
    ));
#369 = CARTESIAN_POINT('',(3.40272390752,-1.216763521191,-6.461647355896
    ));
#370 = CARTESIAN_POINT('',(3.38325330443,-1.175273459976,-6.469359864395
    ));
#371 = CARTESIAN_POINT('',(3.3650933946,-1.133088674267,-6.476861156403)
  );
#372 = CARTESIAN_POINT('',(3.348157974111,-1.090308336092,
    -6.484117367111));
#373 = CARTESIAN_POINT('',(3.317853535058,-1.007177696174,
    -6.497526017169));
#374 = CARTESIAN_POINT('',(3.304309746964,-0.966918893053,
    -6.503718965674));
#375 = CARTESIAN_POINT('',(3.291682029356,-0.926284144853,
    -6.509660592345));
#376 = CARTESIAN_POINT('',(3.279922010957,-0.885328272444,
    -6.515334130277));
#377 = CARTESIAN_POINT('',(3.268986068638,-0.84409033775,-6.520727300322
    ));
#378 = CARTESIAN_POINT('',(3.227004443144,-0.672470744804,
    -6.541834312481));
#379 = CARTESIAN_POINT('',(3.202854743807,-0.539648029518,
    -6.555009235875));
#380 = CARTESIAN_POINT('',(3.185388080455,-0.405517681486,
    -6.564972945617));
#381 = CARTESIAN_POINT('',(3.173949043341,-0.270717424492,
    -6.571649880736));
#382 = CARTESIAN_POINT('',(3.168209762019,-0.135482833892,-6.575));
#383 = CARTESIAN_POINT('',(3.168209762019,0.159796998343,-6.575));
#384 = CARTESIAN_POINT('',(3.176193979778,0.318981662554,-6.570339359845
    ));
#385 = CARTESIAN_POINT('',(3.192047252518,0.477440055453,-6.561086458261
    ));
#386 = CARTESIAN_POINT('',(3.216428822032,0.634956388876,-6.547301512754
    ));
#387 = CARTESIAN_POINT('',(3.250654873392,0.790331916487,-6.52909049415)
  );
#388 = CARTESIAN_POINT('',(3.309985361028,0.98375426629,-6.501135466073)
  );
#389 = CARTESIAN_POINT('',(3.324243853006,1.026605088511,-6.494590133514
    ));
#390 = CARTESIAN_POINT('',(3.339555321845,1.06901630815,-6.487766850947)
  );
#391 = CARTESIAN_POINT('',(3.355987291045,1.110920369528,-6.480688064138
    ));
#392 = CARTESIAN_POINT('',(3.373613427647,1.152220715148,-6.47338508463)
  );
#393 = CARTESIAN_POINT('',(3.412383626073,1.235444102897,-6.458032517291
    ));
#394 = CARTESIAN_POINT('',(3.433659095766,1.277284958361,-6.449964897672
    ));
#395 = CARTESIAN_POINT('',(3.456450081191,1.318203936109,-6.441741021753
    ));
#396 = CARTESIAN_POINT('',(3.480869257941,1.358025940116,-6.433422072308
    ));
#397 = CARTESIAN_POINT('',(3.507031767466,1.39651122412,-6.425091954635)
  );
#398 = CARTESIAN_POINT('',(3.56145417275,1.468064483992,-6.409108869662)
  );
#399 = CARTESIAN_POINT('',(3.589534147062,1.501356034019,-6.401436027655
    ));
#400 = CARTESIAN_POINT('',(3.619367752252,1.532923422256,-6.393946237902
    ));
#401 = CARTESIAN_POINT('',(3.651010496132,1.562410984626,-6.386766929593
    ));
#402 = CARTESIAN_POINT('',(3.684499057904,1.589413170081,-6.380047553075
    ));
#403 = CARTESIAN_POINT('',(3.761397983862,1.641752277293,-6.366798675835
    ));
#404 = CARTESIAN_POINT('',(3.805776615431,1.666142722349,-6.360464496629
    ));
#405 = CARTESIAN_POINT('',(3.852474677568,1.685397022621,-6.355351427555
    ));
#406 = CARTESIAN_POINT('',(3.900876835601,1.698630902026,-6.351796985147
    ));
#407 = CARTESIAN_POINT('',(3.950291916153,1.705322550135,-6.35));
#408 = CARTESIAN_POINT('',(4.,1.705322550135,-6.35));
#409 = CYLINDRICAL_SURFACE('',#410,1.65);
#410 = AXIS2_PLACEMENT_3D('',#411,#412,#413);
#411 = CARTESIAN_POINT('',(4.,-18.,-8.));
#412 = DIRECTION('',(0.,1.,0.));
#413 = DIRECTION('',(0.,0.,1.));
#414 = ADVANCED_FACE('',(#415,#426),#534,.F.);
#415 = FACE_BOUND('',#416,.F.);
#416 = EDGE_LOOP('',(#417,#423,#424,#425));
#417 = ORIENTED_EDGE('',*,*,#418,.T.);
#418 = EDGE_CURVE('',#109,#218,#419,.T.);
#419 = LINE('',#420,#421);
#420 = CARTESIAN_POINT('',(4.,-18.,9.65));
#421 = VECTOR('',#422,1.);
#422 = DIRECTION('',(0.,1.,0.));
#423 = ORIENTED_EDGE('',*,*,#217,.F.);
#424 = ORIENTED_EDGE('',*,*,#418,.F.);
#425 = ORIENTED_EDGE('',*,*,#108,.T.);
#426 = FACE_BOUND('',#427,.F.);
#427 = EDGE_LOOP('',(#428,#438,#487));
#428 = ORIENTED_EDGE('',*,*,#429,.T.);
#429 = EDGE_CURVE('',#430,#432,#434,.T.);
#430 = VERTEX_POINT('',#431);
#431 = CARTESIAN_POINT('',(4.13,-1.686107365958,6.355129184404));
#432 = VERTEX_POINT('',#433);
#433 = CARTESIAN_POINT('',(4.13,1.686107365958,6.355129184404));
#434 = LINE('',#435,#436);
#435 = CARTESIAN_POINT('',(4.13,-18.,6.355129184404));
#436 = VECTOR('',#437,1.);
#437 = DIRECTION('',(0.,1.,0.));
#438 = ORIENTED_EDGE('',*,*,#439,.T.);
#439 = EDGE_CURVE('',#432,#440,#442,.T.);
#440 = VERTEX_POINT('',#441);
#441 = CARTESIAN_POINT('',(3.168209762019,1.610410540879E-15,6.575));
#442 = B_SPLINE_CURVE_WITH_KNOTS('',8,(#443,#444,#445,#446,#447,#448,
    #449,#450,#451,#452,#453,#454,#455,#456,#457,#458,#459,#460,#461,
    #462,#463,#464,#465,#466,#467,#468,#469,#470,#471,#472,#473,#474,
    #475,#476,#477,#478,#479,#480,#481,#482,#483,#484,#485,#486),
  .UNSPECIFIED.,.F.,.F.,(9,7,7,7,7,7,9),(0.,6.323534902727E-02,
    0.143956609555,0.186271197213,0.271807649361,0.402100742736,1.),
  .UNSPECIFIED.);
#443 = CARTESIAN_POINT('',(4.1300006,1.686107187226,6.355129231824));
#444 = CARTESIAN_POINT('',(4.114161199834,1.690825551988,6.353877381791)
  );
#445 = CARTESIAN_POINT('',(4.098148768381,1.694918159968,6.352787201219)
  );
#446 = CARTESIAN_POINT('',(4.081990726624,1.698361137544,6.351867154101)
  );
#447 = CARTESIAN_POINT('',(4.06571483701,1.701135276201,6.351124059289)
  );
#448 = CARTESIAN_POINT('',(4.049349203444,1.703226032532,6.350563090486)
  );
#449 = CARTESIAN_POINT('',(4.032922271292,1.70462352824,6.350187776252)
  );
#450 = CARTESIAN_POINT('',(4.016462827382,1.705322550135,6.35));
#451 = CARTESIAN_POINT('',(3.978984852641,1.705322550135,6.35));
#452 = CARTESIAN_POINT('',(3.957980736049,1.704183442003,6.350305880304)
  );
#453 = CARTESIAN_POINT('',(3.937045778481,1.701907531427,6.350917127103)
  );
#454 = CARTESIAN_POINT('',(3.916237134738,1.698508626169,6.351828720756)
  );
#455 = CARTESIAN_POINT('',(3.895610923321,1.694012061818,6.353031367875)
  );
#456 = CARTESIAN_POINT('',(3.875222163593,1.688454727543,6.354511733413)
  );
#457 = CARTESIAN_POINT('',(3.855124712938,1.681885091841,6.356252672747)
  );
#458 = CARTESIAN_POINT('',(3.825016291435,1.670420220563,6.359271806756)
  );
#459 = CARTESIAN_POINT('',(3.814751102413,1.666213629594,6.360376582787)
  );
#460 = CARTESIAN_POINT('',(3.804580895389,1.661750992508,6.361545089796)
  );
#461 = CARTESIAN_POINT('',(3.794510346677,1.657039959981,6.36277458368)
  );
#462 = CARTESIAN_POINT('',(3.784543550381,1.652088296244,6.364062278284)
  );
#463 = CARTESIAN_POINT('',(3.774684018389,1.646903879084,6.365405345411)
  );
#464 = CARTESIAN_POINT('',(3.764934680377,1.641494699843,6.366800914816)
  );
#465 = CARTESIAN_POINT('',(3.73581766589,1.624496565718,6.371167378993)
  );
#466 = CARTESIAN_POINT('',(3.716810780065,1.612246381766,6.37428946301)
  );
#467 = CARTESIAN_POINT('',(3.698283913714,1.599178671661,6.377590149876)
  );
#468 = CARTESIAN_POINT('',(3.680242156259,1.585352638477,6.381047659665)
  );
#469 = CARTESIAN_POINT('',(3.662689020711,1.570826349894,6.384640764938)
  );
#470 = CARTESIAN_POINT('',(3.645626465207,1.555656759821,6.388348946772)
  );
#471 = CARTESIAN_POINT('',(3.629054914554,1.539899730026,6.392152550787)
  );
#472 = CARTESIAN_POINT('',(3.588476992418,1.49879685786,6.40194373694));
#473 = CARTESIAN_POINT('',(3.565105197128,1.472735597955,6.408035644586)
  );
#474 = CARTESIAN_POINT('',(3.542819329979,1.44557922918,6.414251972533)
  );
#475 = CARTESIAN_POINT('',(3.521579426844,1.417463545135,6.420543271372)
  );
#476 = CARTESIAN_POINT('',(3.501344235696,1.388507209503,6.426866938493)
  );
#477 = CARTESIAN_POINT('',(3.482071326915,1.358811789683,6.433186820711)
  );
#478 = CARTESIAN_POINT('',(3.463717203602,1.328461790408,6.439472816898)
  );
#479 = CARTESIAN_POINT('',(3.366024760414,1.155558060881,6.47427847662)
  );
#480 = CARTESIAN_POINT('',(3.303414053335,0.999790297658,6.501916768935)
  );
#481 = CARTESIAN_POINT('',(3.255500796181,0.837500940481,6.525946938649)
  );
#482 = CARTESIAN_POINT('',(3.219639722489,0.672402822579,6.545375533948)
  );
#483 = CARTESIAN_POINT('',(3.193868183224,0.506272885649,6.560023820256)
  );
#484 = CARTESIAN_POINT('',(3.176906993517,0.339380062831,6.569923122964)
  );
#485 = CARTESIAN_POINT('',(3.168209762019,0.170893063516,6.575));
#486 = CARTESIAN_POINT('',(3.168209762019,8.052052704394E-16,6.575));
#487 = ORIENTED_EDGE('',*,*,#488,.F.);
#488 = EDGE_CURVE('',#430,#440,#489,.T.);
#489 = B_SPLINE_CURVE_WITH_KNOTS('',8,(#490,#491,#492,#493,#494,#495,
    #496,#497,#498,#499,#500,#501,#502,#503,#504,#505,#506,#507,#508,
    #509,#510,#511,#512,#513,#514,#515,#516,#517,#518,#519,#520,#521,
    #522,#523,#524,#525,#526,#527,#528,#529,#530,#531,#532,#533),
  .UNSPECIFIED.,.F.,.F.,(9,7,7,7,7,7,9),(0.,6.323534902442E-02,
    0.143956609551,0.186271197209,0.271807649357,0.402100742734,1.),
  .UNSPECIFIED.);
#490 = CARTESIAN_POINT('',(4.1300006,-1.686107187226,6.355129231824));
#491 = CARTESIAN_POINT('',(4.114161199834,-1.690825551988,6.353877381791
    ));
#492 = CARTESIAN_POINT('',(4.098148768381,-1.694918159968,6.352787201219
    ));
#493 = CARTESIAN_POINT('',(4.081990726624,-1.698361137544,6.351867154101
    ));
#494 = CARTESIAN_POINT('',(4.06571483701,-1.701135276201,6.351124059289)
  );
#495 = CARTESIAN_POINT('',(4.049349203444,-1.703226032532,6.350563090486
    ));
#496 = CARTESIAN_POINT('',(4.032922271292,-1.70462352824,6.350187776252)
  );
#497 = CARTESIAN_POINT('',(4.016462827382,-1.705322550135,6.35));
#498 = CARTESIAN_POINT('',(3.97898485264,-1.705322550135,6.35));
#499 = CARTESIAN_POINT('',(3.957980736048,-1.704183442003,6.350305880304
    ));
#500 = CARTESIAN_POINT('',(3.937045778482,-1.701907531427,6.350917127103
    ));
#501 = CARTESIAN_POINT('',(3.916237134739,-1.698508626169,6.351828720756
    ));
#502 = CARTESIAN_POINT('',(3.895610923322,-1.694012061819,6.353031367875
    ));
#503 = CARTESIAN_POINT('',(3.875222163593,-1.688454727543,6.354511733413
    ));
#504 = CARTESIAN_POINT('',(3.855124712938,-1.681885091841,6.356252672747
    ));
#505 = CARTESIAN_POINT('',(3.825016291435,-1.670420220563,6.359271806756
    ));
#506 = CARTESIAN_POINT('',(3.814751102413,-1.666213629594,6.360376582787
    ));
#507 = CARTESIAN_POINT('',(3.804580895389,-1.661750992508,6.361545089796
    ));
#508 = CARTESIAN_POINT('',(3.794510346677,-1.657039959981,6.36277458368)
  );
#509 = CARTESIAN_POINT('',(3.784543550381,-1.652088296244,6.364062278284
    ));
#510 = CARTESIAN_POINT('',(3.774684018389,-1.646903879084,6.365405345411
    ));
#511 = CARTESIAN_POINT('',(3.764934680377,-1.641494699843,6.366800914816
    ));
#512 = CARTESIAN_POINT('',(3.73581766589,-1.624496565718,6.371167378993)
  );
#513 = CARTESIAN_POINT('',(3.716810780065,-1.612246381766,6.37428946301)
  );
#514 = CARTESIAN_POINT('',(3.698283913714,-1.599178671661,6.377590149876
    ));
#515 = CARTESIAN_POINT('',(3.680242156259,-1.585352638477,6.381047659665
    ));
#516 = CARTESIAN_POINT('',(3.662689020711,-1.570826349894,6.384640764938
    ));
#517 = CARTESIAN_POINT('',(3.645626465207,-1.555656759821,6.388348946772
    ));
#518 = CARTESIAN_POINT('',(3.629054914554,-1.539899730026,6.392152550787
    ));
#519 = CARTESIAN_POINT('',(3.588476992418,-1.49879685786,6.40194373694)
  );
#520 = CARTESIAN_POINT('',(3.565105197128,-1.472735597955,6.408035644586
    ));
#521 = CARTESIAN_POINT('',(3.542819329979,-1.44557922918,6.414251972533)
  );
#522 = CARTESIAN_POINT('',(3.521579426844,-1.417463545135,6.420543271372
    ));
#523 = CARTESIAN_POINT('',(3.501344235696,-1.388507209503,6.426866938493
    ));
#524 = CARTESIAN_POINT('',(3.482071326915,-1.358811789683,6.433186820711
    ));
#525 = CARTESIAN_POINT('',(3.463717203602,-1.328461790408,6.439472816898
    ));
#526 = CARTESIAN_POINT('',(3.366024760414,-1.155558060881,6.47427847662)
  );
#527 = CARTESIAN_POINT('',(3.303414053335,-0.999790297658,6.501916768935
    ));
#528 = CARTESIAN_POINT('',(3.255500796181,-0.837500940481,6.525946938649
    ));
#529 = CARTESIAN_POINT('',(3.219639722489,-0.672402822577,6.545375533948
    ));
#530 = CARTESIAN_POINT('',(3.193868183224,-0.50627288565,6.560023820256)
  );
#531 = CARTESIAN_POINT('',(3.176906993517,-0.33938006283,6.569923122964)
  );
#532 = CARTESIAN_POINT('',(3.168209762019,-0.170893063517,6.575));
#533 = CARTESIAN_POINT('',(3.168209762019,0.,6.575));
#534 = CYLINDRICAL_SURFACE('',#535,1.65);
#535 = AXIS2_PLACEMENT_3D('',#536,#537,#538);
#536 = CARTESIAN_POINT('',(4.,-18.,8.));
#537 = DIRECTION('',(0.,1.,0.));
#538 = DIRECTION('',(0.,0.,1.));
#539 = ADVANCED_FACE('',(#540),#592,.F.);
#540 = FACE_BOUND('',#541,.F.);
#541 = EDGE_LOOP('',(#542,#550,#551,#552,#561,#569,#578,#584,#585,#586)
  );
#542 = ORIENTED_EDGE('',*,*,#543,.T.);
#543 = EDGE_CURVE('',#544,#229,#546,.T.);
#544 = VERTEX_POINT('',#545);
#545 = CARTESIAN_POINT('',(12.,10.,-6.35));
#546 = LINE('',#547,#548);
#547 = CARTESIAN_POINT('',(12.,-18.,-6.35));
#548 = VECTOR('',#549,1.);
#549 = DIRECTION('',(0.,1.,0.));
#550 = ORIENTED_EDGE('',*,*,#228,.F.);
#551 = ORIENTED_EDGE('',*,*,#543,.F.);
#552 = ORIENTED_EDGE('',*,*,#553,.T.);
#553 = EDGE_CURVE('',#544,#554,#556,.T.);
#554 = VERTEX_POINT('',#555);
#555 = CARTESIAN_POINT('',(12.,10.,-9.65));
#556 = CIRCLE('',#557,1.65);
#557 = AXIS2_PLACEMENT_3D('',#558,#559,#560);
#558 = CARTESIAN_POINT('',(12.,10.,-8.));
#559 = DIRECTION('',(0.,1.,0.));
#560 = DIRECTION('',(0.,0.,1.));
#561 = ORIENTED_EDGE('',*,*,#562,.F.);
#562 = EDGE_CURVE('',#563,#554,#565,.T.);
#563 = VERTEX_POINT('',#564);
#564 = CARTESIAN_POINT('',(12.,-10.,-9.65));
#565 = LINE('',#566,#567);
#566 = CARTESIAN_POINT('',(12.,-18.,-9.65));
#567 = VECTOR('',#568,1.);
#568 = DIRECTION('',(0.,1.,0.));
#569 = ORIENTED_EDGE('',*,*,#570,.F.);
#570 = EDGE_CURVE('',#571,#563,#573,.T.);
#571 = VERTEX_POINT('',#572);
#572 = CARTESIAN_POINT('',(12.,-10.,-6.35));
#573 = CIRCLE('',#574,1.65);
#574 = AXIS2_PLACEMENT_3D('',#575,#576,#577);
#575 = CARTESIAN_POINT('',(12.,-10.,-8.));
#576 = DIRECTION('',(0.,1.,0.));
#577 = DIRECTION('',(0.,0.,1.));
#578 = ORIENTED_EDGE('',*,*,#579,.F.);
#579 = EDGE_CURVE('',#120,#571,#580,.T.);
#580 = LINE('',#581,#582);
#581 = CARTESIAN_POINT('',(12.,-18.,-6.35));
#582 = VECTOR('',#583,1.);
#583 = DIRECTION('',(0.,1.,0.));
#584 = ORIENTED_EDGE('',*,*,#119,.T.);
#585 = ORIENTED_EDGE('',*,*,#579,.T.);
#586 = ORIENTED_EDGE('',*,*,#587,.T.);
#587 = EDGE_CURVE('',#571,#544,#588,.T.);
#588 = LINE('',#589,#590);
#589 = CARTESIAN_POINT('',(12.,-18.,-6.35));
#590 = VECTOR('',#591,1.);
#591 = DIRECTION('',(0.,1.,0.));
#592 = CYLINDRICAL_SURFACE('',#593,1.65);
#593 = AXIS2_PLACEMENT_3D('',#594,#595,#596);
#594 = CARTESIAN_POINT('',(12.,-18.,-8.));
#595 = DIRECTION('',(0.,1.,0.));
#596 = DIRECTION('',(0.,0.,1.));
#597 = ADVANCED_FACE('',(#598),#650,.F.);
#598 = FACE_BOUND('',#599,.F.);
#599 = EDGE_LOOP('',(#600,#608,#609,#610,#619,#627,#636,#642,#643,#644)
  );
#600 = ORIENTED_EDGE('',*,*,#601,.T.);
#601 = EDGE_CURVE('',#602,#240,#604,.T.);
#602 = VERTEX_POINT('',#603);
#603 = CARTESIAN_POINT('',(12.,10.,9.65));
#604 = LINE('',#605,#606);
#605 = CARTESIAN_POINT('',(12.,-18.,9.65));
#606 = VECTOR('',#607,1.);
#607 = DIRECTION('',(0.,1.,0.));
#608 = ORIENTED_EDGE('',*,*,#239,.F.);
#609 = ORIENTED_EDGE('',*,*,#601,.F.);
#610 = ORIENTED_EDGE('',*,*,#611,.T.);
#611 = EDGE_CURVE('',#602,#612,#614,.T.);
#612 = VERTEX_POINT('',#613);
#613 = CARTESIAN_POINT('',(12.,10.,6.35));
#614 = CIRCLE('',#615,1.65);
#615 = AXIS2_PLACEMENT_3D('',#616,#617,#618);
#616 = CARTESIAN_POINT('',(12.,10.,8.));
#617 = DIRECTION('',(0.,1.,0.));
#618 = DIRECTION('',(0.,0.,1.));
#619 = ORIENTED_EDGE('',*,*,#620,.F.);
#620 = EDGE_CURVE('',#621,#612,#623,.T.);
#621 = VERTEX_POINT('',#622);
#622 = CARTESIAN_POINT('',(12.,-10.,6.35));
#623 = LINE('',#624,#625);
#624 = CARTESIAN_POINT('',(12.,-18.,6.35));
#625 = VECTOR('',#626,1.);
#626 = DIRECTION('',(0.,1.,0.));
#627 = ORIENTED_EDGE('',*,*,#628,.F.);
#628 = EDGE_CURVE('',#629,#621,#631,.T.);
#629 = VERTEX_POINT('',#630);
#630 = CARTESIAN_POINT('',(12.,-10.,9.65));
#631 = CIRCLE('',#632,1.65);
#632 = AXIS2_PLACEMENT_3D('',#633,#634,#635);
#633 = CARTESIAN_POINT('',(12.,-10.,8.));
#634 = DIRECTION('',(0.,1.,0.));
#635 = DIRECTION('',(0.,0.,1.));
#636 = ORIENTED_EDGE('',*,*,#637,.F.);
#637 = EDGE_CURVE('',#131,#629,#638,.T.);
#638 = LINE('',#639,#640);
#639 = CARTESIAN_POINT('',(12.,-18.,9.65));
#640 = VECTOR('',#641,1.);
#641 = DIRECTION('',(0.,1.,0.));
#642 = ORIENTED_EDGE('',*,*,#130,.T.);
#643 = ORIENTED_EDGE('',*,*,#637,.T.);
#644 = ORIENTED_EDGE('',*,*,#645,.T.);
#645 = EDGE_CURVE('',#629,#602,#646,.T.);
#646 = LINE('',#647,#648);
#647 = CARTESIAN_POINT('',(12.,-18.,9.65));
#648 = VECTOR('',#649,1.);
#649 = DIRECTION('',(0.,1.,0.));
#650 = CYLINDRICAL_SURFACE('',#651,1.65);
#651 = AXIS2_PLACEMENT_3D('',#652,#653,#654);
#652 = CARTESIAN_POINT('',(12.,-18.,8.));
#653 = DIRECTION('',(0.,1.,0.));
#654 = DIRECTION('',(0.,0.,1.));
#655 = ADVANCED_FACE('',(#656,#659),#670,.F.);
#656 = FACE_BOUND('',#657,.F.);
#657 = EDGE_LOOP('',(#658));
#658 = ORIENTED_EDGE('',*,*,#264,.T.);
#659 = FACE_BOUND('',#660,.F.);
#660 = EDGE_LOOP('',(#661));
#661 = ORIENTED_EDGE('',*,*,#662,.F.);
#662 = EDGE_CURVE('',#663,#663,#665,.T.);
#663 = VERTEX_POINT('',#664);
#664 = CARTESIAN_POINT('',(1.1,1.610410540879E-15,6.575));
#665 = CIRCLE('',#666,6.575);
#666 = AXIS2_PLACEMENT_3D('',#667,#668,#669);
#667 = CARTESIAN_POINT('',(1.1,0.,0.));
#668 = DIRECTION('',(1.,0.,-0.));
#669 = DIRECTION('',(0.,0.,1.));
#670 = PLANE('',#671);
#671 = AXIS2_PLACEMENT_3D('',#672,#673,#674);
#672 = CARTESIAN_POINT('',(1.1,0.,0.));
#673 = DIRECTION('',(1.,0.,0.));
#674 = DIRECTION('',(0.,0.,1.));
#675 = ADVANCED_FACE('',(#676),#695,.F.);
#676 = FACE_BOUND('',#677,.F.);
#677 = EDGE_LOOP('',(#678,#679,#687,#694));
#678 = ORIENTED_EDGE('',*,*,#287,.F.);
#679 = ORIENTED_EDGE('',*,*,#680,.F.);
#680 = EDGE_CURVE('',#681,#288,#683,.T.);
#681 = VERTEX_POINT('',#682);
#682 = CARTESIAN_POINT('',(42.9,2.E-15,7.6));
#683 = LINE('',#684,#685);
#684 = CARTESIAN_POINT('',(42.9,1.86E-15,7.6));
#685 = VECTOR('',#686,1.);
#686 = DIRECTION('',(1.,0.,0.));
#687 = ORIENTED_EDGE('',*,*,#688,.T.);
#688 = EDGE_CURVE('',#681,#681,#689,.T.);
#689 = CIRCLE('',#690,7.6);
#690 = AXIS2_PLACEMENT_3D('',#691,#692,#693);
#691 = CARTESIAN_POINT('',(42.9,0.,0.));
#692 = DIRECTION('',(1.,0.,-0.));
#693 = DIRECTION('',(0.,0.,1.));
#694 = ORIENTED_EDGE('',*,*,#680,.T.);
#695 = CYLINDRICAL_SURFACE('',#696,7.6);
#696 = AXIS2_PLACEMENT_3D('',#697,#698,#699);
#697 = CARTESIAN_POINT('',(42.9,0.,0.));
#698 = DIRECTION('',(1.,0.,0.));
#699 = DIRECTION('',(0.,0.,1.));
#700 = ADVANCED_FACE('',(#701),#730,.F.);
#701 = FACE_BOUND('',#702,.F.);
#702 = EDGE_LOOP('',(#703,#710,#711,#717,#718,#719,#720,#727,#728,#729)
  );
#703 = ORIENTED_EDGE('',*,*,#704,.F.);
#704 = EDGE_CURVE('',#430,#325,#705,.T.);
#705 = CIRCLE('',#706,6.575);
#706 = AXIS2_PLACEMENT_3D('',#707,#708,#709);
#707 = CARTESIAN_POINT('',(4.13,0.,0.));
#708 = DIRECTION('',(1.,0.,-0.));
#709 = DIRECTION('',(0.,0.,1.));
#710 = ORIENTED_EDGE('',*,*,#488,.T.);
#711 = ORIENTED_EDGE('',*,*,#712,.F.);
#712 = EDGE_CURVE('',#663,#440,#713,.T.);
#713 = LINE('',#714,#715);
#714 = CARTESIAN_POINT('',(1.07,1.610410540879E-15,6.575));
#715 = VECTOR('',#716,1.);
#716 = DIRECTION('',(1.,0.,0.));
#717 = ORIENTED_EDGE('',*,*,#662,.T.);
#718 = ORIENTED_EDGE('',*,*,#712,.T.);
#719 = ORIENTED_EDGE('',*,*,#439,.F.);
#720 = ORIENTED_EDGE('',*,*,#721,.F.);
#721 = EDGE_CURVE('',#315,#432,#722,.T.);
#722 = CIRCLE('',#723,6.575);
#723 = AXIS2_PLACEMENT_3D('',#724,#725,#726);
#724 = CARTESIAN_POINT('',(4.13,0.,0.));
#725 = DIRECTION('',(1.,0.,-0.));
#726 = DIRECTION('',(0.,0.,1.));
#727 = ORIENTED_EDGE('',*,*,#314,.F.);
#728 = ORIENTED_EDGE('',*,*,#350,.F.);
#729 = ORIENTED_EDGE('',*,*,#332,.T.);
#730 = CYLINDRICAL_SURFACE('',#731,6.575);
#731 = AXIS2_PLACEMENT_3D('',#732,#733,#734);
#732 = CARTESIAN_POINT('',(1.07,0.,0.));
#733 = DIRECTION('',(1.,0.,0.));
#734 = DIRECTION('',(0.,0.,1.));
#735 = ADVANCED_FACE('',(#736,#742),#753,.F.);
#736 = FACE_BOUND('',#737,.F.);
#737 = EDGE_LOOP('',(#738,#739,#740,#741));
#738 = ORIENTED_EDGE('',*,*,#429,.F.);
#739 = ORIENTED_EDGE('',*,*,#704,.T.);
#740 = ORIENTED_EDGE('',*,*,#324,.T.);
#741 = ORIENTED_EDGE('',*,*,#721,.T.);
#742 = FACE_BOUND('',#743,.F.);
#743 = EDGE_LOOP('',(#744));
#744 = ORIENTED_EDGE('',*,*,#745,.F.);
#745 = EDGE_CURVE('',#746,#746,#748,.T.);
#746 = VERTEX_POINT('',#747);
#747 = CARTESIAN_POINT('',(4.13,6.5E-16,2.65));
#748 = CIRCLE('',#749,2.65);
#749 = AXIS2_PLACEMENT_3D('',#750,#751,#752);
#750 = CARTESIAN_POINT('',(4.13,0.,0.));
#751 = DIRECTION('',(1.,0.,-0.));
#752 = DIRECTION('',(0.,0.,1.));
#753 = PLANE('',#754);
#754 = AXIS2_PLACEMENT_3D('',#755,#756,#757);
#755 = CARTESIAN_POINT('',(4.13,0.,0.));
#756 = DIRECTION('',(1.,0.,0.));
#757 = DIRECTION('',(0.,0.,1.));
#758 = ADVANCED_FACE('',(#759,#775),#786,.T.);
#759 = FACE_BOUND('',#760,.T.);
#760 = EDGE_LOOP('',(#761,#762,#768,#769));
#761 = ORIENTED_EDGE('',*,*,#620,.F.);
#762 = ORIENTED_EDGE('',*,*,#763,.F.);
#763 = EDGE_CURVE('',#571,#621,#764,.T.);
#764 = LINE('',#765,#766);
#765 = CARTESIAN_POINT('',(12.,-10.,-11.));
#766 = VECTOR('',#767,1.);
#767 = DIRECTION('',(0.,0.,1.));
#768 = ORIENTED_EDGE('',*,*,#587,.T.);
#769 = ORIENTED_EDGE('',*,*,#770,.T.);
#770 = EDGE_CURVE('',#544,#612,#771,.T.);
#771 = LINE('',#772,#773);
#772 = CARTESIAN_POINT('',(12.,10.,-11.));
#773 = VECTOR('',#774,1.);
#774 = DIRECTION('',(0.,0.,1.));
#775 = FACE_BOUND('',#776,.T.);
#776 = EDGE_LOOP('',(#777));
#777 = ORIENTED_EDGE('',*,*,#778,.F.);
#778 = EDGE_CURVE('',#779,#779,#781,.T.);
#779 = VERTEX_POINT('',#780);
#780 = CARTESIAN_POINT('',(12.,1.E-15,2.65));
#781 = CIRCLE('',#782,2.65);
#782 = AXIS2_PLACEMENT_3D('',#783,#784,#785);
#783 = CARTESIAN_POINT('',(12.,0.,0.));
#784 = DIRECTION('',(1.,0.,-0.));
#785 = DIRECTION('',(0.,0.,1.));
#786 = PLANE('',#787);
#787 = AXIS2_PLACEMENT_3D('',#788,#789,#790);
#788 = CARTESIAN_POINT('',(12.,-10.,-11.));
#789 = DIRECTION('',(1.,0.,0.));
#790 = DIRECTION('',(0.,0.,1.));
#791 = ADVANCED_FACE('',(#792),#835,.T.);
#792 = FACE_BOUND('',#793,.T.);
#793 = EDGE_LOOP('',(#794,#804,#812,#818,#819,#820,#821,#829));
#794 = ORIENTED_EDGE('',*,*,#795,.F.);
#795 = EDGE_CURVE('',#796,#798,#800,.T.);
#796 = VERTEX_POINT('',#797);
#797 = CARTESIAN_POINT('',(36.,-10.,-11.));
#798 = VERTEX_POINT('',#799);
#799 = CARTESIAN_POINT('',(36.,-10.,11.));
#800 = LINE('',#801,#802);
#801 = CARTESIAN_POINT('',(36.,-10.,-11.));
#802 = VECTOR('',#803,1.);
#803 = DIRECTION('',(0.,0.,1.));
#804 = ORIENTED_EDGE('',*,*,#805,.F.);
#805 = EDGE_CURVE('',#806,#796,#808,.T.);
#806 = VERTEX_POINT('',#807);
#807 = CARTESIAN_POINT('',(12.,-10.,-11.));
#808 = LINE('',#809,#810);
#809 = CARTESIAN_POINT('',(12.,-10.,-11.));
#810 = VECTOR('',#811,1.);
#811 = DIRECTION('',(1.,0.,0.));
#812 = ORIENTED_EDGE('',*,*,#813,.T.);
#813 = EDGE_CURVE('',#806,#563,#814,.T.);
#814 = LINE('',#815,#816);
#815 = CARTESIAN_POINT('',(12.,-10.,-11.));
#816 = VECTOR('',#817,1.);
#817 = DIRECTION('',(0.,0.,1.));
#818 = ORIENTED_EDGE('',*,*,#570,.F.);
#819 = ORIENTED_EDGE('',*,*,#763,.T.);
#820 = ORIENTED_EDGE('',*,*,#628,.F.);
#821 = ORIENTED_EDGE('',*,*,#822,.T.);
#822 = EDGE_CURVE('',#629,#823,#825,.T.);
#823 = VERTEX_POINT('',#824);
#824 = CARTESIAN_POINT('',(12.,-10.,11.));
#825 = LINE('',#826,#827);
#826 = CARTESIAN_POINT('',(12.,-10.,-11.));
#827 = VECTOR('',#828,1.);
#828 = DIRECTION('',(0.,0.,1.));
#829 = ORIENTED_EDGE('',*,*,#830,.T.);
#830 = EDGE_CURVE('',#823,#798,#831,.T.);
#831 = LINE('',#832,#833);
#832 = CARTESIAN_POINT('',(12.,-10.,11.));
#833 = VECTOR('',#834,1.);
#834 = DIRECTION('',(1.,0.,0.));
#835 = PLANE('',#836);
#836 = AXIS2_PLACEMENT_3D('',#837,#838,#839);
#837 = CARTESIAN_POINT('',(12.,-10.,-11.));
#838 = DIRECTION('',(0.,1.,0.));
#839 = DIRECTION('',(0.,0.,1.));
#840 = ADVANCED_FACE('',(#841),#859,.T.);
#841 = FACE_BOUND('',#842,.T.);
#842 = EDGE_LOOP('',(#843,#844,#845,#853));
#843 = ORIENTED_EDGE('',*,*,#562,.F.);
#844 = ORIENTED_EDGE('',*,*,#813,.F.);
#845 = ORIENTED_EDGE('',*,*,#846,.T.);
#846 = EDGE_CURVE('',#806,#847,#849,.T.);
#847 = VERTEX_POINT('',#848);
#848 = CARTESIAN_POINT('',(12.,10.,-11.));
#849 = LINE('',#850,#851);
#850 = CARTESIAN_POINT('',(12.,-10.,-11.));
#851 = VECTOR('',#852,1.);
#852 = DIRECTION('',(0.,1.,0.));
#853 = ORIENTED_EDGE('',*,*,#854,.T.);
#854 = EDGE_CURVE('',#847,#554,#855,.T.);
#855 = LINE('',#856,#857);
#856 = CARTESIAN_POINT('',(12.,10.,-11.));
#857 = VECTOR('',#858,1.);
#858 = DIRECTION('',(0.,0.,1.));
#859 = PLANE('',#860);
#860 = AXIS2_PLACEMENT_3D('',#861,#862,#863);
#861 = CARTESIAN_POINT('',(12.,-10.,-11.));
#862 = DIRECTION('',(1.,0.,0.));
#863 = DIRECTION('',(0.,0.,1.));
#864 = ADVANCED_FACE('',(#865),#901,.F.);
#865 = FACE_BOUND('',#866,.F.);
#866 = EDGE_LOOP('',(#867,#877,#883,#884,#885,#886,#887,#895));
#867 = ORIENTED_EDGE('',*,*,#868,.F.);
#868 = EDGE_CURVE('',#869,#871,#873,.T.);
#869 = VERTEX_POINT('',#870);
#870 = CARTESIAN_POINT('',(36.,10.,-11.));
#871 = VERTEX_POINT('',#872);
#872 = CARTESIAN_POINT('',(36.,10.,11.));
#873 = LINE('',#874,#875);
#874 = CARTESIAN_POINT('',(36.,10.,-11.));
#875 = VECTOR('',#876,1.);
#876 = DIRECTION('',(0.,0.,1.));
#877 = ORIENTED_EDGE('',*,*,#878,.F.);
#878 = EDGE_CURVE('',#847,#869,#879,.T.);
#879 = LINE('',#880,#881);
#880 = CARTESIAN_POINT('',(12.,10.,-11.));
#881 = VECTOR('',#882,1.);
#882 = DIRECTION('',(1.,0.,0.));
#883 = ORIENTED_EDGE('',*,*,#854,.T.);
#884 = ORIENTED_EDGE('',*,*,#553,.F.);
#885 = ORIENTED_EDGE('',*,*,#770,.T.);
#886 = ORIENTED_EDGE('',*,*,#611,.F.);
#887 = ORIENTED_EDGE('',*,*,#888,.T.);
#888 = EDGE_CURVE('',#602,#889,#891,.T.);
#889 = VERTEX_POINT('',#890);
#890 = CARTESIAN_POINT('',(12.,10.,11.));
#891 = LINE('',#892,#893);
#892 = CARTESIAN_POINT('',(12.,10.,-11.));
#893 = VECTOR('',#894,1.);
#894 = DIRECTION('',(0.,0.,1.));
#895 = ORIENTED_EDGE('',*,*,#896,.T.);
#896 = EDGE_CURVE('',#889,#871,#897,.T.);
#897 = LINE('',#898,#899);
#898 = CARTESIAN_POINT('',(12.,10.,11.));
#899 = VECTOR('',#900,1.);
#900 = DIRECTION('',(1.,0.,0.));
#901 = PLANE('',#902);
#902 = AXIS2_PLACEMENT_3D('',#903,#904,#905);
#903 = CARTESIAN_POINT('',(12.,10.,-11.));
#904 = DIRECTION('',(0.,1.,0.));
#905 = DIRECTION('',(0.,0.,1.));
#906 = ADVANCED_FACE('',(#907),#918,.T.);
#907 = FACE_BOUND('',#908,.T.);
#908 = EDGE_LOOP('',(#909,#910,#911,#912));
#909 = ORIENTED_EDGE('',*,*,#822,.F.);
#910 = ORIENTED_EDGE('',*,*,#645,.T.);
#911 = ORIENTED_EDGE('',*,*,#888,.T.);
#912 = ORIENTED_EDGE('',*,*,#913,.F.);
#913 = EDGE_CURVE('',#823,#889,#914,.T.);
#914 = LINE('',#915,#916);
#915 = CARTESIAN_POINT('',(12.,-10.,11.));
#916 = VECTOR('',#917,1.);
#917 = DIRECTION('',(0.,1.,0.));
#918 = PLANE('',#919);
#919 = AXIS2_PLACEMENT_3D('',#920,#921,#922);
#920 = CARTESIAN_POINT('',(12.,-10.,-11.));
#921 = DIRECTION('',(1.,0.,0.));
#922 = DIRECTION('',(0.,0.,1.));
#923 = ADVANCED_FACE('',(#924,#927),#938,.T.);
#924 = FACE_BOUND('',#925,.T.);
#925 = EDGE_LOOP('',(#926));
#926 = ORIENTED_EDGE('',*,*,#688,.T.);
#927 = FACE_BOUND('',#928,.T.);
#928 = EDGE_LOOP('',(#929));
#929 = ORIENTED_EDGE('',*,*,#930,.F.);
#930 = EDGE_CURVE('',#931,#931,#933,.T.);
#931 = VERTEX_POINT('',#932);
#932 = CARTESIAN_POINT('',(42.9,1.610410540879E-15,6.575));
#933 = CIRCLE('',#934,6.575);
#934 = AXIS2_PLACEMENT_3D('',#935,#936,#937);
#935 = CARTESIAN_POINT('',(42.9,0.,0.));
#936 = DIRECTION('',(1.,0.,-0.));
#937 = DIRECTION('',(0.,0.,1.));
#938 = PLANE('',#939);
#939 = AXIS2_PLACEMENT_3D('',#940,#941,#942);
#940 = CARTESIAN_POINT('',(42.9,0.,0.));
#941 = DIRECTION('',(1.,0.,0.));
#942 = DIRECTION('',(0.,0.,1.));
#943 = ADVANCED_FACE('',(#944),#955,.F.);
#944 = FACE_BOUND('',#945,.F.);
#945 = EDGE_LOOP('',(#946,#947,#953,#954));
#946 = ORIENTED_EDGE('',*,*,#745,.T.);
#947 = ORIENTED_EDGE('',*,*,#948,.T.);
#948 = EDGE_CURVE('',#746,#779,#949,.T.);
#949 = LINE('',#950,#951);
#950 = CARTESIAN_POINT('',(-1.,6.5E-16,2.65));
#951 = VECTOR('',#952,1.);
#952 = DIRECTION('',(1.,0.,0.));
#953 = ORIENTED_EDGE('',*,*,#778,.F.);
#954 = ORIENTED_EDGE('',*,*,#948,.F.);
#955 = CYLINDRICAL_SURFACE('',#956,2.65);
#956 = AXIS2_PLACEMENT_3D('',#957,#958,#959);
#957 = CARTESIAN_POINT('',(-1.,0.,0.));
#958 = DIRECTION('',(1.,0.,0.));
#959 = DIRECTION('',(0.,0.,1.));
#960 = ADVANCED_FACE('',(#961,#977),#988,.F.);
#961 = FACE_BOUND('',#962,.F.);
#962 = EDGE_LOOP('',(#963,#964,#970,#971));
#963 = ORIENTED_EDGE('',*,*,#795,.F.);
#964 = ORIENTED_EDGE('',*,*,#965,.T.);
#965 = EDGE_CURVE('',#796,#869,#966,.T.);
#966 = LINE('',#967,#968);
#967 = CARTESIAN_POINT('',(36.,-10.,-11.));
#968 = VECTOR('',#969,1.);
#969 = DIRECTION('',(0.,1.,0.));
#970 = ORIENTED_EDGE('',*,*,#868,.T.);
#971 = ORIENTED_EDGE('',*,*,#972,.F.);
#972 = EDGE_CURVE('',#798,#871,#973,.T.);
#973 = LINE('',#974,#975);
#974 = CARTESIAN_POINT('',(36.,-10.,11.));
#975 = VECTOR('',#976,1.);
#976 = DIRECTION('',(0.,1.,0.));
#977 = FACE_BOUND('',#978,.F.);
#978 = EDGE_LOOP('',(#979));
#979 = ORIENTED_EDGE('',*,*,#980,.F.);
#980 = EDGE_CURVE('',#981,#981,#983,.T.);
#981 = VERTEX_POINT('',#982);
#982 = CARTESIAN_POINT('',(36.,1.E-15,2.65));
#983 = CIRCLE('',#984,2.65);
#984 = AXIS2_PLACEMENT_3D('',#985,#986,#987);
#985 = CARTESIAN_POINT('',(36.,0.,0.));
#986 = DIRECTION('',(1.,0.,-0.));
#987 = DIRECTION('',(0.,0.,1.));
#988 = PLANE('',#989);
#989 = AXIS2_PLACEMENT_3D('',#990,#991,#992);
#990 = CARTESIAN_POINT('',(36.,-10.,-11.));
#991 = DIRECTION('',(1.,0.,0.));
#992 = DIRECTION('',(0.,0.,1.));
#993 = ADVANCED_FACE('',(#994),#1000,.F.);
#994 = FACE_BOUND('',#995,.F.);
#995 = EDGE_LOOP('',(#996,#997,#998,#999));
#996 = ORIENTED_EDGE('',*,*,#913,.F.);
#997 = ORIENTED_EDGE('',*,*,#830,.T.);
#998 = ORIENTED_EDGE('',*,*,#972,.T.);
#999 = ORIENTED_EDGE('',*,*,#896,.F.);
#1000 = PLANE('',#1001);
#1001 = AXIS2_PLACEMENT_3D('',#1002,#1003,#1004);
#1002 = CARTESIAN_POINT('',(12.,-10.,11.));
#1003 = DIRECTION('',(0.,0.,1.));
#1004 = DIRECTION('',(1.,0.,0.));
#1005 = ADVANCED_FACE('',(#1006),#1012,.T.);
#1006 = FACE_BOUND('',#1007,.T.);
#1007 = EDGE_LOOP('',(#1008,#1009,#1010,#1011));
#1008 = ORIENTED_EDGE('',*,*,#846,.F.);
#1009 = ORIENTED_EDGE('',*,*,#805,.T.);
#1010 = ORIENTED_EDGE('',*,*,#965,.T.);
#1011 = ORIENTED_EDGE('',*,*,#878,.F.);
#1012 = PLANE('',#1013);
#1013 = AXIS2_PLACEMENT_3D('',#1014,#1015,#1016);
#1014 = CARTESIAN_POINT('',(12.,-10.,-11.));
#1015 = DIRECTION('',(0.,0.,1.));
#1016 = DIRECTION('',(1.,0.,0.));
#1017 = ADVANCED_FACE('',(#1018),#1037,.F.);
#1018 = FACE_BOUND('',#1019,.F.);
#1019 = EDGE_LOOP('',(#1020,#1021,#1029,#1036));
#1020 = ORIENTED_EDGE('',*,*,#930,.F.);
#1021 = ORIENTED_EDGE('',*,*,#1022,.F.);
#1022 = EDGE_CURVE('',#1023,#931,#1025,.T.);
#1023 = VERTEX_POINT('',#1024);
#1024 = CARTESIAN_POINT('',(39.87,1.610410540879E-15,6.575));
#1025 = LINE('',#1026,#1027);
#1026 = CARTESIAN_POINT('',(39.87,1.610410540879E-15,6.575));
#1027 = VECTOR('',#1028,1.);
#1028 = DIRECTION('',(1.,0.,0.));
#1029 = ORIENTED_EDGE('',*,*,#1030,.T.);
#1030 = EDGE_CURVE('',#1023,#1023,#1031,.T.);
#1031 = CIRCLE('',#1032,6.575);
#1032 = AXIS2_PLACEMENT_3D('',#1033,#1034,#1035);
#1033 = CARTESIAN_POINT('',(39.87,0.,0.));
#1034 = DIRECTION('',(1.,0.,-0.));
#1035 = DIRECTION('',(0.,0.,1.));
#1036 = ORIENTED_EDGE('',*,*,#1022,.T.);
#1037 = CYLINDRICAL_SURFACE('',#1038,6.575);
#1038 = AXIS2_PLACEMENT_3D('',#1039,#1040,#1041);
#1039 = CARTESIAN_POINT('',(39.87,0.,0.));
#1040 = DIRECTION('',(1.,0.,0.));
#1041 = DIRECTION('',(0.,0.,1.));
#1042 = ADVANCED_FACE('',(#1043),#1062,.F.);
#1043 = FACE_BOUND('',#1044,.F.);
#1044 = EDGE_LOOP('',(#1045,#1053,#1054,#1055));
#1045 = ORIENTED_EDGE('',*,*,#1046,.F.);
#1046 = EDGE_CURVE('',#981,#1047,#1049,.T.);
#1047 = VERTEX_POINT('',#1048);
#1048 = CARTESIAN_POINT('',(39.87,6.5E-16,2.65));
#1049 = LINE('',#1050,#1051);
#1050 = CARTESIAN_POINT('',(-1.,6.5E-16,2.65));
#1051 = VECTOR('',#1052,1.);
#1052 = DIRECTION('',(1.,0.,0.));
#1053 = ORIENTED_EDGE('',*,*,#980,.T.);
#1054 = ORIENTED_EDGE('',*,*,#1046,.T.);
#1055 = ORIENTED_EDGE('',*,*,#1056,.F.);
#1056 = EDGE_CURVE('',#1047,#1047,#1057,.T.);
#1057 = CIRCLE('',#1058,2.65);
#1058 = AXIS2_PLACEMENT_3D('',#1059,#1060,#1061);
#1059 = CARTESIAN_POINT('',(39.87,0.,0.));
#1060 = DIRECTION('',(1.,0.,-0.));
#1061 = DIRECTION('',(0.,0.,1.));
#1062 = CYLINDRICAL_SURFACE('',#1063,2.65);
#1063 = AXIS2_PLACEMENT_3D('',#1064,#1065,#1066);
#1064 = CARTESIAN_POINT('',(-1.,0.,0.));
#1065 = DIRECTION('',(1.,0.,0.));
#1066 = DIRECTION('',(0.,0.,1.));
#1067 = ADVANCED_FACE('',(#1068,#1071),#1074,.T.);
#1068 = FACE_BOUND('',#1069,.T.);
#1069 = EDGE_LOOP('',(#1070));
#1070 = ORIENTED_EDGE('',*,*,#1030,.T.);
#1071 = FACE_BOUND('',#1072,.T.);
#1072 = EDGE_LOOP('',(#1073));
#1073 = ORIENTED_EDGE('',*,*,#1056,.F.);
#1074 = PLANE('',#1075);
#1075 = AXIS2_PLACEMENT_3D('',#1076,#1077,#1078);
#1076 = CARTESIAN_POINT('',(39.87,0.,0.));
#1077 = DIRECTION('',(1.,0.,0.));
#1078 = DIRECTION('',(0.,0.,1.));
#1079 = ( GEOMETRIC_REPRESENTATION_CONTEXT(3) 
GLOBAL_UNCERTAINTY_ASSIGNED_CONTEXT((#1083)) 
GLOBAL_UNIT_ASSIGNED_CONTEXT((#1080,#1081,#1082)) REPRESENTATION_CONTEXT
('Context #1','3D Context with UNIT and UNCERTAINTY') );
#1080 = ( LENGTH_UNIT() NAMED_UNIT(*) SI_UNIT(.MILLI.,.METRE.) );
#1081 = ( NAMED_UNIT(*) PLANE_ANGLE_UNIT() SI_UNIT($,.RADIAN.) );
#1082 = ( NAMED_UNIT(*) SI_UNIT($,.STERADIAN.) SOLID_ANGLE_UNIT() );
#1083 = UNCERTAINTY_MEASURE_WITH_UNIT(LENGTH_MEASURE(1.E-07),#1080,
  'distance_accuracy_value','confusion accuracy');
#1084 = PRODUCT_RELATED_PRODUCT_CATEGORY('part',$,(#7));
ENDSEC;
END-ISO-10303-21;
