ISO-10303-21;
HEADER;
FILE_DESCRIPTION(('FreeCAD Model'),'2;1');
FILE_NAME('Open CASCADE Shape Model','2026-07-25T00:42:08',('FreeCAD'),(
    'FreeCAD'),'Open CASCADE STEP processor 7.8','FreeCAD','Unknown');
FILE_SCHEMA(('AUTOMOTIVE_DESIGN { 1 0 10303 214 1 1 1 1 }'));
ENDSEC;
DATA;
#1 = APPLICATION_PROTOCOL_DEFINITION('international standard',
  'automotive_design',2000,#2);
#2 = APPLICATION_CONTEXT(
  'core data for automotive mechanical design processes');
#3 = SHAPE_DEFINITION_REPRESENTATION(#4,#10);
#4 = PRODUCT_DEFINITION_SHAPE('','',#5);
#5 = PRODUCT_DEFINITION('design','',#6,#9);
#6 = PRODUCT_DEFINITION_FORMATION('','',#7);
#7 = PRODUCT('Open CASCADE STEP translator 7.8 183',
  'Open CASCADE STEP translator 7.8 183','',(#8));
#8 = PRODUCT_CONTEXT('',#2,'mechanical');
#9 = PRODUCT_DEFINITION_CONTEXT('part definition',#2,'design');
#10 = ADVANCED_BREP_SHAPE_REPRESENTATION('',(#11,#15),#715);
#11 = AXIS2_PLACEMENT_3D('',#12,#13,#14);
#12 = CARTESIAN_POINT('',(0.,0.,0.));
#13 = DIRECTION('',(0.,0.,1.));
#14 = DIRECTION('',(1.,0.,-0.));
#15 = MANIFOLD_SOLID_BREP('',#16);
#16 = CLOSED_SHELL('',(#17,#50,#137,#162,#187,#465,#516,#567,#592,#610,
    #627,#644,#662,#701));
#17 = ADVANCED_FACE('',(#18),#45,.T.);
#18 = FACE_BOUND('',#19,.T.);
#19 = EDGE_LOOP('',(#20,#29,#37,#44));
#20 = ORIENTED_EDGE('',*,*,#21,.F.);
#21 = EDGE_CURVE('',#22,#22,#24,.T.);
#22 = VERTEX_POINT('',#23);
#23 = CARTESIAN_POINT('',(17.,-4.163799117101E-15,4.));
#24 = CIRCLE('',#25,17.);
#25 = AXIS2_PLACEMENT_3D('',#26,#27,#28);
#26 = CARTESIAN_POINT('',(0.,0.,4.));
#27 = DIRECTION('',(0.,0.,1.));
#28 = DIRECTION('',(1.,0.,0.));
#29 = ORIENTED_EDGE('',*,*,#30,.F.);
#30 = EDGE_CURVE('',#31,#22,#33,.T.);
#31 = VERTEX_POINT('',#32);
#32 = CARTESIAN_POINT('',(17.,-4.163799117101E-15,0.));
#33 = LINE('',#34,#35);
#34 = CARTESIAN_POINT('',(17.,-4.163799117101E-15,0.));
#35 = VECTOR('',#36,1.);
#36 = DIRECTION('',(0.,0.,1.));
#37 = ORIENTED_EDGE('',*,*,#38,.T.);
#38 = EDGE_CURVE('',#31,#31,#39,.T.);
#39 = CIRCLE('',#40,17.);
#40 = AXIS2_PLACEMENT_3D('',#41,#42,#43);
#41 = CARTESIAN_POINT('',(0.,0.,0.));
#42 = DIRECTION('',(0.,0.,1.));
#43 = DIRECTION('',(1.,0.,0.));
#44 = ORIENTED_EDGE('',*,*,#30,.T.);
#45 = CYLINDRICAL_SURFACE('',#46,17.);
#46 = AXIS2_PLACEMENT_3D('',#47,#48,#49);
#47 = CARTESIAN_POINT('',(0.,0.,0.));
#48 = DIRECTION('',(0.,0.,1.));
#49 = DIRECTION('',(1.,0.,0.));
#50 = ADVANCED_FACE('',(#51,#54,#65,#76,#121),#132,.T.);
#51 = FACE_BOUND('',#52,.T.);
#52 = EDGE_LOOP('',(#53));
#53 = ORIENTED_EDGE('',*,*,#21,.T.);
#54 = FACE_BOUND('',#55,.T.);
#55 = EDGE_LOOP('',(#56));
#56 = ORIENTED_EDGE('',*,*,#57,.F.);
#57 = EDGE_CURVE('',#58,#58,#60,.T.);
#58 = VERTEX_POINT('',#59);
#59 = CARTESIAN_POINT('',(1.65,-13.,4.));
#60 = CIRCLE('',#61,1.65);
#61 = AXIS2_PLACEMENT_3D('',#62,#63,#64);
#62 = CARTESIAN_POINT('',(-2.388061258337E-15,-13.,4.));
#63 = DIRECTION('',(0.,0.,1.));
#64 = DIRECTION('',(1.,0.,0.));
#65 = FACE_BOUND('',#66,.T.);
#66 = EDGE_LOOP('',(#67));
#67 = ORIENTED_EDGE('',*,*,#68,.F.);
#68 = EDGE_CURVE('',#69,#69,#71,.T.);
#69 = VERTEX_POINT('',#70);
#70 = CARTESIAN_POINT('',(-11.35,1.187907395173E-15,4.));
#71 = CIRCLE('',#72,1.65);
#72 = AXIS2_PLACEMENT_3D('',#73,#74,#75);
#73 = CARTESIAN_POINT('',(-13.,1.592040838892E-15,4.));
#74 = DIRECTION('',(0.,0.,1.));
#75 = DIRECTION('',(1.,0.,0.));
#76 = FACE_BOUND('',#77,.T.);
#77 = EDGE_LOOP('',(#78,#89,#97,#106,#115));
#78 = ORIENTED_EDGE('',*,*,#79,.F.);
#79 = EDGE_CURVE('',#80,#82,#84,.T.);
#80 = VERTEX_POINT('',#81);
#81 = CARTESIAN_POINT('',(10.983624174197,0.6,4.));
#82 = VERTEX_POINT('',#83);
#83 = CARTESIAN_POINT('',(10.983624174197,-0.6,4.));
#84 = CIRCLE('',#85,11.);
#85 = AXIS2_PLACEMENT_3D('',#86,#87,#88);
#86 = CARTESIAN_POINT('',(0.,0.,4.));
#87 = DIRECTION('',(0.,0.,1.));
#88 = DIRECTION('',(1.,0.,0.));
#89 = ORIENTED_EDGE('',*,*,#90,.F.);
#90 = EDGE_CURVE('',#91,#80,#93,.T.);
#91 = VERTEX_POINT('',#92);
#92 = CARTESIAN_POINT('',(11.462957385106,0.6,4.));
#93 = LINE('',#94,#95);
#94 = CARTESIAN_POINT('',(0.,0.6,4.));
#95 = VECTOR('',#96,1.);
#96 = DIRECTION('',(-1.,0.,0.));
#97 = ORIENTED_EDGE('',*,*,#98,.F.);
#98 = EDGE_CURVE('',#99,#91,#101,.T.);
#99 = VERTEX_POINT('',#100);
#100 = CARTESIAN_POINT('',(14.65,-4.041334437186E-16,4.));
#101 = CIRCLE('',#102,1.65);
#102 = AXIS2_PLACEMENT_3D('',#103,#104,#105);
#103 = CARTESIAN_POINT('',(13.,0.,4.));
#104 = DIRECTION('',(0.,0.,1.));
#105 = DIRECTION('',(1.,0.,0.));
#106 = ORIENTED_EDGE('',*,*,#107,.F.);
#107 = EDGE_CURVE('',#108,#99,#110,.T.);
#108 = VERTEX_POINT('',#109);
#109 = CARTESIAN_POINT('',(11.462957385106,-0.6,4.));
#110 = CIRCLE('',#111,1.65);
#111 = AXIS2_PLACEMENT_3D('',#112,#113,#114);
#112 = CARTESIAN_POINT('',(13.,0.,4.));
#113 = DIRECTION('',(0.,0.,1.));
#114 = DIRECTION('',(1.,0.,0.));
#115 = ORIENTED_EDGE('',*,*,#116,.T.);
#116 = EDGE_CURVE('',#108,#82,#117,.T.);
#117 = LINE('',#118,#119);
#118 = CARTESIAN_POINT('',(0.,-0.6,4.));
#119 = VECTOR('',#120,1.);
#120 = DIRECTION('',(-1.,0.,0.));
#121 = FACE_BOUND('',#122,.T.);
#122 = EDGE_LOOP('',(#123));
#123 = ORIENTED_EDGE('',*,*,#124,.F.);
#124 = EDGE_CURVE('',#125,#125,#127,.T.);
#125 = VERTEX_POINT('',#126);
#126 = CARTESIAN_POINT('',(1.65,13.,4.));
#127 = CIRCLE('',#128,1.65);
#128 = AXIS2_PLACEMENT_3D('',#129,#130,#131);
#129 = CARTESIAN_POINT('',(7.960204194458E-16,13.,4.));
#130 = DIRECTION('',(0.,0.,1.));
#131 = DIRECTION('',(1.,0.,0.));
#132 = PLANE('',#133);
#133 = AXIS2_PLACEMENT_3D('',#134,#135,#136);
#134 = CARTESIAN_POINT('',(0.,0.,4.));
#135 = DIRECTION('',(0.,0.,1.));
#136 = DIRECTION('',(1.,0.,0.));
#137 = ADVANCED_FACE('',(#138),#157,.F.);
#138 = FACE_BOUND('',#139,.F.);
#139 = EDGE_LOOP('',(#140,#141,#149,#156));
#140 = ORIENTED_EDGE('',*,*,#57,.F.);
#141 = ORIENTED_EDGE('',*,*,#142,.F.);
#142 = EDGE_CURVE('',#143,#58,#145,.T.);
#143 = VERTEX_POINT('',#144);
#144 = CARTESIAN_POINT('',(1.65,-13.,0.));
#145 = LINE('',#146,#147);
#146 = CARTESIAN_POINT('',(1.65,-13.,-1.));
#147 = VECTOR('',#148,1.);
#148 = DIRECTION('',(0.,0.,1.));
#149 = ORIENTED_EDGE('',*,*,#150,.T.);
#150 = EDGE_CURVE('',#143,#143,#151,.T.);
#151 = CIRCLE('',#152,1.65);
#152 = AXIS2_PLACEMENT_3D('',#153,#154,#155);
#153 = CARTESIAN_POINT('',(-2.388061258337E-15,-13.,0.));
#154 = DIRECTION('',(0.,0.,1.));
#155 = DIRECTION('',(1.,0.,0.));
#156 = ORIENTED_EDGE('',*,*,#142,.T.);
#157 = CYLINDRICAL_SURFACE('',#158,1.65);
#158 = AXIS2_PLACEMENT_3D('',#159,#160,#161);
#159 = CARTESIAN_POINT('',(-2.388061258337E-15,-13.,-1.));
#160 = DIRECTION('',(0.,0.,1.));
#161 = DIRECTION('',(1.,0.,0.));
#162 = ADVANCED_FACE('',(#163),#182,.F.);
#163 = FACE_BOUND('',#164,.F.);
#164 = EDGE_LOOP('',(#165,#166,#174,#181));
#165 = ORIENTED_EDGE('',*,*,#68,.F.);
#166 = ORIENTED_EDGE('',*,*,#167,.F.);
#167 = EDGE_CURVE('',#168,#69,#170,.T.);
#168 = VERTEX_POINT('',#169);
#169 = CARTESIAN_POINT('',(-11.35,1.187907395173E-15,0.));
#170 = LINE('',#171,#172);
#171 = CARTESIAN_POINT('',(-11.35,1.187907395173E-15,-1.));
#172 = VECTOR('',#173,1.);
#173 = DIRECTION('',(0.,0.,1.));
#174 = ORIENTED_EDGE('',*,*,#175,.T.);
#175 = EDGE_CURVE('',#168,#168,#176,.T.);
#176 = CIRCLE('',#177,1.65);
#177 = AXIS2_PLACEMENT_3D('',#178,#179,#180);
#178 = CARTESIAN_POINT('',(-13.,1.592040838892E-15,0.));
#179 = DIRECTION('',(0.,0.,1.));
#180 = DIRECTION('',(1.,0.,0.));
#181 = ORIENTED_EDGE('',*,*,#167,.T.);
#182 = CYLINDRICAL_SURFACE('',#183,1.65);
#183 = AXIS2_PLACEMENT_3D('',#184,#185,#186);
#184 = CARTESIAN_POINT('',(-13.,1.592040838892E-15,-1.));
#185 = DIRECTION('',(0.,0.,1.));
#186 = DIRECTION('',(1.,0.,0.));
#187 = ADVANCED_FACE('',(#188,#214,#337),#460,.T.);
#188 = FACE_BOUND('',#189,.T.);
#189 = EDGE_LOOP('',(#190,#198,#199,#207));
#190 = ORIENTED_EDGE('',*,*,#191,.F.);
#191 = EDGE_CURVE('',#80,#192,#194,.T.);
#192 = VERTEX_POINT('',#193);
#193 = CARTESIAN_POINT('',(10.983624174197,0.6,12.));
#194 = LINE('',#195,#196);
#195 = CARTESIAN_POINT('',(10.983624174197,0.6,0.));
#196 = VECTOR('',#197,1.);
#197 = DIRECTION('',(0.,0.,1.));
#198 = ORIENTED_EDGE('',*,*,#79,.T.);
#199 = ORIENTED_EDGE('',*,*,#200,.T.);
#200 = EDGE_CURVE('',#82,#201,#203,.T.);
#201 = VERTEX_POINT('',#202);
#202 = CARTESIAN_POINT('',(10.983624174197,-0.6,12.));
#203 = LINE('',#204,#205);
#204 = CARTESIAN_POINT('',(10.983624174197,-0.6,0.));
#205 = VECTOR('',#206,1.);
#206 = DIRECTION('',(0.,0.,1.));
#207 = ORIENTED_EDGE('',*,*,#208,.F.);
#208 = EDGE_CURVE('',#192,#201,#209,.T.);
#209 = CIRCLE('',#210,11.);
#210 = AXIS2_PLACEMENT_3D('',#211,#212,#213);
#211 = CARTESIAN_POINT('',(0.,0.,12.));
#212 = DIRECTION('',(0.,0.,1.));
#213 = DIRECTION('',(1.,0.,0.));
#214 = FACE_BOUND('',#215,.T.);
#215 = EDGE_LOOP('',(#216));
#216 = ORIENTED_EDGE('',*,*,#217,.F.);
#217 = EDGE_CURVE('',#218,#218,#220,.T.);
#218 = VERTEX_POINT('',#219);
#219 = CARTESIAN_POINT('',(8.,7.549834435271,9.65));
#220 = B_SPLINE_CURVE_WITH_KNOTS('',7,(#221,#222,#223,#224,#225,#226,
    #227,#228,#229,#230,#231,#232,#233,#234,#235,#236,#237,#238,#239,
    #240,#241,#242,#243,#244,#245,#246,#247,#248,#249,#250,#251,#252,
    #253,#254,#255,#256,#257,#258,#259,#260,#261,#262,#263,#264,#265,
    #266,#267,#268,#269,#270,#271,#272,#273,#274,#275,#276,#277,#278,
    #279,#280,#281,#282,#283,#284,#285,#286,#287,#288,#289,#290,#291,
    #292,#293,#294,#295,#296,#297,#298,#299,#300,#301,#302,#303,#304,
    #305,#306,#307,#308,#309,#310,#311,#312,#313,#314,#315,#316,#317,
    #318,#319,#320,#321,#322,#323,#324,#325,#326,#327,#328,#329,#330,
    #331,#332,#333,#334,#335,#336),.UNSPECIFIED.,.T.,.F.,(8,6,6,6,6,6,6,
    6,6,6,6,6,6,6,6,6,6,6,6,8),(0.,9.394860457653E-02,0.1681591118,
    0.191164348624,0.21815782353,0.237895034025,0.269312805471,
    0.300637147807,0.348151875326,0.443888418587,0.529537955977,
    0.569192342539,0.626624135827,0.675924929291,0.719447952982,
    0.768953871022,0.81863160092,0.861750409952,0.904317408778,1.),
  .UNSPECIFIED.);
#221 = CARTESIAN_POINT('',(8.,7.549834435271,9.65));
#222 = CARTESIAN_POINT('',(8.129148987781,7.412984824712,9.65));
#223 = CARTESIAN_POINT('',(8.254893992318,7.274270598849,9.638206198728)
  );
#224 = CARTESIAN_POINT('',(8.376611078982,7.134456150061,9.615738846076)
  );
#225 = CARTESIAN_POINT('',(8.49391184939,6.994213370855,9.583481330978)
  );
#226 = CARTESIAN_POINT('',(8.606521581077,6.854185759599,9.542105803715)
  );
#227 = CARTESIAN_POINT('',(8.714193077552,6.715072585945,9.492090222361)
  );
#228 = CARTESIAN_POINT('',(8.897592422026,6.469247931114,9.387625261138)
  );
#229 = CARTESIAN_POINT('',(8.975179036131,6.362002914169,9.336371726219)
  );
#230 = CARTESIAN_POINT('',(9.049511993611,6.256129781801,9.2800097756));
#231 = CARTESIAN_POINT('',(9.120579967723,6.151894701219,9.218450787865)
  );
#232 = CARTESIAN_POINT('',(9.188232181733,6.04979311828,9.151524150187)
  );
#233 = CARTESIAN_POINT('',(9.252154835323,5.950647729451,9.079025985031)
  );
#234 = CARTESIAN_POINT('',(9.330363551709,5.826278802824,8.976505971861)
  );
#235 = CARTESIAN_POINT('',(9.348475849416,5.797235646685,8.951678128351)
  );
#236 = CARTESIAN_POINT('',(9.366183219335,5.768608785013,8.926268358982)
  );
#237 = CARTESIAN_POINT('',(9.383472644474,5.740433369529,8.900262566686)
  );
#238 = CARTESIAN_POINT('',(9.400327922717,5.712751047837,8.87364708437)
  );
#239 = CARTESIAN_POINT('',(9.416729666817,5.685609963414,8.846408674921)
  );
#240 = CARTESIAN_POINT('',(9.451341845291,5.62791761265,8.785828065065)
  );
#241 = CARTESIAN_POINT('',(9.469376920981,5.597584398569,8.752239504021)
  );
#242 = CARTESIAN_POINT('',(9.486723566593,5.568154411863,8.717747825902)
  );
#243 = CARTESIAN_POINT('',(9.503338784468,5.539730446472,8.68233366508)
  );
#244 = CARTESIAN_POINT('',(9.519173521704,5.512428814965,8.645979431888)
  );
#245 = CARTESIAN_POINT('',(9.53417264768,5.486379371704,8.608669432045)
  );
#246 = CARTESIAN_POINT('',(9.558586303017,5.443699033465,8.542400648459)
  );
#247 = CARTESIAN_POINT('',(9.56842051562,5.426414332411,8.513886347066)
  );
#248 = CARTESIAN_POINT('',(9.577747345653,5.409938928438,8.484857951334)
  );
#249 = CARTESIAN_POINT('',(9.586536928523,5.3943400345,8.455326396266));
#250 = CARTESIAN_POINT('',(9.594759758788,5.379684580932,8.42530268243)
  );
#251 = CARTESIAN_POINT('',(9.602386690156,5.366039215446,8.394797875962)
  );
#252 = CARTESIAN_POINT('',(9.620535137912,5.333463057705,8.314517348623)
  );
#253 = CARTESIAN_POINT('',(9.63012147076,5.316140970665,8.263917410921)
  );
#254 = CARTESIAN_POINT('',(9.637970984915,5.301879216938,8.212271202685)
  );
#255 = CARTESIAN_POINT('',(9.643953013435,5.29096719983,8.159821818476)
  );
#256 = CARTESIAN_POINT('',(9.647979278775,5.283607491267,8.106806903727)
  );
#257 = CARTESIAN_POINT('',(9.65,5.279914772039,8.053458018294));
#258 = CARTESIAN_POINT('',(9.65,5.279914772039,7.94670095336));
#259 = CARTESIAN_POINT('',(9.647991280035,5.283585564325,7.893509600911)
  );
#260 = CARTESIAN_POINT('',(9.643988772647,5.290901836267,7.840649190974)
  );
#261 = CARTESIAN_POINT('',(9.63804170105,5.301750215389,7.788349612021)
  );
#262 = CARTESIAN_POINT('',(9.630237410071,5.315930311995,7.736846764864)
  );
#263 = CARTESIAN_POINT('',(9.620705197083,5.3331557618,7.686381934836));
#264 = CARTESIAN_POINT('',(9.592805637437,5.383240088769,7.562600685487)
  );
#265 = CARTESIAN_POINT('',(9.572410908882,5.419591889219,7.490921283059)
  );
#266 = CARTESIAN_POINT('',(9.548849103582,5.461175268746,7.422171079414)
  );
#267 = CARTESIAN_POINT('',(9.522480711546,5.50713706437,7.35634612074));
#268 = CARTESIAN_POINT('',(9.493629564941,5.556713484556,7.293429186259)
  );
#269 = CARTESIAN_POINT('',(9.462589031371,5.609234237759,7.233387996267)
  );
#270 = CARTESIAN_POINT('',(9.363186492276,5.774719327552,7.060891018371)
  );
#271 = CARTESIAN_POINT('',(9.288282283782,5.895991656458,6.955977290537)
  );
#272 = CARTESIAN_POINT('',(9.20652199889,6.023954258479,6.861011781372)
  );
#273 = CARTESIAN_POINT('',(9.118932531811,6.156086326138,6.775423154761)
  );
#274 = CARTESIAN_POINT('',(9.026007240429,6.291117903203,6.698619105364)
  );
#275 = CARTESIAN_POINT('',(8.927666209514,6.428625579328,6.630184284744)
  );
#276 = CARTESIAN_POINT('',(8.730239663917,6.693824580786,6.51648281592)
  );
#277 = CARTESIAN_POINT('',(8.632690586261,6.820531540439,6.469745471717)
  );
#278 = CARTESIAN_POINT('',(8.531018598114,6.948071041091,6.430165996818)
  );
#279 = CARTESIAN_POINT('',(8.425402303245,7.07591473273,6.398080711209)
  );
#280 = CARTESIAN_POINT('',(8.316030120799,7.20358339486,6.373963876869)
  );
#281 = CARTESIAN_POINT('',(8.20315532523,7.330587904071,6.358440503533)
  );
#282 = CARTESIAN_POINT('',(8.033474288565,7.51462350095,6.349463407988)
  );
#283 = CARTESIAN_POINT('',(7.979122549154,7.572591353825,6.348635273631)
  );
#284 = CARTESIAN_POINT('',(7.924183144475,7.630203872188,6.349898383041)
  );
#285 = CARTESIAN_POINT('',(7.868728789596,7.687378782882,6.353332534462)
  );
#286 = CARTESIAN_POINT('',(7.812839580141,7.74403387293,6.359018918809)
  );
#287 = CARTESIAN_POINT('',(7.756603513954,7.800087078565,6.367040149905)
  );
#288 = CARTESIAN_POINT('',(7.61830712132,7.935648696869,6.392600847389)
  );
#289 = CARTESIAN_POINT('',(7.535883317593,8.014493828389,6.412811654032)
  );
#290 = CARTESIAN_POINT('',(7.453312060382,8.091564441563,6.438356042326)
  );
#291 = CARTESIAN_POINT('',(7.371088802336,8.166469997558,6.469424686992)
  );
#292 = CARTESIAN_POINT('',(7.289733976235,8.238854710428,6.506154914881)
  );
#293 = CARTESIAN_POINT('',(7.209788981282,8.308395311596,6.548630010061)
  );
#294 = CARTESIAN_POINT('',(7.06487505183,8.431801132857,6.638296166364)
  );
#295 = CARTESIAN_POINT('',(6.999439809372,8.48644774318,6.683936491334)
  );
#296 = CARTESIAN_POINT('',(6.935949971449,8.538478375574,6.733747201111)
  );
#297 = CARTESIAN_POINT('',(6.874838640157,8.587673800341,6.787614578795)
  );
#298 = CARTESIAN_POINT('',(6.816519890128,8.633852051739,6.845363719879)
  );
#299 = CARTESIAN_POINT('',(6.761380168421,8.676864651913,6.906758768849)
  );
#300 = CARTESIAN_POINT('',(6.664207671468,8.751665102909,7.028659872528)
  );
#301 = CARTESIAN_POINT('',(6.621413295988,8.784164369042,7.088405385157)
  );
#302 = CARTESIAN_POINT('',(6.581607179066,8.814025300366,7.150551453795)
  );
#303 = CARTESIAN_POINT('',(6.544988874943,8.841197852189,7.214884234349)
  );
#304 = CARTESIAN_POINT('',(6.51173328954,8.865645596468,7.281165002209)
  );
#305 = CARTESIAN_POINT('',(6.481987088992,8.887344050306,7.349130875942)
  );
#306 = CARTESIAN_POINT('',(6.42615226813,8.927816852881,7.497395422733)
  );
#307 = CARTESIAN_POINT('',(6.401123975701,8.945782461742,7.578117326912)
  );
#308 = CARTESIAN_POINT('',(6.380922329285,8.960175334233,7.660314502497)
  );
#309 = CARTESIAN_POINT('',(6.365655565822,8.970997021998,7.743628858996)
  );
#310 = CARTESIAN_POINT('',(6.355396374584,8.978250253299,7.827692126522)
  );
#311 = CARTESIAN_POINT('',(6.350180210956,8.981938061196,7.91212701586)
  );
#312 = CARTESIAN_POINT('',(6.349826396572,8.982188195562,8.081262728225)
  );
#313 = CARTESIAN_POINT('',(6.354723686994,8.978725816937,8.166011675721)
  );
#314 = CARTESIAN_POINT('',(6.364700552754,8.971673439791,8.250406566715)
  );
#315 = CARTESIAN_POINT('',(6.379722745596,8.961028049235,8.334066470771)
  );
#316 = CARTESIAN_POINT('',(6.399718374895,8.946786818211,8.416619368385)
  );
#317 = CARTESIAN_POINT('',(6.424579584824,8.92894797414,8.497703338061)
  );
#318 = CARTESIAN_POINT('',(6.479842835071,8.888905579985,8.645766916822)
  );
#319 = CARTESIAN_POINT('',(6.509083263305,8.867586907596,8.713204260246)
  );
#320 = CARTESIAN_POINT('',(6.541775074068,8.843569025703,8.779001645118)
  );
#321 = CARTESIAN_POINT('',(6.577777248001,8.816875071294,8.842903252115)
  );
#322 = CARTESIAN_POINT('',(6.616921578241,8.787539522978,8.904676261506)
  );
#323 = CARTESIAN_POINT('',(6.659016060111,8.755609782894,8.964111543535)
  );
#324 = CARTESIAN_POINT('',(6.748106764041,8.687126759913,9.07720881609)
  );
#325 = CARTESIAN_POINT('',(6.795020011331,8.650648213609,9.130918089199)
  );
#326 = CARTESIAN_POINT('',(6.844363965283,8.611787457558,9.181956940831)
  );
#327 = CARTESIAN_POINT('',(6.895893417793,8.570636715882,9.230164059612)
  );
#328 = CARTESIAN_POINT('',(6.94934626781,8.527306976754,9.275412217781)
  );
#329 = CARTESIAN_POINT('',(7.00444777908,8.481929870168,9.317608438865)
  );
#330 = CARTESIAN_POINT('',(7.18784214438,8.328404764843,9.444551512451)
  );
#331 = CARTESIAN_POINT('',(7.321002321647,8.213142395229,9.516232256413)
  );
#332 = CARTESIAN_POINT('',(7.457882124206,8.090104972447,9.571942581556)
  );
#333 = CARTESIAN_POINT('',(7.596183894944,7.960631566696,9.612212053487)
  );
#334 = CARTESIAN_POINT('',(7.733837158065,7.826237336803,9.63786392764)
  );
#335 = CARTESIAN_POINT('',(7.868992823103,7.688653031117,9.65));
#336 = CARTESIAN_POINT('',(8.,7.549834435271,9.65));
#337 = FACE_BOUND('',#338,.T.);
#338 = EDGE_LOOP('',(#339));
#339 = ORIENTED_EDGE('',*,*,#340,.T.);
#340 = EDGE_CURVE('',#341,#341,#343,.T.);
#341 = VERTEX_POINT('',#342);
#342 = CARTESIAN_POINT('',(8.,-7.549834435271,9.65));
#343 = B_SPLINE_CURVE_WITH_KNOTS('',7,(#344,#345,#346,#347,#348,#349,
    #350,#351,#352,#353,#354,#355,#356,#357,#358,#359,#360,#361,#362,
    #363,#364,#365,#366,#367,#368,#369,#370,#371,#372,#373,#374,#375,
    #376,#377,#378,#379,#380,#381,#382,#383,#384,#385,#386,#387,#388,
    #389,#390,#391,#392,#393,#394,#395,#396,#397,#398,#399,#400,#401,
    #402,#403,#404,#405,#406,#407,#408,#409,#410,#411,#412,#413,#414,
    #415,#416,#417,#418,#419,#420,#421,#422,#423,#424,#425,#426,#427,
    #428,#429,#430,#431,#432,#433,#434,#435,#436,#437,#438,#439,#440,
    #441,#442,#443,#444,#445,#446,#447,#448,#449,#450,#451,#452,#453,
    #454,#455,#456,#457,#458,#459),.UNSPECIFIED.,.T.,.F.,(8,6,6,6,6,6,6,
    6,6,6,6,6,6,6,6,6,6,6,6,8),(0.,9.394863842229E-02,0.168159172381,
    0.191164417493,0.218157902123,0.237895115133,0.26931288323,
    0.300637222233,0.348151944696,0.443888477768,0.529538006043,
    0.569192388385,0.626624175562,0.675924963779,0.719447982838,
    0.768953895609,0.818631620221,0.861750424665,0.904317418961,1.),
  .UNSPECIFIED.);
#344 = CARTESIAN_POINT('',(8.,-7.549834435271,9.65));
#345 = CARTESIAN_POINT('',(8.129148987781,-7.412984824712,9.65));
#346 = CARTESIAN_POINT('',(8.254893992318,-7.274270598849,9.638206198728
    ));
#347 = CARTESIAN_POINT('',(8.376611078982,-7.134456150061,9.615738846076
    ));
#348 = CARTESIAN_POINT('',(8.49391184939,-6.994213370855,9.583481330978)
  );
#349 = CARTESIAN_POINT('',(8.606521581077,-6.854185759599,9.542105803715
    ));
#350 = CARTESIAN_POINT('',(8.714193077552,-6.715072585945,9.492090222361
    ));
#351 = CARTESIAN_POINT('',(8.897592422026,-6.469247931114,9.387625261138
    ));
#352 = CARTESIAN_POINT('',(8.975179036131,-6.362002914169,9.336371726219
    ));
#353 = CARTESIAN_POINT('',(9.049511993611,-6.256129781801,9.2800097756)
  );
#354 = CARTESIAN_POINT('',(9.120579967723,-6.151894701219,9.218450787865
    ));
#355 = CARTESIAN_POINT('',(9.188232181733,-6.04979311828,9.151524150188)
  );
#356 = CARTESIAN_POINT('',(9.252154835323,-5.950647729451,9.079025985031
    ));
#357 = CARTESIAN_POINT('',(9.330363551709,-5.826278802824,8.976505971861
    ));
#358 = CARTESIAN_POINT('',(9.348475849416,-5.797235646685,8.951678128351
    ));
#359 = CARTESIAN_POINT('',(9.366183219335,-5.768608785013,8.926268358982
    ));
#360 = CARTESIAN_POINT('',(9.383472644474,-5.740433369529,8.900262566686
    ));
#361 = CARTESIAN_POINT('',(9.400327922717,-5.712751047837,8.87364708437)
  );
#362 = CARTESIAN_POINT('',(9.416729666817,-5.685609963414,8.846408674921
    ));
#363 = CARTESIAN_POINT('',(9.451341845291,-5.62791761265,8.785828065065)
  );
#364 = CARTESIAN_POINT('',(9.469376920981,-5.597584398569,8.752239504021
    ));
#365 = CARTESIAN_POINT('',(9.486723566593,-5.568154411863,8.717747825902
    ));
#366 = CARTESIAN_POINT('',(9.503338784468,-5.539730446472,8.68233366508)
  );
#367 = CARTESIAN_POINT('',(9.519173521704,-5.512428814965,8.645979431888
    ));
#368 = CARTESIAN_POINT('',(9.53417264768,-5.486379371704,8.608669432045)
  );
#369 = CARTESIAN_POINT('',(9.558586300616,-5.443699037662,8.542400654975
    ));
#370 = CARTESIAN_POINT('',(9.568420515018,-5.426414333429,8.51388634745)
  );
#371 = CARTESIAN_POINT('',(9.577747347121,-5.409938925822,8.484857945656
    ));
#372 = CARTESIAN_POINT('',(9.586536930295,-5.394340031383,8.455326390883
    ));
#373 = CARTESIAN_POINT('',(9.594759758946,-5.379684580697,8.425302683552
    ));
#374 = CARTESIAN_POINT('',(9.602386688516,-5.36603921839,8.394797883217)
  );
#375 = CARTESIAN_POINT('',(9.620535137914,-5.333463057701,8.314517348614
    ));
#376 = CARTESIAN_POINT('',(9.63012147076,-5.316140970666,8.263917410919)
  );
#377 = CARTESIAN_POINT('',(9.637970984913,-5.30187921694,8.212271202693)
  );
#378 = CARTESIAN_POINT('',(9.643953013435,-5.29096719983,8.159821818484)
  );
#379 = CARTESIAN_POINT('',(9.647979278776,-5.283607491266,8.106806903726
    ));
#380 = CARTESIAN_POINT('',(9.65,-5.279914772039,8.053458018284));
#381 = CARTESIAN_POINT('',(9.65,-5.279914772039,7.94670095336));
#382 = CARTESIAN_POINT('',(9.647991280035,-5.283585564325,7.893509600911
    ));
#383 = CARTESIAN_POINT('',(9.643988772647,-5.290901836267,7.840649190974
    ));
#384 = CARTESIAN_POINT('',(9.63804170105,-5.301750215389,7.788349612021)
  );
#385 = CARTESIAN_POINT('',(9.630237410071,-5.315930311995,7.736846764864
    ));
#386 = CARTESIAN_POINT('',(9.620705197083,-5.3331557618,7.686381934836)
  );
#387 = CARTESIAN_POINT('',(9.592805637437,-5.383240088769,7.562600685487
    ));
#388 = CARTESIAN_POINT('',(9.572410908882,-5.419591889219,7.490921283059
    ));
#389 = CARTESIAN_POINT('',(9.548849103582,-5.461175268746,7.422171079414
    ));
#390 = CARTESIAN_POINT('',(9.522480711546,-5.50713706437,7.35634612074)
  );
#391 = CARTESIAN_POINT('',(9.493629564941,-5.556713484556,7.293429186259
    ));
#392 = CARTESIAN_POINT('',(9.462589031371,-5.609234237759,7.233387996267
    ));
#393 = CARTESIAN_POINT('',(9.363186492276,-5.774719327551,7.060891018371
    ));
#394 = CARTESIAN_POINT('',(9.288282283782,-5.895991656459,6.955977290536
    ));
#395 = CARTESIAN_POINT('',(9.206521998891,-6.023954258476,6.861011781373
    ));
#396 = CARTESIAN_POINT('',(9.11893253181,-6.156086326141,6.775423154759)
  );
#397 = CARTESIAN_POINT('',(9.02600724043,-6.291117903201,6.698619105365)
  );
#398 = CARTESIAN_POINT('',(8.927666209514,-6.428625579328,6.630184284744
    ));
#399 = CARTESIAN_POINT('',(8.730239663917,-6.693824580786,6.51648281592)
  );
#400 = CARTESIAN_POINT('',(8.632690586261,-6.820531540439,6.469745471717
    ));
#401 = CARTESIAN_POINT('',(8.531018598114,-6.948071041091,6.430165996818
    ));
#402 = CARTESIAN_POINT('',(8.425402303245,-7.075914732731,6.398080711209
    ));
#403 = CARTESIAN_POINT('',(8.3160301208,-7.20358339486,6.373963876869));
#404 = CARTESIAN_POINT('',(8.20315532523,-7.330587904071,6.358440503533)
  );
#405 = CARTESIAN_POINT('',(8.033474288565,-7.51462350095,6.349463407988)
  );
#406 = CARTESIAN_POINT('',(7.979122549154,-7.572591353825,6.348635273631
    ));
#407 = CARTESIAN_POINT('',(7.924183144475,-7.630203872188,6.349898383041
    ));
#408 = CARTESIAN_POINT('',(7.868728789596,-7.687378782882,6.353332534462
    ));
#409 = CARTESIAN_POINT('',(7.812839580141,-7.74403387293,6.359018918809)
  );
#410 = CARTESIAN_POINT('',(7.756603513954,-7.800087078565,6.367040149905
    ));
#411 = CARTESIAN_POINT('',(7.61830712132,-7.935648696869,6.392600847389)
  );
#412 = CARTESIAN_POINT('',(7.535883317593,-8.014493828389,6.412811654032
    ));
#413 = CARTESIAN_POINT('',(7.453312060382,-8.091564441563,6.438356042326
    ));
#414 = CARTESIAN_POINT('',(7.371088802336,-8.166469997558,6.469424686992
    ));
#415 = CARTESIAN_POINT('',(7.289733976235,-8.238854710428,6.506154914881
    ));
#416 = CARTESIAN_POINT('',(7.209788981282,-8.308395311596,6.548630010061
    ));
#417 = CARTESIAN_POINT('',(7.06487505183,-8.431801132857,6.638296166364)
  );
#418 = CARTESIAN_POINT('',(6.999439809371,-8.48644774318,6.683936491334)
  );
#419 = CARTESIAN_POINT('',(6.935949971449,-8.538478375574,6.733747201111
    ));
#420 = CARTESIAN_POINT('',(6.874838640157,-8.587673800341,6.787614578795
    ));
#421 = CARTESIAN_POINT('',(6.816519890128,-8.633852051739,6.845363719879
    ));
#422 = CARTESIAN_POINT('',(6.761380168421,-8.676864651913,6.906758768849
    ));
#423 = CARTESIAN_POINT('',(6.664207671468,-8.751665102909,7.028659872528
    ));
#424 = CARTESIAN_POINT('',(6.621413295988,-8.784164369042,7.088405385156
    ));
#425 = CARTESIAN_POINT('',(6.581607179066,-8.814025300366,7.150551453795
    ));
#426 = CARTESIAN_POINT('',(6.544988874943,-8.841197852189,7.214884234349
    ));
#427 = CARTESIAN_POINT('',(6.51173328954,-8.865645596468,7.281165002209)
  );
#428 = CARTESIAN_POINT('',(6.481987088992,-8.887344050306,7.349130875942
    ));
#429 = CARTESIAN_POINT('',(6.42615226813,-8.927816852881,7.497395422733)
  );
#430 = CARTESIAN_POINT('',(6.401123975701,-8.945782461742,7.578117326912
    ));
#431 = CARTESIAN_POINT('',(6.380922329285,-8.960175334233,7.660314502497
    ));
#432 = CARTESIAN_POINT('',(6.365655565822,-8.970997021998,7.743628858996
    ));
#433 = CARTESIAN_POINT('',(6.355396374584,-8.978250253299,7.827692126522
    ));
#434 = CARTESIAN_POINT('',(6.350180210956,-8.981938061196,7.91212701586)
  );
#435 = CARTESIAN_POINT('',(6.349826396572,-8.982188195562,8.081262728225
    ));
#436 = CARTESIAN_POINT('',(6.354723686994,-8.978725816937,8.166011675721
    ));
#437 = CARTESIAN_POINT('',(6.364700552754,-8.971673439791,8.250406566715
    ));
#438 = CARTESIAN_POINT('',(6.379722745596,-8.961028049235,8.334066470771
    ));
#439 = CARTESIAN_POINT('',(6.399718374895,-8.946786818211,8.416619368385
    ));
#440 = CARTESIAN_POINT('',(6.424579584824,-8.92894797414,8.497703338061)
  );
#441 = CARTESIAN_POINT('',(6.479842835071,-8.888905579985,8.645766916822
    ));
#442 = CARTESIAN_POINT('',(6.509083263305,-8.867586907596,8.713204260246
    ));
#443 = CARTESIAN_POINT('',(6.541775074068,-8.843569025703,8.779001645118
    ));
#444 = CARTESIAN_POINT('',(6.577777248001,-8.816875071294,8.842903252115
    ));
#445 = CARTESIAN_POINT('',(6.616921578241,-8.787539522978,8.904676261506
    ));
#446 = CARTESIAN_POINT('',(6.659016060111,-8.755609782894,8.964111543535
    ));
#447 = CARTESIAN_POINT('',(6.748106764041,-8.687126759913,9.07720881609)
  );
#448 = CARTESIAN_POINT('',(6.795020011331,-8.650648213609,9.130918089199
    ));
#449 = CARTESIAN_POINT('',(6.844363965283,-8.611787457558,9.181956940831
    ));
#450 = CARTESIAN_POINT('',(6.895893417793,-8.570636715882,9.230164059612
    ));
#451 = CARTESIAN_POINT('',(6.94934626781,-8.527306976754,9.275412217781)
  );
#452 = CARTESIAN_POINT('',(7.00444777908,-8.481929870168,9.317608438865)
  );
#453 = CARTESIAN_POINT('',(7.18784214438,-8.328404764843,9.444551512451)
  );
#454 = CARTESIAN_POINT('',(7.321002321647,-8.213142395229,9.516232256413
    ));
#455 = CARTESIAN_POINT('',(7.457882124206,-8.090104972447,9.571942581556
    ));
#456 = CARTESIAN_POINT('',(7.596183894944,-7.960631566696,9.612212053487
    ));
#457 = CARTESIAN_POINT('',(7.733837158065,-7.826237336803,9.63786392764)
  );
#458 = CARTESIAN_POINT('',(7.868992823103,-7.688653031117,9.65));
#459 = CARTESIAN_POINT('',(8.,-7.549834435271,9.65));
#460 = CYLINDRICAL_SURFACE('',#461,11.);
#461 = AXIS2_PLACEMENT_3D('',#462,#463,#464);
#462 = CARTESIAN_POINT('',(0.,0.,0.));
#463 = DIRECTION('',(0.,0.,1.));
#464 = DIRECTION('',(1.,0.,0.));
#465 = ADVANCED_FACE('',(#466,#500),#511,.T.);
#466 = FACE_BOUND('',#467,.T.);
#467 = EDGE_LOOP('',(#468,#478,#484,#485,#486,#494));
#468 = ORIENTED_EDGE('',*,*,#469,.T.);
#469 = EDGE_CURVE('',#470,#472,#474,.T.);
#470 = VERTEX_POINT('',#471);
#471 = CARTESIAN_POINT('',(2.426932219902,-0.6,0.));
#472 = VERTEX_POINT('',#473);
#473 = CARTESIAN_POINT('',(2.426932219902,-0.6,12.));
#474 = LINE('',#475,#476);
#475 = CARTESIAN_POINT('',(2.426932219902,-0.6,-1.));
#476 = VECTOR('',#477,1.);
#477 = DIRECTION('',(0.,0.,1.));
#478 = ORIENTED_EDGE('',*,*,#479,.F.);
#479 = EDGE_CURVE('',#201,#472,#480,.T.);
#480 = LINE('',#481,#482);
#481 = CARTESIAN_POINT('',(0.,-0.6,12.));
#482 = VECTOR('',#483,1.);
#483 = DIRECTION('',(-1.,0.,0.));
#484 = ORIENTED_EDGE('',*,*,#200,.F.);
#485 = ORIENTED_EDGE('',*,*,#116,.F.);
#486 = ORIENTED_EDGE('',*,*,#487,.F.);
#487 = EDGE_CURVE('',#488,#108,#490,.T.);
#488 = VERTEX_POINT('',#489);
#489 = CARTESIAN_POINT('',(11.462957385106,-0.6,0.));
#490 = LINE('',#491,#492);
#491 = CARTESIAN_POINT('',(11.462957385106,-0.6,-1.));
#492 = VECTOR('',#493,1.);
#493 = DIRECTION('',(0.,0.,1.));
#494 = ORIENTED_EDGE('',*,*,#495,.F.);
#495 = EDGE_CURVE('',#470,#488,#496,.T.);
#496 = LINE('',#497,#498);
#497 = CARTESIAN_POINT('',(0.,-0.6,0.));
#498 = VECTOR('',#499,1.);
#499 = DIRECTION('',(1.,0.,0.));
#500 = FACE_BOUND('',#501,.T.);
#501 = EDGE_LOOP('',(#502));
#502 = ORIENTED_EDGE('',*,*,#503,.F.);
#503 = EDGE_CURVE('',#504,#504,#506,.T.);
#504 = VERTEX_POINT('',#505);
#505 = CARTESIAN_POINT('',(8.,-0.6,9.65));
#506 = CIRCLE('',#507,1.65);
#507 = AXIS2_PLACEMENT_3D('',#508,#509,#510);
#508 = CARTESIAN_POINT('',(8.,-0.6,8.));
#509 = DIRECTION('',(0.,1.,0.));
#510 = DIRECTION('',(0.,0.,1.));
#511 = PLANE('',#512);
#512 = AXIS2_PLACEMENT_3D('',#513,#514,#515);
#513 = CARTESIAN_POINT('',(0.,-0.6,0.));
#514 = DIRECTION('',(0.,1.,0.));
#515 = DIRECTION('',(0.,0.,1.));
#516 = ADVANCED_FACE('',(#517,#551),#562,.F.);
#517 = FACE_BOUND('',#518,.F.);
#518 = EDGE_LOOP('',(#519,#529,#537,#543,#544,#545));
#519 = ORIENTED_EDGE('',*,*,#520,.F.);
#520 = EDGE_CURVE('',#521,#523,#525,.T.);
#521 = VERTEX_POINT('',#522);
#522 = CARTESIAN_POINT('',(2.426932219902,0.6,0.));
#523 = VERTEX_POINT('',#524);
#524 = CARTESIAN_POINT('',(11.462957385106,0.6,0.));
#525 = LINE('',#526,#527);
#526 = CARTESIAN_POINT('',(0.,0.6,0.));
#527 = VECTOR('',#528,1.);
#528 = DIRECTION('',(1.,0.,0.));
#529 = ORIENTED_EDGE('',*,*,#530,.T.);
#530 = EDGE_CURVE('',#521,#531,#533,.T.);
#531 = VERTEX_POINT('',#532);
#532 = CARTESIAN_POINT('',(2.426932219902,0.6,12.));
#533 = LINE('',#534,#535);
#534 = CARTESIAN_POINT('',(2.426932219902,0.6,-1.));
#535 = VECTOR('',#536,1.);
#536 = DIRECTION('',(0.,0.,1.));
#537 = ORIENTED_EDGE('',*,*,#538,.F.);
#538 = EDGE_CURVE('',#192,#531,#539,.T.);
#539 = LINE('',#540,#541);
#540 = CARTESIAN_POINT('',(0.,0.6,12.));
#541 = VECTOR('',#542,1.);
#542 = DIRECTION('',(-1.,0.,0.));
#543 = ORIENTED_EDGE('',*,*,#191,.F.);
#544 = ORIENTED_EDGE('',*,*,#90,.F.);
#545 = ORIENTED_EDGE('',*,*,#546,.F.);
#546 = EDGE_CURVE('',#523,#91,#547,.T.);
#547 = LINE('',#548,#549);
#548 = CARTESIAN_POINT('',(11.462957385106,0.6,-1.));
#549 = VECTOR('',#550,1.);
#550 = DIRECTION('',(0.,0.,1.));
#551 = FACE_BOUND('',#552,.F.);
#552 = EDGE_LOOP('',(#553));
#553 = ORIENTED_EDGE('',*,*,#554,.F.);
#554 = EDGE_CURVE('',#555,#555,#557,.T.);
#555 = VERTEX_POINT('',#556);
#556 = CARTESIAN_POINT('',(8.,0.6,9.65));
#557 = CIRCLE('',#558,1.65);
#558 = AXIS2_PLACEMENT_3D('',#559,#560,#561);
#559 = CARTESIAN_POINT('',(8.,0.6,8.));
#560 = DIRECTION('',(0.,1.,0.));
#561 = DIRECTION('',(0.,0.,1.));
#562 = PLANE('',#563);
#563 = AXIS2_PLACEMENT_3D('',#564,#565,#566);
#564 = CARTESIAN_POINT('',(0.,0.6,0.));
#565 = DIRECTION('',(0.,1.,0.));
#566 = DIRECTION('',(0.,0.,1.));
#567 = ADVANCED_FACE('',(#568),#587,.F.);
#568 = FACE_BOUND('',#569,.F.);
#569 = EDGE_LOOP('',(#570,#571,#579,#586));
#570 = ORIENTED_EDGE('',*,*,#124,.F.);
#571 = ORIENTED_EDGE('',*,*,#572,.F.);
#572 = EDGE_CURVE('',#573,#125,#575,.T.);
#573 = VERTEX_POINT('',#574);
#574 = CARTESIAN_POINT('',(1.65,13.,0.));
#575 = LINE('',#576,#577);
#576 = CARTESIAN_POINT('',(1.65,13.,-1.));
#577 = VECTOR('',#578,1.);
#578 = DIRECTION('',(0.,0.,1.));
#579 = ORIENTED_EDGE('',*,*,#580,.T.);
#580 = EDGE_CURVE('',#573,#573,#581,.T.);
#581 = CIRCLE('',#582,1.65);
#582 = AXIS2_PLACEMENT_3D('',#583,#584,#585);
#583 = CARTESIAN_POINT('',(7.960204194458E-16,13.,0.));
#584 = DIRECTION('',(0.,0.,1.));
#585 = DIRECTION('',(1.,0.,0.));
#586 = ORIENTED_EDGE('',*,*,#572,.T.);
#587 = CYLINDRICAL_SURFACE('',#588,1.65);
#588 = AXIS2_PLACEMENT_3D('',#589,#590,#591);
#589 = CARTESIAN_POINT('',(7.960204194458E-16,13.,-1.));
#590 = DIRECTION('',(0.,0.,1.));
#591 = DIRECTION('',(1.,0.,0.));
#592 = ADVANCED_FACE('',(#593),#605,.T.);
#593 = FACE_BOUND('',#594,.T.);
#594 = EDGE_LOOP('',(#595,#596,#597,#598));
#595 = ORIENTED_EDGE('',*,*,#538,.F.);
#596 = ORIENTED_EDGE('',*,*,#208,.T.);
#597 = ORIENTED_EDGE('',*,*,#479,.T.);
#598 = ORIENTED_EDGE('',*,*,#599,.F.);
#599 = EDGE_CURVE('',#531,#472,#600,.T.);
#600 = CIRCLE('',#601,2.5);
#601 = AXIS2_PLACEMENT_3D('',#602,#603,#604);
#602 = CARTESIAN_POINT('',(0.,0.,12.));
#603 = DIRECTION('',(0.,0.,1.));
#604 = DIRECTION('',(1.,0.,0.));
#605 = PLANE('',#606);
#606 = AXIS2_PLACEMENT_3D('',#607,#608,#609);
#607 = CARTESIAN_POINT('',(0.,0.,12.));
#608 = DIRECTION('',(0.,0.,1.));
#609 = DIRECTION('',(1.,0.,0.));
#610 = ADVANCED_FACE('',(#611),#622,.F.);
#611 = FACE_BOUND('',#612,.F.);
#612 = EDGE_LOOP('',(#613,#614,#620,#621));
#613 = ORIENTED_EDGE('',*,*,#217,.F.);
#614 = ORIENTED_EDGE('',*,*,#615,.F.);
#615 = EDGE_CURVE('',#555,#218,#616,.T.);
#616 = LINE('',#617,#618);
#617 = CARTESIAN_POINT('',(8.,-12.,9.65));
#618 = VECTOR('',#619,1.);
#619 = DIRECTION('',(0.,1.,0.));
#620 = ORIENTED_EDGE('',*,*,#554,.T.);
#621 = ORIENTED_EDGE('',*,*,#615,.T.);
#622 = CYLINDRICAL_SURFACE('',#623,1.65);
#623 = AXIS2_PLACEMENT_3D('',#624,#625,#626);
#624 = CARTESIAN_POINT('',(8.,-12.,8.));
#625 = DIRECTION('',(0.,1.,0.));
#626 = DIRECTION('',(0.,0.,1.));
#627 = ADVANCED_FACE('',(#628),#639,.F.);
#628 = FACE_BOUND('',#629,.F.);
#629 = EDGE_LOOP('',(#630,#631,#637,#638));
#630 = ORIENTED_EDGE('',*,*,#503,.F.);
#631 = ORIENTED_EDGE('',*,*,#632,.F.);
#632 = EDGE_CURVE('',#341,#504,#633,.T.);
#633 = LINE('',#634,#635);
#634 = CARTESIAN_POINT('',(8.,-12.,9.65));
#635 = VECTOR('',#636,1.);
#636 = DIRECTION('',(0.,1.,0.));
#637 = ORIENTED_EDGE('',*,*,#340,.T.);
#638 = ORIENTED_EDGE('',*,*,#632,.T.);
#639 = CYLINDRICAL_SURFACE('',#640,1.65);
#640 = AXIS2_PLACEMENT_3D('',#641,#642,#643);
#641 = CARTESIAN_POINT('',(8.,-12.,8.));
#642 = DIRECTION('',(0.,1.,0.));
#643 = DIRECTION('',(0.,0.,1.));
#644 = ADVANCED_FACE('',(#645),#657,.F.);
#645 = FACE_BOUND('',#646,.F.);
#646 = EDGE_LOOP('',(#647,#648,#649,#656));
#647 = ORIENTED_EDGE('',*,*,#599,.F.);
#648 = ORIENTED_EDGE('',*,*,#530,.F.);
#649 = ORIENTED_EDGE('',*,*,#650,.T.);
#650 = EDGE_CURVE('',#521,#470,#651,.T.);
#651 = CIRCLE('',#652,2.5);
#652 = AXIS2_PLACEMENT_3D('',#653,#654,#655);
#653 = CARTESIAN_POINT('',(0.,0.,0.));
#654 = DIRECTION('',(0.,0.,1.));
#655 = DIRECTION('',(1.,0.,0.));
#656 = ORIENTED_EDGE('',*,*,#469,.T.);
#657 = CYLINDRICAL_SURFACE('',#658,2.5);
#658 = AXIS2_PLACEMENT_3D('',#659,#660,#661);
#659 = CARTESIAN_POINT('',(0.,0.,-1.));
#660 = DIRECTION('',(0.,0.,1.));
#661 = DIRECTION('',(1.,0.,0.));
#662 = ADVANCED_FACE('',(#663,#666,#687,#690,#693),#696,.F.);
#663 = FACE_BOUND('',#664,.T.);
#664 = EDGE_LOOP('',(#665));
#665 = ORIENTED_EDGE('',*,*,#38,.F.);
#666 = FACE_BOUND('',#667,.F.);
#667 = EDGE_LOOP('',(#668,#669,#670,#679,#686));
#668 = ORIENTED_EDGE('',*,*,#650,.F.);
#669 = ORIENTED_EDGE('',*,*,#520,.T.);
#670 = ORIENTED_EDGE('',*,*,#671,.F.);
#671 = EDGE_CURVE('',#672,#523,#674,.T.);
#672 = VERTEX_POINT('',#673);
#673 = CARTESIAN_POINT('',(14.65,-4.041334437186E-16,0.));
#674 = CIRCLE('',#675,1.65);
#675 = AXIS2_PLACEMENT_3D('',#676,#677,#678);
#676 = CARTESIAN_POINT('',(13.,0.,0.));
#677 = DIRECTION('',(0.,0.,1.));
#678 = DIRECTION('',(1.,0.,0.));
#679 = ORIENTED_EDGE('',*,*,#680,.F.);
#680 = EDGE_CURVE('',#488,#672,#681,.T.);
#681 = CIRCLE('',#682,1.65);
#682 = AXIS2_PLACEMENT_3D('',#683,#684,#685);
#683 = CARTESIAN_POINT('',(13.,0.,0.));
#684 = DIRECTION('',(0.,0.,1.));
#685 = DIRECTION('',(1.,0.,0.));
#686 = ORIENTED_EDGE('',*,*,#495,.F.);
#687 = FACE_BOUND('',#688,.F.);
#688 = EDGE_LOOP('',(#689));
#689 = ORIENTED_EDGE('',*,*,#150,.F.);
#690 = FACE_BOUND('',#691,.F.);
#691 = EDGE_LOOP('',(#692));
#692 = ORIENTED_EDGE('',*,*,#175,.F.);
#693 = FACE_BOUND('',#694,.F.);
#694 = EDGE_LOOP('',(#695));
#695 = ORIENTED_EDGE('',*,*,#580,.F.);
#696 = PLANE('',#697);
#697 = AXIS2_PLACEMENT_3D('',#698,#699,#700);
#698 = CARTESIAN_POINT('',(0.,0.,0.));
#699 = DIRECTION('',(0.,0.,1.));
#700 = DIRECTION('',(1.,0.,0.));
#701 = ADVANCED_FACE('',(#702),#710,.F.);
#702 = FACE_BOUND('',#703,.F.);
#703 = EDGE_LOOP('',(#704,#705,#706,#707,#708,#709));
#704 = ORIENTED_EDGE('',*,*,#546,.T.);
#705 = ORIENTED_EDGE('',*,*,#98,.F.);
#706 = ORIENTED_EDGE('',*,*,#107,.F.);
#707 = ORIENTED_EDGE('',*,*,#487,.F.);
#708 = ORIENTED_EDGE('',*,*,#680,.T.);
#709 = ORIENTED_EDGE('',*,*,#671,.T.);
#710 = CYLINDRICAL_SURFACE('',#711,1.65);
#711 = AXIS2_PLACEMENT_3D('',#712,#713,#714);
#712 = CARTESIAN_POINT('',(13.,0.,-1.));
#713 = DIRECTION('',(0.,0.,1.));
#714 = DIRECTION('',(1.,0.,0.));
#715 = ( GEOMETRIC_REPRESENTATION_CONTEXT(3) 
GLOBAL_UNCERTAINTY_ASSIGNED_CONTEXT((#719)) GLOBAL_UNIT_ASSIGNED_CONTEXT
((#716,#717,#718)) REPRESENTATION_CONTEXT('Context #1',
  '3D Context with UNIT and UNCERTAINTY') );
#716 = ( LENGTH_UNIT() NAMED_UNIT(*) SI_UNIT(.MILLI.,.METRE.) );
#717 = ( NAMED_UNIT(*) PLANE_ANGLE_UNIT() SI_UNIT($,.RADIAN.) );
#718 = ( NAMED_UNIT(*) SI_UNIT($,.STERADIAN.) SOLID_ANGLE_UNIT() );
#719 = UNCERTAINTY_MEASURE_WITH_UNIT(LENGTH_MEASURE(1.E-07),#716,
  'distance_accuracy_value','confusion accuracy');
#720 = PRODUCT_RELATED_PRODUCT_CATEGORY('part',$,(#7));
ENDSEC;
END-ISO-10303-21;
