ISO-10303-21;
HEADER;
FILE_DESCRIPTION(('FreeCAD Model'),'2;1');
FILE_NAME('Open CASCADE Shape Model','2026-07-24T16:58:35',('FreeCAD'),(
    'FreeCAD'),'Open CASCADE STEP processor 7.8','FreeCAD','Unknown');
FILE_SCHEMA(('AUTOMOTIVE_DESIGN { 1 0 10303 214 1 1 1 1 }'));
ENDSEC;
DATA;
#1 = APPLICATION_PROTOCOL_DEFINITION('international standard',
  'automotive_design',2000,#2);
#2 = APPLICATION_CONTEXT(
  'core data for automotive mechanical design processes');
#3 = SHAPE_DEFINITION_REPRESENTATION(#4,#10);
#4 = PRODUCT_DEFINITION_SHAPE('','',#5);
#5 = PRODUCT_DEFINITION('design','',#6,#9);
#6 = PRODUCT_DEFINITION_FORMATION('','',#7);
#7 = PRODUCT('Open CASCADE STEP translator 7.8 40',
  'Open CASCADE STEP translator 7.8 40','',(#8));
#8 = PRODUCT_CONTEXT('',#2,'mechanical');
#9 = PRODUCT_DEFINITION_CONTEXT('part definition',#2,'design');
#10 = ADVANCED_BREP_SHAPE_REPRESENTATION('',(#11,#15),#795);
#11 = AXIS2_PLACEMENT_3D('',#12,#13,#14);
#12 = CARTESIAN_POINT('',(0.,0.,0.));
#13 = DIRECTION('',(0.,0.,1.));
#14 = DIRECTION('',(1.,0.,-0.));
#15 = MANIFOLD_SOLID_BREP('',#16);
#16 = CLOSED_SHELL('',(#17,#77,#229,#304,#328,#352,#376,#444,#472,#489,
    #522,#539,#551,#612,#629,#765,#776));
#17 = ADVANCED_FACE('',(#18),#72,.T.);
#18 = FACE_BOUND('',#19,.T.);
#19 = EDGE_LOOP('',(#20,#30,#39,#48,#56,#65));
#20 = ORIENTED_EDGE('',*,*,#21,.T.);
#21 = EDGE_CURVE('',#22,#24,#26,.T.);
#22 = VERTEX_POINT('',#23);
#23 = CARTESIAN_POINT('',(8.5,-2.081899558551E-15,0.));
#24 = VERTEX_POINT('',#25);
#25 = CARTESIAN_POINT('',(8.5,-2.081899558551E-15,6.));
#26 = LINE('',#27,#28);
#27 = CARTESIAN_POINT('',(8.5,-2.081899558551E-15,0.));
#28 = VECTOR('',#29,1.);
#29 = DIRECTION('',(0.,0.,1.));
#30 = ORIENTED_EDGE('',*,*,#31,.F.);
#31 = EDGE_CURVE('',#32,#24,#34,.T.);
#32 = VERTEX_POINT('',#33);
#33 = CARTESIAN_POINT('',(-6.888088825282,4.980384757729,6.));
#34 = CIRCLE('',#35,8.5);
#35 = AXIS2_PLACEMENT_3D('',#36,#37,#38);
#36 = CARTESIAN_POINT('',(0.,0.,6.));
#37 = DIRECTION('',(0.,0.,1.));
#38 = DIRECTION('',(1.,0.,0.));
#39 = ORIENTED_EDGE('',*,*,#40,.F.);
#40 = EDGE_CURVE('',#41,#32,#43,.T.);
#41 = VERTEX_POINT('',#42);
#42 = CARTESIAN_POINT('',(-8.078936944758,2.642116167511,4.65));
#43 = ELLIPSE('',#44,9.814954576224,8.5);
#44 = AXIS2_PLACEMENT_3D('',#45,#46,#47);
#45 = CARTESIAN_POINT('',(0.,0.,3.124573519457));
#46 = DIRECTION('',(0.,0.5,-0.866025403784));
#47 = DIRECTION('',(0.,0.866025403784,0.5));
#48 = ORIENTED_EDGE('',*,*,#49,.F.);
#49 = EDGE_CURVE('',#50,#41,#52,.T.);
#50 = VERTEX_POINT('',#51);
#51 = CARTESIAN_POINT('',(-8.078936944758,2.642116167511,1.35));
#52 = LINE('',#53,#54);
#53 = CARTESIAN_POINT('',(-8.078936944758,2.642116167511,
    3.555561458067E-16));
#54 = VECTOR('',#55,1.);
#55 = DIRECTION('',(0.,0.,1.));
#56 = ORIENTED_EDGE('',*,*,#57,.F.);
#57 = EDGE_CURVE('',#58,#50,#60,.T.);
#58 = VERTEX_POINT('',#59);
#59 = CARTESIAN_POINT('',(-6.888088825282,4.980384757729,0.));
#60 = ELLIPSE('',#61,9.814954576224,8.5);
#61 = AXIS2_PLACEMENT_3D('',#62,#63,#64);
#62 = CARTESIAN_POINT('',(0.,0.,2.875426480543));
#63 = DIRECTION('',(-0.,0.5,0.866025403784));
#64 = DIRECTION('',(0.,-0.866025403784,0.5));
#65 = ORIENTED_EDGE('',*,*,#66,.T.);
#66 = EDGE_CURVE('',#58,#22,#67,.T.);
#67 = CIRCLE('',#68,8.5);
#68 = AXIS2_PLACEMENT_3D('',#69,#70,#71);
#69 = CARTESIAN_POINT('',(0.,0.,0.));
#70 = DIRECTION('',(0.,0.,1.));
#71 = DIRECTION('',(1.,0.,0.));
#72 = CYLINDRICAL_SURFACE('',#73,8.5);
#73 = AXIS2_PLACEMENT_3D('',#74,#75,#76);
#74 = CARTESIAN_POINT('',(0.,0.,0.));
#75 = DIRECTION('',(0.,0.,1.));
#76 = DIRECTION('',(1.,0.,0.));
#77 = ADVANCED_FACE('',(#78,#105),#224,.T.);
#78 = FACE_BOUND('',#79,.T.);
#79 = EDGE_LOOP('',(#80,#89,#90,#99));
#80 = ORIENTED_EDGE('',*,*,#81,.F.);
#81 = EDGE_CURVE('',#24,#82,#84,.T.);
#82 = VERTEX_POINT('',#83);
#83 = CARTESIAN_POINT('',(0.6,8.478797084493,6.));
#84 = CIRCLE('',#85,8.5);
#85 = AXIS2_PLACEMENT_3D('',#86,#87,#88);
#86 = CARTESIAN_POINT('',(0.,0.,6.));
#87 = DIRECTION('',(0.,0.,1.));
#88 = DIRECTION('',(1.,0.,0.));
#89 = ORIENTED_EDGE('',*,*,#21,.F.);
#90 = ORIENTED_EDGE('',*,*,#91,.T.);
#91 = EDGE_CURVE('',#22,#92,#94,.T.);
#92 = VERTEX_POINT('',#93);
#93 = CARTESIAN_POINT('',(0.6,8.478797084493,0.));
#94 = CIRCLE('',#95,8.5);
#95 = AXIS2_PLACEMENT_3D('',#96,#97,#98);
#96 = CARTESIAN_POINT('',(0.,0.,0.));
#97 = DIRECTION('',(0.,0.,1.));
#98 = DIRECTION('',(1.,0.,0.));
#99 = ORIENTED_EDGE('',*,*,#100,.T.);
#100 = EDGE_CURVE('',#92,#82,#101,.T.);
#101 = LINE('',#102,#103);
#102 = CARTESIAN_POINT('',(0.6,8.478797084493,0.));
#103 = VECTOR('',#104,1.);
#104 = DIRECTION('',(0.,0.,1.));
#105 = FACE_BOUND('',#106,.T.);
#106 = EDGE_LOOP('',(#107));
#107 = ORIENTED_EDGE('',*,*,#108,.F.);
#108 = EDGE_CURVE('',#109,#109,#111,.T.);
#109 = VERTEX_POINT('',#110);
#110 = CARTESIAN_POINT('',(6.480740698408,5.5,4.625));
#111 = B_SPLINE_CURVE_WITH_KNOTS('',6,(#112,#113,#114,#115,#116,#117,
    #118,#119,#120,#121,#122,#123,#124,#125,#126,#127,#128,#129,#130,
    #131,#132,#133,#134,#135,#136,#137,#138,#139,#140,#141,#142,#143,
    #144,#145,#146,#147,#148,#149,#150,#151,#152,#153,#154,#155,#156,
    #157,#158,#159,#160,#161,#162,#163,#164,#165,#166,#167,#168,#169,
    #170,#171,#172,#173,#174,#175,#176,#177,#178,#179,#180,#181,#182,
    #183,#184,#185,#186,#187,#188,#189,#190,#191,#192,#193,#194,#195,
    #196,#197,#198,#199,#200,#201,#202,#203,#204,#205,#206,#207,#208,
    #209,#210,#211,#212,#213,#214,#215,#216,#217,#218,#219,#220,#221,
    #222,#223),.UNSPECIFIED.,.T.,.F.,(7,5,5,5,5,5,5,5,5,5,5,5,5,5,5,5,5,
    5,5,5,5,5,7),(0.,4.915996515156E-02,8.87212256907E-02,0.13137650326,
    0.154584028402,0.179855179876,0.233420471615,0.287941496934,
    0.335287085633,0.376939209111,0.434410779986,0.498238996687,
    0.567974159109,0.628101855273,0.675342624516,0.70960742738,
    0.733427955515,0.769240854788,0.79084965324,0.817725636595,
    0.838653361263,0.897470413901,1.),.UNSPECIFIED.);
#112 = CARTESIAN_POINT('',(6.480740698408,5.5,4.625));
#113 = CARTESIAN_POINT('',(6.550166372763,5.418194583035,4.625));
#114 = CARTESIAN_POINT('',(6.618637325572,5.33500257426,4.620058074627)
  );
#115 = CARTESIAN_POINT('',(6.685739934725,5.250871989411,4.609860343926)
  );
#116 = CARTESIAN_POINT('',(6.751109488137,5.166286747147,4.594151039731)
  );
#117 = CARTESIAN_POINT('',(6.814429132961,5.081763319804,4.572732779305)
  );
#118 = CARTESIAN_POINT('',(6.924518052057,4.930316412873,4.523524696309)
  );
#119 = CARTESIAN_POINT('',(6.972077043436,4.863217081258,4.497807914736)
  );
#120 = CARTESIAN_POINT('',(7.01789213509,4.796936753921,4.468286247102)
  );
#121 = CARTESIAN_POINT('',(7.061791920084,4.731860892965,4.434990288009)
  );
#122 = CARTESIAN_POINT('',(7.103642998926,4.668364007189,4.398011960603)
  );
#123 = CARTESIAN_POINT('',(7.186153542479,4.540422429077,4.313830067827)
  );
#124 = CARTESIAN_POINT('',(7.226435400393,4.476335969734,4.266081863759)
  );
#125 = CARTESIAN_POINT('',(7.264083130428,4.414963170492,4.214453107892)
  );
#126 = CARTESIAN_POINT('',(7.299032404885,4.356695853858,4.159209203478)
  );
#127 = CARTESIAN_POINT('',(7.331254941826,4.30188094432,4.100687601318)
  );
#128 = CARTESIAN_POINT('',(7.376798512289,4.22301710239,4.005896365545)
  );
#129 = CARTESIAN_POINT('',(7.392042818417,4.196329018805,3.971638685936)
  );
#130 = CARTESIAN_POINT('',(7.406489473745,4.17077779143,3.936576099124)
  );
#131 = CARTESIAN_POINT('',(7.420145153616,4.146396013811,3.900763446456)
  );
#132 = CARTESIAN_POINT('',(7.433017358493,4.123212525884,3.864258433465)
  );
#133 = CARTESIAN_POINT('',(7.458287146463,4.077339596431,3.786682600576)
  );
#134 = CARTESIAN_POINT('',(7.470540835324,4.054876966905,3.745493895358)
  );
#135 = CARTESIAN_POINT('',(7.481890186132,4.033889450925,3.703621246719)
  );
#136 = CARTESIAN_POINT('',(7.492349148098,4.014398240114,3.661131583368)
  );
#137 = CARTESIAN_POINT('',(7.501930914048,3.996420792193,3.618093030216)
  );
#138 = CARTESIAN_POINT('',(7.52912467998,3.945103129271,3.482332934551)
  );
#139 = CARTESIAN_POINT('',(7.54371183413,3.917106028851,3.387957990735)
  );
#140 = CARTESIAN_POINT('',(7.554553131789,3.896060480773,3.291998332595)
  );
#141 = CARTESIAN_POINT('',(7.561745810781,3.882017808489,3.194995423967)
  );
#142 = CARTESIAN_POINT('',(7.565340375687,3.875,3.097485311615));
#143 = CARTESIAN_POINT('',(7.565340375687,3.875,2.900775316064));
#144 = CARTESIAN_POINT('',(7.561616393703,3.882270469172,2.801523430819)
  );
#145 = CARTESIAN_POINT('',(7.554164484545,3.896819266367,2.702806331564)
  );
#146 = CARTESIAN_POINT('',(7.542930517248,3.918622601276,2.605190299611)
  );
#147 = CARTESIAN_POINT('',(7.527810446325,3.947624745754,2.50924738281)
  );
#148 = CARTESIAN_POINT('',(7.492012322802,4.015097962681,2.334196832204)
  );
#149 = CARTESIAN_POINT('',(7.472320770455,4.051833280514,2.254502775099)
  );
#150 = CARTESIAN_POINT('',(7.449497310043,4.093845017841,2.176983014605)
  );
#151 = CARTESIAN_POINT('',(7.423459766361,4.140969982932,2.102117154517)
  );
#152 = CARTESIAN_POINT('',(7.394127603219,4.192988791983,2.030354514652)
  );
#153 = CARTESIAN_POINT('',(7.332658982349,4.299467785889,1.902076930142)
  );
#154 = CARTESIAN_POINT('',(7.30128773407,4.35287564146,1.8447740042));
#155 = CARTESIAN_POINT('',(7.26731307495,4.409590518337,1.790585874119)
  );
#156 = CARTESIAN_POINT('',(7.23076040758,4.469290653314,1.739829608145)
  );
#157 = CARTESIAN_POINT('',(7.191687803493,4.531612896354,1.692756673692)
  );
#158 = CARTESIAN_POINT('',(7.092938422023,4.685235971737,1.589939076414)
  );
#159 = CARTESIAN_POINT('',(7.031154189469,4.778425635198,1.537776124698)
  );
#160 = CARTESIAN_POINT('',(6.965122475606,4.874682889045,1.49351032593)
  );
#161 = CARTESIAN_POINT('',(6.895261599079,4.97287292849,1.457333449384)
  );
#162 = CARTESIAN_POINT('',(6.822156951833,5.071845283174,1.429187263311)
  );
#163 = CARTESIAN_POINT('',(6.662626901769,5.280004469751,1.386079568115)
  );
#164 = CARTESIAN_POINT('',(6.575651417673,5.389072734785,1.372928265386)
  );
#165 = CARTESIAN_POINT('',(6.486199477318,5.496774432866,1.368740945503)
  );
#166 = CARTESIAN_POINT('',(6.394892029181,5.602335768671,1.372917195221)
  );
#167 = CARTESIAN_POINT('',(6.302411471557,5.705096226212,1.384821956776)
  );
#168 = CARTESIAN_POINT('',(6.107981962755,5.913091815056,1.424499237365)
  );
#169 = CARTESIAN_POINT('',(6.005813262268,6.017820604225,1.453665985593)
  );
#170 = CARTESIAN_POINT('',(5.903529143767,6.118378767659,1.490534624513)
  );
#171 = CARTESIAN_POINT('',(5.801653903664,6.214579227792,1.534543548587)
  );
#172 = CARTESIAN_POINT('',(5.700752480565,6.306253113966,1.585286832355)
  );
#173 = CARTESIAN_POINT('',(5.515954720942,6.468167027771,1.691821548685)
  );
#174 = CARTESIAN_POINT('',(5.431646937425,6.53960564336,1.745944978102)
  );
#175 = CARTESIAN_POINT('',(5.348903582845,6.607506929662,1.804767267692)
  );
#176 = CARTESIAN_POINT('',(5.268154575198,6.671771441553,1.868293482033)
  );
#177 = CARTESIAN_POINT('',(5.1900311939,6.73218374103,1.936583845433));
#178 = CARTESIAN_POINT('',(5.056847557055,6.832545393778,2.067155856108)
  );
#179 = CARTESIAN_POINT('',(5.000381733561,6.874144492428,2.127638521197)
  );
#180 = CARTESIAN_POINT('',(4.94647830516,6.91301690177,2.191216616073));
#181 = CARTESIAN_POINT('',(4.895699569949,6.948927046517,2.257944782496)
  );
#182 = CARTESIAN_POINT('',(4.848742307077,6.981570652862,2.327865890401)
  );
#183 = CARTESIAN_POINT('',(4.775755553292,7.031610264364,2.454058641606)
  );
#184 = CARTESIAN_POINT('',(4.747482213182,7.050757508555,2.50887026511)
  );
#185 = CARTESIAN_POINT('',(4.722045430232,7.067796138372,2.565291729924)
  );
#186 = CARTESIAN_POINT('',(4.699836815793,7.082540735474,2.623174861301)
  );
#187 = CARTESIAN_POINT('',(4.681209008077,7.094828618194,2.68237488743)
  );
#188 = CARTESIAN_POINT('',(4.656226104333,7.111238198732,2.784724599227)
  );
#189 = CARTESIAN_POINT('',(4.647868993868,7.116701992526,2.827232779824)
  );
#190 = CARTESIAN_POINT('',(4.641518959117,7.120839924913,2.870144123132)
  );
#191 = CARTESIAN_POINT('',(4.637256646252,7.123612606523,2.91332802006)
  );
#192 = CARTESIAN_POINT('',(4.635124054435,7.125,2.956655565264));
#193 = CARTESIAN_POINT('',(4.635124054435,7.125,3.065166056203));
#194 = CARTESIAN_POINT('',(4.639944151984,7.121863864119,3.130217010652)
  );
#195 = CARTESIAN_POINT('',(4.649554508047,7.115613200112,3.194780940437)
  );
#196 = CARTESIAN_POINT('',(4.663751857198,7.106341012099,3.258472982029)
  );
#197 = CARTESIAN_POINT('',(4.682164311803,7.094225884579,3.320897934593)
  );
#198 = CARTESIAN_POINT('',(4.717585956266,7.070688713486,3.418311191357)
  );
#199 = CARTESIAN_POINT('',(4.732269818841,7.060888317332,3.454400865943)
  );
#200 = CARTESIAN_POINT('',(4.748219420193,7.050186184566,3.489896328676)
  );
#201 = CARTESIAN_POINT('',(4.765343767615,7.038625340952,3.524771877214)
  );
#202 = CARTESIAN_POINT('',(4.783549209425,7.026250631425,3.559001665274)
  );
#203 = CARTESIAN_POINT('',(4.826607313747,6.996763443378,3.634297574137)
  );
#204 = CARTESIAN_POINT('',(4.852003891152,6.979228251036,3.67500531382)
  );
#205 = CARTESIAN_POINT('',(4.878773791848,6.96057312594,3.714682057639)
  );
#206 = CARTESIAN_POINT('',(4.906773939717,6.940862170681,3.753328466952)
  );
#207 = CARTESIAN_POINT('',(4.93587355786,6.920153607563,3.790946728503)
  );
#208 = CARTESIAN_POINT('',(4.989377264623,6.881638428298,3.856035344871)
  );
#209 = CARTESIAN_POINT('',(5.013398954035,6.864201253845,3.883913562628)
  );
#210 = CARTESIAN_POINT('',(5.037967669036,6.846209978651,3.911181292485)
  );
#211 = CARTESIAN_POINT('',(5.063037032291,6.82768354962,3.937844680527)
  );
#212 = CARTESIAN_POINT('',(5.088565856916,6.808638137164,3.963909934137)
  );
#213 = CARTESIAN_POINT('',(5.18745666251,6.734139340837,4.06097589209));
#214 = CARTESIAN_POINT('',(5.263784750247,6.675164031705,4.127937344777)
  );
#215 = CARTESIAN_POINT('',(5.342647127311,6.612494829898,4.190334787217)
  );
#216 = CARTESIAN_POINT('',(5.423449085603,6.546334661318,4.248228255157)
  );
#217 = CARTESIAN_POINT('',(5.50578330851,6.476778172831,4.30162731081));
#218 = CARTESIAN_POINT('',(5.735041377049,6.276678499918,4.435550990789)
  );
#219 = CARTESIAN_POINT('',(5.884667816922,6.139076025728,4.506844071949)
  );
#220 = CARTESIAN_POINT('',(6.035882094374,5.991740651743,4.563332764699)
  );
#221 = CARTESIAN_POINT('',(6.18684145581,5.835352948546,4.603449647745)
  );
#222 = CARTESIAN_POINT('',(6.335764079479,5.670828340838,4.625));
#223 = CARTESIAN_POINT('',(6.480740698408,5.5,4.625));
#224 = CYLINDRICAL_SURFACE('',#225,8.5);
#225 = AXIS2_PLACEMENT_3D('',#226,#227,#228);
#226 = CARTESIAN_POINT('',(0.,0.,0.));
#227 = DIRECTION('',(0.,0.,1.));
#228 = DIRECTION('',(1.,0.,0.));
#229 = ADVANCED_FACE('',(#230),#299,.F.);
#230 = FACE_BOUND('',#231,.F.);
#231 = EDGE_LOOP('',(#232,#242,#251,#259,#267,#273,#274,#275,#283,#292)
  );
#232 = ORIENTED_EDGE('',*,*,#233,.T.);
#233 = EDGE_CURVE('',#234,#236,#238,.T.);
#234 = VERTEX_POINT('',#235);
#235 = CARTESIAN_POINT('',(-0.6,2.504121602479,0.));
#236 = VERTEX_POINT('',#237);
#237 = CARTESIAN_POINT('',(-0.6,8.478797084493,0.));
#238 = LINE('',#239,#240);
#239 = CARTESIAN_POINT('',(-0.6,0.,0.));
#240 = VECTOR('',#241,1.);
#241 = DIRECTION('',(0.,1.,0.));
#242 = ORIENTED_EDGE('',*,*,#243,.T.);
#243 = EDGE_CURVE('',#236,#244,#246,.T.);
#244 = VERTEX_POINT('',#245);
#245 = CARTESIAN_POINT('',(-6.00118591072,6.019615242271,0.));
#246 = CIRCLE('',#247,8.5);
#247 = AXIS2_PLACEMENT_3D('',#248,#249,#250);
#248 = CARTESIAN_POINT('',(0.,0.,0.));
#249 = DIRECTION('',(0.,0.,1.));
#250 = DIRECTION('',(1.,0.,0.));
#251 = ORIENTED_EDGE('',*,*,#252,.T.);
#252 = EDGE_CURVE('',#244,#253,#255,.T.);
#253 = VERTEX_POINT('',#254);
#254 = CARTESIAN_POINT('',(-5.5,6.019615242271,0.));
#255 = LINE('',#256,#257);
#256 = CARTESIAN_POINT('',(-4.25,6.019615242271,0.));
#257 = VECTOR('',#258,1.);
#258 = DIRECTION('',(1.,0.,0.));
#259 = ORIENTED_EDGE('',*,*,#260,.F.);
#260 = EDGE_CURVE('',#261,#253,#263,.T.);
#261 = VERTEX_POINT('',#262);
#262 = CARTESIAN_POINT('',(-5.5,4.980384757729,0.));
#263 = LINE('',#264,#265);
#264 = CARTESIAN_POINT('',(-5.5,2.75,0.));
#265 = VECTOR('',#266,1.);
#266 = DIRECTION('',(0.,1.,0.));
#267 = ORIENTED_EDGE('',*,*,#268,.T.);
#268 = EDGE_CURVE('',#261,#58,#269,.T.);
#269 = LINE('',#270,#271);
#270 = CARTESIAN_POINT('',(-4.25,4.980384757729,0.));
#271 = VECTOR('',#272,1.);
#272 = DIRECTION('',(-1.,0.,0.));
#273 = ORIENTED_EDGE('',*,*,#66,.T.);
#274 = ORIENTED_EDGE('',*,*,#91,.T.);
#275 = ORIENTED_EDGE('',*,*,#276,.F.);
#276 = EDGE_CURVE('',#277,#92,#279,.T.);
#277 = VERTEX_POINT('',#278);
#278 = CARTESIAN_POINT('',(0.6,2.504121602479,0.));
#279 = LINE('',#280,#281);
#280 = CARTESIAN_POINT('',(0.6,0.,0.));
#281 = VECTOR('',#282,1.);
#282 = DIRECTION('',(0.,1.,0.));
#283 = ORIENTED_EDGE('',*,*,#284,.F.);
#284 = EDGE_CURVE('',#285,#277,#287,.T.);
#285 = VERTEX_POINT('',#286);
#286 = CARTESIAN_POINT('',(2.575,-6.306931015609E-16,0.));
#287 = CIRCLE('',#288,2.575);
#288 = AXIS2_PLACEMENT_3D('',#289,#290,#291);
#289 = CARTESIAN_POINT('',(0.,0.,0.));
#290 = DIRECTION('',(0.,0.,1.));
#291 = DIRECTION('',(1.,0.,0.));
#292 = ORIENTED_EDGE('',*,*,#293,.F.);
#293 = EDGE_CURVE('',#234,#285,#294,.T.);
#294 = CIRCLE('',#295,2.575);
#295 = AXIS2_PLACEMENT_3D('',#296,#297,#298);
#296 = CARTESIAN_POINT('',(0.,0.,0.));
#297 = DIRECTION('',(0.,0.,1.));
#298 = DIRECTION('',(1.,0.,0.));
#299 = PLANE('',#300);
#300 = AXIS2_PLACEMENT_3D('',#301,#302,#303);
#301 = CARTESIAN_POINT('',(0.,0.,0.));
#302 = DIRECTION('',(0.,0.,1.));
#303 = DIRECTION('',(1.,0.,0.));
#304 = ADVANCED_FACE('',(#305),#323,.T.);
#305 = FACE_BOUND('',#306,.T.);
#306 = EDGE_LOOP('',(#307,#308,#316,#322));
#307 = ORIENTED_EDGE('',*,*,#57,.T.);
#308 = ORIENTED_EDGE('',*,*,#309,.T.);
#309 = EDGE_CURVE('',#50,#310,#312,.T.);
#310 = VERTEX_POINT('',#311);
#311 = CARTESIAN_POINT('',(-5.5,2.642116167511,1.35));
#312 = LINE('',#313,#314);
#313 = CARTESIAN_POINT('',(-8.5,2.642116167511,1.35));
#314 = VECTOR('',#315,1.);
#315 = DIRECTION('',(1.,0.,0.));
#316 = ORIENTED_EDGE('',*,*,#317,.T.);
#317 = EDGE_CURVE('',#310,#261,#318,.T.);
#318 = LINE('',#319,#320);
#319 = CARTESIAN_POINT('',(-5.5,2.642116167511,1.35));
#320 = VECTOR('',#321,1.);
#321 = DIRECTION('',(0.,0.866025403784,-0.5));
#322 = ORIENTED_EDGE('',*,*,#268,.T.);
#323 = PLANE('',#324);
#324 = AXIS2_PLACEMENT_3D('',#325,#326,#327);
#325 = CARTESIAN_POINT('',(-8.5,2.642116167511,1.35));
#326 = DIRECTION('',(0.,0.5,0.866025403784));
#327 = DIRECTION('',(0.,0.866025403784,-0.5));
#328 = ADVANCED_FACE('',(#329),#347,.T.);
#329 = FACE_BOUND('',#330,.T.);
#330 = EDGE_LOOP('',(#331,#332,#340,#346));
#331 = ORIENTED_EDGE('',*,*,#49,.T.);
#332 = ORIENTED_EDGE('',*,*,#333,.T.);
#333 = EDGE_CURVE('',#41,#334,#336,.T.);
#334 = VERTEX_POINT('',#335);
#335 = CARTESIAN_POINT('',(-5.5,2.642116167511,4.65));
#336 = LINE('',#337,#338);
#337 = CARTESIAN_POINT('',(-8.5,2.642116167511,4.65));
#338 = VECTOR('',#339,1.);
#339 = DIRECTION('',(1.,0.,0.));
#340 = ORIENTED_EDGE('',*,*,#341,.T.);
#341 = EDGE_CURVE('',#334,#310,#342,.T.);
#342 = LINE('',#343,#344);
#343 = CARTESIAN_POINT('',(-5.5,2.642116167511,4.65));
#344 = VECTOR('',#345,1.);
#345 = DIRECTION('',(0.,1.345724878334E-16,-1.));
#346 = ORIENTED_EDGE('',*,*,#309,.F.);
#347 = PLANE('',#348);
#348 = AXIS2_PLACEMENT_3D('',#349,#350,#351);
#349 = CARTESIAN_POINT('',(-8.5,2.642116167511,4.65));
#350 = DIRECTION('',(0.,1.,1.345724878334E-16));
#351 = DIRECTION('',(0.,1.345724878334E-16,-1.));
#352 = ADVANCED_FACE('',(#353),#371,.T.);
#353 = FACE_BOUND('',#354,.T.);
#354 = EDGE_LOOP('',(#355,#363,#369,#370));
#355 = ORIENTED_EDGE('',*,*,#356,.F.);
#356 = EDGE_CURVE('',#357,#32,#359,.T.);
#357 = VERTEX_POINT('',#358);
#358 = CARTESIAN_POINT('',(-5.5,4.980384757729,6.));
#359 = LINE('',#360,#361);
#360 = CARTESIAN_POINT('',(-4.25,4.980384757729,6.));
#361 = VECTOR('',#362,1.);
#362 = DIRECTION('',(-1.,0.,0.));
#363 = ORIENTED_EDGE('',*,*,#364,.T.);
#364 = EDGE_CURVE('',#357,#334,#365,.T.);
#365 = LINE('',#366,#367);
#366 = CARTESIAN_POINT('',(-5.5,5.5,6.3));
#367 = VECTOR('',#368,1.);
#368 = DIRECTION('',(0.,-0.866025403784,-0.5));
#369 = ORIENTED_EDGE('',*,*,#333,.F.);
#370 = ORIENTED_EDGE('',*,*,#40,.T.);
#371 = PLANE('',#372);
#372 = AXIS2_PLACEMENT_3D('',#373,#374,#375);
#373 = CARTESIAN_POINT('',(-8.5,5.5,6.3));
#374 = DIRECTION('',(0.,0.5,-0.866025403784));
#375 = DIRECTION('',(0.,-0.866025403784,-0.5));
#376 = ADVANCED_FACE('',(#377),#439,.T.);
#377 = FACE_BOUND('',#378,.T.);
#378 = EDGE_LOOP('',(#379,#389,#398,#406,#412,#413,#414,#415,#423,#432)
  );
#379 = ORIENTED_EDGE('',*,*,#380,.T.);
#380 = EDGE_CURVE('',#381,#383,#385,.T.);
#381 = VERTEX_POINT('',#382);
#382 = CARTESIAN_POINT('',(-0.6,2.504121602479,6.));
#383 = VERTEX_POINT('',#384);
#384 = CARTESIAN_POINT('',(-0.6,8.478797084493,6.));
#385 = LINE('',#386,#387);
#386 = CARTESIAN_POINT('',(-0.6,0.,6.));
#387 = VECTOR('',#388,1.);
#388 = DIRECTION('',(0.,1.,0.));
#389 = ORIENTED_EDGE('',*,*,#390,.T.);
#390 = EDGE_CURVE('',#383,#391,#393,.T.);
#391 = VERTEX_POINT('',#392);
#392 = CARTESIAN_POINT('',(-6.00118591072,6.019615242271,6.));
#393 = CIRCLE('',#394,8.5);
#394 = AXIS2_PLACEMENT_3D('',#395,#396,#397);
#395 = CARTESIAN_POINT('',(0.,0.,6.));
#396 = DIRECTION('',(0.,0.,1.));
#397 = DIRECTION('',(1.,0.,0.));
#398 = ORIENTED_EDGE('',*,*,#399,.T.);
#399 = EDGE_CURVE('',#391,#400,#402,.T.);
#400 = VERTEX_POINT('',#401);
#401 = CARTESIAN_POINT('',(-5.5,6.019615242271,6.));
#402 = LINE('',#403,#404);
#403 = CARTESIAN_POINT('',(-4.25,6.019615242271,6.));
#404 = VECTOR('',#405,1.);
#405 = DIRECTION('',(1.,0.,0.));
#406 = ORIENTED_EDGE('',*,*,#407,.F.);
#407 = EDGE_CURVE('',#357,#400,#408,.T.);
#408 = LINE('',#409,#410);
#409 = CARTESIAN_POINT('',(-5.5,2.75,6.));
#410 = VECTOR('',#411,1.);
#411 = DIRECTION('',(0.,1.,0.));
#412 = ORIENTED_EDGE('',*,*,#356,.T.);
#413 = ORIENTED_EDGE('',*,*,#31,.T.);
#414 = ORIENTED_EDGE('',*,*,#81,.T.);
#415 = ORIENTED_EDGE('',*,*,#416,.F.);
#416 = EDGE_CURVE('',#417,#82,#419,.T.);
#417 = VERTEX_POINT('',#418);
#418 = CARTESIAN_POINT('',(0.6,2.504121602479,6.));
#419 = LINE('',#420,#421);
#420 = CARTESIAN_POINT('',(0.6,0.,6.));
#421 = VECTOR('',#422,1.);
#422 = DIRECTION('',(0.,1.,0.));
#423 = ORIENTED_EDGE('',*,*,#424,.F.);
#424 = EDGE_CURVE('',#425,#417,#427,.T.);
#425 = VERTEX_POINT('',#426);
#426 = CARTESIAN_POINT('',(2.575,-6.306931015609E-16,6.));
#427 = CIRCLE('',#428,2.575);
#428 = AXIS2_PLACEMENT_3D('',#429,#430,#431);
#429 = CARTESIAN_POINT('',(0.,0.,6.));
#430 = DIRECTION('',(0.,0.,1.));
#431 = DIRECTION('',(1.,0.,0.));
#432 = ORIENTED_EDGE('',*,*,#433,.F.);
#433 = EDGE_CURVE('',#381,#425,#434,.T.);
#434 = CIRCLE('',#435,2.575);
#435 = AXIS2_PLACEMENT_3D('',#436,#437,#438);
#436 = CARTESIAN_POINT('',(0.,0.,6.));
#437 = DIRECTION('',(0.,0.,1.));
#438 = DIRECTION('',(1.,0.,0.));
#439 = PLANE('',#440);
#440 = AXIS2_PLACEMENT_3D('',#441,#442,#443);
#441 = CARTESIAN_POINT('',(0.,0.,6.));
#442 = DIRECTION('',(0.,0.,1.));
#443 = DIRECTION('',(1.,0.,0.));
#444 = ADVANCED_FACE('',(#445,#456),#467,.F.);
#445 = FACE_BOUND('',#446,.F.);
#446 = EDGE_LOOP('',(#447,#448,#454,#455));
#447 = ORIENTED_EDGE('',*,*,#416,.F.);
#448 = ORIENTED_EDGE('',*,*,#449,.F.);
#449 = EDGE_CURVE('',#277,#417,#450,.T.);
#450 = LINE('',#451,#452);
#451 = CARTESIAN_POINT('',(0.6,2.504121602479,0.));
#452 = VECTOR('',#453,1.);
#453 = DIRECTION('',(0.,0.,1.));
#454 = ORIENTED_EDGE('',*,*,#276,.T.);
#455 = ORIENTED_EDGE('',*,*,#100,.T.);
#456 = FACE_BOUND('',#457,.F.);
#457 = EDGE_LOOP('',(#458));
#458 = ORIENTED_EDGE('',*,*,#459,.F.);
#459 = EDGE_CURVE('',#460,#460,#462,.T.);
#460 = VERTEX_POINT('',#461);
#461 = CARTESIAN_POINT('',(0.6,5.5,4.625));
#462 = CIRCLE('',#463,1.625);
#463 = AXIS2_PLACEMENT_3D('',#464,#465,#466);
#464 = CARTESIAN_POINT('',(0.6,5.5,3.));
#465 = DIRECTION('',(1.,0.,-0.));
#466 = DIRECTION('',(0.,0.,1.));
#467 = PLANE('',#468);
#468 = AXIS2_PLACEMENT_3D('',#469,#470,#471);
#469 = CARTESIAN_POINT('',(0.6,0.,0.));
#470 = DIRECTION('',(1.,0.,0.));
#471 = DIRECTION('',(0.,0.,1.));
#472 = ADVANCED_FACE('',(#473),#484,.F.);
#473 = FACE_BOUND('',#474,.F.);
#474 = EDGE_LOOP('',(#475,#476,#482,#483));
#475 = ORIENTED_EDGE('',*,*,#108,.F.);
#476 = ORIENTED_EDGE('',*,*,#477,.F.);
#477 = EDGE_CURVE('',#460,#109,#478,.T.);
#478 = LINE('',#479,#480);
#479 = CARTESIAN_POINT('',(-8.5,5.5,4.625));
#480 = VECTOR('',#481,1.);
#481 = DIRECTION('',(1.,0.,0.));
#482 = ORIENTED_EDGE('',*,*,#459,.T.);
#483 = ORIENTED_EDGE('',*,*,#477,.T.);
#484 = CYLINDRICAL_SURFACE('',#485,1.625);
#485 = AXIS2_PLACEMENT_3D('',#486,#487,#488);
#486 = CARTESIAN_POINT('',(-8.5,5.5,3.));
#487 = DIRECTION('',(1.,0.,0.));
#488 = DIRECTION('',(0.,0.,1.));
#489 = ADVANCED_FACE('',(#490,#506),#517,.T.);
#490 = FACE_BOUND('',#491,.T.);
#491 = EDGE_LOOP('',(#492,#493,#499,#500));
#492 = ORIENTED_EDGE('',*,*,#380,.F.);
#493 = ORIENTED_EDGE('',*,*,#494,.F.);
#494 = EDGE_CURVE('',#234,#381,#495,.T.);
#495 = LINE('',#496,#497);
#496 = CARTESIAN_POINT('',(-0.6,2.504121602479,0.));
#497 = VECTOR('',#498,1.);
#498 = DIRECTION('',(0.,0.,1.));
#499 = ORIENTED_EDGE('',*,*,#233,.T.);
#500 = ORIENTED_EDGE('',*,*,#501,.T.);
#501 = EDGE_CURVE('',#236,#383,#502,.T.);
#502 = LINE('',#503,#504);
#503 = CARTESIAN_POINT('',(-0.6,8.478797084493,0.));
#504 = VECTOR('',#505,1.);
#505 = DIRECTION('',(0.,0.,1.));
#506 = FACE_BOUND('',#507,.T.);
#507 = EDGE_LOOP('',(#508));
#508 = ORIENTED_EDGE('',*,*,#509,.F.);
#509 = EDGE_CURVE('',#510,#510,#512,.T.);
#510 = VERTEX_POINT('',#511);
#511 = CARTESIAN_POINT('',(-0.6,5.5,4.625));
#512 = CIRCLE('',#513,1.625);
#513 = AXIS2_PLACEMENT_3D('',#514,#515,#516);
#514 = CARTESIAN_POINT('',(-0.6,5.5,3.));
#515 = DIRECTION('',(1.,0.,-0.));
#516 = DIRECTION('',(0.,0.,1.));
#517 = PLANE('',#518);
#518 = AXIS2_PLACEMENT_3D('',#519,#520,#521);
#519 = CARTESIAN_POINT('',(-0.6,0.,0.));
#520 = DIRECTION('',(1.,0.,0.));
#521 = DIRECTION('',(0.,0.,1.));
#522 = ADVANCED_FACE('',(#523),#534,.F.);
#523 = FACE_BOUND('',#524,.F.);
#524 = EDGE_LOOP('',(#525,#531,#532,#533));
#525 = ORIENTED_EDGE('',*,*,#526,.T.);
#526 = EDGE_CURVE('',#285,#425,#527,.T.);
#527 = LINE('',#528,#529);
#528 = CARTESIAN_POINT('',(2.575,-6.306931015609E-16,0.));
#529 = VECTOR('',#530,1.);
#530 = DIRECTION('',(0.,0.,1.));
#531 = ORIENTED_EDGE('',*,*,#433,.F.);
#532 = ORIENTED_EDGE('',*,*,#494,.F.);
#533 = ORIENTED_EDGE('',*,*,#293,.T.);
#534 = CYLINDRICAL_SURFACE('',#535,2.575);
#535 = AXIS2_PLACEMENT_3D('',#536,#537,#538);
#536 = CARTESIAN_POINT('',(0.,0.,0.));
#537 = DIRECTION('',(0.,0.,1.));
#538 = DIRECTION('',(1.,0.,0.));
#539 = ADVANCED_FACE('',(#540),#546,.F.);
#540 = FACE_BOUND('',#541,.F.);
#541 = EDGE_LOOP('',(#542,#543,#544,#545));
#542 = ORIENTED_EDGE('',*,*,#424,.F.);
#543 = ORIENTED_EDGE('',*,*,#526,.F.);
#544 = ORIENTED_EDGE('',*,*,#284,.T.);
#545 = ORIENTED_EDGE('',*,*,#449,.T.);
#546 = CYLINDRICAL_SURFACE('',#547,2.575);
#547 = AXIS2_PLACEMENT_3D('',#548,#549,#550);
#548 = CARTESIAN_POINT('',(0.,0.,0.));
#549 = DIRECTION('',(0.,0.,1.));
#550 = DIRECTION('',(1.,0.,0.));
#551 = ADVANCED_FACE('',(#552),#607,.F.);
#552 = FACE_BOUND('',#553,.F.);
#553 = EDGE_LOOP('',(#554,#564,#570,#571,#572,#573,#574,#575,#583,#591,
    #600));
#554 = ORIENTED_EDGE('',*,*,#555,.T.);
#555 = EDGE_CURVE('',#556,#558,#560,.T.);
#556 = VERTEX_POINT('',#557);
#557 = CARTESIAN_POINT('',(-5.5,6.48074068898,4.295674611429));
#558 = VERTEX_POINT('',#559);
#559 = CARTESIAN_POINT('',(-5.5,6.480740698408,5.733769093769));
#560 = LINE('',#561,#562);
#561 = CARTESIAN_POINT('',(-5.5,6.480740698408,0.));
#562 = VECTOR('',#563,1.);
#563 = DIRECTION('',(0.,0.,1.));
#564 = ORIENTED_EDGE('',*,*,#565,.T.);
#565 = EDGE_CURVE('',#558,#400,#566,.T.);
#566 = LINE('',#567,#568);
#567 = CARTESIAN_POINT('',(-5.5,8.357883832489,4.65));
#568 = VECTOR('',#569,1.);
#569 = DIRECTION('',(0.,-0.866025403784,0.5));
#570 = ORIENTED_EDGE('',*,*,#407,.F.);
#571 = ORIENTED_EDGE('',*,*,#364,.T.);
#572 = ORIENTED_EDGE('',*,*,#341,.T.);
#573 = ORIENTED_EDGE('',*,*,#317,.T.);
#574 = ORIENTED_EDGE('',*,*,#260,.T.);
#575 = ORIENTED_EDGE('',*,*,#576,.T.);
#576 = EDGE_CURVE('',#253,#577,#579,.T.);
#577 = VERTEX_POINT('',#578);
#578 = CARTESIAN_POINT('',(-5.5,6.480740698408,0.266230906231));
#579 = LINE('',#580,#581);
#580 = CARTESIAN_POINT('',(-5.5,5.5,-0.3));
#581 = VECTOR('',#582,1.);
#582 = DIRECTION('',(0.,0.866025403784,0.5));
#583 = ORIENTED_EDGE('',*,*,#584,.T.);
#584 = EDGE_CURVE('',#577,#585,#587,.T.);
#585 = VERTEX_POINT('',#586);
#586 = CARTESIAN_POINT('',(-5.5,6.480740688999,1.704325389496));
#587 = LINE('',#588,#589);
#588 = CARTESIAN_POINT('',(-5.5,6.480740698408,0.));
#589 = VECTOR('',#590,1.);
#590 = DIRECTION('',(0.,0.,1.));
#591 = ORIENTED_EDGE('',*,*,#592,.F.);
#592 = EDGE_CURVE('',#593,#585,#595,.T.);
#593 = VERTEX_POINT('',#594);
#594 = CARTESIAN_POINT('',(-5.5,5.5,4.625));
#595 = CIRCLE('',#596,1.625);
#596 = AXIS2_PLACEMENT_3D('',#597,#598,#599);
#597 = CARTESIAN_POINT('',(-5.5,5.5,3.));
#598 = DIRECTION('',(1.,0.,-0.));
#599 = DIRECTION('',(0.,0.,1.));
#600 = ORIENTED_EDGE('',*,*,#601,.F.);
#601 = EDGE_CURVE('',#556,#593,#602,.T.);
#602 = CIRCLE('',#603,1.625);
#603 = AXIS2_PLACEMENT_3D('',#604,#605,#606);
#604 = CARTESIAN_POINT('',(-5.5,5.5,3.));
#605 = DIRECTION('',(1.,0.,-0.));
#606 = DIRECTION('',(0.,0.,1.));
#607 = PLANE('',#608);
#608 = AXIS2_PLACEMENT_3D('',#609,#610,#611);
#609 = CARTESIAN_POINT('',(-5.5,5.5,3.));
#610 = DIRECTION('',(1.,0.,0.));
#611 = DIRECTION('',(0.,0.,1.));
#612 = ADVANCED_FACE('',(#613),#624,.T.);
#613 = FACE_BOUND('',#614,.T.);
#614 = EDGE_LOOP('',(#615,#616,#617));
#615 = ORIENTED_EDGE('',*,*,#252,.T.);
#616 = ORIENTED_EDGE('',*,*,#576,.T.);
#617 = ORIENTED_EDGE('',*,*,#618,.T.);
#618 = EDGE_CURVE('',#577,#244,#619,.T.);
#619 = ELLIPSE('',#620,9.814954576224,8.5);
#620 = AXIS2_PLACEMENT_3D('',#621,#622,#623);
#621 = CARTESIAN_POINT('',(0.,0.,-3.475426480543));
#622 = DIRECTION('',(0.,-0.5,0.866025403784));
#623 = DIRECTION('',(0.,0.866025403784,0.5));
#624 = PLANE('',#625);
#625 = AXIS2_PLACEMENT_3D('',#626,#627,#628);
#626 = CARTESIAN_POINT('',(-8.5,5.5,-0.3));
#627 = DIRECTION('',(0.,-0.5,0.866025403784));
#628 = DIRECTION('',(0.,0.866025403784,0.5));
#629 = ADVANCED_FACE('',(#630),#760,.T.);
#630 = FACE_BOUND('',#631,.T.);
#631 = EDGE_LOOP('',(#632,#639,#640,#641,#642,#643,#644,#759));
#632 = ORIENTED_EDGE('',*,*,#633,.F.);
#633 = EDGE_CURVE('',#391,#558,#634,.T.);
#634 = ELLIPSE('',#635,9.814954576224,8.5);
#635 = AXIS2_PLACEMENT_3D('',#636,#637,#638);
#636 = CARTESIAN_POINT('',(0.,0.,9.475426480543));
#637 = DIRECTION('',(-0.,-0.5,-0.866025403784));
#638 = DIRECTION('',(0.,-0.866025403784,0.5));
#639 = ORIENTED_EDGE('',*,*,#390,.F.);
#640 = ORIENTED_EDGE('',*,*,#501,.F.);
#641 = ORIENTED_EDGE('',*,*,#243,.T.);
#642 = ORIENTED_EDGE('',*,*,#618,.F.);
#643 = ORIENTED_EDGE('',*,*,#584,.T.);
#644 = ORIENTED_EDGE('',*,*,#645,.T.);
#645 = EDGE_CURVE('',#585,#556,#646,.T.);
#646 = B_SPLINE_CURVE_WITH_KNOTS('',6,(#647,#648,#649,#650,#651,#652,
    #653,#654,#655,#656,#657,#658,#659,#660,#661,#662,#663,#664,#665,
    #666,#667,#668,#669,#670,#671,#672,#673,#674,#675,#676,#677,#678,
    #679,#680,#681,#682,#683,#684,#685,#686,#687,#688,#689,#690,#691,
    #692,#693,#694,#695,#696,#697,#698,#699,#700,#701,#702,#703,#704,
    #705,#706,#707,#708,#709,#710,#711,#712,#713,#714,#715,#716,#717,
    #718,#719,#720,#721,#722,#723,#724,#725,#726,#727,#728,#729,#730,
    #731,#732,#733,#734,#735,#736,#737,#738,#739,#740,#741,#742,#743,
    #744,#745,#746,#747,#748,#749,#750,#751,#752,#753,#754,#755,#756,
    #757,#758),.UNSPECIFIED.,.T.,.F.,(7,5,5,5,5,5,5,5,5,5,5,5,5,5,5,5,5,
    5,5,5,5,5,7),(0.,4.915996027797E-02,8.872121689304E-02,
    0.131376490231,0.154584013071,0.179855163735,0.233420457273,
    0.287941484424,0.335287074714,0.376939199592,0.434410772399,
    0.498238991223,0.567974155939,0.62810185408,0.675342624877,
    0.709607428869,0.733427957787,0.769240858239,0.790849657405,
    0.817725640553,0.838653364208,0.897470419969,1.),.UNSPECIFIED.);
#647 = CARTESIAN_POINT('',(-6.480740698408,5.5,4.625));
#648 = CARTESIAN_POINT('',(-6.55016637276,5.418194583039,4.625));
#649 = CARTESIAN_POINT('',(-6.618637325573,5.335002574259,4.620058074628
    ));
#650 = CARTESIAN_POINT('',(-6.685739934728,5.250871989407,4.609860343925
    ));
#651 = CARTESIAN_POINT('',(-6.751109488137,5.166286747146,4.59415103973)
  );
#652 = CARTESIAN_POINT('',(-6.814429132958,5.081763319809,4.572732779306
    ));
#653 = CARTESIAN_POINT('',(-6.924518052057,4.930316412873,4.523524696309
    ));
#654 = CARTESIAN_POINT('',(-6.972077043436,4.863217081258,4.497807914736
    ));
#655 = CARTESIAN_POINT('',(-7.01789213509,4.796936753921,4.468286247102)
  );
#656 = CARTESIAN_POINT('',(-7.061791920084,4.731860892965,4.434990288009
    ));
#657 = CARTESIAN_POINT('',(-7.103642998926,4.668364007189,4.398011960603
    ));
#658 = CARTESIAN_POINT('',(-7.186153542479,4.540422429077,4.313830067827
    ));
#659 = CARTESIAN_POINT('',(-7.226435400393,4.476335969734,4.266081863759
    ));
#660 = CARTESIAN_POINT('',(-7.264083130428,4.414963170492,4.214453107892
    ));
#661 = CARTESIAN_POINT('',(-7.299032404885,4.356695853858,4.159209203478
    ));
#662 = CARTESIAN_POINT('',(-7.331254941826,4.30188094432,4.100687601318)
  );
#663 = CARTESIAN_POINT('',(-7.376798512288,4.223017102392,4.005896365547
    ));
#664 = CARTESIAN_POINT('',(-7.392042818417,4.196329018805,3.971638685935
    ));
#665 = CARTESIAN_POINT('',(-7.406489473746,4.170777791428,3.936576099122
    ));
#666 = CARTESIAN_POINT('',(-7.420145153617,4.14639601381,3.900763446456)
  );
#667 = CARTESIAN_POINT('',(-7.433017358492,4.123212525886,3.864258433467
    ));
#668 = CARTESIAN_POINT('',(-7.45828714735,4.077339594822,3.786682597856)
  );
#669 = CARTESIAN_POINT('',(-7.470540835256,4.054876967051,3.745493896159
    ));
#670 = CARTESIAN_POINT('',(-7.481890185404,4.033889452267,3.703621249513
    ));
#671 = CARTESIAN_POINT('',(-7.492349147779,4.014398240683,3.661131584062
    ));
#672 = CARTESIAN_POINT('',(-7.50193091462,3.996420791113,3.618093027361)
  );
#673 = CARTESIAN_POINT('',(-7.52912467998,3.945103129271,3.482332934551)
  );
#674 = CARTESIAN_POINT('',(-7.54371183413,3.917106028851,3.387957990735)
  );
#675 = CARTESIAN_POINT('',(-7.554553131789,3.896060480773,3.291998332595
    ));
#676 = CARTESIAN_POINT('',(-7.561745810781,3.882017808489,3.194995423967
    ));
#677 = CARTESIAN_POINT('',(-7.565340375687,3.875,3.097485311615));
#678 = CARTESIAN_POINT('',(-7.565340375687,3.875,2.900775316063));
#679 = CARTESIAN_POINT('',(-7.561616393703,3.882270469172,2.801523430819
    ));
#680 = CARTESIAN_POINT('',(-7.554164484545,3.896819266366,2.702806331565
    ));
#681 = CARTESIAN_POINT('',(-7.542930517248,3.918622601276,2.605190299612
    ));
#682 = CARTESIAN_POINT('',(-7.527810446325,3.947624745754,2.509247382809
    ));
#683 = CARTESIAN_POINT('',(-7.492012322802,4.015097962681,2.334196832204
    ));
#684 = CARTESIAN_POINT('',(-7.472320770455,4.051833280514,2.254502775099
    ));
#685 = CARTESIAN_POINT('',(-7.449497310043,4.093845017841,2.176983014605
    ));
#686 = CARTESIAN_POINT('',(-7.423459766361,4.140969982932,2.102117154517
    ));
#687 = CARTESIAN_POINT('',(-7.394127603219,4.192988791983,2.030354514653
    ));
#688 = CARTESIAN_POINT('',(-7.332658982349,4.299467785889,1.902076930142
    ));
#689 = CARTESIAN_POINT('',(-7.30128773407,4.35287564146,1.8447740042));
#690 = CARTESIAN_POINT('',(-7.26731307495,4.409590518337,1.790585874119)
  );
#691 = CARTESIAN_POINT('',(-7.23076040758,4.469290653314,1.739829608145)
  );
#692 = CARTESIAN_POINT('',(-7.191687803493,4.531612896354,1.692756673692
    ));
#693 = CARTESIAN_POINT('',(-7.092938422023,4.685235971738,1.589939076414
    ));
#694 = CARTESIAN_POINT('',(-7.031154189469,4.778425635198,1.537776124698
    ));
#695 = CARTESIAN_POINT('',(-6.965122475606,4.874682889045,1.49351032593)
  );
#696 = CARTESIAN_POINT('',(-6.895261599079,4.97287292849,1.457333449384)
  );
#697 = CARTESIAN_POINT('',(-6.822156951833,5.071845283174,1.429187263311
    ));
#698 = CARTESIAN_POINT('',(-6.662626901799,5.280004469712,1.386079568123
    ));
#699 = CARTESIAN_POINT('',(-6.575651417667,5.389072734797,1.372928265378
    ));
#700 = CARTESIAN_POINT('',(-6.486199477286,5.496774432903,1.368740945502
    ));
#701 = CARTESIAN_POINT('',(-6.39489202917,5.602335768679,1.372917195229)
  );
#702 = CARTESIAN_POINT('',(-6.30241147159,5.705096226177,1.384821956769)
  );
#703 = CARTESIAN_POINT('',(-6.107981962755,5.913091815056,1.424499237365
    ));
#704 = CARTESIAN_POINT('',(-6.005813262268,6.017820604225,1.453665985593
    ));
#705 = CARTESIAN_POINT('',(-5.903529143767,6.118378767659,1.490534624513
    ));
#706 = CARTESIAN_POINT('',(-5.801653903664,6.214579227792,1.534543548587
    ));
#707 = CARTESIAN_POINT('',(-5.700752480565,6.306253113966,1.585286832355
    ));
#708 = CARTESIAN_POINT('',(-5.515954720942,6.468167027771,1.691821548685
    ));
#709 = CARTESIAN_POINT('',(-5.431646937425,6.539605643361,1.745944978102
    ));
#710 = CARTESIAN_POINT('',(-5.348903582845,6.607506929662,1.804767267692
    ));
#711 = CARTESIAN_POINT('',(-5.268154575198,6.671771441553,1.868293482033
    ));
#712 = CARTESIAN_POINT('',(-5.1900311939,6.73218374103,1.936583845432));
#713 = CARTESIAN_POINT('',(-5.056847557055,6.832545393778,2.067155856108
    ));
#714 = CARTESIAN_POINT('',(-5.000381733561,6.874144492428,2.127638521197
    ));
#715 = CARTESIAN_POINT('',(-4.94647830516,6.91301690177,2.191216616073)
  );
#716 = CARTESIAN_POINT('',(-4.895699569949,6.948927046517,2.257944782496
    ));
#717 = CARTESIAN_POINT('',(-4.848742307078,6.981570652862,2.327865890401
    ));
#718 = CARTESIAN_POINT('',(-4.775755553292,7.031610264364,2.454058641606
    ));
#719 = CARTESIAN_POINT('',(-4.747482213182,7.050757508555,2.50887026511)
  );
#720 = CARTESIAN_POINT('',(-4.722045430232,7.067796138372,2.565291729924
    ));
#721 = CARTESIAN_POINT('',(-4.699836815793,7.082540735474,2.623174861301
    ));
#722 = CARTESIAN_POINT('',(-4.681209008077,7.094828618194,2.68237488743)
  );
#723 = CARTESIAN_POINT('',(-4.656226104333,7.111238198732,2.784724599227
    ));
#724 = CARTESIAN_POINT('',(-4.647868993868,7.116701992526,2.827232779824
    ));
#725 = CARTESIAN_POINT('',(-4.641518959117,7.120839924913,2.870144123132
    ));
#726 = CARTESIAN_POINT('',(-4.637256646252,7.123612606523,2.91332802006)
  );
#727 = CARTESIAN_POINT('',(-4.635124054435,7.125,2.956655565264));
#728 = CARTESIAN_POINT('',(-4.635124054435,7.125,3.065166056206));
#729 = CARTESIAN_POINT('',(-4.639944151984,7.121863864119,3.130217010651
    ));
#730 = CARTESIAN_POINT('',(-4.649554508046,7.115613200112,3.194780940434
    ));
#731 = CARTESIAN_POINT('',(-4.663751857198,7.106341012099,3.258472982028
    ));
#732 = CARTESIAN_POINT('',(-4.682164311804,7.094225884579,3.320897934596
    ));
#733 = CARTESIAN_POINT('',(-4.717585956266,7.070688713486,3.418311191357
    ));
#734 = CARTESIAN_POINT('',(-4.732269818841,7.060888317332,3.454400865943
    ));
#735 = CARTESIAN_POINT('',(-4.748219420193,7.050186184566,3.489896328676
    ));
#736 = CARTESIAN_POINT('',(-4.765343767615,7.038625340952,3.524771877214
    ));
#737 = CARTESIAN_POINT('',(-4.783549209425,7.026250631425,3.559001665274
    ));
#738 = CARTESIAN_POINT('',(-4.826607312776,6.996763444043,3.634297572439
    ));
#739 = CARTESIAN_POINT('',(-4.852003891547,6.979228250743,3.675005314164
    ));
#740 = CARTESIAN_POINT('',(-4.878773792947,6.960573125167,3.714682059237
    ));
#741 = CARTESIAN_POINT('',(-4.90677393991,6.940862170561,3.753328467463)
  );
#742 = CARTESIAN_POINT('',(-4.935873556636,6.920153608444,3.790946727014
    ));
#743 = CARTESIAN_POINT('',(-4.989377264623,6.881638428298,3.856035344871
    ));
#744 = CARTESIAN_POINT('',(-5.013398954035,6.864201253845,3.883913562628
    ));
#745 = CARTESIAN_POINT('',(-5.037967669036,6.846209978651,3.911181292485
    ));
#746 = CARTESIAN_POINT('',(-5.063037032291,6.82768354962,3.937844680527)
  );
#747 = CARTESIAN_POINT('',(-5.088565856916,6.808638137164,3.963909934137
    ));
#748 = CARTESIAN_POINT('',(-5.187456669913,6.73413933526,4.060975899356)
  );
#749 = CARTESIAN_POINT('',(-5.263784737142,6.675164042284,4.127937334348
    ));
#750 = CARTESIAN_POINT('',(-5.342647128243,6.612494828676,4.190334786405
    ));
#751 = CARTESIAN_POINT('',(-5.423449099158,6.546334650157,4.248228265217
    ));
#752 = CARTESIAN_POINT('',(-5.505783299124,6.476778181023,4.301627305327
    ));
#753 = CARTESIAN_POINT('',(-5.735041377049,6.276678499918,4.435550990789
    ));
#754 = CARTESIAN_POINT('',(-5.884667816922,6.139076025728,4.506844071949
    ));
#755 = CARTESIAN_POINT('',(-6.035882094374,5.991740651743,4.563332764699
    ));
#756 = CARTESIAN_POINT('',(-6.18684145581,5.835352948546,4.603449647745)
  );
#757 = CARTESIAN_POINT('',(-6.335764079479,5.670828340838,4.625));
#758 = CARTESIAN_POINT('',(-6.480740698408,5.5,4.625));
#759 = ORIENTED_EDGE('',*,*,#555,.T.);
#760 = CYLINDRICAL_SURFACE('',#761,8.5);
#761 = AXIS2_PLACEMENT_3D('',#762,#763,#764);
#762 = CARTESIAN_POINT('',(0.,0.,0.));
#763 = DIRECTION('',(0.,0.,1.));
#764 = DIRECTION('',(1.,0.,0.));
#765 = ADVANCED_FACE('',(#766),#771,.T.);
#766 = FACE_BOUND('',#767,.T.);
#767 = EDGE_LOOP('',(#768,#769,#770));
#768 = ORIENTED_EDGE('',*,*,#633,.T.);
#769 = ORIENTED_EDGE('',*,*,#565,.T.);
#770 = ORIENTED_EDGE('',*,*,#399,.F.);
#771 = PLANE('',#772);
#772 = AXIS2_PLACEMENT_3D('',#773,#774,#775);
#773 = CARTESIAN_POINT('',(-8.5,8.357883832489,4.65));
#774 = DIRECTION('',(0.,-0.5,-0.866025403784));
#775 = DIRECTION('',(0.,-0.866025403784,0.5));
#776 = ADVANCED_FACE('',(#777),#790,.F.);
#777 = FACE_BOUND('',#778,.F.);
#778 = EDGE_LOOP('',(#779,#785,#786,#787,#788,#789));
#779 = ORIENTED_EDGE('',*,*,#780,.T.);
#780 = EDGE_CURVE('',#593,#510,#781,.T.);
#781 = LINE('',#782,#783);
#782 = CARTESIAN_POINT('',(-8.5,5.5,4.625));
#783 = VECTOR('',#784,1.);
#784 = DIRECTION('',(1.,0.,0.));
#785 = ORIENTED_EDGE('',*,*,#509,.F.);
#786 = ORIENTED_EDGE('',*,*,#780,.F.);
#787 = ORIENTED_EDGE('',*,*,#592,.T.);
#788 = ORIENTED_EDGE('',*,*,#645,.T.);
#789 = ORIENTED_EDGE('',*,*,#601,.T.);
#790 = CYLINDRICAL_SURFACE('',#791,1.625);
#791 = AXIS2_PLACEMENT_3D('',#792,#793,#794);
#792 = CARTESIAN_POINT('',(-8.5,5.5,3.));
#793 = DIRECTION('',(1.,0.,0.));
#794 = DIRECTION('',(0.,0.,1.));
#795 = ( GEOMETRIC_REPRESENTATION_CONTEXT(3) 
GLOBAL_UNCERTAINTY_ASSIGNED_CONTEXT((#799)) GLOBAL_UNIT_ASSIGNED_CONTEXT
((#796,#797,#798)) REPRESENTATION_CONTEXT('Context #1',
  '3D Context with UNIT and UNCERTAINTY') );
#796 = ( LENGTH_UNIT() NAMED_UNIT(*) SI_UNIT(.MILLI.,.METRE.) );
#797 = ( NAMED_UNIT(*) PLANE_ANGLE_UNIT() SI_UNIT($,.RADIAN.) );
#798 = ( NAMED_UNIT(*) SI_UNIT($,.STERADIAN.) SOLID_ANGLE_UNIT() );
#799 = UNCERTAINTY_MEASURE_WITH_UNIT(LENGTH_MEASURE(1.E-07),#796,
  'distance_accuracy_value','confusion accuracy');
#800 = PRODUCT_RELATED_PRODUCT_CATEGORY('part',$,(#7));
ENDSEC;
END-ISO-10303-21;
