ISO-10303-21;
HEADER;
FILE_DESCRIPTION(('FreeCAD Model'),'2;1');
FILE_NAME('Open CASCADE Shape Model','2026-07-24T16:58:35',('FreeCAD'),(
    'FreeCAD'),'Open CASCADE STEP processor 7.8','FreeCAD','Unknown');
FILE_SCHEMA(('AUTOMOTIVE_DESIGN { 1 0 10303 214 1 1 1 1 }'));
ENDSEC;
DATA;
#1 = APPLICATION_PROTOCOL_DEFINITION('international standard',
  'automotive_design',2000,#2);
#2 = APPLICATION_CONTEXT(
  'core data for automotive mechanical design processes');
#3 = SHAPE_DEFINITION_REPRESENTATION(#4,#10);
#4 = PRODUCT_DEFINITION_SHAPE('','',#5);
#5 = PRODUCT_DEFINITION('design','',#6,#9);
#6 = PRODUCT_DEFINITION_FORMATION('','',#7);
#7 = PRODUCT('Open CASCADE STEP translator 7.8 41',
  'Open CASCADE STEP translator 7.8 41','',(#8));
#8 = PRODUCT_CONTEXT('',#2,'mechanical');
#9 = PRODUCT_DEFINITION_CONTEXT('part definition',#2,'design');
#10 = ADVANCED_BREP_SHAPE_REPRESENTATION('',(#11,#15),#543);
#11 = AXIS2_PLACEMENT_3D('',#12,#13,#14);
#12 = CARTESIAN_POINT('',(0.,0.,0.));
#13 = DIRECTION('',(0.,0.,1.));
#14 = DIRECTION('',(1.,0.,-0.));
#15 = MANIFOLD_SOLID_BREP('',#16);
#16 = CLOSED_SHELL('',(#17,#183,#340,#382,#424,#452,#469,#497,#514,#531)
  );
#17 = ADVANCED_FACE('',(#18,#54),#178,.T.);
#18 = FACE_BOUND('',#19,.T.);
#19 = EDGE_LOOP('',(#20,#30,#39,#47));
#20 = ORIENTED_EDGE('',*,*,#21,.T.);
#21 = EDGE_CURVE('',#22,#24,#26,.T.);
#22 = VERTEX_POINT('',#23);
#23 = CARTESIAN_POINT('',(12.,-2.939152317954E-15,0.));
#24 = VERTEX_POINT('',#25);
#25 = CARTESIAN_POINT('',(12.,-2.939152317954E-15,8.));
#26 = LINE('',#27,#28);
#27 = CARTESIAN_POINT('',(12.,-2.939152317954E-15,0.));
#28 = VECTOR('',#29,1.);
#29 = DIRECTION('',(0.,0.,1.));
#30 = ORIENTED_EDGE('',*,*,#31,.F.);
#31 = EDGE_CURVE('',#32,#24,#34,.T.);
#32 = VERTEX_POINT('',#33);
#33 = CARTESIAN_POINT('',(-0.6,11.984990613263,8.));
#34 = CIRCLE('',#35,12.);
#35 = AXIS2_PLACEMENT_3D('',#36,#37,#38);
#36 = CARTESIAN_POINT('',(0.,0.,8.));
#37 = DIRECTION('',(0.,0.,1.));
#38 = DIRECTION('',(1.,0.,0.));
#39 = ORIENTED_EDGE('',*,*,#40,.F.);
#40 = EDGE_CURVE('',#41,#32,#43,.T.);
#41 = VERTEX_POINT('',#42);
#42 = CARTESIAN_POINT('',(-0.6,11.984990613263,0.));
#43 = LINE('',#44,#45);
#44 = CARTESIAN_POINT('',(-0.6,11.984990613263,0.));
#45 = VECTOR('',#46,1.);
#46 = DIRECTION('',(0.,0.,1.));
#47 = ORIENTED_EDGE('',*,*,#48,.T.);
#48 = EDGE_CURVE('',#41,#22,#49,.T.);
#49 = CIRCLE('',#50,12.);
#50 = AXIS2_PLACEMENT_3D('',#51,#52,#53);
#51 = CARTESIAN_POINT('',(0.,0.,0.));
#52 = DIRECTION('',(0.,0.,1.));
#53 = DIRECTION('',(1.,0.,0.));
#54 = FACE_BOUND('',#55,.T.);
#55 = EDGE_LOOP('',(#56));
#56 = ORIENTED_EDGE('',*,*,#57,.T.);
#57 = EDGE_CURVE('',#58,#58,#60,.T.);
#58 = VERTEX_POINT('',#59);
#59 = CARTESIAN_POINT('',(-8.944271909999,8.,5.625));
#60 = B_SPLINE_CURVE_WITH_KNOTS('',6,(#61,#62,#63,#64,#65,#66,#67,#68,
    #69,#70,#71,#72,#73,#74,#75,#76,#77,#78,#79,#80,#81,#82,#83,#84,#85,
    #86,#87,#88,#89,#90,#91,#92,#93,#94,#95,#96,#97,#98,#99,#100,#101,
    #102,#103,#104,#105,#106,#107,#108,#109,#110,#111,#112,#113,#114,
    #115,#116,#117,#118,#119,#120,#121,#122,#123,#124,#125,#126,#127,
    #128,#129,#130,#131,#132,#133,#134,#135,#136,#137,#138,#139,#140,
    #141,#142,#143,#144,#145,#146,#147,#148,#149,#150,#151,#152,#153,
    #154,#155,#156,#157,#158,#159,#160,#161,#162,#163,#164,#165,#166,
    #167,#168,#169,#170,#171,#172,#173,#174,#175,#176,#177),
  .UNSPECIFIED.,.T.,.F.,(7,5,5,5,5,5,5,5,5,5,5,5,5,5,5,5,5,5,5,5,5,5,5,7
    ),(0.,6.429626168711E-02,0.112460489264,0.150975795163,
    0.171383839268,0.192844840479,0.237074017645,0.28272326032,
    0.325251680482,0.362359475737,0.405298184116,0.45721809789,
    0.561477062842,0.621253278559,0.673516938968,0.711046903249,
    0.737791333508,0.765548324702,0.778842340208,0.803071675166,
    0.832314395313,0.853957402341,0.913980147244,1.),.UNSPECIFIED.);
#61 = CARTESIAN_POINT('',(-8.944271909999,8.,5.625));
#62 = CARTESIAN_POINT('',(-9.037896552508,7.895324467491,5.625));
#63 = CARTESIAN_POINT('',(-9.130473651516,7.788862244668,5.616908551573)
  );
#64 = CARTESIAN_POINT('',(-9.221180037196,7.68148123555,5.600208523324)
  );
#65 = CARTESIAN_POINT('',(-9.309276257008,7.574126685005,5.574510573434)
  );
#66 = CARTESIAN_POINT('',(-9.39410345095,7.467813231095,5.539553770479)
  );
#67 = CARTESIAN_POINT('',(-9.535739801077,7.285563694183,5.461985530255)
  );
#68 = CARTESIAN_POINT('',(-9.59418307833,7.20876989923,5.423525556195));
#69 = CARTESIAN_POINT('',(-9.650059210484,7.13382864187,5.379851391721)
  );
#70 = CARTESIAN_POINT('',(-9.703080262277,7.061320738201,5.331087631934)
  );
#71 = CARTESIAN_POINT('',(-9.753014375307,6.991798618978,5.277457963741)
  );
#72 = CARTESIAN_POINT('',(-9.836995001865,6.872969499139,5.172765617956)
  );
#73 = CARTESIAN_POINT('',(-9.872207995782,6.822420227599,5.123356358625)
  );
#74 = CARTESIAN_POINT('',(-9.905233537883,6.77437008033,5.07121809613));
#75 = CARTESIAN_POINT('',(-9.936007583479,6.729046249061,5.016545340973)
  );
#76 = CARTESIAN_POINT('',(-9.964483870911,6.686650076068,4.959565337271)
  );
#77 = CARTESIAN_POINT('',(-10.00448610899,6.626528747724,4.869260356985)
  );
#78 = CARTESIAN_POINT('',(-10.01768903174,6.606572442312,4.837403590683)
  );
#79 = CARTESIAN_POINT('',(-10.03023692424,6.587506137003,4.805002165588)
  );
#80 = CARTESIAN_POINT('',(-10.04212770014,6.569350482721,4.772091367034)
  );
#81 = CARTESIAN_POINT('',(-10.05336040408,6.552123438523,4.738706698949)
  );
#82 = CARTESIAN_POINT('',(-10.0750556285,6.518716971425,4.669315973877)
  );
#83 = CARTESIAN_POINT('',(-10.08544836128,6.502637583268,4.63326340192)
  );
#84 = CARTESIAN_POINT('',(-10.09511365083,6.487619745432,4.596767490749)
  );
#85 = CARTESIAN_POINT('',(-10.10405229796,6.473678515537,4.559869158983)
  );
#86 = CARTESIAN_POINT('',(-10.11226566339,6.460826370514,4.522608921099)
  );
#87 = CARTESIAN_POINT('',(-10.13519188757,6.424851001704,4.407573724421)
  );
#88 = CARTESIAN_POINT('',(-10.14755232479,6.40530132284,4.328768187525)
  );
#89 = CARTESIAN_POINT('',(-10.15685875329,6.390503466645,4.248941403115)
  );
#90 = CARTESIAN_POINT('',(-10.16312634065,6.380510063018,4.168427965925)
  );
#91 = CARTESIAN_POINT('',(-10.16636364815,6.375347075124,4.087565939062)
  );
#92 = CARTESIAN_POINT('',(-10.16678832326,6.374669823194,3.92323130647)
  );
#93 = CARTESIAN_POINT('',(-10.16377803452,6.379470391294,3.839734275033)
  );
#94 = CARTESIAN_POINT('',(-10.15754076185,6.389419170914,3.756580717641)
  );
#95 = CARTESIAN_POINT('',(-10.14806723472,6.404488659758,3.674142299789)
  );
#96 = CARTESIAN_POINT('',(-10.1353405948,6.424621202217,3.592786863421)
  );
#97 = CARTESIAN_POINT('',(-10.10442764174,6.473122238957,3.438431925892)
  );
#98 = CARTESIAN_POINT('',(-10.08667107326,6.500838258535,3.365226673287)
  );
#99 = CARTESIAN_POINT('',(-10.06605778269,6.532793280119,3.293611654724)
  );
#100 = CARTESIAN_POINT('',(-10.04258412353,6.568863230337,3.223917291184
    ));
#101 = CARTESIAN_POINT('',(-10.01625461512,6.608888866862,3.156453834636
    ));
#102 = CARTESIAN_POINT('',(-9.961631752262,6.690889374501,3.034844385875
    ));
#103 = CARTESIAN_POINT('',(-9.934018562146,6.731962414042,2.980101588535
    ));
#104 = CARTESIAN_POINT('',(-9.904273335343,6.775744755805,2.927512442692
    ));
#105 = CARTESIAN_POINT('',(-9.872438072854,6.822055392418,2.877279714635
    ));
#106 = CARTESIAN_POINT('',(-9.83857016453,6.870691019699,2.829577850026)
  );
#107 = CARTESIAN_POINT('',(-9.761289422162,6.980142869999,2.732451958601
    ));
#108 = CARTESIAN_POINT('',(-9.717225130253,7.041655085928,2.683950360185
    ));
#109 = CARTESIAN_POINT('',(-9.670680755063,7.105606844279,2.639281232654
    ));
#110 = CARTESIAN_POINT('',(-9.621817191342,7.17160823306,2.598615049552)
  );
#111 = CARTESIAN_POINT('',(-9.570831156158,7.23924913603,2.562058868006)
  );
#112 = CARTESIAN_POINT('',(-9.454028437474,7.39137105535,2.490475726385)
  );
#113 = CARTESIAN_POINT('',(-9.387381390415,7.476361799372,2.457393010658
    ));
#114 = CARTESIAN_POINT('',(-9.318334899627,7.562471803364,2.430403379821
    ));
#115 = CARTESIAN_POINT('',(-9.247248341666,7.649106331533,2.409426556953
    ));
#116 = CARTESIAN_POINT('',(-9.174526193657,7.735691659982,2.394306841096
    ));
#117 = CARTESIAN_POINT('',(-8.95221268802,7.994356091446,2.365750022003)
  );
#118 = CARTESIAN_POINT('',(-8.799333037383,8.164279750057,2.36941204667)
  );
#119 = CARTESIAN_POINT('',(-8.644023330951,8.328969674616,2.393545798794
    ));
#120 = CARTESIAN_POINT('',(-8.488271889551,8.486722928781,2.436319642518
    ));
#121 = CARTESIAN_POINT('',(-8.334204579866,8.636146257162,2.49625729203)
  );
#122 = CARTESIAN_POINT('',(-8.098429745471,8.856028349508,2.615746811531
    ));
#123 = CARTESIAN_POINT('',(-8.013787647861,8.93307764073,2.664606949604)
  );
#124 = CARTESIAN_POINT('',(-7.93077188961,9.006905909813,2.718658597059)
  );
#125 = CARTESIAN_POINT('',(-7.849815538104,9.077319346845,2.777852188088
    ));
#126 = CARTESIAN_POINT('',(-7.771483105917,9.144047097543,2.84218452693)
  );
#127 = CARTESIAN_POINT('',(-7.630975173402,9.261507220329,2.972421523355
    ));
#128 = CARTESIAN_POINT('',(-7.567951049543,9.313242559152,3.037163548776
    ));
#129 = CARTESIAN_POINT('',(-7.507974209011,9.361640250699,3.105896607902
    ));
#130 = CARTESIAN_POINT('',(-7.451686072179,9.406360934729,3.1786104346)
  );
#131 = CARTESIAN_POINT('',(-7.399841017768,9.447000606233,3.255279175266
    ));
#132 = CARTESIAN_POINT('',(-7.319889826215,9.50899579225,3.393719426105)
  );
#133 = CARTESIAN_POINT('',(-7.289186080197,9.53257758272,3.453642142775)
  );
#134 = CARTESIAN_POINT('',(-7.261621081282,9.553571045674,3.515445459193
    ));
#135 = CARTESIAN_POINT('',(-7.237580920504,9.571755803262,3.578941118443
    ));
#136 = CARTESIAN_POINT('',(-7.217407465399,9.586940608158,3.643933893623
    ));
#137 = CARTESIAN_POINT('',(-7.189983068464,9.607515130474,3.757461584443
    ));
#138 = CARTESIAN_POINT('',(-7.18069208732,9.614459990037,3.805326975706)
  );
#139 = CARTESIAN_POINT('',(-7.173641189714,9.619716831344,3.853666769438
    ));
#140 = CARTESIAN_POINT('',(-7.168911620353,9.623238229395,3.902327732285
    ));
#141 = CARTESIAN_POINT('',(-7.166545541612,9.625,3.951156448899));
#142 = CARTESIAN_POINT('',(-7.166545541612,9.625,4.050692798634));
#143 = CARTESIAN_POINT('',(-7.169094171289,9.623102295848,4.101367810427
    ));
#144 = CARTESIAN_POINT('',(-7.174188207465,9.619309554184,4.151855231181
    ));
#145 = CARTESIAN_POINT('',(-7.181778875807,9.613649694874,4.201984677658
    ));
#146 = CARTESIAN_POINT('',(-7.191772460633,9.606177378067,4.251585995461
    ));
#147 = CARTESIAN_POINT('',(-7.209902014993,9.592568312357,4.323912327643
    ));
#148 = CARTESIAN_POINT('',(-7.216294275876,9.587763195922,4.347180759949
    ));
#149 = CARTESIAN_POINT('',(-7.223193799304,9.582568276426,4.370280728095
    ));
#150 = CARTESIAN_POINT('',(-7.230585846278,9.576992149339,4.393199163233
    ));
#151 = CARTESIAN_POINT('',(-7.238454836861,9.571043871131,4.415924563413
    ));
#152 = CARTESIAN_POINT('',(-7.261965509547,9.553230851614,4.479495802698
    ));
#153 = CARTESIAN_POINT('',(-7.278670990626,9.540528552157,4.519854661036
    ));
#154 = CARTESIAN_POINT('',(-7.296808002075,9.526678277935,4.559484310587
    ));
#155 = CARTESIAN_POINT('',(-7.316280173604,9.511734869166,4.598346877058
    ));
#156 = CARTESIAN_POINT('',(-7.336987555962,9.495755789249,4.636405869886
    ));
#157 = CARTESIAN_POINT('',(-7.385184491132,9.458338305234,4.718547893026
    ));
#158 = CARTESIAN_POINT('',(-7.413195127697,9.436451594762,4.76225502647)
  );
#159 = CARTESIAN_POINT('',(-7.442705440107,9.413224731249,4.804732610427
    ));
#160 = CARTESIAN_POINT('',(-7.47357163722,9.388736418921,4.845967998848)
  );
#161 = CARTESIAN_POINT('',(-7.505659227295,9.36306032834,4.885950871775)
  );
#162 = CARTESIAN_POINT('',(-7.563402874642,9.316433514712,4.95333227877)
  );
#163 = CARTESIAN_POINT('',(-7.588567211742,9.295985736493,4.981305445806
    ));
#164 = CARTESIAN_POINT('',(-7.6142895069,9.274946316071,5.00859360973));
#165 = CARTESIAN_POINT('',(-7.640527211937,9.253337352446,5.035198050247
    ));
#166 = CARTESIAN_POINT('',(-7.667241752884,9.231178489279,5.061120453481
    ));
#167 = CARTESIAN_POINT('',(-7.7697126627,9.145556168789,5.156368047812)
  );
#168 = CARTESIAN_POINT('',(-7.84844615371,9.078513035394,5.221159964366)
  );
#169 = CARTESIAN_POINT('',(-7.92983993086,9.007739369648,5.280753669965)
  );
#170 = CARTESIAN_POINT('',(-8.013319428508,8.933510767165,5.335147141367
    ));
#171 = CARTESIAN_POINT('',(-8.098445119164,8.856023455036,5.384290813305
    ));
#172 = CARTESIAN_POINT('',(-8.308710384693,8.65990837797,5.490779404266)
  );
#173 = CARTESIAN_POINT('',(-8.435309132922,8.537907353617,5.542506702718
    ));
#174 = CARTESIAN_POINT('',(-8.563293370366,8.410132474804,5.582661875439
    ));
#175 = CARTESIAN_POINT('',(-8.691505690763,8.277293325766,5.610482869315
    ));
#176 = CARTESIAN_POINT('',(-8.818864997639,8.140209190442,5.625));
#177 = CARTESIAN_POINT('',(-8.944271909999,8.,5.625));
#178 = CYLINDRICAL_SURFACE('',#179,12.);
#179 = AXIS2_PLACEMENT_3D('',#180,#181,#182);
#180 = CARTESIAN_POINT('',(0.,0.,0.));
#181 = DIRECTION('',(0.,0.,1.));
#182 = DIRECTION('',(1.,0.,0.));
#183 = ADVANCED_FACE('',(#184,#211),#335,.T.);
#184 = FACE_BOUND('',#185,.T.);
#185 = EDGE_LOOP('',(#186,#195,#196,#205));
#186 = ORIENTED_EDGE('',*,*,#187,.F.);
#187 = EDGE_CURVE('',#24,#188,#190,.T.);
#188 = VERTEX_POINT('',#189);
#189 = CARTESIAN_POINT('',(0.6,11.984990613263,8.));
#190 = CIRCLE('',#191,12.);
#191 = AXIS2_PLACEMENT_3D('',#192,#193,#194);
#192 = CARTESIAN_POINT('',(0.,0.,8.));
#193 = DIRECTION('',(0.,0.,1.));
#194 = DIRECTION('',(1.,0.,0.));
#195 = ORIENTED_EDGE('',*,*,#21,.F.);
#196 = ORIENTED_EDGE('',*,*,#197,.T.);
#197 = EDGE_CURVE('',#22,#198,#200,.T.);
#198 = VERTEX_POINT('',#199);
#199 = CARTESIAN_POINT('',(0.6,11.984990613263,0.));
#200 = CIRCLE('',#201,12.);
#201 = AXIS2_PLACEMENT_3D('',#202,#203,#204);
#202 = CARTESIAN_POINT('',(0.,0.,0.));
#203 = DIRECTION('',(0.,0.,1.));
#204 = DIRECTION('',(1.,0.,0.));
#205 = ORIENTED_EDGE('',*,*,#206,.T.);
#206 = EDGE_CURVE('',#198,#188,#207,.T.);
#207 = LINE('',#208,#209);
#208 = CARTESIAN_POINT('',(0.6,11.984990613263,0.));
#209 = VECTOR('',#210,1.);
#210 = DIRECTION('',(0.,0.,1.));
#211 = FACE_BOUND('',#212,.T.);
#212 = EDGE_LOOP('',(#213));
#213 = ORIENTED_EDGE('',*,*,#214,.F.);
#214 = EDGE_CURVE('',#215,#215,#217,.T.);
#215 = VERTEX_POINT('',#216);
#216 = CARTESIAN_POINT('',(8.944271909999,8.,5.625));
#217 = B_SPLINE_CURVE_WITH_KNOTS('',6,(#218,#219,#220,#221,#222,#223,
    #224,#225,#226,#227,#228,#229,#230,#231,#232,#233,#234,#235,#236,
    #237,#238,#239,#240,#241,#242,#243,#244,#245,#246,#247,#248,#249,
    #250,#251,#252,#253,#254,#255,#256,#257,#258,#259,#260,#261,#262,
    #263,#264,#265,#266,#267,#268,#269,#270,#271,#272,#273,#274,#275,
    #276,#277,#278,#279,#280,#281,#282,#283,#284,#285,#286,#287,#288,
    #289,#290,#291,#292,#293,#294,#295,#296,#297,#298,#299,#300,#301,
    #302,#303,#304,#305,#306,#307,#308,#309,#310,#311,#312,#313,#314,
    #315,#316,#317,#318,#319,#320,#321,#322,#323,#324,#325,#326,#327,
    #328,#329,#330,#331,#332,#333,#334),.UNSPECIFIED.,.T.,.F.,(7,5,5,5,5
    ,5,5,5,5,5,5,5,5,5,5,5,5,5,5,5,5,5,5,7),(0.,6.429626680123E-02,
    0.112460498209,0.150975807172,0.1713838529,0.192844855818,
    0.237074036513,0.28272328284,0.325251706406,0.362359504633,
    0.40529821645,0.457218134382,0.561477107683,0.621253328187,
    0.673516992781,0.71104696007,0.737791392476,0.765548385896,
    0.778842402469,0.803071739372,0.832314455473,0.853957454735,
    0.913980178098,1.),.UNSPECIFIED.);
#218 = CARTESIAN_POINT('',(8.944271909999,8.,5.625));
#219 = CARTESIAN_POINT('',(9.037896552508,7.895324467491,5.625));
#220 = CARTESIAN_POINT('',(9.130473651516,7.788862244668,5.616908551573)
  );
#221 = CARTESIAN_POINT('',(9.221180037196,7.68148123555,5.600208523324)
  );
#222 = CARTESIAN_POINT('',(9.309276257008,7.574126685005,5.574510573434)
  );
#223 = CARTESIAN_POINT('',(9.39410345095,7.467813231095,5.539553770479)
  );
#224 = CARTESIAN_POINT('',(9.535739801077,7.285563694183,5.461985530255)
  );
#225 = CARTESIAN_POINT('',(9.59418307833,7.20876989923,5.423525556195));
#226 = CARTESIAN_POINT('',(9.650059210484,7.13382864187,5.379851391721)
  );
#227 = CARTESIAN_POINT('',(9.703080262277,7.061320738201,5.331087631934)
  );
#228 = CARTESIAN_POINT('',(9.753014375307,6.991798618978,5.277457963741)
  );
#229 = CARTESIAN_POINT('',(9.836995001865,6.872969499139,5.172765617956)
  );
#230 = CARTESIAN_POINT('',(9.872207995782,6.822420227599,5.123356358625)
  );
#231 = CARTESIAN_POINT('',(9.905233537883,6.77437008033,5.07121809613));
#232 = CARTESIAN_POINT('',(9.936007583479,6.729046249061,5.016545340973)
  );
#233 = CARTESIAN_POINT('',(9.964483870911,6.686650076068,4.959565337271)
  );
#234 = CARTESIAN_POINT('',(10.004486108995,6.626528747724,4.869260356985
    ));
#235 = CARTESIAN_POINT('',(10.01768903174,6.606572442312,4.837403590683)
  );
#236 = CARTESIAN_POINT('',(10.030236924241,6.587506137003,4.805002165588
    ));
#237 = CARTESIAN_POINT('',(10.042127700149,6.569350482721,4.772091367034
    ));
#238 = CARTESIAN_POINT('',(10.053360404085,6.552123438523,4.738706698949
    ));
#239 = CARTESIAN_POINT('',(10.075055628508,6.518716971425,4.669315973877
    ));
#240 = CARTESIAN_POINT('',(10.085448361283,6.502637583268,4.63326340192)
  );
#241 = CARTESIAN_POINT('',(10.095113650835,6.487619745432,4.596767490749
    ));
#242 = CARTESIAN_POINT('',(10.104052297963,6.473678515537,4.559869158983
    ));
#243 = CARTESIAN_POINT('',(10.112265663396,6.460826370514,4.522608921099
    ));
#244 = CARTESIAN_POINT('',(10.13519188758,6.424851001698,4.407573724402)
  );
#245 = CARTESIAN_POINT('',(10.147552324796,6.405301322839,4.328768187531
    ));
#246 = CARTESIAN_POINT('',(10.156858753295,6.390503466648,4.248941403133
    ));
#247 = CARTESIAN_POINT('',(10.16312634065,6.380510063021,4.16842796593)
  );
#248 = CARTESIAN_POINT('',(10.166363648151,6.375347075124,4.087565939043
    ));
#249 = CARTESIAN_POINT('',(10.166788323267,6.374669823194,3.92323130647)
  );
#250 = CARTESIAN_POINT('',(10.163778034523,6.379470391294,3.839734275033
    ));
#251 = CARTESIAN_POINT('',(10.15754076185,6.389419170914,3.756580717641)
  );
#252 = CARTESIAN_POINT('',(10.148067234726,6.404488659758,3.674142299789
    ));
#253 = CARTESIAN_POINT('',(10.135340594802,6.424621202217,3.592786863421
    ));
#254 = CARTESIAN_POINT('',(10.104427641748,6.473122238958,3.43843192589)
  );
#255 = CARTESIAN_POINT('',(10.086671073263,6.500838258535,3.365226673288
    ));
#256 = CARTESIAN_POINT('',(10.066057782699,6.532793280118,3.293611654727
    ));
#257 = CARTESIAN_POINT('',(10.042584123534,6.568863230336,3.223917291185
    ));
#258 = CARTESIAN_POINT('',(10.016254615121,6.608888866864,3.156453834633
    ));
#259 = CARTESIAN_POINT('',(9.961631752262,6.690889374501,3.034844385875)
  );
#260 = CARTESIAN_POINT('',(9.934018562146,6.731962414042,2.980101588535)
  );
#261 = CARTESIAN_POINT('',(9.904273335343,6.775744755805,2.927512442692)
  );
#262 = CARTESIAN_POINT('',(9.872438072854,6.822055392418,2.877279714635)
  );
#263 = CARTESIAN_POINT('',(9.83857016453,6.870691019699,2.829577850026)
  );
#264 = CARTESIAN_POINT('',(9.761289422162,6.980142869999,2.732451958601)
  );
#265 = CARTESIAN_POINT('',(9.717225130253,7.041655085928,2.683950360185)
  );
#266 = CARTESIAN_POINT('',(9.670680755063,7.105606844279,2.639281232654)
  );
#267 = CARTESIAN_POINT('',(9.621817191342,7.17160823306,2.598615049552)
  );
#268 = CARTESIAN_POINT('',(9.570831156158,7.23924913603,2.562058868006)
  );
#269 = CARTESIAN_POINT('',(9.454028437474,7.39137105535,2.490475726385)
  );
#270 = CARTESIAN_POINT('',(9.387381390415,7.476361799372,2.457393010658)
  );
#271 = CARTESIAN_POINT('',(9.318334899627,7.562471803364,2.430403379821)
  );
#272 = CARTESIAN_POINT('',(9.247248341666,7.649106331533,2.409426556953)
  );
#273 = CARTESIAN_POINT('',(9.174526193657,7.735691659982,2.394306841096)
  );
#274 = CARTESIAN_POINT('',(8.95221268802,7.994356091446,2.365750022003)
  );
#275 = CARTESIAN_POINT('',(8.799333037383,8.164279750057,2.369412046669)
  );
#276 = CARTESIAN_POINT('',(8.644023330951,8.328969674616,2.393545798794)
  );
#277 = CARTESIAN_POINT('',(8.48827188955,8.486722928781,2.436319642518)
  );
#278 = CARTESIAN_POINT('',(8.334204579866,8.636146257162,2.49625729203)
  );
#279 = CARTESIAN_POINT('',(8.098429745471,8.856028349508,2.615746811531)
  );
#280 = CARTESIAN_POINT('',(8.013787647861,8.93307764073,2.664606949604)
  );
#281 = CARTESIAN_POINT('',(7.93077188961,9.006905909813,2.718658597059)
  );
#282 = CARTESIAN_POINT('',(7.849815538104,9.077319346845,2.777852188088)
  );
#283 = CARTESIAN_POINT('',(7.771483105917,9.144047097543,2.84218452693)
  );
#284 = CARTESIAN_POINT('',(7.630975173402,9.261507220329,2.972421523355)
  );
#285 = CARTESIAN_POINT('',(7.567951049543,9.313242559152,3.037163548776)
  );
#286 = CARTESIAN_POINT('',(7.507974209011,9.361640250699,3.105896607902)
  );
#287 = CARTESIAN_POINT('',(7.451686072179,9.406360934729,3.1786104346));
#288 = CARTESIAN_POINT('',(7.399841017768,9.447000606233,3.255279175266)
  );
#289 = CARTESIAN_POINT('',(7.319889826213,9.508995792252,3.39371942611)
  );
#290 = CARTESIAN_POINT('',(7.289186080198,9.532577582719,3.453642142775)
  );
#291 = CARTESIAN_POINT('',(7.261621081284,9.553571045672,3.515445459188)
  );
#292 = CARTESIAN_POINT('',(7.237580920504,9.571755803262,3.578941118442)
  );
#293 = CARTESIAN_POINT('',(7.217407465398,9.586940608159,3.643933893628)
  );
#294 = CARTESIAN_POINT('',(7.189983068464,9.607515130474,3.757461584443)
  );
#295 = CARTESIAN_POINT('',(7.18069208732,9.614459990037,3.805326975706)
  );
#296 = CARTESIAN_POINT('',(7.173641189714,9.619716831344,3.853666769438)
  );
#297 = CARTESIAN_POINT('',(7.168911620353,9.623238229395,3.902327732285)
  );
#298 = CARTESIAN_POINT('',(7.166545541612,9.625,3.951156448899));
#299 = CARTESIAN_POINT('',(7.166545541612,9.625,4.050692798634));
#300 = CARTESIAN_POINT('',(7.169094171289,9.623102295848,4.101367810427)
  );
#301 = CARTESIAN_POINT('',(7.174188207465,9.619309554184,4.151855231181)
  );
#302 = CARTESIAN_POINT('',(7.181778875807,9.613649694874,4.201984677658)
  );
#303 = CARTESIAN_POINT('',(7.191772460634,9.606177378067,4.251585995461)
  );
#304 = CARTESIAN_POINT('',(7.209902014993,9.592568312357,4.323912327643)
  );
#305 = CARTESIAN_POINT('',(7.216294275876,9.587763195922,4.347180759949)
  );
#306 = CARTESIAN_POINT('',(7.223193799304,9.582568276426,4.370280728095)
  );
#307 = CARTESIAN_POINT('',(7.230585846278,9.576992149339,4.393199163233)
  );
#308 = CARTESIAN_POINT('',(7.238454836861,9.571043871131,4.415924563413)
  );
#309 = CARTESIAN_POINT('',(7.261965509547,9.553230851614,4.479495802698)
  );
#310 = CARTESIAN_POINT('',(7.278670990626,9.540528552157,4.519854661036)
  );
#311 = CARTESIAN_POINT('',(7.296808002075,9.526678277935,4.559484310587)
  );
#312 = CARTESIAN_POINT('',(7.316280173604,9.511734869166,4.598346877059)
  );
#313 = CARTESIAN_POINT('',(7.336987555962,9.495755789249,4.636405869886)
  );
#314 = CARTESIAN_POINT('',(7.38518448537,9.458338309707,4.718547883207)
  );
#315 = CARTESIAN_POINT('',(7.413195130069,9.436451592803,4.762255028426)
  );
#316 = CARTESIAN_POINT('',(7.442705446654,9.413224726056,4.804732619637)
  );
#317 = CARTESIAN_POINT('',(7.473571638347,9.38873641811,4.845968001829)
  );
#318 = CARTESIAN_POINT('',(7.505659219978,9.363060334249,4.885950863237)
  );
#319 = CARTESIAN_POINT('',(7.563402874642,9.316433514712,4.95333227877)
  );
#320 = CARTESIAN_POINT('',(7.588567211742,9.295985736493,4.981305445806)
  );
#321 = CARTESIAN_POINT('',(7.6142895069,9.274946316071,5.00859360973));
#322 = CARTESIAN_POINT('',(7.640527211937,9.253337352446,5.035198050247)
  );
#323 = CARTESIAN_POINT('',(7.667241752884,9.231178489279,5.061120453481)
  );
#324 = CARTESIAN_POINT('',(7.7697126627,9.145556168789,5.156368047812));
#325 = CARTESIAN_POINT('',(7.84844615371,9.078513035395,5.221159964367)
  );
#326 = CARTESIAN_POINT('',(7.92983993086,9.007739369648,5.280753669965)
  );
#327 = CARTESIAN_POINT('',(8.013319428508,8.933510767165,5.335147141367)
  );
#328 = CARTESIAN_POINT('',(8.098445119164,8.856023455036,5.384290813305)
  );
#329 = CARTESIAN_POINT('',(8.308710384713,8.659908377952,5.490779404276)
  );
#330 = CARTESIAN_POINT('',(8.435309132887,8.537907353648,5.542506702696)
  );
#331 = CARTESIAN_POINT('',(8.563293370367,8.410132474809,5.582661875456)
  );
#332 = CARTESIAN_POINT('',(8.691505690799,8.277293325725,5.610482869311)
  );
#333 = CARTESIAN_POINT('',(8.818864997617,8.140209190468,5.625));
#334 = CARTESIAN_POINT('',(8.944271909999,8.,5.625));
#335 = CYLINDRICAL_SURFACE('',#336,12.);
#336 = AXIS2_PLACEMENT_3D('',#337,#338,#339);
#337 = CARTESIAN_POINT('',(0.,0.,0.));
#338 = DIRECTION('',(0.,0.,1.));
#339 = DIRECTION('',(1.,0.,0.));
#340 = ADVANCED_FACE('',(#341),#377,.T.);
#341 = FACE_BOUND('',#342,.T.);
#342 = EDGE_LOOP('',(#343,#344,#345,#353,#362,#371));
#343 = ORIENTED_EDGE('',*,*,#31,.T.);
#344 = ORIENTED_EDGE('',*,*,#187,.T.);
#345 = ORIENTED_EDGE('',*,*,#346,.F.);
#346 = EDGE_CURVE('',#347,#188,#349,.T.);
#347 = VERTEX_POINT('',#348);
#348 = CARTESIAN_POINT('',(0.6,2.426932219902,8.));
#349 = LINE('',#350,#351);
#350 = CARTESIAN_POINT('',(0.6,0.,8.));
#351 = VECTOR('',#352,1.);
#352 = DIRECTION('',(0.,1.,0.));
#353 = ORIENTED_EDGE('',*,*,#354,.F.);
#354 = EDGE_CURVE('',#355,#347,#357,.T.);
#355 = VERTEX_POINT('',#356);
#356 = CARTESIAN_POINT('',(2.5,-6.123233995737E-16,8.));
#357 = CIRCLE('',#358,2.5);
#358 = AXIS2_PLACEMENT_3D('',#359,#360,#361);
#359 = CARTESIAN_POINT('',(0.,0.,8.));
#360 = DIRECTION('',(0.,0.,1.));
#361 = DIRECTION('',(1.,0.,0.));
#362 = ORIENTED_EDGE('',*,*,#363,.F.);
#363 = EDGE_CURVE('',#364,#355,#366,.T.);
#364 = VERTEX_POINT('',#365);
#365 = CARTESIAN_POINT('',(-0.6,2.426932219902,8.));
#366 = CIRCLE('',#367,2.5);
#367 = AXIS2_PLACEMENT_3D('',#368,#369,#370);
#368 = CARTESIAN_POINT('',(0.,0.,8.));
#369 = DIRECTION('',(0.,0.,1.));
#370 = DIRECTION('',(1.,0.,0.));
#371 = ORIENTED_EDGE('',*,*,#372,.T.);
#372 = EDGE_CURVE('',#364,#32,#373,.T.);
#373 = LINE('',#374,#375);
#374 = CARTESIAN_POINT('',(-0.6,0.,8.));
#375 = VECTOR('',#376,1.);
#376 = DIRECTION('',(0.,1.,0.));
#377 = PLANE('',#378);
#378 = AXIS2_PLACEMENT_3D('',#379,#380,#381);
#379 = CARTESIAN_POINT('',(0.,0.,8.));
#380 = DIRECTION('',(0.,0.,1.));
#381 = DIRECTION('',(1.,0.,0.));
#382 = ADVANCED_FACE('',(#383),#419,.F.);
#383 = FACE_BOUND('',#384,.F.);
#384 = EDGE_LOOP('',(#385,#386,#387,#395,#404,#413));
#385 = ORIENTED_EDGE('',*,*,#48,.T.);
#386 = ORIENTED_EDGE('',*,*,#197,.T.);
#387 = ORIENTED_EDGE('',*,*,#388,.F.);
#388 = EDGE_CURVE('',#389,#198,#391,.T.);
#389 = VERTEX_POINT('',#390);
#390 = CARTESIAN_POINT('',(0.6,2.426932219902,0.));
#391 = LINE('',#392,#393);
#392 = CARTESIAN_POINT('',(0.6,0.,0.));
#393 = VECTOR('',#394,1.);
#394 = DIRECTION('',(0.,1.,0.));
#395 = ORIENTED_EDGE('',*,*,#396,.F.);
#396 = EDGE_CURVE('',#397,#389,#399,.T.);
#397 = VERTEX_POINT('',#398);
#398 = CARTESIAN_POINT('',(2.5,-6.123233995737E-16,0.));
#399 = CIRCLE('',#400,2.5);
#400 = AXIS2_PLACEMENT_3D('',#401,#402,#403);
#401 = CARTESIAN_POINT('',(0.,0.,0.));
#402 = DIRECTION('',(0.,0.,1.));
#403 = DIRECTION('',(1.,0.,0.));
#404 = ORIENTED_EDGE('',*,*,#405,.F.);
#405 = EDGE_CURVE('',#406,#397,#408,.T.);
#406 = VERTEX_POINT('',#407);
#407 = CARTESIAN_POINT('',(-0.6,2.426932219902,0.));
#408 = CIRCLE('',#409,2.5);
#409 = AXIS2_PLACEMENT_3D('',#410,#411,#412);
#410 = CARTESIAN_POINT('',(0.,0.,0.));
#411 = DIRECTION('',(0.,0.,1.));
#412 = DIRECTION('',(1.,0.,0.));
#413 = ORIENTED_EDGE('',*,*,#414,.T.);
#414 = EDGE_CURVE('',#406,#41,#415,.T.);
#415 = LINE('',#416,#417);
#416 = CARTESIAN_POINT('',(-0.6,0.,0.));
#417 = VECTOR('',#418,1.);
#418 = DIRECTION('',(0.,1.,0.));
#419 = PLANE('',#420);
#420 = AXIS2_PLACEMENT_3D('',#421,#422,#423);
#421 = CARTESIAN_POINT('',(0.,0.,0.));
#422 = DIRECTION('',(0.,0.,1.));
#423 = DIRECTION('',(1.,0.,0.));
#424 = ADVANCED_FACE('',(#425,#436),#447,.T.);
#425 = FACE_BOUND('',#426,.T.);
#426 = EDGE_LOOP('',(#427,#428,#434,#435));
#427 = ORIENTED_EDGE('',*,*,#372,.F.);
#428 = ORIENTED_EDGE('',*,*,#429,.F.);
#429 = EDGE_CURVE('',#406,#364,#430,.T.);
#430 = LINE('',#431,#432);
#431 = CARTESIAN_POINT('',(-0.6,2.426932219902,0.));
#432 = VECTOR('',#433,1.);
#433 = DIRECTION('',(0.,0.,1.));
#434 = ORIENTED_EDGE('',*,*,#414,.T.);
#435 = ORIENTED_EDGE('',*,*,#40,.T.);
#436 = FACE_BOUND('',#437,.T.);
#437 = EDGE_LOOP('',(#438));
#438 = ORIENTED_EDGE('',*,*,#439,.F.);
#439 = EDGE_CURVE('',#440,#440,#442,.T.);
#440 = VERTEX_POINT('',#441);
#441 = CARTESIAN_POINT('',(-0.6,8.,5.625));
#442 = CIRCLE('',#443,1.625);
#443 = AXIS2_PLACEMENT_3D('',#444,#445,#446);
#444 = CARTESIAN_POINT('',(-0.6,8.,4.));
#445 = DIRECTION('',(1.,0.,-0.));
#446 = DIRECTION('',(0.,0.,1.));
#447 = PLANE('',#448);
#448 = AXIS2_PLACEMENT_3D('',#449,#450,#451);
#449 = CARTESIAN_POINT('',(-0.6,0.,0.));
#450 = DIRECTION('',(1.,0.,0.));
#451 = DIRECTION('',(0.,0.,1.));
#452 = ADVANCED_FACE('',(#453),#464,.F.);
#453 = FACE_BOUND('',#454,.F.);
#454 = EDGE_LOOP('',(#455,#456,#462,#463));
#455 = ORIENTED_EDGE('',*,*,#439,.F.);
#456 = ORIENTED_EDGE('',*,*,#457,.F.);
#457 = EDGE_CURVE('',#58,#440,#458,.T.);
#458 = LINE('',#459,#460);
#459 = CARTESIAN_POINT('',(-12.,8.,5.625));
#460 = VECTOR('',#461,1.);
#461 = DIRECTION('',(1.,0.,0.));
#462 = ORIENTED_EDGE('',*,*,#57,.T.);
#463 = ORIENTED_EDGE('',*,*,#457,.T.);
#464 = CYLINDRICAL_SURFACE('',#465,1.625);
#465 = AXIS2_PLACEMENT_3D('',#466,#467,#468);
#466 = CARTESIAN_POINT('',(-12.,8.,4.));
#467 = DIRECTION('',(1.,0.,0.));
#468 = DIRECTION('',(0.,0.,1.));
#469 = ADVANCED_FACE('',(#470,#481),#492,.F.);
#470 = FACE_BOUND('',#471,.F.);
#471 = EDGE_LOOP('',(#472,#473,#479,#480));
#472 = ORIENTED_EDGE('',*,*,#346,.F.);
#473 = ORIENTED_EDGE('',*,*,#474,.F.);
#474 = EDGE_CURVE('',#389,#347,#475,.T.);
#475 = LINE('',#476,#477);
#476 = CARTESIAN_POINT('',(0.6,2.426932219902,0.));
#477 = VECTOR('',#478,1.);
#478 = DIRECTION('',(0.,0.,1.));
#479 = ORIENTED_EDGE('',*,*,#388,.T.);
#480 = ORIENTED_EDGE('',*,*,#206,.T.);
#481 = FACE_BOUND('',#482,.F.);
#482 = EDGE_LOOP('',(#483));
#483 = ORIENTED_EDGE('',*,*,#484,.F.);
#484 = EDGE_CURVE('',#485,#485,#487,.T.);
#485 = VERTEX_POINT('',#486);
#486 = CARTESIAN_POINT('',(0.6,8.,5.625));
#487 = CIRCLE('',#488,1.625);
#488 = AXIS2_PLACEMENT_3D('',#489,#490,#491);
#489 = CARTESIAN_POINT('',(0.6,8.,4.));
#490 = DIRECTION('',(1.,0.,-0.));
#491 = DIRECTION('',(0.,0.,1.));
#492 = PLANE('',#493);
#493 = AXIS2_PLACEMENT_3D('',#494,#495,#496);
#494 = CARTESIAN_POINT('',(0.6,0.,0.));
#495 = DIRECTION('',(1.,0.,0.));
#496 = DIRECTION('',(0.,0.,1.));
#497 = ADVANCED_FACE('',(#498),#509,.F.);
#498 = FACE_BOUND('',#499,.F.);
#499 = EDGE_LOOP('',(#500,#501,#507,#508));
#500 = ORIENTED_EDGE('',*,*,#214,.F.);
#501 = ORIENTED_EDGE('',*,*,#502,.F.);
#502 = EDGE_CURVE('',#485,#215,#503,.T.);
#503 = LINE('',#504,#505);
#504 = CARTESIAN_POINT('',(-12.,8.,5.625));
#505 = VECTOR('',#506,1.);
#506 = DIRECTION('',(1.,0.,0.));
#507 = ORIENTED_EDGE('',*,*,#484,.T.);
#508 = ORIENTED_EDGE('',*,*,#502,.T.);
#509 = CYLINDRICAL_SURFACE('',#510,1.625);
#510 = AXIS2_PLACEMENT_3D('',#511,#512,#513);
#511 = CARTESIAN_POINT('',(-12.,8.,4.));
#512 = DIRECTION('',(1.,0.,0.));
#513 = DIRECTION('',(0.,0.,1.));
#514 = ADVANCED_FACE('',(#515),#526,.F.);
#515 = FACE_BOUND('',#516,.F.);
#516 = EDGE_LOOP('',(#517,#523,#524,#525));
#517 = ORIENTED_EDGE('',*,*,#518,.T.);
#518 = EDGE_CURVE('',#397,#355,#519,.T.);
#519 = LINE('',#520,#521);
#520 = CARTESIAN_POINT('',(2.5,-6.123233995737E-16,0.));
#521 = VECTOR('',#522,1.);
#522 = DIRECTION('',(0.,0.,1.));
#523 = ORIENTED_EDGE('',*,*,#363,.F.);
#524 = ORIENTED_EDGE('',*,*,#429,.F.);
#525 = ORIENTED_EDGE('',*,*,#405,.T.);
#526 = CYLINDRICAL_SURFACE('',#527,2.5);
#527 = AXIS2_PLACEMENT_3D('',#528,#529,#530);
#528 = CARTESIAN_POINT('',(0.,0.,0.));
#529 = DIRECTION('',(0.,0.,1.));
#530 = DIRECTION('',(1.,0.,0.));
#531 = ADVANCED_FACE('',(#532),#538,.F.);
#532 = FACE_BOUND('',#533,.F.);
#533 = EDGE_LOOP('',(#534,#535,#536,#537));
#534 = ORIENTED_EDGE('',*,*,#354,.F.);
#535 = ORIENTED_EDGE('',*,*,#518,.F.);
#536 = ORIENTED_EDGE('',*,*,#396,.T.);
#537 = ORIENTED_EDGE('',*,*,#474,.T.);
#538 = CYLINDRICAL_SURFACE('',#539,2.5);
#539 = AXIS2_PLACEMENT_3D('',#540,#541,#542);
#540 = CARTESIAN_POINT('',(0.,0.,0.));
#541 = DIRECTION('',(0.,0.,1.));
#542 = DIRECTION('',(1.,0.,0.));
#543 = ( GEOMETRIC_REPRESENTATION_CONTEXT(3) 
GLOBAL_UNCERTAINTY_ASSIGNED_CONTEXT((#547)) GLOBAL_UNIT_ASSIGNED_CONTEXT
((#544,#545,#546)) REPRESENTATION_CONTEXT('Context #1',
  '3D Context with UNIT and UNCERTAINTY') );
#544 = ( LENGTH_UNIT() NAMED_UNIT(*) SI_UNIT(.MILLI.,.METRE.) );
#545 = ( NAMED_UNIT(*) PLANE_ANGLE_UNIT() SI_UNIT($,.RADIAN.) );
#546 = ( NAMED_UNIT(*) SI_UNIT($,.STERADIAN.) SOLID_ANGLE_UNIT() );
#547 = UNCERTAINTY_MEASURE_WITH_UNIT(LENGTH_MEASURE(1.E-07),#544,
  'distance_accuracy_value','confusion accuracy');
#548 = PRODUCT_RELATED_PRODUCT_CATEGORY('part',$,(#7));
ENDSEC;
END-ISO-10303-21;
