ISO-10303-21;
HEADER;
FILE_DESCRIPTION(('FreeCAD Model'),'2;1');
FILE_NAME('Open CASCADE Shape Model','2026-07-24T16:59:17',('FreeCAD'),(
    'FreeCAD'),'Open CASCADE STEP processor 7.8','FreeCAD','Unknown');
FILE_SCHEMA(('AUTOMOTIVE_DESIGN { 1 0 10303 214 1 1 1 1 }'));
ENDSEC;
DATA;
#1 = APPLICATION_PROTOCOL_DEFINITION('international standard',
  'automotive_design',2000,#2);
#2 = APPLICATION_CONTEXT(
  'core data for automotive mechanical design processes');
#3 = SHAPE_DEFINITION_REPRESENTATION(#4,#10);
#4 = PRODUCT_DEFINITION_SHAPE('','',#5);
#5 = PRODUCT_DEFINITION('design','',#6,#9);
#6 = PRODUCT_DEFINITION_FORMATION('','',#7);
#7 = PRODUCT('Open CASCADE STEP translator 7.8 53',
  'Open CASCADE STEP translator 7.8 53','',(#8));
#8 = PRODUCT_CONTEXT('',#2,'mechanical');
#9 = PRODUCT_DEFINITION_CONTEXT('part definition',#2,'design');
#10 = ADVANCED_BREP_SHAPE_REPRESENTATION('',(#11,#15),#457);
#11 = AXIS2_PLACEMENT_3D('',#12,#13,#14);
#12 = CARTESIAN_POINT('',(0.,0.,0.));
#13 = DIRECTION('',(0.,0.,1.));
#14 = DIRECTION('',(1.,0.,-0.));
#15 = MANIFOLD_SOLID_BREP('',#16);
#16 = CLOSED_SHELL('',(#17,#74,#157,#294,#318,#342,#388,#405,#424,#443)
  );
#17 = ADVANCED_FACE('',(#18),#69,.F.);
#18 = FACE_BOUND('',#19,.F.);
#19 = EDGE_LOOP('',(#20,#30,#38,#46,#54,#62));
#20 = ORIENTED_EDGE('',*,*,#21,.F.);
#21 = EDGE_CURVE('',#22,#24,#26,.T.);
#22 = VERTEX_POINT('',#23);
#23 = CARTESIAN_POINT('',(0.,0.,7.));
#24 = VERTEX_POINT('',#25);
#25 = CARTESIAN_POINT('',(0.,3.757359312881,7.));
#26 = LINE('',#27,#28);
#27 = CARTESIAN_POINT('',(0.,0.,7.));
#28 = VECTOR('',#29,1.);
#29 = DIRECTION('',(0.,1.,0.));
#30 = ORIENTED_EDGE('',*,*,#31,.F.);
#31 = EDGE_CURVE('',#32,#22,#34,.T.);
#32 = VERTEX_POINT('',#33);
#33 = CARTESIAN_POINT('',(0.,0.,0.));
#34 = LINE('',#35,#36);
#35 = CARTESIAN_POINT('',(0.,0.,0.));
#36 = VECTOR('',#37,1.);
#37 = DIRECTION('',(0.,0.,1.));
#38 = ORIENTED_EDGE('',*,*,#39,.T.);
#39 = EDGE_CURVE('',#32,#40,#42,.T.);
#40 = VERTEX_POINT('',#41);
#41 = CARTESIAN_POINT('',(0.,16.,0.));
#42 = LINE('',#43,#44);
#43 = CARTESIAN_POINT('',(0.,0.,0.));
#44 = VECTOR('',#45,1.);
#45 = DIRECTION('',(0.,1.,0.));
#46 = ORIENTED_EDGE('',*,*,#47,.T.);
#47 = EDGE_CURVE('',#40,#48,#50,.T.);
#48 = VERTEX_POINT('',#49);
#49 = CARTESIAN_POINT('',(0.,16.,7.));
#50 = LINE('',#51,#52);
#51 = CARTESIAN_POINT('',(0.,16.,0.));
#52 = VECTOR('',#53,1.);
#53 = DIRECTION('',(0.,0.,1.));
#54 = ORIENTED_EDGE('',*,*,#55,.F.);
#55 = EDGE_CURVE('',#56,#48,#58,.T.);
#56 = VERTEX_POINT('',#57);
#57 = CARTESIAN_POINT('',(0.,12.242640687119,7.));
#58 = LINE('',#59,#60);
#59 = CARTESIAN_POINT('',(0.,0.,7.));
#60 = VECTOR('',#61,1.);
#61 = DIRECTION('',(0.,1.,0.));
#62 = ORIENTED_EDGE('',*,*,#63,.F.);
#63 = EDGE_CURVE('',#24,#56,#64,.T.);
#64 = CIRCLE('',#65,4.5);
#65 = AXIS2_PLACEMENT_3D('',#66,#67,#68);
#66 = CARTESIAN_POINT('',(0.,8.,8.5));
#67 = DIRECTION('',(1.,0.,-0.));
#68 = DIRECTION('',(0.,0.,1.));
#69 = PLANE('',#70);
#70 = AXIS2_PLACEMENT_3D('',#71,#72,#73);
#71 = CARTESIAN_POINT('',(0.,0.,0.));
#72 = DIRECTION('',(1.,0.,0.));
#73 = DIRECTION('',(0.,0.,1.));
#74 = ADVANCED_FACE('',(#75),#152,.T.);
#75 = FACE_BOUND('',#76,.T.);
#76 = EDGE_LOOP('',(#77,#78,#86,#94,#102,#111,#120,#128,#137,#146));
#77 = ORIENTED_EDGE('',*,*,#21,.F.);
#78 = ORIENTED_EDGE('',*,*,#79,.T.);
#79 = EDGE_CURVE('',#22,#80,#82,.T.);
#80 = VERTEX_POINT('',#81);
#81 = CARTESIAN_POINT('',(28.,0.,7.));
#82 = LINE('',#83,#84);
#83 = CARTESIAN_POINT('',(0.,0.,7.));
#84 = VECTOR('',#85,1.);
#85 = DIRECTION('',(1.,0.,0.));
#86 = ORIENTED_EDGE('',*,*,#87,.T.);
#87 = EDGE_CURVE('',#80,#88,#90,.T.);
#88 = VERTEX_POINT('',#89);
#89 = CARTESIAN_POINT('',(28.,3.757359312881,7.));
#90 = LINE('',#91,#92);
#91 = CARTESIAN_POINT('',(28.,0.,7.));
#92 = VECTOR('',#93,1.);
#93 = DIRECTION('',(0.,1.,0.));
#94 = ORIENTED_EDGE('',*,*,#95,.F.);
#95 = EDGE_CURVE('',#96,#88,#98,.T.);
#96 = VERTEX_POINT('',#97);
#97 = CARTESIAN_POINT('',(25.437717590903,3.757359312881,7.));
#98 = LINE('',#99,#100);
#99 = CARTESIAN_POINT('',(0.,3.757359312881,7.));
#100 = VECTOR('',#101,1.);
#101 = DIRECTION('',(1.,0.,0.));
#102 = ORIENTED_EDGE('',*,*,#103,.F.);
#103 = EDGE_CURVE('',#104,#96,#106,.T.);
#104 = VERTEX_POINT('',#105);
#105 = CARTESIAN_POINT('',(25.625,3.,7.));
#106 = CIRCLE('',#107,1.625);
#107 = AXIS2_PLACEMENT_3D('',#108,#109,#110);
#108 = CARTESIAN_POINT('',(24.,3.,7.));
#109 = DIRECTION('',(0.,0.,1.));
#110 = DIRECTION('',(1.,0.,0.));
#111 = ORIENTED_EDGE('',*,*,#112,.F.);
#112 = EDGE_CURVE('',#113,#104,#115,.T.);
#113 = VERTEX_POINT('',#114);
#114 = CARTESIAN_POINT('',(22.562282409097,3.757359312881,7.));
#115 = CIRCLE('',#116,1.625);
#116 = AXIS2_PLACEMENT_3D('',#117,#118,#119);
#117 = CARTESIAN_POINT('',(24.,3.,7.));
#118 = DIRECTION('',(0.,0.,1.));
#119 = DIRECTION('',(1.,0.,0.));
#120 = ORIENTED_EDGE('',*,*,#121,.F.);
#121 = EDGE_CURVE('',#122,#113,#124,.T.);
#122 = VERTEX_POINT('',#123);
#123 = CARTESIAN_POINT('',(5.437717590903,3.757359312881,7.));
#124 = LINE('',#125,#126);
#125 = CARTESIAN_POINT('',(0.,3.757359312881,7.));
#126 = VECTOR('',#127,1.);
#127 = DIRECTION('',(1.,0.,0.));
#128 = ORIENTED_EDGE('',*,*,#129,.F.);
#129 = EDGE_CURVE('',#130,#122,#132,.T.);
#130 = VERTEX_POINT('',#131);
#131 = CARTESIAN_POINT('',(5.625,3.,7.));
#132 = CIRCLE('',#133,1.625);
#133 = AXIS2_PLACEMENT_3D('',#134,#135,#136);
#134 = CARTESIAN_POINT('',(4.,3.,7.));
#135 = DIRECTION('',(0.,0.,1.));
#136 = DIRECTION('',(1.,0.,0.));
#137 = ORIENTED_EDGE('',*,*,#138,.F.);
#138 = EDGE_CURVE('',#139,#130,#141,.T.);
#139 = VERTEX_POINT('',#140);
#140 = CARTESIAN_POINT('',(2.562282409097,3.757359312881,7.));
#141 = CIRCLE('',#142,1.625);
#142 = AXIS2_PLACEMENT_3D('',#143,#144,#145);
#143 = CARTESIAN_POINT('',(4.,3.,7.));
#144 = DIRECTION('',(0.,0.,1.));
#145 = DIRECTION('',(1.,0.,0.));
#146 = ORIENTED_EDGE('',*,*,#147,.F.);
#147 = EDGE_CURVE('',#24,#139,#148,.T.);
#148 = LINE('',#149,#150);
#149 = CARTESIAN_POINT('',(0.,3.757359312881,7.));
#150 = VECTOR('',#151,1.);
#151 = DIRECTION('',(1.,0.,0.));
#152 = PLANE('',#153);
#153 = AXIS2_PLACEMENT_3D('',#154,#155,#156);
#154 = CARTESIAN_POINT('',(0.,0.,7.));
#155 = DIRECTION('',(0.,0.,1.));
#156 = DIRECTION('',(1.,0.,0.));
#157 = ADVANCED_FACE('',(#158),#289,.F.);
#158 = FACE_BOUND('',#159,.F.);
#159 = EDGE_LOOP('',(#160,#169,#170,#225,#226,#281,#282,#283));
#160 = ORIENTED_EDGE('',*,*,#161,.F.);
#161 = EDGE_CURVE('',#88,#162,#164,.T.);
#162 = VERTEX_POINT('',#163);
#163 = CARTESIAN_POINT('',(28.,12.242640687119,7.));
#164 = CIRCLE('',#165,4.5);
#165 = AXIS2_PLACEMENT_3D('',#166,#167,#168);
#166 = CARTESIAN_POINT('',(28.,8.,8.5));
#167 = DIRECTION('',(1.,0.,-0.));
#168 = DIRECTION('',(0.,0.,1.));
#169 = ORIENTED_EDGE('',*,*,#95,.F.);
#170 = ORIENTED_EDGE('',*,*,#171,.T.);
#171 = EDGE_CURVE('',#96,#113,#172,.T.);
#172 = B_SPLINE_CURVE_WITH_KNOTS('',6,(#173,#174,#175,#176,#177,#178,
    #179,#180,#181,#182,#183,#184,#185,#186,#187,#188,#189,#190,#191,
    #192,#193,#194,#195,#196,#197,#198,#199,#200,#201,#202,#203,#204,
    #205,#206,#207,#208,#209,#210,#211,#212,#213,#214,#215,#216,#217,
    #218,#219,#220,#221,#222,#223,#224),.UNSPECIFIED.,.F.,.F.,(7,5,5,5,5
    ,5,5,5,5,5,7),(0.,0.180074659146,0.251857667739,0.297108245713,
    0.435118852615,0.498805096358,0.564186153988,0.669751916764,
    0.747248899992,0.820452207215,1.),.UNSPECIFIED.);
#173 = CARTESIAN_POINT('',(25.437717590903,3.757359312881,7.));
#174 = CARTESIAN_POINT('',(25.411738343776,3.806676486325,6.860509968915
    ));
#175 = CARTESIAN_POINT('',(25.380289458785,3.861453283045,6.723089792288
    ));
#176 = CARTESIAN_POINT('',(25.342313607498,3.92125585502,6.588906416108)
  );
#177 = CARTESIAN_POINT('',(25.296549395914,3.985369623366,6.459115811834
    ));
#178 = CARTESIAN_POINT('',(25.241565902464,4.052719440587,6.334946514113
    ));
#179 = CARTESIAN_POINT('',(25.149577378106,4.149147322871,6.171079586474
    ));
#180 = CARTESIAN_POINT('',(25.121670774974,4.176857258168,6.125534128719
    ));
#181 = CARTESIAN_POINT('',(25.09201788846,4.204651536123,6.081295147826)
  );
#182 = CARTESIAN_POINT('',(25.060571216624,4.232375384882,6.038497546091
    ));
#183 = CARTESIAN_POINT('',(25.027294505192,4.259864555674,5.997264479585
    ));
#184 = CARTESIAN_POINT('',(24.970018074868,4.304021417297,5.932772783051
    ));
#185 = CARTESIAN_POINT('',(24.947142026082,4.320928727087,5.908510658833
    ));
#186 = CARTESIAN_POINT('',(24.923535133858,4.337623177365,5.884955459418
    ));
#187 = CARTESIAN_POINT('',(24.899202198094,4.354056593578,5.862139359049
    ));
#188 = CARTESIAN_POINT('',(24.874153320741,4.370179718281,5.840093119125
    ));
#189 = CARTESIAN_POINT('',(24.769870270628,4.434016540851,5.754044360488
    ));
#190 = CARTESIAN_POINT('',(24.684846240843,4.47872303748,5.696695676791)
  );
#191 = CARTESIAN_POINT('',(24.593785337827,4.518653288647,5.647619379258
    ));
#192 = CARTESIAN_POINT('',(24.497542218712,4.552466903751,5.60735559121)
  );
#193 = CARTESIAN_POINT('',(24.397348520728,4.579122660836,5.576229451401
    ));
#194 = CARTESIAN_POINT('',(24.247372489762,4.60678270198,5.544284454155)
  );
#195 = CARTESIAN_POINT('',(24.199477700387,4.613874681543,5.536166385086
    ));
#196 = CARTESIAN_POINT('',(24.151169809093,4.619270137033,5.530027778865
    ));
#197 = CARTESIAN_POINT('',(24.102580403288,4.622931391276,5.525875434271
    ));
#198 = CARTESIAN_POINT('',(24.053845588728,4.624838850063,5.523712502873
    ));
#199 = CARTESIAN_POINT('',(23.955068002442,4.625149185347,5.523360613826
    ));
#200 = CARTESIAN_POINT('',(23.905016501342,4.623457471351,5.52527892089)
  );
#201 = CARTESIAN_POINT('',(23.855102210039,4.619915323935,5.529294258891
    ));
#202 = CARTESIAN_POINT('',(23.805472461075,4.614542395648,5.535403510435
    ));
#203 = CARTESIAN_POINT('',(23.756269779051,4.607378437361,5.543599557731
    ));
#204 = CARTESIAN_POINT('',(23.629098024405,4.584118208025,5.570455163814
    ));
#205 = CARTESIAN_POINT('',(23.551995652078,4.565231283117,5.59245808784)
  );
#206 = CARTESIAN_POINT('',(23.476988215865,4.542075094112,5.619820513557
    ));
#207 = CARTESIAN_POINT('',(23.404647431334,4.515063385195,5.652421694821
    ));
#208 = CARTESIAN_POINT('',(23.335430566478,4.484719993397,5.690070883395
    ));
#209 = CARTESIAN_POINT('',(23.22137448739,4.427336255227,5.763645851501)
  );
#210 = CARTESIAN_POINT('',(23.174974225203,4.401576395699,5.79735053782)
  );
#211 = CARTESIAN_POINT('',(23.130578440024,4.374581298754,5.83350315113)
  );
#212 = CARTESIAN_POINT('',(23.088271647294,4.346598961576,5.87197032892)
  );
#213 = CARTESIAN_POINT('',(23.048103340722,4.317882967246,5.912591951513
    ));
#214 = CARTESIAN_POINT('',(22.974181195483,4.261099118307,5.995404386084
    ));
#215 = CARTESIAN_POINT('',(22.940200125452,4.233087224729,6.037378134078
    ));
#216 = CARTESIAN_POINT('',(22.908121093484,4.204827434576,6.080980583215
    ));
#217 = CARTESIAN_POINT('',(22.877905915832,4.176493852595,6.126081475878
    ));
#218 = CARTESIAN_POINT('',(22.84950425406,4.148250366675,6.172537871504)
  );
#219 = CARTESIAN_POINT('',(22.757490787832,4.051563490863,6.337078638474
    ));
#220 = CARTESIAN_POINT('',(22.702821766288,3.984488228811,6.46090075575)
  );
#221 = CARTESIAN_POINT('',(22.657295205393,3.920639452226,6.590290253084
    ));
#222 = CARTESIAN_POINT('',(22.619494975468,3.861077656472,6.724032780456
    ));
#223 = CARTESIAN_POINT('',(22.588172910538,3.806508017765,6.86098646996)
  );
#224 = CARTESIAN_POINT('',(22.562282409097,3.757359312881,7.));
#225 = ORIENTED_EDGE('',*,*,#121,.F.);
#226 = ORIENTED_EDGE('',*,*,#227,.T.);
#227 = EDGE_CURVE('',#122,#139,#228,.T.);
#228 = B_SPLINE_CURVE_WITH_KNOTS('',6,(#229,#230,#231,#232,#233,#234,
    #235,#236,#237,#238,#239,#240,#241,#242,#243,#244,#245,#246,#247,
    #248,#249,#250,#251,#252,#253,#254,#255,#256,#257,#258,#259,#260,
    #261,#262,#263,#264,#265,#266,#267,#268,#269,#270,#271,#272,#273,
    #274,#275,#276,#277,#278,#279,#280),.UNSPECIFIED.,.F.,.F.,(7,5,5,5,5
    ,5,5,5,5,5,7),(0.,0.180074660201,0.251857669215,0.297108247454,
    0.435118855165,0.498805095101,0.564186148986,0.669751912915,
    0.74724889699,0.820452205054,1.),.UNSPECIFIED.);
#229 = CARTESIAN_POINT('',(5.437717590903,3.757359312881,7.));
#230 = CARTESIAN_POINT('',(5.411738343776,3.806676486325,6.860509968915)
  );
#231 = CARTESIAN_POINT('',(5.380289458785,3.861453283045,6.723089792288)
  );
#232 = CARTESIAN_POINT('',(5.342313607498,3.92125585502,6.588906416108)
  );
#233 = CARTESIAN_POINT('',(5.296549395914,3.985369623366,6.459115811834)
  );
#234 = CARTESIAN_POINT('',(5.241565902464,4.052719440587,6.334946514113)
  );
#235 = CARTESIAN_POINT('',(5.149577378106,4.149147322871,6.171079586474)
  );
#236 = CARTESIAN_POINT('',(5.121670774974,4.176857258168,6.125534128719)
  );
#237 = CARTESIAN_POINT('',(5.09201788846,4.204651536123,6.081295147826)
  );
#238 = CARTESIAN_POINT('',(5.060571216624,4.232375384882,6.038497546091)
  );
#239 = CARTESIAN_POINT('',(5.027294505192,4.259864555674,5.997264479585)
  );
#240 = CARTESIAN_POINT('',(4.970018074868,4.304021417297,5.932772783051)
  );
#241 = CARTESIAN_POINT('',(4.947142026082,4.320928727087,5.908510658833)
  );
#242 = CARTESIAN_POINT('',(4.923535133858,4.337623177365,5.884955459418)
  );
#243 = CARTESIAN_POINT('',(4.899202198094,4.354056593578,5.862139359049)
  );
#244 = CARTESIAN_POINT('',(4.874153320741,4.370179718281,5.840093119125)
  );
#245 = CARTESIAN_POINT('',(4.769870270628,4.434016540851,5.754044360488)
  );
#246 = CARTESIAN_POINT('',(4.684846240843,4.47872303748,5.696695676791)
  );
#247 = CARTESIAN_POINT('',(4.593785337827,4.518653288647,5.647619379258)
  );
#248 = CARTESIAN_POINT('',(4.497542218712,4.552466903751,5.60735559121)
  );
#249 = CARTESIAN_POINT('',(4.397348520728,4.579122660836,5.576229451401)
  );
#250 = CARTESIAN_POINT('',(4.247372492871,4.606782701406,5.544284454817)
  );
#251 = CARTESIAN_POINT('',(4.199477699615,4.613874681917,5.536166384654)
  );
#252 = CARTESIAN_POINT('',(4.151169805958,4.619270137324,5.530027778529)
  );
#253 = CARTESIAN_POINT('',(4.102580402387,4.622931391057,5.525875434525)
  );
#254 = CARTESIAN_POINT('',(4.053845591888,4.624838850053,5.523712502884)
  );
#255 = CARTESIAN_POINT('',(3.955067999071,4.625149185357,5.523360613814)
  );
#256 = CARTESIAN_POINT('',(3.905016502303,4.623457471104,5.525278921175)
  );
#257 = CARTESIAN_POINT('',(3.855102213383,4.619915324233,5.529294258548)
  );
#258 = CARTESIAN_POINT('',(3.805472461899,4.614542396052,5.535403509968)
  );
#259 = CARTESIAN_POINT('',(3.756269775735,4.607378436754,5.543599558431)
  );
#260 = CARTESIAN_POINT('',(3.629098024405,4.584118208025,5.570455163814)
  );
#261 = CARTESIAN_POINT('',(3.551995652078,4.565231283117,5.59245808784)
  );
#262 = CARTESIAN_POINT('',(3.476988215865,4.542075094112,5.619820513557)
  );
#263 = CARTESIAN_POINT('',(3.404647431334,4.515063385195,5.652421694821)
  );
#264 = CARTESIAN_POINT('',(3.335430566478,4.484719993397,5.690070883395)
  );
#265 = CARTESIAN_POINT('',(3.22137448739,4.427336255227,5.763645851502)
  );
#266 = CARTESIAN_POINT('',(3.174974225203,4.401576395699,5.79735053782)
  );
#267 = CARTESIAN_POINT('',(3.130578440024,4.374581298754,5.83350315113)
  );
#268 = CARTESIAN_POINT('',(3.088271647294,4.346598961576,5.87197032892)
  );
#269 = CARTESIAN_POINT('',(3.048103340722,4.317882967246,5.912591951513)
  );
#270 = CARTESIAN_POINT('',(2.974181195462,4.261099118291,5.995404386108)
  );
#271 = CARTESIAN_POINT('',(2.940200125459,4.233087224733,6.037378134074)
  );
#272 = CARTESIAN_POINT('',(2.908121093502,4.204827434592,6.080980583191)
  );
#273 = CARTESIAN_POINT('',(2.877905915834,4.1764938526,6.126081475868));
#274 = CARTESIAN_POINT('',(2.849504254046,4.14825036666,6.17253787153));
#275 = CARTESIAN_POINT('',(2.757490787832,4.051563490863,6.337078638474)
  );
#276 = CARTESIAN_POINT('',(2.702821766288,3.984488228811,6.460900755751)
  );
#277 = CARTESIAN_POINT('',(2.657295205393,3.920639452226,6.590290253084)
  );
#278 = CARTESIAN_POINT('',(2.619494975468,3.861077656472,6.724032780456)
  );
#279 = CARTESIAN_POINT('',(2.588172910538,3.806508017765,6.86098646996)
  );
#280 = CARTESIAN_POINT('',(2.562282409097,3.757359312881,7.));
#281 = ORIENTED_EDGE('',*,*,#147,.F.);
#282 = ORIENTED_EDGE('',*,*,#63,.T.);
#283 = ORIENTED_EDGE('',*,*,#284,.T.);
#284 = EDGE_CURVE('',#56,#162,#285,.T.);
#285 = LINE('',#286,#287);
#286 = CARTESIAN_POINT('',(0.,12.242640687119,7.));
#287 = VECTOR('',#288,1.);
#288 = DIRECTION('',(1.,0.,0.));
#289 = CYLINDRICAL_SURFACE('',#290,4.5);
#290 = AXIS2_PLACEMENT_3D('',#291,#292,#293);
#291 = CARTESIAN_POINT('',(0.,8.,8.5));
#292 = DIRECTION('',(1.,0.,0.));
#293 = DIRECTION('',(0.,0.,1.));
#294 = ADVANCED_FACE('',(#295),#313,.T.);
#295 = FACE_BOUND('',#296,.T.);
#296 = EDGE_LOOP('',(#297,#298,#299,#307));
#297 = ORIENTED_EDGE('',*,*,#55,.F.);
#298 = ORIENTED_EDGE('',*,*,#284,.T.);
#299 = ORIENTED_EDGE('',*,*,#300,.T.);
#300 = EDGE_CURVE('',#162,#301,#303,.T.);
#301 = VERTEX_POINT('',#302);
#302 = CARTESIAN_POINT('',(28.,16.,7.));
#303 = LINE('',#304,#305);
#304 = CARTESIAN_POINT('',(28.,0.,7.));
#305 = VECTOR('',#306,1.);
#306 = DIRECTION('',(0.,1.,0.));
#307 = ORIENTED_EDGE('',*,*,#308,.F.);
#308 = EDGE_CURVE('',#48,#301,#309,.T.);
#309 = LINE('',#310,#311);
#310 = CARTESIAN_POINT('',(0.,16.,7.));
#311 = VECTOR('',#312,1.);
#312 = DIRECTION('',(1.,0.,0.));
#313 = PLANE('',#314);
#314 = AXIS2_PLACEMENT_3D('',#315,#316,#317);
#315 = CARTESIAN_POINT('',(0.,0.,7.));
#316 = DIRECTION('',(0.,0.,1.));
#317 = DIRECTION('',(1.,0.,0.));
#318 = ADVANCED_FACE('',(#319),#337,.T.);
#319 = FACE_BOUND('',#320,.T.);
#320 = EDGE_LOOP('',(#321,#329,#330,#331));
#321 = ORIENTED_EDGE('',*,*,#322,.F.);
#322 = EDGE_CURVE('',#40,#323,#325,.T.);
#323 = VERTEX_POINT('',#324);
#324 = CARTESIAN_POINT('',(28.,16.,0.));
#325 = LINE('',#326,#327);
#326 = CARTESIAN_POINT('',(0.,16.,0.));
#327 = VECTOR('',#328,1.);
#328 = DIRECTION('',(1.,0.,0.));
#329 = ORIENTED_EDGE('',*,*,#47,.T.);
#330 = ORIENTED_EDGE('',*,*,#308,.T.);
#331 = ORIENTED_EDGE('',*,*,#332,.F.);
#332 = EDGE_CURVE('',#323,#301,#333,.T.);
#333 = LINE('',#334,#335);
#334 = CARTESIAN_POINT('',(28.,16.,0.));
#335 = VECTOR('',#336,1.);
#336 = DIRECTION('',(0.,0.,1.));
#337 = PLANE('',#338);
#338 = AXIS2_PLACEMENT_3D('',#339,#340,#341);
#339 = CARTESIAN_POINT('',(0.,16.,0.));
#340 = DIRECTION('',(0.,1.,0.));
#341 = DIRECTION('',(0.,0.,1.));
#342 = ADVANCED_FACE('',(#343,#361,#372),#383,.F.);
#343 = FACE_BOUND('',#344,.F.);
#344 = EDGE_LOOP('',(#345,#346,#354,#360));
#345 = ORIENTED_EDGE('',*,*,#39,.F.);
#346 = ORIENTED_EDGE('',*,*,#347,.T.);
#347 = EDGE_CURVE('',#32,#348,#350,.T.);
#348 = VERTEX_POINT('',#349);
#349 = CARTESIAN_POINT('',(28.,0.,0.));
#350 = LINE('',#351,#352);
#351 = CARTESIAN_POINT('',(0.,0.,0.));
#352 = VECTOR('',#353,1.);
#353 = DIRECTION('',(1.,0.,0.));
#354 = ORIENTED_EDGE('',*,*,#355,.T.);
#355 = EDGE_CURVE('',#348,#323,#356,.T.);
#356 = LINE('',#357,#358);
#357 = CARTESIAN_POINT('',(28.,0.,0.));
#358 = VECTOR('',#359,1.);
#359 = DIRECTION('',(0.,1.,0.));
#360 = ORIENTED_EDGE('',*,*,#322,.F.);
#361 = FACE_BOUND('',#362,.F.);
#362 = EDGE_LOOP('',(#363));
#363 = ORIENTED_EDGE('',*,*,#364,.F.);
#364 = EDGE_CURVE('',#365,#365,#367,.T.);
#365 = VERTEX_POINT('',#366);
#366 = CARTESIAN_POINT('',(5.625,3.,0.));
#367 = CIRCLE('',#368,1.625);
#368 = AXIS2_PLACEMENT_3D('',#369,#370,#371);
#369 = CARTESIAN_POINT('',(4.,3.,0.));
#370 = DIRECTION('',(0.,0.,1.));
#371 = DIRECTION('',(1.,0.,0.));
#372 = FACE_BOUND('',#373,.F.);
#373 = EDGE_LOOP('',(#374));
#374 = ORIENTED_EDGE('',*,*,#375,.F.);
#375 = EDGE_CURVE('',#376,#376,#378,.T.);
#376 = VERTEX_POINT('',#377);
#377 = CARTESIAN_POINT('',(25.625,3.,0.));
#378 = CIRCLE('',#379,1.625);
#379 = AXIS2_PLACEMENT_3D('',#380,#381,#382);
#380 = CARTESIAN_POINT('',(24.,3.,0.));
#381 = DIRECTION('',(0.,0.,1.));
#382 = DIRECTION('',(1.,0.,0.));
#383 = PLANE('',#384);
#384 = AXIS2_PLACEMENT_3D('',#385,#386,#387);
#385 = CARTESIAN_POINT('',(0.,0.,0.));
#386 = DIRECTION('',(0.,0.,1.));
#387 = DIRECTION('',(1.,0.,0.));
#388 = ADVANCED_FACE('',(#389),#400,.F.);
#389 = FACE_BOUND('',#390,.F.);
#390 = EDGE_LOOP('',(#391,#392,#393,#394));
#391 = ORIENTED_EDGE('',*,*,#347,.F.);
#392 = ORIENTED_EDGE('',*,*,#31,.T.);
#393 = ORIENTED_EDGE('',*,*,#79,.T.);
#394 = ORIENTED_EDGE('',*,*,#395,.F.);
#395 = EDGE_CURVE('',#348,#80,#396,.T.);
#396 = LINE('',#397,#398);
#397 = CARTESIAN_POINT('',(28.,0.,0.));
#398 = VECTOR('',#399,1.);
#399 = DIRECTION('',(0.,0.,1.));
#400 = PLANE('',#401);
#401 = AXIS2_PLACEMENT_3D('',#402,#403,#404);
#402 = CARTESIAN_POINT('',(0.,0.,0.));
#403 = DIRECTION('',(0.,1.,0.));
#404 = DIRECTION('',(0.,0.,1.));
#405 = ADVANCED_FACE('',(#406),#419,.F.);
#406 = FACE_BOUND('',#407,.F.);
#407 = EDGE_LOOP('',(#408,#414,#415,#416,#417,#418));
#408 = ORIENTED_EDGE('',*,*,#409,.T.);
#409 = EDGE_CURVE('',#365,#130,#410,.T.);
#410 = LINE('',#411,#412);
#411 = CARTESIAN_POINT('',(5.625,3.,0.));
#412 = VECTOR('',#413,1.);
#413 = DIRECTION('',(0.,0.,1.));
#414 = ORIENTED_EDGE('',*,*,#138,.F.);
#415 = ORIENTED_EDGE('',*,*,#227,.F.);
#416 = ORIENTED_EDGE('',*,*,#129,.F.);
#417 = ORIENTED_EDGE('',*,*,#409,.F.);
#418 = ORIENTED_EDGE('',*,*,#364,.T.);
#419 = CYLINDRICAL_SURFACE('',#420,1.625);
#420 = AXIS2_PLACEMENT_3D('',#421,#422,#423);
#421 = CARTESIAN_POINT('',(4.,3.,0.));
#422 = DIRECTION('',(0.,0.,1.));
#423 = DIRECTION('',(1.,0.,0.));
#424 = ADVANCED_FACE('',(#425),#438,.F.);
#425 = FACE_BOUND('',#426,.F.);
#426 = EDGE_LOOP('',(#427,#433,#434,#435,#436,#437));
#427 = ORIENTED_EDGE('',*,*,#428,.T.);
#428 = EDGE_CURVE('',#376,#104,#429,.T.);
#429 = LINE('',#430,#431);
#430 = CARTESIAN_POINT('',(25.625,3.,0.));
#431 = VECTOR('',#432,1.);
#432 = DIRECTION('',(0.,0.,1.));
#433 = ORIENTED_EDGE('',*,*,#112,.F.);
#434 = ORIENTED_EDGE('',*,*,#171,.F.);
#435 = ORIENTED_EDGE('',*,*,#103,.F.);
#436 = ORIENTED_EDGE('',*,*,#428,.F.);
#437 = ORIENTED_EDGE('',*,*,#375,.T.);
#438 = CYLINDRICAL_SURFACE('',#439,1.625);
#439 = AXIS2_PLACEMENT_3D('',#440,#441,#442);
#440 = CARTESIAN_POINT('',(24.,3.,0.));
#441 = DIRECTION('',(0.,0.,1.));
#442 = DIRECTION('',(1.,0.,0.));
#443 = ADVANCED_FACE('',(#444),#452,.T.);
#444 = FACE_BOUND('',#445,.T.);
#445 = EDGE_LOOP('',(#446,#447,#448,#449,#450,#451));
#446 = ORIENTED_EDGE('',*,*,#87,.F.);
#447 = ORIENTED_EDGE('',*,*,#395,.F.);
#448 = ORIENTED_EDGE('',*,*,#355,.T.);
#449 = ORIENTED_EDGE('',*,*,#332,.T.);
#450 = ORIENTED_EDGE('',*,*,#300,.F.);
#451 = ORIENTED_EDGE('',*,*,#161,.F.);
#452 = PLANE('',#453);
#453 = AXIS2_PLACEMENT_3D('',#454,#455,#456);
#454 = CARTESIAN_POINT('',(28.,0.,0.));
#455 = DIRECTION('',(1.,0.,0.));
#456 = DIRECTION('',(0.,0.,1.));
#457 = ( GEOMETRIC_REPRESENTATION_CONTEXT(3) 
GLOBAL_UNCERTAINTY_ASSIGNED_CONTEXT((#461)) GLOBAL_UNIT_ASSIGNED_CONTEXT
((#458,#459,#460)) REPRESENTATION_CONTEXT('Context #1',
  '3D Context with UNIT and UNCERTAINTY') );
#458 = ( LENGTH_UNIT() NAMED_UNIT(*) SI_UNIT(.MILLI.,.METRE.) );
#459 = ( NAMED_UNIT(*) PLANE_ANGLE_UNIT() SI_UNIT($,.RADIAN.) );
#460 = ( NAMED_UNIT(*) SI_UNIT($,.STERADIAN.) SOLID_ANGLE_UNIT() );
#461 = UNCERTAINTY_MEASURE_WITH_UNIT(LENGTH_MEASURE(1.E-07),#458,
  'distance_accuracy_value','confusion accuracy');
#462 = PRODUCT_RELATED_PRODUCT_CATEGORY('part',$,(#7));
ENDSEC;
END-ISO-10303-21;
