ISO-10303-21;
HEADER;
FILE_DESCRIPTION(('FreeCAD Model'),'2;1');
FILE_NAME('Open CASCADE Shape Model','2026-08-01T09:36:53',('FreeCAD'),(
    'FreeCAD'),'Open CASCADE STEP processor 7.8','FreeCAD','Unknown');
FILE_SCHEMA(('AUTOMOTIVE_DESIGN { 1 0 10303 214 1 1 1 1 }'));
ENDSEC;
DATA;
#1 = APPLICATION_PROTOCOL_DEFINITION('international standard',
  'automotive_design',2000,#2);
#2 = APPLICATION_CONTEXT(
  'core data for automotive mechanical design processes');
#3 = SHAPE_DEFINITION_REPRESENTATION(#4,#10);
#4 = PRODUCT_DEFINITION_SHAPE('','',#5);
#5 = PRODUCT_DEFINITION('design','',#6,#9);
#6 = PRODUCT_DEFINITION_FORMATION('','',#7);
#7 = PRODUCT('Open CASCADE STEP translator 7.8 47',
  'Open CASCADE STEP translator 7.8 47','',(#8));
#8 = PRODUCT_CONTEXT('',#2,'mechanical');
#9 = PRODUCT_DEFINITION_CONTEXT('part definition',#2,'design');
#10 = ADVANCED_BREP_SHAPE_REPRESENTATION('',(#11,#15),#757);
#11 = AXIS2_PLACEMENT_3D('',#12,#13,#14);
#12 = CARTESIAN_POINT('',(0.,0.,0.));
#13 = DIRECTION('',(0.,0.,1.));
#14 = DIRECTION('',(1.,0.,-0.));
#15 = MANIFOLD_SOLID_BREP('',#16);
#16 = CLOSED_SHELL('',(#17,#393,#425,#460,#495,#513,#549,#597,#613,#630,
    #641,#683,#702,#714,#731,#745));
#17 = ADVANCED_FACE('',(#18,#54,#144),#388,.T.);
#18 = FACE_BOUND('',#19,.T.);
#19 = EDGE_LOOP('',(#20,#31,#39,#48));
#20 = ORIENTED_EDGE('',*,*,#21,.F.);
#21 = EDGE_CURVE('',#22,#24,#26,.T.);
#22 = VERTEX_POINT('',#23);
#23 = CARTESIAN_POINT('',(7.977468270072,0.6,8.));
#24 = VERTEX_POINT('',#25);
#25 = CARTESIAN_POINT('',(7.977468270072,-0.6,8.));
#26 = CIRCLE('',#27,8.);
#27 = AXIS2_PLACEMENT_3D('',#28,#29,#30);
#28 = CARTESIAN_POINT('',(0.,0.,8.));
#29 = DIRECTION('',(0.,0.,1.));
#30 = DIRECTION('',(1.,0.,0.));
#31 = ORIENTED_EDGE('',*,*,#32,.F.);
#32 = EDGE_CURVE('',#33,#22,#35,.T.);
#33 = VERTEX_POINT('',#34);
#34 = CARTESIAN_POINT('',(7.977468270072,0.6,0.));
#35 = LINE('',#36,#37);
#36 = CARTESIAN_POINT('',(7.977468270072,0.6,0.));
#37 = VECTOR('',#38,1.);
#38 = DIRECTION('',(0.,0.,1.));
#39 = ORIENTED_EDGE('',*,*,#40,.T.);
#40 = EDGE_CURVE('',#33,#41,#43,.T.);
#41 = VERTEX_POINT('',#42);
#42 = CARTESIAN_POINT('',(7.977468270072,-0.6,0.));
#43 = CIRCLE('',#44,8.);
#44 = AXIS2_PLACEMENT_3D('',#45,#46,#47);
#45 = CARTESIAN_POINT('',(0.,0.,0.));
#46 = DIRECTION('',(0.,0.,1.));
#47 = DIRECTION('',(1.,0.,0.));
#48 = ORIENTED_EDGE('',*,*,#49,.T.);
#49 = EDGE_CURVE('',#41,#24,#50,.T.);
#50 = LINE('',#51,#52);
#51 = CARTESIAN_POINT('',(7.977468270072,-0.6,0.));
#52 = VECTOR('',#53,1.);
#53 = DIRECTION('',(0.,0.,1.));
#54 = FACE_BOUND('',#55,.T.);
#55 = EDGE_LOOP('',(#56,#77,#85,#94,#102,#111,#119,#138));
#56 = ORIENTED_EDGE('',*,*,#57,.F.);
#57 = EDGE_CURVE('',#58,#60,#62,.T.);
#58 = VERTEX_POINT('',#59);
#59 = CARTESIAN_POINT('',(6.163602842494,5.1,6.410317669402));
#60 = VERTEX_POINT('',#61);
#61 = CARTESIAN_POINT('',(7.924014134263,1.1,4.611682496801));
#62 = B_SPLINE_CURVE_WITH_KNOTS('',7,(#63,#64,#65,#66,#67,#68,#69,#70,
    #71,#72,#73,#74,#75,#76),.UNSPECIFIED.,.F.,.F.,(8,6,8),(0.,
    0.360642498266,1.),.UNSPECIFIED.);
#63 = CARTESIAN_POINT('',(6.146998768179,5.1200006,6.414827653058));
#64 = CARTESIAN_POINT('',(6.313305817616,4.92033475855,6.370269418855));
#65 = CARTESIAN_POINT('',(6.468975781925,4.718052857318,6.31423981032));
#66 = CARTESIAN_POINT('',(6.614118211521,4.51404801579,6.248896002432));
#67 = CARTESIAN_POINT('',(6.74910279623,4.308965538481,6.17591788369));
#68 = CARTESIAN_POINT('',(6.874435386216,4.103182481224,6.096587174477)
  );
#69 = CARTESIAN_POINT('',(6.990666355079,3.896803615494,6.011844718176)
  );
#70 = CARTESIAN_POINT('',(7.289202857526,3.322468018038,5.763624462491)
  );
#71 = CARTESIAN_POINT('',(7.453265445199,2.952682497312,5.589817467205)
  );
#72 = CARTESIAN_POINT('',(7.592048110651,2.582122087178,5.405573983407)
  );
#73 = CARTESIAN_POINT('',(7.707252251262,2.211724936342,5.213962793473)
  );
#74 = CARTESIAN_POINT('',(7.800361727091,1.841638144972,5.017014981791)
  );
#75 = CARTESIAN_POINT('',(7.872458082229,1.471391920137,4.815992201952)
  );
#76 = CARTESIAN_POINT('',(7.924014217554,1.0999994,4.61168216673));
#77 = ORIENTED_EDGE('',*,*,#78,.T.);
#78 = EDGE_CURVE('',#58,#79,#81,.T.);
#79 = VERTEX_POINT('',#80);
#80 = CARTESIAN_POINT('',(6.163602842494,5.1,6.9));
#81 = LINE('',#82,#83);
#82 = CARTESIAN_POINT('',(6.163602842494,5.1,0.));
#83 = VECTOR('',#84,1.);
#84 = DIRECTION('',(0.,0.,1.));
#85 = ORIENTED_EDGE('',*,*,#86,.T.);
#86 = EDGE_CURVE('',#79,#87,#89,.T.);
#87 = VERTEX_POINT('',#88);
#88 = CARTESIAN_POINT('',(2.4,7.631513611336,6.9));
#89 = CIRCLE('',#90,8.);
#90 = AXIS2_PLACEMENT_3D('',#91,#92,#93);
#91 = CARTESIAN_POINT('',(0.,0.,6.9));
#92 = DIRECTION('',(0.,0.,1.));
#93 = DIRECTION('',(1.,0.,0.));
#94 = ORIENTED_EDGE('',*,*,#95,.F.);
#95 = EDGE_CURVE('',#96,#87,#98,.T.);
#96 = VERTEX_POINT('',#97);
#97 = CARTESIAN_POINT('',(2.4,7.631513611336,1.1));
#98 = LINE('',#99,#100);
#99 = CARTESIAN_POINT('',(2.4,7.631513611336,0.));
#100 = VECTOR('',#101,1.);
#101 = DIRECTION('',(0.,0.,1.));
#102 = ORIENTED_EDGE('',*,*,#103,.F.);
#103 = EDGE_CURVE('',#104,#96,#106,.T.);
#104 = VERTEX_POINT('',#105);
#105 = CARTESIAN_POINT('',(6.163602842494,5.1,1.1));
#106 = CIRCLE('',#107,8.);
#107 = AXIS2_PLACEMENT_3D('',#108,#109,#110);
#108 = CARTESIAN_POINT('',(0.,0.,1.1));
#109 = DIRECTION('',(0.,0.,1.));
#110 = DIRECTION('',(1.,0.,0.));
#111 = ORIENTED_EDGE('',*,*,#112,.T.);
#112 = EDGE_CURVE('',#104,#113,#115,.T.);
#113 = VERTEX_POINT('',#114);
#114 = CARTESIAN_POINT('',(6.163602842494,5.1,1.589682330598));
#115 = LINE('',#116,#117);
#116 = CARTESIAN_POINT('',(6.163602842494,5.1,0.));
#117 = VECTOR('',#118,1.);
#118 = DIRECTION('',(0.,0.,1.));
#119 = ORIENTED_EDGE('',*,*,#120,.F.);
#120 = EDGE_CURVE('',#121,#113,#123,.T.);
#121 = VERTEX_POINT('',#122);
#122 = CARTESIAN_POINT('',(7.924014134263,1.1,3.388317503199));
#123 = B_SPLINE_CURVE_WITH_KNOTS('',7,(#124,#125,#126,#127,#128,#129,
    #130,#131,#132,#133,#134,#135,#136,#137),.UNSPECIFIED.,.F.,.F.,(8,6,
    8),(0.,0.641286676963,1.),.UNSPECIFIED.);
#124 = CARTESIAN_POINT('',(7.924014217554,1.0999994,3.38831783327));
#125 = CARTESIAN_POINT('',(7.872301679608,1.472518590385,3.183387995479)
  );
#126 = CARTESIAN_POINT('',(7.79992535843,1.843875527014,2.981770332103)
  );
#127 = CARTESIAN_POINT('',(7.706408915661,2.215072764329,2.78425585593)
  );
#128 = CARTESIAN_POINT('',(7.590658122913,2.586587356028,2.592116395395)
  );
#129 = CARTESIAN_POINT('',(7.451171456214,2.958269646661,2.407405054855)
  );
#130 = CARTESIAN_POINT('',(7.286228266523,3.32916615607,2.233228309599)
  );
#131 = CARTESIAN_POINT('',(6.986922082446,3.903445107136,1.985430282655)
  );
#132 = CARTESIAN_POINT('',(6.871070428794,4.108702779686,1.901286425395)
  );
#133 = CARTESIAN_POINT('',(6.746204382218,4.313366050733,1.822517524884)
  );
#134 = CARTESIAN_POINT('',(6.611782390102,4.517329403961,1.750053840682)
  );
#135 = CARTESIAN_POINT('',(6.46730723877,4.720220388236,1.685160227759)
  );
#136 = CARTESIAN_POINT('',(6.312415554362,4.921403595753,1.629492055125)
  );
#137 = CARTESIAN_POINT('',(6.146998768179,5.1200006,1.585172346942));
#138 = ORIENTED_EDGE('',*,*,#139,.T.);
#139 = EDGE_CURVE('',#121,#60,#140,.T.);
#140 = LINE('',#141,#142);
#141 = CARTESIAN_POINT('',(7.924014134263,1.1,0.));
#142 = VECTOR('',#143,1.);
#143 = DIRECTION('',(0.,0.,1.));
#144 = FACE_BOUND('',#145,.T.);
#145 = EDGE_LOOP('',(#146,#156,#289,#297,#379));
#146 = ORIENTED_EDGE('',*,*,#147,.F.);
#147 = EDGE_CURVE('',#148,#150,#152,.T.);
#148 = VERTEX_POINT('',#149);
#149 = CARTESIAN_POINT('',(6.163602842317,-5.1,5.510672450404));
#150 = VERTEX_POINT('',#151);
#151 = CARTESIAN_POINT('',(6.163602842494,-5.1,7.130436274297));
#152 = LINE('',#153,#154);
#153 = CARTESIAN_POINT('',(6.163602842494,-5.1,0.));
#154 = VECTOR('',#155,1.);
#155 = DIRECTION('',(0.,0.,1.));
#156 = ORIENTED_EDGE('',*,*,#157,.T.);
#157 = EDGE_CURVE('',#148,#158,#160,.T.);
#158 = VERTEX_POINT('',#159);
#159 = CARTESIAN_POINT('',(6.16360284173,-5.1,2.489327545509));
#160 = B_SPLINE_CURVE_WITH_KNOTS('',7,(#161,#162,#163,#164,#165,#166,
    #167,#168,#169,#170,#171,#172,#173,#174,#175,#176,#177,#178,#179,
    #180,#181,#182,#183,#184,#185,#186,#187,#188,#189,#190,#191,#192,
    #193,#194,#195,#196,#197,#198,#199,#200,#201,#202,#203,#204,#205,
    #206,#207,#208,#209,#210,#211,#212,#213,#214,#215,#216,#217,#218,
    #219,#220,#221,#222,#223,#224,#225,#226,#227,#228,#229,#230,#231,
    #232,#233,#234,#235,#236,#237,#238,#239,#240,#241,#242,#243,#244,
    #245,#246,#247,#248,#249,#250,#251,#252,#253,#254,#255,#256,#257,
    #258,#259,#260,#261,#262,#263,#264,#265,#266,#267,#268,#269,#270,
    #271,#272,#273,#274,#275,#276,#277,#278,#279,#280,#281,#282,#283,
    #284,#285,#286,#287,#288),.UNSPECIFIED.,.T.,.F.,(8,6,6,6,6,6,6,6,6,6
    ,6,6,6,6,6,6,6,6,6,6,6,8),(0.,0.111759424398,0.180382825751,
    0.200936638222,0.22622214653,0.244669829316,0.273220271559,
    0.300919420774,0.345268923057,0.434483500726,0.516065576915,
    0.58523804542,0.64439134757,0.682157226496,0.725280444585,
    0.773147357826,0.820616392908,0.842786398863,0.863394722008,
    0.901467208626,0.943527673186,1.),.UNSPECIFIED.);
#161 = CARTESIAN_POINT('',(5.5,-5.809475019311,5.65));
#162 = CARTESIAN_POINT('',(5.659750521553,-5.658234525872,5.65));
#163 = CARTESIAN_POINT('',(5.813133137281,-5.503304189285,5.631955693084
    ));
#164 = CARTESIAN_POINT('',(5.959007953176,-5.346095129651,5.598454224424
    ));
#165 = CARTESIAN_POINT('',(6.096862074506,-5.187842959691,5.551468428873
    ));
#166 = CARTESIAN_POINT('',(6.226485168405,-5.029646889579,5.492438638318
    ));
#167 = CARTESIAN_POINT('',(6.34774828331,-4.872637224711,5.422331496421)
  );
#168 = CARTESIAN_POINT('',(6.529621326202,-4.623614129147,5.292137928878
    ));
#169 = CARTESIAN_POINT('',(6.595498248065,-4.530011404781,5.238684036593
    ));
#170 = CARTESIAN_POINT('',(6.658228113266,-4.437615497457,5.181295686356
    ));
#171 = CARTESIAN_POINT('',(6.717859830386,-4.346633208008,5.119861800815
    ));
#172 = CARTESIAN_POINT('',(6.774309233966,-4.257490640941,5.054217351878
    ));
#173 = CARTESIAN_POINT('',(6.827350532472,-4.170920630298,4.984188007738
    ));
#174 = CARTESIAN_POINT('',(6.891370289526,-4.063231388197,4.887302143058
    ));
#175 = CARTESIAN_POINT('',(6.90579783027,-4.038724620093,4.864548967004)
  );
#176 = CARTESIAN_POINT('',(6.919890280441,-4.01455637958,4.841362999976)
  );
#177 = CARTESIAN_POINT('',(6.933638764446,-3.990755572624,4.817733503571
    ));
#178 = CARTESIAN_POINT('',(6.94703271061,-3.967355231741,4.793649139682)
  );
#179 = CARTESIAN_POINT('',(6.960059851177,-3.944392515994,4.769097970493
    ));
#180 = CARTESIAN_POINT('',(6.988263916177,-3.894248906335,4.713274669061
    ));
#181 = CARTESIAN_POINT('',(7.003246590428,-3.867311885858,4.681753785993
    ));
#182 = CARTESIAN_POINT('',(7.017626460421,-3.841177837947,4.649483619174
    ));
#183 = CARTESIAN_POINT('',(7.031370402354,-3.81594023087,4.616444461611)
  );
#184 = CARTESIAN_POINT('',(7.044439975869,-3.791705833597,4.582618177366
    ));
#185 = CARTESIAN_POINT('',(7.056791446667,-3.768594736626,4.547988289512
    ));
#186 = CARTESIAN_POINT('',(7.076827474043,-3.73079596833,4.486677920616)
  );
#187 = CARTESIAN_POINT('',(7.084873079816,-3.715515916816,4.460372836686
    ));
#188 = CARTESIAN_POINT('',(7.092488324526,-3.700962472729,4.433634422398
    ));
#189 = CARTESIAN_POINT('',(7.099649244535,-3.687197640204,4.406471806958
    ));
#190 = CARTESIAN_POINT('',(7.106332214474,-3.67428317303,4.378893642661)
  );
#191 = CARTESIAN_POINT('',(7.112513947245,-3.662280574647,4.350908104893
    ));
#192 = CARTESIAN_POINT('',(7.126927361314,-3.634181397023,4.278592693037
    ));
#193 = CARTESIAN_POINT('',(7.134445346722,-3.619406879538,4.233613861199
    ));
#194 = CARTESIAN_POINT('',(7.140592443603,-3.607246209961,4.187799203235
    ));
#195 = CARTESIAN_POINT('',(7.145272081584,-3.597944050807,4.14134652148)
  );
#196 = CARTESIAN_POINT('',(7.148419979776,-3.591670974195,4.094442742911
    ));
#197 = CARTESIAN_POINT('',(7.15,-3.5885233732,4.047268048071));
#198 = CARTESIAN_POINT('',(7.15,-3.5885233732,3.954141350755));
#199 = CARTESIAN_POINT('',(7.148512985797,-3.591485742107,3.908367016707
    ));
#200 = CARTESIAN_POINT('',(7.145548932659,-3.597392366189,3.862837301077
    ));
#201 = CARTESIAN_POINT('',(7.141140220732,-3.606157208884,3.817720562068
    ));
#202 = CARTESIAN_POINT('',(7.135344802863,-3.617627071413,3.773193029566
    ));
#203 = CARTESIAN_POINT('',(7.128249372434,-3.631582353379,3.729438621838
    ));
#204 = CARTESIAN_POINT('',(7.106720362784,-3.673604550472,3.618137308633
    ));
#205 = CARTESIAN_POINT('',(7.090441396494,-3.705109180048,3.552107510607
    ));
#206 = CARTESIAN_POINT('',(7.071467914584,-3.741388522323,3.488536966007
    ));
#207 = CARTESIAN_POINT('',(7.050086562409,-3.781650784813,3.427407514997
    ));
#208 = CARTESIAN_POINT('',(7.026555651813,-3.825185632374,3.368699410856
    ));
#209 = CARTESIAN_POINT('',(7.001111183441,-3.871370904183,3.312385079417
    ));
#210 = CARTESIAN_POINT('',(6.919346776718,-4.016847682111,3.149869914878
    ));
#211 = CARTESIAN_POINT('',(6.85723953218,-4.12365222001,3.049656385461)
  );
#212 = CARTESIAN_POINT('',(6.788901655382,-4.236399972284,2.957479739829
    ));
#213 = CARTESIAN_POINT('',(6.715148659996,-4.352734631468,2.872880968353
    ));
#214 = CARTESIAN_POINT('',(6.636338214601,-4.471535828297,2.79529748573)
  );
#215 = CARTESIAN_POINT('',(6.552241580796,-4.592543290518,2.724237803289
    ));
#216 = CARTESIAN_POINT('',(6.379889433905,-4.828717672229,2.60051274429)
  );
#217 = CARTESIAN_POINT('',(6.293038219142,-4.942905162851,2.547104186752
    ));
#218 = CARTESIAN_POINT('',(6.201735898025,-5.057896206045,2.499554749117
    ));
#219 = CARTESIAN_POINT('',(6.106022218664,-5.173243234895,2.45816630487)
  );
#220 = CARTESIAN_POINT('',(6.005927466912,-5.288548645272,2.423382285925
    ));
#221 = CARTESIAN_POINT('',(5.901522952311,-5.403405335341,2.39580522764)
  );
#222 = CARTESIAN_POINT('',(5.700977568001,-5.613969788934,2.359618603205
    ));
#223 = CARTESIAN_POINT('',(5.605860020172,-5.710075016918,2.348737386335
    ));
#224 = CARTESIAN_POINT('',(5.508000538449,-5.805115316368,2.344134782789
    ));
#225 = CARTESIAN_POINT('',(5.407821438518,-5.898566175433,2.34636243523)
  );
#226 = CARTESIAN_POINT('',(5.305821634383,-5.989932630075,2.355969421522
    ));
#227 = CARTESIAN_POINT('',(5.202591304451,-6.078747874896,2.373503480925
    ));
#228 = CARTESIAN_POINT('',(5.010097651425,-6.23796291542,2.421752943361)
  );
#229 = CARTESIAN_POINT('',(4.920998009101,-6.309149431863,2.450186058843
    ));
#230 = CARTESIAN_POINT('',(4.832333569311,-6.377554465369,2.485056914791
    ));
#231 = CARTESIAN_POINT('',(4.744921791768,-6.44271406546,2.526471397276)
  );
#232 = CARTESIAN_POINT('',(4.659580593829,-6.504268263009,2.574393754168
    ));
#233 = CARTESIAN_POINT('',(4.577107310047,-6.561949550695,2.628643932099
    ));
#234 = CARTESIAN_POINT('',(4.447905959029,-6.649799924933,2.727360068795
    ));
#235 = CARTESIAN_POINT('',(4.39908078031,-6.682344926367,2.768236971136)
  );
#236 = CARTESIAN_POINT('',(4.351966598065,-6.713158152877,2.811430419463
    ));
#237 = CARTESIAN_POINT('',(4.306744211505,-6.742208799787,2.856822727338
    ));
#238 = CARTESIAN_POINT('',(4.263581020108,-6.769478324606,2.904272923432
    ));
#239 = CARTESIAN_POINT('',(4.222627933742,-6.794958832356,2.953616883869
    ));
#240 = CARTESIAN_POINT('',(4.139927314357,-6.845705045165,3.062959907069
    ));
#241 = CARTESIAN_POINT('',(4.098896347866,-6.870424322434,3.123470715472
    ));
#242 = CARTESIAN_POINT('',(4.061062893391,-6.89284585532,3.185991666265)
  );
#243 = CARTESIAN_POINT('',(4.026548301097,-6.913008498725,3.250301351898
    ));
#244 = CARTESIAN_POINT('',(3.995453645845,-6.93095214427,3.316165615743)
  );
#245 = CARTESIAN_POINT('',(3.967857611776,-6.94671646472,3.383337987051)
  );
#246 = CARTESIAN_POINT('',(3.917126307498,-6.97546144801,3.527286902232)
  );
#247 = CARTESIAN_POINT('',(3.894806392297,-6.987950455863,3.604333067573
    ));
#248 = CARTESIAN_POINT('',(3.876903985487,-6.997873152757,3.682431005518
    ));
#249 = CARTESIAN_POINT('',(3.863455456995,-7.005279993639,3.761313494814
    ));
#250 = CARTESIAN_POINT('',(3.854484093591,-7.010205294676,3.840713611952
    ));
#251 = CARTESIAN_POINT('',(3.85,-7.012667110308,3.92036464376));
#252 = CARTESIAN_POINT('',(3.85,-7.012667110308,4.078973413226));
#253 = CARTESIAN_POINT('',(3.854409857904,-7.010246051785,4.157961885297
    ));
#254 = CARTESIAN_POINT('',(3.863232601094,-7.005402341862,4.236705610602
    ));
#255 = CARTESIAN_POINT('',(3.876458472676,-6.998118513211,4.314944654448
    ));
#256 = CARTESIAN_POINT('',(3.894065022364,-6.988361339477,4.392418864783
    ));
#257 = CARTESIAN_POINT('',(3.916017197369,-6.976081950695,4.46886778393)
  );
#258 = CARTESIAN_POINT('',(3.95452738095,-6.954272909904,4.579134690776)
  );
#259 = CARTESIAN_POINT('',(3.967723910671,-6.946766223416,4.613955510019
    ));
#260 = CARTESIAN_POINT('',(3.981850062886,-6.938690480544,4.648461382289
    ));
#261 = CARTESIAN_POINT('',(3.99689762554,-6.93004002099,4.682621162979)
  );
#262 = CARTESIAN_POINT('',(4.01285713407,-6.920808932859,4.716404198631)
  );
#263 = CARTESIAN_POINT('',(4.02971787141,-6.910991052661,4.749780326942)
  );
#264 = CARTESIAN_POINT('',(4.063967532716,-6.890902247905,4.81333912369)
  );
#265 = CARTESIAN_POINT('',(4.081234445629,-6.880712704625,4.843579241259
    ));
#266 = CARTESIAN_POINT('',(4.099257993223,-6.870006705369,4.873414284581
    ));
#267 = CARTESIAN_POINT('',(4.118025626221,-6.858780273506,4.902818230338
    ));
#268 = CARTESIAN_POINT('',(4.137522859579,-6.847030085866,4.931764976772
    ));
#269 = CARTESIAN_POINT('',(4.157733272479,-6.834753472748,4.960228343692
    ));
#270 = CARTESIAN_POINT('',(4.217259521161,-6.798291943026,5.039824700418
    ));
#271 = CARTESIAN_POINT('',(4.258268639986,-6.772821879918,5.089750872631
    ));
#272 = CARTESIAN_POINT('',(4.301533667717,-6.745536064736,5.137768922189
    ));
#273 = CARTESIAN_POINT('',(4.346902266427,-6.716441401636,5.183710554394
    ));
#274 = CARTESIAN_POINT('',(4.394205134527,-6.685555515708,5.227430991902
    ));
#275 = CARTESIAN_POINT('',(4.443259183936,-6.652908405903,5.268809119852
    ));
#276 = CARTESIAN_POINT('',(4.549783655765,-6.580580232586,5.350764833551
    ));
#277 = CARTESIAN_POINT('',(4.607565364759,-6.540542453102,5.390779903933
    ));
#278 = CARTESIAN_POINT('',(4.666939504884,-6.49850184213,5.42765962498)
  );
#279 = CARTESIAN_POINT('',(4.727614736249,-6.454552034769,5.461311849384
    ));
#280 = CARTESIAN_POINT('',(4.789289627774,-6.4088115686,5.491685150139)
  );
#281 = CARTESIAN_POINT('',(4.85165756656,-6.361426233681,5.518768470968)
  );
#282 = CARTESIAN_POINT('',(4.998668227883,-6.246976691513,5.574575707313
    ));
#283 = CARTESIAN_POINT('',(5.083526196428,-6.178806732905,5.600646169257
    ));
#284 = CARTESIAN_POINT('',(5.16847136051,-6.108314900854,5.62098371272)
  );
#285 = CARTESIAN_POINT('',(5.253022040338,-6.035790660343,5.635809061378
    ));
#286 = CARTESIAN_POINT('',(5.336730118933,-5.961560311909,5.645381789665
    ));
#287 = CARTESIAN_POINT('',(5.419182072367,-5.885987716328,5.65));
#288 = CARTESIAN_POINT('',(5.5,-5.809475019311,5.65));
#289 = ORIENTED_EDGE('',*,*,#290,.F.);
#290 = EDGE_CURVE('',#291,#158,#293,.T.);
#291 = VERTEX_POINT('',#292);
#292 = CARTESIAN_POINT('',(6.163602842494,-5.1,0.869563725703));
#293 = LINE('',#294,#295);
#294 = CARTESIAN_POINT('',(6.163602842494,-5.1,0.));
#295 = VECTOR('',#296,1.);
#296 = DIRECTION('',(0.,0.,1.));
#297 = ORIENTED_EDGE('',*,*,#298,.T.);
#298 = EDGE_CURVE('',#291,#299,#301,.T.);
#299 = VERTEX_POINT('',#300);
#300 = CARTESIAN_POINT('',(5.5,-5.809475019311,7.2));
#301 = B_SPLINE_CURVE_WITH_KNOTS('',6,(#302,#303,#304,#305,#306,#307,
    #308,#309,#310,#311,#312,#313,#314,#315,#316,#317,#318,#319,#320,
    #321,#322,#323,#324,#325,#326,#327,#328,#329,#330,#331,#332,#333,
    #334,#335,#336,#337,#338,#339,#340,#341,#342,#343,#344,#345,#346,
    #347,#348,#349,#350,#351,#352,#353,#354,#355,#356,#357,#358,#359,
    #360,#361,#362,#363,#364,#365,#366,#367,#368,#369,#370,#371,#372,
    #373,#374,#375,#376,#377,#378),.UNSPECIFIED.,.F.,.F.,(7,5,5,5,5,5,5,
    5,5,5,5,5,5,5,5,7),(0.,0.10996117904,0.155664147713,0.237159430921,
    0.313701716798,0.357842506988,0.409395699339,0.447086677757,
    0.539872083175,0.669302856569,0.722108416117,0.765743258088,
    0.842120783123,0.908634126591,0.939564349649,1.),.UNSPECIFIED.);
#302 = CARTESIAN_POINT('',(6.163603338957,-5.0999994,0.869563830945));
#303 = CARTESIAN_POINT('',(6.024215793344,-5.268456192671,0.840015858815
    ));
#304 = CARTESIAN_POINT('',(5.87721680832,-5.434863251947,0.816636837813)
  );
#305 = CARTESIAN_POINT('',(5.72262123822,-5.59857068456,0.800692747575)
  );
#306 = CARTESIAN_POINT('',(5.560573123867,-5.75885823213,0.793606977954)
  );
#307 = CARTESIAN_POINT('',(5.391395176469,-5.914943041509,0.796982477805
    ));
#308 = CARTESIAN_POINT('',(5.142668699003,-6.128803632845,0.819168414507
    ));
#309 = CARTESIAN_POINT('',(5.06854899398,-6.190698472907,0.827803429152)
  );
#310 = CARTESIAN_POINT('',(4.993444736216,-6.251587528928,0.838682334349
    ));
#311 = CARTESIAN_POINT('',(4.917471996956,-6.311370550981,0.851922329476
    ));
#312 = CARTESIAN_POINT('',(4.840753820092,-6.369958228175,0.867635149942
    ));
#313 = CARTESIAN_POINT('',(4.625522758445,-6.529471620699,0.918544313276
    ));
#314 = CARTESIAN_POINT('',(4.485506703241,-6.627741173992,0.959400400525
    ));
#315 = CARTESIAN_POINT('',(4.344632278146,-6.721221693373,1.009007368827
    ));
#316 = CARTESIAN_POINT('',(4.204196500519,-6.809334718045,1.06763970738)
  );
#317 = CARTESIAN_POINT('',(4.06549318877,-6.891737330478,1.135309440319)
  );
#318 = CARTESIAN_POINT('',(3.802301345329,-7.040164867282,1.283527729486
    ));
#319 = CARTESIAN_POINT('',(3.677724546683,-7.10673219329,1.362895127567)
  );
#320 = CARTESIAN_POINT('',(3.557032502492,-7.167905067844,1.449568372993
    ));
#321 = CARTESIAN_POINT('',(3.441170754855,-7.223749126417,1.543056422058
    ));
#322 = CARTESIAN_POINT('',(3.330988070445,-7.2744338616,1.64264303675));
#323 = CARTESIAN_POINT('',(3.167321831605,-7.346587805166,1.807776455288
    ));
#324 = CARTESIAN_POINT('',(3.109544038215,-7.371358122158,1.869924519541
    ));
#325 = CARTESIAN_POINT('',(3.053928790071,-7.394576450389,1.933704716831
    ));
#326 = CARTESIAN_POINT('',(3.000545614267,-7.416311106087,1.998991707814
    ));
#327 = CARTESIAN_POINT('',(2.949454385528,-7.436629286587,2.065651826439
    ));
#328 = CARTESIAN_POINT('',(2.843767710376,-7.477748169736,2.212834926038
    ));
#329 = CARTESIAN_POINT('',(2.790021351909,-7.498058211517,2.293810551781
    ));
#330 = CARTESIAN_POINT('',(2.739500895077,-7.516646636867,2.376303990796
    ));
#331 = CARTESIAN_POINT('',(2.692232499388,-7.533623234984,2.460150090369
    ));
#332 = CARTESIAN_POINT('',(2.648232776599,-7.549087278103,2.545184447611
    ));
#333 = CARTESIAN_POINT('',(2.577735137448,-7.573392463132,2.694161850114
    ));
#334 = CARTESIAN_POINT('',(2.549708033672,-7.582897916725,2.75763765405)
  );
#335 = CARTESIAN_POINT('',(2.523426397482,-7.591679736547,2.821616277094
    ));
#336 = CARTESIAN_POINT('',(2.498887634954,-7.599770442191,2.886046829621
    ));
#337 = CARTESIAN_POINT('',(2.476087640136,-7.607199218573,2.950882076557
    ));
#338 = CARTESIAN_POINT('',(2.403159690759,-7.63071377365,3.176574954676)
  );
#339 = CARTESIAN_POINT('',(2.361812744751,-7.643577876235,3.339229809999
    ));
#340 = CARTESIAN_POINT('',(2.330882888223,-7.652974278496,3.503431036964
    ));
#341 = CARTESIAN_POINT('',(2.310293596181,-7.659155577423,3.668631890653
    ));
#342 = CARTESIAN_POINT('',(2.3,-7.662245101796,3.834322246636));
#343 = CARTESIAN_POINT('',(2.3,-7.662245101796,4.23111177513));
#344 = CARTESIAN_POINT('',(2.320029669466,-7.65623274611,4.462305039687)
  );
#345 = CARTESIAN_POINT('',(2.360116015215,-7.64419982811,4.692183158665)
  );
#346 = CARTESIAN_POINT('',(2.420417028517,-7.62567128171,4.919301331766)
  );
#347 = CARTESIAN_POINT('',(2.501185600573,-7.599709510493,5.142033924324
    ));
#348 = CARTESIAN_POINT('',(2.644048349397,-7.550557915933,5.44673748415)
  );
#349 = CARTESIAN_POINT('',(2.688884725983,-7.53482802018,5.533966339876)
  );
#350 = CARTESIAN_POINT('',(2.737154081191,-7.517515754415,5.619956378986
    ));
#351 = CARTESIAN_POINT('',(2.788839051673,-7.49851464888,5.704531166643)
  );
#352 = CARTESIAN_POINT('',(2.843911803027,-7.477706609264,5.787513331757
    ));
#353 = CARTESIAN_POINT('',(2.950610094947,-7.43616728458,5.93583188383)
  );
#354 = CARTESIAN_POINT('',(3.001174834742,-7.416049627704,6.001732188013
    ));
#355 = CARTESIAN_POINT('',(3.05398053457,-7.394545833048,6.066288198808)
  );
#356 = CARTESIAN_POINT('',(3.108969240484,-7.371590898408,6.129370661222
    ));
#357 = CARTESIAN_POINT('',(3.166073764611,-7.347118750781,6.190858285417
    ));
#358 = CARTESIAN_POINT('',(3.328744745853,-7.275455730742,6.355274312926
    ));
#359 = CARTESIAN_POINT('',(3.438633759442,-7.224947719689,6.454789803454
    ));
#360 = CARTESIAN_POINT('',(3.554192128668,-7.169301736039,6.548238335269
    ));
#361 = CARTESIAN_POINT('',(3.674578159141,-7.108347670407,6.634906205002
    ));
#362 = CARTESIAN_POINT('',(3.798853869933,-7.042017919333,6.714302778175
    ));
#363 = CARTESIAN_POINT('',(4.036794012027,-6.907999201381,6.848720822546
    ));
#364 = CARTESIAN_POINT('',(4.149604898,-6.841677289903,6.905480791622));
#365 = CARTESIAN_POINT('',(4.263769230606,-6.771505063954,6.956255175365
    ));
#366 = CARTESIAN_POINT('',(4.378555575565,-6.697664761783,7.001003056667
    ));
#367 = CARTESIAN_POINT('',(4.493224710296,-6.620446947623,7.039811591035
    ));
#368 = CARTESIAN_POINT('',(4.659985817333,-6.50297811389,7.088270494496)
  );
#369 = CARTESIAN_POINT('',(4.712751515274,-6.465040093733,7.102417030995
    ));
#370 = CARTESIAN_POINT('',(4.765297833156,-6.426476721212,7.115354073623
    ));
#371 = CARTESIAN_POINT('',(4.817573610074,-6.38731755185,7.127109872224)
  );
#372 = CARTESIAN_POINT('',(4.869528828696,-6.347595607779,7.137715287793
    ));
#373 = CARTESIAN_POINT('',(5.021909897405,-6.22870494592,7.165743715376)
  );
#374 = CARTESIAN_POINT('',(5.121250879623,-6.148087598336,7.180011324206
    ));
#375 = CARTESIAN_POINT('',(5.218916348147,-6.065661759198,7.190288575934
    ));
#376 = CARTESIAN_POINT('',(5.31470918268,-5.981612622686,7.196857343692)
  );
#377 = CARTESIAN_POINT('',(5.408454867073,-5.896143475484,7.2));
#378 = CARTESIAN_POINT('',(5.5,-5.809475019311,7.2));
#379 = ORIENTED_EDGE('',*,*,#380,.T.);
#380 = EDGE_CURVE('',#299,#150,#381,.T.);
#381 = B_SPLINE_CURVE_WITH_KNOTS('',5,(#382,#383,#384,#385,#386,#387),
  .UNSPECIFIED.,.F.,.F.,(6,6),(0.,1.),.PIECEWISE_BEZIER_KNOTS.);
#382 = CARTESIAN_POINT('',(5.5,-5.809475019311,7.2));
#383 = CARTESIAN_POINT('',(5.644304938657,-5.672857311175,7.2));
#384 = CARTESIAN_POINT('',(5.782972121586,-5.53308033707,7.19186580296)
  );
#385 = CARTESIAN_POINT('',(5.915765275861,-5.390697585753,7.17686757015)
  );
#386 = CARTESIAN_POINT('',(6.042627596566,-5.246204611266,7.156081127855
    ));
#387 = CARTESIAN_POINT('',(6.163603338957,-5.0999994,7.130436169055));
#388 = CYLINDRICAL_SURFACE('',#389,8.);
#389 = AXIS2_PLACEMENT_3D('',#390,#391,#392);
#390 = CARTESIAN_POINT('',(0.,0.,0.));
#391 = DIRECTION('',(0.,0.,1.));
#392 = DIRECTION('',(1.,0.,0.));
#393 = ADVANCED_FACE('',(#394),#420,.T.);
#394 = FACE_BOUND('',#395,.T.);
#395 = EDGE_LOOP('',(#396,#404,#405,#413));
#396 = ORIENTED_EDGE('',*,*,#397,.F.);
#397 = EDGE_CURVE('',#22,#398,#400,.T.);
#398 = VERTEX_POINT('',#399);
#399 = CARTESIAN_POINT('',(2.323790007724,0.6,8.));
#400 = LINE('',#401,#402);
#401 = CARTESIAN_POINT('',(0.9,0.6,8.));
#402 = VECTOR('',#403,1.);
#403 = DIRECTION('',(-1.,0.,0.));
#404 = ORIENTED_EDGE('',*,*,#21,.T.);
#405 = ORIENTED_EDGE('',*,*,#406,.T.);
#406 = EDGE_CURVE('',#24,#407,#409,.T.);
#407 = VERTEX_POINT('',#408);
#408 = CARTESIAN_POINT('',(2.323790007724,-0.6,8.));
#409 = LINE('',#410,#411);
#410 = CARTESIAN_POINT('',(0.9,-0.6,8.));
#411 = VECTOR('',#412,1.);
#412 = DIRECTION('',(-1.,0.,0.));
#413 = ORIENTED_EDGE('',*,*,#414,.F.);
#414 = EDGE_CURVE('',#398,#407,#415,.T.);
#415 = CIRCLE('',#416,2.4);
#416 = AXIS2_PLACEMENT_3D('',#417,#418,#419);
#417 = CARTESIAN_POINT('',(0.,0.,8.));
#418 = DIRECTION('',(0.,0.,1.));
#419 = DIRECTION('',(1.,0.,0.));
#420 = PLANE('',#421);
#421 = AXIS2_PLACEMENT_3D('',#422,#423,#424);
#422 = CARTESIAN_POINT('',(0.,0.,8.));
#423 = DIRECTION('',(0.,0.,1.));
#424 = DIRECTION('',(1.,0.,0.));
#425 = ADVANCED_FACE('',(#426,#444),#455,.F.);
#426 = FACE_BOUND('',#427,.F.);
#427 = EDGE_LOOP('',(#428,#429,#437,#443));
#428 = ORIENTED_EDGE('',*,*,#32,.F.);
#429 = ORIENTED_EDGE('',*,*,#430,.T.);
#430 = EDGE_CURVE('',#33,#431,#433,.T.);
#431 = VERTEX_POINT('',#432);
#432 = CARTESIAN_POINT('',(2.323790007724,0.6,0.));
#433 = LINE('',#434,#435);
#434 = CARTESIAN_POINT('',(0.9,0.6,0.));
#435 = VECTOR('',#436,1.);
#436 = DIRECTION('',(-1.,0.,0.));
#437 = ORIENTED_EDGE('',*,*,#438,.T.);
#438 = EDGE_CURVE('',#431,#398,#439,.T.);
#439 = LINE('',#440,#441);
#440 = CARTESIAN_POINT('',(2.323790007724,0.6,-1.));
#441 = VECTOR('',#442,1.);
#442 = DIRECTION('',(0.,0.,1.));
#443 = ORIENTED_EDGE('',*,*,#397,.F.);
#444 = FACE_BOUND('',#445,.F.);
#445 = EDGE_LOOP('',(#446));
#446 = ORIENTED_EDGE('',*,*,#447,.F.);
#447 = EDGE_CURVE('',#448,#448,#450,.T.);
#448 = VERTEX_POINT('',#449);
#449 = CARTESIAN_POINT('',(5.5,0.6,5.65));
#450 = CIRCLE('',#451,1.65);
#451 = AXIS2_PLACEMENT_3D('',#452,#453,#454);
#452 = CARTESIAN_POINT('',(5.5,0.6,4.));
#453 = DIRECTION('',(0.,1.,0.));
#454 = DIRECTION('',(0.,0.,1.));
#455 = PLANE('',#456);
#456 = AXIS2_PLACEMENT_3D('',#457,#458,#459);
#457 = CARTESIAN_POINT('',(1.8,0.6,-1.));
#458 = DIRECTION('',(0.,1.,0.));
#459 = DIRECTION('',(0.,0.,1.));
#460 = ADVANCED_FACE('',(#461,#479),#490,.T.);
#461 = FACE_BOUND('',#462,.T.);
#462 = EDGE_LOOP('',(#463,#464,#472,#478));
#463 = ORIENTED_EDGE('',*,*,#49,.F.);
#464 = ORIENTED_EDGE('',*,*,#465,.T.);
#465 = EDGE_CURVE('',#41,#466,#468,.T.);
#466 = VERTEX_POINT('',#467);
#467 = CARTESIAN_POINT('',(2.323790007724,-0.6,0.));
#468 = LINE('',#469,#470);
#469 = CARTESIAN_POINT('',(0.9,-0.6,0.));
#470 = VECTOR('',#471,1.);
#471 = DIRECTION('',(-1.,0.,0.));
#472 = ORIENTED_EDGE('',*,*,#473,.T.);
#473 = EDGE_CURVE('',#466,#407,#474,.T.);
#474 = LINE('',#475,#476);
#475 = CARTESIAN_POINT('',(2.323790007724,-0.6,-1.));
#476 = VECTOR('',#477,1.);
#477 = DIRECTION('',(0.,0.,1.));
#478 = ORIENTED_EDGE('',*,*,#406,.F.);
#479 = FACE_BOUND('',#480,.T.);
#480 = EDGE_LOOP('',(#481));
#481 = ORIENTED_EDGE('',*,*,#482,.F.);
#482 = EDGE_CURVE('',#483,#483,#485,.T.);
#483 = VERTEX_POINT('',#484);
#484 = CARTESIAN_POINT('',(5.5,-0.6,5.65));
#485 = CIRCLE('',#486,1.65);
#486 = AXIS2_PLACEMENT_3D('',#487,#488,#489);
#487 = CARTESIAN_POINT('',(5.5,-0.6,4.));
#488 = DIRECTION('',(0.,1.,0.));
#489 = DIRECTION('',(0.,0.,1.));
#490 = PLANE('',#491);
#491 = AXIS2_PLACEMENT_3D('',#492,#493,#494);
#492 = CARTESIAN_POINT('',(1.8,-0.6,-1.));
#493 = DIRECTION('',(0.,1.,0.));
#494 = DIRECTION('',(0.,0.,1.));
#495 = ADVANCED_FACE('',(#496),#508,.F.);
#496 = FACE_BOUND('',#497,.F.);
#497 = EDGE_LOOP('',(#498,#499,#500,#501));
#498 = ORIENTED_EDGE('',*,*,#430,.F.);
#499 = ORIENTED_EDGE('',*,*,#40,.T.);
#500 = ORIENTED_EDGE('',*,*,#465,.T.);
#501 = ORIENTED_EDGE('',*,*,#502,.F.);
#502 = EDGE_CURVE('',#431,#466,#503,.T.);
#503 = CIRCLE('',#504,2.4);
#504 = AXIS2_PLACEMENT_3D('',#505,#506,#507);
#505 = CARTESIAN_POINT('',(0.,0.,0.));
#506 = DIRECTION('',(0.,0.,1.));
#507 = DIRECTION('',(1.,0.,0.));
#508 = PLANE('',#509);
#509 = AXIS2_PLACEMENT_3D('',#510,#511,#512);
#510 = CARTESIAN_POINT('',(0.,0.,0.));
#511 = DIRECTION('',(0.,0.,1.));
#512 = DIRECTION('',(1.,0.,0.));
#513 = ADVANCED_FACE('',(#514,#533),#544,.T.);
#514 = FACE_BOUND('',#515,.T.);
#515 = EDGE_LOOP('',(#516,#525,#532));
#516 = ORIENTED_EDGE('',*,*,#517,.T.);
#517 = EDGE_CURVE('',#121,#518,#520,.T.);
#518 = VERTEX_POINT('',#519);
#519 = CARTESIAN_POINT('',(5.5,1.1,6.5));
#520 = CIRCLE('',#521,2.5);
#521 = AXIS2_PLACEMENT_3D('',#522,#523,#524);
#522 = CARTESIAN_POINT('',(5.5,1.1,4.));
#523 = DIRECTION('',(0.,1.,0.));
#524 = DIRECTION('',(0.,0.,1.));
#525 = ORIENTED_EDGE('',*,*,#526,.T.);
#526 = EDGE_CURVE('',#518,#60,#527,.T.);
#527 = CIRCLE('',#528,2.5);
#528 = AXIS2_PLACEMENT_3D('',#529,#530,#531);
#529 = CARTESIAN_POINT('',(5.5,1.1,4.));
#530 = DIRECTION('',(0.,1.,0.));
#531 = DIRECTION('',(0.,0.,1.));
#532 = ORIENTED_EDGE('',*,*,#139,.F.);
#533 = FACE_BOUND('',#534,.T.);
#534 = EDGE_LOOP('',(#535));
#535 = ORIENTED_EDGE('',*,*,#536,.F.);
#536 = EDGE_CURVE('',#537,#537,#539,.T.);
#537 = VERTEX_POINT('',#538);
#538 = CARTESIAN_POINT('',(5.5,1.1,5.65));
#539 = CIRCLE('',#540,1.65);
#540 = AXIS2_PLACEMENT_3D('',#541,#542,#543);
#541 = CARTESIAN_POINT('',(5.5,1.1,4.));
#542 = DIRECTION('',(0.,1.,0.));
#543 = DIRECTION('',(0.,0.,1.));
#544 = PLANE('',#545);
#545 = AXIS2_PLACEMENT_3D('',#546,#547,#548);
#546 = CARTESIAN_POINT('',(5.5,1.1,4.));
#547 = DIRECTION('',(0.,1.,0.));
#548 = DIRECTION('',(0.,0.,1.));
#549 = ADVANCED_FACE('',(#550),#592,.T.);
#550 = FACE_BOUND('',#551,.T.);
#551 = EDGE_LOOP('',(#552,#560,#568,#574,#575,#584,#591));
#552 = ORIENTED_EDGE('',*,*,#553,.F.);
#553 = EDGE_CURVE('',#554,#104,#556,.T.);
#554 = VERTEX_POINT('',#555);
#555 = CARTESIAN_POINT('',(2.4,5.1,1.1));
#556 = LINE('',#557,#558);
#557 = CARTESIAN_POINT('',(2.4,5.1,1.1));
#558 = VECTOR('',#559,1.);
#559 = DIRECTION('',(1.,0.,0.));
#560 = ORIENTED_EDGE('',*,*,#561,.T.);
#561 = EDGE_CURVE('',#554,#562,#564,.T.);
#562 = VERTEX_POINT('',#563);
#563 = CARTESIAN_POINT('',(2.4,5.1,6.9));
#564 = LINE('',#565,#566);
#565 = CARTESIAN_POINT('',(2.4,5.1,1.1));
#566 = VECTOR('',#567,1.);
#567 = DIRECTION('',(0.,0.,1.));
#568 = ORIENTED_EDGE('',*,*,#569,.T.);
#569 = EDGE_CURVE('',#562,#79,#570,.T.);
#570 = LINE('',#571,#572);
#571 = CARTESIAN_POINT('',(2.4,5.1,6.9));
#572 = VECTOR('',#573,1.);
#573 = DIRECTION('',(1.,0.,0.));
#574 = ORIENTED_EDGE('',*,*,#78,.F.);
#575 = ORIENTED_EDGE('',*,*,#576,.F.);
#576 = EDGE_CURVE('',#577,#58,#579,.T.);
#577 = VERTEX_POINT('',#578);
#578 = CARTESIAN_POINT('',(5.5,5.1,6.5));
#579 = CIRCLE('',#580,2.5);
#580 = AXIS2_PLACEMENT_3D('',#581,#582,#583);
#581 = CARTESIAN_POINT('',(5.5,5.1,4.));
#582 = DIRECTION('',(0.,1.,0.));
#583 = DIRECTION('',(0.,0.,1.));
#584 = ORIENTED_EDGE('',*,*,#585,.F.);
#585 = EDGE_CURVE('',#113,#577,#586,.T.);
#586 = CIRCLE('',#587,2.5);
#587 = AXIS2_PLACEMENT_3D('',#588,#589,#590);
#588 = CARTESIAN_POINT('',(5.5,5.1,4.));
#589 = DIRECTION('',(0.,1.,0.));
#590 = DIRECTION('',(0.,0.,1.));
#591 = ORIENTED_EDGE('',*,*,#112,.F.);
#592 = PLANE('',#593);
#593 = AXIS2_PLACEMENT_3D('',#594,#595,#596);
#594 = CARTESIAN_POINT('',(2.4,5.1,1.1));
#595 = DIRECTION('',(0.,1.,0.));
#596 = DIRECTION('',(0.,0.,1.));
#597 = ADVANCED_FACE('',(#598),#608,.T.);
#598 = FACE_BOUND('',#599,.T.);
#599 = EDGE_LOOP('',(#600,#606,#607));
#600 = ORIENTED_EDGE('',*,*,#601,.F.);
#601 = EDGE_CURVE('',#554,#96,#602,.T.);
#602 = LINE('',#603,#604);
#603 = CARTESIAN_POINT('',(2.4,5.1,1.1));
#604 = VECTOR('',#605,1.);
#605 = DIRECTION('',(0.,1.,0.));
#606 = ORIENTED_EDGE('',*,*,#553,.T.);
#607 = ORIENTED_EDGE('',*,*,#103,.T.);
#608 = PLANE('',#609);
#609 = AXIS2_PLACEMENT_3D('',#610,#611,#612);
#610 = CARTESIAN_POINT('',(2.4,5.1,1.1));
#611 = DIRECTION('',(0.,0.,1.));
#612 = DIRECTION('',(1.,0.,0.));
#613 = ADVANCED_FACE('',(#614),#625,.T.);
#614 = FACE_BOUND('',#615,.T.);
#615 = EDGE_LOOP('',(#616,#622,#623,#624));
#616 = ORIENTED_EDGE('',*,*,#617,.F.);
#617 = EDGE_CURVE('',#562,#87,#618,.T.);
#618 = LINE('',#619,#620);
#619 = CARTESIAN_POINT('',(2.4,5.1,6.9));
#620 = VECTOR('',#621,1.);
#621 = DIRECTION('',(0.,1.,0.));
#622 = ORIENTED_EDGE('',*,*,#561,.F.);
#623 = ORIENTED_EDGE('',*,*,#601,.T.);
#624 = ORIENTED_EDGE('',*,*,#95,.T.);
#625 = PLANE('',#626);
#626 = AXIS2_PLACEMENT_3D('',#627,#628,#629);
#627 = CARTESIAN_POINT('',(2.4,5.1,1.1));
#628 = DIRECTION('',(1.,0.,0.));
#629 = DIRECTION('',(0.,0.,1.));
#630 = ADVANCED_FACE('',(#631),#636,.F.);
#631 = FACE_BOUND('',#632,.F.);
#632 = EDGE_LOOP('',(#633,#634,#635));
#633 = ORIENTED_EDGE('',*,*,#617,.F.);
#634 = ORIENTED_EDGE('',*,*,#569,.T.);
#635 = ORIENTED_EDGE('',*,*,#86,.T.);
#636 = PLANE('',#637);
#637 = AXIS2_PLACEMENT_3D('',#638,#639,#640);
#638 = CARTESIAN_POINT('',(2.4,5.1,6.9));
#639 = DIRECTION('',(0.,0.,1.));
#640 = DIRECTION('',(1.,0.,0.));
#641 = ADVANCED_FACE('',(#642),#678,.F.);
#642 = FACE_BOUND('',#643,.F.);
#643 = EDGE_LOOP('',(#644,#653,#660,#661,#670,#677));
#644 = ORIENTED_EDGE('',*,*,#645,.T.);
#645 = EDGE_CURVE('',#291,#646,#648,.T.);
#646 = VERTEX_POINT('',#647);
#647 = CARTESIAN_POINT('',(5.5,-5.1,7.2));
#648 = CIRCLE('',#649,3.2);
#649 = AXIS2_PLACEMENT_3D('',#650,#651,#652);
#650 = CARTESIAN_POINT('',(5.5,-5.1,4.));
#651 = DIRECTION('',(0.,1.,0.));
#652 = DIRECTION('',(0.,0.,1.));
#653 = ORIENTED_EDGE('',*,*,#654,.T.);
#654 = EDGE_CURVE('',#646,#150,#655,.T.);
#655 = CIRCLE('',#656,3.2);
#656 = AXIS2_PLACEMENT_3D('',#657,#658,#659);
#657 = CARTESIAN_POINT('',(5.5,-5.1,4.));
#658 = DIRECTION('',(0.,1.,0.));
#659 = DIRECTION('',(0.,0.,1.));
#660 = ORIENTED_EDGE('',*,*,#147,.F.);
#661 = ORIENTED_EDGE('',*,*,#662,.F.);
#662 = EDGE_CURVE('',#663,#148,#665,.T.);
#663 = VERTEX_POINT('',#664);
#664 = CARTESIAN_POINT('',(5.5,-5.1,5.65));
#665 = CIRCLE('',#666,1.65);
#666 = AXIS2_PLACEMENT_3D('',#667,#668,#669);
#667 = CARTESIAN_POINT('',(5.5,-5.1,4.));
#668 = DIRECTION('',(0.,1.,0.));
#669 = DIRECTION('',(0.,0.,1.));
#670 = ORIENTED_EDGE('',*,*,#671,.F.);
#671 = EDGE_CURVE('',#158,#663,#672,.T.);
#672 = CIRCLE('',#673,1.65);
#673 = AXIS2_PLACEMENT_3D('',#674,#675,#676);
#674 = CARTESIAN_POINT('',(5.5,-5.1,4.));
#675 = DIRECTION('',(0.,1.,0.));
#676 = DIRECTION('',(0.,0.,1.));
#677 = ORIENTED_EDGE('',*,*,#290,.F.);
#678 = PLANE('',#679);
#679 = AXIS2_PLACEMENT_3D('',#680,#681,#682);
#680 = CARTESIAN_POINT('',(5.5,-5.1,4.));
#681 = DIRECTION('',(0.,1.,0.));
#682 = DIRECTION('',(0.,0.,1.));
#683 = ADVANCED_FACE('',(#684),#697,.F.);
#684 = FACE_BOUND('',#685,.F.);
#685 = EDGE_LOOP('',(#686,#687,#693,#694,#695,#696));
#686 = ORIENTED_EDGE('',*,*,#671,.T.);
#687 = ORIENTED_EDGE('',*,*,#688,.T.);
#688 = EDGE_CURVE('',#663,#483,#689,.T.);
#689 = LINE('',#690,#691);
#690 = CARTESIAN_POINT('',(5.5,-9.,5.65));
#691 = VECTOR('',#692,1.);
#692 = DIRECTION('',(0.,1.,0.));
#693 = ORIENTED_EDGE('',*,*,#482,.F.);
#694 = ORIENTED_EDGE('',*,*,#688,.F.);
#695 = ORIENTED_EDGE('',*,*,#662,.T.);
#696 = ORIENTED_EDGE('',*,*,#157,.T.);
#697 = CYLINDRICAL_SURFACE('',#698,1.65);
#698 = AXIS2_PLACEMENT_3D('',#699,#700,#701);
#699 = CARTESIAN_POINT('',(5.5,-9.,4.));
#700 = DIRECTION('',(0.,1.,0.));
#701 = DIRECTION('',(0.,0.,1.));
#702 = ADVANCED_FACE('',(#703),#709,.F.);
#703 = FACE_BOUND('',#704,.F.);
#704 = EDGE_LOOP('',(#705,#706,#707,#708));
#705 = ORIENTED_EDGE('',*,*,#414,.F.);
#706 = ORIENTED_EDGE('',*,*,#438,.F.);
#707 = ORIENTED_EDGE('',*,*,#502,.T.);
#708 = ORIENTED_EDGE('',*,*,#473,.T.);
#709 = CYLINDRICAL_SURFACE('',#710,2.4);
#710 = AXIS2_PLACEMENT_3D('',#711,#712,#713);
#711 = CARTESIAN_POINT('',(0.,0.,-1.));
#712 = DIRECTION('',(0.,0.,1.));
#713 = DIRECTION('',(1.,0.,0.));
#714 = ADVANCED_FACE('',(#715),#726,.F.);
#715 = FACE_BOUND('',#716,.F.);
#716 = EDGE_LOOP('',(#717,#718,#724,#725));
#717 = ORIENTED_EDGE('',*,*,#536,.F.);
#718 = ORIENTED_EDGE('',*,*,#719,.F.);
#719 = EDGE_CURVE('',#448,#537,#720,.T.);
#720 = LINE('',#721,#722);
#721 = CARTESIAN_POINT('',(5.5,-9.,5.65));
#722 = VECTOR('',#723,1.);
#723 = DIRECTION('',(0.,1.,0.));
#724 = ORIENTED_EDGE('',*,*,#447,.T.);
#725 = ORIENTED_EDGE('',*,*,#719,.T.);
#726 = CYLINDRICAL_SURFACE('',#727,1.65);
#727 = AXIS2_PLACEMENT_3D('',#728,#729,#730);
#728 = CARTESIAN_POINT('',(5.5,-9.,4.));
#729 = DIRECTION('',(0.,1.,0.));
#730 = DIRECTION('',(0.,0.,1.));
#731 = ADVANCED_FACE('',(#732),#740,.F.);
#732 = FACE_BOUND('',#733,.F.);
#733 = EDGE_LOOP('',(#734,#735,#736,#737,#738,#739));
#734 = ORIENTED_EDGE('',*,*,#120,.F.);
#735 = ORIENTED_EDGE('',*,*,#517,.T.);
#736 = ORIENTED_EDGE('',*,*,#526,.T.);
#737 = ORIENTED_EDGE('',*,*,#57,.F.);
#738 = ORIENTED_EDGE('',*,*,#576,.F.);
#739 = ORIENTED_EDGE('',*,*,#585,.F.);
#740 = CYLINDRICAL_SURFACE('',#741,2.5);
#741 = AXIS2_PLACEMENT_3D('',#742,#743,#744);
#742 = CARTESIAN_POINT('',(5.5,1.1,4.));
#743 = DIRECTION('',(0.,1.,0.));
#744 = DIRECTION('',(0.,0.,1.));
#745 = ADVANCED_FACE('',(#746),#752,.F.);
#746 = FACE_BOUND('',#747,.F.);
#747 = EDGE_LOOP('',(#748,#749,#750,#751));
#748 = ORIENTED_EDGE('',*,*,#298,.T.);
#749 = ORIENTED_EDGE('',*,*,#380,.T.);
#750 = ORIENTED_EDGE('',*,*,#654,.F.);
#751 = ORIENTED_EDGE('',*,*,#645,.F.);
#752 = CYLINDRICAL_SURFACE('',#753,3.2);
#753 = AXIS2_PLACEMENT_3D('',#754,#755,#756);
#754 = CARTESIAN_POINT('',(5.5,-8.1,4.));
#755 = DIRECTION('',(0.,1.,0.));
#756 = DIRECTION('',(0.,0.,1.));
#757 = ( GEOMETRIC_REPRESENTATION_CONTEXT(3) 
GLOBAL_UNCERTAINTY_ASSIGNED_CONTEXT((#761)) GLOBAL_UNIT_ASSIGNED_CONTEXT
((#758,#759,#760)) REPRESENTATION_CONTEXT('Context #1',
  '3D Context with UNIT and UNCERTAINTY') );
#758 = ( LENGTH_UNIT() NAMED_UNIT(*) SI_UNIT(.MILLI.,.METRE.) );
#759 = ( NAMED_UNIT(*) PLANE_ANGLE_UNIT() SI_UNIT($,.RADIAN.) );
#760 = ( NAMED_UNIT(*) SI_UNIT($,.STERADIAN.) SOLID_ANGLE_UNIT() );
#761 = UNCERTAINTY_MEASURE_WITH_UNIT(LENGTH_MEASURE(1.E-07),#758,
  'distance_accuracy_value','confusion accuracy');
#762 = PRODUCT_RELATED_PRODUCT_CATEGORY('part',$,(#7));
ENDSEC;
END-ISO-10303-21;
