ISO-10303-21;
HEADER;
FILE_DESCRIPTION(('FreeCAD Model'),'2;1');
FILE_NAME('Open CASCADE Shape Model','2026-07-24T20:42:46',('FreeCAD'),(
    'FreeCAD'),'Open CASCADE STEP processor 7.8','FreeCAD','Unknown');
FILE_SCHEMA(('AUTOMOTIVE_DESIGN { 1 0 10303 214 1 1 1 1 }'));
ENDSEC;
DATA;
#1 = APPLICATION_PROTOCOL_DEFINITION('international standard',
  'automotive_design',2000,#2);
#2 = APPLICATION_CONTEXT(
  'core data for automotive mechanical design processes');
#3 = SHAPE_DEFINITION_REPRESENTATION(#4,#10);
#4 = PRODUCT_DEFINITION_SHAPE('','',#5);
#5 = PRODUCT_DEFINITION('design','',#6,#9);
#6 = PRODUCT_DEFINITION_FORMATION('','',#7);
#7 = PRODUCT('Open CASCADE STEP translator 7.8 152',
  'Open CASCADE STEP translator 7.8 152','',(#8));
#8 = PRODUCT_CONTEXT('',#2,'mechanical');
#9 = PRODUCT_DEFINITION_CONTEXT('part definition',#2,'design');
#10 = ADVANCED_BREP_SHAPE_REPRESENTATION('',(#11,#15),#588);
#11 = AXIS2_PLACEMENT_3D('',#12,#13,#14);
#12 = CARTESIAN_POINT('',(0.,0.,0.));
#13 = DIRECTION('',(0.,0.,1.));
#14 = DIRECTION('',(1.,0.,-0.));
#15 = MANIFOLD_SOLID_BREP('',#16);
#16 = CLOSED_SHELL('',(#17,#189,#231,#255,#279,#307,#430,#553,#565));
#17 = ADVANCED_FACE('',(#18,#54,#119),#184,.T.);
#18 = FACE_BOUND('',#19,.T.);
#19 = EDGE_LOOP('',(#20,#31,#39,#48));
#20 = ORIENTED_EDGE('',*,*,#21,.F.);
#21 = EDGE_CURVE('',#22,#24,#26,.T.);
#22 = VERTEX_POINT('',#23);
#23 = CARTESIAN_POINT('',(5.361902647382,4.5,7.));
#24 = VERTEX_POINT('',#25);
#25 = CARTESIAN_POINT('',(5.361902647382,-4.5,7.));
#26 = CIRCLE('',#27,7.);
#27 = AXIS2_PLACEMENT_3D('',#28,#29,#30);
#28 = CARTESIAN_POINT('',(0.,0.,7.));
#29 = DIRECTION('',(0.,0.,1.));
#30 = DIRECTION('',(1.,0.,0.));
#31 = ORIENTED_EDGE('',*,*,#32,.F.);
#32 = EDGE_CURVE('',#33,#22,#35,.T.);
#33 = VERTEX_POINT('',#34);
#34 = CARTESIAN_POINT('',(5.361902647382,4.5,0.));
#35 = LINE('',#36,#37);
#36 = CARTESIAN_POINT('',(5.361902647382,4.5,0.));
#37 = VECTOR('',#38,1.);
#38 = DIRECTION('',(0.,0.,1.));
#39 = ORIENTED_EDGE('',*,*,#40,.T.);
#40 = EDGE_CURVE('',#33,#41,#43,.T.);
#41 = VERTEX_POINT('',#42);
#42 = CARTESIAN_POINT('',(5.361902647382,-4.5,0.));
#43 = CIRCLE('',#44,7.);
#44 = AXIS2_PLACEMENT_3D('',#45,#46,#47);
#45 = CARTESIAN_POINT('',(0.,0.,0.));
#46 = DIRECTION('',(0.,0.,1.));
#47 = DIRECTION('',(1.,0.,0.));
#48 = ORIENTED_EDGE('',*,*,#49,.T.);
#49 = EDGE_CURVE('',#41,#24,#50,.T.);
#50 = LINE('',#51,#52);
#51 = CARTESIAN_POINT('',(5.361902647382,-4.5,0.));
#52 = VECTOR('',#53,1.);
#53 = DIRECTION('',(0.,0.,1.));
#54 = FACE_BOUND('',#55,.T.);
#55 = EDGE_LOOP('',(#56));
#56 = ORIENTED_EDGE('',*,*,#57,.F.);
#57 = EDGE_CURVE('',#58,#58,#60,.T.);
#58 = VERTEX_POINT('',#59);
#59 = CARTESIAN_POINT('',(-4.041334437186E-16,7.,5.15));
#60 = B_SPLINE_CURVE_WITH_KNOTS('',8,(#61,#62,#63,#64,#65,#66,#67,#68,
    #69,#70,#71,#72,#73,#74,#75,#76,#77,#78,#79,#80,#81,#82,#83,#84,#85,
    #86,#87,#88,#89,#90,#91,#92,#93,#94,#95,#96,#97,#98,#99,#100,#101,
    #102,#103,#104,#105,#106,#107,#108,#109,#110,#111,#112,#113,#114,
    #115,#116,#117,#118),.UNSPECIFIED.,.T.,.F.,(9,7,7,7,7,7,7,7,9),(0.,
    0.131580339602,0.276702184255,0.444119478875,0.590684881421,
    0.685606864458,0.790005957442,0.900159565179,1.),.UNSPECIFIED.);
#61 = CARTESIAN_POINT('',(0.,7.,5.15));
#62 = CARTESIAN_POINT('',(0.182558883581,7.,5.15));
#63 = CARTESIAN_POINT('',(0.361498880282,6.994558511343,5.126916035013)
  );
#64 = CARTESIAN_POINT('',(0.533477020349,6.984054420117,5.082348602707)
  );
#65 = CARTESIAN_POINT('',(0.695524800002,6.969385441797,5.018416193904)
  );
#66 = CARTESIAN_POINT('',(0.845110723905,6.951844022351,4.937753119307)
  );
#67 = CARTESIAN_POINT('',(0.980246042333,6.932888454682,4.843513280236)
  );
#68 = CARTESIAN_POINT('',(1.099625915212,6.913883945727,4.739370086533)
  );
#69 = CARTESIAN_POINT('',(1.316588467477,6.876040790357,4.508328434971)
  );
#70 = CARTESIAN_POINT('',(1.413113979617,6.856993337436,4.377581574128)
  );
#71 = CARTESIAN_POINT('',(1.492749727576,6.839829583457,4.239709135566)
  );
#72 = CARTESIAN_POINT('',(1.555922102058,6.825361100386,4.096621988573)
  );
#73 = CARTESIAN_POINT('',(1.603017723342,6.814152339055,3.949866842883)
  );
#74 = CARTESIAN_POINT('',(1.634326720808,6.806558310629,3.800749344642)
  );
#75 = CARTESIAN_POINT('',(1.65,6.802756794124,3.650428172191));
#76 = CARTESIAN_POINT('',(1.65,6.802756794124,3.326461152812));
#77 = CARTESIAN_POINT('',(1.629141330794,6.807815929421,3.153156532414)
  );
#78 = CARTESIAN_POINT('',(1.587518242085,6.817911977622,2.981669541739)
  );
#79 = CARTESIAN_POINT('',(1.524829520255,6.832737209683,2.813742366314)
  );
#80 = CARTESIAN_POINT('',(1.440529171736,6.851675852241,2.651456506438)
  );
#81 = CARTESIAN_POINT('',(1.33394720154,6.873709289372,2.497414373381));
#82 = CARTESIAN_POINT('',(1.204454966542,6.897328885319,2.354982029152)
  );
#83 = CARTESIAN_POINT('',(0.91806371719,6.940853240026,2.118058582991));
#84 = CARTESIAN_POINT('',(0.761917490234,6.961563941893,2.015943125811)
  );
#85 = CARTESIAN_POINT('',(0.585720378734,6.98056297431,1.930803065229));
#86 = CARTESIAN_POINT('',(0.393787439986,6.995380528863,1.86886445096));
#87 = CARTESIAN_POINT('',(0.191826599101,7.003874482826,1.834173121618)
  );
#88 = CARTESIAN_POINT('',(-1.378392772084E-02,7.005083304648,
    1.828657222468));
#89 = CARTESIAN_POINT('',(-0.216510730208,6.999344382078,1.85207131923)
  );
#90 = CARTESIAN_POINT('',(-0.535869293742,6.980591412093,1.934068661655)
  );
#91 = CARTESIAN_POINT('',(-0.658494385759,6.970804726414,1.977565389359)
  );
#92 = CARTESIAN_POINT('',(-0.777035785512,6.958870401982,2.032019483543)
  );
#93 = CARTESIAN_POINT('',(-0.890366002512,6.945178907331,2.096983007301)
  );
#94 = CARTESIAN_POINT('',(-0.997413773175,6.93022480264,2.17187006071));
#95 = CARTESIAN_POINT('',(-1.097178170348,6.914576605588,2.255960955615)
  );
#96 = CARTESIAN_POINT('',(-1.18875090936,6.898835124564,2.348409074993)
  );
#97 = CARTESIAN_POINT('',(-1.362189256855,6.866802332245,2.558060022713)
  );
#98 = CARTESIAN_POINT('',(-1.442235191271,6.850602050784,2.676888738112)
  );
#99 = CARTESIAN_POINT('',(-1.510388260007,6.835755323187,2.803447948449)
  );
#100 = CARTESIAN_POINT('',(-1.565782835036,6.823010896527,2.936315119342
    ));
#101 = CARTESIAN_POINT('',(-1.60777181206,6.812999820296,3.073980048441)
  );
#102 = CARTESIAN_POINT('',(-1.635919551141,6.806171564779,3.21487984473)
  );
#103 = CARTESIAN_POINT('',(-1.65,6.802756794124,3.357422635354));
#104 = CARTESIAN_POINT('',(-1.65,6.802756794124,3.650436279172));
#105 = CARTESIAN_POINT('',(-1.634325055662,6.806558711564,3.800757971972
    ));
#106 = CARTESIAN_POINT('',(-1.603015394014,6.814152909572,3.949872096317
    ));
#107 = CARTESIAN_POINT('',(-1.555920732812,6.825361383935,4.09662305962)
  );
#108 = CARTESIAN_POINT('',(-1.492750161086,6.839829431751,4.239707379726
    ));
#109 = CARTESIAN_POINT('',(-1.413115618107,6.856993005623,4.377579216602
    ));
#110 = CARTESIAN_POINT('',(-1.316589663998,6.876040581657,4.508327160805
    ));
#111 = CARTESIAN_POINT('',(-1.099660571767,6.913877900843,4.73933318105)
  );
#112 = CARTESIAN_POINT('',(-0.980282521548,6.932883309867,4.843489893048
    ));
#113 = CARTESIAN_POINT('',(-0.845120384949,6.951844302304,4.937758707863
    ));
#114 = CARTESIAN_POINT('',(-0.695491530036,6.969391274611,5.018443753296
    ));
#115 = CARTESIAN_POINT('',(-0.533402402019,6.984061924507,5.082380391499
    ));
#116 = CARTESIAN_POINT('',(-0.361404437543,6.994562915698,5.126934733993
    ));
#117 = CARTESIAN_POINT('',(-0.182484943502,7.,5.15));
#118 = CARTESIAN_POINT('',(0.,7.,5.15));
#119 = FACE_BOUND('',#120,.T.);
#120 = EDGE_LOOP('',(#121));
#121 = ORIENTED_EDGE('',*,*,#122,.T.);
#122 = EDGE_CURVE('',#123,#123,#125,.T.);
#123 = VERTEX_POINT('',#124);
#124 = CARTESIAN_POINT('',(-4.041334437186E-16,-7.,5.15));
#125 = B_SPLINE_CURVE_WITH_KNOTS('',8,(#126,#127,#128,#129,#130,#131,
    #132,#133,#134,#135,#136,#137,#138,#139,#140,#141,#142,#143,#144,
    #145,#146,#147,#148,#149,#150,#151,#152,#153,#154,#155,#156,#157,
    #158,#159,#160,#161,#162,#163,#164,#165,#166,#167,#168,#169,#170,
    #171,#172,#173,#174,#175,#176,#177,#178,#179,#180,#181,#182,#183),
  .UNSPECIFIED.,.T.,.F.,(9,7,7,7,7,7,7,7,9),(0.,0.131580339602,
    0.276702184255,0.444119478876,0.590684881422,0.685606864459,
    0.790005957442,0.900159565179,1.),.UNSPECIFIED.);
#126 = CARTESIAN_POINT('',(-8.881784197001E-16,-7.,5.15));
#127 = CARTESIAN_POINT('',(0.182558883581,-7.,5.15));
#128 = CARTESIAN_POINT('',(0.361498880282,-6.994558511343,5.126916035014
    ));
#129 = CARTESIAN_POINT('',(0.533477020349,-6.984054420117,5.082348602707
    ));
#130 = CARTESIAN_POINT('',(0.695524800002,-6.969385441797,5.018416193904
    ));
#131 = CARTESIAN_POINT('',(0.845110723905,-6.951844022351,4.937753119307
    ));
#132 = CARTESIAN_POINT('',(0.980246042333,-6.932888454682,4.843513280236
    ));
#133 = CARTESIAN_POINT('',(1.099625915212,-6.913883945727,4.739370086533
    ));
#134 = CARTESIAN_POINT('',(1.316588467477,-6.876040790357,4.508328434971
    ));
#135 = CARTESIAN_POINT('',(1.413113979617,-6.856993337436,4.377581574128
    ));
#136 = CARTESIAN_POINT('',(1.492749727576,-6.839829583457,4.239709135566
    ));
#137 = CARTESIAN_POINT('',(1.555922102058,-6.825361100386,4.096621988573
    ));
#138 = CARTESIAN_POINT('',(1.603017723342,-6.814152339055,3.949866842883
    ));
#139 = CARTESIAN_POINT('',(1.634326720808,-6.806558310629,3.800749344642
    ));
#140 = CARTESIAN_POINT('',(1.65,-6.802756794124,3.650428172191));
#141 = CARTESIAN_POINT('',(1.65,-6.802756794124,3.326461152812));
#142 = CARTESIAN_POINT('',(1.629141330795,-6.807815929421,3.153156532414
    ));
#143 = CARTESIAN_POINT('',(1.587518242084,-6.817911977622,2.981669541739
    ));
#144 = CARTESIAN_POINT('',(1.524829520255,-6.832737209683,2.813742366314
    ));
#145 = CARTESIAN_POINT('',(1.440529171736,-6.851675852241,2.651456506438
    ));
#146 = CARTESIAN_POINT('',(1.33394720154,-6.873709289372,2.497414373381)
  );
#147 = CARTESIAN_POINT('',(1.204454966542,-6.897328885319,2.354982029152
    ));
#148 = CARTESIAN_POINT('',(0.91806371719,-6.940853240026,2.118058582992)
  );
#149 = CARTESIAN_POINT('',(0.761917490234,-6.961563941893,2.015943125811
    ));
#150 = CARTESIAN_POINT('',(0.585720378735,-6.98056297431,1.93080306523)
  );
#151 = CARTESIAN_POINT('',(0.393787439985,-6.995380528863,1.868864450959
    ));
#152 = CARTESIAN_POINT('',(0.191826599102,-7.003874482826,1.834173121618
    ));
#153 = CARTESIAN_POINT('',(-1.378392772145E-02,-7.005083304648,
    1.828657222468));
#154 = CARTESIAN_POINT('',(-0.216510730208,-6.999344382078,1.85207131923
    ));
#155 = CARTESIAN_POINT('',(-0.535869293742,-6.980591412093,
    1.934068661655));
#156 = CARTESIAN_POINT('',(-0.658494385759,-6.970804726414,
    1.977565389359));
#157 = CARTESIAN_POINT('',(-0.777035785512,-6.958870401982,
    2.032019483543));
#158 = CARTESIAN_POINT('',(-0.890366002512,-6.945178907331,
    2.096983007301));
#159 = CARTESIAN_POINT('',(-0.997413773175,-6.93022480264,2.17187006071)
  );
#160 = CARTESIAN_POINT('',(-1.097178170348,-6.914576605588,
    2.255960955615));
#161 = CARTESIAN_POINT('',(-1.18875090936,-6.898835124564,2.348409074993
    ));
#162 = CARTESIAN_POINT('',(-1.362189256855,-6.866802332245,
    2.558060022713));
#163 = CARTESIAN_POINT('',(-1.442235191271,-6.850602050784,
    2.676888738112));
#164 = CARTESIAN_POINT('',(-1.510388260007,-6.835755323187,
    2.803447948449));
#165 = CARTESIAN_POINT('',(-1.565782835036,-6.823010896527,
    2.936315119342));
#166 = CARTESIAN_POINT('',(-1.60777181206,-6.812999820296,3.073980048441
    ));
#167 = CARTESIAN_POINT('',(-1.635919551141,-6.806171564779,3.21487984473
    ));
#168 = CARTESIAN_POINT('',(-1.65,-6.802756794124,3.357422635354));
#169 = CARTESIAN_POINT('',(-1.65,-6.802756794124,3.650436279172));
#170 = CARTESIAN_POINT('',(-1.634325055662,-6.806558711564,
    3.800757971972));
#171 = CARTESIAN_POINT('',(-1.603015394014,-6.814152909572,
    3.949872096318));
#172 = CARTESIAN_POINT('',(-1.555920732812,-6.825361383935,4.09662305962
    ));
#173 = CARTESIAN_POINT('',(-1.492750161087,-6.839829431751,
    4.239707379725));
#174 = CARTESIAN_POINT('',(-1.413115618107,-6.856993005623,
    4.377579216602));
#175 = CARTESIAN_POINT('',(-1.316589663998,-6.876040581657,
    4.508327160804));
#176 = CARTESIAN_POINT('',(-1.099660571767,-6.913877900843,4.73933318105
    ));
#177 = CARTESIAN_POINT('',(-0.980282521548,-6.932883309867,
    4.843489893048));
#178 = CARTESIAN_POINT('',(-0.845120384948,-6.951844302304,
    4.937758707863));
#179 = CARTESIAN_POINT('',(-0.695491530036,-6.969391274611,
    5.018443753296));
#180 = CARTESIAN_POINT('',(-0.533402402019,-6.984061924507,
    5.082380391499));
#181 = CARTESIAN_POINT('',(-0.361404437543,-6.994562915698,
    5.126934733993));
#182 = CARTESIAN_POINT('',(-0.182484943502,-7.,5.15));
#183 = CARTESIAN_POINT('',(-8.881784197001E-16,-7.,5.15));
#184 = CYLINDRICAL_SURFACE('',#185,7.);
#185 = AXIS2_PLACEMENT_3D('',#186,#187,#188);
#186 = CARTESIAN_POINT('',(0.,0.,0.));
#187 = DIRECTION('',(0.,0.,1.));
#188 = DIRECTION('',(1.,0.,0.));
#189 = ADVANCED_FACE('',(#190,#215),#226,.T.);
#190 = FACE_BOUND('',#191,.T.);
#191 = EDGE_LOOP('',(#192,#200,#201,#209));
#192 = ORIENTED_EDGE('',*,*,#193,.F.);
#193 = EDGE_CURVE('',#22,#194,#196,.T.);
#194 = VERTEX_POINT('',#195);
#195 = CARTESIAN_POINT('',(5.,4.5,7.));
#196 = LINE('',#197,#198);
#197 = CARTESIAN_POINT('',(2.5,4.5,7.));
#198 = VECTOR('',#199,1.);
#199 = DIRECTION('',(-1.,0.,0.));
#200 = ORIENTED_EDGE('',*,*,#21,.T.);
#201 = ORIENTED_EDGE('',*,*,#202,.T.);
#202 = EDGE_CURVE('',#24,#203,#205,.T.);
#203 = VERTEX_POINT('',#204);
#204 = CARTESIAN_POINT('',(5.,-4.5,7.));
#205 = LINE('',#206,#207);
#206 = CARTESIAN_POINT('',(2.5,-4.5,7.));
#207 = VECTOR('',#208,1.);
#208 = DIRECTION('',(-1.,0.,0.));
#209 = ORIENTED_EDGE('',*,*,#210,.T.);
#210 = EDGE_CURVE('',#203,#194,#211,.T.);
#211 = LINE('',#212,#213);
#212 = CARTESIAN_POINT('',(5.,-2.25,7.));
#213 = VECTOR('',#214,1.);
#214 = DIRECTION('',(0.,1.,0.));
#215 = FACE_BOUND('',#216,.T.);
#216 = EDGE_LOOP('',(#217));
#217 = ORIENTED_EDGE('',*,*,#218,.F.);
#218 = EDGE_CURVE('',#219,#219,#221,.T.);
#219 = VERTEX_POINT('',#220);
#220 = CARTESIAN_POINT('',(2.575,-6.306931015609E-16,7.));
#221 = CIRCLE('',#222,2.575);
#222 = AXIS2_PLACEMENT_3D('',#223,#224,#225);
#223 = CARTESIAN_POINT('',(0.,0.,7.));
#224 = DIRECTION('',(0.,0.,1.));
#225 = DIRECTION('',(1.,0.,0.));
#226 = PLANE('',#227);
#227 = AXIS2_PLACEMENT_3D('',#228,#229,#230);
#228 = CARTESIAN_POINT('',(0.,0.,7.));
#229 = DIRECTION('',(0.,0.,1.));
#230 = DIRECTION('',(1.,0.,0.));
#231 = ADVANCED_FACE('',(#232),#250,.F.);
#232 = FACE_BOUND('',#233,.F.);
#233 = EDGE_LOOP('',(#234,#242,#248,#249));
#234 = ORIENTED_EDGE('',*,*,#235,.T.);
#235 = EDGE_CURVE('',#33,#236,#238,.T.);
#236 = VERTEX_POINT('',#237);
#237 = CARTESIAN_POINT('',(5.,4.5,0.));
#238 = LINE('',#239,#240);
#239 = CARTESIAN_POINT('',(2.5,4.5,0.));
#240 = VECTOR('',#241,1.);
#241 = DIRECTION('',(-1.,0.,0.));
#242 = ORIENTED_EDGE('',*,*,#243,.T.);
#243 = EDGE_CURVE('',#236,#194,#244,.T.);
#244 = LINE('',#245,#246);
#245 = CARTESIAN_POINT('',(5.,4.5,-1.));
#246 = VECTOR('',#247,1.);
#247 = DIRECTION('',(0.,0.,1.));
#248 = ORIENTED_EDGE('',*,*,#193,.F.);
#249 = ORIENTED_EDGE('',*,*,#32,.F.);
#250 = PLANE('',#251);
#251 = AXIS2_PLACEMENT_3D('',#252,#253,#254);
#252 = CARTESIAN_POINT('',(5.,4.5,-1.));
#253 = DIRECTION('',(0.,1.,0.));
#254 = DIRECTION('',(0.,0.,1.));
#255 = ADVANCED_FACE('',(#256),#274,.T.);
#256 = FACE_BOUND('',#257,.T.);
#257 = EDGE_LOOP('',(#258,#266,#272,#273));
#258 = ORIENTED_EDGE('',*,*,#259,.T.);
#259 = EDGE_CURVE('',#41,#260,#262,.T.);
#260 = VERTEX_POINT('',#261);
#261 = CARTESIAN_POINT('',(5.,-4.5,0.));
#262 = LINE('',#263,#264);
#263 = CARTESIAN_POINT('',(2.5,-4.5,0.));
#264 = VECTOR('',#265,1.);
#265 = DIRECTION('',(-1.,0.,0.));
#266 = ORIENTED_EDGE('',*,*,#267,.T.);
#267 = EDGE_CURVE('',#260,#203,#268,.T.);
#268 = LINE('',#269,#270);
#269 = CARTESIAN_POINT('',(5.,-4.5,-1.));
#270 = VECTOR('',#271,1.);
#271 = DIRECTION('',(0.,0.,1.));
#272 = ORIENTED_EDGE('',*,*,#202,.F.);
#273 = ORIENTED_EDGE('',*,*,#49,.F.);
#274 = PLANE('',#275);
#275 = AXIS2_PLACEMENT_3D('',#276,#277,#278);
#276 = CARTESIAN_POINT('',(5.,-4.5,-1.));
#277 = DIRECTION('',(0.,1.,0.));
#278 = DIRECTION('',(0.,0.,1.));
#279 = ADVANCED_FACE('',(#280,#291),#302,.F.);
#280 = FACE_BOUND('',#281,.F.);
#281 = EDGE_LOOP('',(#282,#283,#284,#285));
#282 = ORIENTED_EDGE('',*,*,#235,.F.);
#283 = ORIENTED_EDGE('',*,*,#40,.T.);
#284 = ORIENTED_EDGE('',*,*,#259,.T.);
#285 = ORIENTED_EDGE('',*,*,#286,.T.);
#286 = EDGE_CURVE('',#260,#236,#287,.T.);
#287 = LINE('',#288,#289);
#288 = CARTESIAN_POINT('',(5.,-2.25,0.));
#289 = VECTOR('',#290,1.);
#290 = DIRECTION('',(0.,1.,0.));
#291 = FACE_BOUND('',#292,.F.);
#292 = EDGE_LOOP('',(#293));
#293 = ORIENTED_EDGE('',*,*,#294,.F.);
#294 = EDGE_CURVE('',#295,#295,#297,.T.);
#295 = VERTEX_POINT('',#296);
#296 = CARTESIAN_POINT('',(2.575,-6.306931015609E-16,0.));
#297 = CIRCLE('',#298,2.575);
#298 = AXIS2_PLACEMENT_3D('',#299,#300,#301);
#299 = CARTESIAN_POINT('',(0.,0.,0.));
#300 = DIRECTION('',(0.,0.,1.));
#301 = DIRECTION('',(1.,0.,0.));
#302 = PLANE('',#303);
#303 = AXIS2_PLACEMENT_3D('',#304,#305,#306);
#304 = CARTESIAN_POINT('',(0.,0.,0.));
#305 = DIRECTION('',(0.,0.,1.));
#306 = DIRECTION('',(1.,0.,0.));
#307 = ADVANCED_FACE('',(#308),#425,.F.);
#308 = FACE_BOUND('',#309,.F.);
#309 = EDGE_LOOP('',(#310,#311,#319,#424));
#310 = ORIENTED_EDGE('',*,*,#57,.F.);
#311 = ORIENTED_EDGE('',*,*,#312,.F.);
#312 = EDGE_CURVE('',#313,#58,#315,.T.);
#313 = VERTEX_POINT('',#314);
#314 = CARTESIAN_POINT('',(-4.041334437186E-16,2.575,5.15));
#315 = LINE('',#316,#317);
#316 = CARTESIAN_POINT('',(-4.041334437186E-16,-9.,5.15));
#317 = VECTOR('',#318,1.);
#318 = DIRECTION('',(0.,1.,0.));
#319 = ORIENTED_EDGE('',*,*,#320,.T.);
#320 = EDGE_CURVE('',#313,#313,#321,.T.);
#321 = B_SPLINE_CURVE_WITH_KNOTS('',6,(#322,#323,#324,#325,#326,#327,
    #328,#329,#330,#331,#332,#333,#334,#335,#336,#337,#338,#339,#340,
    #341,#342,#343,#344,#345,#346,#347,#348,#349,#350,#351,#352,#353,
    #354,#355,#356,#357,#358,#359,#360,#361,#362,#363,#364,#365,#366,
    #367,#368,#369,#370,#371,#372,#373,#374,#375,#376,#377,#378,#379,
    #380,#381,#382,#383,#384,#385,#386,#387,#388,#389,#390,#391,#392,
    #393,#394,#395,#396,#397,#398,#399,#400,#401,#402,#403,#404,#405,
    #406,#407,#408,#409,#410,#411,#412,#413,#414,#415,#416,#417,#418,
    #419,#420,#421,#422,#423),.UNSPECIFIED.,.T.,.F.,(7,5,5,5,5,5,5,5,5,5
    ,5,5,5,5,5,5,5,5,5,5,7),(0.,6.00922195896E-02,8.558924751512E-02,
    0.145086104788,0.199039065803,0.250312953312,0.30053998452,
    0.356078215255,0.416106642784,0.463030382529,0.52567518499,
    0.560071709164,0.585659035752,0.646164049926,0.699865693761,
    0.75040279708,0.801382154553,0.854835496096,0.915722893251,
    0.940387162229,1.),.UNSPECIFIED.);
#322 = CARTESIAN_POINT('',(-2.22044604925E-16,2.575,5.15));
#323 = CARTESIAN_POINT('',(0.121776433061,2.575,5.15));
#324 = CARTESIAN_POINT('',(0.24276872134,2.568088966395,5.139214888715)
  );
#325 = CARTESIAN_POINT('',(0.361205468019,2.554435111843,5.117905226176)
  );
#326 = CARTESIAN_POINT('',(0.475359950974,2.534730187429,5.086845406762)
  );
#327 = CARTESIAN_POINT('',(0.583648359239,2.510174034867,5.047319223878)
  );
#328 = CARTESIAN_POINT('',(0.727613169503,2.470462169672,4.981654827587)
  );
#329 = CARTESIAN_POINT('',(0.76934501933,2.457993770369,4.960844244528)
  );
#330 = CARTESIAN_POINT('',(0.809907146154,2.444967512011,4.938866255895)
  );
#331 = CARTESIAN_POINT('',(0.84928865381,2.431462181172,4.915798622179)
  );
#332 = CARTESIAN_POINT('',(0.887482220802,2.417554971257,4.891715103705)
  );
#333 = CARTESIAN_POINT('',(1.010827322357,2.370107891843,4.808279237498)
  );
#334 = CARTESIAN_POINT('',(1.09069264743,2.335112658774,4.744713803046)
  );
#335 = CARTESIAN_POINT('',(1.164221829069,2.299219031764,4.676742624401)
  );
#336 = CARTESIAN_POINT('',(1.231586435475,2.263210719061,4.604909765934)
  );
#337 = CARTESIAN_POINT('',(1.292935291689,2.227817973125,4.529591582463)
  );
#338 = CARTESIAN_POINT('',(1.398585781531,2.162882544515,4.379804799256)
  );
#339 = CARTESIAN_POINT('',(1.443989317724,2.133074340893,4.305846007346)
  );
#340 = CARTESIAN_POINT('',(1.484514376617,2.104927088763,4.229447157408)
  );
#341 = CARTESIAN_POINT('',(1.520120174761,2.07902612171,4.150843775797)
  );
#342 = CARTESIAN_POINT('',(1.550741035035,2.055935080566,4.07022572528)
  );
#343 = CARTESIAN_POINT('',(1.600519842876,2.017399848965,3.909352378504)
  );
#344 = CARTESIAN_POINT('',(1.620188526433,2.001619239937,3.829221991191)
  );
#345 = CARTESIAN_POINT('',(1.635051411838,1.989374567605,3.747825060082)
  );
#346 = CARTESIAN_POINT('',(1.64500826952,1.981064113973,3.665575811062)
  );
#347 = CARTESIAN_POINT('',(1.65,1.976897822347,3.582847346948));
#348 = CARTESIAN_POINT('',(1.65,1.976897822347,3.418844143038));
#349 = CARTESIAN_POINT('',(1.645210016571,1.980895729242,3.337796451744)
  );
#350 = CARTESIAN_POINT('',(1.635653769145,1.988871809576,3.257199428649)
  );
#351 = CARTESIAN_POINT('',(1.62138632962,2.000632218007,3.177407005008)
  );
#352 = CARTESIAN_POINT('',(1.602501695253,2.015808387786,3.098810540115)
  );
#353 = CARTESIAN_POINT('',(1.553438914309,2.053902732013,2.936766754186)
  );
#354 = CARTESIAN_POINT('',(1.522263497984,2.077481510164,2.853637384443)
  );
#355 = CARTESIAN_POINT('',(1.485801487511,2.104068246744,2.772629743737)
  );
#356 = CARTESIAN_POINT('',(1.444124926182,2.133048364666,2.693951123945)
  );
#357 = CARTESIAN_POINT('',(1.397278428692,2.163782176895,2.617860065117)
  );
#358 = CARTESIAN_POINT('',(1.289130107674,2.230046843559,2.465564382971)
  );
#359 = CARTESIAN_POINT('',(1.226903000543,2.265802223945,2.389760033022)
  );
#360 = CARTESIAN_POINT('',(1.158545929573,2.302151156198,2.317517967548)
  );
#361 = CARTESIAN_POINT('',(1.08390418569,2.338342014464,2.249230965458)
  );
#362 = CARTESIAN_POINT('',(1.002802171982,2.373566189815,2.185467190286)
  );
#363 = CARTESIAN_POINT('',(0.846542534566,2.432975573696,2.081319759223)
  );
#364 = CARTESIAN_POINT('',(0.773830671604,2.457938489612,2.038789772058)
  );
#365 = CARTESIAN_POINT('',(0.697078259756,2.481276377558,1.999959337423)
  );
#366 = CARTESIAN_POINT('',(0.61645114496,2.502462115611,1.96535952349));
#367 = CARTESIAN_POINT('',(0.532168808419,2.520980368548,1.93552489672)
  );
#368 = CARTESIAN_POINT('',(0.327474964866,2.556853978998,1.878263768686)
  );
#369 = CARTESIAN_POINT('',(0.20417786084,2.571783454454,1.854925379747)
  );
#370 = CARTESIAN_POINT('',(7.708578411E-02,2.579599936976,1.842883941033
    ));
#371 = CARTESIAN_POINT('',(-5.109578265918E-02,2.579539711248,
    1.842931841511));
#372 = CARTESIAN_POINT('',(-0.177617296302,2.571814832319,1.854882479429
    ));
#373 = CARTESIAN_POINT('',(-0.367015688254,2.549606489116,1.889888128588
    ));
#374 = CARTESIAN_POINT('',(-0.432793078734,2.53974992741,1.905492563332)
  );
#375 = CARTESIAN_POINT('',(-0.496985301212,2.52806798617,1.924108545398)
  );
#376 = CARTESIAN_POINT('',(-0.559378406954,2.514753913314,1.945522943775
    ));
#377 = CARTESIAN_POINT('',(-0.619776461746,2.500029020467,1.969491488965
    ));
#378 = CARTESIAN_POINT('',(-0.721318438864,2.472314834593,2.015258600389
    ));
#379 = CARTESIAN_POINT('',(-0.763465884521,2.459837472135,2.036056044686
    ));
#380 = CARTESIAN_POINT('',(-0.804430244728,2.446786930815,2.058044241318
    ));
#381 = CARTESIAN_POINT('',(-0.844199518562,2.43324379557,2.081143364385)
  );
#382 = CARTESIAN_POINT('',(-0.882765448081,2.419287100048,2.105277565603
    ));
#383 = CARTESIAN_POINT('',(-1.008462194989,2.371196952089,2.189721505249
    ));
#384 = CARTESIAN_POINT('',(-1.090059621924,2.335514732853,2.254462286677
    ));
#385 = CARTESIAN_POINT('',(-1.165063729001,2.29888755298,2.323792038096)
  );
#386 = CARTESIAN_POINT('',(-1.233656475289,2.262147073713,2.397132444473
    ));
#387 = CARTESIAN_POINT('',(-1.295995613788,2.226067207648,2.474086496524
    ));
#388 = CARTESIAN_POINT('',(-1.402002400258,2.160658425035,2.625669273623
    ));
#389 = CARTESIAN_POINT('',(-1.447027686536,2.130998635124,2.699652374717
    ));
#390 = CARTESIAN_POINT('',(-1.487190325992,2.103021629844,2.776057702655
    ));
#391 = CARTESIAN_POINT('',(-1.52244725436,2.077310599519,2.854649863956)
  );
#392 = CARTESIAN_POINT('',(-1.552731603012,2.054426034263,2.935238687698
    ));
#393 = CARTESIAN_POINT('',(-1.601643442651,2.016497890602,3.095254285568
    ));
#394 = CARTESIAN_POINT('',(-1.620867729875,2.001059630163,3.174519634709
    ));
#395 = CARTESIAN_POINT('',(-1.635393091869,1.989089383342,3.255011657024
    ));
#396 = CARTESIAN_POINT('',(-1.645122762546,1.980968554519,3.336328723301
    ));
#397 = CARTESIAN_POINT('',(-1.65,1.976897822347,3.418108297621));
#398 = CARTESIAN_POINT('',(-1.65,1.976897822347,3.582608343088));
#399 = CARTESIAN_POINT('',(-1.645037028381,1.981040110889,3.665099343533
    ));
#400 = CARTESIAN_POINT('',(-1.635137269343,1.989302906531,3.747115222755
    ));
#401 = CARTESIAN_POINT('',(-1.620359243047,2.001478597284,3.828285628222
    ));
#402 = CARTESIAN_POINT('',(-1.600802282669,2.017173202506,3.90819962304)
  );
#403 = CARTESIAN_POINT('',(-1.551392744798,2.055438821814,4.068366952148
    ));
#404 = CARTESIAN_POINT('',(-1.52106819503,2.07832130268,4.14850900397));
#405 = CARTESIAN_POINT('',(-1.485820060091,2.103987744585,4.226666021834
    ));
#406 = CARTESIAN_POINT('',(-1.445713569042,2.131885308698,4.30265107327)
  );
#407 = CARTESIAN_POINT('',(-1.400790110988,2.161439486742,4.376232784205
    ));
#408 = CARTESIAN_POINT('',(-1.294475916774,2.226966484521,4.52789064756)
  );
#409 = CARTESIAN_POINT('',(-1.231605707049,2.263295392314,4.605251152391
    ));
#410 = CARTESIAN_POINT('',(-1.16240082199,2.300278375098,4.678945908061)
  );
#411 = CARTESIAN_POINT('',(-1.086699372259,2.337126485552,4.748568097659
    ));
#412 = CARTESIAN_POINT('',(-1.004315430938,2.372990853895,4.813524218914
    ));
#413 = CARTESIAN_POINT('',(-0.87895952032,2.420650745719,4.897074240374)
  );
#414 = CARTESIAN_POINT('',(-0.841697645267,2.434072379975,4.920260752594
    ));
#415 = CARTESIAN_POINT('',(-0.803317929693,2.447105909397,4.942481872966
    ));
#416 = CARTESIAN_POINT('',(-0.76382794624,2.459680460025,4.963669484069)
  );
#417 = CARTESIAN_POINT('',(-0.723238509741,2.471723830172,4.983752053845
    ));
#418 = CARTESIAN_POINT('',(-0.58083679038,2.510809407481,5.048341638964)
  );
#419 = CARTESIAN_POINT('',(-0.472992691968,2.535137598317,5.0874875914)
  );
#420 = CARTESIAN_POINT('',(-0.359362188325,2.554647380664,5.118236530865
    ));
#421 = CARTESIAN_POINT('',(-0.241509905204,2.56816102295,5.139327331638)
  );
#422 = CARTESIAN_POINT('',(-0.121139957039,2.575,5.15));
#423 = CARTESIAN_POINT('',(-2.22044604925E-16,2.575,5.15));
#424 = ORIENTED_EDGE('',*,*,#312,.T.);
#425 = CYLINDRICAL_SURFACE('',#426,1.65);
#426 = AXIS2_PLACEMENT_3D('',#427,#428,#429);
#427 = CARTESIAN_POINT('',(0.,-9.,3.5));
#428 = DIRECTION('',(0.,1.,0.));
#429 = DIRECTION('',(0.,0.,1.));
#430 = ADVANCED_FACE('',(#431),#548,.F.);
#431 = FACE_BOUND('',#432,.F.);
#432 = EDGE_LOOP('',(#433,#540,#546,#547));
#433 = ORIENTED_EDGE('',*,*,#434,.F.);
#434 = EDGE_CURVE('',#435,#435,#437,.T.);
#435 = VERTEX_POINT('',#436);
#436 = CARTESIAN_POINT('',(-4.041334437186E-16,-2.575,5.15));
#437 = B_SPLINE_CURVE_WITH_KNOTS('',6,(#438,#439,#440,#441,#442,#443,
    #444,#445,#446,#447,#448,#449,#450,#451,#452,#453,#454,#455,#456,
    #457,#458,#459,#460,#461,#462,#463,#464,#465,#466,#467,#468,#469,
    #470,#471,#472,#473,#474,#475,#476,#477,#478,#479,#480,#481,#482,
    #483,#484,#485,#486,#487,#488,#489,#490,#491,#492,#493,#494,#495,
    #496,#497,#498,#499,#500,#501,#502,#503,#504,#505,#506,#507,#508,
    #509,#510,#511,#512,#513,#514,#515,#516,#517,#518,#519,#520,#521,
    #522,#523,#524,#525,#526,#527,#528,#529,#530,#531,#532,#533,#534,
    #535,#536,#537,#538,#539),.UNSPECIFIED.,.T.,.F.,(7,5,5,5,5,5,5,5,5,5
    ,5,5,5,5,5,5,5,5,5,5,7),(0.,6.009222725177E-02,8.558925449534E-02,
    0.145086101722,0.199039053627,0.250312932478,0.300539955204,
    0.356078176561,0.4161065996,0.463030331887,0.525675124376,
    0.560071643083,0.585658969769,0.646163998681,0.699865650293,
    0.750402760931,0.801382125788,0.854835475072,0.915722881045,
    0.940387153596,1.),.UNSPECIFIED.);
#438 = CARTESIAN_POINT('',(-4.440892098501E-16,-2.575,5.15));
#439 = CARTESIAN_POINT('',(0.121776433061,-2.575,5.15));
#440 = CARTESIAN_POINT('',(0.24276872134,-2.568088966395,5.139214888715)
  );
#441 = CARTESIAN_POINT('',(0.361205468019,-2.554435111843,5.117905226176
    ));
#442 = CARTESIAN_POINT('',(0.475359950974,-2.534730187429,5.086845406762
    ));
#443 = CARTESIAN_POINT('',(0.583648359239,-2.510174034868,5.047319223878
    ));
#444 = CARTESIAN_POINT('',(0.727613162888,-2.470462171497,4.981654830604
    ));
#445 = CARTESIAN_POINT('',(0.769345020351,-2.45799376977,4.960844243422)
  );
#446 = CARTESIAN_POINT('',(0.809907152063,-2.444967510077,4.938866252588
    ));
#447 = CARTESIAN_POINT('',(0.849288655917,-2.431462180731,4.915798621505
    ));
#448 = CARTESIAN_POINT('',(0.887482215543,-2.41755497328,4.891715107262)
  );
#449 = CARTESIAN_POINT('',(1.010827322357,-2.370107891843,4.808279237499
    ));
#450 = CARTESIAN_POINT('',(1.09069264743,-2.335112658774,4.744713803046)
  );
#451 = CARTESIAN_POINT('',(1.164221829069,-2.299219031764,4.676742624401
    ));
#452 = CARTESIAN_POINT('',(1.231586435475,-2.263210719061,4.604909765934
    ));
#453 = CARTESIAN_POINT('',(1.292935291689,-2.227817973125,4.529591582463
    ));
#454 = CARTESIAN_POINT('',(1.398585781531,-2.162882544515,4.379804799256
    ));
#455 = CARTESIAN_POINT('',(1.443989317724,-2.133074340893,4.305846007346
    ));
#456 = CARTESIAN_POINT('',(1.484514376617,-2.104927088763,4.229447157408
    ));
#457 = CARTESIAN_POINT('',(1.520120174761,-2.07902612171,4.150843775797)
  );
#458 = CARTESIAN_POINT('',(1.550741035035,-2.055935080566,4.07022572528)
  );
#459 = CARTESIAN_POINT('',(1.600519842876,-2.017399848965,3.909352378504
    ));
#460 = CARTESIAN_POINT('',(1.620188526433,-2.001619239937,3.829221991191
    ));
#461 = CARTESIAN_POINT('',(1.635051411838,-1.989374567605,3.747825060082
    ));
#462 = CARTESIAN_POINT('',(1.64500826952,-1.981064113973,3.665575811062)
  );
#463 = CARTESIAN_POINT('',(1.65,-1.976897822347,3.582847346948));
#464 = CARTESIAN_POINT('',(1.65,-1.976897822347,3.418844143038));
#465 = CARTESIAN_POINT('',(1.645210016571,-1.980895729242,3.337796451744
    ));
#466 = CARTESIAN_POINT('',(1.635653769145,-1.988871809576,3.257199428649
    ));
#467 = CARTESIAN_POINT('',(1.62138632962,-2.000632218007,3.177407005008)
  );
#468 = CARTESIAN_POINT('',(1.602501695253,-2.015808387786,3.098810540115
    ));
#469 = CARTESIAN_POINT('',(1.553438914309,-2.053902732013,2.936766754186
    ));
#470 = CARTESIAN_POINT('',(1.522263497984,-2.077481510164,2.853637384443
    ));
#471 = CARTESIAN_POINT('',(1.485801487511,-2.104068246744,2.772629743737
    ));
#472 = CARTESIAN_POINT('',(1.444124926182,-2.133048364666,2.693951123945
    ));
#473 = CARTESIAN_POINT('',(1.397278428692,-2.163782176895,2.617860065117
    ));
#474 = CARTESIAN_POINT('',(1.289130102391,-2.230046846796,2.465564375531
    ));
#475 = CARTESIAN_POINT('',(1.226903011162,-2.265802218765,2.389760043614
    ));
#476 = CARTESIAN_POINT('',(1.158545928448,-2.302151156034,2.317517968683
    ));
#477 = CARTESIAN_POINT('',(1.083904174402,-2.338342019601,2.249230955365
    ));
#478 = CARTESIAN_POINT('',(1.002802179343,-2.373566187016,2.185467195192
    ));
#479 = CARTESIAN_POINT('',(0.84654253458,-2.432975573691,2.081319759232)
  );
#480 = CARTESIAN_POINT('',(0.7738306716,-2.457938489615,2.038789772053)
  );
#481 = CARTESIAN_POINT('',(0.697078259738,-2.481276377562,1.999959337416
    ));
#482 = CARTESIAN_POINT('',(0.616451144955,-2.50246211561,1.965359523491)
  );
#483 = CARTESIAN_POINT('',(0.53216880844,-2.520980368545,1.935524896726)
  );
#484 = CARTESIAN_POINT('',(0.327474964866,-2.556853978998,1.878263768686
    ));
#485 = CARTESIAN_POINT('',(0.20417786084,-2.571783454454,1.854925379747)
  );
#486 = CARTESIAN_POINT('',(7.708578411018E-02,-2.579599936976,
    1.842883941033));
#487 = CARTESIAN_POINT('',(-5.109578265933E-02,-2.579539711248,
    1.842931841511));
#488 = CARTESIAN_POINT('',(-0.177617296302,-2.571814832319,
    1.854882479429));
#489 = CARTESIAN_POINT('',(-0.36701568827,-2.549606489114,1.889888128591
    ));
#490 = CARTESIAN_POINT('',(-0.43279307873,-2.539749927409,1.905492563332
    ));
#491 = CARTESIAN_POINT('',(-0.496985301198,-2.528067986173,
    1.924108545394));
#492 = CARTESIAN_POINT('',(-0.559378406951,-2.514753913316,
    1.945522943772));
#493 = CARTESIAN_POINT('',(-0.619776461758,-2.500029020464,1.96949148897
    ));
#494 = CARTESIAN_POINT('',(-0.721318445907,-2.472314832671,
    2.015258603564));
#495 = CARTESIAN_POINT('',(-0.763465883436,-2.459837472771,
    2.036056043514));
#496 = CARTESIAN_POINT('',(-0.804430238441,-2.446786932858,2.05804423783
    ));
#497 = CARTESIAN_POINT('',(-0.844199516317,-2.433243796033,
    2.081143363679));
#498 = CARTESIAN_POINT('',(-0.882765453673,-2.419287097909,
    2.105277569359));
#499 = CARTESIAN_POINT('',(-1.008462202941,-2.371196949047,
    2.189721510591));
#500 = CARTESIAN_POINT('',(-1.090059610055,-2.335514738251,
    2.254462276065));
#501 = CARTESIAN_POINT('',(-1.165063727771,-2.298887552813,
    2.323792039326));
#502 = CARTESIAN_POINT('',(-1.23365648648,-2.262147068244,2.397132455691
    ));
#503 = CARTESIAN_POINT('',(-1.295995608242,-2.22606721107,2.474086488594
    ));
#504 = CARTESIAN_POINT('',(-1.402002400258,-2.160658425035,
    2.625669273623));
#505 = CARTESIAN_POINT('',(-1.447027686536,-2.130998635124,
    2.699652374717));
#506 = CARTESIAN_POINT('',(-1.487190325992,-2.103021629844,
    2.776057702655));
#507 = CARTESIAN_POINT('',(-1.522447254359,-2.077310599519,
    2.854649863956));
#508 = CARTESIAN_POINT('',(-1.552731603012,-2.054426034263,
    2.935238687698));
#509 = CARTESIAN_POINT('',(-1.601643442651,-2.016497890602,
    3.095254285568));
#510 = CARTESIAN_POINT('',(-1.620867729875,-2.001059630163,
    3.174519634709));
#511 = CARTESIAN_POINT('',(-1.635393091869,-1.989089383342,
    3.255011657025));
#512 = CARTESIAN_POINT('',(-1.645122762546,-1.980968554519,
    3.336328723301));
#513 = CARTESIAN_POINT('',(-1.65,-1.976897822347,3.418108297621));
#514 = CARTESIAN_POINT('',(-1.65,-1.976897822347,3.582608343088));
#515 = CARTESIAN_POINT('',(-1.645037028381,-1.981040110889,
    3.665099343533));
#516 = CARTESIAN_POINT('',(-1.635137269343,-1.989302906531,
    3.747115222755));
#517 = CARTESIAN_POINT('',(-1.620359243047,-2.001478597284,
    3.828285628221));
#518 = CARTESIAN_POINT('',(-1.600802282669,-2.017173202506,3.90819962304
    ));
#519 = CARTESIAN_POINT('',(-1.551392744798,-2.055438821814,
    4.068366952148));
#520 = CARTESIAN_POINT('',(-1.52106819503,-2.07832130268,4.14850900397)
  );
#521 = CARTESIAN_POINT('',(-1.485820060091,-2.103987744585,
    4.226666021834));
#522 = CARTESIAN_POINT('',(-1.445713569042,-2.131885308698,4.30265107327
    ));
#523 = CARTESIAN_POINT('',(-1.400790110988,-2.161439486742,
    4.376232784205));
#524 = CARTESIAN_POINT('',(-1.294475916774,-2.226966484521,4.52789064756
    ));
#525 = CARTESIAN_POINT('',(-1.231605707049,-2.263295392314,
    4.605251152391));
#526 = CARTESIAN_POINT('',(-1.16240082199,-2.300278375098,4.678945908061
    ));
#527 = CARTESIAN_POINT('',(-1.086699372259,-2.337126485552,
    4.748568097659));
#528 = CARTESIAN_POINT('',(-1.004315430938,-2.372990853895,
    4.813524218914));
#529 = CARTESIAN_POINT('',(-0.87895952032,-2.420650745719,4.897074240374
    ));
#530 = CARTESIAN_POINT('',(-0.841697645267,-2.434072379975,
    4.920260752594));
#531 = CARTESIAN_POINT('',(-0.803317929693,-2.447105909397,
    4.942481872966));
#532 = CARTESIAN_POINT('',(-0.76382794624,-2.459680460025,4.963669484069
    ));
#533 = CARTESIAN_POINT('',(-0.723238509741,-2.471723830172,
    4.983752053845));
#534 = CARTESIAN_POINT('',(-0.58083679038,-2.510809407481,5.048341638964
    ));
#535 = CARTESIAN_POINT('',(-0.472992691968,-2.535137598317,5.0874875914)
  );
#536 = CARTESIAN_POINT('',(-0.359362188326,-2.554647380664,
    5.118236530865));
#537 = CARTESIAN_POINT('',(-0.241509905204,-2.56816102295,5.139327331638
    ));
#538 = CARTESIAN_POINT('',(-0.121139957038,-2.575,5.15));
#539 = CARTESIAN_POINT('',(-4.440892098501E-16,-2.575,5.15));
#540 = ORIENTED_EDGE('',*,*,#541,.F.);
#541 = EDGE_CURVE('',#123,#435,#542,.T.);
#542 = LINE('',#543,#544);
#543 = CARTESIAN_POINT('',(-4.041334437186E-16,-9.,5.15));
#544 = VECTOR('',#545,1.);
#545 = DIRECTION('',(0.,1.,0.));
#546 = ORIENTED_EDGE('',*,*,#122,.T.);
#547 = ORIENTED_EDGE('',*,*,#541,.T.);
#548 = CYLINDRICAL_SURFACE('',#549,1.65);
#549 = AXIS2_PLACEMENT_3D('',#550,#551,#552);
#550 = CARTESIAN_POINT('',(0.,-9.,3.5));
#551 = DIRECTION('',(0.,1.,0.));
#552 = DIRECTION('',(0.,0.,1.));
#553 = ADVANCED_FACE('',(#554),#560,.T.);
#554 = FACE_BOUND('',#555,.T.);
#555 = EDGE_LOOP('',(#556,#557,#558,#559));
#556 = ORIENTED_EDGE('',*,*,#267,.F.);
#557 = ORIENTED_EDGE('',*,*,#286,.T.);
#558 = ORIENTED_EDGE('',*,*,#243,.T.);
#559 = ORIENTED_EDGE('',*,*,#210,.F.);
#560 = PLANE('',#561);
#561 = AXIS2_PLACEMENT_3D('',#562,#563,#564);
#562 = CARTESIAN_POINT('',(5.,-4.5,-1.));
#563 = DIRECTION('',(1.,0.,0.));
#564 = DIRECTION('',(0.,0.,1.));
#565 = ADVANCED_FACE('',(#566,#577,#580),#583,.F.);
#566 = FACE_BOUND('',#567,.F.);
#567 = EDGE_LOOP('',(#568,#574,#575,#576));
#568 = ORIENTED_EDGE('',*,*,#569,.T.);
#569 = EDGE_CURVE('',#295,#219,#570,.T.);
#570 = LINE('',#571,#572);
#571 = CARTESIAN_POINT('',(2.575,-6.306931015609E-16,0.));
#572 = VECTOR('',#573,1.);
#573 = DIRECTION('',(0.,0.,1.));
#574 = ORIENTED_EDGE('',*,*,#218,.F.);
#575 = ORIENTED_EDGE('',*,*,#569,.F.);
#576 = ORIENTED_EDGE('',*,*,#294,.T.);
#577 = FACE_BOUND('',#578,.F.);
#578 = EDGE_LOOP('',(#579));
#579 = ORIENTED_EDGE('',*,*,#320,.F.);
#580 = FACE_BOUND('',#581,.F.);
#581 = EDGE_LOOP('',(#582));
#582 = ORIENTED_EDGE('',*,*,#434,.T.);
#583 = CYLINDRICAL_SURFACE('',#584,2.575);
#584 = AXIS2_PLACEMENT_3D('',#585,#586,#587);
#585 = CARTESIAN_POINT('',(0.,0.,0.));
#586 = DIRECTION('',(0.,0.,1.));
#587 = DIRECTION('',(1.,0.,0.));
#588 = ( GEOMETRIC_REPRESENTATION_CONTEXT(3) 
GLOBAL_UNCERTAINTY_ASSIGNED_CONTEXT((#592)) GLOBAL_UNIT_ASSIGNED_CONTEXT
((#589,#590,#591)) REPRESENTATION_CONTEXT('Context #1',
  '3D Context with UNIT and UNCERTAINTY') );
#589 = ( LENGTH_UNIT() NAMED_UNIT(*) SI_UNIT(.MILLI.,.METRE.) );
#590 = ( NAMED_UNIT(*) PLANE_ANGLE_UNIT() SI_UNIT($,.RADIAN.) );
#591 = ( NAMED_UNIT(*) SI_UNIT($,.STERADIAN.) SOLID_ANGLE_UNIT() );
#592 = UNCERTAINTY_MEASURE_WITH_UNIT(LENGTH_MEASURE(1.E-07),#589,
  'distance_accuracy_value','confusion accuracy');
#593 = PRODUCT_RELATED_PRODUCT_CATEGORY('part',$,(#7));
ENDSEC;
END-ISO-10303-21;
