ISO-10303-21;
HEADER;
FILE_DESCRIPTION(('FreeCAD Model'),'2;1');
FILE_NAME('Open CASCADE Shape Model','2026-07-24T20:42:46',('FreeCAD'),(
    'FreeCAD'),'Open CASCADE STEP processor 7.8','FreeCAD','Unknown');
FILE_SCHEMA(('AUTOMOTIVE_DESIGN { 1 0 10303 214 1 1 1 1 }'));
ENDSEC;
DATA;
#1 = APPLICATION_PROTOCOL_DEFINITION('international standard',
  'automotive_design',2000,#2);
#2 = APPLICATION_CONTEXT(
  'core data for automotive mechanical design processes');
#3 = SHAPE_DEFINITION_REPRESENTATION(#4,#10);
#4 = PRODUCT_DEFINITION_SHAPE('','',#5);
#5 = PRODUCT_DEFINITION('design','',#6,#9);
#6 = PRODUCT_DEFINITION_FORMATION('','',#7);
#7 = PRODUCT('Open CASCADE STEP translator 7.8 163',
  'Open CASCADE STEP translator 7.8 163','',(#8));
#8 = PRODUCT_CONTEXT('',#2,'mechanical');
#9 = PRODUCT_DEFINITION_CONTEXT('part definition',#2,'design');
#10 = ADVANCED_BREP_SHAPE_REPRESENTATION('',(#11,#15),#1317);
#11 = AXIS2_PLACEMENT_3D('',#12,#13,#14);
#12 = CARTESIAN_POINT('',(0.,0.,0.));
#13 = DIRECTION('',(0.,0.,1.));
#14 = DIRECTION('',(1.,0.,-0.));
#15 = MANIFOLD_SOLID_BREP('',#16);
#16 = CLOSED_SHELL('',(#17,#297,#373,#408,#443,#505,#757,#916,#928,#945,
    #973,#990,#1252,#1279,#1291,#1307));
#17 = ADVANCED_FACE('',(#18,#54,#173),#292,.T.);
#18 = FACE_BOUND('',#19,.T.);
#19 = EDGE_LOOP('',(#20,#31,#39,#48));
#20 = ORIENTED_EDGE('',*,*,#21,.F.);
#21 = EDGE_CURVE('',#22,#24,#26,.T.);
#22 = VERTEX_POINT('',#23);
#23 = CARTESIAN_POINT('',(390.98362417419,260.6,12.));
#24 = VERTEX_POINT('',#25);
#25 = CARTESIAN_POINT('',(390.98362417419,259.4,12.));
#26 = CIRCLE('',#27,11.);
#27 = AXIS2_PLACEMENT_3D('',#28,#29,#30);
#28 = CARTESIAN_POINT('',(380.,260.,12.));
#29 = DIRECTION('',(0.,0.,1.));
#30 = DIRECTION('',(1.,0.,0.));
#31 = ORIENTED_EDGE('',*,*,#32,.F.);
#32 = EDGE_CURVE('',#33,#22,#35,.T.);
#33 = VERTEX_POINT('',#34);
#34 = CARTESIAN_POINT('',(390.98362417419,260.6,0.));
#35 = LINE('',#36,#37);
#36 = CARTESIAN_POINT('',(390.98362417419,260.6,0.));
#37 = VECTOR('',#38,1.);
#38 = DIRECTION('',(0.,0.,1.));
#39 = ORIENTED_EDGE('',*,*,#40,.T.);
#40 = EDGE_CURVE('',#33,#41,#43,.T.);
#41 = VERTEX_POINT('',#42);
#42 = CARTESIAN_POINT('',(390.98362417419,259.4,0.));
#43 = CIRCLE('',#44,11.);
#44 = AXIS2_PLACEMENT_3D('',#45,#46,#47);
#45 = CARTESIAN_POINT('',(380.,260.,0.));
#46 = DIRECTION('',(0.,0.,1.));
#47 = DIRECTION('',(1.,0.,0.));
#48 = ORIENTED_EDGE('',*,*,#49,.T.);
#49 = EDGE_CURVE('',#41,#24,#50,.T.);
#50 = LINE('',#51,#52);
#51 = CARTESIAN_POINT('',(390.98362417419,259.4,0.));
#52 = VECTOR('',#53,1.);
#53 = DIRECTION('',(0.,0.,1.));
#54 = FACE_BOUND('',#55,.T.);
#55 = EDGE_LOOP('',(#56));
#56 = ORIENTED_EDGE('',*,*,#57,.T.);
#57 = EDGE_CURVE('',#58,#58,#60,.T.);
#58 = VERTEX_POINT('',#59);
#59 = CARTESIAN_POINT('',(386.,250.7804555427,7.65));
#60 = B_SPLINE_CURVE_WITH_KNOTS('',6,(#61,#62,#63,#64,#65,#66,#67,#68,
    #69,#70,#71,#72,#73,#74,#75,#76,#77,#78,#79,#80,#81,#82,#83,#84,#85,
    #86,#87,#88,#89,#90,#91,#92,#93,#94,#95,#96,#97,#98,#99,#100,#101,
    #102,#103,#104,#105,#106,#107,#108,#109,#110,#111,#112,#113,#114,
    #115,#116,#117,#118,#119,#120,#121,#122,#123,#124,#125,#126,#127,
    #128,#129,#130,#131,#132,#133,#134,#135,#136,#137,#138,#139,#140,
    #141,#142,#143,#144,#145,#146,#147,#148,#149,#150,#151,#152,#153,
    #154,#155,#156,#157,#158,#159,#160,#161,#162,#163,#164,#165,#166,
    #167,#168,#169,#170,#171,#172),.UNSPECIFIED.,.T.,.F.,(7,5,5,5,5,5,5,
    5,5,5,5,5,5,5,5,5,5,5,5,5,5,5,7),(0.,5.524809854071E-02,
    0.104041427879,0.161684470352,0.187524338281,0.212100908122,
    0.257958533791,0.30368353208,0.354808316533,0.411781775267,
    0.472652414063,0.527316304578,0.576459119044,0.612028411267,
    0.657562330634,0.688446852405,0.757974539841,0.806687496597,
    0.82784487875,0.858549690582,0.887054063532,0.938953747451,1.),
  .UNSPECIFIED.);
#61 = CARTESIAN_POINT('',(386.,250.7804555427,7.65));
#62 = CARTESIAN_POINT('',(386.0976482055,250.84400415248,7.65));
#63 = CARTESIAN_POINT('',(386.19415346997,250.90857558732,7.643065217576
    ));
#64 = CARTESIAN_POINT('',(386.28898663391,250.97380308922,7.629500537981
    ));
#65 = CARTESIAN_POINT('',(386.38167119008,251.03928992544,7.60963551795)
  );
#66 = CARTESIAN_POINT('',(386.471777593,251.10461483779,7.583825590339)
  );
#67 = CARTESIAN_POINT('',(386.63587676936,251.22649844163,7.524746251545
    ));
#68 = CARTESIAN_POINT('',(386.71056853903,251.28322410457,7.492684213042
    ));
#69 = CARTESIAN_POINT('',(386.78281926008,251.33928397038,7.45648508259)
  );
#70 = CARTESIAN_POINT('',(386.85246706427,251.39443661779,7.416347935837
    ));
#71 = CARTESIAN_POINT('',(386.91935795379,251.44843035297,7.372453960096
    ));
#72 = CARTESIAN_POINT('',(387.05893075172,251.56311266999,7.268868180233
    ));
#73 = CARTESIAN_POINT('',(387.13049276261,251.62326402911,7.207732756292
    ));
#74 = CARTESIAN_POINT('',(387.19776793829,251.68101942139,7.141826815496
    ));
#75 = CARTESIAN_POINT('',(387.26048965742,251.73590654727,7.07139862838)
  );
#76 = CARTESIAN_POINT('',(387.31837527402,251.78742232551,6.996682005311
    ));
#77 = CARTESIAN_POINT('',(387.3947592974,251.85637983025,6.882582977827)
  );
#78 = CARTESIAN_POINT('',(387.41736520626,251.87693707499,6.846453851831
    ));
#79 = CARTESIAN_POINT('',(387.43890031864,251.89665375024,6.809542562732
    ));
#80 = CARTESIAN_POINT('',(387.45933129424,251.91547685417,6.771880419869
    ));
#81 = CARTESIAN_POINT('',(387.47862555748,251.93335427422,6.733499334614
    ));
#82 = CARTESIAN_POINT('',(387.51399087942,251.96629002032,6.65727429717)
  );
#83 = CARTESIAN_POINT('',(387.53017372905,251.98144397736,6.619494780925
    ));
#84 = CARTESIAN_POINT('',(387.54526706097,251.99564746634,6.581132814837
    ));
#85 = CARTESIAN_POINT('',(387.55924062798,252.00885476079,6.542228654673
    ));
#86 = CARTESIAN_POINT('',(387.57206672121,252.02102359975,6.502823268764
    ));
#87 = CARTESIAN_POINT('',(387.60546443717,252.05281107386,6.388574032811
    ));
#88 = CARTESIAN_POINT('',(387.62313678894,252.06976736161,6.312551049031
    ));
#89 = CARTESIAN_POINT('',(387.63652926107,252.08269107613,6.235280885868
    ));
#90 = CARTESIAN_POINT('',(387.64550665601,252.09138049114,6.157162684801
    ));
#91 = CARTESIAN_POINT('',(387.65,252.09572900262,6.078600405211));
#92 = CARTESIAN_POINT('',(387.65,252.09572900262,5.921626919377));
#93 = CARTESIAN_POINT('',(387.64553261178,252.0914056074,5.84329144976)
  );
#94 = CARTESIAN_POINT('',(387.63660697659,252.0827663001,5.76539621477)
  );
#95 = CARTESIAN_POINT('',(387.62329131362,252.06991648284,5.68834187319)
  );
#96 = CARTESIAN_POINT('',(387.60571935605,252.05305566703,5.612524333959
    ));
#97 = CARTESIAN_POINT('',(387.55992075187,252.00946107667,5.455378035751
    ));
#98 = CARTESIAN_POINT('',(387.53068689919,251.98180190739,5.374475737071
    ));
#99 = CARTESIAN_POINT('',(387.49662417552,251.94984332958,5.295941215669
    ));
#100 = CARTESIAN_POINT('',(387.45797581575,251.91397759551,
    5.220079631062));
#101 = CARTESIAN_POINT('',(387.41501293217,251.87463331043,
    5.147183916033));
#102 = CARTESIAN_POINT('',(387.31571049933,251.78505336509,
    4.999915143167));
#103 = CARTESIAN_POINT('',(387.25836715457,251.73405417879,
    4.926273135162));
#104 = CARTESIAN_POINT('',(387.19631398973,251.67977964836,
    4.856821110581));
#105 = CARTESIAN_POINT('',(387.12982280958,251.62271366904,
    4.791783969441));
#106 = CARTESIAN_POINT('',(387.05915003491,251.56331069047,
    4.731400609971));
#107 = CARTESIAN_POINT('',(386.90483762298,251.43648071299,
    4.616658040476));
#108 = CARTESIAN_POINT('',(386.82059815791,251.36874713462,
    4.562961007684));
#109 = CARTESIAN_POINT('',(386.7321221166,251.29930316674,4.515162269804
    ));
#110 = CARTESIAN_POINT('',(386.63971837153,251.22863946352,
    4.473626024733));
#111 = CARTESIAN_POINT('',(386.54372201438,251.15722383257,
    4.438756794633));
#112 = CARTESIAN_POINT('',(386.35540814726,251.02108722091,
    4.386077806989));
#113 = CARTESIAN_POINT('',(386.26366261605,250.9563891711,4.366877409387
    ));
#114 = CARTESIAN_POINT('',(386.16972566445,250.89186280839,4.35379122688
    ));
#115 = CARTESIAN_POINT('',(386.07409520375,250.82793843163,
    4.347159116187));
#116 = CARTESIAN_POINT('',(385.97731433435,250.76501332286,
    4.347271684097));
#117 = CARTESIAN_POINT('',(385.79246527344,250.64809819877,
    4.360753871635));
#118 = CARTESIAN_POINT('',(385.70452423499,250.59386012066,
    4.372782027072));
#119 = CARTESIAN_POINT('',(385.61678451539,250.5411225169,4.390610268659
    ));
#120 = CARTESIAN_POINT('',(385.52988503072,250.49021118122,
    4.414277729696));
#121 = CARTESIAN_POINT('',(385.44445694405,250.4413913508,4.4437083422)
  );
#122 = CARTESIAN_POINT('',(385.30078485713,250.36120065522,
    4.504045716476));
#123 = CARTESIAN_POINT('',(385.24157916656,250.32875123477,
    4.532287026089));
#124 = CARTESIAN_POINT('',(385.18372927704,250.29760396962,
    4.563353668284));
#125 = CARTESIAN_POINT('',(385.12745962397,250.26782113271,
    4.597131895638));
#126 = CARTESIAN_POINT('',(385.07297921841,250.23944860534,
    4.633475589797));
#127 = CARTESIAN_POINT('',(384.9532678399,250.17804279193,4.721787488594
    ));
#128 = CARTESIAN_POINT('',(384.8893267146,250.14594385001,4.775261478959
    ));
#129 = CARTESIAN_POINT('',(384.82895457996,250.11623636741,
    4.832315923147));
#130 = CARTESIAN_POINT('',(384.77241401272,250.0889122461,4.892598585622
    ));
#131 = CARTESIAN_POINT('',(384.71992171693,250.06394529812,
    4.955718204236));
#132 = CARTESIAN_POINT('',(384.63889242008,250.02593435246,
    5.065690640878));
#133 = CARTESIAN_POINT('',(384.6080690328,250.01163279764,5.111260653685
    ));
#134 = CARTESIAN_POINT('',(384.57920183592,249.99837056358,
    5.157852670876));
#135 = CARTESIAN_POINT('',(384.55231680071,249.98612722784,
    5.205363722421));
#136 = CARTESIAN_POINT('',(384.52743429167,249.97488319807,
    5.253690503771));
#137 = CARTESIAN_POINT('',(384.4530945371,249.94151440195,5.413126402437
    ));
#138 = CARTESIAN_POINT('',(384.41186140989,249.92338676437,
    5.527093420239));
#139 = CARTESIAN_POINT('',(384.38092358325,249.90997323631,
    5.643656282806));
#140 = CARTESIAN_POINT('',(384.36030324484,249.90109498684,
    5.761906995576));
#141 = CARTESIAN_POINT('',(384.35,249.89665896844,5.88097525706));
#142 = CARTESIAN_POINT('',(384.35,249.89665896844,6.083391917229));
#143 = CARTESIAN_POINT('',(384.35505750165,249.89883646524,
    6.166789481549));
#144 = CARTESIAN_POINT('',(384.36517430025,249.90319229806,
    6.249906402308));
#145 = CARTESIAN_POINT('',(384.38035120377,249.90974919185,
    6.332450715618));
#146 = CARTESIAN_POINT('',(384.40058737905,249.91855198972,
    6.414123282982));
#147 = CARTESIAN_POINT('',(384.43686485021,249.93449582566,
    6.529576625361));
#148 = CARTESIAN_POINT('',(384.44880293906,249.93975973377,
    6.564311847393));
#149 = CARTESIAN_POINT('',(384.46169315904,249.94546487992,
    6.598795165268));
#150 = CARTESIAN_POINT('',(384.47553379244,249.95161695602,
    6.632998628052));
#151 = CARTESIAN_POINT('',(384.49032220913,249.95822207551,
    6.666893124625));
#152 = CARTESIAN_POINT('',(384.5288870053,249.97553947,6.749145708705));
#153 = CARTESIAN_POINT('',(384.55371107331,249.98676148254,
    6.797135600303));
#154 = CARTESIAN_POINT('',(384.5805123748,249.99897125114,6.844316168634
    ));
#155 = CARTESIAN_POINT('',(384.60927071018,250.01218800255,
    6.890585870308));
#156 = CARTESIAN_POINT('',(384.63996037601,250.02643175013,
    6.935843508389));
#157 = CARTESIAN_POINT('',(384.70280442959,250.05591897986,
    7.020969355609));
#158 = CARTESIAN_POINT('',(384.73469725895,250.07101794607,
    7.060992539256));
#159 = CARTESIAN_POINT('',(384.76819153309,250.08703137845,
    7.099960639448));
#160 = CARTESIAN_POINT('',(384.80324361402,250.10396860833,7.13778081266
    ));
#161 = CARTESIAN_POINT('',(384.83980334571,250.1218371125,7.17436451573)
  );
#162 = CARTESIAN_POINT('',(384.94702251409,250.17488267527,
    7.273833024257));
#163 = CARTESIAN_POINT('',(385.02108530679,250.21225012148,
    7.333700313175));
#164 = CARTESIAN_POINT('',(385.0995287068,250.25271274531,7.388578370224
    ));
#165 = CARTESIAN_POINT('',(385.18177758305,250.2961861265,7.437946163762
    ));
#166 = CARTESIAN_POINT('',(385.26718099106,250.34251995889,
    7.481413913526));
#167 = CARTESIAN_POINT('',(385.45837802532,250.44907828591,
    7.562610257518));
#168 = CARTESIAN_POINT('',(385.56492372504,250.5102065542,7.597897645714
    ));
#169 = CARTESIAN_POINT('',(385.67354536482,250.57449013963,
    7.624243108962));
#170 = CARTESIAN_POINT('',(385.78304999224,250.64141750842,
    7.641556206631));
#171 = CARTESIAN_POINT('',(385.8922496407,250.71033253839,7.65));
#172 = CARTESIAN_POINT('',(386.,250.7804555427,7.65));
#173 = FACE_BOUND('',#174,.T.);
#174 = EDGE_LOOP('',(#175));
#175 = ORIENTED_EDGE('',*,*,#176,.F.);
#176 = EDGE_CURVE('',#177,#177,#179,.T.);
#177 = VERTEX_POINT('',#178);
#178 = CARTESIAN_POINT('',(386.,269.21954445729,7.65));
#179 = B_SPLINE_CURVE_WITH_KNOTS('',6,(#180,#181,#182,#183,#184,#185,
    #186,#187,#188,#189,#190,#191,#192,#193,#194,#195,#196,#197,#198,
    #199,#200,#201,#202,#203,#204,#205,#206,#207,#208,#209,#210,#211,
    #212,#213,#214,#215,#216,#217,#218,#219,#220,#221,#222,#223,#224,
    #225,#226,#227,#228,#229,#230,#231,#232,#233,#234,#235,#236,#237,
    #238,#239,#240,#241,#242,#243,#244,#245,#246,#247,#248,#249,#250,
    #251,#252,#253,#254,#255,#256,#257,#258,#259,#260,#261,#262,#263,
    #264,#265,#266,#267,#268,#269,#270,#271,#272,#273,#274,#275,#276,
    #277,#278,#279,#280,#281,#282,#283,#284,#285,#286,#287,#288,#289,
    #290,#291),.UNSPECIFIED.,.T.,.F.,(7,5,5,5,5,5,5,5,5,5,5,5,5,5,5,5,5,
    5,5,5,5,5,7),(0.,5.524809721622E-02,0.104041425385,0.161684466476,
    0.187524331191,0.212100898474,0.257958524824,0.303683523791,
    0.354808309002,0.411781768581,0.47265240828,0.527316299605,
    0.576459114799,0.61202840755,0.657562327592,0.688446849821,
    0.757974536249,0.806687493635,0.827844876062,0.858549688291,
    0.887054061656,0.938953746416,1.),.UNSPECIFIED.);
#180 = CARTESIAN_POINT('',(386.,269.21954445729,7.65));
#181 = CARTESIAN_POINT('',(386.0976482055,269.15599584751,7.65));
#182 = CARTESIAN_POINT('',(386.19415346997,269.09142441267,
    7.643065217576));
#183 = CARTESIAN_POINT('',(386.28898663391,269.02619691077,
    7.629500537981));
#184 = CARTESIAN_POINT('',(386.38167119008,268.96071007455,7.60963551795
    ));
#185 = CARTESIAN_POINT('',(386.471777593,268.8953851622,7.583825590339)
  );
#186 = CARTESIAN_POINT('',(386.63587676936,268.77350155836,
    7.524746251545));
#187 = CARTESIAN_POINT('',(386.71056853903,268.71677589542,
    7.492684213042));
#188 = CARTESIAN_POINT('',(386.78281926008,268.66071602961,7.45648508259
    ));
#189 = CARTESIAN_POINT('',(386.85246706427,268.60556338221,
    7.416347935837));
#190 = CARTESIAN_POINT('',(386.91935795379,268.55156964702,
    7.372453960096));
#191 = CARTESIAN_POINT('',(387.05893075172,268.43688733,7.268868180233)
  );
#192 = CARTESIAN_POINT('',(387.13049276261,268.37673597088,
    7.207732756292));
#193 = CARTESIAN_POINT('',(387.19776793829,268.3189805786,7.141826815496
    ));
#194 = CARTESIAN_POINT('',(387.26048965742,268.26409345272,7.07139862838
    ));
#195 = CARTESIAN_POINT('',(387.31837527402,268.21257767448,
    6.996682005311));
#196 = CARTESIAN_POINT('',(387.39475929503,268.14362017188,
    6.882582981374));
#197 = CARTESIAN_POINT('',(387.41736520658,268.12306292468,
    6.846453850704));
#198 = CARTESIAN_POINT('',(387.43890032073,268.10334624784,
    6.809542559012));
#199 = CARTESIAN_POINT('',(387.45933129502,268.08452314512,
    6.771880419005));
#200 = CARTESIAN_POINT('',(387.47862555568,268.06664572744,6.73349933849
    ));
#201 = CARTESIAN_POINT('',(387.51399088148,268.03370997775,
    6.657274292728));
#202 = CARTESIAN_POINT('',(387.53017372886,268.01855602282,
    6.619494782274));
#203 = CARTESIAN_POINT('',(387.54526705924,268.00435253527,
    6.581132819438));
#204 = CARTESIAN_POINT('',(387.55924062725,267.99114523987,
    6.542228655785));
#205 = CARTESIAN_POINT('',(387.5720667226,267.97897639892,6.502823264026
    ));
#206 = CARTESIAN_POINT('',(387.60546443717,267.94718892613,
    6.388574032811));
#207 = CARTESIAN_POINT('',(387.62313678894,267.93023263838,
    6.312551049031));
#208 = CARTESIAN_POINT('',(387.63652926107,267.91730892386,
    6.235280885868));
#209 = CARTESIAN_POINT('',(387.64550665601,267.90861950886,
    6.157162684801));
#210 = CARTESIAN_POINT('',(387.65,267.90427099737,6.078600405211));
#211 = CARTESIAN_POINT('',(387.65,267.90427099737,5.921626919377));
#212 = CARTESIAN_POINT('',(387.64553261178,267.90859439259,5.84329144976
    ));
#213 = CARTESIAN_POINT('',(387.63660697659,267.9172336999,5.76539621477)
  );
#214 = CARTESIAN_POINT('',(387.62329131362,267.93008351715,5.68834187319
    ));
#215 = CARTESIAN_POINT('',(387.60571935605,267.94694433296,
    5.612524333959));
#216 = CARTESIAN_POINT('',(387.55992075187,267.99053892332,
    5.455378035751));
#217 = CARTESIAN_POINT('',(387.53068689919,268.0181980926,5.374475737071
    ));
#218 = CARTESIAN_POINT('',(387.49662417552,268.05015667042,
    5.295941215669));
#219 = CARTESIAN_POINT('',(387.45797581575,268.08602240448,
    5.220079631062));
#220 = CARTESIAN_POINT('',(387.41501293217,268.12536668956,
    5.147183916033));
#221 = CARTESIAN_POINT('',(387.31571049933,268.21494663491,
    4.999915143167));
#222 = CARTESIAN_POINT('',(387.25836715457,268.2659458212,4.926273135162
    ));
#223 = CARTESIAN_POINT('',(387.19631398973,268.32022035163,4.85682111058
    ));
#224 = CARTESIAN_POINT('',(387.12982280958,268.37728633095,
    4.791783969441));
#225 = CARTESIAN_POINT('',(387.05915003491,268.43668930952,
    4.731400609971));
#226 = CARTESIAN_POINT('',(386.90483762298,268.563519287,4.616658040476)
  );
#227 = CARTESIAN_POINT('',(386.82059815791,268.63125286537,
    4.562961007684));
#228 = CARTESIAN_POINT('',(386.7321221166,268.70069683325,4.515162269804
    ));
#229 = CARTESIAN_POINT('',(386.63971837153,268.77136053647,
    4.473626024733));
#230 = CARTESIAN_POINT('',(386.54372201438,268.84277616742,
    4.438756794633));
#231 = CARTESIAN_POINT('',(386.35540814726,268.97891277908,
    4.386077806989));
#232 = CARTESIAN_POINT('',(386.26366261605,269.04361082889,
    4.366877409387));
#233 = CARTESIAN_POINT('',(386.16972566445,269.1081371916,4.35379122688)
  );
#234 = CARTESIAN_POINT('',(386.07409520375,269.17206156837,
    4.347159116187));
#235 = CARTESIAN_POINT('',(385.97731433435,269.23498667713,
    4.347271684097));
#236 = CARTESIAN_POINT('',(385.79246527344,269.35190180122,
    4.360753871635));
#237 = CARTESIAN_POINT('',(385.70452423499,269.40613987933,
    4.372782027072));
#238 = CARTESIAN_POINT('',(385.61678451539,269.45887748309,
    4.390610268659));
#239 = CARTESIAN_POINT('',(385.52988503072,269.50978881877,
    4.414277729696));
#240 = CARTESIAN_POINT('',(385.44445694405,269.55860864919,4.4437083422)
  );
#241 = CARTESIAN_POINT('',(385.30078485713,269.63879934477,
    4.504045716476));
#242 = CARTESIAN_POINT('',(385.24157916656,269.67124876522,
    4.532287026089));
#243 = CARTESIAN_POINT('',(385.18372927704,269.70239603037,
    4.563353668284));
#244 = CARTESIAN_POINT('',(385.12745962397,269.73217886729,
    4.597131895638));
#245 = CARTESIAN_POINT('',(385.07297921841,269.76055139465,
    4.633475589797));
#246 = CARTESIAN_POINT('',(384.9532678399,269.82195720806,4.721787488594
    ));
#247 = CARTESIAN_POINT('',(384.8893267146,269.85405614998,4.775261478959
    ));
#248 = CARTESIAN_POINT('',(384.82895457996,269.88376363258,
    4.832315923147));
#249 = CARTESIAN_POINT('',(384.77241401272,269.91108775389,
    4.892598585622));
#250 = CARTESIAN_POINT('',(384.71992171693,269.93605470187,
    4.955718204236));
#251 = CARTESIAN_POINT('',(384.63889242008,269.97406564753,
    5.065690640878));
#252 = CARTESIAN_POINT('',(384.6080690328,269.98836720235,5.111260653685
    ));
#253 = CARTESIAN_POINT('',(384.57920183592,270.00162943641,
    5.157852670876));
#254 = CARTESIAN_POINT('',(384.55231680071,270.01387277215,
    5.205363722421));
#255 = CARTESIAN_POINT('',(384.52743429167,270.02511680192,5.25369050377
    ));
#256 = CARTESIAN_POINT('',(384.45309453861,270.05848559737,
    5.413126399199));
#257 = CARTESIAN_POINT('',(384.41186140853,270.07661323623,
    5.527093425511));
#258 = CARTESIAN_POINT('',(384.38092358255,270.09002676399,
    5.643656282797));
#259 = CARTESIAN_POINT('',(384.36030324587,270.0989050127,5.761906990303
    ));
#260 = CARTESIAN_POINT('',(384.35,270.10334103156,5.880975260325));
#261 = CARTESIAN_POINT('',(384.35,270.10334103156,6.083391917229));
#262 = CARTESIAN_POINT('',(384.35505750165,270.10116353475,
    6.166789481549));
#263 = CARTESIAN_POINT('',(384.36517430025,270.09680770193,
    6.249906402308));
#264 = CARTESIAN_POINT('',(384.38035120377,270.09025080814,
    6.332450715618));
#265 = CARTESIAN_POINT('',(384.40058737905,270.08144801027,
    6.414123282982));
#266 = CARTESIAN_POINT('',(384.43686485021,270.06550417433,
    6.529576625361));
#267 = CARTESIAN_POINT('',(384.44880293906,270.06024026622,
    6.564311847393));
#268 = CARTESIAN_POINT('',(384.46169315904,270.05453512007,
    6.598795165268));
#269 = CARTESIAN_POINT('',(384.47553379244,270.04838304397,
    6.632998628052));
#270 = CARTESIAN_POINT('',(384.49032220913,270.04177792448,
    6.666893124625));
#271 = CARTESIAN_POINT('',(384.5288870053,270.02446052999,6.749145708705
    ));
#272 = CARTESIAN_POINT('',(384.55371107331,270.01323851745,
    6.797135600303));
#273 = CARTESIAN_POINT('',(384.5805123748,270.00102874885,6.844316168634
    ));
#274 = CARTESIAN_POINT('',(384.60927071018,269.98781199744,
    6.890585870308));
#275 = CARTESIAN_POINT('',(384.63996037601,269.97356824986,
    6.935843508389));
#276 = CARTESIAN_POINT('',(384.70280442963,269.94408102011,
    7.020969355675));
#277 = CARTESIAN_POINT('',(384.73469725892,269.92898205393,
    7.060992539242));
#278 = CARTESIAN_POINT('',(384.76819153304,269.91296862157,
    7.099960639385));
#279 = CARTESIAN_POINT('',(384.80324361401,269.89603139166,7.13778081264
    ));
#280 = CARTESIAN_POINT('',(384.83980334577,269.87816288746,
    7.174364515789));
#281 = CARTESIAN_POINT('',(384.94702251409,269.82511732473,
    7.273833024257));
#282 = CARTESIAN_POINT('',(385.02108530679,269.78774987851,
    7.333700313175));
#283 = CARTESIAN_POINT('',(385.0995287068,269.74728725468,7.388578370224
    ));
#284 = CARTESIAN_POINT('',(385.18177758305,269.70381387349,
    7.437946163762));
#285 = CARTESIAN_POINT('',(385.26718099106,269.6574800411,7.481413913526
    ));
#286 = CARTESIAN_POINT('',(385.4583780254,269.55092171404,7.562610257549
    ));
#287 = CARTESIAN_POINT('',(385.56492372502,269.4897934458,7.597897645692
    ));
#288 = CARTESIAN_POINT('',(385.67354536474,269.42550986041,
    7.624243108946));
#289 = CARTESIAN_POINT('',(385.78304999222,269.35858249159,
    7.641556206643));
#290 = CARTESIAN_POINT('',(385.89224964079,269.28966746155,7.65));
#291 = CARTESIAN_POINT('',(386.,269.21954445729,7.65));
#292 = CYLINDRICAL_SURFACE('',#293,11.);
#293 = AXIS2_PLACEMENT_3D('',#294,#295,#296);
#294 = CARTESIAN_POINT('',(380.,260.,0.));
#295 = DIRECTION('',(0.,0.,1.));
#296 = DIRECTION('',(1.,0.,0.));
#297 = ADVANCED_FACE('',(#298,#324,#335,#346,#357),#368,.T.);
#298 = FACE_BOUND('',#299,.T.);
#299 = EDGE_LOOP('',(#300,#308,#309,#317));
#300 = ORIENTED_EDGE('',*,*,#301,.F.);
#301 = EDGE_CURVE('',#22,#302,#304,.T.);
#302 = VERTEX_POINT('',#303);
#303 = CARTESIAN_POINT('',(382.52982212813,260.6,12.));
#304 = LINE('',#305,#306);
#305 = CARTESIAN_POINT('',(380.,260.6,12.));
#306 = VECTOR('',#307,1.);
#307 = DIRECTION('',(-1.,0.,0.));
#308 = ORIENTED_EDGE('',*,*,#21,.T.);
#309 = ORIENTED_EDGE('',*,*,#310,.T.);
#310 = EDGE_CURVE('',#24,#311,#313,.T.);
#311 = VERTEX_POINT('',#312);
#312 = CARTESIAN_POINT('',(382.52982212813,259.4,12.));
#313 = LINE('',#314,#315);
#314 = CARTESIAN_POINT('',(380.,259.4,12.));
#315 = VECTOR('',#316,1.);
#316 = DIRECTION('',(-1.,0.,0.));
#317 = ORIENTED_EDGE('',*,*,#318,.F.);
#318 = EDGE_CURVE('',#302,#311,#319,.T.);
#319 = CIRCLE('',#320,2.6);
#320 = AXIS2_PLACEMENT_3D('',#321,#322,#323);
#321 = CARTESIAN_POINT('',(380.,260.,12.));
#322 = DIRECTION('',(0.,0.,1.));
#323 = DIRECTION('',(1.,0.,0.));
#324 = FACE_BOUND('',#325,.T.);
#325 = EDGE_LOOP('',(#326));
#326 = ORIENTED_EDGE('',*,*,#327,.F.);
#327 = EDGE_CURVE('',#328,#328,#330,.T.);
#328 = VERTEX_POINT('',#329);
#329 = CARTESIAN_POINT('',(376.3466991411,254.6966991411,12.));
#330 = CIRCLE('',#331,1.65);
#331 = AXIS2_PLACEMENT_3D('',#332,#333,#334);
#332 = CARTESIAN_POINT('',(374.6966991411,254.6966991411,12.));
#333 = DIRECTION('',(0.,0.,1.));
#334 = DIRECTION('',(1.,0.,0.));
#335 = FACE_BOUND('',#336,.T.);
#336 = EDGE_LOOP('',(#337));
#337 = ORIENTED_EDGE('',*,*,#338,.F.);
#338 = EDGE_CURVE('',#339,#339,#341,.T.);
#339 = VERTEX_POINT('',#340);
#340 = CARTESIAN_POINT('',(386.95330085889,254.6966991411,12.));
#341 = CIRCLE('',#342,1.65);
#342 = AXIS2_PLACEMENT_3D('',#343,#344,#345);
#343 = CARTESIAN_POINT('',(385.30330085889,254.6966991411,12.));
#344 = DIRECTION('',(0.,0.,1.));
#345 = DIRECTION('',(1.,0.,0.));
#346 = FACE_BOUND('',#347,.T.);
#347 = EDGE_LOOP('',(#348));
#348 = ORIENTED_EDGE('',*,*,#349,.F.);
#349 = EDGE_CURVE('',#350,#350,#352,.T.);
#350 = VERTEX_POINT('',#351);
#351 = CARTESIAN_POINT('',(376.3466991411,265.30330085889,12.));
#352 = CIRCLE('',#353,1.65);
#353 = AXIS2_PLACEMENT_3D('',#354,#355,#356);
#354 = CARTESIAN_POINT('',(374.6966991411,265.30330085889,12.));
#355 = DIRECTION('',(0.,0.,1.));
#356 = DIRECTION('',(1.,0.,0.));
#357 = FACE_BOUND('',#358,.T.);
#358 = EDGE_LOOP('',(#359));
#359 = ORIENTED_EDGE('',*,*,#360,.F.);
#360 = EDGE_CURVE('',#361,#361,#363,.T.);
#361 = VERTEX_POINT('',#362);
#362 = CARTESIAN_POINT('',(386.95330085889,265.30330085889,12.));
#363 = CIRCLE('',#364,1.65);
#364 = AXIS2_PLACEMENT_3D('',#365,#366,#367);
#365 = CARTESIAN_POINT('',(385.30330085889,265.30330085889,12.));
#366 = DIRECTION('',(0.,0.,1.));
#367 = DIRECTION('',(1.,0.,0.));
#368 = PLANE('',#369);
#369 = AXIS2_PLACEMENT_3D('',#370,#371,#372);
#370 = CARTESIAN_POINT('',(380.,260.,12.));
#371 = DIRECTION('',(0.,0.,1.));
#372 = DIRECTION('',(1.,0.,0.));
#373 = ADVANCED_FACE('',(#374,#392),#403,.F.);
#374 = FACE_BOUND('',#375,.F.);
#375 = EDGE_LOOP('',(#376,#377,#385,#391));
#376 = ORIENTED_EDGE('',*,*,#32,.F.);
#377 = ORIENTED_EDGE('',*,*,#378,.T.);
#378 = EDGE_CURVE('',#33,#379,#381,.T.);
#379 = VERTEX_POINT('',#380);
#380 = CARTESIAN_POINT('',(382.52982212813,260.6,0.));
#381 = LINE('',#382,#383);
#382 = CARTESIAN_POINT('',(380.,260.6,0.));
#383 = VECTOR('',#384,1.);
#384 = DIRECTION('',(-1.,0.,0.));
#385 = ORIENTED_EDGE('',*,*,#386,.T.);
#386 = EDGE_CURVE('',#379,#302,#387,.T.);
#387 = LINE('',#388,#389);
#388 = CARTESIAN_POINT('',(382.52982212813,260.6,-1.));
#389 = VECTOR('',#390,1.);
#390 = DIRECTION('',(0.,0.,1.));
#391 = ORIENTED_EDGE('',*,*,#301,.F.);
#392 = FACE_BOUND('',#393,.F.);
#393 = EDGE_LOOP('',(#394));
#394 = ORIENTED_EDGE('',*,*,#395,.T.);
#395 = EDGE_CURVE('',#396,#396,#398,.T.);
#396 = VERTEX_POINT('',#397);
#397 = CARTESIAN_POINT('',(386.,260.6,3.75));
#398 = CIRCLE('',#399,2.25);
#399 = AXIS2_PLACEMENT_3D('',#400,#401,#402);
#400 = CARTESIAN_POINT('',(386.,260.6,6.));
#401 = DIRECTION('',(0.,-1.,0.));
#402 = DIRECTION('',(0.,0.,-1.));
#403 = PLANE('',#404);
#404 = AXIS2_PLACEMENT_3D('',#405,#406,#407);
#405 = CARTESIAN_POINT('',(380.,260.6,-1.));
#406 = DIRECTION('',(0.,1.,0.));
#407 = DIRECTION('',(0.,0.,1.));
#408 = ADVANCED_FACE('',(#409,#427),#438,.T.);
#409 = FACE_BOUND('',#410,.T.);
#410 = EDGE_LOOP('',(#411,#412,#420,#426));
#411 = ORIENTED_EDGE('',*,*,#49,.F.);
#412 = ORIENTED_EDGE('',*,*,#413,.T.);
#413 = EDGE_CURVE('',#41,#414,#416,.T.);
#414 = VERTEX_POINT('',#415);
#415 = CARTESIAN_POINT('',(382.52982212813,259.4,0.));
#416 = LINE('',#417,#418);
#417 = CARTESIAN_POINT('',(380.,259.4,0.));
#418 = VECTOR('',#419,1.);
#419 = DIRECTION('',(-1.,0.,0.));
#420 = ORIENTED_EDGE('',*,*,#421,.T.);
#421 = EDGE_CURVE('',#414,#311,#422,.T.);
#422 = LINE('',#423,#424);
#423 = CARTESIAN_POINT('',(382.52982212813,259.4,-1.));
#424 = VECTOR('',#425,1.);
#425 = DIRECTION('',(0.,0.,1.));
#426 = ORIENTED_EDGE('',*,*,#310,.F.);
#427 = FACE_BOUND('',#428,.T.);
#428 = EDGE_LOOP('',(#429));
#429 = ORIENTED_EDGE('',*,*,#430,.F.);
#430 = EDGE_CURVE('',#431,#431,#433,.T.);
#431 = VERTEX_POINT('',#432);
#432 = CARTESIAN_POINT('',(386.,259.4,7.65));
#433 = CIRCLE('',#434,1.65);
#434 = AXIS2_PLACEMENT_3D('',#435,#436,#437);
#435 = CARTESIAN_POINT('',(386.,259.4,6.));
#436 = DIRECTION('',(0.,1.,0.));
#437 = DIRECTION('',(0.,0.,1.));
#438 = PLANE('',#439);
#439 = AXIS2_PLACEMENT_3D('',#440,#441,#442);
#440 = CARTESIAN_POINT('',(380.,259.4,-1.));
#441 = DIRECTION('',(0.,1.,0.));
#442 = DIRECTION('',(0.,0.,1.));
#443 = ADVANCED_FACE('',(#444,#456,#467,#478,#489),#500,.F.);
#444 = FACE_BOUND('',#445,.F.);
#445 = EDGE_LOOP('',(#446,#447,#448,#449));
#446 = ORIENTED_EDGE('',*,*,#378,.F.);
#447 = ORIENTED_EDGE('',*,*,#40,.T.);
#448 = ORIENTED_EDGE('',*,*,#413,.T.);
#449 = ORIENTED_EDGE('',*,*,#450,.F.);
#450 = EDGE_CURVE('',#379,#414,#451,.T.);
#451 = CIRCLE('',#452,2.6);
#452 = AXIS2_PLACEMENT_3D('',#453,#454,#455);
#453 = CARTESIAN_POINT('',(380.,260.,0.));
#454 = DIRECTION('',(0.,0.,1.));
#455 = DIRECTION('',(1.,0.,0.));
#456 = FACE_BOUND('',#457,.F.);
#457 = EDGE_LOOP('',(#458));
#458 = ORIENTED_EDGE('',*,*,#459,.F.);
#459 = EDGE_CURVE('',#460,#460,#462,.T.);
#460 = VERTEX_POINT('',#461);
#461 = CARTESIAN_POINT('',(376.3466991411,254.6966991411,0.));
#462 = CIRCLE('',#463,1.65);
#463 = AXIS2_PLACEMENT_3D('',#464,#465,#466);
#464 = CARTESIAN_POINT('',(374.6966991411,254.6966991411,0.));
#465 = DIRECTION('',(0.,0.,1.));
#466 = DIRECTION('',(1.,0.,0.));
#467 = FACE_BOUND('',#468,.F.);
#468 = EDGE_LOOP('',(#469));
#469 = ORIENTED_EDGE('',*,*,#470,.F.);
#470 = EDGE_CURVE('',#471,#471,#473,.T.);
#471 = VERTEX_POINT('',#472);
#472 = CARTESIAN_POINT('',(386.95330085889,254.6966991411,0.));
#473 = CIRCLE('',#474,1.65);
#474 = AXIS2_PLACEMENT_3D('',#475,#476,#477);
#475 = CARTESIAN_POINT('',(385.30330085889,254.6966991411,0.));
#476 = DIRECTION('',(0.,0.,1.));
#477 = DIRECTION('',(1.,0.,0.));
#478 = FACE_BOUND('',#479,.F.);
#479 = EDGE_LOOP('',(#480));
#480 = ORIENTED_EDGE('',*,*,#481,.F.);
#481 = EDGE_CURVE('',#482,#482,#484,.T.);
#482 = VERTEX_POINT('',#483);
#483 = CARTESIAN_POINT('',(376.3466991411,265.30330085889,0.));
#484 = CIRCLE('',#485,1.65);
#485 = AXIS2_PLACEMENT_3D('',#486,#487,#488);
#486 = CARTESIAN_POINT('',(374.6966991411,265.30330085889,0.));
#487 = DIRECTION('',(0.,0.,1.));
#488 = DIRECTION('',(1.,0.,0.));
#489 = FACE_BOUND('',#490,.F.);
#490 = EDGE_LOOP('',(#491));
#491 = ORIENTED_EDGE('',*,*,#492,.F.);
#492 = EDGE_CURVE('',#493,#493,#495,.T.);
#493 = VERTEX_POINT('',#494);
#494 = CARTESIAN_POINT('',(386.95330085889,265.30330085889,0.));
#495 = CIRCLE('',#496,1.65);
#496 = AXIS2_PLACEMENT_3D('',#497,#498,#499);
#497 = CARTESIAN_POINT('',(385.30330085889,265.30330085889,0.));
#498 = DIRECTION('',(0.,0.,1.));
#499 = DIRECTION('',(1.,0.,0.));
#500 = PLANE('',#501);
#501 = AXIS2_PLACEMENT_3D('',#502,#503,#504);
#502 = CARTESIAN_POINT('',(380.,260.,0.));
#503 = DIRECTION('',(0.,0.,1.));
#504 = DIRECTION('',(1.,0.,0.));
#505 = ADVANCED_FACE('',(#506),#752,.F.);
#506 = FACE_BOUND('',#507,.F.);
#507 = EDGE_LOOP('',(#508,#509,#517,#549,#581,#587,#588,#589,#671,#751)
  );
#508 = ORIENTED_EDGE('',*,*,#430,.F.);
#509 = ORIENTED_EDGE('',*,*,#510,.F.);
#510 = EDGE_CURVE('',#511,#431,#513,.T.);
#511 = VERTEX_POINT('',#512);
#512 = CARTESIAN_POINT('',(386.,256.19239640552,7.65));
#513 = LINE('',#514,#515);
#514 = CARTESIAN_POINT('',(386.,248.,7.65));
#515 = VECTOR('',#516,1.);
#516 = DIRECTION('',(0.,1.,0.));
#517 = ORIENTED_EDGE('',*,*,#518,.T.);
#518 = EDGE_CURVE('',#511,#519,#521,.T.);
#519 = VERTEX_POINT('',#520);
#520 = CARTESIAN_POINT('',(386.95330085889,254.6966991411,7.346743283786
    ));
#521 = B_SPLINE_CURVE_WITH_KNOTS('',6,(#522,#523,#524,#525,#526,#527,
    #528,#529,#530,#531,#532,#533,#534,#535,#536,#537,#538,#539,#540,
    #541,#542,#543,#544,#545,#546,#547,#548),.UNSPECIFIED.,.F.,.F.,(7,5,
    5,5,5,7),(0.,0.174460086743,0.277247589021,0.522962306368,
    0.763881567709,1.),.UNSPECIFIED.);
#522 = CARTESIAN_POINT('',(386.,256.19239640552,7.65));
#523 = CARTESIAN_POINT('',(386.05425551464,256.16712406508,7.65));
#524 = CARTESIAN_POINT('',(386.10703229304,256.13966635332,
    7.647859225698));
#525 = CARTESIAN_POINT('',(386.15818651685,256.11016568646,
    7.643796152731));
#526 = CARTESIAN_POINT('',(386.20758912838,256.07878306418,
    7.638037294885));
#527 = CARTESIAN_POINT('',(386.25512711217,256.04569886159,
    7.630815392761));
#528 = CARTESIAN_POINT('',(386.3275579916,255.99073686598,7.617390376527
    ));
#529 = CARTESIAN_POINT('',(386.3537484284,255.96982541357,7.611984226428
    ));
#530 = CARTESIAN_POINT('',(386.37926903509,255.94840893555,7.60619414661
    ));
#531 = CARTESIAN_POINT('',(386.40411578853,255.92651435163,
    7.600063326217));
#532 = CARTESIAN_POINT('',(386.42828769416,255.90416582957,7.59363314908
    ));
#533 = CARTESIAN_POINT('',(386.50796163754,255.82692643431,
    7.570950777747));
#534 = CARTESIAN_POINT('',(386.56027237192,255.77001405528,
    7.553479230063));
#535 = CARTESIAN_POINT('',(386.60877272085,255.71091059494,
    7.535059883391));
#536 = CARTESIAN_POINT('',(386.65351297839,255.6498314935,7.516177306241
    ));
#537 = CARTESIAN_POINT('',(386.69453357459,255.58694360361,
    7.497283370518));
#538 = CARTESIAN_POINT('',(386.7684552743,255.45904497154,7.4606997749)
  );
#539 = CARTESIAN_POINT('',(386.8015258865,255.3940529381,7.442980499771)
  );
#540 = CARTESIAN_POINT('',(386.83104022752,255.32756646064,
    7.426081596314));
#541 = CARTESIAN_POINT('',(386.85697422003,255.25973452534,
    7.410415617382));
#542 = CARTESIAN_POINT('',(386.87929531439,255.19067829435,7.39636458916
    ));
#543 = CARTESIAN_POINT('',(386.91622866515,255.05170579617,
    7.372406588665));
#544 = CARTESIAN_POINT('',(386.93099445795,254.98180085936,
    7.362416683499));
#545 = CARTESIAN_POINT('',(386.94212548225,254.91109483226,
    7.354653863199));
#546 = CARTESIAN_POINT('',(386.94957092169,254.8398543369,7.349383538696
    ));
#547 = CARTESIAN_POINT('',(386.95330085889,254.768314009,7.346743283786)
  );
#548 = CARTESIAN_POINT('',(386.95330085889,254.6966991411,7.346743283786
    ));
#549 = ORIENTED_EDGE('',*,*,#550,.F.);
#550 = EDGE_CURVE('',#551,#519,#553,.T.);
#551 = VERTEX_POINT('',#552);
#552 = CARTESIAN_POINT('',(386.,253.20100187668,7.65));
#553 = B_SPLINE_CURVE_WITH_KNOTS('',6,(#554,#555,#556,#557,#558,#559,
    #560,#561,#562,#563,#564,#565,#566,#567,#568,#569,#570,#571,#572,
    #573,#574,#575,#576,#577,#578,#579,#580),.UNSPECIFIED.,.F.,.F.,(7,5,
    5,5,5,7),(0.,0.174460086701,0.277247588984,0.522962306344,
    0.763881567697,1.),.UNSPECIFIED.);
#554 = CARTESIAN_POINT('',(386.,253.20100187668,7.65));
#555 = CARTESIAN_POINT('',(386.05425551465,253.22627421712,7.65));
#556 = CARTESIAN_POINT('',(386.10703229304,253.25373192887,
    7.647859225697));
#557 = CARTESIAN_POINT('',(386.15818651683,253.28323259573,
    7.643796152733));
#558 = CARTESIAN_POINT('',(386.20758912838,253.31461521801,
    7.638037294887));
#559 = CARTESIAN_POINT('',(386.25512711219,253.34769942061,
    7.630815392758));
#560 = CARTESIAN_POINT('',(386.3275579916,253.40266141621,7.617390376527
    ));
#561 = CARTESIAN_POINT('',(386.3537484284,253.42357286863,7.611984226428
    ));
#562 = CARTESIAN_POINT('',(386.37926903509,253.44498934664,7.60619414661
    ));
#563 = CARTESIAN_POINT('',(386.40411578853,253.46688393057,
    7.600063326217));
#564 = CARTESIAN_POINT('',(386.42828769416,253.48923245262,7.59363314908
    ));
#565 = CARTESIAN_POINT('',(386.50796163754,253.56647184788,
    7.570950777747));
#566 = CARTESIAN_POINT('',(386.56027237192,253.62338422691,
    7.553479230063));
#567 = CARTESIAN_POINT('',(386.60877272085,253.68248768725,
    7.535059883391));
#568 = CARTESIAN_POINT('',(386.65351297839,253.74356678869,
    7.516177306241));
#569 = CARTESIAN_POINT('',(386.69453357459,253.80645467858,
    7.497283370518));
#570 = CARTESIAN_POINT('',(386.7684552743,253.93435331066,7.4606997749)
  );
#571 = CARTESIAN_POINT('',(386.8015258865,253.9993453441,7.442980499771)
  );
#572 = CARTESIAN_POINT('',(386.83104022752,254.06583182156,
    7.426081596314));
#573 = CARTESIAN_POINT('',(386.85697422003,254.13366375685,
    7.410415617382));
#574 = CARTESIAN_POINT('',(386.87929531439,254.20271998784,7.39636458916
    ));
#575 = CARTESIAN_POINT('',(386.91622866515,254.34169248602,
    7.372406588665));
#576 = CARTESIAN_POINT('',(386.93099445795,254.41159742283,
    7.362416683499));
#577 = CARTESIAN_POINT('',(386.94212548225,254.48230344993,
    7.354653863199));
#578 = CARTESIAN_POINT('',(386.94957092169,254.55354394529,
    7.349383538696));
#579 = CARTESIAN_POINT('',(386.95330085889,254.62508427319,
    7.346743283786));
#580 = CARTESIAN_POINT('',(386.95330085889,254.6966991411,7.346743283786
    ));
#581 = ORIENTED_EDGE('',*,*,#582,.F.);
#582 = EDGE_CURVE('',#58,#551,#583,.T.);
#583 = LINE('',#584,#585);
#584 = CARTESIAN_POINT('',(386.,248.,7.65));
#585 = VECTOR('',#586,1.);
#586 = DIRECTION('',(0.,1.,0.));
#587 = ORIENTED_EDGE('',*,*,#57,.T.);
#588 = ORIENTED_EDGE('',*,*,#582,.T.);
#589 = ORIENTED_EDGE('',*,*,#590,.F.);
#590 = EDGE_CURVE('',#591,#551,#593,.T.);
#591 = VERTEX_POINT('',#592);
#592 = CARTESIAN_POINT('',(386.95330085889,254.6966991411,4.653256716214
    ));
#593 = B_SPLINE_CURVE_WITH_KNOTS('',6,(#594,#595,#596,#597,#598,#599,
    #600,#601,#602,#603,#604,#605,#606,#607,#608,#609,#610,#611,#612,
    #613,#614,#615,#616,#617,#618,#619,#620,#621,#622,#623,#624,#625,
    #626,#627,#628,#629,#630,#631,#632,#633,#634,#635,#636,#637,#638,
    #639,#640,#641,#642,#643,#644,#645,#646,#647,#648,#649,#650,#651,
    #652,#653,#654,#655,#656,#657,#658,#659,#660,#661,#662,#663,#664,
    #665,#666,#667,#668,#669,#670),.UNSPECIFIED.,.F.,.F.,(7,5,5,5,5,5,5,
    5,5,5,5,5,5,5,5,7),(0.,6.232735261489E-02,0.127790995144,
    0.203779585056,0.236606292407,0.282756023787,0.368646775958,
    0.429772716713,0.50583232952,0.570046158173,0.634482832793,
    0.697655252099,0.762828693658,0.872787779309,0.916945032754,1.),
  .UNSPECIFIED.);
#594 = CARTESIAN_POINT('',(386.95330085889,254.6966991411,4.653256716214
    ));
#595 = CARTESIAN_POINT('',(386.95330085889,254.62641859777,
    4.653256716214));
#596 = CARTESIAN_POINT('',(386.94970861667,254.55620534743,
    4.650713928759));
#597 = CARTESIAN_POINT('',(386.94253692509,254.48627504269,
    4.645637381946));
#598 = CARTESIAN_POINT('',(386.93181383027,254.4168517517,4.638154881634
    ));
#599 = CARTESIAN_POINT('',(386.91758742392,254.34818891924,
    4.628513519658));
#600 = CARTESIAN_POINT('',(386.88146472151,254.2095822782,4.605006316529
    ));
#601 = CARTESIAN_POINT('',(386.85921085505,254.13971837001,
    4.590947090191));
#602 = CARTESIAN_POINT('',(386.83326601126,254.07109348656,
    4.575214625307));
#603 = CARTESIAN_POINT('',(386.80366451798,254.00383378291,
    4.558201820957));
#604 = CARTESIAN_POINT('',(386.77043260168,253.93809451852,
    4.540334247692));
#605 = CARTESIAN_POINT('',(386.69085475615,253.79973409107,
    4.500834402741));
#606 = CARTESIAN_POINT('',(386.64321499397,253.72762877261,
    4.479036557984));
#607 = CARTESIAN_POINT('',(386.5906566511,253.65793525297,4.45732229787)
  );
#608 = CARTESIAN_POINT('',(386.5331103071,253.59091318909,4.436380360559
    ));
#609 = CARTESIAN_POINT('',(386.47049619301,253.52690921483,
    4.416960852851));
#610 = CARTESIAN_POINT('',(386.37349108936,253.4402226699,4.392543923413
    ));
#611 = CARTESIAN_POINT('',(386.34327117183,253.41471952407,
    4.385620282372));
#612 = CARTESIAN_POINT('',(386.31210349544,253.38991217459,
    4.379210533172));
#613 = CARTESIAN_POINT('',(386.27999908137,253.365849143,4.373388287557)
  );
#614 = CARTESIAN_POINT('',(386.24697169657,253.34257957618,
    4.368229180229));
#615 = CARTESIAN_POINT('',(386.16533164562,253.28862498238,
    4.357599344777));
#616 = CARTESIAN_POINT('',(386.11578724218,253.25873246918,
    4.352845862445));
#617 = CARTESIAN_POINT('',(386.06455662206,253.2306940054,4.349786846722
    ));
#618 = CARTESIAN_POINT('',(386.01181064942,253.2046918748,4.348642686761
    ));
#619 = CARTESIAN_POINT('',(385.95773573281,253.1808740715,4.349614583416
    ));
#620 = CARTESIAN_POINT('',(385.7997862168,253.11930809557,4.358961368056
    ));
#621 = CARTESIAN_POINT('',(385.69333461938,253.08730753549,
    4.372978069371));
#622 = CARTESIAN_POINT('',(385.58544454123,253.064406692,4.395972509706)
  );
#623 = CARTESIAN_POINT('',(385.47853204117,253.05068094534,
    4.428211745308));
#624 = CARTESIAN_POINT('',(385.37497509657,253.04534189618,
    4.469070567361));
#625 = CARTESIAN_POINT('',(385.20713106794,253.04802615227,
    4.550901504823));
#626 = CARTESIAN_POINT('',(385.14002068777,253.05264230988,
    4.588497714651));
#627 = CARTESIAN_POINT('',(385.07582388026,253.06025762477,4.62935220451
    ));
#628 = CARTESIAN_POINT('',(385.01473777075,253.07037241286,4.67312598963
    ));
#629 = CARTESIAN_POINT('',(384.95691816677,253.08249084149,
    4.719454984121));
#630 = CARTESIAN_POINT('',(384.83474122158,253.11308677982,
    4.828291155459));
#631 = CARTESIAN_POINT('',(384.77211153772,253.13242613624,
    4.892097932516));
#632 = CARTESIAN_POINT('',(384.71453252615,253.15329862132,
    4.958919944851));
#633 = CARTESIAN_POINT('',(384.66192512559,253.17495698444,
    5.028410649963));
#634 = CARTESIAN_POINT('',(384.61421996484,253.1967153064,5.100310148026
    ));
#635 = CARTESIAN_POINT('',(384.53522694476,253.23581228202,
    5.237003823219));
#636 = CARTESIAN_POINT('',(384.50251144627,253.25332539318,5.3012086714)
  );
#637 = CARTESIAN_POINT('',(384.47326855726,253.27004155963,
    5.366873229251));
#638 = CARTESIAN_POINT('',(384.44752054649,253.28556327691,
    5.433855452647));
#639 = CARTESIAN_POINT('',(384.42529845135,253.2995216378,5.50203970767)
  );
#640 = CARTESIAN_POINT('',(384.38794798924,253.32370032226,
    5.640871140799));
#641 = CARTESIAN_POINT('',(384.37283454322,253.33391421021,5.71156328343
    ));
#642 = CARTESIAN_POINT('',(384.36144053512,253.34185758165,
    5.783083306214));
#643 = CARTESIAN_POINT('',(384.35381864172,253.34725281291,5.85515567595
    ));
#644 = CARTESIAN_POINT('',(384.35,253.34995585731,5.92753856125));
#645 = CARTESIAN_POINT('',(384.35,253.34995585731,6.071039736598));
#646 = CARTESIAN_POINT('',(384.35367026927,253.34735783847,
    6.142007777247));
#647 = CARTESIAN_POINT('',(384.36099703253,253.34217152077,
    6.212683108964));
#648 = CARTESIAN_POINT('',(384.37195115997,253.33453022478,
    6.282835849461));
#649 = CARTESIAN_POINT('',(384.38648305615,253.32469130385,6.35220533145
    ));
#650 = CARTESIAN_POINT('',(384.42304031126,253.30094436848,
    6.490922096128));
#651 = CARTESIAN_POINT('',(384.44529695103,253.28691157017,
    6.560231500337));
#652 = CARTESIAN_POINT('',(384.4711901007,253.27124284302,6.628314034656
    ));
#653 = CARTESIAN_POINT('',(384.50068648164,253.25432328608,
    6.695046634914));
#654 = CARTESIAN_POINT('',(384.53376098509,253.23656931913,
    6.760278049541));
#655 = CARTESIAN_POINT('',(384.63216702807,253.18778059584,
    6.931045770117));
#656 = CARTESIAN_POINT('',(384.70420822113,253.15592368665,7.03375629156
    ));
#657 = CARTESIAN_POINT('',(384.7865885089,253.12484530814,7.131280487253
    ));
#658 = CARTESIAN_POINT('',(384.87949877579,253.09672591608,
    7.222648458817));
#659 = CARTESIAN_POINT('',(384.98307664538,253.07399274047,
    7.306499715293));
#660 = CARTESIAN_POINT('',(385.14296268907,253.05385905752,
    7.411021791128));
#661 = CARTESIAN_POINT('',(385.19044122875,253.04944295063,
    7.439457123155));
#662 = CARTESIAN_POINT('',(385.23945376024,253.04658520408,
    7.466191256433));
#663 = CARTESIAN_POINT('',(385.28985044572,253.04547803257,
    7.491065327867));
#664 = CARTESIAN_POINT('',(385.34146845359,253.04629755565,
    7.513949203425));
#665 = CARTESIAN_POINT('',(385.49319397348,253.05466284861,7.57384549291
    ));
#666 = CARTESIAN_POINT('',(385.59583775535,253.06749083262,
    7.605497295829));
#667 = CARTESIAN_POINT('',(385.70000604794,253.08865375653,
    7.628698576535));
#668 = CARTESIAN_POINT('',(385.8035040734,253.11844191758,7.643320441493
    ));
#669 = CARTESIAN_POINT('',(385.90416163742,253.15636015239,7.65));
#670 = CARTESIAN_POINT('',(386.,253.20100187668,7.65));
#671 = ORIENTED_EDGE('',*,*,#672,.T.);
#672 = EDGE_CURVE('',#591,#511,#673,.T.);
#673 = B_SPLINE_CURVE_WITH_KNOTS('',6,(#674,#675,#676,#677,#678,#679,
    #680,#681,#682,#683,#684,#685,#686,#687,#688,#689,#690,#691,#692,
    #693,#694,#695,#696,#697,#698,#699,#700,#701,#702,#703,#704,#705,
    #706,#707,#708,#709,#710,#711,#712,#713,#714,#715,#716,#717,#718,
    #719,#720,#721,#722,#723,#724,#725,#726,#727,#728,#729,#730,#731,
    #732,#733,#734,#735,#736,#737,#738,#739,#740,#741,#742,#743,#744,
    #745,#746,#747,#748,#749,#750),.UNSPECIFIED.,.F.,.F.,(7,5,5,5,5,5,5,
    5,5,5,5,5,5,5,5,7),(0.,6.23273422486E-02,0.12779097389,
    0.203779551164,0.236606256405,0.282755989862,0.36864674604,
    0.429772689672,0.505832306086,0.570046137785,0.63448281546,
    0.697655237763,0.762828682412,0.872787773277,0.916945028816,1.),
  .UNSPECIFIED.);
#674 = CARTESIAN_POINT('',(386.95330085889,254.6966991411,4.653256716214
    ));
#675 = CARTESIAN_POINT('',(386.95330085889,254.76697968442,
    4.653256716214));
#676 = CARTESIAN_POINT('',(386.94970861667,254.83719293477,
    4.650713928759));
#677 = CARTESIAN_POINT('',(386.94253692509,254.90712323951,
    4.645637381946));
#678 = CARTESIAN_POINT('',(386.93181383027,254.97654653049,
    4.638154881634));
#679 = CARTESIAN_POINT('',(386.91758742392,255.04520936296,
    4.628513519658));
#680 = CARTESIAN_POINT('',(386.88146472151,255.18381600399,
    4.605006316529));
#681 = CARTESIAN_POINT('',(386.85921085505,255.25367991219,
    4.590947090191));
#682 = CARTESIAN_POINT('',(386.83326601126,255.32230479563,
    4.575214625307));
#683 = CARTESIAN_POINT('',(386.80366451798,255.38956449929,
    4.558201820957));
#684 = CARTESIAN_POINT('',(386.77043260168,255.45530376368,
    4.540334247692));
#685 = CARTESIAN_POINT('',(386.69085475615,255.59366419112,
    4.500834402741));
#686 = CARTESIAN_POINT('',(386.64321499397,255.66576950958,
    4.479036557984));
#687 = CARTESIAN_POINT('',(386.5906566511,255.73546302922,4.45732229787)
  );
#688 = CARTESIAN_POINT('',(386.5331103071,255.8024850931,4.436380360559)
  );
#689 = CARTESIAN_POINT('',(386.47049619301,255.86648906736,
    4.416960852851));
#690 = CARTESIAN_POINT('',(386.37349108638,255.95317561496,
    4.392543922661));
#691 = CARTESIAN_POINT('',(386.34327117298,255.97867875754,4.38562028243
    ));
#692 = CARTESIAN_POINT('',(386.31210349875,256.00348610505,
    4.379210533794));
#693 = CARTESIAN_POINT('',(386.27999908198,256.02754913841,
    4.373388287835));
#694 = CARTESIAN_POINT('',(386.24697169291,256.05081870843,
    4.368229179753));
#695 = CARTESIAN_POINT('',(386.16533164555,256.10477329986,
    4.357599344768));
#696 = CARTESIAN_POINT('',(386.1157872422,256.13466581299,4.352845862454
    ));
#697 = CARTESIAN_POINT('',(386.06455662214,256.16270427675,
    4.349786846724));
#698 = CARTESIAN_POINT('',(386.01181064944,256.1887064074,4.348642686753
    ));
#699 = CARTESIAN_POINT('',(385.95773573272,256.21252421073,
    4.349614583421));
#700 = CARTESIAN_POINT('',(385.7997862168,256.27409018662,4.358961368056
    ));
#701 = CARTESIAN_POINT('',(385.69333461938,256.3060907467,4.372978069371
    ));
#702 = CARTESIAN_POINT('',(385.58544454123,256.32899159019,
    4.395972509706));
#703 = CARTESIAN_POINT('',(385.47853204117,256.34271733685,
    4.428211745308));
#704 = CARTESIAN_POINT('',(385.37497509657,256.34805638601,
    4.469070567361));
#705 = CARTESIAN_POINT('',(385.20713106791,256.34537212992,
    4.550901504836));
#706 = CARTESIAN_POINT('',(385.14002068778,256.34075597231,4.58849771465
    ));
#707 = CARTESIAN_POINT('',(385.07582388028,256.33314065743,
    4.629352204495));
#708 = CARTESIAN_POINT('',(385.01473777076,256.32302586934,
    4.673125989622));
#709 = CARTESIAN_POINT('',(384.95691816675,256.3109074407,4.719454984139
    ));
#710 = CARTESIAN_POINT('',(384.83474122158,256.28031150237,
    4.828291155459));
#711 = CARTESIAN_POINT('',(384.77211153772,256.26097214595,
    4.892097932516));
#712 = CARTESIAN_POINT('',(384.71453252615,256.24009966087,
    4.958919944851));
#713 = CARTESIAN_POINT('',(384.66192512559,256.21844129775,
    5.028410649963));
#714 = CARTESIAN_POINT('',(384.61421996484,256.1966829758,5.100310148026
    ));
#715 = CARTESIAN_POINT('',(384.53522694476,256.15758600018,
    5.237003823219));
#716 = CARTESIAN_POINT('',(384.50251144627,256.14007288901,5.3012086714)
  );
#717 = CARTESIAN_POINT('',(384.47326855726,256.12335672256,
    5.366873229251));
#718 = CARTESIAN_POINT('',(384.44752054649,256.10783500528,
    5.433855452647));
#719 = CARTESIAN_POINT('',(384.42529845135,256.09387664439,5.50203970767
    ));
#720 = CARTESIAN_POINT('',(384.38794798924,256.06969795993,
    5.640871140799));
#721 = CARTESIAN_POINT('',(384.37283454322,256.05948407198,5.71156328343
    ));
#722 = CARTESIAN_POINT('',(384.36144053512,256.05154070054,
    5.783083306214));
#723 = CARTESIAN_POINT('',(384.35381864172,256.04614546929,5.85515567595
    ));
#724 = CARTESIAN_POINT('',(384.35,256.04344242488,5.92753856125));
#725 = CARTESIAN_POINT('',(384.35,256.04344242488,6.071039736598));
#726 = CARTESIAN_POINT('',(384.35367026927,256.04604044373,
    6.142007777247));
#727 = CARTESIAN_POINT('',(384.36099703253,256.05122676142,
    6.212683108965));
#728 = CARTESIAN_POINT('',(384.37195115997,256.05886805742,
    6.282835849461));
#729 = CARTESIAN_POINT('',(384.38648305615,256.06870697834,6.35220533145
    ));
#730 = CARTESIAN_POINT('',(384.42304031126,256.09245391371,
    6.490922096128));
#731 = CARTESIAN_POINT('',(384.44529695103,256.10648671203,
    6.560231500337));
#732 = CARTESIAN_POINT('',(384.4711901007,256.12215543917,6.628314034656
    ));
#733 = CARTESIAN_POINT('',(384.50068648164,256.13907499612,
    6.695046634914));
#734 = CARTESIAN_POINT('',(384.53376098509,256.15682896306,
    6.760278049541));
#735 = CARTESIAN_POINT('',(384.63216702807,256.20561768636,
    6.931045770117));
#736 = CARTESIAN_POINT('',(384.70420822113,256.23747459554,
    7.033756291559));
#737 = CARTESIAN_POINT('',(384.7865885089,256.26855297405,7.131280487254
    ));
#738 = CARTESIAN_POINT('',(384.87949877579,256.29667236611,
    7.222648458817));
#739 = CARTESIAN_POINT('',(384.98307664538,256.31940554173,
    7.306499715293));
#740 = CARTESIAN_POINT('',(385.14296268907,256.33953922467,
    7.411021791128));
#741 = CARTESIAN_POINT('',(385.19044122875,256.34395533156,
    7.439457123155));
#742 = CARTESIAN_POINT('',(385.23945376024,256.34681307811,
    7.466191256433));
#743 = CARTESIAN_POINT('',(385.28985044572,256.34792024963,
    7.491065327867));
#744 = CARTESIAN_POINT('',(385.34146845359,256.34710072654,
    7.513949203425));
#745 = CARTESIAN_POINT('',(385.49319397348,256.33873543358,7.57384549291
    ));
#746 = CARTESIAN_POINT('',(385.59583775535,256.32590744957,
    7.605497295829));
#747 = CARTESIAN_POINT('',(385.70000604794,256.30474452566,
    7.628698576535));
#748 = CARTESIAN_POINT('',(385.8035040734,256.27495636461,7.643320441493
    ));
#749 = CARTESIAN_POINT('',(385.90416163742,256.2370381298,7.65));
#750 = CARTESIAN_POINT('',(386.,256.19239640552,7.65));
#751 = ORIENTED_EDGE('',*,*,#510,.T.);
#752 = CYLINDRICAL_SURFACE('',#753,1.65);
#753 = AXIS2_PLACEMENT_3D('',#754,#755,#756);
#754 = CARTESIAN_POINT('',(386.,248.,6.));
#755 = DIRECTION('',(0.,1.,0.));
#756 = DIRECTION('',(0.,0.,1.));
#757 = ADVANCED_FACE('',(#758),#911,.F.);
#758 = FACE_BOUND('',#759,.F.);
#759 = EDGE_LOOP('',(#760,#768,#769,#770,#802,#811));
#760 = ORIENTED_EDGE('',*,*,#761,.T.);
#761 = EDGE_CURVE('',#762,#177,#764,.T.);
#762 = VERTEX_POINT('',#763);
#763 = CARTESIAN_POINT('',(386.,266.79899812331,7.65));
#764 = LINE('',#765,#766);
#765 = CARTESIAN_POINT('',(386.,248.,7.65));
#766 = VECTOR('',#767,1.);
#767 = DIRECTION('',(0.,1.,0.));
#768 = ORIENTED_EDGE('',*,*,#176,.F.);
#769 = ORIENTED_EDGE('',*,*,#761,.F.);
#770 = ORIENTED_EDGE('',*,*,#771,.F.);
#771 = EDGE_CURVE('',#772,#762,#774,.T.);
#772 = VERTEX_POINT('',#773);
#773 = CARTESIAN_POINT('',(386.7989981236,266.,7.443641926389));
#774 = B_SPLINE_CURVE_WITH_KNOTS('',6,(#775,#776,#777,#778,#779,#780,
    #781,#782,#783,#784,#785,#786,#787,#788,#789,#790,#791,#792,#793,
    #794,#795,#796,#797,#798,#799,#800,#801),.UNSPECIFIED.,.F.,.F.,(7,5,
    5,5,5,7),(0.,0.234224009472,0.478485314922,0.72611535799,
    0.830235609998,1.),.UNSPECIFIED.);
#775 = CARTESIAN_POINT('',(386.95330085889,265.30330085889,
    7.346743283786));
#776 = CARTESIAN_POINT('',(386.95330085889,265.37434059549,
    7.346743283786));
#777 = CARTESIAN_POINT('',(386.94963058962,265.44530863614,
    7.349341302631));
#778 = CARTESIAN_POINT('',(386.94230382636,265.51598396786,
    7.354527620322));
#779 = CARTESIAN_POINT('',(386.93134969892,265.58613670836,7.36216891632
    ));
#780 = CARTESIAN_POINT('',(386.91681780274,265.65550619034,
    7.372007837245));
#781 = CARTESIAN_POINT('',(386.88005941759,265.79498614439,
    7.395885423068));
#782 = CARTESIAN_POINT('',(386.85752175775,265.86503197147,7.41009153137
    ));
#783 = CARTESIAN_POINT('',(386.83126966102,265.9338222464,7.425965023455
    ));
#784 = CARTESIAN_POINT('',(386.80133696544,266.00123084156,
    7.443107990981));
#785 = CARTESIAN_POINT('',(386.76774858843,266.06710220376,
    7.461090174553));
#786 = CARTESIAN_POINT('',(386.69281070453,266.19628169801,
    7.498093307308));
#787 = CARTESIAN_POINT('',(386.65133130687,266.25959293238,
    7.517139712518));
#788 = CARTESIAN_POINT('',(386.60607282015,266.32106269656,
    7.536160469739));
#789 = CARTESIAN_POINT('',(386.5569935186,266.3805188103,7.554692415462)
  );
#790 = CARTESIAN_POINT('',(386.50404198725,266.43773871816,
    7.572238286356));
#791 = CARTESIAN_POINT('',(386.42324856827,266.51545525607,
    7.594985244414));
#792 = CARTESIAN_POINT('',(386.39864270609,266.53801312091,
    7.601446604844));
#793 = CARTESIAN_POINT('',(386.37334436101,266.5601017369,7.607594752846
    ));
#794 = CARTESIAN_POINT('',(386.34735487461,266.58169566462,
    7.613386462552));
#795 = CARTESIAN_POINT('',(386.32067889999,266.60276656542,
    7.618776615515));
#796 = CARTESIAN_POINT('',(386.24872385949,266.65673485107,
    7.631775280676));
#797 = CARTESIAN_POINT('',(386.20226986479,266.68875090747,
    7.638649156138));
#798 = CARTESIAN_POINT('',(386.15405496596,266.71914405205,
    7.644120144217));
#799 = CARTESIAN_POINT('',(386.10418754158,266.74774628938,
    7.647973268374));
#800 = CARTESIAN_POINT('',(386.05279050354,266.77440818834,7.65));
#801 = CARTESIAN_POINT('',(386.,266.79899812331,7.65));
#802 = ORIENTED_EDGE('',*,*,#803,.T.);
#803 = EDGE_CURVE('',#772,#804,#806,.T.);
#804 = VERTEX_POINT('',#805);
#805 = CARTESIAN_POINT('',(386.7989981236,266.,4.556358073611));
#806 = CIRCLE('',#807,1.65);
#807 = AXIS2_PLACEMENT_3D('',#808,#809,#810);
#808 = CARTESIAN_POINT('',(386.,266.,6.));
#809 = DIRECTION('',(0.,1.,0.));
#810 = DIRECTION('',(0.,0.,1.));
#811 = ORIENTED_EDGE('',*,*,#812,.T.);
#812 = EDGE_CURVE('',#804,#762,#813,.T.);
#813 = B_SPLINE_CURVE_WITH_KNOTS('',6,(#814,#815,#816,#817,#818,#819,
    #820,#821,#822,#823,#824,#825,#826,#827,#828,#829,#830,#831,#832,
    #833,#834,#835,#836,#837,#838,#839,#840,#841,#842,#843,#844,#845,
    #846,#847,#848,#849,#850,#851,#852,#853,#854,#855,#856,#857,#858,
    #859,#860,#861,#862,#863,#864,#865,#866,#867,#868,#869,#870,#871,
    #872,#873,#874,#875,#876,#877,#878,#879,#880,#881,#882,#883,#884,
    #885,#886,#887,#888,#889,#890,#891,#892,#893,#894,#895,#896,#897,
    #898,#899,#900,#901,#902,#903,#904,#905,#906,#907,#908,#909,#910),
  .UNSPECIFIED.,.F.,.F.,(7,5,5,5,5,5,5,5,5,5,5,5,5,5,5,5,5,5,5,7),(0.,
    6.306035061559E-02,0.128823051879,0.203928226796,0.236960264289,
    0.266121813964,0.282543209961,0.316644111892,0.367770321733,
    0.397418273151,0.430464552285,0.505441234267,0.570439717496,
    0.634755020756,0.699070324016,0.764068807245,0.872022482201,
    0.901617921746,0.952653565826,1.),.UNSPECIFIED.);
#814 = CARTESIAN_POINT('',(386.95330085889,265.30330085889,
    4.653256716214));
#815 = CARTESIAN_POINT('',(386.95330085889,265.37434059549,
    4.653256716214));
#816 = CARTESIAN_POINT('',(386.94963058962,265.44530863614,
    4.650658697369));
#817 = CARTESIAN_POINT('',(386.94230382636,265.51598396786,
    4.645472379678));
#818 = CARTESIAN_POINT('',(386.93134969892,265.58613670836,4.63783108368
    ));
#819 = CARTESIAN_POINT('',(386.91681780274,265.65550619034,
    4.627992162755));
#820 = CARTESIAN_POINT('',(386.88005941759,265.79498614439,
    4.604114576932));
#821 = CARTESIAN_POINT('',(386.85752175775,265.86503197147,4.58990846863
    ));
#822 = CARTESIAN_POINT('',(386.83126966102,265.9338222464,4.574034976545
    ));
#823 = CARTESIAN_POINT('',(386.80133696544,266.00123084156,
    4.556892009019));
#824 = CARTESIAN_POINT('',(386.76774858843,266.06710220376,
    4.538909825447));
#825 = CARTESIAN_POINT('',(386.68803740848,266.20451000575,
    4.499549715176));
#826 = CARTESIAN_POINT('',(386.64076934439,266.2755947729,4.478031270014
    ));
#827 = CARTESIAN_POINT('',(386.58870335092,266.34431934122,
    4.456617928455));
#828 = CARTESIAN_POINT('',(386.53177229488,266.41043174045,
    4.435974097715));
#829 = CARTESIAN_POINT('',(386.4698997044,266.47359698818,4.416822908954
    ));
#830 = CARTESIAN_POINT('',(386.37361835605,266.55967532487,
    4.392570628995));
#831 = CARTESIAN_POINT('',(386.34324166791,266.58531473662,
    4.385608947268));
#832 = CARTESIAN_POINT('',(386.31190719167,266.61025104947,
    4.379166506396));
#833 = CARTESIAN_POINT('',(386.27962614704,266.63443495585,
    4.373318091708));
#834 = CARTESIAN_POINT('',(386.24641256986,266.65781650858,
    4.368140552431));
#835 = CARTESIAN_POINT('',(386.18215310768,266.70023397125,
    4.359803867109));
#836 = CARTESIAN_POINT('',(386.15130664878,266.71945974693,
    4.356478943647));
#837 = CARTESIAN_POINT('',(386.11977516554,266.73797456866,
    4.353795291586));
#838 = CARTESIAN_POINT('',(386.08759235005,266.75573444351,
    4.351808469337));
#839 = CARTESIAN_POINT('',(386.05479435639,266.7726992649,4.350572333436
    ));
#840 = CARTESIAN_POINT('',(386.00262598468,266.79791790512,
    4.349895042352));
#841 = CARTESIAN_POINT('',(385.98365259717,266.80673784942,
    4.349905619605));
#842 = CARTESIAN_POINT('',(385.96450904901,266.81528505597,4.35018004436
    ));
#843 = CARTESIAN_POINT('',(385.94520597233,266.82355234094,
    4.350726985563));
#844 = CARTESIAN_POINT('',(385.92575522051,266.83153292622,
    4.351554507051));
#845 = CARTESIAN_POINT('',(385.86549864978,266.85518443738,
    4.354986656172));
#846 = CARTESIAN_POINT('',(385.82423047906,266.86989126636,
    4.358546109053));
#847 = CARTESIAN_POINT('',(385.78250471466,266.88327388736,
    4.363414742481));
#848 = CARTESIAN_POINT('',(385.74046510619,266.8952891926,4.369640291056
    ));
#849 = CARTESIAN_POINT('',(385.69825752449,266.90591684283,
    4.377250524167));
#850 = CARTESIAN_POINT('',(385.59271407993,266.92901318406,
    4.399747233148));
#851 = CARTESIAN_POINT('',(385.52945081186,266.93973012851,
    4.416348162351));
#852 = CARTESIAN_POINT('',(385.46669528003,266.94733849854,
    4.436065087859));
#853 = CARTESIAN_POINT('',(385.4049056098,266.95196525214,4.458810353208
    ));
#854 = CARTESIAN_POINT('',(385.34452558653,266.95382492894,4.48439049835
    ));
#855 = CARTESIAN_POINT('',(385.25201311338,266.95285314245,
    4.528798333951));
#856 = CARTESIAN_POINT('',(385.21864767702,266.95166389871,
    4.545958884987));
#857 = CARTESIAN_POINT('',(385.18591411647,266.94969659216,
    4.563942443351));
#858 = CARTESIAN_POINT('',(385.15385063387,266.94700755795,
    4.582707085095));
#859 = CARTESIAN_POINT('',(385.12249279042,266.94365497726,
    4.602206722386));
#860 = CARTESIAN_POINT('',(385.05774455799,266.93528931854,
    4.644889072535));
#861 = CARTESIAN_POINT('',(385.02452981114,266.93012948557,
    4.668239954415));
#862 = CARTESIAN_POINT('',(384.99224620392,266.92429817989,
    4.692393219842));
#863 = CARTESIAN_POINT('',(384.96090786601,266.91787215658,
    4.717298949071));
#864 = CARTESIAN_POINT('',(384.93052611875,266.91092612433,
    4.742907831917));
#865 = CARTESIAN_POINT('',(384.83436785111,266.88675836024,
    4.828758444468));
#866 = CARTESIAN_POINT('',(384.7725967747,266.86768227343,4.891712766097
    ));
#867 = CARTESIAN_POINT('',(384.71574064243,266.84711290403,
    4.957603488383));
#868 = CARTESIAN_POINT('',(384.66372437962,266.8257683584,5.026097109873
    ));
#869 = CARTESIAN_POINT('',(384.61648190565,266.80430861007,5.0969417725)
  );
#870 = CARTESIAN_POINT('',(384.53714300572,266.76521365238,
    5.233245288384));
#871 = CARTESIAN_POINT('',(384.50383757519,266.74743466137,
    5.298217543229));
#872 = CARTESIAN_POINT('',(384.47409543101,266.73045971224,
    5.364691633943));
#873 = CARTESIAN_POINT('',(384.44793894286,266.71470238492,
    5.432520116127));
#874 = CARTESIAN_POINT('',(384.42539994549,266.70054640723,
    5.501583285482));
#875 = CARTESIAN_POINT('',(384.38786626425,266.67624443973,
    5.641253758095));
#876 = CARTESIAN_POINT('',(384.37278523725,266.66605141853,
    5.711872905143));
#877 = CARTESIAN_POINT('',(384.36141576167,266.65812488163,
    5.783317481163));
#878 = CARTESIAN_POINT('',(384.35381035,266.65274131793,5.855312670327)
  );
#879 = CARTESIAN_POINT('',(384.35,266.65004414268,5.927617276321));
#880 = CARTESIAN_POINT('',(384.35,266.65004414268,6.072382723679));
#881 = CARTESIAN_POINT('',(384.35381035,266.65274131793,6.144687329674)
  );
#882 = CARTESIAN_POINT('',(384.36141576167,266.65812488163,
    6.216682518837));
#883 = CARTESIAN_POINT('',(384.37278523725,266.66605141853,
    6.288127094857));
#884 = CARTESIAN_POINT('',(384.38786626425,266.67624443973,
    6.358746241904));
#885 = CARTESIAN_POINT('',(384.42539994549,266.70054640723,
    6.498416714518));
#886 = CARTESIAN_POINT('',(384.44793894286,266.71470238492,
    6.567479883873));
#887 = CARTESIAN_POINT('',(384.47409543101,266.73045971224,
    6.635308366057));
#888 = CARTESIAN_POINT('',(384.50383757519,266.74743466137,
    6.701782456771));
#889 = CARTESIAN_POINT('',(384.53714300572,266.76521365238,
    6.766754711616));
#890 = CARTESIAN_POINT('',(384.63517349528,266.81351905924,
    6.935170210215));
#891 = CARTESIAN_POINT('',(384.70627397656,266.84478189769,
    7.035931745361));
#892 = CARTESIAN_POINT('',(384.78736799866,266.87524977163,
    7.131669095134));
#893 = CARTESIAN_POINT('',(384.87863061853,266.90284703685,
    7.221450161487));
#894 = CARTESIAN_POINT('',(384.98018523432,266.92526842981,
    7.303983443591));
#895 = CARTESIAN_POINT('',(385.1224927837,266.9436549764,7.397793273181)
  );
#896 = CARTESIAN_POINT('',(385.15385063633,266.94700755778,
    7.417292915785));
#897 = CARTESIAN_POINT('',(385.18591412382,266.94969659266,
    7.436057560807));
#898 = CARTESIAN_POINT('',(385.21864767847,266.95166389917,
    7.454041116369));
#899 = CARTESIAN_POINT('',(385.25201310538,266.95285314237,
    7.471201662211));
#900 = CARTESIAN_POINT('',(385.34452558653,266.95382492894,7.51560950165
    ));
#901 = CARTESIAN_POINT('',(385.4049056098,266.95196525214,7.541189646792
    ));
#902 = CARTESIAN_POINT('',(385.46669528003,266.94733849854,
    7.563934912141));
#903 = CARTESIAN_POINT('',(385.52945081186,266.93973012851,
    7.583651837649));
#904 = CARTESIAN_POINT('',(385.59271407993,266.92901318406,
    7.600252766852));
#905 = CARTESIAN_POINT('',(385.71476455761,266.90230456666,
    7.626267969301));
#906 = CARTESIAN_POINT('',(385.77342503373,266.88677626052,
    7.636089580281));
#907 = CARTESIAN_POINT('',(385.83164089215,266.86857033217,
    7.643240784151));
#908 = CARTESIAN_POINT('',(385.88904379259,266.84775776883,
    7.647822110473));
#909 = CARTESIAN_POINT('',(385.94527581637,266.82448877081,7.65));
#910 = CARTESIAN_POINT('',(386.,266.79899812331,7.65));
#911 = CYLINDRICAL_SURFACE('',#912,1.65);
#912 = AXIS2_PLACEMENT_3D('',#913,#914,#915);
#913 = CARTESIAN_POINT('',(386.,248.,6.));
#914 = DIRECTION('',(0.,1.,0.));
#915 = DIRECTION('',(0.,0.,1.));
#916 = ADVANCED_FACE('',(#917),#923,.F.);
#917 = FACE_BOUND('',#918,.F.);
#918 = EDGE_LOOP('',(#919,#920,#921,#922));
#919 = ORIENTED_EDGE('',*,*,#318,.F.);
#920 = ORIENTED_EDGE('',*,*,#386,.F.);
#921 = ORIENTED_EDGE('',*,*,#450,.T.);
#922 = ORIENTED_EDGE('',*,*,#421,.T.);
#923 = CYLINDRICAL_SURFACE('',#924,2.6);
#924 = AXIS2_PLACEMENT_3D('',#925,#926,#927);
#925 = CARTESIAN_POINT('',(380.,260.,-1.));
#926 = DIRECTION('',(0.,0.,1.));
#927 = DIRECTION('',(1.,0.,0.));
#928 = ADVANCED_FACE('',(#929),#940,.F.);
#929 = FACE_BOUND('',#930,.F.);
#930 = EDGE_LOOP('',(#931,#932,#938,#939));
#931 = ORIENTED_EDGE('',*,*,#327,.F.);
#932 = ORIENTED_EDGE('',*,*,#933,.F.);
#933 = EDGE_CURVE('',#460,#328,#934,.T.);
#934 = LINE('',#935,#936);
#935 = CARTESIAN_POINT('',(376.3466991411,254.6966991411,-1.));
#936 = VECTOR('',#937,1.);
#937 = DIRECTION('',(0.,0.,1.));
#938 = ORIENTED_EDGE('',*,*,#459,.T.);
#939 = ORIENTED_EDGE('',*,*,#933,.T.);
#940 = CYLINDRICAL_SURFACE('',#941,1.65);
#941 = AXIS2_PLACEMENT_3D('',#942,#943,#944);
#942 = CARTESIAN_POINT('',(374.6966991411,254.6966991411,-1.));
#943 = DIRECTION('',(0.,0.,1.));
#944 = DIRECTION('',(1.,0.,0.));
#945 = ADVANCED_FACE('',(#946),#968,.F.);
#946 = FACE_BOUND('',#947,.F.);
#947 = EDGE_LOOP('',(#948,#954,#955,#956,#957,#958,#964,#965,#966,#967)
  );
#948 = ORIENTED_EDGE('',*,*,#949,.T.);
#949 = EDGE_CURVE('',#519,#339,#950,.T.);
#950 = LINE('',#951,#952);
#951 = CARTESIAN_POINT('',(386.95330085889,254.6966991411,-1.));
#952 = VECTOR('',#953,1.);
#953 = DIRECTION('',(0.,0.,1.));
#954 = ORIENTED_EDGE('',*,*,#338,.F.);
#955 = ORIENTED_EDGE('',*,*,#949,.F.);
#956 = ORIENTED_EDGE('',*,*,#518,.F.);
#957 = ORIENTED_EDGE('',*,*,#672,.F.);
#958 = ORIENTED_EDGE('',*,*,#959,.F.);
#959 = EDGE_CURVE('',#471,#591,#960,.T.);
#960 = LINE('',#961,#962);
#961 = CARTESIAN_POINT('',(386.95330085889,254.6966991411,-1.));
#962 = VECTOR('',#963,1.);
#963 = DIRECTION('',(0.,0.,1.));
#964 = ORIENTED_EDGE('',*,*,#470,.T.);
#965 = ORIENTED_EDGE('',*,*,#959,.T.);
#966 = ORIENTED_EDGE('',*,*,#590,.T.);
#967 = ORIENTED_EDGE('',*,*,#550,.T.);
#968 = CYLINDRICAL_SURFACE('',#969,1.65);
#969 = AXIS2_PLACEMENT_3D('',#970,#971,#972);
#970 = CARTESIAN_POINT('',(385.30330085889,254.6966991411,-1.));
#971 = DIRECTION('',(0.,0.,1.));
#972 = DIRECTION('',(1.,0.,0.));
#973 = ADVANCED_FACE('',(#974),#985,.F.);
#974 = FACE_BOUND('',#975,.F.);
#975 = EDGE_LOOP('',(#976,#977,#983,#984));
#976 = ORIENTED_EDGE('',*,*,#349,.F.);
#977 = ORIENTED_EDGE('',*,*,#978,.F.);
#978 = EDGE_CURVE('',#482,#350,#979,.T.);
#979 = LINE('',#980,#981);
#980 = CARTESIAN_POINT('',(376.3466991411,265.30330085889,-1.));
#981 = VECTOR('',#982,1.);
#982 = DIRECTION('',(0.,0.,1.));
#983 = ORIENTED_EDGE('',*,*,#481,.T.);
#984 = ORIENTED_EDGE('',*,*,#978,.T.);
#985 = CYLINDRICAL_SURFACE('',#986,1.65);
#986 = AXIS2_PLACEMENT_3D('',#987,#988,#989);
#987 = CARTESIAN_POINT('',(374.6966991411,265.30330085889,-1.));
#988 = DIRECTION('',(0.,0.,1.));
#989 = DIRECTION('',(1.,0.,0.));
#990 = ADVANCED_FACE('',(#991,#1205),#1247,.F.);
#991 = FACE_BOUND('',#992,.F.);
#992 = EDGE_LOOP('',(#993,#1114,#1120,#1121,#1122,#1139,#1145,#1146,
    #1147,#1155,#1172,#1178,#1179,#1180));
#993 = ORIENTED_EDGE('',*,*,#994,.F.);
#994 = EDGE_CURVE('',#995,#997,#999,.T.);
#995 = VERTEX_POINT('',#996);
#996 = CARTESIAN_POINT('',(386.95330085889,265.30330085889,
    8.038067092228));
#997 = VERTEX_POINT('',#998);
#998 = CARTESIAN_POINT('',(386.,263.80760359448,3.75));
#999 = B_SPLINE_CURVE_WITH_KNOTS('',8,(#1000,#1001,#1002,#1003,#1004,
    #1005,#1006,#1007,#1008,#1009,#1010,#1011,#1012,#1013,#1014,#1015,
    #1016,#1017,#1018,#1019,#1020,#1021,#1022,#1023,#1024,#1025,#1026,
    #1027,#1028,#1029,#1030,#1031,#1032,#1033,#1034,#1035,#1036,#1037,
    #1038,#1039,#1040,#1041,#1042,#1043,#1044,#1045,#1046,#1047,#1048,
    #1049,#1050,#1051,#1052,#1053,#1054,#1055,#1056,#1057,#1058,#1059,
    #1060,#1061,#1062,#1063,#1064,#1065,#1066,#1067,#1068,#1069,#1070,
    #1071,#1072,#1073,#1074,#1075,#1076,#1077,#1078,#1079,#1080,#1081,
    #1082,#1083,#1084,#1085,#1086,#1087,#1088,#1089,#1090,#1091,#1092,
    #1093,#1094,#1095,#1096,#1097,#1098,#1099,#1100,#1101,#1102,#1103,
    #1104,#1105,#1106,#1107,#1108,#1109,#1110,#1111,#1112,#1113),
  .UNSPECIFIED.,.F.,.F.,(9,7,7,7,7,7,7,7,7,7,7,7,7,7,7,7,9),(0.,
    7.964558801337E-02,0.132856368758,0.152017692529,0.179618252765,
    0.203270970722,0.244973124903,0.293737599047,0.468763401233,
    0.558310531288,0.595796124845,0.633281718402,0.70380252932,
    0.723193261401,0.872197102705,0.922238089372,1.),.UNSPECIFIED.);
#1000 = CARTESIAN_POINT('',(386.95330085889,265.30330085889,
    8.038067092228));
#1001 = CARTESIAN_POINT('',(386.95330085889,265.21587538531,
    8.038067092228));
#1002 = CARTESIAN_POINT('',(386.94800693499,265.12854095095,
    8.040543276247));
#1003 = CARTESIAN_POINT('',(386.93743803953,265.04155785169,
    8.045486938105));
#1004 = CARTESIAN_POINT('',(386.92160712399,264.95519221646,
    8.052797927976));
#1005 = CARTESIAN_POINT('',(386.90052396565,264.86972237795,
    8.062285663826));
#1006 = CARTESIAN_POINT('',(386.87420154951,264.78544458515,
    8.073674606494));
#1007 = CARTESIAN_POINT('',(386.84266600532,264.7026780579,
    8.086614198429));
#1008 = CARTESIAN_POINT('',(386.78145376654,264.56771474121,8.110099414)
  );
#1009 = CARTESIAN_POINT('',(386.75461704687,264.51445132977,
    8.120020800969));
#1010 = CARTESIAN_POINT('',(386.72545190278,264.46204527433,
    8.130342623864));
#1011 = CARTESIAN_POINT('',(386.69394707202,264.41057153154,
    8.140939519922));
#1012 = CARTESIAN_POINT('',(386.66008863271,264.36011415329,
    8.151675375417));
#1013 = CARTESIAN_POINT('',(386.62386056801,264.31076655089,
    8.162403134329));
#1014 = CARTESIAN_POINT('',(386.58524533071,264.26263175909,
    8.172964607018));
#1015 = CARTESIAN_POINT('',(386.5294526798,264.19896665114,
    8.186872566712));
#1016 = CARTESIAN_POINT('',(386.5143690232,264.18228253344,8.19051129536
    ));
#1017 = CARTESIAN_POINT('',(386.49897258737,264.1657757404,
    8.194098514596));
#1018 = CARTESIAN_POINT('',(386.48326269037,264.14945197335,
    8.197626040917));
#1019 = CARTESIAN_POINT('',(386.46723881904,264.13331724168,
    8.201085457559));
#1020 = CARTESIAN_POINT('',(386.45090062902,264.11737786286,
    8.204468114496));
#1021 = CARTESIAN_POINT('',(386.43424794467,264.1016404624,
    8.207765128442));
#1022 = CARTESIAN_POINT('',(386.3928407032,264.06374426132,
    8.215580008612));
#1023 = CARTESIAN_POINT('',(386.36774422067,264.04180638551,
    8.219996806586));
#1024 = CARTESIAN_POINT('',(386.34199445256,264.02032234425,
    8.224189717548));
#1025 = CARTESIAN_POINT('',(386.3155952711,263.99931640945,
    8.228130035488));
#1026 = CARTESIAN_POINT('',(386.28855127985,263.97881312714,
    8.231788407611));
#1027 = CARTESIAN_POINT('',(386.26086781364,263.95883731744,
    8.235134834335));
#1028 = CARTESIAN_POINT('',(386.23255093861,263.9394140746,
    8.238138669295));
#1029 = CARTESIAN_POINT('',(386.17880389329,263.90441899525,
    8.243022394846));
#1030 = CARTESIAN_POINT('',(386.15353888328,263.88869287542,
    8.245001788807));
#1031 = CARTESIAN_POINT('',(386.12782440818,263.87341143131,
    8.246686267414));
#1032 = CARTESIAN_POINT('',(386.10167305555,263.85859482474,
    8.248055622229));
#1033 = CARTESIAN_POINT('',(386.07509801453,263.84426235543,
    8.249089970185));
#1034 = CARTESIAN_POINT('',(386.04811307575,263.83043246105,
    8.249769753585));
#1035 = CARTESIAN_POINT('',(386.02073263143,263.81712271718,
    8.250075740103));
#1036 = CARTESIAN_POINT('',(385.9440262782,263.78182994744,
    8.249836131308));
#1037 = CARTESIAN_POINT('',(385.89385734707,263.7609603705,
    8.248462677902));
#1038 = CARTESIAN_POINT('',(385.84263021055,263.74187760959,
    8.245761991679));
#1039 = CARTESIAN_POINT('',(385.79051777267,263.72469009665,
    8.241643688522));
#1040 = CARTESIAN_POINT('',(385.73769870695,263.70947914783,
    8.236035322232));
#1041 = CARTESIAN_POINT('',(385.68435565043,263.69629991891,
    8.228884035658));
#1042 = CARTESIAN_POINT('',(385.63067339773,263.68518236071,
    8.22015821184));
#1043 = CARTESIAN_POINT('',(385.51388353702,263.6655493262,
    8.197794179764));
#1044 = CARTESIAN_POINT('',(385.45089038878,263.65782208156,
    8.183606963056));
#1045 = CARTESIAN_POINT('',(385.38813491406,263.65292872621,
    8.167289312396));
#1046 = CARTESIAN_POINT('',(385.32589283645,263.65080797977,
    8.148882240135));
#1047 = CARTESIAN_POINT('',(385.26443587618,263.65135986861,
    8.128466907525));
#1048 = CARTESIAN_POINT('',(385.20402928675,263.65444659868,
    8.106165598626));
#1049 = CARTESIAN_POINT('',(385.14492939169,263.65989342836,
    8.082142694222));
#1050 = CARTESIAN_POINT('',(384.8808284538,263.6947535645,7.964947887171
    ));
#1051 = CARTESIAN_POINT('',(384.6935665556,263.74979745803,
    7.853472980162));
#1052 = CARTESIAN_POINT('',(384.52669851389,263.8245873541,
    7.726891468551));
#1053 = CARTESIAN_POINT('',(384.37996452848,263.91341706521,
    7.589257788743));
#1054 = CARTESIAN_POINT('',(384.25275852724,264.01153441976,
    7.443833071312));
#1055 = CARTESIAN_POINT('',(384.14422580035,264.11479378427,
    7.293523085479));
#1056 = CARTESIAN_POINT('',(384.05332053027,264.21901371495,
    7.140935589046));
#1057 = CARTESIAN_POINT('',(383.94062802265,264.3707163517,
    6.910507748941));
#1058 = CARTESIAN_POINT('',(383.90679207564,264.42101570435,
    6.832608220101));
#1059 = CARTESIAN_POINT('',(383.87626638547,264.47073226039,
    6.75345207023));
#1060 = CARTESIAN_POINT('',(383.84870972986,264.51992701187,
    6.672017985392));
#1061 = CARTESIAN_POINT('',(383.82429890814,264.56794814911,
    6.587909623236));
#1062 = CARTESIAN_POINT('',(383.80338114535,264.61326379487,
    6.501285494236));
#1063 = CARTESIAN_POINT('',(383.78620863659,264.6535553081,
    6.412461550163));
#1064 = CARTESIAN_POINT('',(383.76753964463,264.69984874641,
    6.283036573811));
#1065 = CARTESIAN_POINT('',(383.76266190028,264.71234564092,
    6.24392403618));
#1066 = CARTESIAN_POINT('',(383.75851259707,264.72331329545,
    6.204168250674));
#1067 = CARTESIAN_POINT('',(383.75514624773,264.73244753778,
    6.163955815635));
#1068 = CARTESIAN_POINT('',(383.75259280447,264.73950664064,
    6.12339829547));
#1069 = CARTESIAN_POINT('',(383.75087144605,264.74431124708,
    6.082548922222));
#1070 = CARTESIAN_POINT('',(383.75,264.74674318736,6.041419855392));
#1071 = CARTESIAN_POINT('',(383.75,264.74674318736,5.958580144608));
#1072 = CARTESIAN_POINT('',(383.75087144605,264.74431124708,
    5.917451077778));
#1073 = CARTESIAN_POINT('',(383.75259280447,264.73950664064,
    5.87660170453));
#1074 = CARTESIAN_POINT('',(383.75514624773,264.73244753778,
    5.836044184365));
#1075 = CARTESIAN_POINT('',(383.75851259707,264.72331329545,
    5.795831749326));
#1076 = CARTESIAN_POINT('',(383.76266190028,264.71234564092,
    5.75607596382));
#1077 = CARTESIAN_POINT('',(383.76753964463,264.69984874641,
    5.716963426189));
#1078 = CARTESIAN_POINT('',(383.78341248935,264.66048890526,
    5.606923068496));
#1079 = CARTESIAN_POINT('',(383.7962296679,264.63012798446,
    5.536813990269));
#1080 = CARTESIAN_POINT('',(383.8113428565,264.59643805828,
    5.468299821862));
#1081 = CARTESIAN_POINT('',(383.82861195152,264.56058533436,
    5.401431953709));
#1082 = CARTESIAN_POINT('',(383.84788587952,264.52341675633,
    5.336213675038));
#1083 = CARTESIAN_POINT('',(383.86908109564,264.48540742147,
    5.272442819666));
#1084 = CARTESIAN_POINT('',(383.8922975178,264.44668429812,
    5.209649829099));
#1085 = CARTESIAN_POINT('',(383.92494319951,264.39621862134,
    5.129951567987));
#1086 = CARTESIAN_POINT('',(383.93214435961,264.38530094175,
    5.112833574491));
#1087 = CARTESIAN_POINT('',(383.93950685325,264.37435478836,
    5.095783710438));
#1088 = CARTESIAN_POINT('',(383.94703146105,264.36338542532,
    5.078800214199));
#1089 = CARTESIAN_POINT('',(383.95471905468,264.35239783239,
    5.061881528863));
#1090 = CARTESIAN_POINT('',(383.96257059686,264.34139670494,
    5.045026302236));
#1091 = CARTESIAN_POINT('',(383.9705871414,264.33038645396,
    5.028233386837));
#1092 = CARTESIAN_POINT('',(384.04164793871,264.23472694164,
    4.882931925487));
#1093 = CARTESIAN_POINT('',(384.11416959949,264.15001535951,
    4.758325040179));
#1094 = CARTESIAN_POINT('',(384.1968932251,264.0669703902,4.636938403992
    ));
#1095 = CARTESIAN_POINT('',(384.29070894888,263.98669535493,
    4.518775770795));
#1096 = CARTESIAN_POINT('',(384.39677262471,263.91060718297,
    4.404182904308));
#1097 = CARTESIAN_POINT('',(384.51635334373,263.84070298641,
    4.294307930941));
#1098 = CARTESIAN_POINT('',(384.65036705177,263.77999752883,
    4.191196531015));
#1099 = CARTESIAN_POINT('',(384.84852752501,263.71634806444,4.0660706833
    ));
#1100 = CARTESIAN_POINT('',(384.90007498014,263.70178272928,
    4.035607153407));
#1101 = CARTESIAN_POINT('',(384.95328333297,263.68883664841,
    4.006295497513));
#1102 = CARTESIAN_POINT('',(385.00807505795,263.67768767625,
    3.978283720311));
#1103 = CARTESIAN_POINT('',(385.06436294011,263.66850915961,
    3.951709295448));
#1104 = CARTESIAN_POINT('',(385.12205000865,263.66147033277,
    3.92669869344));
#1105 = CARTESIAN_POINT('',(385.18102947059,263.65673671247,
    3.90336690958));
#1106 = CARTESIAN_POINT('',(385.3346636414,263.65094886837,
    3.848329187384));
#1107 = CARTESIAN_POINT('',(385.43087112241,263.65338968613,
    3.819184122001));
#1108 = CARTESIAN_POINT('',(385.52866694955,263.66240459138,
    3.794995584849));
#1109 = CARTESIAN_POINT('',(385.62686721936,263.67832821827,
    3.776082381186));
#1110 = CARTESIAN_POINT('',(385.72426789098,263.70121359261,
    3.762475557698));
#1111 = CARTESIAN_POINT('',(385.81967462727,263.73081874193,
    3.75393851396));
#1112 = CARTESIAN_POINT('',(385.91193884867,263.76658451264,3.75));
#1113 = CARTESIAN_POINT('',(386.,263.80760359448,3.75));
#1114 = ORIENTED_EDGE('',*,*,#1115,.T.);
#1115 = EDGE_CURVE('',#995,#361,#1116,.T.);
#1116 = LINE('',#1117,#1118);
#1117 = CARTESIAN_POINT('',(386.95330085889,265.30330085889,-1.));
#1118 = VECTOR('',#1119,1.);
#1119 = DIRECTION('',(0.,0.,1.));
#1120 = ORIENTED_EDGE('',*,*,#360,.F.);
#1121 = ORIENTED_EDGE('',*,*,#1115,.F.);
#1122 = ORIENTED_EDGE('',*,*,#1123,.T.);
#1123 = EDGE_CURVE('',#995,#1124,#1126,.T.);
#1124 = VERTEX_POINT('',#1125);
#1125 = CARTESIAN_POINT('',(386.79899812331,266.,8.103354938886));
#1126 = B_SPLINE_CURVE_WITH_KNOTS('',6,(#1127,#1128,#1129,#1130,#1131,
    #1132,#1133,#1134,#1135,#1136,#1137,#1138),.UNSPECIFIED.,.F.,.F.,(7,
    5,7),(0.,0.869559515568,1.),.UNSPECIFIED.);
#1127 = CARTESIAN_POINT('',(386.95330085889,265.30330085889,
    8.038067092228));
#1128 = CARTESIAN_POINT('',(386.95330085889,265.40702485509,
    8.038067092228));
#1129 = CARTESIAN_POINT('',(386.94547643781,265.51064811849,
    8.04172692095));
#1130 = CARTESIAN_POINT('',(386.92985566256,265.61363573108,
    8.049033615035));
#1131 = CARTESIAN_POINT('',(386.90645910499,265.71543825699,
    8.059702451878));
#1132 = CARTESIAN_POINT('',(386.87531213847,265.81545649678,
    8.073179979138));
#1133 = CARTESIAN_POINT('',(386.83069616712,265.92764980917,
    8.091048344636));
#1134 = CARTESIAN_POINT('',(386.82470317014,265.9422318893,
    8.093425916499));
#1135 = CARTESIAN_POINT('',(386.8185368968,265.95675975361,
    8.095847896378));
#1136 = CARTESIAN_POINT('',(386.81219730601,265.9712316567,
    8.098311799802));
#1137 = CARTESIAN_POINT('',(386.8056843239,265.98564585363,
    8.100815063432));
#1138 = CARTESIAN_POINT('',(386.79899784383,266.0000006,8.103355045052)
  );
#1139 = ORIENTED_EDGE('',*,*,#1140,.F.);
#1140 = EDGE_CURVE('',#772,#1124,#1141,.T.);
#1141 = LINE('',#1142,#1143);
#1142 = CARTESIAN_POINT('',(386.79899812331,266.,-1.));
#1143 = VECTOR('',#1144,1.);
#1144 = DIRECTION('',(0.,0.,1.));
#1145 = ORIENTED_EDGE('',*,*,#771,.T.);
#1146 = ORIENTED_EDGE('',*,*,#812,.F.);
#1147 = ORIENTED_EDGE('',*,*,#1148,.F.);
#1148 = EDGE_CURVE('',#1149,#804,#1151,.T.);
#1149 = VERTEX_POINT('',#1150);
#1150 = CARTESIAN_POINT('',(386.79899812331,266.,3.896645061114));
#1151 = LINE('',#1152,#1153);
#1152 = CARTESIAN_POINT('',(386.79899812331,266.,-1.));
#1153 = VECTOR('',#1154,1.);
#1154 = DIRECTION('',(0.,0.,1.));
#1155 = ORIENTED_EDGE('',*,*,#1156,.F.);
#1156 = EDGE_CURVE('',#1157,#1149,#1159,.T.);
#1157 = VERTEX_POINT('',#1158);
#1158 = CARTESIAN_POINT('',(386.95330085889,265.30330085889,
    3.961932907772));
#1159 = B_SPLINE_CURVE_WITH_KNOTS('',6,(#1160,#1161,#1162,#1163,#1164,
    #1165,#1166,#1167,#1168,#1169,#1170,#1171),.UNSPECIFIED.,.F.,.F.,(7,
    5,7),(0.,0.869559515568,1.),.UNSPECIFIED.);
#1160 = CARTESIAN_POINT('',(386.95330085889,265.30330085889,
    3.961932907772));
#1161 = CARTESIAN_POINT('',(386.95330085889,265.40702485509,
    3.961932907772));
#1162 = CARTESIAN_POINT('',(386.94547643781,265.51064811849,
    3.95827307905));
#1163 = CARTESIAN_POINT('',(386.92985566256,265.61363573108,
    3.950966384965));
#1164 = CARTESIAN_POINT('',(386.90645910499,265.71543825699,
    3.940297548122));
#1165 = CARTESIAN_POINT('',(386.87531213847,265.81545649678,
    3.926820020862));
#1166 = CARTESIAN_POINT('',(386.83069616712,265.92764980917,
    3.908951655364));
#1167 = CARTESIAN_POINT('',(386.82470317014,265.9422318893,
    3.906574083501));
#1168 = CARTESIAN_POINT('',(386.8185368968,265.95675975361,
    3.904152103622));
#1169 = CARTESIAN_POINT('',(386.81219730601,265.9712316567,
    3.901688200198));
#1170 = CARTESIAN_POINT('',(386.8056843239,265.98564585363,
    3.899184936568));
#1171 = CARTESIAN_POINT('',(386.79899784383,266.0000006,3.896644954948)
  );
#1172 = ORIENTED_EDGE('',*,*,#1173,.F.);
#1173 = EDGE_CURVE('',#493,#1157,#1174,.T.);
#1174 = LINE('',#1175,#1176);
#1175 = CARTESIAN_POINT('',(386.95330085889,265.30330085889,-1.));
#1176 = VECTOR('',#1177,1.);
#1177 = DIRECTION('',(0.,0.,1.));
#1178 = ORIENTED_EDGE('',*,*,#492,.T.);
#1179 = ORIENTED_EDGE('',*,*,#1173,.T.);
#1180 = ORIENTED_EDGE('',*,*,#1181,.F.);
#1181 = EDGE_CURVE('',#997,#1157,#1182,.T.);
#1182 = B_SPLINE_CURVE_WITH_KNOTS('',6,(#1183,#1184,#1185,#1186,#1187,
    #1188,#1189,#1190,#1191,#1192,#1193,#1194,#1195,#1196,#1197,#1198,
    #1199,#1200,#1201,#1202,#1203,#1204),.UNSPECIFIED.,.F.,.F.,(7,5,5,5,
    7),(0.,0.179330581848,0.293345395593,0.606720057545,1.),
  .UNSPECIFIED.);
#1183 = CARTESIAN_POINT('',(386.,263.80760359448,3.75));
#1184 = CARTESIAN_POINT('',(386.05668599166,263.83400805656,3.75));
#1185 = CARTESIAN_POINT('',(386.11164713945,263.86274650083,
    3.751713714789));
#1186 = CARTESIAN_POINT('',(386.16476147691,263.89365326526,
    3.754945814827));
#1187 = CARTESIAN_POINT('',(386.21592002649,263.92655086747,3.7594954482
    ));
#1188 = CARTESIAN_POINT('',(386.26502837919,263.96124854452,
    3.765159884369));
#1189 = CARTESIAN_POINT('',(386.34187715607,264.02061468161,
    3.775920493285));
#1190 = CARTESIAN_POINT('',(386.3709029893,264.04434673939,
    3.780474746597));
#1191 = CARTESIAN_POINT('',(386.39907894321,264.06869648033,
    3.785351981958));
#1192 = CARTESIAN_POINT('',(386.42640147791,264.09362682383,
    3.790505561986));
#1193 = CARTESIAN_POINT('',(386.45287034425,264.1191040945,
    3.795891147818));
#1194 = CARTESIAN_POINT('',(386.54890142673,264.21654345982,
    3.816791343708));
#1195 = CARTESIAN_POINT('',(386.61287641033,264.29188220481,
    3.833548763971));
#1196 = CARTESIAN_POINT('',(386.67049079815,264.3705120891,
    3.850874944064));
#1197 = CARTESIAN_POINT('',(386.72183460224,264.45195059728,
    3.868022280647));
#1198 = CARTESIAN_POINT('',(386.76698322481,264.53580948262,
    3.884348693128));
#1199 = CARTESIAN_POINT('',(386.85489797382,264.72964761613,
    3.918078824121));
#1200 = CARTESIAN_POINT('',(386.89419317337,264.8409938405,
    3.934723892986));
#1201 = CARTESIAN_POINT('',(386.92370795163,264.95483761267,
    3.948090654571));
#1202 = CARTESIAN_POINT('',(386.9434188676,265.07033620256,
    3.957310697603));
#1203 = CARTESIAN_POINT('',(386.95330085889,265.18673356079,
    3.961932907772));
#1204 = CARTESIAN_POINT('',(386.95330085889,265.30330085889,
    3.961932907772));
#1205 = FACE_BOUND('',#1206,.F.);
#1206 = EDGE_LOOP('',(#1207,#1241));
#1207 = ORIENTED_EDGE('',*,*,#1208,.F.);
#1208 = EDGE_CURVE('',#1209,#1211,#1213,.T.);
#1209 = VERTEX_POINT('',#1210);
#1210 = CARTESIAN_POINT('',(383.80760359448,266.,5.494136380963));
#1211 = VERTEX_POINT('',#1212);
#1212 = CARTESIAN_POINT('',(383.80760359448,266.,6.505863619037));
#1213 = B_SPLINE_CURVE_WITH_KNOTS('',6,(#1214,#1215,#1216,#1217,#1218,
    #1219,#1220,#1221,#1222,#1223,#1224,#1225,#1226,#1227,#1228,#1229,
    #1230,#1231,#1232,#1233,#1234,#1235,#1236,#1237,#1238,#1239,#1240),
  .UNSPECIFIED.,.F.,.F.,(7,5,5,5,5,7),(0.,0.243320839513,0.500859703443,
    0.666175813507,0.757759993456,1.),.UNSPECIFIED.);
#1214 = CARTESIAN_POINT('',(383.80760387396,266.0000006,5.494135169701)
  );
#1215 = CARTESIAN_POINT('',(383.79887123446,265.981253094,5.531982048677
    ));
#1216 = CARTESIAN_POINT('',(383.79083650698,265.96326770223,
    5.570382895252));
#1217 = CARTESIAN_POINT('',(383.78352411724,265.94622602058,
    5.60936453988));
#1218 = CARTESIAN_POINT('',(383.77696224129,265.93035476862,
    5.648960854308));
#1219 = CARTESIAN_POINT('',(383.77118553182,265.9159245475,
    5.689213546921));
#1220 = CARTESIAN_POINT('',(383.76100104773,265.88983195179,
    5.773525760247));
#1221 = CARTESIAN_POINT('',(383.75666573192,265.87831010022,
    5.817895996661));
#1222 = CARTESIAN_POINT('',(383.75336056304,265.86923798849,
    5.862876626688));
#1223 = CARTESIAN_POINT('',(383.75112939211,265.86301041895,
    5.908264490387));
#1224 = CARTESIAN_POINT('',(383.75,265.85985853043,5.953982943653));
#1225 = CARTESIAN_POINT('',(383.75,265.85985853043,6.029538690339));
#1226 = CARTESIAN_POINT('',(383.75046535334,265.86115695966,
    6.059031945837));
#1227 = CARTESIAN_POINT('',(383.75139336674,265.86374781172,
    6.088443115276));
#1228 = CARTESIAN_POINT('',(383.75277825788,265.86758645118,
    6.117717298322));
#1229 = CARTESIAN_POINT('',(383.7546074757,265.8725902955,6.146780593066
    ));
#1230 = CARTESIAN_POINT('',(383.75810480991,265.88199072003,
    6.191471526935));
#1231 = CARTESIAN_POINT('',(383.75948194101,265.8856657218,
    6.207322964643));
#1232 = CARTESIAN_POINT('',(383.76098658094,265.88964682695,
    6.223087667048));
#1233 = CARTESIAN_POINT('',(383.76261593802,265.89391626606,
    6.23876134957));
#1234 = CARTESIAN_POINT('',(383.76436726209,265.89845617561,
    6.254341432683));
#1235 = CARTESIAN_POINT('',(383.77118553182,265.9159245475,
    6.310786453079));
#1236 = CARTESIAN_POINT('',(383.77696224129,265.93035476862,
    6.351039145692));
#1237 = CARTESIAN_POINT('',(383.78352411724,265.94622602058,
    6.39063546012));
#1238 = CARTESIAN_POINT('',(383.79083650698,265.96326770223,
    6.429617104748));
#1239 = CARTESIAN_POINT('',(383.79887123446,265.981253094,6.468017951323
    ));
#1240 = CARTESIAN_POINT('',(383.80760387396,266.0000006,6.505864830299)
  );
#1241 = ORIENTED_EDGE('',*,*,#1242,.T.);
#1242 = EDGE_CURVE('',#1209,#1211,#1243,.T.);
#1243 = LINE('',#1244,#1245);
#1244 = CARTESIAN_POINT('',(383.80760359448,266.,-1.));
#1245 = VECTOR('',#1246,1.);
#1246 = DIRECTION('',(0.,0.,1.));
#1247 = CYLINDRICAL_SURFACE('',#1248,1.65);
#1248 = AXIS2_PLACEMENT_3D('',#1249,#1250,#1251);
#1249 = CARTESIAN_POINT('',(385.30330085889,265.30330085889,-1.));
#1250 = DIRECTION('',(0.,0.,1.));
#1251 = DIRECTION('',(1.,0.,0.));
#1252 = ADVANCED_FACE('',(#1253),#1274,.F.);
#1253 = FACE_BOUND('',#1254,.F.);
#1254 = EDGE_LOOP('',(#1255,#1256,#1262,#1263,#1264,#1271,#1272,#1273));
#1255 = ORIENTED_EDGE('',*,*,#395,.F.);
#1256 = ORIENTED_EDGE('',*,*,#1257,.F.);
#1257 = EDGE_CURVE('',#997,#396,#1258,.T.);
#1258 = LINE('',#1259,#1260);
#1259 = CARTESIAN_POINT('',(386.,266.,3.75));
#1260 = VECTOR('',#1261,1.);
#1261 = DIRECTION('',(0.,-1.,0.));
#1262 = ORIENTED_EDGE('',*,*,#1181,.T.);
#1263 = ORIENTED_EDGE('',*,*,#1156,.T.);
#1264 = ORIENTED_EDGE('',*,*,#1265,.T.);
#1265 = EDGE_CURVE('',#1149,#1124,#1266,.T.);
#1266 = CIRCLE('',#1267,2.25);
#1267 = AXIS2_PLACEMENT_3D('',#1268,#1269,#1270);
#1268 = CARTESIAN_POINT('',(386.,266.,6.));
#1269 = DIRECTION('',(0.,-1.,0.));
#1270 = DIRECTION('',(0.,0.,-1.));
#1271 = ORIENTED_EDGE('',*,*,#1123,.F.);
#1272 = ORIENTED_EDGE('',*,*,#994,.T.);
#1273 = ORIENTED_EDGE('',*,*,#1257,.T.);
#1274 = CYLINDRICAL_SURFACE('',#1275,2.25);
#1275 = AXIS2_PLACEMENT_3D('',#1276,#1277,#1278);
#1276 = CARTESIAN_POINT('',(386.,266.,6.));
#1277 = DIRECTION('',(0.,-1.,0.));
#1278 = DIRECTION('',(0.,0.,-1.));
#1279 = ADVANCED_FACE('',(#1280),#1286,.T.);
#1280 = FACE_BOUND('',#1281,.T.);
#1281 = EDGE_LOOP('',(#1282,#1283,#1284,#1285));
#1282 = ORIENTED_EDGE('',*,*,#1148,.F.);
#1283 = ORIENTED_EDGE('',*,*,#1265,.T.);
#1284 = ORIENTED_EDGE('',*,*,#1140,.F.);
#1285 = ORIENTED_EDGE('',*,*,#803,.T.);
#1286 = PLANE('',#1287);
#1287 = AXIS2_PLACEMENT_3D('',#1288,#1289,#1290);
#1288 = CARTESIAN_POINT('',(386.,266.,6.));
#1289 = DIRECTION('',(0.,-1.,0.));
#1290 = DIRECTION('',(0.,0.,-1.));
#1291 = ADVANCED_FACE('',(#1292),#1302,.F.);
#1292 = FACE_BOUND('',#1293,.F.);
#1293 = EDGE_LOOP('',(#1294,#1301));
#1294 = ORIENTED_EDGE('',*,*,#1295,.T.);
#1295 = EDGE_CURVE('',#1211,#1209,#1296,.T.);
#1296 = CIRCLE('',#1297,2.25);
#1297 = AXIS2_PLACEMENT_3D('',#1298,#1299,#1300);
#1298 = CARTESIAN_POINT('',(386.,266.,6.));
#1299 = DIRECTION('',(0.,-1.,0.));
#1300 = DIRECTION('',(0.,0.,-1.));
#1301 = ORIENTED_EDGE('',*,*,#1208,.T.);
#1302 = CYLINDRICAL_SURFACE('',#1303,2.25);
#1303 = AXIS2_PLACEMENT_3D('',#1304,#1305,#1306);
#1304 = CARTESIAN_POINT('',(386.,266.,6.));
#1305 = DIRECTION('',(0.,-1.,0.));
#1306 = DIRECTION('',(0.,0.,-1.));
#1307 = ADVANCED_FACE('',(#1308),#1312,.T.);
#1308 = FACE_BOUND('',#1309,.T.);
#1309 = EDGE_LOOP('',(#1310,#1311));
#1310 = ORIENTED_EDGE('',*,*,#1295,.T.);
#1311 = ORIENTED_EDGE('',*,*,#1242,.T.);
#1312 = PLANE('',#1313);
#1313 = AXIS2_PLACEMENT_3D('',#1314,#1315,#1316);
#1314 = CARTESIAN_POINT('',(386.,266.,6.));
#1315 = DIRECTION('',(0.,-1.,0.));
#1316 = DIRECTION('',(0.,0.,-1.));
#1317 = ( GEOMETRIC_REPRESENTATION_CONTEXT(3) 
GLOBAL_UNCERTAINTY_ASSIGNED_CONTEXT((#1321)) 
GLOBAL_UNIT_ASSIGNED_CONTEXT((#1318,#1319,#1320)) REPRESENTATION_CONTEXT
('Context #1','3D Context with UNIT and UNCERTAINTY') );
#1318 = ( LENGTH_UNIT() NAMED_UNIT(*) SI_UNIT(.MILLI.,.METRE.) );
#1319 = ( NAMED_UNIT(*) PLANE_ANGLE_UNIT() SI_UNIT($,.RADIAN.) );
#1320 = ( NAMED_UNIT(*) SI_UNIT($,.STERADIAN.) SOLID_ANGLE_UNIT() );
#1321 = UNCERTAINTY_MEASURE_WITH_UNIT(LENGTH_MEASURE(1.E-07),#1318,
  'distance_accuracy_value','confusion accuracy');
#1322 = PRODUCT_RELATED_PRODUCT_CATEGORY('part',$,(#7));
ENDSEC;
END-ISO-10303-21;
