ISO-10303-21;
HEADER;
FILE_DESCRIPTION(('FreeCAD Model'),'2;1');
FILE_NAME('Open CASCADE Shape Model','2026-07-30T13:38:45',('FreeCAD'),(
    'FreeCAD'),'Open CASCADE STEP processor 7.8','FreeCAD','Unknown');
FILE_SCHEMA(('AUTOMOTIVE_DESIGN { 1 0 10303 214 1 1 1 1 }'));
ENDSEC;
DATA;
#1 = APPLICATION_PROTOCOL_DEFINITION('international standard',
  'automotive_design',2000,#2);
#2 = APPLICATION_CONTEXT(
  'core data for automotive mechanical design processes');
#3 = SHAPE_DEFINITION_REPRESENTATION(#4,#10);
#4 = PRODUCT_DEFINITION_SHAPE('','',#5);
#5 = PRODUCT_DEFINITION('design','',#6,#9);
#6 = PRODUCT_DEFINITION_FORMATION('','',#7);
#7 = PRODUCT('Open CASCADE STEP translator 7.8 57',
  'Open CASCADE STEP translator 7.8 57','',(#8));
#8 = PRODUCT_CONTEXT('',#2,'mechanical');
#9 = PRODUCT_DEFINITION_CONTEXT('part definition',#2,'design');
#10 = ADVANCED_BREP_SHAPE_REPRESENTATION('',(#11,#15),#1316);
#11 = AXIS2_PLACEMENT_3D('',#12,#13,#14);
#12 = CARTESIAN_POINT('',(0.,0.,0.));
#13 = DIRECTION('',(0.,0.,1.));
#14 = DIRECTION('',(1.,0.,-0.));
#15 = MANIFOLD_SOLID_BREP('',#16);
#16 = CLOSED_SHELL('',(#17,#447,#535,#576,#617,#691,#860,#894,#910,#927,
    #938,#980,#1135,#1151,#1162,#1180,#1204,#1221,#1245,#1258,#1275,
    #1292,#1304));
#17 = ADVANCED_FACE('',(#18,#54,#215),#442,.T.);
#18 = FACE_BOUND('',#19,.T.);
#19 = EDGE_LOOP('',(#20,#31,#39,#48));
#20 = ORIENTED_EDGE('',*,*,#21,.F.);
#21 = EDGE_CURVE('',#22,#24,#26,.T.);
#22 = VERTEX_POINT('',#23);
#23 = CARTESIAN_POINT('',(10.482843125794,0.6,8.));
#24 = VERTEX_POINT('',#25);
#25 = CARTESIAN_POINT('',(10.482843125794,-0.6,8.));
#26 = CIRCLE('',#27,10.5);
#27 = AXIS2_PLACEMENT_3D('',#28,#29,#30);
#28 = CARTESIAN_POINT('',(0.,0.,8.));
#29 = DIRECTION('',(0.,0.,1.));
#30 = DIRECTION('',(1.,0.,0.));
#31 = ORIENTED_EDGE('',*,*,#32,.F.);
#32 = EDGE_CURVE('',#33,#22,#35,.T.);
#33 = VERTEX_POINT('',#34);
#34 = CARTESIAN_POINT('',(10.482843125794,0.6,0.));
#35 = LINE('',#36,#37);
#36 = CARTESIAN_POINT('',(10.482843125794,0.6,0.));
#37 = VECTOR('',#38,1.);
#38 = DIRECTION('',(0.,0.,1.));
#39 = ORIENTED_EDGE('',*,*,#40,.T.);
#40 = EDGE_CURVE('',#33,#41,#43,.T.);
#41 = VERTEX_POINT('',#42);
#42 = CARTESIAN_POINT('',(10.482843125794,-0.6,0.));
#43 = CIRCLE('',#44,10.5);
#44 = AXIS2_PLACEMENT_3D('',#45,#46,#47);
#45 = CARTESIAN_POINT('',(0.,0.,0.));
#46 = DIRECTION('',(0.,0.,1.));
#47 = DIRECTION('',(1.,0.,0.));
#48 = ORIENTED_EDGE('',*,*,#49,.T.);
#49 = EDGE_CURVE('',#41,#24,#50,.T.);
#50 = LINE('',#51,#52);
#51 = CARTESIAN_POINT('',(10.482843125794,-0.6,0.));
#52 = VECTOR('',#53,1.);
#53 = DIRECTION('',(0.,0.,1.));
#54 = FACE_BOUND('',#55,.T.);
#55 = EDGE_LOOP('',(#56,#175,#183,#192,#200,#209));
#56 = ORIENTED_EDGE('',*,*,#57,.F.);
#57 = EDGE_CURVE('',#58,#60,#62,.T.);
#58 = VERTEX_POINT('',#59);
#59 = CARTESIAN_POINT('',(7.547184897714,7.3,5.556627335282));
#60 = VERTEX_POINT('',#61);
#61 = CARTESIAN_POINT('',(7.54718490568,7.3,2.4433726588));
#62 = B_SPLINE_CURVE_WITH_KNOTS('',6,(#63,#64,#65,#66,#67,#68,#69,#70,
    #71,#72,#73,#74,#75,#76,#77,#78,#79,#80,#81,#82,#83,#84,#85,#86,#87,
    #88,#89,#90,#91,#92,#93,#94,#95,#96,#97,#98,#99,#100,#101,#102,#103,
    #104,#105,#106,#107,#108,#109,#110,#111,#112,#113,#114,#115,#116,
    #117,#118,#119,#120,#121,#122,#123,#124,#125,#126,#127,#128,#129,
    #130,#131,#132,#133,#134,#135,#136,#137,#138,#139,#140,#141,#142,
    #143,#144,#145,#146,#147,#148,#149,#150,#151,#152,#153,#154,#155,
    #156,#157,#158,#159,#160,#161,#162,#163,#164,#165,#166,#167,#168,
    #169,#170,#171,#172,#173,#174),.UNSPECIFIED.,.T.,.F.,(7,5,5,5,5,5,5,
    5,5,5,5,5,5,5,5,5,5,5,5,5,5,5,7),(0.,9.17604853052E-02,
    0.153433224757,0.174893954733,0.203892074574,0.226280230928,
    0.238718860847,0.264135996078,0.301901677979,0.353099142264,
    0.436125334702,0.506834999034,0.573424068699,0.633575012921,
    0.673151089967,0.716138138447,0.764449361129,0.812352554038,
    0.834577669165,0.855907492645,0.894935531639,0.94027314436,1.),
  .UNSPECIFIED.);
#63 = CARTESIAN_POINT('',(7.,7.826237921249,5.65));
#64 = CARTESIAN_POINT('',(7.152706029435,7.689653496293,5.65));
#65 = CARTESIAN_POINT('',(7.301139667945,7.550454314362,5.633040556941)
  );
#66 = CARTESIAN_POINT('',(7.443978387498,7.409994016115,5.600901331887)
  );
#67 = CARTESIAN_POINT('',(7.580379712934,7.269564272792,5.5549506882));
#68 = CARTESIAN_POINT('',(7.709653703479,7.130531259096,5.496213334847)
  );
#69 = CARTESIAN_POINT('',(7.912721503584,6.903176956383,5.377812321079)
  );
#70 = CARTESIAN_POINT('',(7.990848852579,6.813129788392,5.324743631813)
  );
#71 = CARTESIAN_POINT('',(8.065401894059,6.724771653812,5.266321320802)
  );
#72 = CARTESIAN_POINT('',(8.136223026668,6.638567883278,5.202562195419)
  );
#73 = CARTESIAN_POINT('',(8.203042986399,6.555175451684,5.13342163679));
#74 = CARTESIAN_POINT('',(8.287164310887,6.447801761961,5.032885847407)
  );
#75 = CARTESIAN_POINT('',(8.30834931191,6.420531188084,5.006269289857));
#76 = CARTESIAN_POINT('',(8.328987554635,6.393745292209,4.978984082951)
  );
#77 = CARTESIAN_POINT('',(8.349060174319,6.367486020891,4.951025201463)
  );
#78 = CARTESIAN_POINT('',(8.368545458119,6.341800307137,4.922387788954)
  );
#79 = CARTESIAN_POINT('',(8.412920901071,6.282878233041,4.853448599694)
  );
#80 = CARTESIAN_POINT('',(8.437311735463,6.250150287394,4.812573244937)
  );
#81 = CARTESIAN_POINT('',(8.460522322839,6.218696040575,4.770440659955)
  );
#82 = CARTESIAN_POINT('',(8.482476647218,6.188668968401,4.727052773972)
  );
#83 = CARTESIAN_POINT('',(8.503091702064,6.160236215398,4.682413878976)
  );
#84 = CARTESIAN_POINT('',(8.537089982572,6.112997433632,4.601106217239)
  );
#85 = CARTESIAN_POINT('',(8.551052150378,6.093471647372,4.564935571646)
  );
#86 = CARTESIAN_POINT('',(8.564111359793,6.075100459062,4.528048000112)
  );
#87 = CARTESIAN_POINT('',(8.576217087562,6.057980088933,4.490473434787)
  );
#88 = CARTESIAN_POINT('',(8.587320921077,6.042203754398,4.452242432801)
  );
#89 = CARTESIAN_POINT('',(8.602963367281,6.019893355176,4.391798038871)
  );
#90 = CARTESIAN_POINT('',(8.60822536827,6.012369430524,4.370021743137));
#91 = CARTESIAN_POINT('',(8.613153755806,6.005306515903,4.348066205744)
  );
#92 = CARTESIAN_POINT('',(8.617740136472,5.998720402503,4.325941932713)
  );
#93 = CARTESIAN_POINT('',(8.621976528981,5.992626052897,4.30366101939));
#94 = CARTESIAN_POINT('',(8.633781388118,5.975618141088,4.235416146614)
  );
#95 = CARTESIAN_POINT('',(8.640219203737,5.966304022688,4.18897185517));
#96 = CARTESIAN_POINT('',(8.645096190106,5.959227160273,4.14205653643));
#97 = CARTESIAN_POINT('',(8.648364580707,5.954477097235,4.09482222358));
#98 = CARTESIAN_POINT('',(8.65,5.952100469582,4.04742012057));
#99 = CARTESIAN_POINT('',(8.65,5.952100469582,3.92954150132));
#100 = CARTESIAN_POINT('',(8.646389289589,5.957347148105,3.859199224409)
  );
#101 = CARTESIAN_POINT('',(8.639191343248,5.967809565556,3.789406905427)
  );
#102 = CARTESIAN_POINT('',(8.628515121703,5.983271870913,3.720606071114)
  );
#103 = CARTESIAN_POINT('',(8.614568764754,6.003338343709,3.65324240453)
  );
#104 = CARTESIAN_POINT('',(8.574768738904,6.060109992659,3.498993026508)
  );
#105 = CARTESIAN_POINT('',(8.546447028787,6.100192591423,3.413693349501)
  );
#106 = CARTESIAN_POINT('',(8.513271009169,6.146605851904,3.33204226078)
  );
#107 = CARTESIAN_POINT('',(8.475751836004,6.1983147543,3.254194265367));
#108 = CARTESIAN_POINT('',(8.43437857691,6.254341826166,3.180279691156)
  );
#109 = CARTESIAN_POINT('',(8.317108600083,6.410168274069,2.997090709296)
  );
#110 = CARTESIAN_POINT('',(8.235378051659,6.516005388416,2.893836935027)
  );
#111 = CARTESIAN_POINT('',(8.145880119567,6.628268650427,2.800473309969)
  );
#112 = CARTESIAN_POINT('',(8.049471849348,6.745009429489,2.716756058886)
  );
#113 = CARTESIAN_POINT('',(7.946577466701,6.865047521731,2.642583956435)
  );
#114 = CARTESIAN_POINT('',(7.744206420272,7.092025758199,2.523407598429)
  );
#115 = CARTESIAN_POINT('',(7.646554344354,7.198192322992,2.475748425481)
  );
#116 = CARTESIAN_POINT('',(7.544628157434,7.305399879623,2.435526687439)
  );
#117 = CARTESIAN_POINT('',(7.43870269475,7.413041234654,2.403145216728)
  );
#118 = CARTESIAN_POINT('',(7.329080489019,7.520554151351,2.379143724719)
  );
#119 = CARTESIAN_POINT('',(7.109859727614,7.727956839947,2.350172015297)
  );
#120 = CARTESIAN_POINT('',(7.000511191701,7.828040453668,2.344158190583)
  );
#121 = CARTESIAN_POINT('',(6.888847879344,7.926782592461,2.346850936562)
  );
#122 = CARTESIAN_POINT('',(6.775689348909,8.023409295604,2.358855317907)
  );
#123 = CARTESIAN_POINT('',(6.661971326896,8.117211110709,2.380712917197)
  );
#124 = CARTESIAN_POINT('',(6.446485520252,8.289146047047,2.441979997791)
  );
#125 = CARTESIAN_POINT('',(6.344675504078,8.367876997262,2.479474084805)
  );
#126 = CARTESIAN_POINT('',(6.244551198492,8.442914166969,2.525596811769)
  );
#127 = CARTESIAN_POINT('',(6.147347162154,8.513607460135,2.580292853061)
  );
#128 = CARTESIAN_POINT('',(6.054262710903,8.579470085797,2.643242838726)
  );
#129 = CARTESIAN_POINT('',(5.90857275802,8.680075151926,2.760327374161)
  );
#130 = CARTESIAN_POINT('',(5.85305366658,8.717727778474,2.810078867522)
  );
#131 = CARTESIAN_POINT('',(5.800133850537,8.753016312548,2.862944019766)
  );
#132 = CARTESIAN_POINT('',(5.750091553948,8.785875470537,2.918704634902)
  );
#133 = CARTESIAN_POINT('',(5.703173244405,8.816262973246,2.977098552691)
  );
#134 = CARTESIAN_POINT('',(5.612241581478,8.874452309362,3.103775618976)
  );
#135 = CARTESIAN_POINT('',(5.56883061822,8.901803293343,3.172472457265)
  );
#136 = CARTESIAN_POINT('',(5.529558179496,8.926217623269,3.243598930959)
  );
#137 = CARTESIAN_POINT('',(5.494595686256,8.947713352573,3.316819575242)
  );
#138 = CARTESIAN_POINT('',(5.464075697855,8.966314725814,3.391776523249)
  );
#139 = CARTESIAN_POINT('',(5.408879322338,8.999732788531,3.553856655477)
  );
#140 = CARTESIAN_POINT('',(5.385387345873,9.013799961664,3.641358698736)
  );
#141 = CARTESIAN_POINT('',(5.367706698959,9.024308828439,3.730162574));
#142 = CARTESIAN_POINT('',(5.355900852784,9.0312995867,3.819831103242));
#143 = CARTESIAN_POINT('',(5.35,9.03479385487,3.909924375365));
#144 = CARTESIAN_POINT('',(5.35,9.03479385487,4.089314858614));
#145 = CARTESIAN_POINT('',(5.355801596438,9.031358364435,4.178646657746)
  );
#146 = CARTESIAN_POINT('',(5.367408732951,9.024485265785,4.267564409508)
  );
#147 = CARTESIAN_POINT('',(5.384792272987,9.014153642441,4.355639480736)
  );
#148 = CARTESIAN_POINT('',(5.407890995819,9.000324553443,4.442445830407)
  );
#149 = CARTESIAN_POINT('',(5.449938234457,8.974876927046,4.567049842504)
  );
#150 = CARTESIAN_POINT('',(5.464472339365,8.966048290874,4.606170017808)
  );
#151 = CARTESIAN_POINT('',(5.48020426253,8.956451087661,4.644875100877)
  );
#152 = CARTESIAN_POINT('',(5.497120129512,8.946081005013,4.683118596247)
  );
#153 = CARTESIAN_POINT('',(5.515202836187,8.934934229555,4.720853185075)
  );
#154 = CARTESIAN_POINT('',(5.552886653242,8.911561109442,4.793710646819)
  );
#155 = CARTESIAN_POINT('',(5.572397070579,8.899396547532,4.828877673859)
  );
#156 = CARTESIAN_POINT('',(5.592945166017,8.886510867579,4.863488934699)
  );
#157 = CARTESIAN_POINT('',(5.614509093538,8.87290264928,4.897501673018)
  );
#158 = CARTESIAN_POINT('',(5.637063295848,8.858571945646,4.930873247737)
  );
#159 = CARTESIAN_POINT('',(5.703605230606,8.815979648294,5.023371476154)
  );
#160 = CARTESIAN_POINT('',(5.749864852319,8.786015549747,5.080915024487)
  );
#161 = CARTESIAN_POINT('',(5.799158994412,8.753650307389,5.135900150838)
  );
#162 = CARTESIAN_POINT('',(5.851252009352,8.718924245152,5.188075953021)
  );
#163 = CARTESIAN_POINT('',(5.905878272461,8.681899312708,5.237232912139)
  );
#164 = CARTESIAN_POINT('',(6.028814919436,8.597082809704,5.336606157529)
  );
#165 = CARTESIAN_POINT('',(6.097877785397,8.548540534432,5.385682971652)
  );
#166 = CARTESIAN_POINT('',(6.169462970753,8.497189895417,5.430166302135)
  );
#167 = CARTESIAN_POINT('',(6.243058350956,8.443231598174,5.469879288549)
  );
#168 = CARTESIAN_POINT('',(6.318129538088,8.386919627997,5.50473576036)
  );
#169 = CARTESIAN_POINT('',(6.494262221402,8.251696368358,5.574267202365)
  );
#170 = CARTESIAN_POINT('',(6.595898462206,8.171371057875,5.60532931536)
  );
#171 = CARTESIAN_POINT('',(6.698122559621,8.088072189611,5.628101331329)
  );
#172 = CARTESIAN_POINT('',(6.800070379564,8.002352479586,5.64286333428)
  );
#173 = CARTESIAN_POINT('',(6.900940457236,7.914839469825,5.65));
#174 = CARTESIAN_POINT('',(7.,7.826237921249,5.65));
#175 = ORIENTED_EDGE('',*,*,#176,.T.);
#176 = EDGE_CURVE('',#58,#177,#179,.T.);
#177 = VERTEX_POINT('',#178);
#178 = CARTESIAN_POINT('',(7.547184905645,7.3,6.9));
#179 = LINE('',#180,#181);
#180 = CARTESIAN_POINT('',(7.547184905645,7.3,0.));
#181 = VECTOR('',#182,1.);
#182 = DIRECTION('',(0.,0.,1.));
#183 = ORIENTED_EDGE('',*,*,#184,.T.);
#184 = EDGE_CURVE('',#177,#185,#187,.T.);
#185 = VERTEX_POINT('',#186);
#186 = CARTESIAN_POINT('',(3.8,9.788258272032,6.9));
#187 = CIRCLE('',#188,10.5);
#188 = AXIS2_PLACEMENT_3D('',#189,#190,#191);
#189 = CARTESIAN_POINT('',(0.,0.,6.9));
#190 = DIRECTION('',(0.,0.,1.));
#191 = DIRECTION('',(1.,0.,0.));
#192 = ORIENTED_EDGE('',*,*,#193,.F.);
#193 = EDGE_CURVE('',#194,#185,#196,.T.);
#194 = VERTEX_POINT('',#195);
#195 = CARTESIAN_POINT('',(3.8,9.788258272032,1.1));
#196 = LINE('',#197,#198);
#197 = CARTESIAN_POINT('',(3.8,9.788258272032,0.));
#198 = VECTOR('',#199,1.);
#199 = DIRECTION('',(0.,0.,1.));
#200 = ORIENTED_EDGE('',*,*,#201,.F.);
#201 = EDGE_CURVE('',#202,#194,#204,.T.);
#202 = VERTEX_POINT('',#203);
#203 = CARTESIAN_POINT('',(7.547184905645,7.3,1.1));
#204 = CIRCLE('',#205,10.5);
#205 = AXIS2_PLACEMENT_3D('',#206,#207,#208);
#206 = CARTESIAN_POINT('',(0.,0.,1.1));
#207 = DIRECTION('',(0.,0.,1.));
#208 = DIRECTION('',(1.,0.,0.));
#209 = ORIENTED_EDGE('',*,*,#210,.T.);
#210 = EDGE_CURVE('',#202,#60,#211,.T.);
#211 = LINE('',#212,#213);
#212 = CARTESIAN_POINT('',(7.547184905645,7.3,0.));
#213 = VECTOR('',#214,1.);
#214 = DIRECTION('',(0.,0.,1.));
#215 = FACE_BOUND('',#216,.T.);
#216 = EDGE_LOOP('',(#217,#227,#344,#352,#434));
#217 = ORIENTED_EDGE('',*,*,#218,.F.);
#218 = EDGE_CURVE('',#219,#221,#223,.T.);
#219 = VERTEX_POINT('',#220);
#220 = CARTESIAN_POINT('',(7.449161025927,-7.4,5.587688374059));
#221 = VERTEX_POINT('',#222);
#222 = CARTESIAN_POINT('',(7.449161026585,-7.4,7.168320433952));
#223 = LINE('',#224,#225);
#224 = CARTESIAN_POINT('',(7.449161026585,-7.4,0.));
#225 = VECTOR('',#226,1.);
#226 = DIRECTION('',(0.,0.,1.));
#227 = ORIENTED_EDGE('',*,*,#228,.T.);
#228 = EDGE_CURVE('',#219,#229,#231,.T.);
#229 = VERTEX_POINT('',#230);
#230 = CARTESIAN_POINT('',(7.449161028205,-7.4,2.412311624643));
#231 = B_SPLINE_CURVE_WITH_KNOTS('',6,(#232,#233,#234,#235,#236,#237,
    #238,#239,#240,#241,#242,#243,#244,#245,#246,#247,#248,#249,#250,
    #251,#252,#253,#254,#255,#256,#257,#258,#259,#260,#261,#262,#263,
    #264,#265,#266,#267,#268,#269,#270,#271,#272,#273,#274,#275,#276,
    #277,#278,#279,#280,#281,#282,#283,#284,#285,#286,#287,#288,#289,
    #290,#291,#292,#293,#294,#295,#296,#297,#298,#299,#300,#301,#302,
    #303,#304,#305,#306,#307,#308,#309,#310,#311,#312,#313,#314,#315,
    #316,#317,#318,#319,#320,#321,#322,#323,#324,#325,#326,#327,#328,
    #329,#330,#331,#332,#333,#334,#335,#336,#337,#338,#339,#340,#341,
    #342,#343),.UNSPECIFIED.,.T.,.F.,(7,5,5,5,5,5,5,5,5,5,5,5,5,5,5,5,5,
    5,5,5,5,5,7),(0.,9.176044844112E-02,0.153433163138,0.174893884499,
    0.203891999902,0.22628015836,0.238718789448,0.264135927069,
    0.301901612522,0.353099081614,0.436125281831,0.506834952794,
    0.573424028698,0.633574978555,0.673151059309,0.716138111819,
    0.764449339034,0.812352536438,0.83457765365,0.855907479131,
    0.894935521786,0.940273138761,1.),.UNSPECIFIED.);
#232 = CARTESIAN_POINT('',(7.,-7.826237921249,5.65));
#233 = CARTESIAN_POINT('',(7.152706029375,-7.689653496346,5.65));
#234 = CARTESIAN_POINT('',(7.301139668042,-7.550454314279,5.633040556952
    ));
#235 = CARTESIAN_POINT('',(7.443978387483,-7.409994016112,5.600901331846
    ));
#236 = CARTESIAN_POINT('',(7.580379712866,-7.269564272873,5.554950688252
    ));
#237 = CARTESIAN_POINT('',(7.70965370352,-7.13053125905,5.496213334823)
  );
#238 = CARTESIAN_POINT('',(7.912721503584,-6.903176956382,5.377812321078
    ));
#239 = CARTESIAN_POINT('',(7.990848852579,-6.813129788392,5.324743631813
    ));
#240 = CARTESIAN_POINT('',(8.065401894059,-6.724771653812,5.266321320802
    ));
#241 = CARTESIAN_POINT('',(8.136223026668,-6.638567883278,5.202562195419
    ));
#242 = CARTESIAN_POINT('',(8.203042986399,-6.555175451684,5.13342163679)
  );
#243 = CARTESIAN_POINT('',(8.287164310887,-6.447801761961,5.032885847407
    ));
#244 = CARTESIAN_POINT('',(8.30834931191,-6.420531188084,5.006269289857)
  );
#245 = CARTESIAN_POINT('',(8.328987554635,-6.393745292209,4.978984082951
    ));
#246 = CARTESIAN_POINT('',(8.349060174319,-6.367486020891,4.951025201463
    ));
#247 = CARTESIAN_POINT('',(8.368545458119,-6.341800307137,4.922387788954
    ));
#248 = CARTESIAN_POINT('',(8.412920907404,-6.282878224632,4.853448589856
    ));
#249 = CARTESIAN_POINT('',(8.437311734621,-6.250150288673,4.812573248384
    ));
#250 = CARTESIAN_POINT('',(8.460522317299,-6.218696048084,4.77044067058)
  );
#251 = CARTESIAN_POINT('',(8.482476645103,-6.188668971137,4.727052776221
    ));
#252 = CARTESIAN_POINT('',(8.503091706804,-6.160236208811,4.682413867639
    ));
#253 = CARTESIAN_POINT('',(8.537089982572,-6.112997433632,4.601106217239
    ));
#254 = CARTESIAN_POINT('',(8.551052150378,-6.093471647372,4.564935571646
    ));
#255 = CARTESIAN_POINT('',(8.564111359793,-6.075100459062,4.528048000112
    ));
#256 = CARTESIAN_POINT('',(8.576217087562,-6.057980088933,4.490473434787
    ));
#257 = CARTESIAN_POINT('',(8.587320921077,-6.042203754398,4.452242432801
    ));
#258 = CARTESIAN_POINT('',(8.602963367281,-6.019893355176,4.391798038871
    ));
#259 = CARTESIAN_POINT('',(8.60822536827,-6.012369430524,4.370021743137)
  );
#260 = CARTESIAN_POINT('',(8.613153755806,-6.005306515903,4.348066205744
    ));
#261 = CARTESIAN_POINT('',(8.617740136472,-5.998720402503,4.325941932713
    ));
#262 = CARTESIAN_POINT('',(8.621976528981,-5.992626052897,4.30366101939)
  );
#263 = CARTESIAN_POINT('',(8.633781388118,-5.975618141088,4.235416146613
    ));
#264 = CARTESIAN_POINT('',(8.640219203737,-5.966304022688,4.188971855171
    ));
#265 = CARTESIAN_POINT('',(8.645096190106,-5.959227160273,4.142056536431
    ));
#266 = CARTESIAN_POINT('',(8.648364580707,-5.954477097235,4.09482222358)
  );
#267 = CARTESIAN_POINT('',(8.65,-5.952100469582,4.047420120569));
#268 = CARTESIAN_POINT('',(8.65,-5.952100469582,3.92954150132));
#269 = CARTESIAN_POINT('',(8.646389289589,-5.957347148105,3.859199224409
    ));
#270 = CARTESIAN_POINT('',(8.639191343248,-5.967809565556,3.789406905427
    ));
#271 = CARTESIAN_POINT('',(8.628515121703,-5.983271870913,3.720606071114
    ));
#272 = CARTESIAN_POINT('',(8.614568764754,-6.003338343709,3.65324240453)
  );
#273 = CARTESIAN_POINT('',(8.574768738908,-6.060109992653,3.498993026523
    ));
#274 = CARTESIAN_POINT('',(8.546447028787,-6.100192591422,3.413693349496
    ));
#275 = CARTESIAN_POINT('',(8.513271009164,-6.146605851912,3.332042260766
    ));
#276 = CARTESIAN_POINT('',(8.475751836001,-6.198314754305,3.254194265365
    ));
#277 = CARTESIAN_POINT('',(8.434378576918,-6.254341826156,3.180279691167
    ));
#278 = CARTESIAN_POINT('',(8.317108600083,-6.410168274069,2.997090709296
    ));
#279 = CARTESIAN_POINT('',(8.235378051659,-6.516005388417,2.893836935027
    ));
#280 = CARTESIAN_POINT('',(8.145880119567,-6.628268650426,2.800473309969
    ));
#281 = CARTESIAN_POINT('',(8.049471849348,-6.745009429489,2.716756058886
    ));
#282 = CARTESIAN_POINT('',(7.946577466701,-6.865047521731,2.642583956435
    ));
#283 = CARTESIAN_POINT('',(7.744206420265,-7.092025758206,2.523407598425
    ));
#284 = CARTESIAN_POINT('',(7.646554344366,-7.198192322979,2.475748425489
    ));
#285 = CARTESIAN_POINT('',(7.544628157436,-7.305399879624,2.435526687434
    ));
#286 = CARTESIAN_POINT('',(7.438702694735,-7.413041234668,2.403145216727
    ));
#287 = CARTESIAN_POINT('',(7.329080489029,-7.520554151342,2.37914372472)
  );
#288 = CARTESIAN_POINT('',(7.109859727614,-7.727956839947,2.350172015297
    ));
#289 = CARTESIAN_POINT('',(7.000511191701,-7.828040453668,2.344158190583
    ));
#290 = CARTESIAN_POINT('',(6.888847879344,-7.926782592461,2.346850936562
    ));
#291 = CARTESIAN_POINT('',(6.775689348909,-8.023409295604,2.358855317907
    ));
#292 = CARTESIAN_POINT('',(6.661971326896,-8.117211110709,2.380712917197
    ));
#293 = CARTESIAN_POINT('',(6.446485520252,-8.289146047047,2.441979997791
    ));
#294 = CARTESIAN_POINT('',(6.344675504078,-8.367876997262,2.479474084805
    ));
#295 = CARTESIAN_POINT('',(6.244551198492,-8.442914166969,2.525596811769
    ));
#296 = CARTESIAN_POINT('',(6.147347162154,-8.513607460135,2.580292853061
    ));
#297 = CARTESIAN_POINT('',(6.054262710903,-8.579470085797,2.643242838726
    ));
#298 = CARTESIAN_POINT('',(5.90857275802,-8.680075151926,2.760327374161)
  );
#299 = CARTESIAN_POINT('',(5.85305366658,-8.717727778474,2.810078867522)
  );
#300 = CARTESIAN_POINT('',(5.800133850537,-8.753016312548,2.862944019766
    ));
#301 = CARTESIAN_POINT('',(5.750091553948,-8.785875470537,2.918704634902
    ));
#302 = CARTESIAN_POINT('',(5.703173244405,-8.816262973246,2.977098552691
    ));
#303 = CARTESIAN_POINT('',(5.612241581475,-8.874452309364,3.103775618981
    ));
#304 = CARTESIAN_POINT('',(5.568830618221,-8.901803293342,3.172472457265
    ));
#305 = CARTESIAN_POINT('',(5.529558179498,-8.926217623267,3.243598930954
    ));
#306 = CARTESIAN_POINT('',(5.494595686256,-8.947713352573,3.316819575241
    ));
#307 = CARTESIAN_POINT('',(5.464075697854,-8.966314725815,3.391776523254
    ));
#308 = CARTESIAN_POINT('',(5.408879322338,-8.999732788531,3.553856655477
    ));
#309 = CARTESIAN_POINT('',(5.385387345873,-9.013799961664,3.641358698736
    ));
#310 = CARTESIAN_POINT('',(5.367706698959,-9.024308828439,3.730162574));
#311 = CARTESIAN_POINT('',(5.355900852784,-9.0312995867,3.819831103242)
  );
#312 = CARTESIAN_POINT('',(5.35,-9.03479385487,3.909924375365));
#313 = CARTESIAN_POINT('',(5.35,-9.03479385487,4.089314858614));
#314 = CARTESIAN_POINT('',(5.355801596438,-9.031358364435,4.178646657746
    ));
#315 = CARTESIAN_POINT('',(5.367408732951,-9.024485265785,4.267564409508
    ));
#316 = CARTESIAN_POINT('',(5.384792272987,-9.014153642441,4.355639480736
    ));
#317 = CARTESIAN_POINT('',(5.407890995819,-9.000324553443,4.442445830407
    ));
#318 = CARTESIAN_POINT('',(5.449938234457,-8.974876927046,4.567049842504
    ));
#319 = CARTESIAN_POINT('',(5.464472339365,-8.966048290874,4.606170017808
    ));
#320 = CARTESIAN_POINT('',(5.48020426253,-8.956451087661,4.644875100877)
  );
#321 = CARTESIAN_POINT('',(5.497120129512,-8.946081005013,4.683118596247
    ));
#322 = CARTESIAN_POINT('',(5.515202836187,-8.934934229555,4.720853185075
    ));
#323 = CARTESIAN_POINT('',(5.552886653242,-8.911561109442,4.793710646819
    ));
#324 = CARTESIAN_POINT('',(5.572397070579,-8.899396547532,4.828877673859
    ));
#325 = CARTESIAN_POINT('',(5.592945166017,-8.886510867579,4.863488934699
    ));
#326 = CARTESIAN_POINT('',(5.614509093538,-8.87290264928,4.897501673018)
  );
#327 = CARTESIAN_POINT('',(5.637063295848,-8.858571945646,4.930873247737
    ));
#328 = CARTESIAN_POINT('',(5.703605230606,-8.815979648294,5.023371476154
    ));
#329 = CARTESIAN_POINT('',(5.749864852319,-8.786015549747,5.080915024487
    ));
#330 = CARTESIAN_POINT('',(5.799158994412,-8.753650307389,5.135900150838
    ));
#331 = CARTESIAN_POINT('',(5.851252009352,-8.718924245152,5.188075953021
    ));
#332 = CARTESIAN_POINT('',(5.905878272461,-8.681899312708,5.237232912139
    ));
#333 = CARTESIAN_POINT('',(6.028814919436,-8.597082809704,5.336606157529
    ));
#334 = CARTESIAN_POINT('',(6.097877785397,-8.548540534432,5.385682971652
    ));
#335 = CARTESIAN_POINT('',(6.169462970753,-8.497189895417,5.430166302135
    ));
#336 = CARTESIAN_POINT('',(6.243058350956,-8.443231598174,5.469879288548
    ));
#337 = CARTESIAN_POINT('',(6.318129538088,-8.386919627997,5.50473576036)
  );
#338 = CARTESIAN_POINT('',(6.494262221394,-8.251696368363,5.574267202361
    ));
#339 = CARTESIAN_POINT('',(6.595898462208,-8.171371057873,5.605329315362
    ));
#340 = CARTESIAN_POINT('',(6.698122559629,-8.088072189605,5.62810133133)
  );
#341 = CARTESIAN_POINT('',(6.800070379566,-8.002352479584,5.642863334279
    ));
#342 = CARTESIAN_POINT('',(6.900940457229,-7.914839469832,5.65));
#343 = CARTESIAN_POINT('',(7.,-7.826237921249,5.65));
#344 = ORIENTED_EDGE('',*,*,#345,.F.);
#345 = EDGE_CURVE('',#346,#229,#348,.T.);
#346 = VERTEX_POINT('',#347);
#347 = CARTESIAN_POINT('',(7.449161026585,-7.4,0.831679566048));
#348 = LINE('',#349,#350);
#349 = CARTESIAN_POINT('',(7.449161026585,-7.4,0.));
#350 = VECTOR('',#351,1.);
#351 = DIRECTION('',(0.,0.,1.));
#352 = ORIENTED_EDGE('',*,*,#353,.T.);
#353 = EDGE_CURVE('',#346,#354,#356,.T.);
#354 = VERTEX_POINT('',#355);
#355 = CARTESIAN_POINT('',(7.,-7.826237921249,7.2));
#356 = B_SPLINE_CURVE_WITH_KNOTS('',6,(#357,#358,#359,#360,#361,#362,
    #363,#364,#365,#366,#367,#368,#369,#370,#371,#372,#373,#374,#375,
    #376,#377,#378,#379,#380,#381,#382,#383,#384,#385,#386,#387,#388,
    #389,#390,#391,#392,#393,#394,#395,#396,#397,#398,#399,#400,#401,
    #402,#403,#404,#405,#406,#407,#408,#409,#410,#411,#412,#413,#414,
    #415,#416,#417,#418,#419,#420,#421,#422,#423,#424,#425,#426,#427,
    #428,#429,#430,#431,#432,#433),.UNSPECIFIED.,.F.,.F.,(7,5,5,5,5,5,5,
    5,5,5,5,5,5,5,5,7),(0.,9.242161723079E-02,0.135437775292,
    0.220050204757,0.302592843148,0.3491084668,0.40155297189,
    0.438447421225,0.525151749761,0.648813082278,0.702602792752,
    0.748677923117,0.830718026436,0.902988270082,0.937029903308,1.),
  .UNSPECIFIED.);
#357 = CARTESIAN_POINT('',(7.449161622626,-7.3999994,0.831679650547));
#358 = CARTESIAN_POINT('',(7.318749259076,-7.531278163843,0.813191548852
    ));
#359 = CARTESIAN_POINT('',(7.184069046486,-7.661300345684,0.800669273835
    ));
#360 = CARTESIAN_POINT('',(7.045354743006,-7.789593010468,0.794780424889
    ));
#361 = CARTESIAN_POINT('',(6.902910575572,-7.915690762985,0.796220308385
    ));
#362 = CARTESIAN_POINT('',(6.757126374667,-8.039143393349,0.805717595692
    ));
#363 = CARTESIAN_POINT('',(6.539313555505,-8.215552521088,0.832567841366
    ));
#364 = CARTESIAN_POINT('',(6.469541747839,-8.270895951375,0.843004457805
    ));
#365 = CARTESIAN_POINT('',(6.399268265735,-8.325478864709,0.855419835996
    ));
#366 = CARTESIAN_POINT('',(6.328587527215,-8.379232801601,0.869878536814
    ));
#367 = CARTESIAN_POINT('',(6.257597388674,-8.432095791712,0.886439676501
    ));
#368 = CARTESIAN_POINT('',(6.046352784317,-8.586131805009,0.941973603964
    ));
#369 = CARTESIAN_POINT('',(5.905382290923,-8.684676449594,0.987163529456
    ));
#370 = CARTESIAN_POINT('',(5.764625614176,-8.778939298318,1.041064243999
    ));
#371 = CARTESIAN_POINT('',(5.625243491659,-8.868409641425,1.103798245584
    ));
#372 = CARTESIAN_POINT('',(5.488378540023,-8.952748389224,1.175263297701
    ));
#373 = CARTESIAN_POINT('',(5.225110063483,-9.108845568828,1.333028654342
    ));
#374 = CARTESIAN_POINT('',(5.098721960052,-9.180748688708,1.418809936812
    ));
#375 = CARTESIAN_POINT('',(4.976901758672,-9.247341276825,1.51213041645)
  );
#376 = CARTESIAN_POINT('',(4.860542673004,-9.30861318304,1.612459808557)
  );
#377 = CARTESIAN_POINT('',(4.750435722001,-9.364646692004,1.719068860727
    ));
#378 = CARTESIAN_POINT('',(4.589063831542,-9.444294578365,1.894115365966
    ));
#379 = CARTESIAN_POINT('',(4.53306343286,-9.471398145652,1.958934831348)
  );
#380 = CARTESIAN_POINT('',(4.479298997274,-9.496944510769,2.025368388473
    ));
#381 = CARTESIAN_POINT('',(4.42783565364,-9.520979888166,2.093294520612)
  );
#382 = CARTESIAN_POINT('',(4.378729510872,-9.543550510464,2.162584703172
    ));
#383 = CARTESIAN_POINT('',(4.279373186801,-9.588550795427,2.312610417854
    ));
#384 = CARTESIAN_POINT('',(4.229772570332,-9.6105965797,2.39368231151));
#385 = CARTESIAN_POINT('',(4.183263192518,-9.630919055499,2.476170048588
    ));
#386 = CARTESIAN_POINT('',(4.139874237313,-9.649590982805,2.559924341559
    ));
#387 = CARTESIAN_POINT('',(4.099626688644,-9.666678807352,2.64479565145)
  );
#388 = CARTESIAN_POINT('',(4.036438336796,-9.693191754246,2.791021172636
    ));
#389 = CARTESIAN_POINT('',(4.01190140956,-9.70338786193,2.851893941543)
  );
#390 = CARTESIAN_POINT('',(3.988924526361,-9.712852850905,2.913206926583
    ));
#391 = CARTESIAN_POINT('',(3.96750839505,-9.72160669769,2.974916975093)
  );
#392 = CARTESIAN_POINT('',(3.947652453676,-9.729667488098,3.036983349725
    ));
#393 = CARTESIAN_POINT('',(3.886354373304,-9.75440412554,3.245975030223)
  );
#394 = CARTESIAN_POINT('',(3.851968736495,-9.768015468757,3.394311457063
    ));
#395 = CARTESIAN_POINT('',(3.826162509868,-9.778100378718,3.543917886102
    ));
#396 = CARTESIAN_POINT('',(3.808908255488,-9.784800017585,3.694353686679
    ));
#397 = CARTESIAN_POINT('',(3.800189294647,-9.788184783964,3.84519554746)
  );
#398 = CARTESIAN_POINT('',(3.799735976077,-9.78836077154,4.211171686268)
  );
#399 = CARTESIAN_POINT('',(3.816825616715,-9.781726219387,4.426398285352
    ));
#400 = CARTESIAN_POINT('',(3.851294145171,-9.768347217101,4.64047725462)
  );
#401 = CARTESIAN_POINT('',(3.903203417548,-9.747936809063,4.852145771711
    ));
#402 = CARTESIAN_POINT('',(3.972637451313,-9.719930761347,5.060049785419
    ));
#403 = CARTESIAN_POINT('',(4.097501444278,-9.667583269392,5.350815696012
    ));
#404 = CARTESIAN_POINT('',(4.138671977648,-9.650114404179,5.437943641042
    ));
#405 = CARTESIAN_POINT('',(4.183150249226,-9.630979793799,5.523899519394
    ));
#406 = CARTESIAN_POINT('',(4.230913674461,-9.61010777126,5.608521796407)
  );
#407 = CARTESIAN_POINT('',(4.281930577897,-9.587419675631,5.691649222192
    ));
#408 = CARTESIAN_POINT('',(4.382612136701,-9.54176672831,5.842907692215)
  );
#409 = CARTESIAN_POINT('',(4.431422623842,-9.519307912464,5.911481276343
    ));
#410 = CARTESIAN_POINT('',(4.482545249021,-9.495408443647,5.978709562117
    ));
#411 = CARTESIAN_POINT('',(4.535924868857,-9.470023433874,6.044467356584
    ));
#412 = CARTESIAN_POINT('',(4.591497602153,-9.44310806803,6.108636295731)
  );
#413 = CARTESIAN_POINT('',(4.751917796213,-9.363888271058,6.282334615379
    ));
#414 = CARTESIAN_POINT('',(4.861455778943,-9.308122394236,6.388267900861
    ));
#415 = CARTESIAN_POINT('',(4.977169221409,-9.247177252256,6.487989116093
    ));
#416 = CARTESIAN_POINT('',(5.098280220799,-9.18097240407,6.580781928741)
  );
#417 = CARTESIAN_POINT('',(5.223910989042,-9.109517794717,6.666124536074
    ));
#418 = CARTESIAN_POINT('',(5.466953851887,-8.965485079304,6.812008959365
    ));
#419 = CARTESIAN_POINT('',(5.583443485356,-8.894125049087,6.874222296562
    ));
#420 = CARTESIAN_POINT('',(5.701906623926,-8.818987042103,6.930099539444
    ));
#421 = CARTESIAN_POINT('',(5.821619842589,-8.740277309457,6.979545818344
    ));
#422 = CARTESIAN_POINT('',(5.941845219337,-8.658295224068,7.022592256206
    ));
#423 = CARTESIAN_POINT('',(6.118377141339,-8.533478409192,7.076725017029
    ));
#424 = CARTESIAN_POINT('',(6.174867267781,-8.492866324944,7.092676321355
    ));
#425 = CARTESIAN_POINT('',(6.231263012316,-8.45163763059,7.107265852855)
  );
#426 = CARTESIAN_POINT('',(6.28750735373,-8.40982403255,7.120517307136)
  );
#427 = CARTESIAN_POINT('',(6.343544289611,-8.367460483168,7.132457552189
    ));
#428 = CARTESIAN_POINT('',(6.502490402112,-8.245274592866,7.162833751072
    ));
#429 = CARTESIAN_POINT('',(6.60472812839,-8.164240484564,7.178160223665)
  );
#430 = CARTESIAN_POINT('',(6.705800643013,-8.081639641156,7.18931328521)
  );
#431 = CARTESIAN_POINT('',(6.805495694126,-7.997644405825,7.196516548485
    ));
#432 = CARTESIAN_POINT('',(6.903620150195,-7.912442679579,7.2));
#433 = CARTESIAN_POINT('',(7.,-7.826237921249,7.2));
#434 = ORIENTED_EDGE('',*,*,#435,.T.);
#435 = EDGE_CURVE('',#354,#221,#436,.T.);
#436 = B_SPLINE_CURVE_WITH_KNOTS('',4,(#437,#438,#439,#440,#441),
  .UNSPECIFIED.,.F.,.F.,(5,5),(0.,1.),.PIECEWISE_BEZIER_KNOTS.);
#437 = CARTESIAN_POINT('',(7.,-7.826237921249,7.2));
#438 = CARTESIAN_POINT('',(7.116689590834,-7.7218675783,7.2));
#439 = CARTESIAN_POINT('',(7.230586477777,-7.615818867718,7.194326659638
    ));
#440 = CARTESIAN_POINT('',(7.341453502817,-7.508423083457,7.183589750438
    ));
#441 = CARTESIAN_POINT('',(7.449161622626,-7.3999994,7.168320349453));
#442 = CYLINDRICAL_SURFACE('',#443,10.5);
#443 = AXIS2_PLACEMENT_3D('',#444,#445,#446);
#444 = CARTESIAN_POINT('',(0.,0.,0.));
#445 = DIRECTION('',(0.,0.,1.));
#446 = DIRECTION('',(1.,0.,0.));
#447 = ADVANCED_FACE('',(#448,#508,#519),#530,.T.);
#448 = FACE_BOUND('',#449,.T.);
#449 = EDGE_LOOP('',(#450,#458,#459,#467,#476,#484,#493,#501));
#450 = ORIENTED_EDGE('',*,*,#451,.F.);
#451 = EDGE_CURVE('',#22,#452,#454,.T.);
#452 = VERTEX_POINT('',#453);
#453 = CARTESIAN_POINT('',(8.590597372059,0.6,8.));
#454 = LINE('',#455,#456);
#455 = CARTESIAN_POINT('',(1.,0.6,8.));
#456 = VECTOR('',#457,1.);
#457 = DIRECTION('',(-1.,0.,0.));
#458 = ORIENTED_EDGE('',*,*,#21,.T.);
#459 = ORIENTED_EDGE('',*,*,#460,.T.);
#460 = EDGE_CURVE('',#24,#461,#463,.T.);
#461 = VERTEX_POINT('',#462);
#462 = CARTESIAN_POINT('',(8.590597372059,-0.6,8.));
#463 = LINE('',#464,#465);
#464 = CARTESIAN_POINT('',(1.,-0.6,8.));
#465 = VECTOR('',#466,1.);
#466 = DIRECTION('',(-1.,0.,0.));
#467 = ORIENTED_EDGE('',*,*,#468,.F.);
#468 = EDGE_CURVE('',#469,#461,#471,.T.);
#469 = VERTEX_POINT('',#470);
#470 = CARTESIAN_POINT('',(5.409402627941,-0.6,8.));
#471 = CIRCLE('',#472,1.7);
#472 = AXIS2_PLACEMENT_3D('',#473,#474,#475);
#473 = CARTESIAN_POINT('',(7.,0.,8.));
#474 = DIRECTION('',(0.,0.,1.));
#475 = DIRECTION('',(1.,0.,0.));
#476 = ORIENTED_EDGE('',*,*,#477,.T.);
#477 = EDGE_CURVE('',#469,#478,#480,.T.);
#478 = VERTEX_POINT('',#479);
#479 = CARTESIAN_POINT('',(2.323790007724,-0.6,8.));
#480 = LINE('',#481,#482);
#481 = CARTESIAN_POINT('',(1.,-0.6,8.));
#482 = VECTOR('',#483,1.);
#483 = DIRECTION('',(-1.,0.,0.));
#484 = ORIENTED_EDGE('',*,*,#485,.F.);
#485 = EDGE_CURVE('',#486,#478,#488,.T.);
#486 = VERTEX_POINT('',#487);
#487 = CARTESIAN_POINT('',(2.323790007724,0.6,8.));
#488 = CIRCLE('',#489,2.4);
#489 = AXIS2_PLACEMENT_3D('',#490,#491,#492);
#490 = CARTESIAN_POINT('',(0.,0.,8.));
#491 = DIRECTION('',(0.,0.,1.));
#492 = DIRECTION('',(1.,0.,0.));
#493 = ORIENTED_EDGE('',*,*,#494,.F.);
#494 = EDGE_CURVE('',#495,#486,#497,.T.);
#495 = VERTEX_POINT('',#496);
#496 = CARTESIAN_POINT('',(5.409402627941,0.6,8.));
#497 = LINE('',#498,#499);
#498 = CARTESIAN_POINT('',(1.,0.6,8.));
#499 = VECTOR('',#500,1.);
#500 = DIRECTION('',(-1.,0.,0.));
#501 = ORIENTED_EDGE('',*,*,#502,.F.);
#502 = EDGE_CURVE('',#452,#495,#503,.T.);
#503 = CIRCLE('',#504,1.7);
#504 = AXIS2_PLACEMENT_3D('',#505,#506,#507);
#505 = CARTESIAN_POINT('',(7.,0.,8.));
#506 = DIRECTION('',(0.,0.,1.));
#507 = DIRECTION('',(1.,0.,0.));
#508 = FACE_BOUND('',#509,.T.);
#509 = EDGE_LOOP('',(#510));
#510 = ORIENTED_EDGE('',*,*,#511,.F.);
#511 = EDGE_CURVE('',#512,#512,#514,.T.);
#512 = VERTEX_POINT('',#513);
#513 = CARTESIAN_POINT('',(-1.8,-6.062177826491,8.));
#514 = CIRCLE('',#515,1.7);
#515 = AXIS2_PLACEMENT_3D('',#516,#517,#518);
#516 = CARTESIAN_POINT('',(-3.5,-6.062177826491,8.));
#517 = DIRECTION('',(0.,0.,1.));
#518 = DIRECTION('',(1.,0.,0.));
#519 = FACE_BOUND('',#520,.T.);
#520 = EDGE_LOOP('',(#521));
#521 = ORIENTED_EDGE('',*,*,#522,.F.);
#522 = EDGE_CURVE('',#523,#523,#525,.T.);
#523 = VERTEX_POINT('',#524);
#524 = CARTESIAN_POINT('',(-1.8,6.062177826491,8.));
#525 = CIRCLE('',#526,1.7);
#526 = AXIS2_PLACEMENT_3D('',#527,#528,#529);
#527 = CARTESIAN_POINT('',(-3.5,6.062177826491,8.));
#528 = DIRECTION('',(0.,0.,1.));
#529 = DIRECTION('',(1.,0.,0.));
#530 = PLANE('',#531);
#531 = AXIS2_PLACEMENT_3D('',#532,#533,#534);
#532 = CARTESIAN_POINT('',(0.,0.,8.));
#533 = DIRECTION('',(0.,0.,1.));
#534 = DIRECTION('',(1.,0.,0.));
#535 = ADVANCED_FACE('',(#536),#571,.F.);
#536 = FACE_BOUND('',#537,.F.);
#537 = EDGE_LOOP('',(#538,#539,#547,#555,#564,#570));
#538 = ORIENTED_EDGE('',*,*,#32,.F.);
#539 = ORIENTED_EDGE('',*,*,#540,.T.);
#540 = EDGE_CURVE('',#33,#541,#543,.T.);
#541 = VERTEX_POINT('',#542);
#542 = CARTESIAN_POINT('',(8.590597372059,0.6,0.));
#543 = LINE('',#544,#545);
#544 = CARTESIAN_POINT('',(1.,0.6,0.));
#545 = VECTOR('',#546,1.);
#546 = DIRECTION('',(-1.,0.,0.));
#547 = ORIENTED_EDGE('',*,*,#548,.T.);
#548 = EDGE_CURVE('',#541,#549,#551,.T.);
#549 = VERTEX_POINT('',#550);
#550 = CARTESIAN_POINT('',(8.590597372059,0.6,3.56125178063));
#551 = LINE('',#552,#553);
#552 = CARTESIAN_POINT('',(8.590597372059,0.6,-1.));
#553 = VECTOR('',#554,1.);
#554 = DIRECTION('',(0.,0.,1.));
#555 = ORIENTED_EDGE('',*,*,#556,.F.);
#556 = EDGE_CURVE('',#557,#549,#559,.T.);
#557 = VERTEX_POINT('',#558);
#558 = CARTESIAN_POINT('',(8.590597372059,0.6,4.43874821937));
#559 = CIRCLE('',#560,1.65);
#560 = AXIS2_PLACEMENT_3D('',#561,#562,#563);
#561 = CARTESIAN_POINT('',(7.,0.6,4.));
#562 = DIRECTION('',(0.,1.,0.));
#563 = DIRECTION('',(0.,0.,1.));
#564 = ORIENTED_EDGE('',*,*,#565,.T.);
#565 = EDGE_CURVE('',#557,#452,#566,.T.);
#566 = LINE('',#567,#568);
#567 = CARTESIAN_POINT('',(8.590597372059,0.6,-1.));
#568 = VECTOR('',#569,1.);
#569 = DIRECTION('',(0.,0.,1.));
#570 = ORIENTED_EDGE('',*,*,#451,.F.);
#571 = PLANE('',#572);
#572 = AXIS2_PLACEMENT_3D('',#573,#574,#575);
#573 = CARTESIAN_POINT('',(2.,0.6,-1.));
#574 = DIRECTION('',(0.,1.,0.));
#575 = DIRECTION('',(0.,0.,1.));
#576 = ADVANCED_FACE('',(#577),#612,.T.);
#577 = FACE_BOUND('',#578,.T.);
#578 = EDGE_LOOP('',(#579,#580,#588,#596,#605,#611));
#579 = ORIENTED_EDGE('',*,*,#49,.F.);
#580 = ORIENTED_EDGE('',*,*,#581,.T.);
#581 = EDGE_CURVE('',#41,#582,#584,.T.);
#582 = VERTEX_POINT('',#583);
#583 = CARTESIAN_POINT('',(8.590597372059,-0.6,0.));
#584 = LINE('',#585,#586);
#585 = CARTESIAN_POINT('',(1.,-0.6,0.));
#586 = VECTOR('',#587,1.);
#587 = DIRECTION('',(-1.,0.,0.));
#588 = ORIENTED_EDGE('',*,*,#589,.T.);
#589 = EDGE_CURVE('',#582,#590,#592,.T.);
#590 = VERTEX_POINT('',#591);
#591 = CARTESIAN_POINT('',(8.590597372059,-0.6,3.56125178063));
#592 = LINE('',#593,#594);
#593 = CARTESIAN_POINT('',(8.590597372059,-0.6,-1.));
#594 = VECTOR('',#595,1.);
#595 = DIRECTION('',(0.,0.,1.));
#596 = ORIENTED_EDGE('',*,*,#597,.F.);
#597 = EDGE_CURVE('',#598,#590,#600,.T.);
#598 = VERTEX_POINT('',#599);
#599 = CARTESIAN_POINT('',(8.590597372059,-0.6,4.43874821937));
#600 = CIRCLE('',#601,1.65);
#601 = AXIS2_PLACEMENT_3D('',#602,#603,#604);
#602 = CARTESIAN_POINT('',(7.,-0.6,4.));
#603 = DIRECTION('',(0.,1.,0.));
#604 = DIRECTION('',(0.,0.,1.));
#605 = ORIENTED_EDGE('',*,*,#606,.T.);
#606 = EDGE_CURVE('',#598,#461,#607,.T.);
#607 = LINE('',#608,#609);
#608 = CARTESIAN_POINT('',(8.590597372059,-0.6,-1.));
#609 = VECTOR('',#610,1.);
#610 = DIRECTION('',(0.,0.,1.));
#611 = ORIENTED_EDGE('',*,*,#460,.F.);
#612 = PLANE('',#613);
#613 = AXIS2_PLACEMENT_3D('',#614,#615,#616);
#614 = CARTESIAN_POINT('',(2.,-0.6,-1.));
#615 = DIRECTION('',(0.,1.,0.));
#616 = DIRECTION('',(0.,0.,1.));
#617 = ADVANCED_FACE('',(#618,#664,#675),#686,.F.);
#618 = FACE_BOUND('',#619,.F.);
#619 = EDGE_LOOP('',(#620,#621,#622,#623,#632,#640,#649,#657));
#620 = ORIENTED_EDGE('',*,*,#540,.F.);
#621 = ORIENTED_EDGE('',*,*,#40,.T.);
#622 = ORIENTED_EDGE('',*,*,#581,.T.);
#623 = ORIENTED_EDGE('',*,*,#624,.F.);
#624 = EDGE_CURVE('',#625,#582,#627,.T.);
#625 = VERTEX_POINT('',#626);
#626 = CARTESIAN_POINT('',(5.409402627941,-0.6,0.));
#627 = CIRCLE('',#628,1.7);
#628 = AXIS2_PLACEMENT_3D('',#629,#630,#631);
#629 = CARTESIAN_POINT('',(7.,0.,0.));
#630 = DIRECTION('',(0.,0.,1.));
#631 = DIRECTION('',(1.,0.,0.));
#632 = ORIENTED_EDGE('',*,*,#633,.T.);
#633 = EDGE_CURVE('',#625,#634,#636,.T.);
#634 = VERTEX_POINT('',#635);
#635 = CARTESIAN_POINT('',(2.323790007724,-0.6,0.));
#636 = LINE('',#637,#638);
#637 = CARTESIAN_POINT('',(1.,-0.6,0.));
#638 = VECTOR('',#639,1.);
#639 = DIRECTION('',(-1.,0.,0.));
#640 = ORIENTED_EDGE('',*,*,#641,.F.);
#641 = EDGE_CURVE('',#642,#634,#644,.T.);
#642 = VERTEX_POINT('',#643);
#643 = CARTESIAN_POINT('',(2.323790007724,0.6,0.));
#644 = CIRCLE('',#645,2.4);
#645 = AXIS2_PLACEMENT_3D('',#646,#647,#648);
#646 = CARTESIAN_POINT('',(0.,0.,0.));
#647 = DIRECTION('',(0.,0.,1.));
#648 = DIRECTION('',(1.,0.,0.));
#649 = ORIENTED_EDGE('',*,*,#650,.F.);
#650 = EDGE_CURVE('',#651,#642,#653,.T.);
#651 = VERTEX_POINT('',#652);
#652 = CARTESIAN_POINT('',(5.409402627941,0.6,0.));
#653 = LINE('',#654,#655);
#654 = CARTESIAN_POINT('',(1.,0.6,0.));
#655 = VECTOR('',#656,1.);
#656 = DIRECTION('',(-1.,0.,0.));
#657 = ORIENTED_EDGE('',*,*,#658,.F.);
#658 = EDGE_CURVE('',#541,#651,#659,.T.);
#659 = CIRCLE('',#660,1.7);
#660 = AXIS2_PLACEMENT_3D('',#661,#662,#663);
#661 = CARTESIAN_POINT('',(7.,0.,0.));
#662 = DIRECTION('',(0.,0.,1.));
#663 = DIRECTION('',(1.,0.,0.));
#664 = FACE_BOUND('',#665,.F.);
#665 = EDGE_LOOP('',(#666));
#666 = ORIENTED_EDGE('',*,*,#667,.F.);
#667 = EDGE_CURVE('',#668,#668,#670,.T.);
#668 = VERTEX_POINT('',#669);
#669 = CARTESIAN_POINT('',(-1.8,-6.062177826491,0.));
#670 = CIRCLE('',#671,1.7);
#671 = AXIS2_PLACEMENT_3D('',#672,#673,#674);
#672 = CARTESIAN_POINT('',(-3.5,-6.062177826491,0.));
#673 = DIRECTION('',(0.,0.,1.));
#674 = DIRECTION('',(1.,0.,0.));
#675 = FACE_BOUND('',#676,.F.);
#676 = EDGE_LOOP('',(#677));
#677 = ORIENTED_EDGE('',*,*,#678,.F.);
#678 = EDGE_CURVE('',#679,#679,#681,.T.);
#679 = VERTEX_POINT('',#680);
#680 = CARTESIAN_POINT('',(-1.8,6.062177826491,0.));
#681 = CIRCLE('',#682,1.7);
#682 = AXIS2_PLACEMENT_3D('',#683,#684,#685);
#683 = CARTESIAN_POINT('',(-3.5,6.062177826491,0.));
#684 = DIRECTION('',(0.,0.,1.));
#685 = DIRECTION('',(1.,0.,0.));
#686 = PLANE('',#687);
#687 = AXIS2_PLACEMENT_3D('',#688,#689,#690);
#688 = CARTESIAN_POINT('',(0.,0.,0.));
#689 = DIRECTION('',(0.,0.,1.));
#690 = DIRECTION('',(1.,0.,0.));
#691 = ADVANCED_FACE('',(#692),#855,.F.);
#692 = FACE_BOUND('',#693,.F.);
#693 = EDGE_LOOP('',(#694,#695,#704,#712,#747,#748,#803,#812,#847,#848)
  );
#694 = ORIENTED_EDGE('',*,*,#57,.F.);
#695 = ORIENTED_EDGE('',*,*,#696,.F.);
#696 = EDGE_CURVE('',#697,#58,#699,.T.);
#697 = VERTEX_POINT('',#698);
#698 = CARTESIAN_POINT('',(7.,7.3,5.65));
#699 = CIRCLE('',#700,1.65);
#700 = AXIS2_PLACEMENT_3D('',#701,#702,#703);
#701 = CARTESIAN_POINT('',(7.,7.3,4.));
#702 = DIRECTION('',(0.,1.,0.));
#703 = DIRECTION('',(0.,0.,1.));
#704 = ORIENTED_EDGE('',*,*,#705,.F.);
#705 = EDGE_CURVE('',#706,#697,#708,.T.);
#706 = VERTEX_POINT('',#707);
#707 = CARTESIAN_POINT('',(7.,1.7,5.65));
#708 = LINE('',#709,#710);
#709 = CARTESIAN_POINT('',(7.,-11.,5.65));
#710 = VECTOR('',#711,1.);
#711 = DIRECTION('',(0.,1.,0.));
#712 = ORIENTED_EDGE('',*,*,#713,.T.);
#713 = EDGE_CURVE('',#706,#557,#714,.T.);
#714 = B_SPLINE_CURVE_WITH_KNOTS('',7,(#715,#716,#717,#718,#719,#720,
    #721,#722,#723,#724,#725,#726,#727,#728,#729,#730,#731,#732,#733,
    #734,#735,#736,#737,#738,#739,#740,#741,#742,#743,#744,#745,#746),
  .UNSPECIFIED.,.F.,.F.,(8,6,6,6,6,8),(0.,0.182015662066,0.295262429088,
    0.536924275516,0.823923208953,1.),.UNSPECIFIED.);
#715 = CARTESIAN_POINT('',(7.,1.7,5.65));
#716 = CARTESIAN_POINT('',(7.070133720404,1.7,5.65));
#717 = CARTESIAN_POINT('',(7.140120153356,1.696624393849,5.646522052397)
  );
#718 = CARTESIAN_POINT('',(7.209520678214,1.689898739507,5.639592679347)
  );
#719 = CARTESIAN_POINT('',(7.277900136232,1.679932756304,5.629322030314)
  );
#720 = CARTESIAN_POINT('',(7.344834119218,1.666919728225,5.615903975049)
  );
#721 = CARTESIAN_POINT('',(7.409916258183,1.651135907205,5.599616196563)
  );
#722 = CARTESIAN_POINT('',(7.511869151346,1.621618708654,5.569125816208)
  );
#723 = CARTESIAN_POINT('',(7.550163831252,1.609347655177,5.556443862083)
  );
#724 = CARTESIAN_POINT('',(7.58762441323,1.596187753351,5.542835279565)
  );
#725 = CARTESIAN_POINT('',(7.624228636098,1.582200331628,5.528361121946)
  );
#726 = CARTESIAN_POINT('',(7.659957115984,1.567447049555,5.513082637981)
  );
#727 = CARTESIAN_POINT('',(7.69479334632,1.551989897776,5.497061271891)
  );
#728 = CARTESIAN_POINT('',(7.801129044303,1.501537532955,5.444716292958)
  );
#729 = CARTESIAN_POINT('',(7.869422631205,1.464255863842,5.405965273578)
  );
#730 = CARTESIAN_POINT('',(7.933693746098,1.424543488943,5.364591527822)
  );
#731 = CARTESIAN_POINT('',(7.994070895769,1.382821910825,5.321001098358)
  );
#732 = CARTESIAN_POINT('',(8.050709077663,1.339443770365,5.275523306616)
  );
#733 = CARTESIAN_POINT('',(8.103777051288,1.294699780732,5.228413911479)
  );
#734 = CARTESIAN_POINT('',(8.212430074156,1.194345305786,5.122193319611)
  );
#735 = CARTESIAN_POINT('',(8.266650431123,1.1382428289,5.062458461947));
#736 = CARTESIAN_POINT('',(8.316354476256,1.080936957265,5.000985266175)
  );
#737 = CARTESIAN_POINT('',(8.361784676765,1.022767974005,4.937997807175)
  );
#738 = CARTESIAN_POINT('',(8.40317014786,0.964027936715,4.873601514938)
  );
#739 = CARTESIAN_POINT('',(8.440694600628,0.904990883737,4.807816588292)
  );
#740 = CARTESIAN_POINT('',(8.495216439107,0.80997701611,4.699257764857)
  );
#741 = CARTESIAN_POINT('',(8.514426061354,0.774108422943,4.657648093792)
  );
#742 = CARTESIAN_POINT('',(8.532281264299,0.73841147079,4.615474392881)
  );
#743 = CARTESIAN_POINT('',(8.548854038407,0.702889871015,4.572552375285)
  );
#744 = CARTESIAN_POINT('',(8.564138766546,0.667695517707,4.528774434566)
  );
#745 = CARTESIAN_POINT('',(8.578078105459,0.633188520922,4.484134415082)
  );
#746 = CARTESIAN_POINT('',(8.590597372059,0.6,4.43874821937));
#747 = ORIENTED_EDGE('',*,*,#556,.T.);
#748 = ORIENTED_EDGE('',*,*,#749,.T.);
#749 = EDGE_CURVE('',#549,#750,#752,.T.);
#750 = VERTEX_POINT('',#751);
#751 = CARTESIAN_POINT('',(5.409402627941,0.6,3.56125178063));
#752 = B_SPLINE_CURVE_WITH_KNOTS('',7,(#753,#754,#755,#756,#757,#758,
    #759,#760,#761,#762,#763,#764,#765,#766,#767,#768,#769,#770,#771,
    #772,#773,#774,#775,#776,#777,#778,#779,#780,#781,#782,#783,#784,
    #785,#786,#787,#788,#789,#790,#791,#792,#793,#794,#795,#796,#797,
    #798,#799,#800,#801,#802),.UNSPECIFIED.,.F.,.F.,(8,6,6,6,6,6,6,6,8),
  (0.,9.180274032349E-02,0.237917043046,0.355660868343,0.501906568594,
    0.58994089499,0.752280423905,0.913253616146,1.),.UNSPECIFIED.);
#753 = CARTESIAN_POINT('',(8.590597372059,0.6,3.56125178063));
#754 = CARTESIAN_POINT('',(8.57760051655,0.634454607028,3.514134178087)
  );
#755 = CARTESIAN_POINT('',(8.563069288325,0.670340566702,3.46780667929)
  );
#756 = CARTESIAN_POINT('',(8.547086365574,0.706950959153,3.422402624834)
  );
#757 = CARTESIAN_POINT('',(8.52971603868,0.743889448335,3.377917019127)
  );
#758 = CARTESIAN_POINT('',(8.510963807811,0.780994243667,3.334231303207)
  );
#759 = CARTESIAN_POINT('',(8.490747279079,0.818266276653,3.291143555536)
  );
#760 = CARTESIAN_POINT('',(8.434071533669,0.915543235073,3.180379542286)
  );
#761 = CARTESIAN_POINT('',(8.395412234964,0.975379983757,3.113889080875)
  );
#762 = CARTESIAN_POINT('',(8.352759873486,1.034867875351,3.048825625388)
  );
#763 = CARTESIAN_POINT('',(8.305916177091,1.093726298137,2.985219945819)
  );
#764 = CARTESIAN_POINT('',(8.254637521008,1.151648259519,2.923194756013)
  );
#765 = CARTESIAN_POINT('',(8.198667269709,1.208271290357,2.862998370687)
  );
#766 = CARTESIAN_POINT('',(8.08865143069,1.307365132834,2.75825407455));
#767 = CARTESIAN_POINT('',(8.03631670938,1.350471931896,2.712912929907)
  );
#768 = CARTESIAN_POINT('',(7.980586553782,1.392240158264,2.669154320918)
  );
#769 = CARTESIAN_POINT('',(7.92130941554,1.432394442311,2.627223307167)
  );
#770 = CARTESIAN_POINT('',(7.858347344656,1.470604071508,2.587430104088)
  );
#771 = CARTESIAN_POINT('',(7.791587049361,1.506477196852,2.550152854429)
  );
#772 = CARTESIAN_POINT('',(7.633216207124,1.580639930365,2.473222037765)
  );
#773 = CARTESIAN_POINT('',(7.53846646249,1.617898132297,2.434674194493)
  );
#774 = CARTESIAN_POINT('',(7.437596687195,1.649657790133,2.401884551541)
  );
#775 = CARTESIAN_POINT('',(7.331688939946,1.67457689923,2.376193391746)
  );
#776 = CARTESIAN_POINT('',(7.221974608075,1.691652752505,2.358600113403)
  );
#777 = CARTESIAN_POINT('',(7.109788947841,1.700228444722,2.34976463268)
  );
#778 = CARTESIAN_POINT('',(6.928333103111,1.699856772206,2.350147568049)
  );
#779 = CARTESIAN_POINT('',(6.860298218698,1.696526790057,2.353578503047)
  );
#780 = CARTESIAN_POINT('',(6.792818811273,1.690031504253,2.360270611892)
  );
#781 = CARTESIAN_POINT('',(6.726297262556,1.680471837435,2.370122560332)
  );
#782 = CARTESIAN_POINT('',(6.6611264013,1.66802410172,2.382957467021));
#783 = CARTESIAN_POINT('',(6.59768310311,1.652939482369,2.398522823387)
  );
#784 = CARTESIAN_POINT('',(6.423168864698,1.603464533445,2.449623513195)
  );
#785 = CARTESIAN_POINT('',(6.317216323786,1.563559913729,2.490890088767)
  );
#786 = CARTESIAN_POINT('',(6.218640807908,1.517326447967,2.53879286275)
  );
#787 = CARTESIAN_POINT('',(6.127405820244,1.466059102625,2.592056170339)
  );
#788 = CARTESIAN_POINT('',(6.043328371658,1.410865454015,2.649606094167)
  );
#789 = CARTESIAN_POINT('',(5.966132251536,1.352683866388,2.710558245671)
  );
#790 = CARTESIAN_POINT('',(5.825438377417,1.232435149223,2.83733238612)
  );
#791 = CARTESIAN_POINT('',(5.761593884519,1.170202326626,2.903322271735)
  );
#792 = CARTESIAN_POINT('',(5.70360035072,1.106258183413,2.971635317072)
  );
#793 = CARTESIAN_POINT('',(5.651102935507,1.041110699369,3.041900522182)
  );
#794 = CARTESIAN_POINT('',(5.603759911706,0.975177078986,3.113943696368)
  );
#795 = CARTESIAN_POINT('',(5.561299435265,0.908814728392,3.187721922419)
  );
#796 = CARTESIAN_POINT('',(5.503189338386,0.806996396113,3.304201431564)
  );
#797 = CARTESIAN_POINT('',(5.4843341269,0.771625444782,3.345286893742));
#798 = CARTESIAN_POINT('',(5.466809603204,0.73645524787,3.386892135707)
  );
#799 = CARTESIAN_POINT('',(5.450535778569,0.701476854907,3.429209862079)
  );
#800 = CARTESIAN_POINT('',(5.435507045019,0.666814626849,3.472369336673)
  );
#801 = CARTESIAN_POINT('',(5.421772117244,0.632791461964,3.51640857373)
  );
#802 = CARTESIAN_POINT('',(5.409402627941,0.6,3.56125178063));
#803 = ORIENTED_EDGE('',*,*,#804,.T.);
#804 = EDGE_CURVE('',#750,#805,#807,.T.);
#805 = VERTEX_POINT('',#806);
#806 = CARTESIAN_POINT('',(5.409402627941,0.6,4.43874821937));
#807 = CIRCLE('',#808,1.65);
#808 = AXIS2_PLACEMENT_3D('',#809,#810,#811);
#809 = CARTESIAN_POINT('',(7.,0.6,4.));
#810 = DIRECTION('',(0.,1.,0.));
#811 = DIRECTION('',(0.,0.,1.));
#812 = ORIENTED_EDGE('',*,*,#813,.T.);
#813 = EDGE_CURVE('',#805,#706,#814,.T.);
#814 = B_SPLINE_CURVE_WITH_KNOTS('',7,(#815,#816,#817,#818,#819,#820,
    #821,#822,#823,#824,#825,#826,#827,#828,#829,#830,#831,#832,#833,
    #834,#835,#836,#837,#838,#839,#840,#841,#842,#843,#844,#845,#846),
  .UNSPECIFIED.,.F.,.F.,(8,6,6,6,6,8),(0.,0.177818125539,0.470977252173,
    0.704496849827,0.819371251024,1.),.UNSPECIFIED.);
#815 = CARTESIAN_POINT('',(5.409402627941,0.6,4.43874821937));
#816 = CARTESIAN_POINT('',(5.422044625777,0.633513880891,4.484579353599)
  );
#817 = CARTESIAN_POINT('',(5.436135641552,0.668374790495,4.529653111312)
  );
#818 = CARTESIAN_POINT('',(5.451598976701,0.703932649746,4.573849225165)
  );
#819 = CARTESIAN_POINT('',(5.46837554557,0.739818183369,4.617173544001)
  );
#820 = CARTESIAN_POINT('',(5.486459738506,0.775876916971,4.659736408437)
  );
#821 = CARTESIAN_POINT('',(5.505926116654,0.812106264972,4.701726558611)
  );
#822 = CARTESIAN_POINT('',(5.561602830553,0.908753882865,4.812053296654)
  );
#823 = CARTESIAN_POINT('',(5.600156630194,0.969051536247,4.879164039011)
  );
#824 = CARTESIAN_POINT('',(5.642746750623,1.029019581442,4.944828243766)
  );
#825 = CARTESIAN_POINT('',(5.689572201536,1.088370857001,5.009019891482)
  );
#826 = CARTESIAN_POINT('',(5.740880370173,1.146793316729,5.071620078514)
  );
#827 = CARTESIAN_POINT('',(5.796932111651,1.203919623469,5.132380052398)
  );
#828 = CARTESIAN_POINT('',(5.906632709673,1.303402989428,5.23757388645)
  );
#829 = CARTESIAN_POINT('',(5.958473959371,1.346421399124,5.282836773689)
  );
#830 = CARTESIAN_POINT('',(6.013669955811,1.388129514718,5.326545331754)
  );
#831 = CARTESIAN_POINT('',(6.072371411403,1.428259142664,5.368461878019)
  );
#832 = CARTESIAN_POINT('',(6.134716256027,1.466487763365,5.408284567996)
  );
#833 = CARTESIAN_POINT('',(6.200818853783,1.502432777916,5.445644698588)
  );
#834 = CARTESIAN_POINT('',(6.305164716053,1.551984087376,5.497055449074)
  );
#835 = CARTESIAN_POINT('',(6.340502701664,1.567663139691,5.51330676013)
  );
#836 = CARTESIAN_POINT('',(6.376758845639,1.582617770022,5.528793513636)
  );
#837 = CARTESIAN_POINT('',(6.413915766507,1.596783212193,5.543451510943)
  );
#838 = CARTESIAN_POINT('',(6.451953032257,1.610095075628,5.557216785623)
  );
#839 = CARTESIAN_POINT('',(6.490847160335,1.62248934535,5.570025603475)
  );
#840 = CARTESIAN_POINT('',(6.59303443749,1.651848264672,5.600351289166)
  );
#841 = CARTESIAN_POINT('',(6.657692212771,1.667408970055,5.616408439121)
  );
#842 = CARTESIAN_POINT('',(6.724167912733,1.680233538852,5.629632007157)
  );
#843 = CARTESIAN_POINT('',(6.792059993566,1.690052060203,5.639750646299)
  );
#844 = CARTESIAN_POINT('',(6.860949475198,1.69667624513,5.646575477612)
  );
#845 = CARTESIAN_POINT('',(6.930407018085,1.7,5.65));
#846 = CARTESIAN_POINT('',(7.,1.7,5.65));
#847 = ORIENTED_EDGE('',*,*,#705,.T.);
#848 = ORIENTED_EDGE('',*,*,#849,.F.);
#849 = EDGE_CURVE('',#60,#697,#850,.T.);
#850 = CIRCLE('',#851,1.65);
#851 = AXIS2_PLACEMENT_3D('',#852,#853,#854);
#852 = CARTESIAN_POINT('',(7.,7.3,4.));
#853 = DIRECTION('',(0.,1.,0.));
#854 = DIRECTION('',(0.,0.,1.));
#855 = CYLINDRICAL_SURFACE('',#856,1.65);
#856 = AXIS2_PLACEMENT_3D('',#857,#858,#859);
#857 = CARTESIAN_POINT('',(7.,-11.,4.));
#858 = DIRECTION('',(0.,1.,0.));
#859 = DIRECTION('',(0.,0.,1.));
#860 = ADVANCED_FACE('',(#861),#889,.T.);
#861 = FACE_BOUND('',#862,.T.);
#862 = EDGE_LOOP('',(#863,#871,#879,#885,#886,#887,#888));
#863 = ORIENTED_EDGE('',*,*,#864,.F.);
#864 = EDGE_CURVE('',#865,#202,#867,.T.);
#865 = VERTEX_POINT('',#866);
#866 = CARTESIAN_POINT('',(3.8,7.3,1.1));
#867 = LINE('',#868,#869);
#868 = CARTESIAN_POINT('',(3.8,7.3,1.1));
#869 = VECTOR('',#870,1.);
#870 = DIRECTION('',(1.,0.,0.));
#871 = ORIENTED_EDGE('',*,*,#872,.T.);
#872 = EDGE_CURVE('',#865,#873,#875,.T.);
#873 = VERTEX_POINT('',#874);
#874 = CARTESIAN_POINT('',(3.8,7.3,6.9));
#875 = LINE('',#876,#877);
#876 = CARTESIAN_POINT('',(3.8,7.3,1.1));
#877 = VECTOR('',#878,1.);
#878 = DIRECTION('',(0.,0.,1.));
#879 = ORIENTED_EDGE('',*,*,#880,.T.);
#880 = EDGE_CURVE('',#873,#177,#881,.T.);
#881 = LINE('',#882,#883);
#882 = CARTESIAN_POINT('',(3.8,7.3,6.9));
#883 = VECTOR('',#884,1.);
#884 = DIRECTION('',(1.,0.,0.));
#885 = ORIENTED_EDGE('',*,*,#176,.F.);
#886 = ORIENTED_EDGE('',*,*,#696,.F.);
#887 = ORIENTED_EDGE('',*,*,#849,.F.);
#888 = ORIENTED_EDGE('',*,*,#210,.F.);
#889 = PLANE('',#890);
#890 = AXIS2_PLACEMENT_3D('',#891,#892,#893);
#891 = CARTESIAN_POINT('',(3.8,7.3,1.1));
#892 = DIRECTION('',(0.,1.,0.));
#893 = DIRECTION('',(0.,0.,1.));
#894 = ADVANCED_FACE('',(#895),#905,.T.);
#895 = FACE_BOUND('',#896,.T.);
#896 = EDGE_LOOP('',(#897,#903,#904));
#897 = ORIENTED_EDGE('',*,*,#898,.F.);
#898 = EDGE_CURVE('',#865,#194,#899,.T.);
#899 = LINE('',#900,#901);
#900 = CARTESIAN_POINT('',(3.8,7.3,1.1));
#901 = VECTOR('',#902,1.);
#902 = DIRECTION('',(0.,1.,0.));
#903 = ORIENTED_EDGE('',*,*,#864,.T.);
#904 = ORIENTED_EDGE('',*,*,#201,.T.);
#905 = PLANE('',#906);
#906 = AXIS2_PLACEMENT_3D('',#907,#908,#909);
#907 = CARTESIAN_POINT('',(3.8,7.3,1.1));
#908 = DIRECTION('',(0.,0.,1.));
#909 = DIRECTION('',(1.,0.,0.));
#910 = ADVANCED_FACE('',(#911),#922,.T.);
#911 = FACE_BOUND('',#912,.T.);
#912 = EDGE_LOOP('',(#913,#919,#920,#921));
#913 = ORIENTED_EDGE('',*,*,#914,.F.);
#914 = EDGE_CURVE('',#873,#185,#915,.T.);
#915 = LINE('',#916,#917);
#916 = CARTESIAN_POINT('',(3.8,7.3,6.9));
#917 = VECTOR('',#918,1.);
#918 = DIRECTION('',(0.,1.,0.));
#919 = ORIENTED_EDGE('',*,*,#872,.F.);
#920 = ORIENTED_EDGE('',*,*,#898,.T.);
#921 = ORIENTED_EDGE('',*,*,#193,.T.);
#922 = PLANE('',#923);
#923 = AXIS2_PLACEMENT_3D('',#924,#925,#926);
#924 = CARTESIAN_POINT('',(3.8,7.3,1.1));
#925 = DIRECTION('',(1.,0.,0.));
#926 = DIRECTION('',(0.,0.,1.));
#927 = ADVANCED_FACE('',(#928),#933,.F.);
#928 = FACE_BOUND('',#929,.F.);
#929 = EDGE_LOOP('',(#930,#931,#932));
#930 = ORIENTED_EDGE('',*,*,#914,.F.);
#931 = ORIENTED_EDGE('',*,*,#880,.T.);
#932 = ORIENTED_EDGE('',*,*,#184,.T.);
#933 = PLANE('',#934);
#934 = AXIS2_PLACEMENT_3D('',#935,#936,#937);
#935 = CARTESIAN_POINT('',(3.8,7.3,6.9));
#936 = DIRECTION('',(0.,0.,1.));
#937 = DIRECTION('',(1.,0.,0.));
#938 = ADVANCED_FACE('',(#939),#975,.F.);
#939 = FACE_BOUND('',#940,.F.);
#940 = EDGE_LOOP('',(#941,#950,#957,#958,#967,#974));
#941 = ORIENTED_EDGE('',*,*,#942,.T.);
#942 = EDGE_CURVE('',#346,#943,#945,.T.);
#943 = VERTEX_POINT('',#944);
#944 = CARTESIAN_POINT('',(7.,-7.4,7.2));
#945 = CIRCLE('',#946,3.2);
#946 = AXIS2_PLACEMENT_3D('',#947,#948,#949);
#947 = CARTESIAN_POINT('',(7.,-7.4,4.));
#948 = DIRECTION('',(0.,1.,0.));
#949 = DIRECTION('',(0.,0.,1.));
#950 = ORIENTED_EDGE('',*,*,#951,.T.);
#951 = EDGE_CURVE('',#943,#221,#952,.T.);
#952 = CIRCLE('',#953,3.2);
#953 = AXIS2_PLACEMENT_3D('',#954,#955,#956);
#954 = CARTESIAN_POINT('',(7.,-7.4,4.));
#955 = DIRECTION('',(0.,1.,0.));
#956 = DIRECTION('',(0.,0.,1.));
#957 = ORIENTED_EDGE('',*,*,#218,.F.);
#958 = ORIENTED_EDGE('',*,*,#959,.F.);
#959 = EDGE_CURVE('',#960,#219,#962,.T.);
#960 = VERTEX_POINT('',#961);
#961 = CARTESIAN_POINT('',(7.,-7.4,5.65));
#962 = CIRCLE('',#963,1.65);
#963 = AXIS2_PLACEMENT_3D('',#964,#965,#966);
#964 = CARTESIAN_POINT('',(7.,-7.4,4.));
#965 = DIRECTION('',(0.,1.,0.));
#966 = DIRECTION('',(0.,0.,1.));
#967 = ORIENTED_EDGE('',*,*,#968,.F.);
#968 = EDGE_CURVE('',#229,#960,#969,.T.);
#969 = CIRCLE('',#970,1.65);
#970 = AXIS2_PLACEMENT_3D('',#971,#972,#973);
#971 = CARTESIAN_POINT('',(7.,-7.4,4.));
#972 = DIRECTION('',(0.,1.,0.));
#973 = DIRECTION('',(0.,0.,1.));
#974 = ORIENTED_EDGE('',*,*,#345,.F.);
#975 = PLANE('',#976);
#976 = AXIS2_PLACEMENT_3D('',#977,#978,#979);
#977 = CARTESIAN_POINT('',(7.,-7.4,4.));
#978 = DIRECTION('',(0.,1.,0.));
#979 = DIRECTION('',(0.,0.,1.));
#980 = ADVANCED_FACE('',(#981),#1130,.F.);
#981 = FACE_BOUND('',#982,.F.);
#982 = EDGE_LOOP('',(#983,#991,#1028,#1037,#1090,#1091,#1126,#1127,#1128
    ,#1129));
#983 = ORIENTED_EDGE('',*,*,#984,.T.);
#984 = EDGE_CURVE('',#960,#985,#987,.T.);
#985 = VERTEX_POINT('',#986);
#986 = CARTESIAN_POINT('',(7.,-1.7,5.65));
#987 = LINE('',#988,#989);
#988 = CARTESIAN_POINT('',(7.,-11.,5.65));
#989 = VECTOR('',#990,1.);
#990 = DIRECTION('',(0.,1.,0.));
#991 = ORIENTED_EDGE('',*,*,#992,.F.);
#992 = EDGE_CURVE('',#993,#985,#995,.T.);
#993 = VERTEX_POINT('',#994);
#994 = CARTESIAN_POINT('',(5.409402627941,-0.6,4.43874821937));
#995 = B_SPLINE_CURVE_WITH_KNOTS('',7,(#996,#997,#998,#999,#1000,#1001,
    #1002,#1003,#1004,#1005,#1006,#1007,#1008,#1009,#1010,#1011,#1012,
    #1013,#1014,#1015,#1016,#1017,#1018,#1019,#1020,#1021,#1022,#1023,
    #1024,#1025,#1026,#1027),.UNSPECIFIED.,.F.,.F.,(8,6,6,6,6,8),(0.,
    0.17781812554,0.470977252178,0.704496849835,0.81937125103,1.),
  .UNSPECIFIED.);
#996 = CARTESIAN_POINT('',(5.409402627941,-0.6,4.43874821937));
#997 = CARTESIAN_POINT('',(5.422044625777,-0.633513880891,4.484579353599
    ));
#998 = CARTESIAN_POINT('',(5.436135641552,-0.668374790495,4.529653111312
    ));
#999 = CARTESIAN_POINT('',(5.451598976701,-0.703932649746,4.573849225165
    ));
#1000 = CARTESIAN_POINT('',(5.46837554557,-0.739818183369,4.617173544001
    ));
#1001 = CARTESIAN_POINT('',(5.486459738506,-0.775876916971,
    4.659736408437));
#1002 = CARTESIAN_POINT('',(5.505926116654,-0.812106264972,
    4.701726558611));
#1003 = CARTESIAN_POINT('',(5.561602830553,-0.908753882865,
    4.812053296654));
#1004 = CARTESIAN_POINT('',(5.600156630194,-0.969051536247,
    4.879164039011));
#1005 = CARTESIAN_POINT('',(5.642746750622,-1.029019581442,
    4.944828243766));
#1006 = CARTESIAN_POINT('',(5.689572201536,-1.088370857001,
    5.009019891482));
#1007 = CARTESIAN_POINT('',(5.740880370173,-1.146793316728,
    5.071620078514));
#1008 = CARTESIAN_POINT('',(5.796932111651,-1.203919623469,
    5.132380052398));
#1009 = CARTESIAN_POINT('',(5.906632709673,-1.303402989428,5.23757388645
    ));
#1010 = CARTESIAN_POINT('',(5.95847395937,-1.346421399124,5.282836773689
    ));
#1011 = CARTESIAN_POINT('',(6.013669955811,-1.388129514718,
    5.326545331754));
#1012 = CARTESIAN_POINT('',(6.072371411403,-1.428259142664,
    5.368461878019));
#1013 = CARTESIAN_POINT('',(6.134716256027,-1.466487763365,
    5.408284567996));
#1014 = CARTESIAN_POINT('',(6.200818853783,-1.502432777916,
    5.445644698588));
#1015 = CARTESIAN_POINT('',(6.305164716053,-1.551984087376,
    5.497055449073));
#1016 = CARTESIAN_POINT('',(6.340502701664,-1.567663139691,
    5.513306760129));
#1017 = CARTESIAN_POINT('',(6.376758845639,-1.582617770022,
    5.528793513636));
#1018 = CARTESIAN_POINT('',(6.413915766507,-1.596783212193,
    5.543451510943));
#1019 = CARTESIAN_POINT('',(6.451953032257,-1.610095075628,
    5.557216785623));
#1020 = CARTESIAN_POINT('',(6.490847160334,-1.62248934535,5.570025603475
    ));
#1021 = CARTESIAN_POINT('',(6.59303443749,-1.651848264672,5.600351289166
    ));
#1022 = CARTESIAN_POINT('',(6.657692212771,-1.667408970055,
    5.616408439121));
#1023 = CARTESIAN_POINT('',(6.724167912733,-1.680233538852,
    5.629632007157));
#1024 = CARTESIAN_POINT('',(6.792059993566,-1.690052060203,
    5.639750646299));
#1025 = CARTESIAN_POINT('',(6.860949475198,-1.69667624513,5.646575477612
    ));
#1026 = CARTESIAN_POINT('',(6.930407018085,-1.7,5.65));
#1027 = CARTESIAN_POINT('',(7.,-1.7,5.65));
#1028 = ORIENTED_EDGE('',*,*,#1029,.F.);
#1029 = EDGE_CURVE('',#1030,#993,#1032,.T.);
#1030 = VERTEX_POINT('',#1031);
#1031 = CARTESIAN_POINT('',(5.409402627941,-0.6,3.56125178063));
#1032 = CIRCLE('',#1033,1.65);
#1033 = AXIS2_PLACEMENT_3D('',#1034,#1035,#1036);
#1034 = CARTESIAN_POINT('',(7.,-0.6,4.));
#1035 = DIRECTION('',(0.,1.,0.));
#1036 = DIRECTION('',(0.,0.,1.));
#1037 = ORIENTED_EDGE('',*,*,#1038,.F.);
#1038 = EDGE_CURVE('',#590,#1030,#1039,.T.);
#1039 = B_SPLINE_CURVE_WITH_KNOTS('',7,(#1040,#1041,#1042,#1043,#1044,
    #1045,#1046,#1047,#1048,#1049,#1050,#1051,#1052,#1053,#1054,#1055,
    #1056,#1057,#1058,#1059,#1060,#1061,#1062,#1063,#1064,#1065,#1066,
    #1067,#1068,#1069,#1070,#1071,#1072,#1073,#1074,#1075,#1076,#1077,
    #1078,#1079,#1080,#1081,#1082,#1083,#1084,#1085,#1086,#1087,#1088,
    #1089),.UNSPECIFIED.,.F.,.F.,(8,6,6,6,6,6,6,6,8),(0.,
    9.180274027467E-02,0.237917042921,0.355660868156,0.501906568332,
    0.589940894697,0.752280423671,0.913253616063,1.),.UNSPECIFIED.);
#1040 = CARTESIAN_POINT('',(8.590597372059,-0.6,3.56125178063));
#1041 = CARTESIAN_POINT('',(8.57760051655,-0.634454607028,3.514134178087
    ));
#1042 = CARTESIAN_POINT('',(8.563069288325,-0.670340566702,3.46780667929
    ));
#1043 = CARTESIAN_POINT('',(8.547086365574,-0.706950959153,
    3.422402624835));
#1044 = CARTESIAN_POINT('',(8.52971603868,-0.743889448335,3.377917019127
    ));
#1045 = CARTESIAN_POINT('',(8.510963807811,-0.780994243667,
    3.334231303207));
#1046 = CARTESIAN_POINT('',(8.490747279079,-0.818266276653,
    3.291143555535));
#1047 = CARTESIAN_POINT('',(8.434071533669,-0.915543235073,
    3.180379542286));
#1048 = CARTESIAN_POINT('',(8.395412234964,-0.975379983757,
    3.113889080875));
#1049 = CARTESIAN_POINT('',(8.352759873485,-1.034867875351,
    3.048825625388));
#1050 = CARTESIAN_POINT('',(8.305916177092,-1.093726298137,
    2.985219945819));
#1051 = CARTESIAN_POINT('',(8.254637521007,-1.151648259519,
    2.923194756013));
#1052 = CARTESIAN_POINT('',(8.198667269708,-1.208271290357,
    2.862998370687));
#1053 = CARTESIAN_POINT('',(8.08865143069,-1.307365132834,2.75825407455)
  );
#1054 = CARTESIAN_POINT('',(8.03631670938,-1.350471931896,2.712912929907
    ));
#1055 = CARTESIAN_POINT('',(7.980586553782,-1.392240158263,
    2.669154320918));
#1056 = CARTESIAN_POINT('',(7.92130941554,-1.432394442311,2.627223307167
    ));
#1057 = CARTESIAN_POINT('',(7.858347344656,-1.470604071508,
    2.587430104087));
#1058 = CARTESIAN_POINT('',(7.791587049361,-1.506477196852,
    2.550152854429));
#1059 = CARTESIAN_POINT('',(7.633216207124,-1.580639930365,
    2.473222037765));
#1060 = CARTESIAN_POINT('',(7.53846646249,-1.617898132297,2.434674194493
    ));
#1061 = CARTESIAN_POINT('',(7.437596687195,-1.649657790133,
    2.401884551541));
#1062 = CARTESIAN_POINT('',(7.331688939946,-1.67457689923,2.376193391746
    ));
#1063 = CARTESIAN_POINT('',(7.221974608075,-1.691652752505,
    2.358600113403));
#1064 = CARTESIAN_POINT('',(7.109788947841,-1.700228444722,2.34976463268
    ));
#1065 = CARTESIAN_POINT('',(6.928333103099,-1.699856772206,
    2.350147568049));
#1066 = CARTESIAN_POINT('',(6.860298218697,-1.696526790056,
    2.353578503048));
#1067 = CARTESIAN_POINT('',(6.792818811282,-1.690031504254,
    2.360270611891));
#1068 = CARTESIAN_POINT('',(6.726297262565,-1.680471837437,2.37012256033
    ));
#1069 = CARTESIAN_POINT('',(6.661126401298,-1.66802410172,2.382957467021
    ));
#1070 = CARTESIAN_POINT('',(6.5976831031,-1.652939482366,2.39852282339)
  );
#1071 = CARTESIAN_POINT('',(6.423168864637,-1.603464533427,
    2.449623513213));
#1072 = CARTESIAN_POINT('',(6.317216323772,-1.563559913714,
    2.490890088782));
#1073 = CARTESIAN_POINT('',(6.218640807946,-1.51732644798,2.538792862738
    ));
#1074 = CARTESIAN_POINT('',(6.127405820286,-1.466059102655,
    2.592056170308));
#1075 = CARTESIAN_POINT('',(6.043328371657,-1.410865454023,
    2.649606094159));
#1076 = CARTESIAN_POINT('',(5.966132251496,-1.352683866353,
    2.710558245707));
#1077 = CARTESIAN_POINT('',(5.825438377417,-1.232435149222,2.83733238612
    ));
#1078 = CARTESIAN_POINT('',(5.761593884519,-1.170202326627,
    2.903322271735));
#1079 = CARTESIAN_POINT('',(5.70360035072,-1.106258183413,2.971635317072
    ));
#1080 = CARTESIAN_POINT('',(5.651102935507,-1.041110699369,
    3.041900522182));
#1081 = CARTESIAN_POINT('',(5.603759911705,-0.975177078986,
    3.113943696368));
#1082 = CARTESIAN_POINT('',(5.561299435265,-0.908814728392,
    3.187721922419));
#1083 = CARTESIAN_POINT('',(5.503189338386,-0.806996396112,
    3.304201431565));
#1084 = CARTESIAN_POINT('',(5.4843341269,-0.771625444782,3.345286893742)
  );
#1085 = CARTESIAN_POINT('',(5.466809603204,-0.736455247871,
    3.386892135706));
#1086 = CARTESIAN_POINT('',(5.450535778569,-0.701476854907,
    3.429209862078));
#1087 = CARTESIAN_POINT('',(5.435507045019,-0.666814626849,
    3.472369336673));
#1088 = CARTESIAN_POINT('',(5.421772117244,-0.632791461964,3.51640857373
    ));
#1089 = CARTESIAN_POINT('',(5.409402627941,-0.6,3.56125178063));
#1090 = ORIENTED_EDGE('',*,*,#597,.F.);
#1091 = ORIENTED_EDGE('',*,*,#1092,.F.);
#1092 = EDGE_CURVE('',#985,#598,#1093,.T.);
#1093 = B_SPLINE_CURVE_WITH_KNOTS('',7,(#1094,#1095,#1096,#1097,#1098,
    #1099,#1100,#1101,#1102,#1103,#1104,#1105,#1106,#1107,#1108,#1109,
    #1110,#1111,#1112,#1113,#1114,#1115,#1116,#1117,#1118,#1119,#1120,
    #1121,#1122,#1123,#1124,#1125),.UNSPECIFIED.,.F.,.F.,(8,6,6,6,6,8),(
    0.,0.182015661682,0.295262428638,0.536924275221,0.82392320884,1.),
  .UNSPECIFIED.);
#1094 = CARTESIAN_POINT('',(7.,-1.7,5.65));
#1095 = CARTESIAN_POINT('',(7.070133720427,-1.7,5.65));
#1096 = CARTESIAN_POINT('',(7.140120153358,-1.696624393846,
    5.646522052395));
#1097 = CARTESIAN_POINT('',(7.209520678195,-1.689898739508,
    5.639592679348));
#1098 = CARTESIAN_POINT('',(7.277900136215,-1.679932756308,
    5.629322030319));
#1099 = CARTESIAN_POINT('',(7.344834119221,-1.666919728226,5.61590397505
    ));
#1100 = CARTESIAN_POINT('',(7.409916258204,-1.651135907199,
    5.599616196557));
#1101 = CARTESIAN_POINT('',(7.511869151393,-1.62161870864,5.569125816194
    ));
#1102 = CARTESIAN_POINT('',(7.55016383126,-1.609347655178,5.556443862084
    ));
#1103 = CARTESIAN_POINT('',(7.587624413197,-1.596187753365,5.54283527958
    ));
#1104 = CARTESIAN_POINT('',(7.624228636063,-1.582200331639,
    5.528361121958));
#1105 = CARTESIAN_POINT('',(7.659957115986,-1.567447049549,
    5.513082637975));
#1106 = CARTESIAN_POINT('',(7.694793346361,-1.551989897756,
    5.497061271871));
#1107 = CARTESIAN_POINT('',(7.801129044303,-1.501537532955,
    5.444716292958));
#1108 = CARTESIAN_POINT('',(7.869422631205,-1.464255863842,
    5.405965273578));
#1109 = CARTESIAN_POINT('',(7.933693746098,-1.424543488943,
    5.364591527821));
#1110 = CARTESIAN_POINT('',(7.994070895769,-1.382821910825,
    5.321001098358));
#1111 = CARTESIAN_POINT('',(8.050709077663,-1.339443770365,
    5.275523306616));
#1112 = CARTESIAN_POINT('',(8.103777051288,-1.294699780732,5.22841391148
    ));
#1113 = CARTESIAN_POINT('',(8.212430074155,-1.194345305787,
    5.122193319611));
#1114 = CARTESIAN_POINT('',(8.266650431123,-1.138242828899,
    5.062458461947));
#1115 = CARTESIAN_POINT('',(8.316354476256,-1.080936957265,
    5.000985266175));
#1116 = CARTESIAN_POINT('',(8.361784676765,-1.022767974005,
    4.937997807174));
#1117 = CARTESIAN_POINT('',(8.403170147859,-0.964027936716,
    4.873601514938));
#1118 = CARTESIAN_POINT('',(8.440694600628,-0.904990883737,
    4.807816588292));
#1119 = CARTESIAN_POINT('',(8.495216439108,-0.80997701611,4.699257764857
    ));
#1120 = CARTESIAN_POINT('',(8.514426061354,-0.774108422943,
    4.657648093792));
#1121 = CARTESIAN_POINT('',(8.532281264299,-0.73841147079,4.615474392881
    ));
#1122 = CARTESIAN_POINT('',(8.548854038407,-0.702889871016,
    4.572552375285));
#1123 = CARTESIAN_POINT('',(8.564138766546,-0.667695517707,
    4.528774434566));
#1124 = CARTESIAN_POINT('',(8.578078105459,-0.633188520922,
    4.484134415082));
#1125 = CARTESIAN_POINT('',(8.590597372059,-0.6,4.43874821937));
#1126 = ORIENTED_EDGE('',*,*,#984,.F.);
#1127 = ORIENTED_EDGE('',*,*,#959,.T.);
#1128 = ORIENTED_EDGE('',*,*,#228,.T.);
#1129 = ORIENTED_EDGE('',*,*,#968,.T.);
#1130 = CYLINDRICAL_SURFACE('',#1131,1.65);
#1131 = AXIS2_PLACEMENT_3D('',#1132,#1133,#1134);
#1132 = CARTESIAN_POINT('',(7.,-11.,4.));
#1133 = DIRECTION('',(0.,1.,0.));
#1134 = DIRECTION('',(0.,0.,1.));
#1135 = ADVANCED_FACE('',(#1136),#1146,.F.);
#1136 = FACE_BOUND('',#1137,.F.);
#1137 = EDGE_LOOP('',(#1138,#1139,#1145));
#1138 = ORIENTED_EDGE('',*,*,#951,.F.);
#1139 = ORIENTED_EDGE('',*,*,#1140,.F.);
#1140 = EDGE_CURVE('',#354,#943,#1141,.T.);
#1141 = LINE('',#1142,#1143);
#1142 = CARTESIAN_POINT('',(7.,-10.6,7.2));
#1143 = VECTOR('',#1144,1.);
#1144 = DIRECTION('',(0.,1.,0.));
#1145 = ORIENTED_EDGE('',*,*,#435,.T.);
#1146 = CYLINDRICAL_SURFACE('',#1147,3.2);
#1147 = AXIS2_PLACEMENT_3D('',#1148,#1149,#1150);
#1148 = CARTESIAN_POINT('',(7.,-10.6,4.));
#1149 = DIRECTION('',(0.,1.,0.));
#1150 = DIRECTION('',(0.,0.,1.));
#1151 = ADVANCED_FACE('',(#1152),#1157,.F.);
#1152 = FACE_BOUND('',#1153,.F.);
#1153 = EDGE_LOOP('',(#1154,#1155,#1156));
#1154 = ORIENTED_EDGE('',*,*,#1140,.T.);
#1155 = ORIENTED_EDGE('',*,*,#942,.F.);
#1156 = ORIENTED_EDGE('',*,*,#353,.T.);
#1157 = CYLINDRICAL_SURFACE('',#1158,3.2);
#1158 = AXIS2_PLACEMENT_3D('',#1159,#1160,#1161);
#1159 = CARTESIAN_POINT('',(7.,-10.6,4.));
#1160 = DIRECTION('',(0.,1.,0.));
#1161 = DIRECTION('',(0.,0.,1.));
#1162 = ADVANCED_FACE('',(#1163),#1175,.F.);
#1163 = FACE_BOUND('',#1164,.F.);
#1164 = EDGE_LOOP('',(#1165,#1166,#1167,#1168,#1169));
#1165 = ORIENTED_EDGE('',*,*,#502,.F.);
#1166 = ORIENTED_EDGE('',*,*,#565,.F.);
#1167 = ORIENTED_EDGE('',*,*,#713,.F.);
#1168 = ORIENTED_EDGE('',*,*,#813,.F.);
#1169 = ORIENTED_EDGE('',*,*,#1170,.T.);
#1170 = EDGE_CURVE('',#805,#495,#1171,.T.);
#1171 = LINE('',#1172,#1173);
#1172 = CARTESIAN_POINT('',(5.409402627941,0.6,-1.));
#1173 = VECTOR('',#1174,1.);
#1174 = DIRECTION('',(0.,0.,1.));
#1175 = CYLINDRICAL_SURFACE('',#1176,1.7);
#1176 = AXIS2_PLACEMENT_3D('',#1177,#1178,#1179);
#1177 = CARTESIAN_POINT('',(7.,0.,-1.));
#1178 = DIRECTION('',(0.,0.,1.));
#1179 = DIRECTION('',(1.,0.,0.));
#1180 = ADVANCED_FACE('',(#1181),#1199,.F.);
#1181 = FACE_BOUND('',#1182,.F.);
#1182 = EDGE_LOOP('',(#1183,#1184,#1185,#1186,#1192,#1193));
#1183 = ORIENTED_EDGE('',*,*,#494,.F.);
#1184 = ORIENTED_EDGE('',*,*,#1170,.F.);
#1185 = ORIENTED_EDGE('',*,*,#804,.F.);
#1186 = ORIENTED_EDGE('',*,*,#1187,.F.);
#1187 = EDGE_CURVE('',#651,#750,#1188,.T.);
#1188 = LINE('',#1189,#1190);
#1189 = CARTESIAN_POINT('',(5.409402627941,0.6,-1.));
#1190 = VECTOR('',#1191,1.);
#1191 = DIRECTION('',(0.,0.,1.));
#1192 = ORIENTED_EDGE('',*,*,#650,.T.);
#1193 = ORIENTED_EDGE('',*,*,#1194,.T.);
#1194 = EDGE_CURVE('',#642,#486,#1195,.T.);
#1195 = LINE('',#1196,#1197);
#1196 = CARTESIAN_POINT('',(2.323790007724,0.6,-1.));
#1197 = VECTOR('',#1198,1.);
#1198 = DIRECTION('',(0.,0.,1.));
#1199 = PLANE('',#1200);
#1200 = AXIS2_PLACEMENT_3D('',#1201,#1202,#1203);
#1201 = CARTESIAN_POINT('',(2.,0.6,-1.));
#1202 = DIRECTION('',(0.,1.,0.));
#1203 = DIRECTION('',(0.,0.,1.));
#1204 = ADVANCED_FACE('',(#1205),#1216,.F.);
#1205 = FACE_BOUND('',#1206,.F.);
#1206 = EDGE_LOOP('',(#1207,#1208,#1209,#1210));
#1207 = ORIENTED_EDGE('',*,*,#485,.F.);
#1208 = ORIENTED_EDGE('',*,*,#1194,.F.);
#1209 = ORIENTED_EDGE('',*,*,#641,.T.);
#1210 = ORIENTED_EDGE('',*,*,#1211,.T.);
#1211 = EDGE_CURVE('',#634,#478,#1212,.T.);
#1212 = LINE('',#1213,#1214);
#1213 = CARTESIAN_POINT('',(2.323790007724,-0.6,-1.));
#1214 = VECTOR('',#1215,1.);
#1215 = DIRECTION('',(0.,0.,1.));
#1216 = CYLINDRICAL_SURFACE('',#1217,2.4);
#1217 = AXIS2_PLACEMENT_3D('',#1218,#1219,#1220);
#1218 = CARTESIAN_POINT('',(0.,0.,-1.));
#1219 = DIRECTION('',(0.,0.,1.));
#1220 = DIRECTION('',(1.,0.,0.));
#1221 = ADVANCED_FACE('',(#1222),#1240,.T.);
#1222 = FACE_BOUND('',#1223,.T.);
#1223 = EDGE_LOOP('',(#1224,#1225,#1231,#1232,#1238,#1239));
#1224 = ORIENTED_EDGE('',*,*,#477,.F.);
#1225 = ORIENTED_EDGE('',*,*,#1226,.F.);
#1226 = EDGE_CURVE('',#993,#469,#1227,.T.);
#1227 = LINE('',#1228,#1229);
#1228 = CARTESIAN_POINT('',(5.409402627941,-0.6,-1.));
#1229 = VECTOR('',#1230,1.);
#1230 = DIRECTION('',(0.,0.,1.));
#1231 = ORIENTED_EDGE('',*,*,#1029,.F.);
#1232 = ORIENTED_EDGE('',*,*,#1233,.F.);
#1233 = EDGE_CURVE('',#625,#1030,#1234,.T.);
#1234 = LINE('',#1235,#1236);
#1235 = CARTESIAN_POINT('',(5.409402627941,-0.6,-1.));
#1236 = VECTOR('',#1237,1.);
#1237 = DIRECTION('',(0.,0.,1.));
#1238 = ORIENTED_EDGE('',*,*,#633,.T.);
#1239 = ORIENTED_EDGE('',*,*,#1211,.T.);
#1240 = PLANE('',#1241);
#1241 = AXIS2_PLACEMENT_3D('',#1242,#1243,#1244);
#1242 = CARTESIAN_POINT('',(2.,-0.6,-1.));
#1243 = DIRECTION('',(0.,1.,0.));
#1244 = DIRECTION('',(0.,0.,1.));
#1245 = ADVANCED_FACE('',(#1246),#1253,.F.);
#1246 = FACE_BOUND('',#1247,.F.);
#1247 = EDGE_LOOP('',(#1248,#1249,#1250,#1251,#1252));
#1248 = ORIENTED_EDGE('',*,*,#1092,.T.);
#1249 = ORIENTED_EDGE('',*,*,#606,.T.);
#1250 = ORIENTED_EDGE('',*,*,#468,.F.);
#1251 = ORIENTED_EDGE('',*,*,#1226,.F.);
#1252 = ORIENTED_EDGE('',*,*,#992,.T.);
#1253 = CYLINDRICAL_SURFACE('',#1254,1.7);
#1254 = AXIS2_PLACEMENT_3D('',#1255,#1256,#1257);
#1255 = CARTESIAN_POINT('',(7.,0.,-1.));
#1256 = DIRECTION('',(0.,0.,1.));
#1257 = DIRECTION('',(1.,0.,0.));
#1258 = ADVANCED_FACE('',(#1259),#1270,.F.);
#1259 = FACE_BOUND('',#1260,.F.);
#1260 = EDGE_LOOP('',(#1261,#1262,#1268,#1269));
#1261 = ORIENTED_EDGE('',*,*,#511,.F.);
#1262 = ORIENTED_EDGE('',*,*,#1263,.F.);
#1263 = EDGE_CURVE('',#668,#512,#1264,.T.);
#1264 = LINE('',#1265,#1266);
#1265 = CARTESIAN_POINT('',(-1.8,-6.062177826491,-1.));
#1266 = VECTOR('',#1267,1.);
#1267 = DIRECTION('',(0.,0.,1.));
#1268 = ORIENTED_EDGE('',*,*,#667,.T.);
#1269 = ORIENTED_EDGE('',*,*,#1263,.T.);
#1270 = CYLINDRICAL_SURFACE('',#1271,1.7);
#1271 = AXIS2_PLACEMENT_3D('',#1272,#1273,#1274);
#1272 = CARTESIAN_POINT('',(-3.5,-6.062177826491,-1.));
#1273 = DIRECTION('',(0.,0.,1.));
#1274 = DIRECTION('',(1.,0.,0.));
#1275 = ADVANCED_FACE('',(#1276),#1287,.F.);
#1276 = FACE_BOUND('',#1277,.F.);
#1277 = EDGE_LOOP('',(#1278,#1279,#1285,#1286));
#1278 = ORIENTED_EDGE('',*,*,#522,.F.);
#1279 = ORIENTED_EDGE('',*,*,#1280,.F.);
#1280 = EDGE_CURVE('',#679,#523,#1281,.T.);
#1281 = LINE('',#1282,#1283);
#1282 = CARTESIAN_POINT('',(-1.8,6.062177826491,-1.));
#1283 = VECTOR('',#1284,1.);
#1284 = DIRECTION('',(0.,0.,1.));
#1285 = ORIENTED_EDGE('',*,*,#678,.T.);
#1286 = ORIENTED_EDGE('',*,*,#1280,.T.);
#1287 = CYLINDRICAL_SURFACE('',#1288,1.7);
#1288 = AXIS2_PLACEMENT_3D('',#1289,#1290,#1291);
#1289 = CARTESIAN_POINT('',(-3.5,6.062177826491,-1.));
#1290 = DIRECTION('',(0.,0.,1.));
#1291 = DIRECTION('',(1.,0.,0.));
#1292 = ADVANCED_FACE('',(#1293),#1299,.F.);
#1293 = FACE_BOUND('',#1294,.F.);
#1294 = EDGE_LOOP('',(#1295,#1296,#1297,#1298));
#1295 = ORIENTED_EDGE('',*,*,#749,.F.);
#1296 = ORIENTED_EDGE('',*,*,#548,.F.);
#1297 = ORIENTED_EDGE('',*,*,#658,.T.);
#1298 = ORIENTED_EDGE('',*,*,#1187,.T.);
#1299 = CYLINDRICAL_SURFACE('',#1300,1.7);
#1300 = AXIS2_PLACEMENT_3D('',#1301,#1302,#1303);
#1301 = CARTESIAN_POINT('',(7.,0.,-1.));
#1302 = DIRECTION('',(0.,0.,1.));
#1303 = DIRECTION('',(1.,0.,0.));
#1304 = ADVANCED_FACE('',(#1305),#1311,.F.);
#1305 = FACE_BOUND('',#1306,.F.);
#1306 = EDGE_LOOP('',(#1307,#1308,#1309,#1310));
#1307 = ORIENTED_EDGE('',*,*,#624,.T.);
#1308 = ORIENTED_EDGE('',*,*,#589,.T.);
#1309 = ORIENTED_EDGE('',*,*,#1038,.T.);
#1310 = ORIENTED_EDGE('',*,*,#1233,.F.);
#1311 = CYLINDRICAL_SURFACE('',#1312,1.7);
#1312 = AXIS2_PLACEMENT_3D('',#1313,#1314,#1315);
#1313 = CARTESIAN_POINT('',(7.,0.,-1.));
#1314 = DIRECTION('',(0.,0.,1.));
#1315 = DIRECTION('',(1.,0.,0.));
#1316 = ( GEOMETRIC_REPRESENTATION_CONTEXT(3) 
GLOBAL_UNCERTAINTY_ASSIGNED_CONTEXT((#1320)) 
GLOBAL_UNIT_ASSIGNED_CONTEXT((#1317,#1318,#1319)) REPRESENTATION_CONTEXT
('Context #1','3D Context with UNIT and UNCERTAINTY') );
#1317 = ( LENGTH_UNIT() NAMED_UNIT(*) SI_UNIT(.MILLI.,.METRE.) );
#1318 = ( NAMED_UNIT(*) PLANE_ANGLE_UNIT() SI_UNIT($,.RADIAN.) );
#1319 = ( NAMED_UNIT(*) SI_UNIT($,.STERADIAN.) SOLID_ANGLE_UNIT() );
#1320 = UNCERTAINTY_MEASURE_WITH_UNIT(LENGTH_MEASURE(1.E-07),#1317,
  'distance_accuracy_value','confusion accuracy');
#1321 = PRODUCT_RELATED_PRODUCT_CATEGORY('part',$,(#7));
ENDSEC;
END-ISO-10303-21;
