ISO-10303-21;
HEADER;
FILE_DESCRIPTION(('FreeCAD Model'),'2;1');
FILE_NAME('Open CASCADE Shape Model','2026-07-30T13:38:45',('FreeCAD'),(
    'FreeCAD'),'Open CASCADE STEP processor 7.8','FreeCAD','Unknown');
FILE_SCHEMA(('AUTOMOTIVE_DESIGN { 1 0 10303 214 1 1 1 1 }'));
ENDSEC;
DATA;
#1 = APPLICATION_PROTOCOL_DEFINITION('international standard',
  'automotive_design',2000,#2);
#2 = APPLICATION_CONTEXT(
  'core data for automotive mechanical design processes');
#3 = SHAPE_DEFINITION_REPRESENTATION(#4,#10);
#4 = PRODUCT_DEFINITION_SHAPE('','',#5);
#5 = PRODUCT_DEFINITION('design','',#6,#9);
#6 = PRODUCT_DEFINITION_FORMATION('','',#7);
#7 = PRODUCT('Open CASCADE STEP translator 7.8 64',
  'Open CASCADE STEP translator 7.8 64','',(#8));
#8 = PRODUCT_CONTEXT('',#2,'mechanical');
#9 = PRODUCT_DEFINITION_CONTEXT('part definition',#2,'design');
#10 = ADVANCED_BREP_SHAPE_REPRESENTATION('',(#11,#15),#811);
#11 = AXIS2_PLACEMENT_3D('',#12,#13,#14);
#12 = CARTESIAN_POINT('',(0.,0.,0.));
#13 = DIRECTION('',(0.,0.,1.));
#14 = DIRECTION('',(1.,0.,-0.));
#15 = MANIFOLD_SOLID_BREP('',#16);
#16 = CLOSED_SHELL('',(#17,#480,#512,#547,#582,#600,#633,#667,#683,#700,
    #711,#753,#772,#788,#799));
#17 = ADVANCED_FACE('',(#18,#54,#231),#475,.T.);
#18 = FACE_BOUND('',#19,.T.);
#19 = EDGE_LOOP('',(#20,#31,#39,#48));
#20 = ORIENTED_EDGE('',*,*,#21,.F.);
#21 = EDGE_CURVE('',#22,#24,#26,.T.);
#22 = VERTEX_POINT('',#23);
#23 = CARTESIAN_POINT('',(7.977468270072,0.6,8.));
#24 = VERTEX_POINT('',#25);
#25 = CARTESIAN_POINT('',(7.977468270072,-0.6,8.));
#26 = CIRCLE('',#27,8.);
#27 = AXIS2_PLACEMENT_3D('',#28,#29,#30);
#28 = CARTESIAN_POINT('',(0.,0.,8.));
#29 = DIRECTION('',(0.,0.,1.));
#30 = DIRECTION('',(1.,0.,0.));
#31 = ORIENTED_EDGE('',*,*,#32,.F.);
#32 = EDGE_CURVE('',#33,#22,#35,.T.);
#33 = VERTEX_POINT('',#34);
#34 = CARTESIAN_POINT('',(7.977468270072,0.6,0.));
#35 = LINE('',#36,#37);
#36 = CARTESIAN_POINT('',(7.977468270072,0.6,0.));
#37 = VECTOR('',#38,1.);
#38 = DIRECTION('',(0.,0.,1.));
#39 = ORIENTED_EDGE('',*,*,#40,.T.);
#40 = EDGE_CURVE('',#33,#41,#43,.T.);
#41 = VERTEX_POINT('',#42);
#42 = CARTESIAN_POINT('',(7.977468270072,-0.6,0.));
#43 = CIRCLE('',#44,8.);
#44 = AXIS2_PLACEMENT_3D('',#45,#46,#47);
#45 = CARTESIAN_POINT('',(0.,0.,0.));
#46 = DIRECTION('',(0.,0.,1.));
#47 = DIRECTION('',(1.,0.,0.));
#48 = ORIENTED_EDGE('',*,*,#49,.T.);
#49 = EDGE_CURVE('',#41,#24,#50,.T.);
#50 = LINE('',#51,#52);
#51 = CARTESIAN_POINT('',(7.977468270072,-0.6,0.));
#52 = VECTOR('',#53,1.);
#53 = DIRECTION('',(0.,0.,1.));
#54 = FACE_BOUND('',#55,.T.);
#55 = EDGE_LOOP('',(#56,#191,#199,#208,#216,#225));
#56 = ORIENTED_EDGE('',*,*,#57,.F.);
#57 = EDGE_CURVE('',#58,#60,#62,.T.);
#58 = VERTEX_POINT('',#59);
#59 = CARTESIAN_POINT('',(6.163602842317,5.1,5.510672450404));
#60 = VERTEX_POINT('',#61);
#61 = CARTESIAN_POINT('',(6.163602841731,5.1,2.489327545509));
#62 = B_SPLINE_CURVE_WITH_KNOTS('',7,(#63,#64,#65,#66,#67,#68,#69,#70,
    #71,#72,#73,#74,#75,#76,#77,#78,#79,#80,#81,#82,#83,#84,#85,#86,#87,
    #88,#89,#90,#91,#92,#93,#94,#95,#96,#97,#98,#99,#100,#101,#102,#103,
    #104,#105,#106,#107,#108,#109,#110,#111,#112,#113,#114,#115,#116,
    #117,#118,#119,#120,#121,#122,#123,#124,#125,#126,#127,#128,#129,
    #130,#131,#132,#133,#134,#135,#136,#137,#138,#139,#140,#141,#142,
    #143,#144,#145,#146,#147,#148,#149,#150,#151,#152,#153,#154,#155,
    #156,#157,#158,#159,#160,#161,#162,#163,#164,#165,#166,#167,#168,
    #169,#170,#171,#172,#173,#174,#175,#176,#177,#178,#179,#180,#181,
    #182,#183,#184,#185,#186,#187,#188,#189,#190),.UNSPECIFIED.,.T.,.F.,
  (8,6,6,6,6,6,6,6,6,6,6,6,6,6,6,6,6,6,6,6,6,8),(0.,0.111759381323,
    0.180382756227,0.200936560776,0.226222059338,0.244669739595,
    0.273220185092,0.300919337471,0.345268844808,0.434483432611,
    0.516065518067,0.58523799443,0.6443913033,0.682157186515,
    0.725280409496,0.773147328147,0.820616368586,0.842786377308,
    0.863394703278,0.901467195115,0.94352766544,1.),.UNSPECIFIED.);
#63 = CARTESIAN_POINT('',(5.5,5.809475019311,5.65));
#64 = CARTESIAN_POINT('',(5.659750521553,5.658234525872,5.65));
#65 = CARTESIAN_POINT('',(5.813133137281,5.503304189285,5.631955693084)
  );
#66 = CARTESIAN_POINT('',(5.959007953175,5.346095129652,5.598454224424)
  );
#67 = CARTESIAN_POINT('',(6.096862074506,5.187842959691,5.551468428873)
  );
#68 = CARTESIAN_POINT('',(6.226485168405,5.029646889579,5.492438638318)
  );
#69 = CARTESIAN_POINT('',(6.34774828331,4.872637224711,5.422331496421));
#70 = CARTESIAN_POINT('',(6.529621326202,4.623614129147,5.292137928878)
  );
#71 = CARTESIAN_POINT('',(6.595498248065,4.530011404781,5.238684036593)
  );
#72 = CARTESIAN_POINT('',(6.658228113266,4.437615497457,5.181295686355)
  );
#73 = CARTESIAN_POINT('',(6.717859830386,4.346633208009,5.119861800815)
  );
#74 = CARTESIAN_POINT('',(6.774309233966,4.257490640941,5.054217351878)
  );
#75 = CARTESIAN_POINT('',(6.827350532472,4.170920630298,4.984188007738)
  );
#76 = CARTESIAN_POINT('',(6.891370289526,4.063231388197,4.887302143058)
  );
#77 = CARTESIAN_POINT('',(6.90579783027,4.038724620093,4.864548967004));
#78 = CARTESIAN_POINT('',(6.919890280441,4.01455637958,4.841362999976));
#79 = CARTESIAN_POINT('',(6.933638764446,3.990755572624,4.817733503571)
  );
#80 = CARTESIAN_POINT('',(6.94703271061,3.967355231741,4.793649139682));
#81 = CARTESIAN_POINT('',(6.960059851177,3.944392515994,4.769097970493)
  );
#82 = CARTESIAN_POINT('',(6.988263916177,3.894248906335,4.713274669061)
  );
#83 = CARTESIAN_POINT('',(7.003246590428,3.867311885858,4.681753785993)
  );
#84 = CARTESIAN_POINT('',(7.017626460421,3.841177837947,4.649483619174)
  );
#85 = CARTESIAN_POINT('',(7.031370402354,3.81594023087,4.616444461611));
#86 = CARTESIAN_POINT('',(7.044439975869,3.791705833597,4.582618177366)
  );
#87 = CARTESIAN_POINT('',(7.056791446667,3.768594736626,4.547988289512)
  );
#88 = CARTESIAN_POINT('',(7.076827476142,3.73079596437,4.486677914193));
#89 = CARTESIAN_POINT('',(7.084873080349,3.71551591585,4.460372836292));
#90 = CARTESIAN_POINT('',(7.092488323251,3.70096247519,4.433634427972));
#91 = CARTESIAN_POINT('',(7.099649242988,3.687197643143,4.406471812254)
  );
#92 = CARTESIAN_POINT('',(7.106332214328,3.674283173259,4.378893641572)
  );
#93 = CARTESIAN_POINT('',(7.112513948664,3.662280571881,4.350908097776)
  );
#94 = CARTESIAN_POINT('',(7.126927361316,3.634181397018,4.278592693025)
  );
#95 = CARTESIAN_POINT('',(7.134445346721,3.61940687954,4.233613861198));
#96 = CARTESIAN_POINT('',(7.140592443601,3.607246209964,4.187799203245)
  );
#97 = CARTESIAN_POINT('',(7.145272081583,3.597944050808,4.14134652149));
#98 = CARTESIAN_POINT('',(7.148419979777,3.591670974194,4.094442742909)
  );
#99 = CARTESIAN_POINT('',(7.15,3.5885233732,4.047268048059));
#100 = CARTESIAN_POINT('',(7.15,3.5885233732,3.954141350755));
#101 = CARTESIAN_POINT('',(7.148512985797,3.591485742107,3.908367016707)
  );
#102 = CARTESIAN_POINT('',(7.145548932659,3.597392366189,3.862837301077)
  );
#103 = CARTESIAN_POINT('',(7.141140220732,3.606157208884,3.817720562068)
  );
#104 = CARTESIAN_POINT('',(7.135344802863,3.617627071412,3.773193029566)
  );
#105 = CARTESIAN_POINT('',(7.128249372434,3.631582353379,3.729438621838)
  );
#106 = CARTESIAN_POINT('',(7.106720362787,3.673604550465,3.618137308652)
  );
#107 = CARTESIAN_POINT('',(7.090441396497,3.705109180043,3.552107510611)
  );
#108 = CARTESIAN_POINT('',(7.071467914581,3.74138852233,3.488536965993)
  );
#109 = CARTESIAN_POINT('',(7.050086562401,3.781650784826,3.427407514981)
  );
#110 = CARTESIAN_POINT('',(7.026555651811,3.825185632376,3.368699410857)
  );
#111 = CARTESIAN_POINT('',(7.001111183451,3.871370904166,3.312385079437)
  );
#112 = CARTESIAN_POINT('',(6.919346776718,4.016847682111,3.149869914878)
  );
#113 = CARTESIAN_POINT('',(6.85723953218,4.12365222001,3.049656385461));
#114 = CARTESIAN_POINT('',(6.788901655383,4.236399972284,2.957479739829)
  );
#115 = CARTESIAN_POINT('',(6.715148659995,4.352734631468,2.872880968352)
  );
#116 = CARTESIAN_POINT('',(6.636338214601,4.471535828298,2.79529748573)
  );
#117 = CARTESIAN_POINT('',(6.552241580796,4.592543290518,2.724237803289)
  );
#118 = CARTESIAN_POINT('',(6.379889433905,4.828717672229,2.60051274429)
  );
#119 = CARTESIAN_POINT('',(6.293038219142,4.942905162851,2.547104186752)
  );
#120 = CARTESIAN_POINT('',(6.201735898025,5.057896206045,2.499554749117)
  );
#121 = CARTESIAN_POINT('',(6.106022218664,5.173243234895,2.45816630487)
  );
#122 = CARTESIAN_POINT('',(6.005927466912,5.288548645272,2.423382285925)
  );
#123 = CARTESIAN_POINT('',(5.901522952311,5.403405335341,2.39580522764)
  );
#124 = CARTESIAN_POINT('',(5.700977568001,5.613969788935,2.359618603205)
  );
#125 = CARTESIAN_POINT('',(5.605860020172,5.710075016918,2.348737386336)
  );
#126 = CARTESIAN_POINT('',(5.508000538449,5.805115316368,2.344134782789)
  );
#127 = CARTESIAN_POINT('',(5.407821438518,5.898566175433,2.34636243523)
  );
#128 = CARTESIAN_POINT('',(5.305821634383,5.989932630075,2.355969421522)
  );
#129 = CARTESIAN_POINT('',(5.202591304451,6.078747874896,2.373503480925)
  );
#130 = CARTESIAN_POINT('',(5.010097651425,6.23796291542,2.421752943361)
  );
#131 = CARTESIAN_POINT('',(4.920998009101,6.309149431863,2.450186058843)
  );
#132 = CARTESIAN_POINT('',(4.832333569312,6.377554465369,2.485056914791)
  );
#133 = CARTESIAN_POINT('',(4.744921791768,6.44271406546,2.526471397276)
  );
#134 = CARTESIAN_POINT('',(4.659580593829,6.504268263009,2.574393754168)
  );
#135 = CARTESIAN_POINT('',(4.577107310047,6.561949550695,2.628643932099)
  );
#136 = CARTESIAN_POINT('',(4.447905959029,6.649799924933,2.727360068795)
  );
#137 = CARTESIAN_POINT('',(4.39908078031,6.682344926367,2.768236971136)
  );
#138 = CARTESIAN_POINT('',(4.351966598065,6.713158152877,2.811430419463)
  );
#139 = CARTESIAN_POINT('',(4.306744211505,6.742208799787,2.856822727338)
  );
#140 = CARTESIAN_POINT('',(4.263581020108,6.769478324606,2.904272923432)
  );
#141 = CARTESIAN_POINT('',(4.222627933742,6.794958832356,2.953616883869)
  );
#142 = CARTESIAN_POINT('',(4.139927314365,6.84570504516,3.06295990706));
#143 = CARTESIAN_POINT('',(4.098896347866,6.870424322435,3.123470715471)
  );
#144 = CARTESIAN_POINT('',(4.061062893385,6.892845855324,3.185991666273)
  );
#145 = CARTESIAN_POINT('',(4.026548301093,6.913008498727,3.250301351906)
  );
#146 = CARTESIAN_POINT('',(3.995453645846,6.930952144269,3.316165615743)
  );
#147 = CARTESIAN_POINT('',(3.96785761178,6.946716464718,3.38333798704));
#148 = CARTESIAN_POINT('',(3.917126307504,6.975461448007,3.527286902215)
  );
#149 = CARTESIAN_POINT('',(3.894806392295,6.987950455864,3.604333067571)
  );
#150 = CARTESIAN_POINT('',(3.876903985483,6.997873152759,3.682431005532)
  );
#151 = CARTESIAN_POINT('',(3.863455456994,7.00527999364,3.761313494828)
  );
#152 = CARTESIAN_POINT('',(3.854484093593,7.010205294675,3.84071361195)
  );
#153 = CARTESIAN_POINT('',(3.85,7.012667110308,3.920364643743));
#154 = CARTESIAN_POINT('',(3.85,7.012667110308,4.078973413226));
#155 = CARTESIAN_POINT('',(3.854409857904,7.010246051785,4.157961885297)
  );
#156 = CARTESIAN_POINT('',(3.863232601094,7.005402341862,4.236705610603)
  );
#157 = CARTESIAN_POINT('',(3.876458472676,6.998118513211,4.314944654448)
  );
#158 = CARTESIAN_POINT('',(3.894065022364,6.988361339477,4.392418864783)
  );
#159 = CARTESIAN_POINT('',(3.916017197369,6.976081950695,4.46886778393)
  );
#160 = CARTESIAN_POINT('',(3.954527381097,6.95427290982,4.579134691196)
  );
#161 = CARTESIAN_POINT('',(3.967723910656,6.946766223426,4.613955510073)
  );
#162 = CARTESIAN_POINT('',(3.981850062727,6.938690480637,4.648461381962)
  );
#163 = CARTESIAN_POINT('',(3.996897625408,6.930040021065,4.682621162645)
  );
#164 = CARTESIAN_POINT('',(4.012857134125,6.920808932825,4.716404198668)
  );
#165 = CARTESIAN_POINT('',(4.029717871627,6.910991052533,4.749780327345)
  );
#166 = CARTESIAN_POINT('',(4.063967532716,6.890902247905,4.81333912369)
  );
#167 = CARTESIAN_POINT('',(4.081234445629,6.880712704625,4.843579241259)
  );
#168 = CARTESIAN_POINT('',(4.099257993223,6.870006705369,4.873414284581)
  );
#169 = CARTESIAN_POINT('',(4.118025626221,6.858780273506,4.902818230338)
  );
#170 = CARTESIAN_POINT('',(4.137522859579,6.847030085866,4.931764976772)
  );
#171 = CARTESIAN_POINT('',(4.157733272479,6.834753472748,4.960228343692)
  );
#172 = CARTESIAN_POINT('',(4.217259521161,6.798291943026,5.039824700418)
  );
#173 = CARTESIAN_POINT('',(4.258268639986,6.772821879918,5.089750872631)
  );
#174 = CARTESIAN_POINT('',(4.301533667717,6.745536064736,5.137768922189)
  );
#175 = CARTESIAN_POINT('',(4.346902266427,6.716441401636,5.183710554394)
  );
#176 = CARTESIAN_POINT('',(4.394205134527,6.685555515708,5.227430991902)
  );
#177 = CARTESIAN_POINT('',(4.443259183936,6.652908405903,5.268809119852)
  );
#178 = CARTESIAN_POINT('',(4.549783655765,6.580580232586,5.350764833551)
  );
#179 = CARTESIAN_POINT('',(4.607565364759,6.540542453102,5.390779903933)
  );
#180 = CARTESIAN_POINT('',(4.666939504884,6.49850184213,5.42765962498));
#181 = CARTESIAN_POINT('',(4.727614736249,6.454552034769,5.461311849384)
  );
#182 = CARTESIAN_POINT('',(4.789289627774,6.4088115686,5.491685150139));
#183 = CARTESIAN_POINT('',(4.85165756656,6.361426233681,5.518768470968)
  );
#184 = CARTESIAN_POINT('',(4.998668227892,6.246976691506,5.574575707316)
  );
#185 = CARTESIAN_POINT('',(5.083526196429,6.178806732904,5.600646169256)
  );
#186 = CARTESIAN_POINT('',(5.168471360503,6.108314900859,5.620983712718)
  );
#187 = CARTESIAN_POINT('',(5.253022040331,6.035790660349,5.635809061377)
  );
#188 = CARTESIAN_POINT('',(5.336730118934,5.961560311908,5.645381789666)
  );
#189 = CARTESIAN_POINT('',(5.419182072375,5.885987716321,5.65));
#190 = CARTESIAN_POINT('',(5.5,5.809475019311,5.65));
#191 = ORIENTED_EDGE('',*,*,#192,.T.);
#192 = EDGE_CURVE('',#58,#193,#195,.T.);
#193 = VERTEX_POINT('',#194);
#194 = CARTESIAN_POINT('',(6.163602842494,5.1,6.9));
#195 = LINE('',#196,#197);
#196 = CARTESIAN_POINT('',(6.163602842494,5.1,0.));
#197 = VECTOR('',#198,1.);
#198 = DIRECTION('',(0.,0.,1.));
#199 = ORIENTED_EDGE('',*,*,#200,.T.);
#200 = EDGE_CURVE('',#193,#201,#203,.T.);
#201 = VERTEX_POINT('',#202);
#202 = CARTESIAN_POINT('',(2.4,7.631513611336,6.9));
#203 = CIRCLE('',#204,8.);
#204 = AXIS2_PLACEMENT_3D('',#205,#206,#207);
#205 = CARTESIAN_POINT('',(0.,0.,6.9));
#206 = DIRECTION('',(0.,0.,1.));
#207 = DIRECTION('',(1.,0.,0.));
#208 = ORIENTED_EDGE('',*,*,#209,.F.);
#209 = EDGE_CURVE('',#210,#201,#212,.T.);
#210 = VERTEX_POINT('',#211);
#211 = CARTESIAN_POINT('',(2.4,7.631513611336,1.1));
#212 = LINE('',#213,#214);
#213 = CARTESIAN_POINT('',(2.4,7.631513611336,0.));
#214 = VECTOR('',#215,1.);
#215 = DIRECTION('',(0.,0.,1.));
#216 = ORIENTED_EDGE('',*,*,#217,.F.);
#217 = EDGE_CURVE('',#218,#210,#220,.T.);
#218 = VERTEX_POINT('',#219);
#219 = CARTESIAN_POINT('',(6.163602842494,5.1,1.1));
#220 = CIRCLE('',#221,8.);
#221 = AXIS2_PLACEMENT_3D('',#222,#223,#224);
#222 = CARTESIAN_POINT('',(0.,0.,1.1));
#223 = DIRECTION('',(0.,0.,1.));
#224 = DIRECTION('',(1.,0.,0.));
#225 = ORIENTED_EDGE('',*,*,#226,.T.);
#226 = EDGE_CURVE('',#218,#60,#227,.T.);
#227 = LINE('',#228,#229);
#228 = CARTESIAN_POINT('',(6.163602842494,5.1,0.));
#229 = VECTOR('',#230,1.);
#230 = DIRECTION('',(0.,0.,1.));
#231 = FACE_BOUND('',#232,.T.);
#232 = EDGE_LOOP('',(#233,#243,#376,#384,#466));
#233 = ORIENTED_EDGE('',*,*,#234,.F.);
#234 = EDGE_CURVE('',#235,#237,#239,.T.);
#235 = VERTEX_POINT('',#236);
#236 = CARTESIAN_POINT('',(6.163602842317,-5.1,5.510672450404));
#237 = VERTEX_POINT('',#238);
#238 = CARTESIAN_POINT('',(6.163602842494,-5.1,7.130436274297));
#239 = LINE('',#240,#241);
#240 = CARTESIAN_POINT('',(6.163602842494,-5.1,0.));
#241 = VECTOR('',#242,1.);
#242 = DIRECTION('',(0.,0.,1.));
#243 = ORIENTED_EDGE('',*,*,#244,.T.);
#244 = EDGE_CURVE('',#235,#245,#247,.T.);
#245 = VERTEX_POINT('',#246);
#246 = CARTESIAN_POINT('',(6.16360284173,-5.1,2.489327545509));
#247 = B_SPLINE_CURVE_WITH_KNOTS('',7,(#248,#249,#250,#251,#252,#253,
    #254,#255,#256,#257,#258,#259,#260,#261,#262,#263,#264,#265,#266,
    #267,#268,#269,#270,#271,#272,#273,#274,#275,#276,#277,#278,#279,
    #280,#281,#282,#283,#284,#285,#286,#287,#288,#289,#290,#291,#292,
    #293,#294,#295,#296,#297,#298,#299,#300,#301,#302,#303,#304,#305,
    #306,#307,#308,#309,#310,#311,#312,#313,#314,#315,#316,#317,#318,
    #319,#320,#321,#322,#323,#324,#325,#326,#327,#328,#329,#330,#331,
    #332,#333,#334,#335,#336,#337,#338,#339,#340,#341,#342,#343,#344,
    #345,#346,#347,#348,#349,#350,#351,#352,#353,#354,#355,#356,#357,
    #358,#359,#360,#361,#362,#363,#364,#365,#366,#367,#368,#369,#370,
    #371,#372,#373,#374,#375),.UNSPECIFIED.,.T.,.F.,(8,6,6,6,6,6,6,6,6,6
    ,6,6,6,6,6,6,6,6,6,6,6,8),(0.,0.111759424398,0.180382825751,
    0.200936638222,0.22622214653,0.244669829316,0.273220271559,
    0.300919420774,0.345268923057,0.434483500726,0.516065576915,
    0.58523804542,0.64439134757,0.682157226496,0.725280444585,
    0.773147357826,0.820616392908,0.842786398863,0.863394722008,
    0.901467208626,0.943527673186,1.),.UNSPECIFIED.);
#248 = CARTESIAN_POINT('',(5.5,-5.809475019311,5.65));
#249 = CARTESIAN_POINT('',(5.659750521553,-5.658234525872,5.65));
#250 = CARTESIAN_POINT('',(5.813133137281,-5.503304189285,5.631955693084
    ));
#251 = CARTESIAN_POINT('',(5.959007953176,-5.346095129651,5.598454224424
    ));
#252 = CARTESIAN_POINT('',(6.096862074506,-5.187842959691,5.551468428873
    ));
#253 = CARTESIAN_POINT('',(6.226485168405,-5.029646889579,5.492438638318
    ));
#254 = CARTESIAN_POINT('',(6.34774828331,-4.872637224711,5.422331496421)
  );
#255 = CARTESIAN_POINT('',(6.529621326202,-4.623614129147,5.292137928878
    ));
#256 = CARTESIAN_POINT('',(6.595498248065,-4.530011404781,5.238684036593
    ));
#257 = CARTESIAN_POINT('',(6.658228113266,-4.437615497457,5.181295686356
    ));
#258 = CARTESIAN_POINT('',(6.717859830386,-4.346633208008,5.119861800815
    ));
#259 = CARTESIAN_POINT('',(6.774309233966,-4.257490640941,5.054217351878
    ));
#260 = CARTESIAN_POINT('',(6.827350532472,-4.170920630298,4.984188007738
    ));
#261 = CARTESIAN_POINT('',(6.891370289526,-4.063231388197,4.887302143058
    ));
#262 = CARTESIAN_POINT('',(6.90579783027,-4.038724620093,4.864548967004)
  );
#263 = CARTESIAN_POINT('',(6.919890280441,-4.01455637958,4.841362999976)
  );
#264 = CARTESIAN_POINT('',(6.933638764446,-3.990755572624,4.817733503571
    ));
#265 = CARTESIAN_POINT('',(6.94703271061,-3.967355231741,4.793649139682)
  );
#266 = CARTESIAN_POINT('',(6.960059851177,-3.944392515994,4.769097970493
    ));
#267 = CARTESIAN_POINT('',(6.988263916177,-3.894248906335,4.713274669061
    ));
#268 = CARTESIAN_POINT('',(7.003246590428,-3.867311885858,4.681753785993
    ));
#269 = CARTESIAN_POINT('',(7.017626460421,-3.841177837947,4.649483619174
    ));
#270 = CARTESIAN_POINT('',(7.031370402354,-3.81594023087,4.616444461611)
  );
#271 = CARTESIAN_POINT('',(7.044439975869,-3.791705833597,4.582618177366
    ));
#272 = CARTESIAN_POINT('',(7.056791446667,-3.768594736626,4.547988289512
    ));
#273 = CARTESIAN_POINT('',(7.076827474043,-3.73079596833,4.486677920616)
  );
#274 = CARTESIAN_POINT('',(7.084873079816,-3.715515916816,4.460372836686
    ));
#275 = CARTESIAN_POINT('',(7.092488324526,-3.700962472729,4.433634422398
    ));
#276 = CARTESIAN_POINT('',(7.099649244535,-3.687197640204,4.406471806958
    ));
#277 = CARTESIAN_POINT('',(7.106332214474,-3.67428317303,4.378893642661)
  );
#278 = CARTESIAN_POINT('',(7.112513947245,-3.662280574647,4.350908104893
    ));
#279 = CARTESIAN_POINT('',(7.126927361314,-3.634181397023,4.278592693037
    ));
#280 = CARTESIAN_POINT('',(7.134445346722,-3.619406879538,4.233613861199
    ));
#281 = CARTESIAN_POINT('',(7.140592443603,-3.607246209961,4.187799203235
    ));
#282 = CARTESIAN_POINT('',(7.145272081584,-3.597944050807,4.14134652148)
  );
#283 = CARTESIAN_POINT('',(7.148419979776,-3.591670974195,4.094442742911
    ));
#284 = CARTESIAN_POINT('',(7.15,-3.5885233732,4.047268048071));
#285 = CARTESIAN_POINT('',(7.15,-3.5885233732,3.954141350755));
#286 = CARTESIAN_POINT('',(7.148512985797,-3.591485742107,3.908367016707
    ));
#287 = CARTESIAN_POINT('',(7.145548932659,-3.597392366189,3.862837301077
    ));
#288 = CARTESIAN_POINT('',(7.141140220732,-3.606157208884,3.817720562068
    ));
#289 = CARTESIAN_POINT('',(7.135344802863,-3.617627071413,3.773193029566
    ));
#290 = CARTESIAN_POINT('',(7.128249372434,-3.631582353379,3.729438621838
    ));
#291 = CARTESIAN_POINT('',(7.106720362784,-3.673604550472,3.618137308633
    ));
#292 = CARTESIAN_POINT('',(7.090441396494,-3.705109180048,3.552107510607
    ));
#293 = CARTESIAN_POINT('',(7.071467914584,-3.741388522323,3.488536966007
    ));
#294 = CARTESIAN_POINT('',(7.050086562409,-3.781650784813,3.427407514997
    ));
#295 = CARTESIAN_POINT('',(7.026555651813,-3.825185632374,3.368699410856
    ));
#296 = CARTESIAN_POINT('',(7.001111183441,-3.871370904183,3.312385079417
    ));
#297 = CARTESIAN_POINT('',(6.919346776718,-4.016847682111,3.149869914878
    ));
#298 = CARTESIAN_POINT('',(6.85723953218,-4.12365222001,3.049656385461)
  );
#299 = CARTESIAN_POINT('',(6.788901655382,-4.236399972284,2.957479739829
    ));
#300 = CARTESIAN_POINT('',(6.715148659996,-4.352734631468,2.872880968353
    ));
#301 = CARTESIAN_POINT('',(6.636338214601,-4.471535828297,2.79529748573)
  );
#302 = CARTESIAN_POINT('',(6.552241580796,-4.592543290518,2.724237803289
    ));
#303 = CARTESIAN_POINT('',(6.379889433905,-4.828717672229,2.60051274429)
  );
#304 = CARTESIAN_POINT('',(6.293038219142,-4.942905162851,2.547104186752
    ));
#305 = CARTESIAN_POINT('',(6.201735898025,-5.057896206045,2.499554749117
    ));
#306 = CARTESIAN_POINT('',(6.106022218664,-5.173243234895,2.45816630487)
  );
#307 = CARTESIAN_POINT('',(6.005927466912,-5.288548645272,2.423382285925
    ));
#308 = CARTESIAN_POINT('',(5.901522952311,-5.403405335341,2.39580522764)
  );
#309 = CARTESIAN_POINT('',(5.700977568001,-5.613969788934,2.359618603205
    ));
#310 = CARTESIAN_POINT('',(5.605860020172,-5.710075016918,2.348737386335
    ));
#311 = CARTESIAN_POINT('',(5.508000538449,-5.805115316368,2.344134782789
    ));
#312 = CARTESIAN_POINT('',(5.407821438518,-5.898566175433,2.34636243523)
  );
#313 = CARTESIAN_POINT('',(5.305821634383,-5.989932630075,2.355969421522
    ));
#314 = CARTESIAN_POINT('',(5.202591304451,-6.078747874896,2.373503480925
    ));
#315 = CARTESIAN_POINT('',(5.010097651425,-6.23796291542,2.421752943361)
  );
#316 = CARTESIAN_POINT('',(4.920998009101,-6.309149431863,2.450186058843
    ));
#317 = CARTESIAN_POINT('',(4.832333569311,-6.377554465369,2.485056914791
    ));
#318 = CARTESIAN_POINT('',(4.744921791768,-6.44271406546,2.526471397276)
  );
#319 = CARTESIAN_POINT('',(4.659580593829,-6.504268263009,2.574393754168
    ));
#320 = CARTESIAN_POINT('',(4.577107310047,-6.561949550695,2.628643932099
    ));
#321 = CARTESIAN_POINT('',(4.447905959029,-6.649799924933,2.727360068795
    ));
#322 = CARTESIAN_POINT('',(4.39908078031,-6.682344926367,2.768236971136)
  );
#323 = CARTESIAN_POINT('',(4.351966598065,-6.713158152877,2.811430419463
    ));
#324 = CARTESIAN_POINT('',(4.306744211505,-6.742208799787,2.856822727338
    ));
#325 = CARTESIAN_POINT('',(4.263581020108,-6.769478324606,2.904272923432
    ));
#326 = CARTESIAN_POINT('',(4.222627933742,-6.794958832356,2.953616883869
    ));
#327 = CARTESIAN_POINT('',(4.139927314357,-6.845705045165,3.062959907069
    ));
#328 = CARTESIAN_POINT('',(4.098896347866,-6.870424322434,3.123470715472
    ));
#329 = CARTESIAN_POINT('',(4.061062893391,-6.89284585532,3.185991666265)
  );
#330 = CARTESIAN_POINT('',(4.026548301097,-6.913008498725,3.250301351898
    ));
#331 = CARTESIAN_POINT('',(3.995453645845,-6.93095214427,3.316165615743)
  );
#332 = CARTESIAN_POINT('',(3.967857611776,-6.94671646472,3.383337987051)
  );
#333 = CARTESIAN_POINT('',(3.917126307498,-6.97546144801,3.527286902232)
  );
#334 = CARTESIAN_POINT('',(3.894806392297,-6.987950455863,3.604333067573
    ));
#335 = CARTESIAN_POINT('',(3.876903985487,-6.997873152757,3.682431005518
    ));
#336 = CARTESIAN_POINT('',(3.863455456995,-7.005279993639,3.761313494814
    ));
#337 = CARTESIAN_POINT('',(3.854484093591,-7.010205294676,3.840713611952
    ));
#338 = CARTESIAN_POINT('',(3.85,-7.012667110308,3.92036464376));
#339 = CARTESIAN_POINT('',(3.85,-7.012667110308,4.078973413226));
#340 = CARTESIAN_POINT('',(3.854409857904,-7.010246051785,4.157961885297
    ));
#341 = CARTESIAN_POINT('',(3.863232601094,-7.005402341862,4.236705610602
    ));
#342 = CARTESIAN_POINT('',(3.876458472676,-6.998118513211,4.314944654448
    ));
#343 = CARTESIAN_POINT('',(3.894065022364,-6.988361339477,4.392418864783
    ));
#344 = CARTESIAN_POINT('',(3.916017197369,-6.976081950695,4.46886778393)
  );
#345 = CARTESIAN_POINT('',(3.95452738095,-6.954272909904,4.579134690776)
  );
#346 = CARTESIAN_POINT('',(3.967723910671,-6.946766223416,4.613955510019
    ));
#347 = CARTESIAN_POINT('',(3.981850062886,-6.938690480544,4.648461382289
    ));
#348 = CARTESIAN_POINT('',(3.99689762554,-6.93004002099,4.682621162979)
  );
#349 = CARTESIAN_POINT('',(4.01285713407,-6.920808932859,4.716404198631)
  );
#350 = CARTESIAN_POINT('',(4.02971787141,-6.910991052661,4.749780326942)
  );
#351 = CARTESIAN_POINT('',(4.063967532716,-6.890902247905,4.81333912369)
  );
#352 = CARTESIAN_POINT('',(4.081234445629,-6.880712704625,4.843579241259
    ));
#353 = CARTESIAN_POINT('',(4.099257993223,-6.870006705369,4.873414284581
    ));
#354 = CARTESIAN_POINT('',(4.118025626221,-6.858780273506,4.902818230338
    ));
#355 = CARTESIAN_POINT('',(4.137522859579,-6.847030085866,4.931764976772
    ));
#356 = CARTESIAN_POINT('',(4.157733272479,-6.834753472748,4.960228343692
    ));
#357 = CARTESIAN_POINT('',(4.217259521161,-6.798291943026,5.039824700418
    ));
#358 = CARTESIAN_POINT('',(4.258268639986,-6.772821879918,5.089750872631
    ));
#359 = CARTESIAN_POINT('',(4.301533667717,-6.745536064736,5.137768922189
    ));
#360 = CARTESIAN_POINT('',(4.346902266427,-6.716441401636,5.183710554394
    ));
#361 = CARTESIAN_POINT('',(4.394205134527,-6.685555515708,5.227430991902
    ));
#362 = CARTESIAN_POINT('',(4.443259183936,-6.652908405903,5.268809119852
    ));
#363 = CARTESIAN_POINT('',(4.549783655765,-6.580580232586,5.350764833551
    ));
#364 = CARTESIAN_POINT('',(4.607565364759,-6.540542453102,5.390779903933
    ));
#365 = CARTESIAN_POINT('',(4.666939504884,-6.49850184213,5.42765962498)
  );
#366 = CARTESIAN_POINT('',(4.727614736249,-6.454552034769,5.461311849384
    ));
#367 = CARTESIAN_POINT('',(4.789289627774,-6.4088115686,5.491685150139)
  );
#368 = CARTESIAN_POINT('',(4.85165756656,-6.361426233681,5.518768470968)
  );
#369 = CARTESIAN_POINT('',(4.998668227883,-6.246976691513,5.574575707313
    ));
#370 = CARTESIAN_POINT('',(5.083526196428,-6.178806732905,5.600646169257
    ));
#371 = CARTESIAN_POINT('',(5.16847136051,-6.108314900854,5.62098371272)
  );
#372 = CARTESIAN_POINT('',(5.253022040338,-6.035790660343,5.635809061378
    ));
#373 = CARTESIAN_POINT('',(5.336730118933,-5.961560311909,5.645381789665
    ));
#374 = CARTESIAN_POINT('',(5.419182072367,-5.885987716328,5.65));
#375 = CARTESIAN_POINT('',(5.5,-5.809475019311,5.65));
#376 = ORIENTED_EDGE('',*,*,#377,.F.);
#377 = EDGE_CURVE('',#378,#245,#380,.T.);
#378 = VERTEX_POINT('',#379);
#379 = CARTESIAN_POINT('',(6.163602842494,-5.1,0.869563725703));
#380 = LINE('',#381,#382);
#381 = CARTESIAN_POINT('',(6.163602842494,-5.1,0.));
#382 = VECTOR('',#383,1.);
#383 = DIRECTION('',(0.,0.,1.));
#384 = ORIENTED_EDGE('',*,*,#385,.T.);
#385 = EDGE_CURVE('',#378,#386,#388,.T.);
#386 = VERTEX_POINT('',#387);
#387 = CARTESIAN_POINT('',(5.5,-5.809475019311,7.2));
#388 = B_SPLINE_CURVE_WITH_KNOTS('',6,(#389,#390,#391,#392,#393,#394,
    #395,#396,#397,#398,#399,#400,#401,#402,#403,#404,#405,#406,#407,
    #408,#409,#410,#411,#412,#413,#414,#415,#416,#417,#418,#419,#420,
    #421,#422,#423,#424,#425,#426,#427,#428,#429,#430,#431,#432,#433,
    #434,#435,#436,#437,#438,#439,#440,#441,#442,#443,#444,#445,#446,
    #447,#448,#449,#450,#451,#452,#453,#454,#455,#456,#457,#458,#459,
    #460,#461,#462,#463,#464,#465),.UNSPECIFIED.,.F.,.F.,(7,5,5,5,5,5,5,
    5,5,5,5,5,5,5,5,7),(0.,0.10996117904,0.155664147713,0.237159430921,
    0.313701716798,0.357842506988,0.409395699339,0.447086677757,
    0.539872083175,0.669302856569,0.722108416117,0.765743258088,
    0.842120783123,0.908634126591,0.939564349649,1.),.UNSPECIFIED.);
#389 = CARTESIAN_POINT('',(6.163603338957,-5.0999994,0.869563830945));
#390 = CARTESIAN_POINT('',(6.024215793344,-5.268456192671,0.840015858815
    ));
#391 = CARTESIAN_POINT('',(5.87721680832,-5.434863251947,0.816636837813)
  );
#392 = CARTESIAN_POINT('',(5.72262123822,-5.59857068456,0.800692747575)
  );
#393 = CARTESIAN_POINT('',(5.560573123867,-5.75885823213,0.793606977954)
  );
#394 = CARTESIAN_POINT('',(5.391395176469,-5.914943041509,0.796982477805
    ));
#395 = CARTESIAN_POINT('',(5.142668699003,-6.128803632845,0.819168414507
    ));
#396 = CARTESIAN_POINT('',(5.06854899398,-6.190698472907,0.827803429152)
  );
#397 = CARTESIAN_POINT('',(4.993444736216,-6.251587528928,0.838682334349
    ));
#398 = CARTESIAN_POINT('',(4.917471996956,-6.311370550981,0.851922329476
    ));
#399 = CARTESIAN_POINT('',(4.840753820092,-6.369958228175,0.867635149942
    ));
#400 = CARTESIAN_POINT('',(4.625522758445,-6.529471620699,0.918544313276
    ));
#401 = CARTESIAN_POINT('',(4.485506703241,-6.627741173992,0.959400400525
    ));
#402 = CARTESIAN_POINT('',(4.344632278146,-6.721221693373,1.009007368827
    ));
#403 = CARTESIAN_POINT('',(4.204196500519,-6.809334718045,1.06763970738)
  );
#404 = CARTESIAN_POINT('',(4.06549318877,-6.891737330478,1.135309440319)
  );
#405 = CARTESIAN_POINT('',(3.802301345329,-7.040164867282,1.283527729486
    ));
#406 = CARTESIAN_POINT('',(3.677724546683,-7.10673219329,1.362895127567)
  );
#407 = CARTESIAN_POINT('',(3.557032502492,-7.167905067844,1.449568372993
    ));
#408 = CARTESIAN_POINT('',(3.441170754855,-7.223749126417,1.543056422058
    ));
#409 = CARTESIAN_POINT('',(3.330988070445,-7.2744338616,1.64264303675));
#410 = CARTESIAN_POINT('',(3.167321831605,-7.346587805166,1.807776455288
    ));
#411 = CARTESIAN_POINT('',(3.109544038215,-7.371358122158,1.869924519541
    ));
#412 = CARTESIAN_POINT('',(3.053928790071,-7.394576450389,1.933704716831
    ));
#413 = CARTESIAN_POINT('',(3.000545614267,-7.416311106087,1.998991707814
    ));
#414 = CARTESIAN_POINT('',(2.949454385528,-7.436629286587,2.065651826439
    ));
#415 = CARTESIAN_POINT('',(2.843767710376,-7.477748169736,2.212834926038
    ));
#416 = CARTESIAN_POINT('',(2.790021351909,-7.498058211517,2.293810551781
    ));
#417 = CARTESIAN_POINT('',(2.739500895077,-7.516646636867,2.376303990796
    ));
#418 = CARTESIAN_POINT('',(2.692232499388,-7.533623234984,2.460150090369
    ));
#419 = CARTESIAN_POINT('',(2.648232776599,-7.549087278103,2.545184447611
    ));
#420 = CARTESIAN_POINT('',(2.577735137448,-7.573392463132,2.694161850114
    ));
#421 = CARTESIAN_POINT('',(2.549708033672,-7.582897916725,2.75763765405)
  );
#422 = CARTESIAN_POINT('',(2.523426397482,-7.591679736547,2.821616277094
    ));
#423 = CARTESIAN_POINT('',(2.498887634954,-7.599770442191,2.886046829621
    ));
#424 = CARTESIAN_POINT('',(2.476087640136,-7.607199218573,2.950882076557
    ));
#425 = CARTESIAN_POINT('',(2.403159690759,-7.63071377365,3.176574954676)
  );
#426 = CARTESIAN_POINT('',(2.361812744751,-7.643577876235,3.339229809999
    ));
#427 = CARTESIAN_POINT('',(2.330882888223,-7.652974278496,3.503431036964
    ));
#428 = CARTESIAN_POINT('',(2.310293596181,-7.659155577423,3.668631890653
    ));
#429 = CARTESIAN_POINT('',(2.3,-7.662245101796,3.834322246636));
#430 = CARTESIAN_POINT('',(2.3,-7.662245101796,4.23111177513));
#431 = CARTESIAN_POINT('',(2.320029669466,-7.65623274611,4.462305039687)
  );
#432 = CARTESIAN_POINT('',(2.360116015215,-7.64419982811,4.692183158665)
  );
#433 = CARTESIAN_POINT('',(2.420417028517,-7.62567128171,4.919301331766)
  );
#434 = CARTESIAN_POINT('',(2.501185600573,-7.599709510493,5.142033924324
    ));
#435 = CARTESIAN_POINT('',(2.644048349397,-7.550557915933,5.44673748415)
  );
#436 = CARTESIAN_POINT('',(2.688884725983,-7.53482802018,5.533966339876)
  );
#437 = CARTESIAN_POINT('',(2.737154081191,-7.517515754415,5.619956378986
    ));
#438 = CARTESIAN_POINT('',(2.788839051673,-7.49851464888,5.704531166643)
  );
#439 = CARTESIAN_POINT('',(2.843911803027,-7.477706609264,5.787513331757
    ));
#440 = CARTESIAN_POINT('',(2.950610094947,-7.43616728458,5.93583188383)
  );
#441 = CARTESIAN_POINT('',(3.001174834742,-7.416049627704,6.001732188013
    ));
#442 = CARTESIAN_POINT('',(3.05398053457,-7.394545833048,6.066288198808)
  );
#443 = CARTESIAN_POINT('',(3.108969240484,-7.371590898408,6.129370661222
    ));
#444 = CARTESIAN_POINT('',(3.166073764611,-7.347118750781,6.190858285417
    ));
#445 = CARTESIAN_POINT('',(3.328744745853,-7.275455730742,6.355274312926
    ));
#446 = CARTESIAN_POINT('',(3.438633759442,-7.224947719689,6.454789803454
    ));
#447 = CARTESIAN_POINT('',(3.554192128668,-7.169301736039,6.548238335269
    ));
#448 = CARTESIAN_POINT('',(3.674578159141,-7.108347670407,6.634906205002
    ));
#449 = CARTESIAN_POINT('',(3.798853869933,-7.042017919333,6.714302778175
    ));
#450 = CARTESIAN_POINT('',(4.036794012027,-6.907999201381,6.848720822546
    ));
#451 = CARTESIAN_POINT('',(4.149604898,-6.841677289903,6.905480791622));
#452 = CARTESIAN_POINT('',(4.263769230606,-6.771505063954,6.956255175365
    ));
#453 = CARTESIAN_POINT('',(4.378555575565,-6.697664761783,7.001003056667
    ));
#454 = CARTESIAN_POINT('',(4.493224710296,-6.620446947623,7.039811591035
    ));
#455 = CARTESIAN_POINT('',(4.659985817333,-6.50297811389,7.088270494496)
  );
#456 = CARTESIAN_POINT('',(4.712751515274,-6.465040093733,7.102417030995
    ));
#457 = CARTESIAN_POINT('',(4.765297833156,-6.426476721212,7.115354073623
    ));
#458 = CARTESIAN_POINT('',(4.817573610074,-6.38731755185,7.127109872224)
  );
#459 = CARTESIAN_POINT('',(4.869528828696,-6.347595607779,7.137715287793
    ));
#460 = CARTESIAN_POINT('',(5.021909897405,-6.22870494592,7.165743715376)
  );
#461 = CARTESIAN_POINT('',(5.121250879623,-6.148087598336,7.180011324206
    ));
#462 = CARTESIAN_POINT('',(5.218916348147,-6.065661759198,7.190288575934
    ));
#463 = CARTESIAN_POINT('',(5.31470918268,-5.981612622686,7.196857343692)
  );
#464 = CARTESIAN_POINT('',(5.408454867073,-5.896143475484,7.2));
#465 = CARTESIAN_POINT('',(5.5,-5.809475019311,7.2));
#466 = ORIENTED_EDGE('',*,*,#467,.T.);
#467 = EDGE_CURVE('',#386,#237,#468,.T.);
#468 = B_SPLINE_CURVE_WITH_KNOTS('',5,(#469,#470,#471,#472,#473,#474),
  .UNSPECIFIED.,.F.,.F.,(6,6),(0.,1.),.PIECEWISE_BEZIER_KNOTS.);
#469 = CARTESIAN_POINT('',(5.5,-5.809475019311,7.2));
#470 = CARTESIAN_POINT('',(5.644304938657,-5.672857311175,7.2));
#471 = CARTESIAN_POINT('',(5.782972121586,-5.53308033707,7.19186580296)
  );
#472 = CARTESIAN_POINT('',(5.915765275861,-5.390697585753,7.17686757015)
  );
#473 = CARTESIAN_POINT('',(6.042627596566,-5.246204611266,7.156081127855
    ));
#474 = CARTESIAN_POINT('',(6.163603338957,-5.0999994,7.130436169055));
#475 = CYLINDRICAL_SURFACE('',#476,8.);
#476 = AXIS2_PLACEMENT_3D('',#477,#478,#479);
#477 = CARTESIAN_POINT('',(0.,0.,0.));
#478 = DIRECTION('',(0.,0.,1.));
#479 = DIRECTION('',(1.,0.,0.));
#480 = ADVANCED_FACE('',(#481),#507,.T.);
#481 = FACE_BOUND('',#482,.T.);
#482 = EDGE_LOOP('',(#483,#491,#492,#500));
#483 = ORIENTED_EDGE('',*,*,#484,.F.);
#484 = EDGE_CURVE('',#22,#485,#487,.T.);
#485 = VERTEX_POINT('',#486);
#486 = CARTESIAN_POINT('',(2.323790007724,0.6,8.));
#487 = LINE('',#488,#489);
#488 = CARTESIAN_POINT('',(0.9,0.6,8.));
#489 = VECTOR('',#490,1.);
#490 = DIRECTION('',(-1.,0.,0.));
#491 = ORIENTED_EDGE('',*,*,#21,.T.);
#492 = ORIENTED_EDGE('',*,*,#493,.T.);
#493 = EDGE_CURVE('',#24,#494,#496,.T.);
#494 = VERTEX_POINT('',#495);
#495 = CARTESIAN_POINT('',(2.323790007724,-0.6,8.));
#496 = LINE('',#497,#498);
#497 = CARTESIAN_POINT('',(0.9,-0.6,8.));
#498 = VECTOR('',#499,1.);
#499 = DIRECTION('',(-1.,0.,0.));
#500 = ORIENTED_EDGE('',*,*,#501,.F.);
#501 = EDGE_CURVE('',#485,#494,#502,.T.);
#502 = CIRCLE('',#503,2.4);
#503 = AXIS2_PLACEMENT_3D('',#504,#505,#506);
#504 = CARTESIAN_POINT('',(0.,0.,8.));
#505 = DIRECTION('',(0.,0.,1.));
#506 = DIRECTION('',(1.,0.,0.));
#507 = PLANE('',#508);
#508 = AXIS2_PLACEMENT_3D('',#509,#510,#511);
#509 = CARTESIAN_POINT('',(0.,0.,8.));
#510 = DIRECTION('',(0.,0.,1.));
#511 = DIRECTION('',(1.,0.,0.));
#512 = ADVANCED_FACE('',(#513,#531),#542,.F.);
#513 = FACE_BOUND('',#514,.F.);
#514 = EDGE_LOOP('',(#515,#516,#524,#530));
#515 = ORIENTED_EDGE('',*,*,#32,.F.);
#516 = ORIENTED_EDGE('',*,*,#517,.T.);
#517 = EDGE_CURVE('',#33,#518,#520,.T.);
#518 = VERTEX_POINT('',#519);
#519 = CARTESIAN_POINT('',(2.323790007724,0.6,0.));
#520 = LINE('',#521,#522);
#521 = CARTESIAN_POINT('',(0.9,0.6,0.));
#522 = VECTOR('',#523,1.);
#523 = DIRECTION('',(-1.,0.,0.));
#524 = ORIENTED_EDGE('',*,*,#525,.T.);
#525 = EDGE_CURVE('',#518,#485,#526,.T.);
#526 = LINE('',#527,#528);
#527 = CARTESIAN_POINT('',(2.323790007724,0.6,-1.));
#528 = VECTOR('',#529,1.);
#529 = DIRECTION('',(0.,0.,1.));
#530 = ORIENTED_EDGE('',*,*,#484,.F.);
#531 = FACE_BOUND('',#532,.F.);
#532 = EDGE_LOOP('',(#533));
#533 = ORIENTED_EDGE('',*,*,#534,.F.);
#534 = EDGE_CURVE('',#535,#535,#537,.T.);
#535 = VERTEX_POINT('',#536);
#536 = CARTESIAN_POINT('',(5.5,0.6,5.65));
#537 = CIRCLE('',#538,1.65);
#538 = AXIS2_PLACEMENT_3D('',#539,#540,#541);
#539 = CARTESIAN_POINT('',(5.5,0.6,4.));
#540 = DIRECTION('',(0.,1.,0.));
#541 = DIRECTION('',(0.,0.,1.));
#542 = PLANE('',#543);
#543 = AXIS2_PLACEMENT_3D('',#544,#545,#546);
#544 = CARTESIAN_POINT('',(1.8,0.6,-1.));
#545 = DIRECTION('',(0.,1.,0.));
#546 = DIRECTION('',(0.,0.,1.));
#547 = ADVANCED_FACE('',(#548,#566),#577,.T.);
#548 = FACE_BOUND('',#549,.T.);
#549 = EDGE_LOOP('',(#550,#551,#559,#565));
#550 = ORIENTED_EDGE('',*,*,#49,.F.);
#551 = ORIENTED_EDGE('',*,*,#552,.T.);
#552 = EDGE_CURVE('',#41,#553,#555,.T.);
#553 = VERTEX_POINT('',#554);
#554 = CARTESIAN_POINT('',(2.323790007724,-0.6,0.));
#555 = LINE('',#556,#557);
#556 = CARTESIAN_POINT('',(0.9,-0.6,0.));
#557 = VECTOR('',#558,1.);
#558 = DIRECTION('',(-1.,0.,0.));
#559 = ORIENTED_EDGE('',*,*,#560,.T.);
#560 = EDGE_CURVE('',#553,#494,#561,.T.);
#561 = LINE('',#562,#563);
#562 = CARTESIAN_POINT('',(2.323790007724,-0.6,-1.));
#563 = VECTOR('',#564,1.);
#564 = DIRECTION('',(0.,0.,1.));
#565 = ORIENTED_EDGE('',*,*,#493,.F.);
#566 = FACE_BOUND('',#567,.T.);
#567 = EDGE_LOOP('',(#568));
#568 = ORIENTED_EDGE('',*,*,#569,.F.);
#569 = EDGE_CURVE('',#570,#570,#572,.T.);
#570 = VERTEX_POINT('',#571);
#571 = CARTESIAN_POINT('',(5.5,-0.6,5.65));
#572 = CIRCLE('',#573,1.65);
#573 = AXIS2_PLACEMENT_3D('',#574,#575,#576);
#574 = CARTESIAN_POINT('',(5.5,-0.6,4.));
#575 = DIRECTION('',(0.,1.,0.));
#576 = DIRECTION('',(0.,0.,1.));
#577 = PLANE('',#578);
#578 = AXIS2_PLACEMENT_3D('',#579,#580,#581);
#579 = CARTESIAN_POINT('',(1.8,-0.6,-1.));
#580 = DIRECTION('',(0.,1.,0.));
#581 = DIRECTION('',(0.,0.,1.));
#582 = ADVANCED_FACE('',(#583),#595,.F.);
#583 = FACE_BOUND('',#584,.F.);
#584 = EDGE_LOOP('',(#585,#586,#587,#588));
#585 = ORIENTED_EDGE('',*,*,#517,.F.);
#586 = ORIENTED_EDGE('',*,*,#40,.T.);
#587 = ORIENTED_EDGE('',*,*,#552,.T.);
#588 = ORIENTED_EDGE('',*,*,#589,.F.);
#589 = EDGE_CURVE('',#518,#553,#590,.T.);
#590 = CIRCLE('',#591,2.4);
#591 = AXIS2_PLACEMENT_3D('',#592,#593,#594);
#592 = CARTESIAN_POINT('',(0.,0.,0.));
#593 = DIRECTION('',(0.,0.,1.));
#594 = DIRECTION('',(1.,0.,0.));
#595 = PLANE('',#596);
#596 = AXIS2_PLACEMENT_3D('',#597,#598,#599);
#597 = CARTESIAN_POINT('',(0.,0.,0.));
#598 = DIRECTION('',(0.,0.,1.));
#599 = DIRECTION('',(1.,0.,0.));
#600 = ADVANCED_FACE('',(#601),#628,.F.);
#601 = FACE_BOUND('',#602,.F.);
#602 = EDGE_LOOP('',(#603,#604,#613,#619,#620,#621));
#603 = ORIENTED_EDGE('',*,*,#57,.F.);
#604 = ORIENTED_EDGE('',*,*,#605,.F.);
#605 = EDGE_CURVE('',#606,#58,#608,.T.);
#606 = VERTEX_POINT('',#607);
#607 = CARTESIAN_POINT('',(5.5,5.1,5.65));
#608 = CIRCLE('',#609,1.65);
#609 = AXIS2_PLACEMENT_3D('',#610,#611,#612);
#610 = CARTESIAN_POINT('',(5.5,5.1,4.));
#611 = DIRECTION('',(0.,1.,0.));
#612 = DIRECTION('',(0.,0.,1.));
#613 = ORIENTED_EDGE('',*,*,#614,.F.);
#614 = EDGE_CURVE('',#535,#606,#615,.T.);
#615 = LINE('',#616,#617);
#616 = CARTESIAN_POINT('',(5.5,-9.,5.65));
#617 = VECTOR('',#618,1.);
#618 = DIRECTION('',(0.,1.,0.));
#619 = ORIENTED_EDGE('',*,*,#534,.T.);
#620 = ORIENTED_EDGE('',*,*,#614,.T.);
#621 = ORIENTED_EDGE('',*,*,#622,.F.);
#622 = EDGE_CURVE('',#60,#606,#623,.T.);
#623 = CIRCLE('',#624,1.65);
#624 = AXIS2_PLACEMENT_3D('',#625,#626,#627);
#625 = CARTESIAN_POINT('',(5.5,5.1,4.));
#626 = DIRECTION('',(0.,1.,0.));
#627 = DIRECTION('',(0.,0.,1.));
#628 = CYLINDRICAL_SURFACE('',#629,1.65);
#629 = AXIS2_PLACEMENT_3D('',#630,#631,#632);
#630 = CARTESIAN_POINT('',(5.5,-9.,4.));
#631 = DIRECTION('',(0.,1.,0.));
#632 = DIRECTION('',(0.,0.,1.));
#633 = ADVANCED_FACE('',(#634),#662,.T.);
#634 = FACE_BOUND('',#635,.T.);
#635 = EDGE_LOOP('',(#636,#644,#652,#658,#659,#660,#661));
#636 = ORIENTED_EDGE('',*,*,#637,.F.);
#637 = EDGE_CURVE('',#638,#218,#640,.T.);
#638 = VERTEX_POINT('',#639);
#639 = CARTESIAN_POINT('',(2.4,5.1,1.1));
#640 = LINE('',#641,#642);
#641 = CARTESIAN_POINT('',(2.4,5.1,1.1));
#642 = VECTOR('',#643,1.);
#643 = DIRECTION('',(1.,0.,0.));
#644 = ORIENTED_EDGE('',*,*,#645,.T.);
#645 = EDGE_CURVE('',#638,#646,#648,.T.);
#646 = VERTEX_POINT('',#647);
#647 = CARTESIAN_POINT('',(2.4,5.1,6.9));
#648 = LINE('',#649,#650);
#649 = CARTESIAN_POINT('',(2.4,5.1,1.1));
#650 = VECTOR('',#651,1.);
#651 = DIRECTION('',(0.,0.,1.));
#652 = ORIENTED_EDGE('',*,*,#653,.T.);
#653 = EDGE_CURVE('',#646,#193,#654,.T.);
#654 = LINE('',#655,#656);
#655 = CARTESIAN_POINT('',(2.4,5.1,6.9));
#656 = VECTOR('',#657,1.);
#657 = DIRECTION('',(1.,0.,0.));
#658 = ORIENTED_EDGE('',*,*,#192,.F.);
#659 = ORIENTED_EDGE('',*,*,#605,.F.);
#660 = ORIENTED_EDGE('',*,*,#622,.F.);
#661 = ORIENTED_EDGE('',*,*,#226,.F.);
#662 = PLANE('',#663);
#663 = AXIS2_PLACEMENT_3D('',#664,#665,#666);
#664 = CARTESIAN_POINT('',(2.4,5.1,1.1));
#665 = DIRECTION('',(0.,1.,0.));
#666 = DIRECTION('',(0.,0.,1.));
#667 = ADVANCED_FACE('',(#668),#678,.T.);
#668 = FACE_BOUND('',#669,.T.);
#669 = EDGE_LOOP('',(#670,#676,#677));
#670 = ORIENTED_EDGE('',*,*,#671,.F.);
#671 = EDGE_CURVE('',#638,#210,#672,.T.);
#672 = LINE('',#673,#674);
#673 = CARTESIAN_POINT('',(2.4,5.1,1.1));
#674 = VECTOR('',#675,1.);
#675 = DIRECTION('',(0.,1.,0.));
#676 = ORIENTED_EDGE('',*,*,#637,.T.);
#677 = ORIENTED_EDGE('',*,*,#217,.T.);
#678 = PLANE('',#679);
#679 = AXIS2_PLACEMENT_3D('',#680,#681,#682);
#680 = CARTESIAN_POINT('',(2.4,5.1,1.1));
#681 = DIRECTION('',(0.,0.,1.));
#682 = DIRECTION('',(1.,0.,0.));
#683 = ADVANCED_FACE('',(#684),#695,.T.);
#684 = FACE_BOUND('',#685,.T.);
#685 = EDGE_LOOP('',(#686,#692,#693,#694));
#686 = ORIENTED_EDGE('',*,*,#687,.F.);
#687 = EDGE_CURVE('',#646,#201,#688,.T.);
#688 = LINE('',#689,#690);
#689 = CARTESIAN_POINT('',(2.4,5.1,6.9));
#690 = VECTOR('',#691,1.);
#691 = DIRECTION('',(0.,1.,0.));
#692 = ORIENTED_EDGE('',*,*,#645,.F.);
#693 = ORIENTED_EDGE('',*,*,#671,.T.);
#694 = ORIENTED_EDGE('',*,*,#209,.T.);
#695 = PLANE('',#696);
#696 = AXIS2_PLACEMENT_3D('',#697,#698,#699);
#697 = CARTESIAN_POINT('',(2.4,5.1,1.1));
#698 = DIRECTION('',(1.,0.,0.));
#699 = DIRECTION('',(0.,0.,1.));
#700 = ADVANCED_FACE('',(#701),#706,.F.);
#701 = FACE_BOUND('',#702,.F.);
#702 = EDGE_LOOP('',(#703,#704,#705));
#703 = ORIENTED_EDGE('',*,*,#687,.F.);
#704 = ORIENTED_EDGE('',*,*,#653,.T.);
#705 = ORIENTED_EDGE('',*,*,#200,.T.);
#706 = PLANE('',#707);
#707 = AXIS2_PLACEMENT_3D('',#708,#709,#710);
#708 = CARTESIAN_POINT('',(2.4,5.1,6.9));
#709 = DIRECTION('',(0.,0.,1.));
#710 = DIRECTION('',(1.,0.,0.));
#711 = ADVANCED_FACE('',(#712),#748,.F.);
#712 = FACE_BOUND('',#713,.F.);
#713 = EDGE_LOOP('',(#714,#723,#730,#731,#740,#747));
#714 = ORIENTED_EDGE('',*,*,#715,.T.);
#715 = EDGE_CURVE('',#378,#716,#718,.T.);
#716 = VERTEX_POINT('',#717);
#717 = CARTESIAN_POINT('',(5.5,-5.1,7.2));
#718 = CIRCLE('',#719,3.2);
#719 = AXIS2_PLACEMENT_3D('',#720,#721,#722);
#720 = CARTESIAN_POINT('',(5.5,-5.1,4.));
#721 = DIRECTION('',(0.,1.,0.));
#722 = DIRECTION('',(0.,0.,1.));
#723 = ORIENTED_EDGE('',*,*,#724,.T.);
#724 = EDGE_CURVE('',#716,#237,#725,.T.);
#725 = CIRCLE('',#726,3.2);
#726 = AXIS2_PLACEMENT_3D('',#727,#728,#729);
#727 = CARTESIAN_POINT('',(5.5,-5.1,4.));
#728 = DIRECTION('',(0.,1.,0.));
#729 = DIRECTION('',(0.,0.,1.));
#730 = ORIENTED_EDGE('',*,*,#234,.F.);
#731 = ORIENTED_EDGE('',*,*,#732,.F.);
#732 = EDGE_CURVE('',#733,#235,#735,.T.);
#733 = VERTEX_POINT('',#734);
#734 = CARTESIAN_POINT('',(5.5,-5.1,5.65));
#735 = CIRCLE('',#736,1.65);
#736 = AXIS2_PLACEMENT_3D('',#737,#738,#739);
#737 = CARTESIAN_POINT('',(5.5,-5.1,4.));
#738 = DIRECTION('',(0.,1.,0.));
#739 = DIRECTION('',(0.,0.,1.));
#740 = ORIENTED_EDGE('',*,*,#741,.F.);
#741 = EDGE_CURVE('',#245,#733,#742,.T.);
#742 = CIRCLE('',#743,1.65);
#743 = AXIS2_PLACEMENT_3D('',#744,#745,#746);
#744 = CARTESIAN_POINT('',(5.5,-5.1,4.));
#745 = DIRECTION('',(0.,1.,0.));
#746 = DIRECTION('',(0.,0.,1.));
#747 = ORIENTED_EDGE('',*,*,#377,.F.);
#748 = PLANE('',#749);
#749 = AXIS2_PLACEMENT_3D('',#750,#751,#752);
#750 = CARTESIAN_POINT('',(5.5,-5.1,4.));
#751 = DIRECTION('',(0.,1.,0.));
#752 = DIRECTION('',(0.,0.,1.));
#753 = ADVANCED_FACE('',(#754),#767,.F.);
#754 = FACE_BOUND('',#755,.F.);
#755 = EDGE_LOOP('',(#756,#762,#763,#764,#765,#766));
#756 = ORIENTED_EDGE('',*,*,#757,.T.);
#757 = EDGE_CURVE('',#733,#570,#758,.T.);
#758 = LINE('',#759,#760);
#759 = CARTESIAN_POINT('',(5.5,-9.,5.65));
#760 = VECTOR('',#761,1.);
#761 = DIRECTION('',(0.,1.,0.));
#762 = ORIENTED_EDGE('',*,*,#569,.F.);
#763 = ORIENTED_EDGE('',*,*,#757,.F.);
#764 = ORIENTED_EDGE('',*,*,#732,.T.);
#765 = ORIENTED_EDGE('',*,*,#244,.T.);
#766 = ORIENTED_EDGE('',*,*,#741,.T.);
#767 = CYLINDRICAL_SURFACE('',#768,1.65);
#768 = AXIS2_PLACEMENT_3D('',#769,#770,#771);
#769 = CARTESIAN_POINT('',(5.5,-9.,4.));
#770 = DIRECTION('',(0.,1.,0.));
#771 = DIRECTION('',(0.,0.,1.));
#772 = ADVANCED_FACE('',(#773),#783,.F.);
#773 = FACE_BOUND('',#774,.F.);
#774 = EDGE_LOOP('',(#775,#776,#782));
#775 = ORIENTED_EDGE('',*,*,#724,.F.);
#776 = ORIENTED_EDGE('',*,*,#777,.F.);
#777 = EDGE_CURVE('',#386,#716,#778,.T.);
#778 = LINE('',#779,#780);
#779 = CARTESIAN_POINT('',(5.5,-8.1,7.2));
#780 = VECTOR('',#781,1.);
#781 = DIRECTION('',(0.,1.,0.));
#782 = ORIENTED_EDGE('',*,*,#467,.T.);
#783 = CYLINDRICAL_SURFACE('',#784,3.2);
#784 = AXIS2_PLACEMENT_3D('',#785,#786,#787);
#785 = CARTESIAN_POINT('',(5.5,-8.1,4.));
#786 = DIRECTION('',(0.,1.,0.));
#787 = DIRECTION('',(0.,0.,1.));
#788 = ADVANCED_FACE('',(#789),#794,.F.);
#789 = FACE_BOUND('',#790,.F.);
#790 = EDGE_LOOP('',(#791,#792,#793));
#791 = ORIENTED_EDGE('',*,*,#777,.T.);
#792 = ORIENTED_EDGE('',*,*,#715,.F.);
#793 = ORIENTED_EDGE('',*,*,#385,.T.);
#794 = CYLINDRICAL_SURFACE('',#795,3.2);
#795 = AXIS2_PLACEMENT_3D('',#796,#797,#798);
#796 = CARTESIAN_POINT('',(5.5,-8.1,4.));
#797 = DIRECTION('',(0.,1.,0.));
#798 = DIRECTION('',(0.,0.,1.));
#799 = ADVANCED_FACE('',(#800),#806,.F.);
#800 = FACE_BOUND('',#801,.F.);
#801 = EDGE_LOOP('',(#802,#803,#804,#805));
#802 = ORIENTED_EDGE('',*,*,#501,.F.);
#803 = ORIENTED_EDGE('',*,*,#525,.F.);
#804 = ORIENTED_EDGE('',*,*,#589,.T.);
#805 = ORIENTED_EDGE('',*,*,#560,.T.);
#806 = CYLINDRICAL_SURFACE('',#807,2.4);
#807 = AXIS2_PLACEMENT_3D('',#808,#809,#810);
#808 = CARTESIAN_POINT('',(0.,0.,-1.));
#809 = DIRECTION('',(0.,0.,1.));
#810 = DIRECTION('',(1.,0.,0.));
#811 = ( GEOMETRIC_REPRESENTATION_CONTEXT(3) 
GLOBAL_UNCERTAINTY_ASSIGNED_CONTEXT((#815)) GLOBAL_UNIT_ASSIGNED_CONTEXT
((#812,#813,#814)) REPRESENTATION_CONTEXT('Context #1',
  '3D Context with UNIT and UNCERTAINTY') );
#812 = ( LENGTH_UNIT() NAMED_UNIT(*) SI_UNIT(.MILLI.,.METRE.) );
#813 = ( NAMED_UNIT(*) PLANE_ANGLE_UNIT() SI_UNIT($,.RADIAN.) );
#814 = ( NAMED_UNIT(*) SI_UNIT($,.STERADIAN.) SOLID_ANGLE_UNIT() );
#815 = UNCERTAINTY_MEASURE_WITH_UNIT(LENGTH_MEASURE(1.E-07),#812,
  'distance_accuracy_value','confusion accuracy');
#816 = PRODUCT_RELATED_PRODUCT_CATEGORY('part',$,(#7));
ENDSEC;
END-ISO-10303-21;
