ISO-10303-21;
HEADER;
FILE_DESCRIPTION(('FreeCAD Model'),'2;1');
FILE_NAME('Open CASCADE Shape Model','2026-07-20T20:10:55',('FreeCAD'),(
    'FreeCAD'),'Open CASCADE STEP processor 7.8','FreeCAD','Unknown');
FILE_SCHEMA(('AUTOMOTIVE_DESIGN { 1 0 10303 214 1 1 1 1 }'));
ENDSEC;
DATA;
#1 = APPLICATION_PROTOCOL_DEFINITION('international standard',
  'automotive_design',2000,#2);
#2 = APPLICATION_CONTEXT(
  'core data for automotive mechanical design processes');
#3 = SHAPE_DEFINITION_REPRESENTATION(#4,#10);
#4 = PRODUCT_DEFINITION_SHAPE('','',#5);
#5 = PRODUCT_DEFINITION('design','',#6,#9);
#6 = PRODUCT_DEFINITION_FORMATION('','',#7);
#7 = PRODUCT('Open CASCADE STEP translator 7.8 25',
  'Open CASCADE STEP translator 7.8 25','',(#8));
#8 = PRODUCT_CONTEXT('',#2,'mechanical');
#9 = PRODUCT_DEFINITION_CONTEXT('part definition',#2,'design');
#10 = ADVANCED_BREP_SHAPE_REPRESENTATION('',(#11,#15),#1373);
#11 = AXIS2_PLACEMENT_3D('',#12,#13,#14);
#12 = CARTESIAN_POINT('',(0.,0.,0.));
#13 = DIRECTION('',(0.,0.,1.));
#14 = DIRECTION('',(1.,0.,-0.));
#15 = MANIFOLD_SOLID_BREP('',#16);
#16 = CLOSED_SHELL('',(#17,#50,#70,#444,#529,#659,#726,#757,#797,#880,
    #947,#1014,#1098,#1133,#1164,#1175,#1186,#1196,#1206,#1223,#1240,
    #1266,#1287,#1296,#1320,#1357));
#17 = ADVANCED_FACE('',(#18),#45,.F.);
#18 = FACE_BOUND('',#19,.F.);
#19 = EDGE_LOOP('',(#20,#29,#37,#44));
#20 = ORIENTED_EDGE('',*,*,#21,.F.);
#21 = EDGE_CURVE('',#22,#22,#24,.T.);
#22 = VERTEX_POINT('',#23);
#23 = CARTESIAN_POINT('',(9.,1.15,49.6));
#24 = CIRCLE('',#25,7.6);
#25 = AXIS2_PLACEMENT_3D('',#26,#27,#28);
#26 = CARTESIAN_POINT('',(9.,1.15,42.));
#27 = DIRECTION('',(0.,1.,0.));
#28 = DIRECTION('',(0.,-0.,1.));
#29 = ORIENTED_EDGE('',*,*,#30,.F.);
#30 = EDGE_CURVE('',#31,#22,#33,.T.);
#31 = VERTEX_POINT('',#32);
#32 = CARTESIAN_POINT('',(9.,0.,49.6));
#33 = LINE('',#34,#35);
#34 = CARTESIAN_POINT('',(9.,0.,49.6));
#35 = VECTOR('',#36,1.);
#36 = DIRECTION('',(0.,1.,0.));
#37 = ORIENTED_EDGE('',*,*,#38,.T.);
#38 = EDGE_CURVE('',#31,#31,#39,.T.);
#39 = CIRCLE('',#40,7.6);
#40 = AXIS2_PLACEMENT_3D('',#41,#42,#43);
#41 = CARTESIAN_POINT('',(9.,0.,42.));
#42 = DIRECTION('',(0.,1.,0.));
#43 = DIRECTION('',(0.,-0.,1.));
#44 = ORIENTED_EDGE('',*,*,#30,.T.);
#45 = CYLINDRICAL_SURFACE('',#46,7.6);
#46 = AXIS2_PLACEMENT_3D('',#47,#48,#49);
#47 = CARTESIAN_POINT('',(9.,0.,42.));
#48 = DIRECTION('',(0.,1.,0.));
#49 = DIRECTION('',(0.,-0.,1.));
#50 = ADVANCED_FACE('',(#51,#54),#65,.F.);
#51 = FACE_BOUND('',#52,.F.);
#52 = EDGE_LOOP('',(#53));
#53 = ORIENTED_EDGE('',*,*,#21,.T.);
#54 = FACE_BOUND('',#55,.F.);
#55 = EDGE_LOOP('',(#56));
#56 = ORIENTED_EDGE('',*,*,#57,.F.);
#57 = EDGE_CURVE('',#58,#58,#60,.T.);
#58 = VERTEX_POINT('',#59);
#59 = CARTESIAN_POINT('',(9.,1.15,48.525));
#60 = CIRCLE('',#61,6.525);
#61 = AXIS2_PLACEMENT_3D('',#62,#63,#64);
#62 = CARTESIAN_POINT('',(9.,1.15,42.));
#63 = DIRECTION('',(0.,1.,0.));
#64 = DIRECTION('',(0.,-0.,1.));
#65 = PLANE('',#66);
#66 = AXIS2_PLACEMENT_3D('',#67,#68,#69);
#67 = CARTESIAN_POINT('',(9.,1.15,42.));
#68 = DIRECTION('',(0.,1.,0.));
#69 = DIRECTION('',(0.,-0.,1.));
#70 = ADVANCED_FACE('',(#71,#279),#439,.F.);
#71 = FACE_BOUND('',#72,.F.);
#72 = EDGE_LOOP('',(#73,#74,#82,#173,#181,#188,#189,#278));
#73 = ORIENTED_EDGE('',*,*,#57,.T.);
#74 = ORIENTED_EDGE('',*,*,#75,.T.);
#75 = EDGE_CURVE('',#58,#76,#78,.T.);
#76 = VERTEX_POINT('',#77);
#77 = CARTESIAN_POINT('',(9.,16.371912617017,48.525));
#78 = LINE('',#79,#80);
#79 = CARTESIAN_POINT('',(9.,-1.,48.525));
#80 = VECTOR('',#81,1.);
#81 = DIRECTION('',(0.,1.,0.));
#82 = ORIENTED_EDGE('',*,*,#83,.T.);
#83 = EDGE_CURVE('',#76,#84,#86,.T.);
#84 = VERTEX_POINT('',#85);
#85 = CARTESIAN_POINT('',(9.,19.485951759252,48.525));
#86 = B_SPLINE_CURVE_WITH_KNOTS('',8,(#87,#88,#89,#90,#91,#92,#93,#94,
    #95,#96,#97,#98,#99,#100,#101,#102,#103,#104,#105,#106,#107,#108,
    #109,#110,#111,#112,#113,#114,#115,#116,#117,#118,#119,#120,#121,
    #122,#123,#124,#125,#126,#127,#128,#129,#130,#131,#132,#133,#134,
    #135,#136,#137,#138,#139,#140,#141,#142,#143,#144,#145,#146,#147,
    #148,#149,#150,#151,#152,#153,#154,#155,#156,#157,#158,#159,#160,
    #161,#162,#163,#164,#165,#166,#167,#168,#169,#170,#171,#172),
  .UNSPECIFIED.,.F.,.F.,(9,7,7,7,7,7,7,7,7,7,7,7,9),(0.,0.25994057868,
    0.326093939571,0.396545311727,0.431089399824,0.451873449195,
    0.500252545821,0.543130331185,0.562341114324,0.59166195525,
    0.64583307041,0.717118240926,1.),.UNSPECIFIED.);
#87 = CARTESIAN_POINT('',(9.,16.371912617017,48.525));
#88 = CARTESIAN_POINT('',(8.703003280078,16.371912617017,48.525));
#89 = CARTESIAN_POINT('',(8.407238469172,16.377331267726,48.509550420354
    ));
#90 = CARTESIAN_POINT('',(8.112535786619,16.388087665704,48.478876078955
    ));
#91 = CARTESIAN_POINT('',(7.818836920729,16.405164978804,48.43294367395)
  );
#92 = CARTESIAN_POINT('',(7.526878581589,16.430478772668,48.371537924315
    ));
#93 = CARTESIAN_POINT('',(7.238358787019,16.467152116843,48.294756564156
    ));
#94 = CARTESIAN_POINT('',(6.95611886788,16.519724982785,48.20341079278)
  );
#95 = CARTESIAN_POINT('',(6.61592189611,16.613628701618,48.074310290169)
  );
#96 = CARTESIAN_POINT('',(6.54756657249,16.634137321897,48.047349536255)
  );
#97 = CARTESIAN_POINT('',(6.479955487361,16.656213271517,48.019666961589
    ));
#98 = CARTESIAN_POINT('',(6.413187633077,16.679971216274,47.991323326799
    ));
#99 = CARTESIAN_POINT('',(6.347375661901,16.705532017375,47.962393154655
    ));
#100 = CARTESIAN_POINT('',(6.282645729576,16.733022838415,
    47.932966567033));
#101 = CARTESIAN_POINT('',(6.219137338898,16.762577252356,
    47.903151121874));
#102 = CARTESIAN_POINT('',(6.090832145849,16.828156781304,
    47.841042032642));
#103 = CARTESIAN_POINT('',(6.026148475607,16.864514244564,
    47.808678882383));
#104 = CARTESIAN_POINT('',(5.963245663726,16.903534124299,
    47.776185560222));
#105 = CARTESIAN_POINT('',(5.902412529277,16.945338421236,
    47.743787921114));
#106 = CARTESIAN_POINT('',(5.843938520208,16.990040088651,
    47.711737281984));
#107 = CARTESIAN_POINT('',(5.788119014312,17.037738370209,
    47.680311389585));
#108 = CARTESIAN_POINT('',(5.735260620191,17.088514137793,
    47.649815388345));
#109 = CARTESIAN_POINT('',(5.661379023661,17.168859199894,
    47.606249305678));
#110 = CARTESIAN_POINT('',(5.637872675262,17.19603444711,47.59222630499)
  );
#111 = CARTESIAN_POINT('',(5.615216837176,17.223942929697,47.57855992623
    ));
#112 = CARTESIAN_POINT('',(5.593458829511,17.252573692895,
    47.565296498123));
#113 = CARTESIAN_POINT('',(5.572643983934,17.281912843365,
    47.552482199925));
#114 = CARTESIAN_POINT('',(5.55281573927,17.311943524067,47.540162723285
    ));
#115 = CARTESIAN_POINT('',(5.534015737105,17.342645889131,47.52838293411
    ));
#116 = CARTESIAN_POINT('',(5.505615260695,17.392860065388,
    47.510450026494));
#117 = CARTESIAN_POINT('',(5.495334729649,17.41195529831,47.503925576337
    ));
#118 = CARTESIAN_POINT('',(5.485451711614,17.431276335878,
    47.497623226679));
#119 = CARTESIAN_POINT('',(5.475975250784,17.450815998403,
    47.491552721788));
#120 = CARTESIAN_POINT('',(5.466914048177,17.470566368132,
    47.485723507482));
#121 = CARTESIAN_POINT('',(5.458276461642,17.490518789249,
    47.480144731132));
#122 = CARTESIAN_POINT('',(5.450070505852,17.510663867875,
    47.474825241656));
#123 = CARTESIAN_POINT('',(5.424225388593,17.578308099826,
    47.458014843089));
#124 = CARTESIAN_POINT('',(5.408521290332,17.626628402391,
    47.447703040851));
#125 = CARTESIAN_POINT('',(5.395294800214,17.675811899635,
    47.438949896108));
#126 = CARTESIAN_POINT('',(5.384628881882,17.725703837892,
    47.431848490669));
#127 = CARTESIAN_POINT('',(5.376586207803,17.77613824057,47.426471453707
    ));
#128 = CARTESIAN_POINT('',(5.371209147158,17.826940958761,
    47.422869140615));
#129 = CARTESIAN_POINT('',(5.368519753715,17.87793272185,47.421067811865
    ));
#130 = CARTESIAN_POINT('',(5.368519753715,17.974132374197,
    47.421067811865));
#131 = CARTESIAN_POINT('',(5.37063246674,18.019330442711,47.422482953527
    ));
#132 = CARTESIAN_POINT('',(5.374856742652,18.064396600356,
    47.425312881525));
#133 = CARTESIAN_POINT('',(5.381179035104,18.109204877808,
    47.429541509689));
#134 = CARTESIAN_POINT('',(5.389573189109,18.153633508695,
    47.435137783189));
#135 = CARTESIAN_POINT('',(5.400000228601,18.197565308552,
    47.442056440706));
#136 = CARTESIAN_POINT('',(5.412408144013,18.240888053781,
    47.450238776618));
#137 = CARTESIAN_POINT('',(5.433149136759,18.302584235654,
    47.463813571542));
#138 = CARTESIAN_POINT('',(5.43995180443,18.321531959807,47.468253569246
    ));
#139 = CARTESIAN_POINT('',(5.447134147809,18.340329312057,
    47.472927172417));
#140 = CARTESIAN_POINT('',(5.454690328718,18.358968091229,
    47.477827871147));
#141 = CARTESIAN_POINT('',(5.462614205835,18.377440615976,
    47.482948869495));
#142 = CARTESIAN_POINT('',(5.470899334698,18.395739724783,
    47.488283085481));
#143 = CARTESIAN_POINT('',(5.479538967704,18.413858775964,47.49382315109
    ));
#144 = CARTESIAN_POINT('',(5.502242773991,18.459162050766,
    47.508319547851));
#145 = CARTESIAN_POINT('',(5.516767121738,18.486095088336,
    47.517538316074));
#146 = CARTESIAN_POINT('',(5.532075463055,18.512572371195,
    47.527191633368));
#147 = CARTESIAN_POINT('',(5.548142973041,18.538577227452,
    47.537252420685));
#148 = CARTESIAN_POINT('',(5.564943587512,18.564094697594,
    47.547692775801));
#149 = CARTESIAN_POINT('',(5.582449954306,18.589111529563,
    47.558484145631));
#150 = CARTESIAN_POINT('',(5.600633384604,18.613616173848,47.56959749853
    ));
#151 = CARTESIAN_POINT('',(5.654253557807,18.681907345466,
    47.602076413199));
#152 = CARTESIAN_POINT('',(5.69123126567,18.724408344227,47.624135955344
    ));
#153 = CARTESIAN_POINT('',(5.730244416999,18.765094862007,
    47.647019915982));
#154 = CARTESIAN_POINT('',(5.771139610287,18.803970295542,
    47.670570441937));
#155 = CARTESIAN_POINT('',(5.813762108836,18.841047937307,
    47.694635336328));
#156 = CARTESIAN_POINT('',(5.857955396249,18.876350561678,
    47.719069360976));
#157 = CARTESIAN_POINT('',(5.903560731927,18.909910011094,
    47.743735538815));
#158 = CARTESIAN_POINT('',(6.012075694586,18.983687930704,
    47.801103146829));
#159 = CARTESIAN_POINT('',(6.07591965424,19.02267328344,47.833891220839)
  );
#160 = CARTESIAN_POINT('',(6.141696048658,19.058886703911,47.86663937664
    ));
#161 = CARTESIAN_POINT('',(6.209175996307,19.092492058424,
    47.899149984723));
#162 = CARTESIAN_POINT('',(6.278151107286,19.123651284176,
    47.931255373333));
#163 = CARTESIAN_POINT('',(6.348430319626,19.152522457319,
    47.962814114047));
#164 = CARTESIAN_POINT('',(6.419836735594,19.179257861028,47.99370730735
    ));
#165 = CARTESIAN_POINT('',(6.779382120115,19.302194716371,
    48.143390413241));
#166 = CARTESIAN_POINT('',(7.083288848948,19.369577280421,
    48.251552496561));
#167 = CARTESIAN_POINT('',(7.396219895575,19.415389900113,
    48.342824039981));
#168 = CARTESIAN_POINT('',(7.713786620121,19.446273462919,
    48.415778593996));
#169 = CARTESIAN_POINT('',(8.033349456622,19.466742907121,48.47022277759
    ));
#170 = CARTESIAN_POINT('',(8.35388110715,19.47949736996,48.506597862028)
  );
#171 = CARTESIAN_POINT('',(8.675865278916,19.485951759253,48.525));
#172 = CARTESIAN_POINT('',(9.,19.485951759253,48.525));
#173 = ORIENTED_EDGE('',*,*,#174,.T.);
#174 = EDGE_CURVE('',#84,#175,#177,.T.);
#175 = VERTEX_POINT('',#176);
#176 = CARTESIAN_POINT('',(9.,21.,48.525));
#177 = LINE('',#178,#179);
#178 = CARTESIAN_POINT('',(9.,-1.,48.525));
#179 = VECTOR('',#180,1.);
#180 = DIRECTION('',(0.,1.,0.));
#181 = ORIENTED_EDGE('',*,*,#182,.F.);
#182 = EDGE_CURVE('',#175,#175,#183,.T.);
#183 = CIRCLE('',#184,6.525);
#184 = AXIS2_PLACEMENT_3D('',#185,#186,#187);
#185 = CARTESIAN_POINT('',(9.,21.,42.));
#186 = DIRECTION('',(0.,1.,0.));
#187 = DIRECTION('',(0.,-0.,1.));
#188 = ORIENTED_EDGE('',*,*,#174,.F.);
#189 = ORIENTED_EDGE('',*,*,#190,.F.);
#190 = EDGE_CURVE('',#76,#84,#191,.T.);
#191 = B_SPLINE_CURVE_WITH_KNOTS('',8,(#192,#193,#194,#195,#196,#197,
    #198,#199,#200,#201,#202,#203,#204,#205,#206,#207,#208,#209,#210,
    #211,#212,#213,#214,#215,#216,#217,#218,#219,#220,#221,#222,#223,
    #224,#225,#226,#227,#228,#229,#230,#231,#232,#233,#234,#235,#236,
    #237,#238,#239,#240,#241,#242,#243,#244,#245,#246,#247,#248,#249,
    #250,#251,#252,#253,#254,#255,#256,#257,#258,#259,#260,#261,#262,
    #263,#264,#265,#266,#267,#268,#269,#270,#271,#272,#273,#274,#275,
    #276,#277),.UNSPECIFIED.,.F.,.F.,(9,7,7,7,7,7,7,7,7,7,7,7,9),(0.,
    0.259940581353,0.326093942925,0.39654530937,0.431089397602,
    0.451873447054,0.500252543869,0.543130329401,0.562341112615,
    0.591661953655,0.645833069027,0.717118239822,1.),.UNSPECIFIED.);
#192 = CARTESIAN_POINT('',(9.,16.371912617017,48.525));
#193 = CARTESIAN_POINT('',(9.29699671992,16.371912617017,48.525));
#194 = CARTESIAN_POINT('',(9.592761530832,16.377331267726,
    48.509550420354));
#195 = CARTESIAN_POINT('',(9.887464213376,16.388087665703,
    48.478876078955));
#196 = CARTESIAN_POINT('',(10.181163079276,16.405164978805,
    48.432943673949));
#197 = CARTESIAN_POINT('',(10.473121418406,16.430478772667,
    48.371537924318));
#198 = CARTESIAN_POINT('',(10.761641212985,16.467152116844,
    48.294756564154));
#199 = CARTESIAN_POINT('',(11.043881132118,16.519724982785,
    48.20341079278));
#200 = CARTESIAN_POINT('',(11.38407810389,16.613628701618,
    48.074310290169));
#201 = CARTESIAN_POINT('',(11.45243342751,16.634137321897,
    48.047349536255));
#202 = CARTESIAN_POINT('',(11.520044512639,16.656213271517,
    48.019666961589));
#203 = CARTESIAN_POINT('',(11.586812366923,16.679971216274,
    47.991323326799));
#204 = CARTESIAN_POINT('',(11.652624338099,16.705532017375,
    47.962393154655));
#205 = CARTESIAN_POINT('',(11.717354270424,16.733022838415,
    47.932966567033));
#206 = CARTESIAN_POINT('',(11.780862661102,16.762577252356,
    47.903151121874));
#207 = CARTESIAN_POINT('',(11.909167848108,16.828156778215,
    47.841042035567));
#208 = CARTESIAN_POINT('',(11.973851526953,16.864514247147,
    47.808678880896));
#209 = CARTESIAN_POINT('',(12.036754341836,16.903534127881,
    47.776185557379));
#210 = CARTESIAN_POINT('',(12.097587471501,16.945338420629,
    47.743787920921));
#211 = CARTESIAN_POINT('',(12.15606147509,16.990040084412,
    47.711737284611));
#212 = CARTESIAN_POINT('',(12.21188098238,17.037738368256,
    47.680311391248));
#213 = CARTESIAN_POINT('',(12.264739384021,17.088514142373,
    47.649815385862));
#214 = CARTESIAN_POINT('',(12.338620976339,17.168859199894,
    47.606249305678));
#215 = CARTESIAN_POINT('',(12.362127324738,17.19603444711,47.59222630499
    ));
#216 = CARTESIAN_POINT('',(12.384783162824,17.223942929697,
    47.57855992623));
#217 = CARTESIAN_POINT('',(12.406541170489,17.252573692895,
    47.565296498123));
#218 = CARTESIAN_POINT('',(12.427356016066,17.281912843365,
    47.552482199925));
#219 = CARTESIAN_POINT('',(12.44718426073,17.311943524067,
    47.540162723285));
#220 = CARTESIAN_POINT('',(12.465984262895,17.342645889131,
    47.52838293411));
#221 = CARTESIAN_POINT('',(12.494384739305,17.392860065388,
    47.510450026494));
#222 = CARTESIAN_POINT('',(12.504665270351,17.41195529831,
    47.503925576337));
#223 = CARTESIAN_POINT('',(12.514548288386,17.431276335878,
    47.497623226679));
#224 = CARTESIAN_POINT('',(12.524024749216,17.450815998403,
    47.491552721788));
#225 = CARTESIAN_POINT('',(12.533085951823,17.470566368132,
    47.485723507482));
#226 = CARTESIAN_POINT('',(12.541723538358,17.490518789249,
    47.480144731132));
#227 = CARTESIAN_POINT('',(12.549929494148,17.510663867875,
    47.474825241656));
#228 = CARTESIAN_POINT('',(12.575774611407,17.578308099826,
    47.458014843089));
#229 = CARTESIAN_POINT('',(12.591478709668,17.626628402391,
    47.447703040851));
#230 = CARTESIAN_POINT('',(12.604705199786,17.675811899635,
    47.438949896108));
#231 = CARTESIAN_POINT('',(12.615371118118,17.725703837892,
    47.431848490669));
#232 = CARTESIAN_POINT('',(12.623413792197,17.77613824057,
    47.426471453707));
#233 = CARTESIAN_POINT('',(12.628790852842,17.826940958761,
    47.422869140615));
#234 = CARTESIAN_POINT('',(12.631480246285,17.87793272185,
    47.421067811865));
#235 = CARTESIAN_POINT('',(12.631480246285,17.974132374197,
    47.421067811865));
#236 = CARTESIAN_POINT('',(12.62936753326,18.019330442711,
    47.422482953527));
#237 = CARTESIAN_POINT('',(12.625143257348,18.064396600356,
    47.425312881525));
#238 = CARTESIAN_POINT('',(12.618820964896,18.109204877808,
    47.429541509689));
#239 = CARTESIAN_POINT('',(12.610426810891,18.153633508695,
    47.435137783189));
#240 = CARTESIAN_POINT('',(12.599999771399,18.197565308552,
    47.442056440706));
#241 = CARTESIAN_POINT('',(12.587591855987,18.240888053781,
    47.450238776618));
#242 = CARTESIAN_POINT('',(12.566850863241,18.302584235654,
    47.463813571542));
#243 = CARTESIAN_POINT('',(12.56004819557,18.321531959807,
    47.468253569246));
#244 = CARTESIAN_POINT('',(12.552865852191,18.340329312057,
    47.472927172417));
#245 = CARTESIAN_POINT('',(12.545309671282,18.358968091229,
    47.477827871147));
#246 = CARTESIAN_POINT('',(12.537385794165,18.377440615976,
    47.482948869495));
#247 = CARTESIAN_POINT('',(12.529100665302,18.395739724783,
    47.488283085481));
#248 = CARTESIAN_POINT('',(12.520461032296,18.413858775964,
    47.49382315109));
#249 = CARTESIAN_POINT('',(12.497757226009,18.459162050766,
    47.508319547851));
#250 = CARTESIAN_POINT('',(12.483232878262,18.486095088336,
    47.517538316074));
#251 = CARTESIAN_POINT('',(12.467924536945,18.512572371195,
    47.527191633368));
#252 = CARTESIAN_POINT('',(12.451857026959,18.538577227452,
    47.537252420685));
#253 = CARTESIAN_POINT('',(12.435056412488,18.564094697594,
    47.547692775801));
#254 = CARTESIAN_POINT('',(12.417550045694,18.589111529563,
    47.558484145631));
#255 = CARTESIAN_POINT('',(12.399366615396,18.613616173848,
    47.56959749853));
#256 = CARTESIAN_POINT('',(12.345746442193,18.681907345466,
    47.602076413199));
#257 = CARTESIAN_POINT('',(12.30876873433,18.724408344227,
    47.624135955344));
#258 = CARTESIAN_POINT('',(12.269755583001,18.765094862007,
    47.647019915982));
#259 = CARTESIAN_POINT('',(12.228860389713,18.803970295542,
    47.670570441937));
#260 = CARTESIAN_POINT('',(12.186237891164,18.841047937307,
    47.694635336328));
#261 = CARTESIAN_POINT('',(12.142044603751,18.876350561678,
    47.719069360976));
#262 = CARTESIAN_POINT('',(12.096439268073,18.909910011094,
    47.743735538815));
#263 = CARTESIAN_POINT('',(11.987924305414,18.983687930704,
    47.80110314683));
#264 = CARTESIAN_POINT('',(11.92408034576,19.02267328344,47.833891220839
    ));
#265 = CARTESIAN_POINT('',(11.858303951342,19.058886703911,
    47.86663937664));
#266 = CARTESIAN_POINT('',(11.790824003693,19.092492058424,
    47.899149984723));
#267 = CARTESIAN_POINT('',(11.721848892714,19.123651284176,
    47.931255373333));
#268 = CARTESIAN_POINT('',(11.651569680374,19.152522457319,
    47.962814114047));
#269 = CARTESIAN_POINT('',(11.580163264406,19.179257861029,
    47.99370730735));
#270 = CARTESIAN_POINT('',(11.220617879887,19.30219471637,48.14339041324
    ));
#271 = CARTESIAN_POINT('',(10.916711151049,19.369577280421,
    48.251552496562));
#272 = CARTESIAN_POINT('',(10.603780104427,19.415389900114,
    48.34282403998));
#273 = CARTESIAN_POINT('',(10.286213379876,19.446273462917,
    48.415778593997));
#274 = CARTESIAN_POINT('',(9.966650543383,19.466742907123,
    48.470222777589));
#275 = CARTESIAN_POINT('',(9.646118892846,19.47949736996,48.506597862028
    ));
#276 = CARTESIAN_POINT('',(9.324134721085,19.485951759253,48.525));
#277 = CARTESIAN_POINT('',(9.,19.485951759253,48.525));
#278 = ORIENTED_EDGE('',*,*,#75,.F.);
#279 = FACE_BOUND('',#280,.F.);
#280 = EDGE_LOOP('',(#281,#362));
#281 = ORIENTED_EDGE('',*,*,#282,.T.);
#282 = EDGE_CURVE('',#283,#285,#287,.T.);
#283 = VERTEX_POINT('',#284);
#284 = CARTESIAN_POINT('',(5.368519753715,17.928932188135,
    36.578932188135));
#285 = VERTEX_POINT('',#286);
#286 = CARTESIAN_POINT('',(12.631480246285,17.928932188135,
    36.578932188135));
#287 = B_SPLINE_CURVE_WITH_KNOTS('',7,(#288,#289,#290,#291,#292,#293,
    #294,#295,#296,#297,#298,#299,#300,#301,#302,#303,#304,#305,#306,
    #307,#308,#309,#310,#311,#312,#313,#314,#315,#316,#317,#318,#319,
    #320,#321,#322,#323,#324,#325,#326,#327,#328,#329,#330,#331,#332,
    #333,#334,#335,#336,#337,#338,#339,#340,#341,#342,#343,#344,#345,
    #346,#347,#348,#349,#350,#351,#352,#353,#354,#355,#356,#357,#358,
    #359,#360,#361),.UNSPECIFIED.,.F.,.F.,(8,6,6,6,6,6,6,6,6,6,6,6,8),(
    0.,6.204399305689E-02,9.135513255748E-02,0.145508324049,
    0.216769908346,0.277559848953,0.500184720823,0.703534328267,
    0.76104290114,0.825824228924,0.895773703731,0.930221347142,1.),
  .UNSPECIFIED.);
#288 = CARTESIAN_POINT('',(5.368519753715,17.928932188135,
    36.578932188135));
#289 = CARTESIAN_POINT('',(5.368519753715,17.854114326403,
    36.578932188135));
#290 = CARTESIAN_POINT('',(5.374428368048,17.779332530489,
    36.574974184401));
#291 = CARTESIAN_POINT('',(5.386234536093,17.705191883402,
    36.567065178159));
#292 = CARTESIAN_POINT('',(5.403820116065,17.63228272869,36.555344005739
    ));
#293 = CARTESIAN_POINT('',(5.426964345204,17.561153271718,
    36.540074506623));
#294 = CARTESIAN_POINT('',(5.455343542524,17.492285258002,
    36.521625645416));
#295 = CARTESIAN_POINT('',(5.504202305402,17.394792267917,
    36.490429289923));
#296 = CARTESIAN_POINT('',(5.520955393851,17.364094961271,
    36.479805815261));
#297 = CARTESIAN_POINT('',(5.538747504578,17.334010231356,
    36.468609897454));
#298 = CARTESIAN_POINT('',(5.557538441505,17.304564066278,
    36.456885261176));
#299 = CARTESIAN_POINT('',(5.577285497523,17.275779032672,36.44467716257
    ));
#300 = CARTESIAN_POINT('',(5.597943324657,17.247674288809,
    36.432031929767));
#301 = CARTESIAN_POINT('',(5.659223522603,17.169627235531,
    36.394913170145));
#302 = CARTESIAN_POINT('',(5.701900513359,17.121398964212,
    36.369514336159));
#303 = CARTESIAN_POINT('',(5.747250759184,17.075591844292,
    36.343059532734));
#304 = CARTESIAN_POINT('',(5.795028461391,17.032196317162,
    36.315799583393));
#305 = CARTESIAN_POINT('',(5.844984854577,16.991183308628,
    36.287973130804));
#306 = CARTESIAN_POINT('',(5.896867021266,16.952505332479,
    36.259803163682));
#307 = CARTESIAN_POINT('',(6.020884121447,16.868187710068,
    36.194240183095));
#308 = CARTESIAN_POINT('',(6.094264831838,16.824192220417,
    36.156731644517));
#309 = CARTESIAN_POINT('',(6.17015477875,16.783848943523,36.119338010667
    ));
#310 = CARTESIAN_POINT('',(6.248197213864,16.746895692167,
    36.082362019888));
#311 = CARTESIAN_POINT('',(6.328074262989,16.713075425304,
    36.046048971299));
#312 = CARTESIAN_POINT('',(6.409498489537,16.682141399889,
    36.010596629916));
#313 = CARTESIAN_POINT('',(6.562757070034,16.629738758243,35.94679322339
    ));
#314 = CARTESIAN_POINT('',(6.634280380148,16.607534081198,
    35.918148339734));
#315 = CARTESIAN_POINT('',(6.706650580753,16.587095049981,
    35.890314878772));
#316 = CARTESIAN_POINT('',(6.779759745796,16.568280413487,
    35.863359137932));
#317 = CARTESIAN_POINT('',(6.853516084643,16.550960204432,
    35.837332093163));
#318 = CARTESIAN_POINT('',(6.927844195963,16.535015032684,
    35.812272177969));
#319 = CARTESIAN_POINT('',(7.276768432126,16.466575561151,
    35.700080477806));
#320 = CARTESIAN_POINT('',(7.558244179824,16.429687675879,
    35.625143562948));
#321 = CARTESIAN_POINT('',(7.843752334939,16.404524046416,
    35.565061315684));
#322 = CARTESIAN_POINT('',(8.13136646521,16.3877207884,35.520066972185)
  );
#323 = CARTESIAN_POINT('',(8.420146716284,16.377195104618,
    35.490063939397));
#324 = CARTESIAN_POINT('',(8.709741993387,16.371912617017,35.475));
#325 = CARTESIAN_POINT('',(9.265126942943,16.371912617017,35.475));
#326 = CARTESIAN_POINT('',(9.529870788592,16.376320227415,
    35.487568294459));
#327 = CARTESIAN_POINT('',(9.793994649132,16.385114207199,
    35.512638984613));
#328 = CARTESIAN_POINT('',(10.057155023743,16.399013574423,
    35.550233956126));
#329 = CARTESIAN_POINT('',(10.318664993262,16.41946377788,
    35.600398442619));
#330 = CARTESIAN_POINT('',(10.577246017693,16.448769410715,
    35.662991391086));
#331 = CARTESIAN_POINT('',(10.902448380448,16.502175217732,
    35.758053638796));
#332 = CARTESIAN_POINT('',(10.973760614581,16.514938838673,
    35.779938745934));
#333 = CARTESIAN_POINT('',(11.044653750006,16.528774010889,
    35.802735326677));
#334 = CARTESIAN_POINT('',(11.115078566192,16.543770134785,
    35.826421339546));
#335 = CARTESIAN_POINT('',(11.184974262466,16.560024841499,
    35.85096715861));
#336 = CARTESIAN_POINT('',(11.254268602228,16.577644552428,
    35.87633373938));
#337 = CARTESIAN_POINT('',(11.400164127215,16.61826104589,
    35.931913221112));
#338 = CARTESIAN_POINT('',(11.476595892083,16.641660041904,
    35.96233890005));
#339 = CARTESIAN_POINT('',(11.552043226427,16.667106637123,
    35.993672823877));
#340 = CARTESIAN_POINT('',(11.62635042445,16.694776694998,
    36.025817707961));
#341 = CARTESIAN_POINT('',(11.699336582621,16.724857587726,
    36.058649535633));
#342 = CARTESIAN_POINT('',(11.770795982372,16.757548451875,
    36.092013113138));
#343 = CARTESIAN_POINT('',(11.915761712456,16.83140552407,
    36.162111026142));
#344 = CARTESIAN_POINT('',(11.989069187198,16.873087381555,
    36.198946564858));
#345 = CARTESIAN_POINT('',(12.05996223917,16.918305712978,
    36.235909486591));
#346 = CARTESIAN_POINT('',(12.127990685468,16.967252055696,
    36.272637200219));
#347 = CARTESIAN_POINT('',(12.192699115536,17.020097775113,
    36.308716574786));
#348 = CARTESIAN_POINT('',(12.253613188559,17.076982051869,
    36.34368123664));
#349 = CARTESIAN_POINT('',(12.338105705001,17.16804898683,
    36.393421546068));
#350 = CARTESIAN_POINT('',(12.364927311759,17.199084407697,
    36.409428442621));
#351 = CARTESIAN_POINT('',(12.390612165292,17.231094093691,
    36.424956311932));
#352 = CARTESIAN_POINT('',(12.41508573394,17.264060268851,
    36.439931444836));
#353 = CARTESIAN_POINT('',(12.438277290211,17.297959350394,
    36.454280551626));
#354 = CARTESIAN_POINT('',(12.460119660771,17.332761879888,
    36.467931646381));
#355 = CARTESIAN_POINT('',(12.521931491607,17.440688330069,
    36.50691187659));
#356 = CARTESIAN_POINT('',(12.557558557204,17.516579791317,
    36.529885039871));
#357 = CARTESIAN_POINT('',(12.586754019056,17.595614626098,
    36.549065845771));
#358 = CARTESIAN_POINT('',(12.609011235363,17.67715368521,36.56388015059
    ));
#359 = CARTESIAN_POINT('',(12.623982965948,17.76044333649,
    36.573910068092));
#360 = CARTESIAN_POINT('',(12.631480246285,17.844655060556,
    36.578932188135));
#361 = CARTESIAN_POINT('',(12.631480246285,17.928932188135,
    36.578932188135));
#362 = ORIENTED_EDGE('',*,*,#363,.T.);
#363 = EDGE_CURVE('',#285,#283,#364,.T.);
#364 = B_SPLINE_CURVE_WITH_KNOTS('',7,(#365,#366,#367,#368,#369,#370,
    #371,#372,#373,#374,#375,#376,#377,#378,#379,#380,#381,#382,#383,
    #384,#385,#386,#387,#388,#389,#390,#391,#392,#393,#394,#395,#396,
    #397,#398,#399,#400,#401,#402,#403,#404,#405,#406,#407,#408,#409,
    #410,#411,#412,#413,#414,#415,#416,#417,#418,#419,#420,#421,#422,
    #423,#424,#425,#426,#427,#428,#429,#430,#431,#432,#433,#434,#435,
    #436,#437,#438),.UNSPECIFIED.,.F.,.F.,(8,6,6,6,6,6,6,6,6,6,6,6,8),(
    0.,6.23719004048E-02,9.186609831274E-02,0.146691077289,
    0.217096354963,0.277556449434,0.500173361718,0.704371276717,
    0.760112466339,0.826160548074,0.896499801042,0.930988914268,1.),
  .UNSPECIFIED.);
#365 = CARTESIAN_POINT('',(12.631480246285,17.928932188135,
    36.578932188135));
#366 = CARTESIAN_POINT('',(12.631480246285,18.004151935009,
    36.578932188135));
#367 = CARTESIAN_POINT('',(12.625507980854,18.079334638604,
    36.574931548627));
#368 = CARTESIAN_POINT('',(12.613574876546,18.153865643606,
    36.566937499663));
#369 = CARTESIAN_POINT('',(12.595801604865,18.227145468249,
    36.555091882306));
#370 = CARTESIAN_POINT('',(12.572413503001,18.29861787821,
    36.539664079285));
#371 = CARTESIAN_POINT('',(12.543740891848,18.367794762427,
    36.521030537472));
#372 = CARTESIAN_POINT('',(12.494375082872,18.465716073493,
    36.489526219642));
#373 = CARTESIAN_POINT('',(12.477437727714,18.496561741608,
    36.47879210255));
#374 = CARTESIAN_POINT('',(12.459450842476,18.526785158251,
    36.467481131379));
#375 = CARTESIAN_POINT('',(12.440455457516,18.556360177194,
    36.455637910753));
#376 = CARTESIAN_POINT('',(12.420495150156,18.585264148555,
    36.443308577775));
#377 = CARTESIAN_POINT('',(12.399616177924,18.613477904437,
    36.430540330331));
#378 = CARTESIAN_POINT('',(12.337440518851,18.692118403317,
    36.392919789981));
#379 = CARTESIAN_POINT('',(12.294037419088,18.740776202713,
    36.367124366459));
#380 = CARTESIAN_POINT('',(12.247911034701,18.786950579003,
    36.340263304592));
#381 = CARTESIAN_POINT('',(12.199315559213,18.830654193259,
    36.312595631412));
#382 = CARTESIAN_POINT('',(12.148507890513,18.871919757582,
    36.28436721618));
#383 = CARTESIAN_POINT('',(12.09574886388,18.91079886131,36.255807205342
    ));
#384 = CARTESIAN_POINT('',(11.971387967332,18.9943129949,36.190290575086
    ));
#385 = CARTESIAN_POINT('',(11.898662977192,19.037462838021,
    36.153239203511));
#386 = CARTESIAN_POINT('',(11.823515642126,19.077064502716,
    36.116322509823));
#387 = CARTESIAN_POINT('',(11.746287147398,19.113371509704,
    36.079828857275));
#388 = CARTESIAN_POINT('',(11.667281579974,19.146631990781,
    36.043992161601));
#389 = CARTESIAN_POINT('',(11.586773772491,19.177083955307,
    36.00900124731));
#390 = CARTESIAN_POINT('',(11.4348091536,19.228880827386,35.945818748119
    ));
#391 = CARTESIAN_POINT('',(11.363644366648,19.250916898188,
    35.917349955401));
#392 = CARTESIAN_POINT('',(11.2916441417,19.271209343159,35.889685418827
    ));
#393 = CARTESIAN_POINT('',(11.218914361403,19.289896979767,
    35.862890103239));
#394 = CARTESIAN_POINT('',(11.145545181053,19.307107568376,
    35.837014037691));
#395 = CARTESIAN_POINT('',(11.071610773943,19.32295851172,
    35.812095007805));
#396 = CARTESIAN_POINT('',(10.723071245155,19.391311916314,
    35.700036019041));
#397 = CARTESIAN_POINT('',(10.441625823589,19.428186177534,
    35.625117461877));
#398 = CARTESIAN_POINT('',(10.156166231648,19.45334417021,
    35.565051590344));
#399 = CARTESIAN_POINT('',(9.868587876181,19.470145141203,
    35.520062468494));
#400 = CARTESIAN_POINT('',(9.579819685681,19.480670344482,
    35.490060940158));
#401 = CARTESIAN_POINT('',(9.290228963583,19.485951759253,35.475));
#402 = CARTESIAN_POINT('',(8.733784155806,19.485951759253,35.475));
#403 = CARTESIAN_POINT('',(8.467951002423,19.481507896244,
    35.487671755074));
#404 = CARTESIAN_POINT('',(8.20275260816,19.47264132078,35.512949102602)
  );
#405 = CARTESIAN_POINT('',(7.938542014807,19.458622378294,
    35.550851826798));
#406 = CARTESIAN_POINT('',(7.676008105234,19.437982037193,
    35.601422860061));
#407 = CARTESIAN_POINT('',(7.416433043962,19.408377748971,
    35.664523325027));
#408 = CARTESIAN_POINT('',(7.092526436348,19.354770423819,
    35.759614605544));
#409 = CARTESIAN_POINT('',(7.023429267851,19.342339428475,
    35.780876395978));
#410 = CARTESIAN_POINT('',(6.954728019147,19.328898133093,
    35.802993517807));
#411 = CARTESIAN_POINT('',(6.886467770867,19.31436491581,35.825945688558
    ));
#412 = CARTESIAN_POINT('',(6.818703816157,19.298650881755,
    35.849705915768));
#413 = CARTESIAN_POINT('',(6.751501537276,19.281659383737,
    35.874238929046));
#414 = CARTESIAN_POINT('',(6.606062698099,19.241514264895,35.92943115236
    ));
#415 = CARTESIAN_POINT('',(6.528067863957,19.217797984199,
    35.960390234206));
#416 = CARTESIAN_POINT('',(6.451088061407,19.191962977085,
    35.992298720934));
#417 = CARTESIAN_POINT('',(6.375287204751,19.163823342906,
    36.025054625467));
#418 = CARTESIAN_POINT('',(6.300856423821,19.133180718875,
    36.058527211805));
#419 = CARTESIAN_POINT('',(6.228013646844,19.099823994792,
    36.092552096451));
#420 = CARTESIAN_POINT('',(6.081379140501,19.024875961708,
    36.163533912717));
#421 = CARTESIAN_POINT('',(6.007738253978,18.982841521705,36.20058351925
    ));
#422 = CARTESIAN_POINT('',(5.936550109577,18.937223490131,
    36.237752992095));
#423 = CARTESIAN_POINT('',(5.868274948978,18.887828419937,
    36.274671165677));
#424 = CARTESIAN_POINT('',(5.803377805592,18.834484067086,
    36.310915305245));
#425 = CARTESIAN_POINT('',(5.742342640472,18.777051822985,
    36.346008525924));
#426 = CARTESIAN_POINT('',(5.657906530153,18.685228894869,
    36.395798334686));
#427 = CARTESIAN_POINT('',(5.631194723632,18.654030273923,
    36.411765481784));
#428 = CARTESIAN_POINT('',(5.605630105303,18.621856150163,
    36.427244828961));
#429 = CARTESIAN_POINT('',(5.58128755372,18.588725216587,36.442162174791
    ));
#430 = CARTESIAN_POINT('',(5.558238034292,18.5546620601,36.456443842212)
  );
#431 = CARTESIAN_POINT('',(5.536548854208,18.519697228511,
    36.470017580222));
#432 = CARTESIAN_POINT('',(5.475734736447,18.412173298838,
    36.508417427458));
#433 = CARTESIAN_POINT('',(5.440848673201,18.336946764934,
    36.530931660552));
#434 = CARTESIAN_POINT('',(5.412274460404,18.258670637745,
    36.549712527945));
#435 = CARTESIAN_POINT('',(5.390498236902,18.177968039564,
    36.564208779993));
#436 = CARTESIAN_POINT('',(5.375853028534,18.095570992878,
    36.574019918831));
#437 = CARTESIAN_POINT('',(5.368519753715,18.012282529376,
    36.578932188135));
#438 = CARTESIAN_POINT('',(5.368519753715,17.928932188135,
    36.578932188135));
#439 = CYLINDRICAL_SURFACE('',#440,6.525);
#440 = AXIS2_PLACEMENT_3D('',#441,#442,#443);
#441 = CARTESIAN_POINT('',(9.,-1.,42.));
#442 = DIRECTION('',(0.,1.,0.));
#443 = DIRECTION('',(0.,-0.,1.));
#444 = ADVANCED_FACE('',(#445),#524,.F.);
#445 = FACE_BOUND('',#446,.F.);
#446 = EDGE_LOOP('',(#447,#457,#466,#474,#483,#491,#498,#499,#508,#517)
  );
#447 = ORIENTED_EDGE('',*,*,#448,.T.);
#448 = EDGE_CURVE('',#449,#451,#453,.T.);
#449 = VERTEX_POINT('',#450);
#450 = CARTESIAN_POINT('',(0.65,10.,0.));
#451 = VERTEX_POINT('',#452);
#452 = CARTESIAN_POINT('',(0.65,10.,7.));
#453 = LINE('',#454,#455);
#454 = CARTESIAN_POINT('',(0.65,10.,-1.));
#455 = VECTOR('',#456,1.);
#456 = DIRECTION('',(0.,0.,1.));
#457 = ORIENTED_EDGE('',*,*,#458,.F.);
#458 = EDGE_CURVE('',#459,#451,#461,.T.);
#459 = VERTEX_POINT('',#460);
#460 = CARTESIAN_POINT('',(-4.440892098501E-16,8.687559525159,7.));
#461 = CIRCLE('',#462,1.65);
#462 = AXIS2_PLACEMENT_3D('',#463,#464,#465);
#463 = CARTESIAN_POINT('',(-1.,10.,7.));
#464 = DIRECTION('',(0.,0.,1.));
#465 = DIRECTION('',(1.,0.,-0.));
#466 = ORIENTED_EDGE('',*,*,#467,.F.);
#467 = EDGE_CURVE('',#468,#459,#470,.T.);
#468 = VERTEX_POINT('',#469);
#469 = CARTESIAN_POINT('',(0.,8.687559525159,6.));
#470 = LINE('',#471,#472);
#471 = CARTESIAN_POINT('',(0.,8.687559525159,-1.));
#472 = VECTOR('',#473,1.);
#473 = DIRECTION('',(0.,0.,1.));
#474 = ORIENTED_EDGE('',*,*,#475,.F.);
#475 = EDGE_CURVE('',#476,#468,#478,.T.);
#476 = VERTEX_POINT('',#477);
#477 = CARTESIAN_POINT('',(0.,11.312440474841,6.));
#478 = CIRCLE('',#479,1.65);
#479 = AXIS2_PLACEMENT_3D('',#480,#481,#482);
#480 = CARTESIAN_POINT('',(-1.,10.,6.));
#481 = DIRECTION('',(0.,0.,1.));
#482 = DIRECTION('',(1.,0.,-0.));
#483 = ORIENTED_EDGE('',*,*,#484,.T.);
#484 = EDGE_CURVE('',#476,#485,#487,.T.);
#485 = VERTEX_POINT('',#486);
#486 = CARTESIAN_POINT('',(0.,11.312440474841,7.));
#487 = LINE('',#488,#489);
#488 = CARTESIAN_POINT('',(0.,11.312440474841,-1.));
#489 = VECTOR('',#490,1.);
#490 = DIRECTION('',(0.,0.,1.));
#491 = ORIENTED_EDGE('',*,*,#492,.F.);
#492 = EDGE_CURVE('',#451,#485,#493,.T.);
#493 = CIRCLE('',#494,1.65);
#494 = AXIS2_PLACEMENT_3D('',#495,#496,#497);
#495 = CARTESIAN_POINT('',(-1.,10.,7.));
#496 = DIRECTION('',(0.,0.,1.));
#497 = DIRECTION('',(1.,0.,-0.));
#498 = ORIENTED_EDGE('',*,*,#448,.F.);
#499 = ORIENTED_EDGE('',*,*,#500,.T.);
#500 = EDGE_CURVE('',#449,#501,#503,.T.);
#501 = VERTEX_POINT('',#502);
#502 = CARTESIAN_POINT('',(0.,11.312440474841,0.));
#503 = CIRCLE('',#504,1.65);
#504 = AXIS2_PLACEMENT_3D('',#505,#506,#507);
#505 = CARTESIAN_POINT('',(-1.,10.,0.));
#506 = DIRECTION('',(0.,0.,1.));
#507 = DIRECTION('',(1.,0.,-0.));
#508 = ORIENTED_EDGE('',*,*,#509,.T.);
#509 = EDGE_CURVE('',#501,#510,#512,.T.);
#510 = VERTEX_POINT('',#511);
#511 = CARTESIAN_POINT('',(0.,8.687559525159,0.));
#512 = CIRCLE('',#513,1.65);
#513 = AXIS2_PLACEMENT_3D('',#514,#515,#516);
#514 = CARTESIAN_POINT('',(-1.,10.,0.));
#515 = DIRECTION('',(0.,0.,1.));
#516 = DIRECTION('',(1.,0.,-0.));
#517 = ORIENTED_EDGE('',*,*,#518,.T.);
#518 = EDGE_CURVE('',#510,#449,#519,.T.);
#519 = CIRCLE('',#520,1.65);
#520 = AXIS2_PLACEMENT_3D('',#521,#522,#523);
#521 = CARTESIAN_POINT('',(-1.,10.,0.));
#522 = DIRECTION('',(0.,0.,1.));
#523 = DIRECTION('',(1.,0.,-0.));
#524 = CYLINDRICAL_SURFACE('',#525,1.65);
#525 = AXIS2_PLACEMENT_3D('',#526,#527,#528);
#526 = CARTESIAN_POINT('',(-1.,10.,-1.));
#527 = DIRECTION('',(0.,0.,1.));
#528 = DIRECTION('',(1.,0.,-0.));
#529 = ADVANCED_FACE('',(#530,#610,#621,#632,#643),#654,.F.);
#530 = FACE_BOUND('',#531,.F.);
#531 = EDGE_LOOP('',(#532,#542,#548,#549,#555,#556,#564,#572,#580,#588,
    #596,#604));
#532 = ORIENTED_EDGE('',*,*,#533,.F.);
#533 = EDGE_CURVE('',#534,#536,#538,.T.);
#534 = VERTEX_POINT('',#535);
#535 = CARTESIAN_POINT('',(0.,0.,6.));
#536 = VERTEX_POINT('',#537);
#537 = CARTESIAN_POINT('',(0.,0.,58.));
#538 = LINE('',#539,#540);
#539 = CARTESIAN_POINT('',(0.,0.,0.));
#540 = VECTOR('',#541,1.);
#541 = DIRECTION('',(0.,0.,1.));
#542 = ORIENTED_EDGE('',*,*,#543,.F.);
#543 = EDGE_CURVE('',#468,#534,#544,.T.);
#544 = LINE('',#545,#546);
#545 = CARTESIAN_POINT('',(0.,0.,6.));
#546 = VECTOR('',#547,1.);
#547 = DIRECTION('',(0.,-1.,0.));
#548 = ORIENTED_EDGE('',*,*,#467,.T.);
#549 = ORIENTED_EDGE('',*,*,#550,.F.);
#550 = EDGE_CURVE('',#485,#459,#551,.T.);
#551 = LINE('',#552,#553);
#552 = CARTESIAN_POINT('',(0.,5.,7.));
#553 = VECTOR('',#554,1.);
#554 = DIRECTION('',(0.,-1.,0.));
#555 = ORIENTED_EDGE('',*,*,#484,.F.);
#556 = ORIENTED_EDGE('',*,*,#557,.F.);
#557 = EDGE_CURVE('',#558,#476,#560,.T.);
#558 = VERTEX_POINT('',#559);
#559 = CARTESIAN_POINT('',(0.,38.687559525159,6.));
#560 = LINE('',#561,#562);
#561 = CARTESIAN_POINT('',(0.,0.,6.));
#562 = VECTOR('',#563,1.);
#563 = DIRECTION('',(0.,-1.,0.));
#564 = ORIENTED_EDGE('',*,*,#565,.T.);
#565 = EDGE_CURVE('',#558,#566,#568,.T.);
#566 = VERTEX_POINT('',#567);
#567 = CARTESIAN_POINT('',(-4.440892098501E-16,38.687559525159,7.));
#568 = LINE('',#569,#570);
#569 = CARTESIAN_POINT('',(0.,38.687559525159,-1.));
#570 = VECTOR('',#571,1.);
#571 = DIRECTION('',(0.,0.,1.));
#572 = ORIENTED_EDGE('',*,*,#573,.F.);
#573 = EDGE_CURVE('',#574,#566,#576,.T.);
#574 = VERTEX_POINT('',#575);
#575 = CARTESIAN_POINT('',(0.,41.312440474841,7.));
#576 = LINE('',#577,#578);
#577 = CARTESIAN_POINT('',(0.,20.,7.));
#578 = VECTOR('',#579,1.);
#579 = DIRECTION('',(0.,-1.,0.));
#580 = ORIENTED_EDGE('',*,*,#581,.F.);
#581 = EDGE_CURVE('',#582,#574,#584,.T.);
#582 = VERTEX_POINT('',#583);
#583 = CARTESIAN_POINT('',(0.,41.312440474841,6.));
#584 = LINE('',#585,#586);
#585 = CARTESIAN_POINT('',(0.,41.312440474841,-1.));
#586 = VECTOR('',#587,1.);
#587 = DIRECTION('',(0.,0.,1.));
#588 = ORIENTED_EDGE('',*,*,#589,.F.);
#589 = EDGE_CURVE('',#590,#582,#592,.T.);
#590 = VERTEX_POINT('',#591);
#591 = CARTESIAN_POINT('',(0.,50.,6.));
#592 = LINE('',#593,#594);
#593 = CARTESIAN_POINT('',(0.,0.,6.));
#594 = VECTOR('',#595,1.);
#595 = DIRECTION('',(0.,-1.,0.));
#596 = ORIENTED_EDGE('',*,*,#597,.T.);
#597 = EDGE_CURVE('',#590,#598,#600,.T.);
#598 = VERTEX_POINT('',#599);
#599 = CARTESIAN_POINT('',(0.,50.,58.));
#600 = LINE('',#601,#602);
#601 = CARTESIAN_POINT('',(0.,50.,0.));
#602 = VECTOR('',#603,1.);
#603 = DIRECTION('',(0.,0.,1.));
#604 = ORIENTED_EDGE('',*,*,#605,.F.);
#605 = EDGE_CURVE('',#536,#598,#606,.T.);
#606 = LINE('',#607,#608);
#607 = CARTESIAN_POINT('',(0.,0.,58.));
#608 = VECTOR('',#609,1.);
#609 = DIRECTION('',(-0.,1.,0.));
#610 = FACE_BOUND('',#611,.F.);
#611 = EDGE_LOOP('',(#612));
#612 = ORIENTED_EDGE('',*,*,#613,.F.);
#613 = EDGE_CURVE('',#614,#614,#616,.T.);
#614 = VERTEX_POINT('',#615);
#615 = CARTESIAN_POINT('',(0.,32.071067811865,36.578932188135));
#616 = CIRCLE('',#617,1.65);
#617 = AXIS2_PLACEMENT_3D('',#618,#619,#620);
#618 = CARTESIAN_POINT('',(0.,32.071067811865,34.928932188135));
#619 = DIRECTION('',(1.,0.,0.));
#620 = DIRECTION('',(-0.,0.,1.));
#621 = FACE_BOUND('',#622,.F.);
#622 = EDGE_LOOP('',(#623));
#623 = ORIENTED_EDGE('',*,*,#624,.F.);
#624 = EDGE_CURVE('',#625,#625,#627,.T.);
#625 = VERTEX_POINT('',#626);
#626 = CARTESIAN_POINT('',(0.,32.071067811865,50.721067811865));
#627 = CIRCLE('',#628,1.65);
#628 = AXIS2_PLACEMENT_3D('',#629,#630,#631);
#629 = CARTESIAN_POINT('',(0.,32.071067811865,49.071067811865));
#630 = DIRECTION('',(1.,0.,0.));
#631 = DIRECTION('',(-0.,0.,1.));
#632 = FACE_BOUND('',#633,.F.);
#633 = EDGE_LOOP('',(#634));
#634 = ORIENTED_EDGE('',*,*,#635,.F.);
#635 = EDGE_CURVE('',#636,#636,#638,.T.);
#636 = VERTEX_POINT('',#637);
#637 = CARTESIAN_POINT('',(0.,17.928932188135,36.578932188135));
#638 = CIRCLE('',#639,1.65);
#639 = AXIS2_PLACEMENT_3D('',#640,#641,#642);
#640 = CARTESIAN_POINT('',(0.,17.928932188135,34.928932188135));
#641 = DIRECTION('',(1.,0.,0.));
#642 = DIRECTION('',(-0.,0.,1.));
#643 = FACE_BOUND('',#644,.F.);
#644 = EDGE_LOOP('',(#645));
#645 = ORIENTED_EDGE('',*,*,#646,.F.);
#646 = EDGE_CURVE('',#647,#647,#649,.T.);
#647 = VERTEX_POINT('',#648);
#648 = CARTESIAN_POINT('',(0.,17.928932188135,50.721067811865));
#649 = CIRCLE('',#650,1.65);
#650 = AXIS2_PLACEMENT_3D('',#651,#652,#653);
#651 = CARTESIAN_POINT('',(0.,17.928932188135,49.071067811865));
#652 = DIRECTION('',(1.,0.,0.));
#653 = DIRECTION('',(-0.,0.,1.));
#654 = PLANE('',#655);
#655 = AXIS2_PLACEMENT_3D('',#656,#657,#658);
#656 = CARTESIAN_POINT('',(0.,0.,0.));
#657 = DIRECTION('',(1.,0.,-0.));
#658 = DIRECTION('',(0.,0.,1.));
#659 = ADVANCED_FACE('',(#660),#721,.F.);
#660 = FACE_BOUND('',#661,.F.);
#661 = EDGE_LOOP('',(#662,#672,#679,#680,#687,#688,#695,#696,#705,#714)
  );
#662 = ORIENTED_EDGE('',*,*,#663,.T.);
#663 = EDGE_CURVE('',#664,#666,#668,.T.);
#664 = VERTEX_POINT('',#665);
#665 = CARTESIAN_POINT('',(0.65,40.,0.));
#666 = VERTEX_POINT('',#667);
#667 = CARTESIAN_POINT('',(0.65,40.,7.));
#668 = LINE('',#669,#670);
#669 = CARTESIAN_POINT('',(0.65,40.,-1.));
#670 = VECTOR('',#671,1.);
#671 = DIRECTION('',(0.,0.,1.));
#672 = ORIENTED_EDGE('',*,*,#673,.F.);
#673 = EDGE_CURVE('',#566,#666,#674,.T.);
#674 = CIRCLE('',#675,1.65);
#675 = AXIS2_PLACEMENT_3D('',#676,#677,#678);
#676 = CARTESIAN_POINT('',(-1.,40.,7.));
#677 = DIRECTION('',(0.,0.,1.));
#678 = DIRECTION('',(1.,0.,-0.));
#679 = ORIENTED_EDGE('',*,*,#565,.F.);
#680 = ORIENTED_EDGE('',*,*,#681,.F.);
#681 = EDGE_CURVE('',#582,#558,#682,.T.);
#682 = CIRCLE('',#683,1.65);
#683 = AXIS2_PLACEMENT_3D('',#684,#685,#686);
#684 = CARTESIAN_POINT('',(-1.,40.,6.));
#685 = DIRECTION('',(0.,0.,1.));
#686 = DIRECTION('',(1.,0.,-0.));
#687 = ORIENTED_EDGE('',*,*,#581,.T.);
#688 = ORIENTED_EDGE('',*,*,#689,.F.);
#689 = EDGE_CURVE('',#666,#574,#690,.T.);
#690 = CIRCLE('',#691,1.65);
#691 = AXIS2_PLACEMENT_3D('',#692,#693,#694);
#692 = CARTESIAN_POINT('',(-1.,40.,7.));
#693 = DIRECTION('',(0.,0.,1.));
#694 = DIRECTION('',(1.,0.,-0.));
#695 = ORIENTED_EDGE('',*,*,#663,.F.);
#696 = ORIENTED_EDGE('',*,*,#697,.T.);
#697 = EDGE_CURVE('',#664,#698,#700,.T.);
#698 = VERTEX_POINT('',#699);
#699 = CARTESIAN_POINT('',(0.,41.312440474841,0.));
#700 = CIRCLE('',#701,1.65);
#701 = AXIS2_PLACEMENT_3D('',#702,#703,#704);
#702 = CARTESIAN_POINT('',(-1.,40.,0.));
#703 = DIRECTION('',(0.,0.,1.));
#704 = DIRECTION('',(1.,0.,-0.));
#705 = ORIENTED_EDGE('',*,*,#706,.T.);
#706 = EDGE_CURVE('',#698,#707,#709,.T.);
#707 = VERTEX_POINT('',#708);
#708 = CARTESIAN_POINT('',(0.,38.687559525159,0.));
#709 = CIRCLE('',#710,1.65);
#710 = AXIS2_PLACEMENT_3D('',#711,#712,#713);
#711 = CARTESIAN_POINT('',(-1.,40.,0.));
#712 = DIRECTION('',(0.,0.,1.));
#713 = DIRECTION('',(1.,0.,-0.));
#714 = ORIENTED_EDGE('',*,*,#715,.T.);
#715 = EDGE_CURVE('',#707,#664,#716,.T.);
#716 = CIRCLE('',#717,1.65);
#717 = AXIS2_PLACEMENT_3D('',#718,#719,#720);
#718 = CARTESIAN_POINT('',(-1.,40.,0.));
#719 = DIRECTION('',(0.,0.,1.));
#720 = DIRECTION('',(1.,0.,-0.));
#721 = CYLINDRICAL_SURFACE('',#722,1.65);
#722 = AXIS2_PLACEMENT_3D('',#723,#724,#725);
#723 = CARTESIAN_POINT('',(-1.,40.,-1.));
#724 = DIRECTION('',(0.,0.,1.));
#725 = DIRECTION('',(1.,0.,-0.));
#726 = ADVANCED_FACE('',(#727),#752,.T.);
#727 = FACE_BOUND('',#728,.T.);
#728 = EDGE_LOOP('',(#729,#730,#738,#746));
#729 = ORIENTED_EDGE('',*,*,#605,.F.);
#730 = ORIENTED_EDGE('',*,*,#731,.T.);
#731 = EDGE_CURVE('',#536,#732,#734,.T.);
#732 = VERTEX_POINT('',#733);
#733 = CARTESIAN_POINT('',(18.,0.,58.));
#734 = LINE('',#735,#736);
#735 = CARTESIAN_POINT('',(0.,0.,58.));
#736 = VECTOR('',#737,1.);
#737 = DIRECTION('',(1.,0.,-0.));
#738 = ORIENTED_EDGE('',*,*,#739,.T.);
#739 = EDGE_CURVE('',#732,#740,#742,.T.);
#740 = VERTEX_POINT('',#741);
#741 = CARTESIAN_POINT('',(18.,50.,58.));
#742 = LINE('',#743,#744);
#743 = CARTESIAN_POINT('',(18.,0.,58.));
#744 = VECTOR('',#745,1.);
#745 = DIRECTION('',(-0.,1.,0.));
#746 = ORIENTED_EDGE('',*,*,#747,.F.);
#747 = EDGE_CURVE('',#598,#740,#748,.T.);
#748 = LINE('',#749,#750);
#749 = CARTESIAN_POINT('',(0.,50.,58.));
#750 = VECTOR('',#751,1.);
#751 = DIRECTION('',(1.,0.,-0.));
#752 = PLANE('',#753);
#753 = AXIS2_PLACEMENT_3D('',#754,#755,#756);
#754 = CARTESIAN_POINT('',(0.,0.,58.));
#755 = DIRECTION('',(0.,0.,1.));
#756 = DIRECTION('',(1.,0.,-0.));
#757 = ADVANCED_FACE('',(#758),#792,.T.);
#758 = FACE_BOUND('',#759,.T.);
#759 = EDGE_LOOP('',(#760,#770,#778,#786));
#760 = ORIENTED_EDGE('',*,*,#761,.F.);
#761 = EDGE_CURVE('',#762,#764,#766,.T.);
#762 = VERTEX_POINT('',#763);
#763 = CARTESIAN_POINT('',(26.,0.,0.));
#764 = VERTEX_POINT('',#765);
#765 = CARTESIAN_POINT('',(26.,0.,6.));
#766 = LINE('',#767,#768);
#767 = CARTESIAN_POINT('',(26.,0.,0.));
#768 = VECTOR('',#769,1.);
#769 = DIRECTION('',(0.,0.,1.));
#770 = ORIENTED_EDGE('',*,*,#771,.T.);
#771 = EDGE_CURVE('',#762,#772,#774,.T.);
#772 = VERTEX_POINT('',#773);
#773 = CARTESIAN_POINT('',(26.,50.,0.));
#774 = LINE('',#775,#776);
#775 = CARTESIAN_POINT('',(26.,0.,0.));
#776 = VECTOR('',#777,1.);
#777 = DIRECTION('',(-0.,1.,0.));
#778 = ORIENTED_EDGE('',*,*,#779,.T.);
#779 = EDGE_CURVE('',#772,#780,#782,.T.);
#780 = VERTEX_POINT('',#781);
#781 = CARTESIAN_POINT('',(26.,50.,6.));
#782 = LINE('',#783,#784);
#783 = CARTESIAN_POINT('',(26.,50.,0.));
#784 = VECTOR('',#785,1.);
#785 = DIRECTION('',(0.,0.,1.));
#786 = ORIENTED_EDGE('',*,*,#787,.F.);
#787 = EDGE_CURVE('',#764,#780,#788,.T.);
#788 = LINE('',#789,#790);
#789 = CARTESIAN_POINT('',(26.,0.,6.));
#790 = VECTOR('',#791,1.);
#791 = DIRECTION('',(-0.,1.,0.));
#792 = PLANE('',#793);
#793 = AXIS2_PLACEMENT_3D('',#794,#795,#796);
#794 = CARTESIAN_POINT('',(26.,0.,0.));
#795 = DIRECTION('',(1.,0.,-0.));
#796 = DIRECTION('',(0.,0.,1.));
#797 = ADVANCED_FACE('',(#798),#875,.T.);
#798 = FACE_BOUND('',#799,.T.);
#799 = EDGE_LOOP('',(#800,#808,#816,#825,#834,#842,#851,#860,#868,#874)
  );
#800 = ORIENTED_EDGE('',*,*,#801,.F.);
#801 = EDGE_CURVE('',#802,#780,#804,.T.);
#802 = VERTEX_POINT('',#803);
#803 = CARTESIAN_POINT('',(18.,50.,6.));
#804 = LINE('',#805,#806);
#805 = CARTESIAN_POINT('',(-8.,50.,6.));
#806 = VECTOR('',#807,1.);
#807 = DIRECTION('',(1.,0.,-0.));
#808 = ORIENTED_EDGE('',*,*,#809,.T.);
#809 = EDGE_CURVE('',#802,#810,#812,.T.);
#810 = VERTEX_POINT('',#811);
#811 = CARTESIAN_POINT('',(18.,41.312440474841,6.));
#812 = LINE('',#813,#814);
#813 = CARTESIAN_POINT('',(18.,0.,6.));
#814 = VECTOR('',#815,1.);
#815 = DIRECTION('',(0.,-1.,0.));
#816 = ORIENTED_EDGE('',*,*,#817,.F.);
#817 = EDGE_CURVE('',#818,#810,#820,.T.);
#818 = VERTEX_POINT('',#819);
#819 = CARTESIAN_POINT('',(20.65,40.,6.));
#820 = CIRCLE('',#821,1.65);
#821 = AXIS2_PLACEMENT_3D('',#822,#823,#824);
#822 = CARTESIAN_POINT('',(19.,40.,6.));
#823 = DIRECTION('',(0.,0.,1.));
#824 = DIRECTION('',(1.,0.,-0.));
#825 = ORIENTED_EDGE('',*,*,#826,.F.);
#826 = EDGE_CURVE('',#827,#818,#829,.T.);
#827 = VERTEX_POINT('',#828);
#828 = CARTESIAN_POINT('',(18.,38.687559525159,6.));
#829 = CIRCLE('',#830,1.65);
#830 = AXIS2_PLACEMENT_3D('',#831,#832,#833);
#831 = CARTESIAN_POINT('',(19.,40.,6.));
#832 = DIRECTION('',(0.,0.,1.));
#833 = DIRECTION('',(1.,0.,-0.));
#834 = ORIENTED_EDGE('',*,*,#835,.T.);
#835 = EDGE_CURVE('',#827,#836,#838,.T.);
#836 = VERTEX_POINT('',#837);
#837 = CARTESIAN_POINT('',(18.,11.312440474841,6.));
#838 = LINE('',#839,#840);
#839 = CARTESIAN_POINT('',(18.,0.,6.));
#840 = VECTOR('',#841,1.);
#841 = DIRECTION('',(0.,-1.,0.));
#842 = ORIENTED_EDGE('',*,*,#843,.F.);
#843 = EDGE_CURVE('',#844,#836,#846,.T.);
#844 = VERTEX_POINT('',#845);
#845 = CARTESIAN_POINT('',(20.65,10.,6.));
#846 = CIRCLE('',#847,1.65);
#847 = AXIS2_PLACEMENT_3D('',#848,#849,#850);
#848 = CARTESIAN_POINT('',(19.,10.,6.));
#849 = DIRECTION('',(0.,0.,1.));
#850 = DIRECTION('',(1.,0.,-0.));
#851 = ORIENTED_EDGE('',*,*,#852,.F.);
#852 = EDGE_CURVE('',#853,#844,#855,.T.);
#853 = VERTEX_POINT('',#854);
#854 = CARTESIAN_POINT('',(18.,8.687559525159,6.));
#855 = CIRCLE('',#856,1.65);
#856 = AXIS2_PLACEMENT_3D('',#857,#858,#859);
#857 = CARTESIAN_POINT('',(19.,10.,6.));
#858 = DIRECTION('',(0.,0.,1.));
#859 = DIRECTION('',(1.,0.,-0.));
#860 = ORIENTED_EDGE('',*,*,#861,.T.);
#861 = EDGE_CURVE('',#853,#862,#864,.T.);
#862 = VERTEX_POINT('',#863);
#863 = CARTESIAN_POINT('',(18.,0.,6.));
#864 = LINE('',#865,#866);
#865 = CARTESIAN_POINT('',(18.,0.,6.));
#866 = VECTOR('',#867,1.);
#867 = DIRECTION('',(0.,-1.,0.));
#868 = ORIENTED_EDGE('',*,*,#869,.T.);
#869 = EDGE_CURVE('',#862,#764,#870,.T.);
#870 = LINE('',#871,#872);
#871 = CARTESIAN_POINT('',(-8.,0.,6.));
#872 = VECTOR('',#873,1.);
#873 = DIRECTION('',(1.,0.,-0.));
#874 = ORIENTED_EDGE('',*,*,#787,.T.);
#875 = PLANE('',#876);
#876 = AXIS2_PLACEMENT_3D('',#877,#878,#879);
#877 = CARTESIAN_POINT('',(-8.,0.,6.));
#878 = DIRECTION('',(0.,0.,1.));
#879 = DIRECTION('',(1.,0.,-0.));
#880 = ADVANCED_FACE('',(#881),#942,.F.);
#881 = FACE_BOUND('',#882,.F.);
#882 = EDGE_LOOP('',(#883,#894,#900,#901,#909,#918,#927,#934,#935,#936)
  );
#883 = ORIENTED_EDGE('',*,*,#884,.F.);
#884 = EDGE_CURVE('',#885,#887,#889,.T.);
#885 = VERTEX_POINT('',#886);
#886 = CARTESIAN_POINT('',(18.,11.312440474841,7.));
#887 = VERTEX_POINT('',#888);
#888 = CARTESIAN_POINT('',(18.,8.687559525159,7.));
#889 = CIRCLE('',#890,1.65);
#890 = AXIS2_PLACEMENT_3D('',#891,#892,#893);
#891 = CARTESIAN_POINT('',(19.,10.,7.));
#892 = DIRECTION('',(0.,0.,1.));
#893 = DIRECTION('',(1.,0.,-0.));
#894 = ORIENTED_EDGE('',*,*,#895,.F.);
#895 = EDGE_CURVE('',#836,#885,#896,.T.);
#896 = LINE('',#897,#898);
#897 = CARTESIAN_POINT('',(18.,11.312440474841,-1.));
#898 = VECTOR('',#899,1.);
#899 = DIRECTION('',(0.,0.,1.));
#900 = ORIENTED_EDGE('',*,*,#843,.F.);
#901 = ORIENTED_EDGE('',*,*,#902,.F.);
#902 = EDGE_CURVE('',#903,#844,#905,.T.);
#903 = VERTEX_POINT('',#904);
#904 = CARTESIAN_POINT('',(20.65,10.,0.));
#905 = LINE('',#906,#907);
#906 = CARTESIAN_POINT('',(20.65,10.,-1.));
#907 = VECTOR('',#908,1.);
#908 = DIRECTION('',(0.,0.,1.));
#909 = ORIENTED_EDGE('',*,*,#910,.T.);
#910 = EDGE_CURVE('',#903,#911,#913,.T.);
#911 = VERTEX_POINT('',#912);
#912 = CARTESIAN_POINT('',(18.,11.312440474841,0.));
#913 = CIRCLE('',#914,1.65);
#914 = AXIS2_PLACEMENT_3D('',#915,#916,#917);
#915 = CARTESIAN_POINT('',(19.,10.,0.));
#916 = DIRECTION('',(0.,0.,1.));
#917 = DIRECTION('',(1.,0.,-0.));
#918 = ORIENTED_EDGE('',*,*,#919,.T.);
#919 = EDGE_CURVE('',#911,#920,#922,.T.);
#920 = VERTEX_POINT('',#921);
#921 = CARTESIAN_POINT('',(18.,8.687559525159,0.));
#922 = CIRCLE('',#923,1.65);
#923 = AXIS2_PLACEMENT_3D('',#924,#925,#926);
#924 = CARTESIAN_POINT('',(19.,10.,0.));
#925 = DIRECTION('',(0.,0.,1.));
#926 = DIRECTION('',(1.,0.,-0.));
#927 = ORIENTED_EDGE('',*,*,#928,.T.);
#928 = EDGE_CURVE('',#920,#903,#929,.T.);
#929 = CIRCLE('',#930,1.65);
#930 = AXIS2_PLACEMENT_3D('',#931,#932,#933);
#931 = CARTESIAN_POINT('',(19.,10.,0.));
#932 = DIRECTION('',(0.,0.,1.));
#933 = DIRECTION('',(1.,0.,-0.));
#934 = ORIENTED_EDGE('',*,*,#902,.T.);
#935 = ORIENTED_EDGE('',*,*,#852,.F.);
#936 = ORIENTED_EDGE('',*,*,#937,.T.);
#937 = EDGE_CURVE('',#853,#887,#938,.T.);
#938 = LINE('',#939,#940);
#939 = CARTESIAN_POINT('',(18.,8.687559525159,-1.));
#940 = VECTOR('',#941,1.);
#941 = DIRECTION('',(0.,0.,1.));
#942 = CYLINDRICAL_SURFACE('',#943,1.65);
#943 = AXIS2_PLACEMENT_3D('',#944,#945,#946);
#944 = CARTESIAN_POINT('',(19.,10.,-1.));
#945 = DIRECTION('',(0.,0.,1.));
#946 = DIRECTION('',(1.,0.,-0.));
#947 = ADVANCED_FACE('',(#948),#1009,.F.);
#948 = FACE_BOUND('',#949,.F.);
#949 = EDGE_LOOP('',(#950,#961,#967,#968,#976,#985,#994,#1001,#1002,
    #1003));
#950 = ORIENTED_EDGE('',*,*,#951,.F.);
#951 = EDGE_CURVE('',#952,#954,#956,.T.);
#952 = VERTEX_POINT('',#953);
#953 = CARTESIAN_POINT('',(18.,41.312440474841,7.));
#954 = VERTEX_POINT('',#955);
#955 = CARTESIAN_POINT('',(18.,38.687559525159,7.));
#956 = CIRCLE('',#957,1.65);
#957 = AXIS2_PLACEMENT_3D('',#958,#959,#960);
#958 = CARTESIAN_POINT('',(19.,40.,7.));
#959 = DIRECTION('',(0.,0.,1.));
#960 = DIRECTION('',(1.,0.,-0.));
#961 = ORIENTED_EDGE('',*,*,#962,.F.);
#962 = EDGE_CURVE('',#810,#952,#963,.T.);
#963 = LINE('',#964,#965);
#964 = CARTESIAN_POINT('',(18.,41.312440474841,-1.));
#965 = VECTOR('',#966,1.);
#966 = DIRECTION('',(0.,0.,1.));
#967 = ORIENTED_EDGE('',*,*,#817,.F.);
#968 = ORIENTED_EDGE('',*,*,#969,.F.);
#969 = EDGE_CURVE('',#970,#818,#972,.T.);
#970 = VERTEX_POINT('',#971);
#971 = CARTESIAN_POINT('',(20.65,40.,0.));
#972 = LINE('',#973,#974);
#973 = CARTESIAN_POINT('',(20.65,40.,-1.));
#974 = VECTOR('',#975,1.);
#975 = DIRECTION('',(0.,0.,1.));
#976 = ORIENTED_EDGE('',*,*,#977,.T.);
#977 = EDGE_CURVE('',#970,#978,#980,.T.);
#978 = VERTEX_POINT('',#979);
#979 = CARTESIAN_POINT('',(18.,41.312440474841,0.));
#980 = CIRCLE('',#981,1.65);
#981 = AXIS2_PLACEMENT_3D('',#982,#983,#984);
#982 = CARTESIAN_POINT('',(19.,40.,0.));
#983 = DIRECTION('',(0.,0.,1.));
#984 = DIRECTION('',(1.,0.,-0.));
#985 = ORIENTED_EDGE('',*,*,#986,.T.);
#986 = EDGE_CURVE('',#978,#987,#989,.T.);
#987 = VERTEX_POINT('',#988);
#988 = CARTESIAN_POINT('',(18.,38.687559525159,0.));
#989 = CIRCLE('',#990,1.65);
#990 = AXIS2_PLACEMENT_3D('',#991,#992,#993);
#991 = CARTESIAN_POINT('',(19.,40.,0.));
#992 = DIRECTION('',(0.,0.,1.));
#993 = DIRECTION('',(1.,0.,-0.));
#994 = ORIENTED_EDGE('',*,*,#995,.T.);
#995 = EDGE_CURVE('',#987,#970,#996,.T.);
#996 = CIRCLE('',#997,1.65);
#997 = AXIS2_PLACEMENT_3D('',#998,#999,#1000);
#998 = CARTESIAN_POINT('',(19.,40.,0.));
#999 = DIRECTION('',(0.,0.,1.));
#1000 = DIRECTION('',(1.,0.,-0.));
#1001 = ORIENTED_EDGE('',*,*,#969,.T.);
#1002 = ORIENTED_EDGE('',*,*,#826,.F.);
#1003 = ORIENTED_EDGE('',*,*,#1004,.T.);
#1004 = EDGE_CURVE('',#827,#954,#1005,.T.);
#1005 = LINE('',#1006,#1007);
#1006 = CARTESIAN_POINT('',(18.,38.687559525159,-1.));
#1007 = VECTOR('',#1008,1.);
#1008 = DIRECTION('',(0.,0.,1.));
#1009 = CYLINDRICAL_SURFACE('',#1010,1.65);
#1010 = AXIS2_PLACEMENT_3D('',#1011,#1012,#1013);
#1011 = CARTESIAN_POINT('',(19.,40.,-1.));
#1012 = DIRECTION('',(0.,0.,1.));
#1013 = DIRECTION('',(1.,0.,-0.));
#1014 = ADVANCED_FACE('',(#1015,#1049,#1060,#1071,#1082),#1093,.T.);
#1015 = FACE_BOUND('',#1016,.T.);
#1016 = EDGE_LOOP('',(#1017,#1023,#1024,#1025,#1031,#1032,#1033,#1034,
    #1040,#1041,#1042,#1048));
#1017 = ORIENTED_EDGE('',*,*,#1018,.F.);
#1018 = EDGE_CURVE('',#862,#732,#1019,.T.);
#1019 = LINE('',#1020,#1021);
#1020 = CARTESIAN_POINT('',(18.,0.,0.));
#1021 = VECTOR('',#1022,1.);
#1022 = DIRECTION('',(0.,0.,1.));
#1023 = ORIENTED_EDGE('',*,*,#861,.F.);
#1024 = ORIENTED_EDGE('',*,*,#937,.T.);
#1025 = ORIENTED_EDGE('',*,*,#1026,.F.);
#1026 = EDGE_CURVE('',#885,#887,#1027,.T.);
#1027 = LINE('',#1028,#1029);
#1028 = CARTESIAN_POINT('',(18.,5.,7.));
#1029 = VECTOR('',#1030,1.);
#1030 = DIRECTION('',(0.,-1.,0.));
#1031 = ORIENTED_EDGE('',*,*,#895,.F.);
#1032 = ORIENTED_EDGE('',*,*,#835,.F.);
#1033 = ORIENTED_EDGE('',*,*,#1004,.T.);
#1034 = ORIENTED_EDGE('',*,*,#1035,.F.);
#1035 = EDGE_CURVE('',#952,#954,#1036,.T.);
#1036 = LINE('',#1037,#1038);
#1037 = CARTESIAN_POINT('',(18.,20.,7.));
#1038 = VECTOR('',#1039,1.);
#1039 = DIRECTION('',(0.,-1.,0.));
#1040 = ORIENTED_EDGE('',*,*,#962,.F.);
#1041 = ORIENTED_EDGE('',*,*,#809,.F.);
#1042 = ORIENTED_EDGE('',*,*,#1043,.T.);
#1043 = EDGE_CURVE('',#802,#740,#1044,.T.);
#1044 = LINE('',#1045,#1046);
#1045 = CARTESIAN_POINT('',(18.,50.,0.));
#1046 = VECTOR('',#1047,1.);
#1047 = DIRECTION('',(0.,0.,1.));
#1048 = ORIENTED_EDGE('',*,*,#739,.F.);
#1049 = FACE_BOUND('',#1050,.T.);
#1050 = EDGE_LOOP('',(#1051));
#1051 = ORIENTED_EDGE('',*,*,#1052,.F.);
#1052 = EDGE_CURVE('',#1053,#1053,#1055,.T.);
#1053 = VERTEX_POINT('',#1054);
#1054 = CARTESIAN_POINT('',(18.,32.071067811865,36.578932188135));
#1055 = CIRCLE('',#1056,1.65);
#1056 = AXIS2_PLACEMENT_3D('',#1057,#1058,#1059);
#1057 = CARTESIAN_POINT('',(18.,32.071067811865,34.928932188135));
#1058 = DIRECTION('',(1.,0.,0.));
#1059 = DIRECTION('',(-0.,0.,1.));
#1060 = FACE_BOUND('',#1061,.T.);
#1061 = EDGE_LOOP('',(#1062));
#1062 = ORIENTED_EDGE('',*,*,#1063,.F.);
#1063 = EDGE_CURVE('',#1064,#1064,#1066,.T.);
#1064 = VERTEX_POINT('',#1065);
#1065 = CARTESIAN_POINT('',(18.,32.071067811865,50.721067811865));
#1066 = CIRCLE('',#1067,1.65);
#1067 = AXIS2_PLACEMENT_3D('',#1068,#1069,#1070);
#1068 = CARTESIAN_POINT('',(18.,32.071067811865,49.071067811865));
#1069 = DIRECTION('',(1.,0.,0.));
#1070 = DIRECTION('',(-0.,0.,1.));
#1071 = FACE_BOUND('',#1072,.T.);
#1072 = EDGE_LOOP('',(#1073));
#1073 = ORIENTED_EDGE('',*,*,#1074,.F.);
#1074 = EDGE_CURVE('',#1075,#1075,#1077,.T.);
#1075 = VERTEX_POINT('',#1076);
#1076 = CARTESIAN_POINT('',(18.,17.928932188135,36.578932188135));
#1077 = CIRCLE('',#1078,1.65);
#1078 = AXIS2_PLACEMENT_3D('',#1079,#1080,#1081);
#1079 = CARTESIAN_POINT('',(18.,17.928932188135,34.928932188135));
#1080 = DIRECTION('',(1.,0.,0.));
#1081 = DIRECTION('',(-0.,0.,1.));
#1082 = FACE_BOUND('',#1083,.T.);
#1083 = EDGE_LOOP('',(#1084));
#1084 = ORIENTED_EDGE('',*,*,#1085,.F.);
#1085 = EDGE_CURVE('',#1086,#1086,#1088,.T.);
#1086 = VERTEX_POINT('',#1087);
#1087 = CARTESIAN_POINT('',(18.,17.928932188135,50.721067811865));
#1088 = CIRCLE('',#1089,1.65);
#1089 = AXIS2_PLACEMENT_3D('',#1090,#1091,#1092);
#1090 = CARTESIAN_POINT('',(18.,17.928932188135,49.071067811865));
#1091 = DIRECTION('',(1.,0.,0.));
#1092 = DIRECTION('',(-0.,0.,1.));
#1093 = PLANE('',#1094);
#1094 = AXIS2_PLACEMENT_3D('',#1095,#1096,#1097);
#1095 = CARTESIAN_POINT('',(18.,0.,0.));
#1096 = DIRECTION('',(1.,0.,-0.));
#1097 = DIRECTION('',(0.,0.,1.));
#1098 = ADVANCED_FACE('',(#1099),#1128,.T.);
#1099 = FACE_BOUND('',#1100,.T.);
#1100 = EDGE_LOOP('',(#1101,#1109,#1117,#1123,#1124,#1125,#1126,#1127));
#1101 = ORIENTED_EDGE('',*,*,#1102,.F.);
#1102 = EDGE_CURVE('',#1103,#590,#1105,.T.);
#1103 = VERTEX_POINT('',#1104);
#1104 = CARTESIAN_POINT('',(-8.,50.,6.));
#1105 = LINE('',#1106,#1107);
#1106 = CARTESIAN_POINT('',(-8.,50.,6.));
#1107 = VECTOR('',#1108,1.);
#1108 = DIRECTION('',(1.,0.,-0.));
#1109 = ORIENTED_EDGE('',*,*,#1110,.F.);
#1110 = EDGE_CURVE('',#1111,#1103,#1113,.T.);
#1111 = VERTEX_POINT('',#1112);
#1112 = CARTESIAN_POINT('',(-8.,0.,6.));
#1113 = LINE('',#1114,#1115);
#1114 = CARTESIAN_POINT('',(-8.,0.,6.));
#1115 = VECTOR('',#1116,1.);
#1116 = DIRECTION('',(-0.,1.,0.));
#1117 = ORIENTED_EDGE('',*,*,#1118,.T.);
#1118 = EDGE_CURVE('',#1111,#534,#1119,.T.);
#1119 = LINE('',#1120,#1121);
#1120 = CARTESIAN_POINT('',(-8.,0.,6.));
#1121 = VECTOR('',#1122,1.);
#1122 = DIRECTION('',(1.,0.,-0.));
#1123 = ORIENTED_EDGE('',*,*,#543,.F.);
#1124 = ORIENTED_EDGE('',*,*,#475,.F.);
#1125 = ORIENTED_EDGE('',*,*,#557,.F.);
#1126 = ORIENTED_EDGE('',*,*,#681,.F.);
#1127 = ORIENTED_EDGE('',*,*,#589,.F.);
#1128 = PLANE('',#1129);
#1129 = AXIS2_PLACEMENT_3D('',#1130,#1131,#1132);
#1130 = CARTESIAN_POINT('',(-8.,0.,6.));
#1131 = DIRECTION('',(0.,0.,1.));
#1132 = DIRECTION('',(1.,0.,-0.));
#1133 = ADVANCED_FACE('',(#1134),#1159,.F.);
#1134 = FACE_BOUND('',#1135,.F.);
#1135 = EDGE_LOOP('',(#1136,#1144,#1152,#1158));
#1136 = ORIENTED_EDGE('',*,*,#1137,.F.);
#1137 = EDGE_CURVE('',#1138,#1111,#1140,.T.);
#1138 = VERTEX_POINT('',#1139);
#1139 = CARTESIAN_POINT('',(-8.,0.,0.));
#1140 = LINE('',#1141,#1142);
#1141 = CARTESIAN_POINT('',(-8.,0.,0.));
#1142 = VECTOR('',#1143,1.);
#1143 = DIRECTION('',(0.,0.,1.));
#1144 = ORIENTED_EDGE('',*,*,#1145,.T.);
#1145 = EDGE_CURVE('',#1138,#1146,#1148,.T.);
#1146 = VERTEX_POINT('',#1147);
#1147 = CARTESIAN_POINT('',(-8.,50.,0.));
#1148 = LINE('',#1149,#1150);
#1149 = CARTESIAN_POINT('',(-8.,0.,0.));
#1150 = VECTOR('',#1151,1.);
#1151 = DIRECTION('',(-0.,1.,0.));
#1152 = ORIENTED_EDGE('',*,*,#1153,.T.);
#1153 = EDGE_CURVE('',#1146,#1103,#1154,.T.);
#1154 = LINE('',#1155,#1156);
#1155 = CARTESIAN_POINT('',(-8.,50.,0.));
#1156 = VECTOR('',#1157,1.);
#1157 = DIRECTION('',(0.,0.,1.));
#1158 = ORIENTED_EDGE('',*,*,#1110,.F.);
#1159 = PLANE('',#1160);
#1160 = AXIS2_PLACEMENT_3D('',#1161,#1162,#1163);
#1161 = CARTESIAN_POINT('',(-8.,0.,0.));
#1162 = DIRECTION('',(1.,0.,-0.));
#1163 = DIRECTION('',(0.,0.,1.));
#1164 = ADVANCED_FACE('',(#1165),#1170,.F.);
#1165 = FACE_BOUND('',#1166,.F.);
#1166 = EDGE_LOOP('',(#1167,#1168,#1169));
#1167 = ORIENTED_EDGE('',*,*,#458,.T.);
#1168 = ORIENTED_EDGE('',*,*,#492,.T.);
#1169 = ORIENTED_EDGE('',*,*,#550,.T.);
#1170 = PLANE('',#1171);
#1171 = AXIS2_PLACEMENT_3D('',#1172,#1173,#1174);
#1172 = CARTESIAN_POINT('',(-1.,10.,7.));
#1173 = DIRECTION('',(0.,0.,1.));
#1174 = DIRECTION('',(1.,0.,-0.));
#1175 = ADVANCED_FACE('',(#1176),#1181,.F.);
#1176 = FACE_BOUND('',#1177,.F.);
#1177 = EDGE_LOOP('',(#1178,#1179,#1180));
#1178 = ORIENTED_EDGE('',*,*,#673,.T.);
#1179 = ORIENTED_EDGE('',*,*,#689,.T.);
#1180 = ORIENTED_EDGE('',*,*,#573,.T.);
#1181 = PLANE('',#1182);
#1182 = AXIS2_PLACEMENT_3D('',#1183,#1184,#1185);
#1183 = CARTESIAN_POINT('',(-1.,40.,7.));
#1184 = DIRECTION('',(0.,0.,1.));
#1185 = DIRECTION('',(1.,0.,-0.));
#1186 = ADVANCED_FACE('',(#1187),#1191,.F.);
#1187 = FACE_BOUND('',#1188,.F.);
#1188 = EDGE_LOOP('',(#1189,#1190));
#1189 = ORIENTED_EDGE('',*,*,#1035,.F.);
#1190 = ORIENTED_EDGE('',*,*,#951,.T.);
#1191 = PLANE('',#1192);
#1192 = AXIS2_PLACEMENT_3D('',#1193,#1194,#1195);
#1193 = CARTESIAN_POINT('',(19.,40.,7.));
#1194 = DIRECTION('',(0.,0.,1.));
#1195 = DIRECTION('',(1.,0.,-0.));
#1196 = ADVANCED_FACE('',(#1197),#1201,.F.);
#1197 = FACE_BOUND('',#1198,.F.);
#1198 = EDGE_LOOP('',(#1199,#1200));
#1199 = ORIENTED_EDGE('',*,*,#1026,.F.);
#1200 = ORIENTED_EDGE('',*,*,#884,.T.);
#1201 = PLANE('',#1202);
#1202 = AXIS2_PLACEMENT_3D('',#1203,#1204,#1205);
#1203 = CARTESIAN_POINT('',(19.,10.,7.));
#1204 = DIRECTION('',(0.,0.,1.));
#1205 = DIRECTION('',(1.,0.,-0.));
#1206 = ADVANCED_FACE('',(#1207),#1218,.F.);
#1207 = FACE_BOUND('',#1208,.F.);
#1208 = EDGE_LOOP('',(#1209,#1210,#1216,#1217));
#1209 = ORIENTED_EDGE('',*,*,#1052,.F.);
#1210 = ORIENTED_EDGE('',*,*,#1211,.F.);
#1211 = EDGE_CURVE('',#614,#1053,#1212,.T.);
#1212 = LINE('',#1213,#1214);
#1213 = CARTESIAN_POINT('',(-1.,32.071067811865,36.578932188135));
#1214 = VECTOR('',#1215,1.);
#1215 = DIRECTION('',(1.,0.,0.));
#1216 = ORIENTED_EDGE('',*,*,#613,.T.);
#1217 = ORIENTED_EDGE('',*,*,#1211,.T.);
#1218 = CYLINDRICAL_SURFACE('',#1219,1.65);
#1219 = AXIS2_PLACEMENT_3D('',#1220,#1221,#1222);
#1220 = CARTESIAN_POINT('',(-1.,32.071067811865,34.928932188135));
#1221 = DIRECTION('',(1.,0.,0.));
#1222 = DIRECTION('',(-0.,0.,1.));
#1223 = ADVANCED_FACE('',(#1224),#1235,.F.);
#1224 = FACE_BOUND('',#1225,.F.);
#1225 = EDGE_LOOP('',(#1226,#1227,#1233,#1234));
#1226 = ORIENTED_EDGE('',*,*,#1063,.F.);
#1227 = ORIENTED_EDGE('',*,*,#1228,.F.);
#1228 = EDGE_CURVE('',#625,#1064,#1229,.T.);
#1229 = LINE('',#1230,#1231);
#1230 = CARTESIAN_POINT('',(-1.,32.071067811865,50.721067811865));
#1231 = VECTOR('',#1232,1.);
#1232 = DIRECTION('',(1.,0.,0.));
#1233 = ORIENTED_EDGE('',*,*,#624,.T.);
#1234 = ORIENTED_EDGE('',*,*,#1228,.T.);
#1235 = CYLINDRICAL_SURFACE('',#1236,1.65);
#1236 = AXIS2_PLACEMENT_3D('',#1237,#1238,#1239);
#1237 = CARTESIAN_POINT('',(-1.,32.071067811865,49.071067811865));
#1238 = DIRECTION('',(1.,0.,0.));
#1239 = DIRECTION('',(-0.,0.,1.));
#1240 = ADVANCED_FACE('',(#1241),#1261,.F.);
#1241 = FACE_BOUND('',#1242,.F.);
#1242 = EDGE_LOOP('',(#1243,#1244,#1250,#1251,#1257,#1258,#1259,#1260));
#1243 = ORIENTED_EDGE('',*,*,#1074,.F.);
#1244 = ORIENTED_EDGE('',*,*,#1245,.F.);
#1245 = EDGE_CURVE('',#285,#1075,#1246,.T.);
#1246 = LINE('',#1247,#1248);
#1247 = CARTESIAN_POINT('',(-1.,17.928932188135,36.578932188135));
#1248 = VECTOR('',#1249,1.);
#1249 = DIRECTION('',(1.,0.,0.));
#1250 = ORIENTED_EDGE('',*,*,#282,.F.);
#1251 = ORIENTED_EDGE('',*,*,#1252,.F.);
#1252 = EDGE_CURVE('',#636,#283,#1253,.T.);
#1253 = LINE('',#1254,#1255);
#1254 = CARTESIAN_POINT('',(-1.,17.928932188135,36.578932188135));
#1255 = VECTOR('',#1256,1.);
#1256 = DIRECTION('',(1.,0.,0.));
#1257 = ORIENTED_EDGE('',*,*,#635,.T.);
#1258 = ORIENTED_EDGE('',*,*,#1252,.T.);
#1259 = ORIENTED_EDGE('',*,*,#363,.F.);
#1260 = ORIENTED_EDGE('',*,*,#1245,.T.);
#1261 = CYLINDRICAL_SURFACE('',#1262,1.65);
#1262 = AXIS2_PLACEMENT_3D('',#1263,#1264,#1265);
#1263 = CARTESIAN_POINT('',(-1.,17.928932188135,34.928932188135));
#1264 = DIRECTION('',(1.,0.,0.));
#1265 = DIRECTION('',(-0.,0.,1.));
#1266 = ADVANCED_FACE('',(#1267,#1278),#1282,.F.);
#1267 = FACE_BOUND('',#1268,.F.);
#1268 = EDGE_LOOP('',(#1269,#1270,#1276,#1277));
#1269 = ORIENTED_EDGE('',*,*,#1085,.F.);
#1270 = ORIENTED_EDGE('',*,*,#1271,.F.);
#1271 = EDGE_CURVE('',#647,#1086,#1272,.T.);
#1272 = LINE('',#1273,#1274);
#1273 = CARTESIAN_POINT('',(-1.,17.928932188135,50.721067811865));
#1274 = VECTOR('',#1275,1.);
#1275 = DIRECTION('',(1.,0.,0.));
#1276 = ORIENTED_EDGE('',*,*,#646,.T.);
#1277 = ORIENTED_EDGE('',*,*,#1271,.T.);
#1278 = FACE_BOUND('',#1279,.F.);
#1279 = EDGE_LOOP('',(#1280,#1281));
#1280 = ORIENTED_EDGE('',*,*,#83,.F.);
#1281 = ORIENTED_EDGE('',*,*,#190,.T.);
#1282 = CYLINDRICAL_SURFACE('',#1283,1.65);
#1283 = AXIS2_PLACEMENT_3D('',#1284,#1285,#1286);
#1284 = CARTESIAN_POINT('',(-1.,17.928932188135,49.071067811865));
#1285 = DIRECTION('',(1.,0.,0.));
#1286 = DIRECTION('',(-0.,0.,1.));
#1287 = ADVANCED_FACE('',(#1288),#1291,.F.);
#1288 = FACE_BOUND('',#1289,.F.);
#1289 = EDGE_LOOP('',(#1290));
#1290 = ORIENTED_EDGE('',*,*,#182,.T.);
#1291 = PLANE('',#1292);
#1292 = AXIS2_PLACEMENT_3D('',#1293,#1294,#1295);
#1293 = CARTESIAN_POINT('',(9.,21.,42.));
#1294 = DIRECTION('',(0.,1.,0.));
#1295 = DIRECTION('',(0.,-0.,1.));
#1296 = ADVANCED_FACE('',(#1297,#1312),#1315,.T.);
#1297 = FACE_BOUND('',#1298,.T.);
#1298 = EDGE_LOOP('',(#1299,#1300,#1301,#1302,#1303,#1304,#1305,#1306));
#1299 = ORIENTED_EDGE('',*,*,#761,.T.);
#1300 = ORIENTED_EDGE('',*,*,#869,.F.);
#1301 = ORIENTED_EDGE('',*,*,#1018,.T.);
#1302 = ORIENTED_EDGE('',*,*,#731,.F.);
#1303 = ORIENTED_EDGE('',*,*,#533,.F.);
#1304 = ORIENTED_EDGE('',*,*,#1118,.F.);
#1305 = ORIENTED_EDGE('',*,*,#1137,.F.);
#1306 = ORIENTED_EDGE('',*,*,#1307,.T.);
#1307 = EDGE_CURVE('',#1138,#762,#1308,.T.);
#1308 = LINE('',#1309,#1310);
#1309 = CARTESIAN_POINT('',(-8.,0.,0.));
#1310 = VECTOR('',#1311,1.);
#1311 = DIRECTION('',(1.,0.,-0.));
#1312 = FACE_BOUND('',#1313,.T.);
#1313 = EDGE_LOOP('',(#1314));
#1314 = ORIENTED_EDGE('',*,*,#38,.T.);
#1315 = PLANE('',#1316);
#1316 = AXIS2_PLACEMENT_3D('',#1317,#1318,#1319);
#1317 = CARTESIAN_POINT('',(9.,0.,24.478260869565));
#1318 = DIRECTION('',(-0.,-1.,-0.));
#1319 = DIRECTION('',(0.,0.,-1.));
#1320 = ADVANCED_FACE('',(#1321,#1332,#1337,#1342,#1347),#1352,.T.);
#1321 = FACE_BOUND('',#1322,.T.);
#1322 = EDGE_LOOP('',(#1323,#1324,#1325,#1326));
#1323 = ORIENTED_EDGE('',*,*,#771,.F.);
#1324 = ORIENTED_EDGE('',*,*,#1307,.F.);
#1325 = ORIENTED_EDGE('',*,*,#1145,.T.);
#1326 = ORIENTED_EDGE('',*,*,#1327,.T.);
#1327 = EDGE_CURVE('',#1146,#772,#1328,.T.);
#1328 = LINE('',#1329,#1330);
#1329 = CARTESIAN_POINT('',(-8.,50.,0.));
#1330 = VECTOR('',#1331,1.);
#1331 = DIRECTION('',(1.,0.,-0.));
#1332 = FACE_BOUND('',#1333,.T.);
#1333 = EDGE_LOOP('',(#1334,#1335,#1336));
#1334 = ORIENTED_EDGE('',*,*,#518,.T.);
#1335 = ORIENTED_EDGE('',*,*,#500,.T.);
#1336 = ORIENTED_EDGE('',*,*,#509,.T.);
#1337 = FACE_BOUND('',#1338,.T.);
#1338 = EDGE_LOOP('',(#1339,#1340,#1341));
#1339 = ORIENTED_EDGE('',*,*,#919,.T.);
#1340 = ORIENTED_EDGE('',*,*,#928,.T.);
#1341 = ORIENTED_EDGE('',*,*,#910,.T.);
#1342 = FACE_BOUND('',#1343,.T.);
#1343 = EDGE_LOOP('',(#1344,#1345,#1346));
#1344 = ORIENTED_EDGE('',*,*,#715,.T.);
#1345 = ORIENTED_EDGE('',*,*,#697,.T.);
#1346 = ORIENTED_EDGE('',*,*,#706,.T.);
#1347 = FACE_BOUND('',#1348,.T.);
#1348 = EDGE_LOOP('',(#1349,#1350,#1351));
#1349 = ORIENTED_EDGE('',*,*,#986,.T.);
#1350 = ORIENTED_EDGE('',*,*,#995,.T.);
#1351 = ORIENTED_EDGE('',*,*,#977,.T.);
#1352 = PLANE('',#1353);
#1353 = AXIS2_PLACEMENT_3D('',#1354,#1355,#1356);
#1354 = CARTESIAN_POINT('',(9.,25.,0.));
#1355 = DIRECTION('',(-0.,-0.,-1.));
#1356 = DIRECTION('',(-1.,0.,0.));
#1357 = ADVANCED_FACE('',(#1358),#1368,.T.);
#1358 = FACE_BOUND('',#1359,.T.);
#1359 = EDGE_LOOP('',(#1360,#1361,#1362,#1363,#1364,#1365,#1366,#1367));
#1360 = ORIENTED_EDGE('',*,*,#1327,.F.);
#1361 = ORIENTED_EDGE('',*,*,#1153,.T.);
#1362 = ORIENTED_EDGE('',*,*,#1102,.T.);
#1363 = ORIENTED_EDGE('',*,*,#597,.T.);
#1364 = ORIENTED_EDGE('',*,*,#747,.T.);
#1365 = ORIENTED_EDGE('',*,*,#1043,.F.);
#1366 = ORIENTED_EDGE('',*,*,#801,.T.);
#1367 = ORIENTED_EDGE('',*,*,#779,.F.);
#1368 = PLANE('',#1369);
#1369 = AXIS2_PLACEMENT_3D('',#1370,#1371,#1372);
#1370 = CARTESIAN_POINT('',(9.,50.,24.478260869565));
#1371 = DIRECTION('',(0.,1.,0.));
#1372 = DIRECTION('',(0.,-0.,1.));
#1373 = ( GEOMETRIC_REPRESENTATION_CONTEXT(3) 
GLOBAL_UNCERTAINTY_ASSIGNED_CONTEXT((#1377)) 
GLOBAL_UNIT_ASSIGNED_CONTEXT((#1374,#1375,#1376)) REPRESENTATION_CONTEXT
('Context #1','3D Context with UNIT and UNCERTAINTY') );
#1374 = ( LENGTH_UNIT() NAMED_UNIT(*) SI_UNIT(.MILLI.,.METRE.) );
#1375 = ( NAMED_UNIT(*) PLANE_ANGLE_UNIT() SI_UNIT($,.RADIAN.) );
#1376 = ( NAMED_UNIT(*) SI_UNIT($,.STERADIAN.) SOLID_ANGLE_UNIT() );
#1377 = UNCERTAINTY_MEASURE_WITH_UNIT(LENGTH_MEASURE(1.E-07),#1374,
  'distance_accuracy_value','confusion accuracy');
#1378 = PRODUCT_RELATED_PRODUCT_CATEGORY('part',$,(#7));
ENDSEC;
END-ISO-10303-21;
