ISO-10303-21;
HEADER;
FILE_DESCRIPTION(('FreeCAD Model'),'2;1');
FILE_NAME('Open CASCADE Shape Model','2026-07-20T20:10:56',('FreeCAD'),(
    'FreeCAD'),'Open CASCADE STEP processor 7.8','FreeCAD','Unknown');
FILE_SCHEMA(('AUTOMOTIVE_DESIGN { 1 0 10303 214 1 1 1 1 }'));
ENDSEC;
DATA;
#1 = APPLICATION_PROTOCOL_DEFINITION('international standard',
  'automotive_design',2000,#2);
#2 = APPLICATION_CONTEXT(
  'core data for automotive mechanical design processes');
#3 = SHAPE_DEFINITION_REPRESENTATION(#4,#10);
#4 = PRODUCT_DEFINITION_SHAPE('','',#5);
#5 = PRODUCT_DEFINITION('design','',#6,#9);
#6 = PRODUCT_DEFINITION_FORMATION('','',#7);
#7 = PRODUCT('Open CASCADE STEP translator 7.8 30',
  'Open CASCADE STEP translator 7.8 30','',(#8));
#8 = PRODUCT_CONTEXT('',#2,'mechanical');
#9 = PRODUCT_DEFINITION_CONTEXT('part definition',#2,'design');
#10 = ADVANCED_BREP_SHAPE_REPRESENTATION('',(#11,#15),#409);
#11 = AXIS2_PLACEMENT_3D('',#12,#13,#14);
#12 = CARTESIAN_POINT('',(0.,0.,0.));
#13 = DIRECTION('',(0.,0.,1.));
#14 = DIRECTION('',(1.,0.,-0.));
#15 = MANIFOLD_SOLID_BREP('',#16);
#16 = CLOSED_SHELL('',(#17,#175,#207,#258,#309,#327,#344,#361,#379,#397)
  );
#17 = ADVANCED_FACE('',(#18,#54,#112),#170,.T.);
#18 = FACE_BOUND('',#19,.T.);
#19 = EDGE_LOOP('',(#20,#31,#39,#48));
#20 = ORIENTED_EDGE('',*,*,#21,.F.);
#21 = EDGE_CURVE('',#22,#24,#26,.T.);
#22 = VERTEX_POINT('',#23);
#23 = CARTESIAN_POINT('',(7.984359711336,0.5,8.));
#24 = VERTEX_POINT('',#25);
#25 = CARTESIAN_POINT('',(7.984359711336,-0.5,8.));
#26 = CIRCLE('',#27,8.);
#27 = AXIS2_PLACEMENT_3D('',#28,#29,#30);
#28 = CARTESIAN_POINT('',(0.,0.,8.));
#29 = DIRECTION('',(0.,0.,1.));
#30 = DIRECTION('',(1.,0.,-0.));
#31 = ORIENTED_EDGE('',*,*,#32,.F.);
#32 = EDGE_CURVE('',#33,#22,#35,.T.);
#33 = VERTEX_POINT('',#34);
#34 = CARTESIAN_POINT('',(7.984359711336,0.5,0.));
#35 = LINE('',#36,#37);
#36 = CARTESIAN_POINT('',(7.984359711336,0.5,0.));
#37 = VECTOR('',#38,1.);
#38 = DIRECTION('',(0.,0.,1.));
#39 = ORIENTED_EDGE('',*,*,#40,.T.);
#40 = EDGE_CURVE('',#33,#41,#43,.T.);
#41 = VERTEX_POINT('',#42);
#42 = CARTESIAN_POINT('',(7.984359711336,-0.5,0.));
#43 = CIRCLE('',#44,8.);
#44 = AXIS2_PLACEMENT_3D('',#45,#46,#47);
#45 = CARTESIAN_POINT('',(0.,0.,0.));
#46 = DIRECTION('',(0.,0.,1.));
#47 = DIRECTION('',(1.,0.,-0.));
#48 = ORIENTED_EDGE('',*,*,#49,.T.);
#49 = EDGE_CURVE('',#41,#24,#50,.T.);
#50 = LINE('',#51,#52);
#51 = CARTESIAN_POINT('',(7.984359711336,-0.5,0.));
#52 = VECTOR('',#53,1.);
#53 = DIRECTION('',(0.,0.,1.));
#54 = FACE_BOUND('',#55,.T.);
#55 = EDGE_LOOP('',(#56));
#56 = ORIENTED_EDGE('',*,*,#57,.F.);
#57 = EDGE_CURVE('',#58,#58,#60,.T.);
#58 = VERTEX_POINT('',#59);
#59 = CARTESIAN_POINT('',(4.,6.928203230276,5.4));
#60 = B_SPLINE_CURVE_WITH_KNOTS('',8,(#61,#62,#63,#64,#65,#66,#67,#68,
    #69,#70,#71,#72,#73,#74,#75,#76,#77,#78,#79,#80,#81,#82,#83,#84,#85,
    #86,#87,#88,#89,#90,#91,#92,#93,#94,#95,#96,#97,#98,#99,#100,#101,
    #102,#103,#104,#105,#106,#107,#108,#109,#110,#111),.UNSPECIFIED.,.T.
  ,.F.,(9,7,7,7,7,7,7,9),(0.,0.109580478863,0.207968963998,
    0.399188625878,0.540149791184,0.674176717172,0.833287888497,1.),
  .UNSPECIFIED.);
#61 = CARTESIAN_POINT('',(4.,6.928203230276,5.4));
#62 = CARTESIAN_POINT('',(4.127797121318,6.854419527881,5.4));
#63 = CARTESIAN_POINT('',(4.252996930164,6.77854303463,5.386667748912));
#64 = CARTESIAN_POINT('',(4.374375408667,6.701383929291,5.360951088509)
  );
#65 = CARTESIAN_POINT('',(4.490898275638,6.623830909096,5.323777170564)
  );
#66 = CARTESIAN_POINT('',(4.601679645564,6.546847430916,5.276061128417)
  );
#67 = CARTESIAN_POINT('',(4.705952112376,6.471455808789,5.218711360095)
  );
#68 = CARTESIAN_POINT('',(4.803048257994,6.398709167821,5.152631422958)
  );
#69 = CARTESIAN_POINT('',(4.972613635177,6.267646565739,5.012354743406)
  );
#70 = CARTESIAN_POINT('',(5.047025852885,6.20827488156,4.939311378333));
#71 = CARTESIAN_POINT('',(5.115094350364,6.152347870412,4.860117075766)
  );
#72 = CARTESIAN_POINT('',(5.176338286099,6.100693395224,4.775307870337)
  );
#73 = CARTESIAN_POINT('',(5.230316835317,6.054137778431,4.685420077516)
  );
#74 = CARTESIAN_POINT('',(5.276609682183,6.013487685451,4.590986191748)
  );
#75 = CARTESIAN_POINT('',(5.314793034365,5.979511626591,4.492533805389)
  );
#76 = CARTESIAN_POINT('',(5.401974481018,5.901241901463,4.192453297743)
  );
#77 = CARTESIAN_POINT('',(5.425936779265,5.878580041979,3.985410706124)
  );
#78 = CARTESIAN_POINT('',(5.414858527679,5.888536243217,3.776163940065)
  );
#79 = CARTESIAN_POINT('',(5.369023166472,5.931593361956,3.571202759933)
  );
#80 = CARTESIAN_POINT('',(5.289698897744,6.004650308608,3.376826500832)
  );
#81 = CARTESIAN_POINT('',(5.179482580805,6.101120155216,3.199805878112)
  );
#82 = CARTESIAN_POINT('',(5.04401654811,6.21245692903,3.046714883324));
#83 = CARTESIAN_POINT('',(4.780621871036,6.416043252637,2.828815856262)
  );
#84 = CARTESIAN_POINT('',(4.656157255908,6.508642563674,2.748143862883)
  );
#85 = CARTESIAN_POINT('',(4.520238584997,6.605257366467,2.681506539657)
  );
#86 = CARTESIAN_POINT('',(4.37448575572,6.703551461972,2.630971091454));
#87 = CARTESIAN_POINT('',(4.220867066958,6.801301367744,2.598424466424)
  );
#88 = CARTESIAN_POINT('',(4.061679332876,6.896542247193,2.585567029815)
  );
#89 = CARTESIAN_POINT('',(3.899574456731,6.98762143616,2.593912189474));
#90 = CARTESIAN_POINT('',(3.5837225446,7.154526460808,2.654164164104));
#91 = CARTESIAN_POINT('',(3.433281320111,7.229125159577,2.703274142794)
  );
#92 = CARTESIAN_POINT('',(3.289743535074,7.295794496055,2.771594388284)
  );
#93 = CARTESIAN_POINT('',(3.156358011108,7.353942839855,2.857759400505)
  );
#94 = CARTESIAN_POINT('',(3.03607402253,7.403484885133,2.959586162286));
#95 = CARTESIAN_POINT('',(2.931292619489,7.444673898182,3.074087210168)
  );
#96 = CARTESIAN_POINT('',(2.843550538901,7.477957619756,3.197524309853)
  );
#97 = CARTESIAN_POINT('',(2.689618579529,7.534844807164,3.477525504491)
  );
#98 = CARTESIAN_POINT('',(2.628848281423,7.556094782291,3.639033717206)
  );
#99 = CARTESIAN_POINT('',(2.591140673313,7.568786027436,3.806864869459)
  );
#100 = CARTESIAN_POINT('',(2.576748130093,7.57353488162,3.978055791967)
  );
#101 = CARTESIAN_POINT('',(2.585838588759,7.570551587109,4.149654123042)
  );
#102 = CARTESIAN_POINT('',(2.618406684004,7.559651410677,4.318605118503)
  );
#103 = CARTESIAN_POINT('',(2.674185292532,7.54027227354,4.48170709719));
#104 = CARTESIAN_POINT('',(2.834741972311,7.481436560795,4.796817323653)
  );
#105 = CARTESIAN_POINT('',(2.944457795667,7.440066588585,4.953270186313)
  );
#106 = CARTESIAN_POINT('',(3.081690740334,7.386062478001,5.09543922217)
  );
#107 = CARTESIAN_POINT('',(3.242884216745,7.318646344039,5.21555998762)
  );
#108 = CARTESIAN_POINT('',(3.422280340875,7.237510709993,5.308114373126)
  );
#109 = CARTESIAN_POINT('',(3.613067124377,7.143490193055,5.369902735339)
  );
#110 = CARTESIAN_POINT('',(3.807987026592,7.039061972161,5.4));
#111 = CARTESIAN_POINT('',(4.,6.928203230276,5.4));
#112 = FACE_BOUND('',#113,.T.);
#113 = EDGE_LOOP('',(#114));
#114 = ORIENTED_EDGE('',*,*,#115,.T.);
#115 = EDGE_CURVE('',#116,#116,#118,.T.);
#116 = VERTEX_POINT('',#117);
#117 = CARTESIAN_POINT('',(4.,-6.928203230276,5.4));
#118 = B_SPLINE_CURVE_WITH_KNOTS('',8,(#119,#120,#121,#122,#123,#124,
    #125,#126,#127,#128,#129,#130,#131,#132,#133,#134,#135,#136,#137,
    #138,#139,#140,#141,#142,#143,#144,#145,#146,#147,#148,#149,#150,
    #151,#152,#153,#154,#155,#156,#157,#158,#159,#160,#161,#162,#163,
    #164,#165,#166,#167,#168,#169),.UNSPECIFIED.,.T.,.F.,(9,7,7,7,7,7,7,
    9),(0.,0.109580477308,0.207968962615,0.39918862483,0.540149790382,
    0.674176716604,0.833287888206,1.),.UNSPECIFIED.);
#119 = CARTESIAN_POINT('',(4.,-6.928203230276,5.4));
#120 = CARTESIAN_POINT('',(4.12779712341,-6.854419526673,5.4));
#121 = CARTESIAN_POINT('',(4.252996927179,-6.778543036521,5.386667749597
    ));
#122 = CARTESIAN_POINT('',(4.374375408319,-6.70138392937,5.360951088003)
  );
#123 = CARTESIAN_POINT('',(4.490898278225,-6.62383090739,5.32377716969)
  );
#124 = CARTESIAN_POINT('',(4.601679645812,-6.5468474309,5.276061128954)
  );
#125 = CARTESIAN_POINT('',(4.705952109699,-6.471455810629,5.21871136132)
  );
#126 = CARTESIAN_POINT('',(4.803048259418,-6.39870916672,5.15263142178)
  );
#127 = CARTESIAN_POINT('',(4.972613635177,-6.267646565739,5.012354743406
    ));
#128 = CARTESIAN_POINT('',(5.047025852885,-6.20827488156,4.939311378333)
  );
#129 = CARTESIAN_POINT('',(5.115094350364,-6.152347870412,4.860117075766
    ));
#130 = CARTESIAN_POINT('',(5.176338286099,-6.100693395224,4.775307870337
    ));
#131 = CARTESIAN_POINT('',(5.230316835317,-6.054137778431,4.685420077516
    ));
#132 = CARTESIAN_POINT('',(5.276609682183,-6.013487685451,4.590986191748
    ));
#133 = CARTESIAN_POINT('',(5.314793034365,-5.979511626591,4.492533805389
    ));
#134 = CARTESIAN_POINT('',(5.401974481018,-5.901241901463,4.192453297743
    ));
#135 = CARTESIAN_POINT('',(5.425936779265,-5.878580041979,3.985410706124
    ));
#136 = CARTESIAN_POINT('',(5.414858527679,-5.888536243217,3.776163940066
    ));
#137 = CARTESIAN_POINT('',(5.369023166472,-5.931593361957,3.571202759932
    ));
#138 = CARTESIAN_POINT('',(5.289698897745,-6.004650308608,3.376826500833
    ));
#139 = CARTESIAN_POINT('',(5.179482580805,-6.101120155216,3.199805878111
    ));
#140 = CARTESIAN_POINT('',(5.044016548111,-6.212456929029,3.046714883324
    ));
#141 = CARTESIAN_POINT('',(4.780621871036,-6.416043252637,2.828815856262
    ));
#142 = CARTESIAN_POINT('',(4.656157255908,-6.508642563674,2.748143862883
    ));
#143 = CARTESIAN_POINT('',(4.520238584997,-6.605257366468,2.681506539657
    ));
#144 = CARTESIAN_POINT('',(4.37448575572,-6.703551461972,2.630971091454)
  );
#145 = CARTESIAN_POINT('',(4.220867066958,-6.801301367744,2.598424466424
    ));
#146 = CARTESIAN_POINT('',(4.061679332876,-6.896542247193,2.585567029815
    ));
#147 = CARTESIAN_POINT('',(3.899574456731,-6.98762143616,2.593912189474)
  );
#148 = CARTESIAN_POINT('',(3.583722544601,-7.154526460808,2.654164164104
    ));
#149 = CARTESIAN_POINT('',(3.433281320111,-7.229125159577,2.703274142794
    ));
#150 = CARTESIAN_POINT('',(3.289743535074,-7.295794496055,2.771594388284
    ));
#151 = CARTESIAN_POINT('',(3.156358011108,-7.353942839855,2.857759400505
    ));
#152 = CARTESIAN_POINT('',(3.03607402253,-7.403484885134,2.959586162286)
  );
#153 = CARTESIAN_POINT('',(2.931292619489,-7.444673898182,3.074087210168
    ));
#154 = CARTESIAN_POINT('',(2.843550538901,-7.477957619756,3.197524309853
    ));
#155 = CARTESIAN_POINT('',(2.68961857953,-7.534844807163,3.47752550449)
  );
#156 = CARTESIAN_POINT('',(2.628848281423,-7.556094782291,3.639033717205
    ));
#157 = CARTESIAN_POINT('',(2.591140673313,-7.568786027436,3.806864869458
    ));
#158 = CARTESIAN_POINT('',(2.576748130093,-7.57353488162,3.978055791967)
  );
#159 = CARTESIAN_POINT('',(2.585838588759,-7.570551587109,4.149654123042
    ));
#160 = CARTESIAN_POINT('',(2.618406684004,-7.559651410677,4.318605118504
    ));
#161 = CARTESIAN_POINT('',(2.674185292533,-7.54027227354,4.481707097191)
  );
#162 = CARTESIAN_POINT('',(2.834741972311,-7.481436560795,4.796817323653
    ));
#163 = CARTESIAN_POINT('',(2.944457795667,-7.440066588584,4.953270186313
    ));
#164 = CARTESIAN_POINT('',(3.081690740334,-7.386062478001,5.095439222169
    ));
#165 = CARTESIAN_POINT('',(3.242884216744,-7.318646344039,5.215559987622
    ));
#166 = CARTESIAN_POINT('',(3.422280340876,-7.237510709993,5.308114373124
    ));
#167 = CARTESIAN_POINT('',(3.613067124377,-7.143490193055,5.369902735339
    ));
#168 = CARTESIAN_POINT('',(3.807987026592,-7.039061972161,5.4));
#169 = CARTESIAN_POINT('',(4.,-6.928203230276,5.4));
#170 = CYLINDRICAL_SURFACE('',#171,8.);
#171 = AXIS2_PLACEMENT_3D('',#172,#173,#174);
#172 = CARTESIAN_POINT('',(0.,0.,0.));
#173 = DIRECTION('',(0.,0.,1.));
#174 = DIRECTION('',(1.,0.,-0.));
#175 = ADVANCED_FACE('',(#176),#202,.T.);
#176 = FACE_BOUND('',#177,.T.);
#177 = EDGE_LOOP('',(#178,#186,#187,#195));
#178 = ORIENTED_EDGE('',*,*,#179,.F.);
#179 = EDGE_CURVE('',#22,#180,#182,.T.);
#180 = VERTEX_POINT('',#181);
#181 = CARTESIAN_POINT('',(3.059411708156,0.5,8.));
#182 = LINE('',#183,#184);
#183 = CARTESIAN_POINT('',(0.,0.5,8.));
#184 = VECTOR('',#185,1.);
#185 = DIRECTION('',(-1.,-0.,0.));
#186 = ORIENTED_EDGE('',*,*,#21,.T.);
#187 = ORIENTED_EDGE('',*,*,#188,.T.);
#188 = EDGE_CURVE('',#24,#189,#191,.T.);
#189 = VERTEX_POINT('',#190);
#190 = CARTESIAN_POINT('',(3.059411708156,-0.5,8.));
#191 = LINE('',#192,#193);
#192 = CARTESIAN_POINT('',(0.,-0.5,8.));
#193 = VECTOR('',#194,1.);
#194 = DIRECTION('',(-1.,-0.,0.));
#195 = ORIENTED_EDGE('',*,*,#196,.F.);
#196 = EDGE_CURVE('',#180,#189,#197,.T.);
#197 = CIRCLE('',#198,3.1);
#198 = AXIS2_PLACEMENT_3D('',#199,#200,#201);
#199 = CARTESIAN_POINT('',(0.,0.,8.));
#200 = DIRECTION('',(0.,0.,1.));
#201 = DIRECTION('',(1.,0.,-0.));
#202 = PLANE('',#203);
#203 = AXIS2_PLACEMENT_3D('',#204,#205,#206);
#204 = CARTESIAN_POINT('',(0.,0.,8.));
#205 = DIRECTION('',(0.,0.,1.));
#206 = DIRECTION('',(1.,0.,-0.));
#207 = ADVANCED_FACE('',(#208,#242),#253,.F.);
#208 = FACE_BOUND('',#209,.F.);
#209 = EDGE_LOOP('',(#210,#211,#219,#227,#235,#241));
#210 = ORIENTED_EDGE('',*,*,#32,.F.);
#211 = ORIENTED_EDGE('',*,*,#212,.T.);
#212 = EDGE_CURVE('',#33,#213,#215,.T.);
#213 = VERTEX_POINT('',#214);
#214 = CARTESIAN_POINT('',(2.551470164435,0.5,0.));
#215 = LINE('',#216,#217);
#216 = CARTESIAN_POINT('',(0.,0.5,0.));
#217 = VECTOR('',#218,1.);
#218 = DIRECTION('',(-1.,-0.,0.));
#219 = ORIENTED_EDGE('',*,*,#220,.T.);
#220 = EDGE_CURVE('',#213,#221,#223,.T.);
#221 = VERTEX_POINT('',#222);
#222 = CARTESIAN_POINT('',(2.551470164435,0.5,5.8));
#223 = LINE('',#224,#225);
#224 = CARTESIAN_POINT('',(2.551470164435,0.5,-1.));
#225 = VECTOR('',#226,1.);
#226 = DIRECTION('',(0.,0.,1.));
#227 = ORIENTED_EDGE('',*,*,#228,.F.);
#228 = EDGE_CURVE('',#229,#221,#231,.T.);
#229 = VERTEX_POINT('',#230);
#230 = CARTESIAN_POINT('',(3.059411708156,0.5,5.8));
#231 = LINE('',#232,#233);
#232 = CARTESIAN_POINT('',(0.,0.5,5.8));
#233 = VECTOR('',#234,1.);
#234 = DIRECTION('',(-1.,-0.,0.));
#235 = ORIENTED_EDGE('',*,*,#236,.T.);
#236 = EDGE_CURVE('',#229,#180,#237,.T.);
#237 = LINE('',#238,#239);
#238 = CARTESIAN_POINT('',(3.059411708156,0.5,5.8));
#239 = VECTOR('',#240,1.);
#240 = DIRECTION('',(0.,0.,1.));
#241 = ORIENTED_EDGE('',*,*,#179,.F.);
#242 = FACE_BOUND('',#243,.F.);
#243 = EDGE_LOOP('',(#244));
#244 = ORIENTED_EDGE('',*,*,#245,.F.);
#245 = EDGE_CURVE('',#246,#246,#248,.T.);
#246 = VERTEX_POINT('',#247);
#247 = CARTESIAN_POINT('',(4.,0.5,5.4));
#248 = CIRCLE('',#249,1.4);
#249 = AXIS2_PLACEMENT_3D('',#250,#251,#252);
#250 = CARTESIAN_POINT('',(4.,0.5,4.));
#251 = DIRECTION('',(0.,1.,0.));
#252 = DIRECTION('',(0.,-0.,1.));
#253 = PLANE('',#254);
#254 = AXIS2_PLACEMENT_3D('',#255,#256,#257);
#255 = CARTESIAN_POINT('',(0.,0.5,-1.));
#256 = DIRECTION('',(-0.,1.,0.));
#257 = DIRECTION('',(0.,0.,1.));
#258 = ADVANCED_FACE('',(#259,#293),#304,.T.);
#259 = FACE_BOUND('',#260,.T.);
#260 = EDGE_LOOP('',(#261,#262,#270,#278,#286,#292));
#261 = ORIENTED_EDGE('',*,*,#49,.F.);
#262 = ORIENTED_EDGE('',*,*,#263,.T.);
#263 = EDGE_CURVE('',#41,#264,#266,.T.);
#264 = VERTEX_POINT('',#265);
#265 = CARTESIAN_POINT('',(2.551470164435,-0.5,0.));
#266 = LINE('',#267,#268);
#267 = CARTESIAN_POINT('',(0.,-0.5,0.));
#268 = VECTOR('',#269,1.);
#269 = DIRECTION('',(-1.,-0.,0.));
#270 = ORIENTED_EDGE('',*,*,#271,.T.);
#271 = EDGE_CURVE('',#264,#272,#274,.T.);
#272 = VERTEX_POINT('',#273);
#273 = CARTESIAN_POINT('',(2.551470164435,-0.5,5.8));
#274 = LINE('',#275,#276);
#275 = CARTESIAN_POINT('',(2.551470164435,-0.5,-1.));
#276 = VECTOR('',#277,1.);
#277 = DIRECTION('',(0.,0.,1.));
#278 = ORIENTED_EDGE('',*,*,#279,.F.);
#279 = EDGE_CURVE('',#280,#272,#282,.T.);
#280 = VERTEX_POINT('',#281);
#281 = CARTESIAN_POINT('',(3.059411708156,-0.5,5.8));
#282 = LINE('',#283,#284);
#283 = CARTESIAN_POINT('',(0.,-0.5,5.8));
#284 = VECTOR('',#285,1.);
#285 = DIRECTION('',(-1.,-0.,0.));
#286 = ORIENTED_EDGE('',*,*,#287,.T.);
#287 = EDGE_CURVE('',#280,#189,#288,.T.);
#288 = LINE('',#289,#290);
#289 = CARTESIAN_POINT('',(3.059411708156,-0.5,5.8));
#290 = VECTOR('',#291,1.);
#291 = DIRECTION('',(0.,0.,1.));
#292 = ORIENTED_EDGE('',*,*,#188,.F.);
#293 = FACE_BOUND('',#294,.T.);
#294 = EDGE_LOOP('',(#295));
#295 = ORIENTED_EDGE('',*,*,#296,.F.);
#296 = EDGE_CURVE('',#297,#297,#299,.T.);
#297 = VERTEX_POINT('',#298);
#298 = CARTESIAN_POINT('',(4.,-0.5,5.4));
#299 = CIRCLE('',#300,1.4);
#300 = AXIS2_PLACEMENT_3D('',#301,#302,#303);
#301 = CARTESIAN_POINT('',(4.,-0.5,4.));
#302 = DIRECTION('',(0.,1.,0.));
#303 = DIRECTION('',(0.,-0.,1.));
#304 = PLANE('',#305);
#305 = AXIS2_PLACEMENT_3D('',#306,#307,#308);
#306 = CARTESIAN_POINT('',(0.,-0.5,-1.));
#307 = DIRECTION('',(-0.,1.,0.));
#308 = DIRECTION('',(0.,0.,1.));
#309 = ADVANCED_FACE('',(#310),#322,.F.);
#310 = FACE_BOUND('',#311,.F.);
#311 = EDGE_LOOP('',(#312,#313,#314,#315));
#312 = ORIENTED_EDGE('',*,*,#212,.F.);
#313 = ORIENTED_EDGE('',*,*,#40,.T.);
#314 = ORIENTED_EDGE('',*,*,#263,.T.);
#315 = ORIENTED_EDGE('',*,*,#316,.F.);
#316 = EDGE_CURVE('',#213,#264,#317,.T.);
#317 = CIRCLE('',#318,2.6);
#318 = AXIS2_PLACEMENT_3D('',#319,#320,#321);
#319 = CARTESIAN_POINT('',(0.,0.,0.));
#320 = DIRECTION('',(0.,0.,1.));
#321 = DIRECTION('',(1.,0.,-0.));
#322 = PLANE('',#323);
#323 = AXIS2_PLACEMENT_3D('',#324,#325,#326);
#324 = CARTESIAN_POINT('',(0.,0.,0.));
#325 = DIRECTION('',(0.,0.,1.));
#326 = DIRECTION('',(1.,0.,-0.));
#327 = ADVANCED_FACE('',(#328),#339,.F.);
#328 = FACE_BOUND('',#329,.F.);
#329 = EDGE_LOOP('',(#330,#331,#337,#338));
#330 = ORIENTED_EDGE('',*,*,#57,.F.);
#331 = ORIENTED_EDGE('',*,*,#332,.F.);
#332 = EDGE_CURVE('',#246,#58,#333,.T.);
#333 = LINE('',#334,#335);
#334 = CARTESIAN_POINT('',(4.,-9.,5.4));
#335 = VECTOR('',#336,1.);
#336 = DIRECTION('',(0.,1.,0.));
#337 = ORIENTED_EDGE('',*,*,#245,.T.);
#338 = ORIENTED_EDGE('',*,*,#332,.T.);
#339 = CYLINDRICAL_SURFACE('',#340,1.4);
#340 = AXIS2_PLACEMENT_3D('',#341,#342,#343);
#341 = CARTESIAN_POINT('',(4.,-9.,4.));
#342 = DIRECTION('',(0.,1.,0.));
#343 = DIRECTION('',(0.,-0.,1.));
#344 = ADVANCED_FACE('',(#345),#356,.F.);
#345 = FACE_BOUND('',#346,.F.);
#346 = EDGE_LOOP('',(#347,#348,#354,#355));
#347 = ORIENTED_EDGE('',*,*,#296,.F.);
#348 = ORIENTED_EDGE('',*,*,#349,.F.);
#349 = EDGE_CURVE('',#116,#297,#350,.T.);
#350 = LINE('',#351,#352);
#351 = CARTESIAN_POINT('',(4.,-9.,5.4));
#352 = VECTOR('',#353,1.);
#353 = DIRECTION('',(0.,1.,0.));
#354 = ORIENTED_EDGE('',*,*,#115,.T.);
#355 = ORIENTED_EDGE('',*,*,#349,.T.);
#356 = CYLINDRICAL_SURFACE('',#357,1.4);
#357 = AXIS2_PLACEMENT_3D('',#358,#359,#360);
#358 = CARTESIAN_POINT('',(4.,-9.,4.));
#359 = DIRECTION('',(0.,1.,0.));
#360 = DIRECTION('',(0.,-0.,1.));
#361 = ADVANCED_FACE('',(#362),#374,.F.);
#362 = FACE_BOUND('',#363,.F.);
#363 = EDGE_LOOP('',(#364,#365,#366,#373));
#364 = ORIENTED_EDGE('',*,*,#196,.F.);
#365 = ORIENTED_EDGE('',*,*,#236,.F.);
#366 = ORIENTED_EDGE('',*,*,#367,.T.);
#367 = EDGE_CURVE('',#229,#280,#368,.T.);
#368 = CIRCLE('',#369,3.1);
#369 = AXIS2_PLACEMENT_3D('',#370,#371,#372);
#370 = CARTESIAN_POINT('',(0.,0.,5.8));
#371 = DIRECTION('',(0.,0.,1.));
#372 = DIRECTION('',(1.,0.,-0.));
#373 = ORIENTED_EDGE('',*,*,#287,.T.);
#374 = CYLINDRICAL_SURFACE('',#375,3.1);
#375 = AXIS2_PLACEMENT_3D('',#376,#377,#378);
#376 = CARTESIAN_POINT('',(0.,0.,5.8));
#377 = DIRECTION('',(0.,0.,1.));
#378 = DIRECTION('',(1.,0.,-0.));
#379 = ADVANCED_FACE('',(#380),#392,.F.);
#380 = FACE_BOUND('',#381,.F.);
#381 = EDGE_LOOP('',(#382,#389,#390,#391));
#382 = ORIENTED_EDGE('',*,*,#383,.F.);
#383 = EDGE_CURVE('',#221,#272,#384,.T.);
#384 = CIRCLE('',#385,2.6);
#385 = AXIS2_PLACEMENT_3D('',#386,#387,#388);
#386 = CARTESIAN_POINT('',(0.,0.,5.8));
#387 = DIRECTION('',(0.,0.,1.));
#388 = DIRECTION('',(1.,0.,-0.));
#389 = ORIENTED_EDGE('',*,*,#220,.F.);
#390 = ORIENTED_EDGE('',*,*,#316,.T.);
#391 = ORIENTED_EDGE('',*,*,#271,.T.);
#392 = CYLINDRICAL_SURFACE('',#393,2.6);
#393 = AXIS2_PLACEMENT_3D('',#394,#395,#396);
#394 = CARTESIAN_POINT('',(0.,0.,-1.));
#395 = DIRECTION('',(0.,0.,1.));
#396 = DIRECTION('',(1.,0.,-0.));
#397 = ADVANCED_FACE('',(#398),#404,.T.);
#398 = FACE_BOUND('',#399,.T.);
#399 = EDGE_LOOP('',(#400,#401,#402,#403));
#400 = ORIENTED_EDGE('',*,*,#228,.F.);
#401 = ORIENTED_EDGE('',*,*,#367,.T.);
#402 = ORIENTED_EDGE('',*,*,#279,.T.);
#403 = ORIENTED_EDGE('',*,*,#383,.F.);
#404 = PLANE('',#405);
#405 = AXIS2_PLACEMENT_3D('',#406,#407,#408);
#406 = CARTESIAN_POINT('',(0.,0.,5.8));
#407 = DIRECTION('',(0.,0.,1.));
#408 = DIRECTION('',(1.,0.,-0.));
#409 = ( GEOMETRIC_REPRESENTATION_CONTEXT(3) 
GLOBAL_UNCERTAINTY_ASSIGNED_CONTEXT((#413)) GLOBAL_UNIT_ASSIGNED_CONTEXT
((#410,#411,#412)) REPRESENTATION_CONTEXT('Context #1',
  '3D Context with UNIT and UNCERTAINTY') );
#410 = ( LENGTH_UNIT() NAMED_UNIT(*) SI_UNIT(.MILLI.,.METRE.) );
#411 = ( NAMED_UNIT(*) PLANE_ANGLE_UNIT() SI_UNIT($,.RADIAN.) );
#412 = ( NAMED_UNIT(*) SI_UNIT($,.STERADIAN.) SOLID_ANGLE_UNIT() );
#413 = UNCERTAINTY_MEASURE_WITH_UNIT(LENGTH_MEASURE(1.E-07),#410,
  'distance_accuracy_value','confusion accuracy');
#414 = PRODUCT_RELATED_PRODUCT_CATEGORY('part',$,(#7));
ENDSEC;
END-ISO-10303-21;
