solid 
 facet normal -1.000000e+00  0.000000e+00  0.000000e+00
   outer loop
     vertex  0.000000e+00  0.000000e+00  1.000000e+00
     vertex  0.000000e+00  1.800000e+01  0.000000e+00
     vertex  0.000000e+00  0.000000e+00  0.000000e+00
   endloop
 endfacet
 facet normal -1.000000e+00  0.000000e+00  0.000000e+00
   outer loop
     vertex  0.000000e+00  0.000000e+00  1.000000e+00
     vertex  0.000000e+00  1.800000e+01  1.000000e+00
     vertex  0.000000e+00  1.800000e+01  0.000000e+00
   endloop
 endfacet
 facet normal  0.000000e+00 -1.000000e+00 -0.000000e+00
   outer loop
     vertex  3.200000e+01  0.000000e+00  1.000000e+00
     vertex  0.000000e+00  0.000000e+00  0.000000e+00
     vertex  3.200000e+01  0.000000e+00  0.000000e+00
   endloop
 endfacet
 facet normal -0.000000e+00 -1.000000e+00  0.000000e+00
   outer loop
     vertex  3.200000e+01  0.000000e+00  1.000000e+00
     vertex  0.000000e+00  0.000000e+00  1.000000e+00
     vertex  0.000000e+00  0.000000e+00  0.000000e+00
   endloop
 endfacet
 facet normal  0.000000e+00  0.000000e+00  1.000000e+00
   outer loop
     vertex  0.000000e+00  1.800000e+01  1.000000e+00
     vertex  0.000000e+00  0.000000e+00  1.000000e+00
     vertex  7.000000e+00  4.000000e+00  1.000000e+00
   endloop
 endfacet
 facet normal  0.000000e+00  0.000000e+00  1.000000e+00
   outer loop
     vertex  7.000000e+00  1.400000e+01  1.000000e+00
     vertex  0.000000e+00  1.800000e+01  1.000000e+00
     vertex  7.000000e+00  4.000000e+00  1.000000e+00
   endloop
 endfacet
 facet normal  0.000000e+00  0.000000e+00  1.000000e+00
   outer loop
     vertex  3.200000e+01  0.000000e+00  1.000000e+00
     vertex  2.500000e+01  4.000000e+00  1.000000e+00
     vertex  7.000000e+00  4.000000e+00  1.000000e+00
   endloop
 endfacet
 facet normal  0.000000e+00  0.000000e+00  1.000000e+00
   outer loop
     vertex  3.200000e+01  0.000000e+00  1.000000e+00
     vertex  7.000000e+00  4.000000e+00  1.000000e+00
     vertex  0.000000e+00  0.000000e+00  1.000000e+00
   endloop
 endfacet
 facet normal  0.000000e+00  0.000000e+00  1.000000e+00
   outer loop
     vertex  2.500000e+01  1.400000e+01  1.000000e+00
     vertex  2.500000e+01  4.000000e+00  1.000000e+00
     vertex  3.200000e+01  0.000000e+00  1.000000e+00
   endloop
 endfacet
 facet normal  0.000000e+00  0.000000e+00  1.000000e+00
   outer loop
     vertex  3.200000e+01  1.800000e+01  1.000000e+00
     vertex  2.500000e+01  1.400000e+01  1.000000e+00
     vertex  3.200000e+01  0.000000e+00  1.000000e+00
   endloop
 endfacet
 facet normal  0.000000e+00  0.000000e+00  1.000000e+00
   outer loop
     vertex  3.200000e+01  1.800000e+01  1.000000e+00
     vertex  0.000000e+00  1.800000e+01  1.000000e+00
     vertex  7.000000e+00  1.400000e+01  1.000000e+00
   endloop
 endfacet
 facet normal  0.000000e+00  0.000000e+00  1.000000e+00
   outer loop
     vertex  3.200000e+01  1.800000e+01  1.000000e+00
     vertex  7.000000e+00  1.400000e+01  1.000000e+00
     vertex  2.500000e+01  1.400000e+01  1.000000e+00
   endloop
 endfacet
 facet normal  0.000000e+00  1.000000e+00  0.000000e+00
   outer loop
     vertex  3.200000e+01  1.800000e+01  1.000000e+00
     vertex  3.200000e+01  1.800000e+01  0.000000e+00
     vertex  0.000000e+00  1.800000e+01  0.000000e+00
   endloop
 endfacet
 facet normal  0.000000e+00  1.000000e+00  0.000000e+00
   outer loop
     vertex  3.200000e+01  1.800000e+01  1.000000e+00
     vertex  0.000000e+00  1.800000e+01  0.000000e+00
     vertex  0.000000e+00  1.800000e+01  1.000000e+00
   endloop
 endfacet
 facet normal  0.000000e+00  0.000000e+00 -1.000000e+00
   outer loop
     vertex  0.000000e+00  1.800000e+01  0.000000e+00
     vertex  7.000000e+00  4.000000e+00  0.000000e+00
     vertex  0.000000e+00  0.000000e+00  0.000000e+00
   endloop
 endfacet
 facet normal -0.000000e+00 -0.000000e+00 -1.000000e+00
   outer loop
     vertex  7.000000e+00  1.400000e+01  0.000000e+00
     vertex  7.000000e+00  4.000000e+00  0.000000e+00
     vertex  0.000000e+00  1.800000e+01  0.000000e+00
   endloop
 endfacet
 facet normal  0.000000e+00  0.000000e+00 -1.000000e+00
   outer loop
     vertex  3.200000e+01  0.000000e+00  0.000000e+00
     vertex  7.000000e+00  4.000000e+00  0.000000e+00
     vertex  2.500000e+01  4.000000e+00  0.000000e+00
   endloop
 endfacet
 facet normal  0.000000e+00  0.000000e+00 -1.000000e+00
   outer loop
     vertex  3.200000e+01  0.000000e+00  0.000000e+00
     vertex  0.000000e+00  0.000000e+00  0.000000e+00
     vertex  7.000000e+00  4.000000e+00  0.000000e+00
   endloop
 endfacet
 facet normal  0.000000e+00  0.000000e+00 -1.000000e+00
   outer loop
     vertex  2.500000e+01  1.400000e+01  0.000000e+00
     vertex  3.200000e+01  0.000000e+00  0.000000e+00
     vertex  2.500000e+01  4.000000e+00  0.000000e+00
   endloop
 endfacet
 facet normal  0.000000e+00 -0.000000e+00 -1.000000e+00
   outer loop
     vertex  3.200000e+01  1.800000e+01  0.000000e+00
     vertex  3.200000e+01  0.000000e+00  0.000000e+00
     vertex  2.500000e+01  1.400000e+01  0.000000e+00
   endloop
 endfacet
 facet normal -0.000000e+00  0.000000e+00 -1.000000e+00
   outer loop
     vertex  3.200000e+01  1.800000e+01  0.000000e+00
     vertex  7.000000e+00  1.400000e+01  0.000000e+00
     vertex  0.000000e+00  1.800000e+01  0.000000e+00
   endloop
 endfacet
 facet normal  0.000000e+00  0.000000e+00 -1.000000e+00
   outer loop
     vertex  3.200000e+01  1.800000e+01  0.000000e+00
     vertex  2.500000e+01  1.400000e+01  0.000000e+00
     vertex  7.000000e+00  1.400000e+01  0.000000e+00
   endloop
 endfacet
 facet normal  1.000000e+00  0.000000e+00  0.000000e+00
   outer loop
     vertex  3.200000e+01  0.000000e+00  1.000000e+00
     vertex  3.200000e+01  0.000000e+00  0.000000e+00
     vertex  3.200000e+01  1.800000e+01  0.000000e+00
   endloop
 endfacet
 facet normal  1.000000e+00 -0.000000e+00  0.000000e+00
   outer loop
     vertex  3.200000e+01  0.000000e+00  1.000000e+00
     vertex  3.200000e+01  1.800000e+01  0.000000e+00
     vertex  3.200000e+01  1.800000e+01  1.000000e+00
   endloop
 endfacet
 facet normal  0.000000e+00  1.000000e+00  0.000000e+00
   outer loop
     vertex  2.500000e+01  4.000000e+00  1.000000e+00
     vertex  2.500000e+01  4.000000e+00  0.000000e+00
     vertex  7.000000e+00  4.000000e+00  0.000000e+00
   endloop
 endfacet
 facet normal  0.000000e+00  1.000000e+00  0.000000e+00
   outer loop
     vertex  2.500000e+01  4.000000e+00  1.000000e+00
     vertex  7.000000e+00  4.000000e+00  0.000000e+00
     vertex  7.000000e+00  4.000000e+00  1.000000e+00
   endloop
 endfacet
 facet normal -1.000000e+00  0.000000e+00  0.000000e+00
   outer loop
     vertex  2.500000e+01  4.000000e+00  1.000000e+00
     vertex  2.500000e+01  1.400000e+01  0.000000e+00
     vertex  2.500000e+01  4.000000e+00  0.000000e+00
   endloop
 endfacet
 facet normal -1.000000e+00  0.000000e+00  0.000000e+00
   outer loop
     vertex  2.500000e+01  4.000000e+00  1.000000e+00
     vertex  2.500000e+01  1.400000e+01  1.000000e+00
     vertex  2.500000e+01  1.400000e+01  0.000000e+00
   endloop
 endfacet
 facet normal  0.000000e+00 -1.000000e+00 -0.000000e+00
   outer loop
     vertex  2.500000e+01  1.400000e+01  1.000000e+00
     vertex  7.000000e+00  1.400000e+01  0.000000e+00
     vertex  2.500000e+01  1.400000e+01  0.000000e+00
   endloop
 endfacet
 facet normal -0.000000e+00 -1.000000e+00  0.000000e+00
   outer loop
     vertex  2.500000e+01  1.400000e+01  1.000000e+00
     vertex  7.000000e+00  1.400000e+01  1.000000e+00
     vertex  7.000000e+00  1.400000e+01  0.000000e+00
   endloop
 endfacet
 facet normal  1.000000e+00  0.000000e+00  0.000000e+00
   outer loop
     vertex  7.000000e+00  4.000000e+00  1.000000e+00
     vertex  7.000000e+00  4.000000e+00  0.000000e+00
     vertex  7.000000e+00  1.400000e+01  0.000000e+00
   endloop
 endfacet
 facet normal  1.000000e+00 -0.000000e+00  0.000000e+00
   outer loop
     vertex  7.000000e+00  4.000000e+00  1.000000e+00
     vertex  7.000000e+00  1.400000e+01  0.000000e+00
     vertex  7.000000e+00  1.400000e+01  1.000000e+00
   endloop
 endfacet
endsolid
