ISO-10303-21;
HEADER;
FILE_DESCRIPTION(('FreeCAD Model'),'2;1');
FILE_NAME('Open CASCADE Shape Model','2026-07-24T17:08:16',('FreeCAD'),(
    'FreeCAD'),'Open CASCADE STEP processor 7.8','FreeCAD','Unknown');
FILE_SCHEMA(('AUTOMOTIVE_DESIGN { 1 0 10303 214 1 1 1 1 }'));
ENDSEC;
DATA;
#1 = APPLICATION_PROTOCOL_DEFINITION('international standard',
  'automotive_design',2000,#2);
#2 = APPLICATION_CONTEXT(
  'core data for automotive mechanical design processes');
#3 = SHAPE_DEFINITION_REPRESENTATION(#4,#10);
#4 = PRODUCT_DEFINITION_SHAPE('','',#5);
#5 = PRODUCT_DEFINITION('design','',#6,#9);
#6 = PRODUCT_DEFINITION_FORMATION('','',#7);
#7 = PRODUCT('Open CASCADE STEP translator 7.8 54',
  'Open CASCADE STEP translator 7.8 54','',(#8));
#8 = PRODUCT_CONTEXT('',#2,'mechanical');
#9 = PRODUCT_DEFINITION_CONTEXT('part definition',#2,'design');
#10 = ADVANCED_BREP_SHAPE_REPRESENTATION('',(#11,#15),#533);
#11 = AXIS2_PLACEMENT_3D('',#12,#13,#14);
#12 = CARTESIAN_POINT('',(0.,0.,0.));
#13 = DIRECTION('',(0.,0.,1.));
#14 = DIRECTION('',(1.,0.,-0.));
#15 = MANIFOLD_SOLID_BREP('',#16);
#16 = CLOSED_SHELL('',(#17,#178,#330,#372,#414,#442,#459,#487,#504,#521)
  );
#17 = ADVANCED_FACE('',(#18,#54),#173,.T.);
#18 = FACE_BOUND('',#19,.T.);
#19 = EDGE_LOOP('',(#20,#30,#39,#47));
#20 = ORIENTED_EDGE('',*,*,#21,.T.);
#21 = EDGE_CURVE('',#22,#24,#26,.T.);
#22 = VERTEX_POINT('',#23);
#23 = CARTESIAN_POINT('',(11.,-2.694222958124E-15,0.));
#24 = VERTEX_POINT('',#25);
#25 = CARTESIAN_POINT('',(11.,-2.694222958124E-15,12.));
#26 = LINE('',#27,#28);
#27 = CARTESIAN_POINT('',(11.,-2.694222958124E-15,0.));
#28 = VECTOR('',#29,1.);
#29 = DIRECTION('',(0.,0.,1.));
#30 = ORIENTED_EDGE('',*,*,#31,.F.);
#31 = EDGE_CURVE('',#32,#24,#34,.T.);
#32 = VERTEX_POINT('',#33);
#33 = CARTESIAN_POINT('',(-0.6,10.983624174197,12.));
#34 = CIRCLE('',#35,11.);
#35 = AXIS2_PLACEMENT_3D('',#36,#37,#38);
#36 = CARTESIAN_POINT('',(0.,0.,12.));
#37 = DIRECTION('',(0.,0.,1.));
#38 = DIRECTION('',(1.,0.,0.));
#39 = ORIENTED_EDGE('',*,*,#40,.F.);
#40 = EDGE_CURVE('',#41,#32,#43,.T.);
#41 = VERTEX_POINT('',#42);
#42 = CARTESIAN_POINT('',(-0.6,10.983624174197,0.));
#43 = LINE('',#44,#45);
#44 = CARTESIAN_POINT('',(-0.6,10.983624174197,0.));
#45 = VECTOR('',#46,1.);
#46 = DIRECTION('',(0.,0.,1.));
#47 = ORIENTED_EDGE('',*,*,#48,.T.);
#48 = EDGE_CURVE('',#41,#22,#49,.T.);
#49 = CIRCLE('',#50,11.);
#50 = AXIS2_PLACEMENT_3D('',#51,#52,#53);
#51 = CARTESIAN_POINT('',(0.,0.,0.));
#52 = DIRECTION('',(0.,0.,1.));
#53 = DIRECTION('',(1.,0.,0.));
#54 = FACE_BOUND('',#55,.T.);
#55 = EDGE_LOOP('',(#56));
#56 = ORIENTED_EDGE('',*,*,#57,.T.);
#57 = EDGE_CURVE('',#58,#58,#60,.T.);
#58 = VERTEX_POINT('',#59);
#59 = CARTESIAN_POINT('',(-7.549834435271,8.,7.625));
#60 = B_SPLINE_CURVE_WITH_KNOTS('',6,(#61,#62,#63,#64,#65,#66,#67,#68,
    #69,#70,#71,#72,#73,#74,#75,#76,#77,#78,#79,#80,#81,#82,#83,#84,#85,
    #86,#87,#88,#89,#90,#91,#92,#93,#94,#95,#96,#97,#98,#99,#100,#101,
    #102,#103,#104,#105,#106,#107,#108,#109,#110,#111,#112,#113,#114,
    #115,#116,#117,#118,#119,#120,#121,#122,#123,#124,#125,#126,#127,
    #128,#129,#130,#131,#132,#133,#134,#135,#136,#137,#138,#139,#140,
    #141,#142,#143,#144,#145,#146,#147,#148,#149,#150,#151,#152,#153,
    #154,#155,#156,#157,#158,#159,#160,#161,#162,#163,#164,#165,#166,
    #167,#168,#169,#170,#171,#172),.UNSPECIFIED.,.T.,.F.,(7,5,5,5,5,5,5,
    5,5,5,5,5,5,5,5,5,5,5,5,5,5,5,7),(0.,5.403251114795E-02,
    9.876253988548E-02,0.13913040542,0.182474411597,0.198430723157,
    0.230472757993,0.279036654291,0.321946900151,0.359055010048,
    0.394656722366,0.470212166716,0.554500289188,0.629346168259,
    0.679397590374,0.710192482529,0.73103289887,0.752110455638,
    0.782852797161,0.809753083566,0.832590583729,0.90611711611,1.),
  .UNSPECIFIED.);
#61 = CARTESIAN_POINT('',(-7.549834435271,8.,7.625));
#62 = CARTESIAN_POINT('',(-7.640255193101,7.914667281109,7.625));
#63 = CARTESIAN_POINT('',(-7.729832068542,7.827812405331,7.619622901294)
  );
#64 = CARTESIAN_POINT('',(-7.81813099806,7.739814474055,7.608508405549)
  );
#65 = CARTESIAN_POINT('',(-7.904732013455,7.651109164932,7.591312874695)
  );
#66 = CARTESIAN_POINT('',(-7.98922948531,7.562194096935,7.567709539492)
  );
#67 = CARTESIAN_POINT('',(-8.139117259271,7.400321168599,7.512288048678)
  );
#68 = CARTESIAN_POINT('',(-8.205285700767,7.327259031995,7.482586248478)
  );
#69 = CARTESIAN_POINT('',(-8.269376398358,7.254918588135,7.44816025427)
  );
#70 = CARTESIAN_POINT('',(-8.331071885453,7.183785294288,7.408952114684)
  );
#71 = CARTESIAN_POINT('',(-8.390094530659,7.114350574351,7.364969698695)
  );
#72 = CARTESIAN_POINT('',(-8.496838795687,6.986413794312,7.272352724728)
  );
#73 = CARTESIAN_POINT('',(-8.545078444143,6.927533099159,7.224609751963)
  );
#74 = CARTESIAN_POINT('',(-8.590703611501,6.870869635283,7.173157877654)
  );
#75 = CARTESIAN_POINT('',(-8.63353698081,6.816814898873,7.118159190011)
  );
#76 = CARTESIAN_POINT('',(-8.673436967987,6.765732262905,7.05983794845)
  );
#77 = CARTESIAN_POINT('',(-8.749866034497,6.666636563141,6.932598507221)
  );
#78 = CARTESIAN_POINT('',(-8.78591589869,6.619145249986,6.863238732245)
  );
#79 = CARTESIAN_POINT('',(-8.818333212327,6.575838840796,6.790723213664)
  );
#80 = CARTESIAN_POINT('',(-8.847042195897,6.537036682489,6.715430432311)
  );
#81 = CARTESIAN_POINT('',(-8.871995173225,6.502998982719,6.637792380467)
  );
#82 = CARTESIAN_POINT('',(-8.900961275717,6.463208471739,6.529025486535)
  );
#83 = CARTESIAN_POINT('',(-8.908244385533,6.453171197821,6.499501214727)
  );
#84 = CARTESIAN_POINT('',(-8.915015747079,6.443812178663,6.469740621156)
  );
#85 = CARTESIAN_POINT('',(-8.921274852793,6.4351391336,6.43976505084));
#86 = CARTESIAN_POINT('',(-8.92702145323,6.427158657083,6.409595839859)
  );
#87 = CARTESIAN_POINT('',(-8.942766215309,6.405252278552,6.318325185107)
  );
#88 = CARTESIAN_POINT('',(-8.951209298218,6.393444259398,6.256705502848)
  );
#89 = CARTESIAN_POINT('',(-8.957586199082,6.384494846541,6.194562231772)
  );
#90 = CARTESIAN_POINT('',(-8.961898012278,6.378432638665,6.132064757502)
  );
#91 = CARTESIAN_POINT('',(-8.964145533279,6.375272147815,6.069384888087)
  );
#92 = CARTESIAN_POINT('',(-8.964607718489,6.37462223857,5.911684935994)
  );
#93 = CARTESIAN_POINT('',(-8.960145043121,6.380897188113,5.816616742399)
  );
#94 = CARTESIAN_POINT('',(-8.950937900769,6.393847415127,5.722115770282)
  );
#95 = CARTESIAN_POINT('',(-8.936982829865,6.413399234981,5.628789765685)
  );
#96 = CARTESIAN_POINT('',(-8.918278802583,6.439401507294,5.537227023274)
  );
#97 = CARTESIAN_POINT('',(-8.874110631913,6.500107746961,5.369146719257)
  );
#98 = CARTESIAN_POINT('',(-8.849683560513,6.533451049272,5.292105292305)
  );
#99 = CARTESIAN_POINT('',(-8.821571802508,6.571479469652,5.217336925769)
  );
#100 = CARTESIAN_POINT('',(-8.789820027382,6.613944105732,5.145261837083
    ));
#101 = CARTESIAN_POINT('',(-8.754499417095,6.660539157828,5.076249578981
    ));
#102 = CARTESIAN_POINT('',(-8.68217062309,6.754475259203,4.953858371123)
  );
#103 = CARTESIAN_POINT('',(-8.646045716902,6.800851516261,4.899642849102
    ));
#104 = CARTESIAN_POINT('',(-8.607422193557,6.849792019889,4.848196041638
    ));
#105 = CARTESIAN_POINT('',(-8.566406379958,6.901018399484,4.799700011565
    ));
#106 = CARTESIAN_POINT('',(-8.523130024073,6.95423079164,4.754292542393)
  );
#107 = CARTESIAN_POINT('',(-8.434219153447,7.061771392609,4.671555059346
    ));
#108 = CARTESIAN_POINT('',(-8.388761506619,7.115954756593,4.63398105407)
  );
#109 = CARTESIAN_POINT('',(-8.341503357879,7.171411212187,4.599405210004
    ));
#110 = CARTESIAN_POINT('',(-8.292584086844,7.227881991419,4.567857376898
    ));
#111 = CARTESIAN_POINT('',(-8.24216132362,7.285107171154,4.539336945894)
  );
#112 = CARTESIAN_POINT('',(-8.080589149346,7.465329631701,4.459645141926
    ));
#113 = CARTESIAN_POINT('',(-7.965052748503,7.589778957668,4.419100981586
    ));
#114 = CARTESIAN_POINT('',(-7.844874386421,7.71445141406,4.391433786701)
  );
#115 = CARTESIAN_POINT('',(-7.72115545807,7.837910353895,4.375796665384)
  );
#116 = CARTESIAN_POINT('',(-7.595071578673,7.958950445376,4.371258194119
    ));
#117 = CARTESIAN_POINT('',(-7.326007623618,8.207737411418,4.382990689609
    ));
#118 = CARTESIAN_POINT('',(-7.182479653018,8.334900779217,4.401739578788
    ));
#119 = CARTESIAN_POINT('',(-7.038208625532,8.45736772832,4.431769034026)
  );
#120 = CARTESIAN_POINT('',(-6.893982219364,8.57476880143,4.472147822843)
  );
#121 = CARTESIAN_POINT('',(-6.750616068131,8.686799901819,4.522242163488
    ));
#122 = CARTESIAN_POINT('',(-6.483569471709,8.887520170715,4.634484633583
    ));
#123 = CARTESIAN_POINT('',(-6.35966903208,8.977278080843,4.694575589444)
  );
#124 = CARTESIAN_POINT('',(-6.23772670528,9.062530185497,4.761876349195)
  );
#125 = CARTESIAN_POINT('',(-6.118311075168,9.143174222685,4.836603603436
    ));
#126 = CARTESIAN_POINT('',(-6.002627338921,9.218750572819,4.919107092759
    ));
#127 = CARTESIAN_POINT('',(-5.819463891117,9.334955614136,5.070291588827
    ));
#128 = CARTESIAN_POINT('',(-5.748620432179,9.378924772797,5.134571817496
    ));
#129 = CARTESIAN_POINT('',(-5.680816113939,9.420139641128,5.202811860872
    ));
#130 = CARTESIAN_POINT('',(-5.616859934493,9.458260616028,5.275261658064
    ));
#131 = CARTESIAN_POINT('',(-5.557919348459,9.492796984007,5.352132421911
    ));
#132 = CARTESIAN_POINT('',(-5.473295706437,9.541719991078,5.483683606015
    ));
#133 = CARTESIAN_POINT('',(-5.443480317214,9.558782333531,5.535618419473
    ));
#134 = CARTESIAN_POINT('',(-5.4165732452,9.574039232118,5.589247693798)
  );
#135 = CARTESIAN_POINT('',(-5.393032214507,9.587287322676,5.644441359319
    ));
#136 = CARTESIAN_POINT('',(-5.373279588351,9.598342810514,5.701071738862
    ));
#137 = CARTESIAN_POINT('',(-5.347155335671,9.612911919288,5.798226990724
    ));
#138 = CARTESIAN_POINT('',(-5.338532276356,9.617702626195,5.838003138326
    ));
#139 = CARTESIAN_POINT('',(-5.331968783926,9.621339174934,5.878204357653
    ));
#140 = CARTESIAN_POINT('',(-5.3275589842,9.623778927268,5.918693765457)
  );
#141 = CARTESIAN_POINT('',(-5.325352101035,9.625,5.959336471136));
#142 = CARTESIAN_POINT('',(-5.325352101035,9.625,6.041126233946));
#143 = CARTESIAN_POINT('',(-5.327609491416,9.623750979807,6.082230421648
    ));
#144 = CARTESIAN_POINT('',(-5.332120022489,9.621255502067,6.123175986577
    ));
#145 = CARTESIAN_POINT('',(-5.338832252005,9.617536422123,6.163823811367
    ));
#146 = CARTESIAN_POINT('',(-5.34764792393,9.612638237631,6.204032680869)
  );
#147 = CARTESIAN_POINT('',(-5.37413721416,9.597862938925,6.301457132378)
  );
#148 = CARTESIAN_POINT('',(-5.393997822699,9.586744578339,6.357938477956
    ));
#149 = CARTESIAN_POINT('',(-5.417620555148,9.573447100077,6.4129819263)
  );
#150 = CARTESIAN_POINT('',(-5.444584872153,9.55815351747,6.466462608563)
  );
#151 = CARTESIAN_POINT('',(-5.474436345344,9.541065709068,6.51825341852)
  );
#152 = CARTESIAN_POINT('',(-5.534912140394,9.506093333722,6.611952848481
    ));
#153 = CARTESIAN_POINT('',(-5.565022926085,9.488546746917,6.65436400121)
  );
#154 = CARTESIAN_POINT('',(-5.596784186174,9.469876993466,6.695480853199
    ));
#155 = CARTESIAN_POINT('',(-5.629987234082,9.450173525277,6.735329382952
    ));
#156 = CARTESIAN_POINT('',(-5.66445249076,9.429512623689,6.773939561342)
  );
#157 = CARTESIAN_POINT('',(-5.730233114111,9.389657906279,6.843100956636
    ));
#158 = CARTESIAN_POINT('',(-5.761244250652,9.370709902055,6.873995177496
    ));
#159 = CARTESIAN_POINT('',(-5.792972309766,9.351151332558,6.904048397664
    ));
#160 = CARTESIAN_POINT('',(-5.825340721503,9.331013134165,6.933282296003
    ));
#161 = CARTESIAN_POINT('',(-5.858286863692,9.310319351053,6.961719447247
    ));
#162 = CARTESIAN_POINT('',(-5.99953722259,9.220728900056,7.078448621116)
  );
#163 = CARTESIAN_POINT('',(-6.113016527344,9.146648764106,7.159680219461
    ));
#164 = CARTESIAN_POINT('',(-6.230124410468,9.067674135958,7.233394349249
    ));
#165 = CARTESIAN_POINT('',(-6.349715175074,8.984239807804,7.299935768731
    ));
#166 = CARTESIAN_POINT('',(-6.471249667809,8.896439580068,7.359524007112
    ));
#167 = CARTESIAN_POINT('',(-6.751851438715,8.68626255741,7.479211432475)
  );
#168 = CARTESIAN_POINT('',(-6.911713079179,8.561254087097,7.53476480454)
  );
#169 = CARTESIAN_POINT('',(-7.072578728779,8.429592556641,7.578260730172
    ));
#170 = CARTESIAN_POINT('',(-7.233325505897,8.291709471937,7.608790938895
    ));
#171 = CARTESIAN_POINT('',(-7.392847635686,8.148153043173,7.625));
#172 = CARTESIAN_POINT('',(-7.549834435271,8.,7.625));
#173 = CYLINDRICAL_SURFACE('',#174,11.);
#174 = AXIS2_PLACEMENT_3D('',#175,#176,#177);
#175 = CARTESIAN_POINT('',(0.,0.,0.));
#176 = DIRECTION('',(0.,0.,1.));
#177 = DIRECTION('',(1.,0.,0.));
#178 = ADVANCED_FACE('',(#179,#206),#325,.T.);
#179 = FACE_BOUND('',#180,.T.);
#180 = EDGE_LOOP('',(#181,#190,#191,#200));
#181 = ORIENTED_EDGE('',*,*,#182,.F.);
#182 = EDGE_CURVE('',#24,#183,#185,.T.);
#183 = VERTEX_POINT('',#184);
#184 = CARTESIAN_POINT('',(0.6,10.983624174197,12.));
#185 = CIRCLE('',#186,11.);
#186 = AXIS2_PLACEMENT_3D('',#187,#188,#189);
#187 = CARTESIAN_POINT('',(0.,0.,12.));
#188 = DIRECTION('',(0.,0.,1.));
#189 = DIRECTION('',(1.,0.,0.));
#190 = ORIENTED_EDGE('',*,*,#21,.F.);
#191 = ORIENTED_EDGE('',*,*,#192,.T.);
#192 = EDGE_CURVE('',#22,#193,#195,.T.);
#193 = VERTEX_POINT('',#194);
#194 = CARTESIAN_POINT('',(0.6,10.983624174197,0.));
#195 = CIRCLE('',#196,11.);
#196 = AXIS2_PLACEMENT_3D('',#197,#198,#199);
#197 = CARTESIAN_POINT('',(0.,0.,0.));
#198 = DIRECTION('',(0.,0.,1.));
#199 = DIRECTION('',(1.,0.,0.));
#200 = ORIENTED_EDGE('',*,*,#201,.T.);
#201 = EDGE_CURVE('',#193,#183,#202,.T.);
#202 = LINE('',#203,#204);
#203 = CARTESIAN_POINT('',(0.6,10.983624174197,0.));
#204 = VECTOR('',#205,1.);
#205 = DIRECTION('',(0.,0.,1.));
#206 = FACE_BOUND('',#207,.T.);
#207 = EDGE_LOOP('',(#208));
#208 = ORIENTED_EDGE('',*,*,#209,.F.);
#209 = EDGE_CURVE('',#210,#210,#212,.T.);
#210 = VERTEX_POINT('',#211);
#211 = CARTESIAN_POINT('',(7.549834435271,8.,7.625));
#212 = B_SPLINE_CURVE_WITH_KNOTS('',6,(#213,#214,#215,#216,#217,#218,
    #219,#220,#221,#222,#223,#224,#225,#226,#227,#228,#229,#230,#231,
    #232,#233,#234,#235,#236,#237,#238,#239,#240,#241,#242,#243,#244,
    #245,#246,#247,#248,#249,#250,#251,#252,#253,#254,#255,#256,#257,
    #258,#259,#260,#261,#262,#263,#264,#265,#266,#267,#268,#269,#270,
    #271,#272,#273,#274,#275,#276,#277,#278,#279,#280,#281,#282,#283,
    #284,#285,#286,#287,#288,#289,#290,#291,#292,#293,#294,#295,#296,
    #297,#298,#299,#300,#301,#302,#303,#304,#305,#306,#307,#308,#309,
    #310,#311,#312,#313,#314,#315,#316,#317,#318,#319,#320,#321,#322,
    #323,#324),.UNSPECIFIED.,.T.,.F.,(7,5,5,5,5,5,5,5,5,5,5,5,5,5,5,5,5,
    5,5,5,5,5,7),(0.,5.403251588358E-02,9.876254854488E-02,0.13913041762
    ,0.1824744276,0.198430740559,0.230472776403,0.27903667153,
    0.321946916355,0.359055025357,0.394656736817,0.470212179347,
    0.554500299788,0.629346177056,0.679397597966,0.710192489379,
    0.731032905224,0.752110461494,0.78285280229,0.80975308806,
    0.832590587684,0.906117118328,1.),.UNSPECIFIED.);
#213 = CARTESIAN_POINT('',(7.549834435271,8.,7.625));
#214 = CARTESIAN_POINT('',(7.640255193108,7.914667281102,7.625));
#215 = CARTESIAN_POINT('',(7.72983206854,7.827812405333,7.619622901293)
  );
#216 = CARTESIAN_POINT('',(7.818130998053,7.739814474062,7.60850840555)
  );
#217 = CARTESIAN_POINT('',(7.904732013454,7.651109164934,7.591312874696)
  );
#218 = CARTESIAN_POINT('',(7.989229485316,7.562194096929,7.567709539489)
  );
#219 = CARTESIAN_POINT('',(8.139117259271,7.400321168599,7.512288048678)
  );
#220 = CARTESIAN_POINT('',(8.205285700767,7.327259031995,7.482586248478)
  );
#221 = CARTESIAN_POINT('',(8.269376398358,7.254918588135,7.44816025427)
  );
#222 = CARTESIAN_POINT('',(8.331071885453,7.183785294288,7.408952114684)
  );
#223 = CARTESIAN_POINT('',(8.390094530659,7.114350574351,7.364969698695)
  );
#224 = CARTESIAN_POINT('',(8.496838795687,6.986413794312,7.272352724728)
  );
#225 = CARTESIAN_POINT('',(8.545078444143,6.927533099159,7.224609751963)
  );
#226 = CARTESIAN_POINT('',(8.590703611501,6.870869635283,7.173157877654)
  );
#227 = CARTESIAN_POINT('',(8.63353698081,6.816814898873,7.118159190011)
  );
#228 = CARTESIAN_POINT('',(8.673436967987,6.765732262905,7.05983794845)
  );
#229 = CARTESIAN_POINT('',(8.749866034497,6.666636563141,6.932598507221)
  );
#230 = CARTESIAN_POINT('',(8.78591589869,6.619145249986,6.863238732245)
  );
#231 = CARTESIAN_POINT('',(8.818333212327,6.575838840796,6.790723213664)
  );
#232 = CARTESIAN_POINT('',(8.847042195897,6.537036682489,6.715430432311)
  );
#233 = CARTESIAN_POINT('',(8.871995173225,6.502998982719,6.637792380467)
  );
#234 = CARTESIAN_POINT('',(8.900961275717,6.463208471739,6.529025486535)
  );
#235 = CARTESIAN_POINT('',(8.908244385533,6.453171197821,6.499501214727)
  );
#236 = CARTESIAN_POINT('',(8.915015747079,6.443812178663,6.469740621156)
  );
#237 = CARTESIAN_POINT('',(8.921274852793,6.4351391336,6.43976505084));
#238 = CARTESIAN_POINT('',(8.92702145323,6.427158657083,6.409595839859)
  );
#239 = CARTESIAN_POINT('',(8.942766214717,6.405252279375,6.318325188536)
  );
#240 = CARTESIAN_POINT('',(8.951209298065,6.39344425961,6.256705501896)
  );
#241 = CARTESIAN_POINT('',(8.957586199382,6.384494846123,6.194562228303)
  );
#242 = CARTESIAN_POINT('',(8.96189801259,6.37843263823,6.132064756593));
#243 = CARTESIAN_POINT('',(8.964145533268,6.375272147829,6.06938489157)
  );
#244 = CARTESIAN_POINT('',(8.964607718489,6.37462223857,5.911684935994)
  );
#245 = CARTESIAN_POINT('',(8.960145043121,6.380897188113,5.816616742399)
  );
#246 = CARTESIAN_POINT('',(8.950937900769,6.393847415127,5.722115770282)
  );
#247 = CARTESIAN_POINT('',(8.936982829865,6.413399234981,5.628789765685)
  );
#248 = CARTESIAN_POINT('',(8.918278802583,6.439401507294,5.537227023274)
  );
#249 = CARTESIAN_POINT('',(8.874110631913,6.500107746961,5.369146719257)
  );
#250 = CARTESIAN_POINT('',(8.849683560513,6.533451049272,5.292105292305)
  );
#251 = CARTESIAN_POINT('',(8.821571802508,6.571479469652,5.217336925769)
  );
#252 = CARTESIAN_POINT('',(8.789820027382,6.613944105732,5.145261837083)
  );
#253 = CARTESIAN_POINT('',(8.754499417095,6.660539157828,5.076249578981)
  );
#254 = CARTESIAN_POINT('',(8.68217062309,6.754475259203,4.953858371123)
  );
#255 = CARTESIAN_POINT('',(8.646045716902,6.800851516261,4.899642849102)
  );
#256 = CARTESIAN_POINT('',(8.607422193557,6.849792019889,4.848196041638)
  );
#257 = CARTESIAN_POINT('',(8.566406379958,6.901018399484,4.799700011565)
  );
#258 = CARTESIAN_POINT('',(8.523130024073,6.95423079164,4.754292542393)
  );
#259 = CARTESIAN_POINT('',(8.434219153447,7.061771392609,4.671555059345)
  );
#260 = CARTESIAN_POINT('',(8.388761506619,7.115954756593,4.63398105407)
  );
#261 = CARTESIAN_POINT('',(8.34150335788,7.171411212186,4.599405210005)
  );
#262 = CARTESIAN_POINT('',(8.292584086844,7.227881991419,4.567857376898)
  );
#263 = CARTESIAN_POINT('',(8.242161323619,7.285107171155,4.539336945894)
  );
#264 = CARTESIAN_POINT('',(8.080589149346,7.465329631701,4.459645141926)
  );
#265 = CARTESIAN_POINT('',(7.965052748503,7.589778957668,4.419100981586)
  );
#266 = CARTESIAN_POINT('',(7.844874386422,7.71445141406,4.391433786701)
  );
#267 = CARTESIAN_POINT('',(7.72115545807,7.837910353895,4.375796665384)
  );
#268 = CARTESIAN_POINT('',(7.595071578673,7.958950445376,4.371258194119)
  );
#269 = CARTESIAN_POINT('',(7.326007623618,8.207737411418,4.382990689609)
  );
#270 = CARTESIAN_POINT('',(7.182479653018,8.334900779217,4.401739578788)
  );
#271 = CARTESIAN_POINT('',(7.038208625532,8.457367728319,4.431769034026)
  );
#272 = CARTESIAN_POINT('',(6.893982219364,8.57476880143,4.472147822843)
  );
#273 = CARTESIAN_POINT('',(6.750616068131,8.686799901819,4.522242163488)
  );
#274 = CARTESIAN_POINT('',(6.483569471708,8.887520170715,4.634484633583)
  );
#275 = CARTESIAN_POINT('',(6.359669032079,8.977278080843,4.694575589444)
  );
#276 = CARTESIAN_POINT('',(6.23772670528,9.062530185497,4.761876349195)
  );
#277 = CARTESIAN_POINT('',(6.118311075168,9.143174222685,4.836603603436)
  );
#278 = CARTESIAN_POINT('',(6.002627338921,9.218750572819,4.919107092759)
  );
#279 = CARTESIAN_POINT('',(5.819463891117,9.334955614136,5.070291588827)
  );
#280 = CARTESIAN_POINT('',(5.748620432179,9.378924772797,5.134571817496)
  );
#281 = CARTESIAN_POINT('',(5.680816113939,9.420139641128,5.202811860872)
  );
#282 = CARTESIAN_POINT('',(5.616859934492,9.458260616028,5.275261658064)
  );
#283 = CARTESIAN_POINT('',(5.557919348459,9.492796984007,5.352132421911)
  );
#284 = CARTESIAN_POINT('',(5.473295706437,9.541719991078,5.483683606015)
  );
#285 = CARTESIAN_POINT('',(5.443480317214,9.558782333531,5.535618419473)
  );
#286 = CARTESIAN_POINT('',(5.4165732452,9.574039232118,5.589247693798));
#287 = CARTESIAN_POINT('',(5.393032214507,9.587287322676,5.644441359319)
  );
#288 = CARTESIAN_POINT('',(5.373279588351,9.598342810514,5.701071738862)
  );
#289 = CARTESIAN_POINT('',(5.347155335669,9.61291191929,5.798226990733)
  );
#290 = CARTESIAN_POINT('',(5.338532276358,9.617702626194,5.838003138324)
  );
#291 = CARTESIAN_POINT('',(5.331968783928,9.621339174934,5.878204357644)
  );
#292 = CARTESIAN_POINT('',(5.327558984199,9.623778927268,5.918693765455)
  );
#293 = CARTESIAN_POINT('',(5.325352101035,9.625,5.959336471146));
#294 = CARTESIAN_POINT('',(5.325352101035,9.625,6.041126233946));
#295 = CARTESIAN_POINT('',(5.327609491416,9.623750979807,6.082230421648)
  );
#296 = CARTESIAN_POINT('',(5.332120022489,9.621255502067,6.123175986577)
  );
#297 = CARTESIAN_POINT('',(5.338832252005,9.617536422123,6.163823811367)
  );
#298 = CARTESIAN_POINT('',(5.34764792393,9.612638237631,6.204032680869)
  );
#299 = CARTESIAN_POINT('',(5.37413721416,9.597862938925,6.301457132378)
  );
#300 = CARTESIAN_POINT('',(5.393997822699,9.586744578339,6.357938477956)
  );
#301 = CARTESIAN_POINT('',(5.417620555148,9.573447100077,6.4129819263));
#302 = CARTESIAN_POINT('',(5.444584872153,9.55815351747,6.466462608563)
  );
#303 = CARTESIAN_POINT('',(5.474436345344,9.541065709068,6.51825341852)
  );
#304 = CARTESIAN_POINT('',(5.534912140394,9.506093333722,6.611952848481)
  );
#305 = CARTESIAN_POINT('',(5.565022926085,9.488546746917,6.65436400121)
  );
#306 = CARTESIAN_POINT('',(5.596784186174,9.469876993466,6.695480853199)
  );
#307 = CARTESIAN_POINT('',(5.629987234082,9.450173525277,6.735329382952)
  );
#308 = CARTESIAN_POINT('',(5.66445249076,9.429512623689,6.773939561342)
  );
#309 = CARTESIAN_POINT('',(5.730233114111,9.389657906279,6.843100956636)
  );
#310 = CARTESIAN_POINT('',(5.761244250652,9.370709902055,6.873995177496)
  );
#311 = CARTESIAN_POINT('',(5.792972309766,9.351151332558,6.904048397664)
  );
#312 = CARTESIAN_POINT('',(5.825340721503,9.331013134165,6.933282296003)
  );
#313 = CARTESIAN_POINT('',(5.858286863692,9.310319351053,6.961719447247)
  );
#314 = CARTESIAN_POINT('',(5.99953722259,9.220728900056,7.078448621116)
  );
#315 = CARTESIAN_POINT('',(6.113016527345,9.146648764105,7.159680219461)
  );
#316 = CARTESIAN_POINT('',(6.230124410468,9.067674135958,7.233394349249)
  );
#317 = CARTESIAN_POINT('',(6.349715175075,8.984239807804,7.299935768732)
  );
#318 = CARTESIAN_POINT('',(6.471249667809,8.896439580068,7.359524007112)
  );
#319 = CARTESIAN_POINT('',(6.751851438715,8.686262557409,7.479211432476)
  );
#320 = CARTESIAN_POINT('',(6.911713079179,8.561254087097,7.53476480454)
  );
#321 = CARTESIAN_POINT('',(7.072578728779,8.429592556641,7.578260730172)
  );
#322 = CARTESIAN_POINT('',(7.233325505897,8.291709471938,7.608790938895)
  );
#323 = CARTESIAN_POINT('',(7.392847635687,8.148153043173,7.625));
#324 = CARTESIAN_POINT('',(7.549834435271,8.,7.625));
#325 = CYLINDRICAL_SURFACE('',#326,11.);
#326 = AXIS2_PLACEMENT_3D('',#327,#328,#329);
#327 = CARTESIAN_POINT('',(0.,0.,0.));
#328 = DIRECTION('',(0.,0.,1.));
#329 = DIRECTION('',(1.,0.,0.));
#330 = ADVANCED_FACE('',(#331),#367,.T.);
#331 = FACE_BOUND('',#332,.T.);
#332 = EDGE_LOOP('',(#333,#334,#335,#343,#352,#361));
#333 = ORIENTED_EDGE('',*,*,#31,.T.);
#334 = ORIENTED_EDGE('',*,*,#182,.T.);
#335 = ORIENTED_EDGE('',*,*,#336,.F.);
#336 = EDGE_CURVE('',#337,#183,#339,.T.);
#337 = VERTEX_POINT('',#338);
#338 = CARTESIAN_POINT('',(0.6,2.426932219902,12.));
#339 = LINE('',#340,#341);
#340 = CARTESIAN_POINT('',(0.6,0.,12.));
#341 = VECTOR('',#342,1.);
#342 = DIRECTION('',(0.,1.,0.));
#343 = ORIENTED_EDGE('',*,*,#344,.F.);
#344 = EDGE_CURVE('',#345,#337,#347,.T.);
#345 = VERTEX_POINT('',#346);
#346 = CARTESIAN_POINT('',(2.5,-6.123233995737E-16,12.));
#347 = CIRCLE('',#348,2.5);
#348 = AXIS2_PLACEMENT_3D('',#349,#350,#351);
#349 = CARTESIAN_POINT('',(0.,0.,12.));
#350 = DIRECTION('',(0.,0.,1.));
#351 = DIRECTION('',(1.,0.,0.));
#352 = ORIENTED_EDGE('',*,*,#353,.F.);
#353 = EDGE_CURVE('',#354,#345,#356,.T.);
#354 = VERTEX_POINT('',#355);
#355 = CARTESIAN_POINT('',(-0.6,2.426932219902,12.));
#356 = CIRCLE('',#357,2.5);
#357 = AXIS2_PLACEMENT_3D('',#358,#359,#360);
#358 = CARTESIAN_POINT('',(0.,0.,12.));
#359 = DIRECTION('',(0.,0.,1.));
#360 = DIRECTION('',(1.,0.,0.));
#361 = ORIENTED_EDGE('',*,*,#362,.T.);
#362 = EDGE_CURVE('',#354,#32,#363,.T.);
#363 = LINE('',#364,#365);
#364 = CARTESIAN_POINT('',(-0.6,0.,12.));
#365 = VECTOR('',#366,1.);
#366 = DIRECTION('',(0.,1.,0.));
#367 = PLANE('',#368);
#368 = AXIS2_PLACEMENT_3D('',#369,#370,#371);
#369 = CARTESIAN_POINT('',(0.,0.,12.));
#370 = DIRECTION('',(0.,0.,1.));
#371 = DIRECTION('',(1.,0.,0.));
#372 = ADVANCED_FACE('',(#373),#409,.F.);
#373 = FACE_BOUND('',#374,.F.);
#374 = EDGE_LOOP('',(#375,#376,#377,#385,#394,#403));
#375 = ORIENTED_EDGE('',*,*,#48,.T.);
#376 = ORIENTED_EDGE('',*,*,#192,.T.);
#377 = ORIENTED_EDGE('',*,*,#378,.F.);
#378 = EDGE_CURVE('',#379,#193,#381,.T.);
#379 = VERTEX_POINT('',#380);
#380 = CARTESIAN_POINT('',(0.6,2.426932219902,0.));
#381 = LINE('',#382,#383);
#382 = CARTESIAN_POINT('',(0.6,0.,0.));
#383 = VECTOR('',#384,1.);
#384 = DIRECTION('',(0.,1.,0.));
#385 = ORIENTED_EDGE('',*,*,#386,.F.);
#386 = EDGE_CURVE('',#387,#379,#389,.T.);
#387 = VERTEX_POINT('',#388);
#388 = CARTESIAN_POINT('',(2.5,-6.123233995737E-16,0.));
#389 = CIRCLE('',#390,2.5);
#390 = AXIS2_PLACEMENT_3D('',#391,#392,#393);
#391 = CARTESIAN_POINT('',(0.,0.,0.));
#392 = DIRECTION('',(0.,0.,1.));
#393 = DIRECTION('',(1.,0.,0.));
#394 = ORIENTED_EDGE('',*,*,#395,.F.);
#395 = EDGE_CURVE('',#396,#387,#398,.T.);
#396 = VERTEX_POINT('',#397);
#397 = CARTESIAN_POINT('',(-0.6,2.426932219902,0.));
#398 = CIRCLE('',#399,2.5);
#399 = AXIS2_PLACEMENT_3D('',#400,#401,#402);
#400 = CARTESIAN_POINT('',(0.,0.,0.));
#401 = DIRECTION('',(0.,0.,1.));
#402 = DIRECTION('',(1.,0.,0.));
#403 = ORIENTED_EDGE('',*,*,#404,.T.);
#404 = EDGE_CURVE('',#396,#41,#405,.T.);
#405 = LINE('',#406,#407);
#406 = CARTESIAN_POINT('',(-0.6,0.,0.));
#407 = VECTOR('',#408,1.);
#408 = DIRECTION('',(0.,1.,0.));
#409 = PLANE('',#410);
#410 = AXIS2_PLACEMENT_3D('',#411,#412,#413);
#411 = CARTESIAN_POINT('',(0.,0.,0.));
#412 = DIRECTION('',(0.,0.,1.));
#413 = DIRECTION('',(1.,0.,0.));
#414 = ADVANCED_FACE('',(#415,#426),#437,.T.);
#415 = FACE_BOUND('',#416,.T.);
#416 = EDGE_LOOP('',(#417,#418,#424,#425));
#417 = ORIENTED_EDGE('',*,*,#362,.F.);
#418 = ORIENTED_EDGE('',*,*,#419,.F.);
#419 = EDGE_CURVE('',#396,#354,#420,.T.);
#420 = LINE('',#421,#422);
#421 = CARTESIAN_POINT('',(-0.6,2.426932219902,0.));
#422 = VECTOR('',#423,1.);
#423 = DIRECTION('',(0.,0.,1.));
#424 = ORIENTED_EDGE('',*,*,#404,.T.);
#425 = ORIENTED_EDGE('',*,*,#40,.T.);
#426 = FACE_BOUND('',#427,.T.);
#427 = EDGE_LOOP('',(#428));
#428 = ORIENTED_EDGE('',*,*,#429,.F.);
#429 = EDGE_CURVE('',#430,#430,#432,.T.);
#430 = VERTEX_POINT('',#431);
#431 = CARTESIAN_POINT('',(-0.6,8.,7.625));
#432 = CIRCLE('',#433,1.625);
#433 = AXIS2_PLACEMENT_3D('',#434,#435,#436);
#434 = CARTESIAN_POINT('',(-0.6,8.,6.));
#435 = DIRECTION('',(1.,0.,-0.));
#436 = DIRECTION('',(0.,0.,1.));
#437 = PLANE('',#438);
#438 = AXIS2_PLACEMENT_3D('',#439,#440,#441);
#439 = CARTESIAN_POINT('',(-0.6,0.,0.));
#440 = DIRECTION('',(1.,0.,0.));
#441 = DIRECTION('',(0.,0.,1.));
#442 = ADVANCED_FACE('',(#443),#454,.F.);
#443 = FACE_BOUND('',#444,.F.);
#444 = EDGE_LOOP('',(#445,#446,#452,#453));
#445 = ORIENTED_EDGE('',*,*,#429,.F.);
#446 = ORIENTED_EDGE('',*,*,#447,.F.);
#447 = EDGE_CURVE('',#58,#430,#448,.T.);
#448 = LINE('',#449,#450);
#449 = CARTESIAN_POINT('',(-11.,8.,7.625));
#450 = VECTOR('',#451,1.);
#451 = DIRECTION('',(1.,0.,0.));
#452 = ORIENTED_EDGE('',*,*,#57,.T.);
#453 = ORIENTED_EDGE('',*,*,#447,.T.);
#454 = CYLINDRICAL_SURFACE('',#455,1.625);
#455 = AXIS2_PLACEMENT_3D('',#456,#457,#458);
#456 = CARTESIAN_POINT('',(-11.,8.,6.));
#457 = DIRECTION('',(1.,0.,0.));
#458 = DIRECTION('',(0.,0.,1.));
#459 = ADVANCED_FACE('',(#460,#471),#482,.F.);
#460 = FACE_BOUND('',#461,.F.);
#461 = EDGE_LOOP('',(#462,#463,#469,#470));
#462 = ORIENTED_EDGE('',*,*,#336,.F.);
#463 = ORIENTED_EDGE('',*,*,#464,.F.);
#464 = EDGE_CURVE('',#379,#337,#465,.T.);
#465 = LINE('',#466,#467);
#466 = CARTESIAN_POINT('',(0.6,2.426932219902,0.));
#467 = VECTOR('',#468,1.);
#468 = DIRECTION('',(0.,0.,1.));
#469 = ORIENTED_EDGE('',*,*,#378,.T.);
#470 = ORIENTED_EDGE('',*,*,#201,.T.);
#471 = FACE_BOUND('',#472,.F.);
#472 = EDGE_LOOP('',(#473));
#473 = ORIENTED_EDGE('',*,*,#474,.F.);
#474 = EDGE_CURVE('',#475,#475,#477,.T.);
#475 = VERTEX_POINT('',#476);
#476 = CARTESIAN_POINT('',(0.6,8.,7.625));
#477 = CIRCLE('',#478,1.625);
#478 = AXIS2_PLACEMENT_3D('',#479,#480,#481);
#479 = CARTESIAN_POINT('',(0.6,8.,6.));
#480 = DIRECTION('',(1.,0.,-0.));
#481 = DIRECTION('',(0.,0.,1.));
#482 = PLANE('',#483);
#483 = AXIS2_PLACEMENT_3D('',#484,#485,#486);
#484 = CARTESIAN_POINT('',(0.6,0.,0.));
#485 = DIRECTION('',(1.,0.,0.));
#486 = DIRECTION('',(0.,0.,1.));
#487 = ADVANCED_FACE('',(#488),#499,.F.);
#488 = FACE_BOUND('',#489,.F.);
#489 = EDGE_LOOP('',(#490,#491,#497,#498));
#490 = ORIENTED_EDGE('',*,*,#209,.F.);
#491 = ORIENTED_EDGE('',*,*,#492,.F.);
#492 = EDGE_CURVE('',#475,#210,#493,.T.);
#493 = LINE('',#494,#495);
#494 = CARTESIAN_POINT('',(-11.,8.,7.625));
#495 = VECTOR('',#496,1.);
#496 = DIRECTION('',(1.,0.,0.));
#497 = ORIENTED_EDGE('',*,*,#474,.T.);
#498 = ORIENTED_EDGE('',*,*,#492,.T.);
#499 = CYLINDRICAL_SURFACE('',#500,1.625);
#500 = AXIS2_PLACEMENT_3D('',#501,#502,#503);
#501 = CARTESIAN_POINT('',(-11.,8.,6.));
#502 = DIRECTION('',(1.,0.,0.));
#503 = DIRECTION('',(0.,0.,1.));
#504 = ADVANCED_FACE('',(#505),#516,.F.);
#505 = FACE_BOUND('',#506,.F.);
#506 = EDGE_LOOP('',(#507,#513,#514,#515));
#507 = ORIENTED_EDGE('',*,*,#508,.T.);
#508 = EDGE_CURVE('',#387,#345,#509,.T.);
#509 = LINE('',#510,#511);
#510 = CARTESIAN_POINT('',(2.5,-6.123233995737E-16,0.));
#511 = VECTOR('',#512,1.);
#512 = DIRECTION('',(0.,0.,1.));
#513 = ORIENTED_EDGE('',*,*,#353,.F.);
#514 = ORIENTED_EDGE('',*,*,#419,.F.);
#515 = ORIENTED_EDGE('',*,*,#395,.T.);
#516 = CYLINDRICAL_SURFACE('',#517,2.5);
#517 = AXIS2_PLACEMENT_3D('',#518,#519,#520);
#518 = CARTESIAN_POINT('',(0.,0.,0.));
#519 = DIRECTION('',(0.,0.,1.));
#520 = DIRECTION('',(1.,0.,0.));
#521 = ADVANCED_FACE('',(#522),#528,.F.);
#522 = FACE_BOUND('',#523,.F.);
#523 = EDGE_LOOP('',(#524,#525,#526,#527));
#524 = ORIENTED_EDGE('',*,*,#344,.F.);
#525 = ORIENTED_EDGE('',*,*,#508,.F.);
#526 = ORIENTED_EDGE('',*,*,#386,.T.);
#527 = ORIENTED_EDGE('',*,*,#464,.T.);
#528 = CYLINDRICAL_SURFACE('',#529,2.5);
#529 = AXIS2_PLACEMENT_3D('',#530,#531,#532);
#530 = CARTESIAN_POINT('',(0.,0.,0.));
#531 = DIRECTION('',(0.,0.,1.));
#532 = DIRECTION('',(1.,0.,0.));
#533 = ( GEOMETRIC_REPRESENTATION_CONTEXT(3) 
GLOBAL_UNCERTAINTY_ASSIGNED_CONTEXT((#537)) GLOBAL_UNIT_ASSIGNED_CONTEXT
((#534,#535,#536)) REPRESENTATION_CONTEXT('Context #1',
  '3D Context with UNIT and UNCERTAINTY') );
#534 = ( LENGTH_UNIT() NAMED_UNIT(*) SI_UNIT(.MILLI.,.METRE.) );
#535 = ( NAMED_UNIT(*) PLANE_ANGLE_UNIT() SI_UNIT($,.RADIAN.) );
#536 = ( NAMED_UNIT(*) SI_UNIT($,.STERADIAN.) SOLID_ANGLE_UNIT() );
#537 = UNCERTAINTY_MEASURE_WITH_UNIT(LENGTH_MEASURE(1.E-07),#534,
  'distance_accuracy_value','confusion accuracy');
#538 = PRODUCT_RELATED_PRODUCT_CATEGORY('part',$,(#7));
ENDSEC;
END-ISO-10303-21;
