ISO-10303-21;
HEADER;
FILE_DESCRIPTION(('FreeCAD Model'),'2;1');
FILE_NAME('Open CASCADE Shape Model','2026-07-24T17:08:16',('FreeCAD'),(
    'FreeCAD'),'Open CASCADE STEP processor 7.8','FreeCAD','Unknown');
FILE_SCHEMA(('AUTOMOTIVE_DESIGN { 1 0 10303 214 1 1 1 1 }'));
ENDSEC;
DATA;
#1 = APPLICATION_PROTOCOL_DEFINITION('international standard',
  'automotive_design',2000,#2);
#2 = APPLICATION_CONTEXT(
  'core data for automotive mechanical design processes');
#3 = SHAPE_DEFINITION_REPRESENTATION(#4,#10);
#4 = PRODUCT_DEFINITION_SHAPE('','',#5);
#5 = PRODUCT_DEFINITION('design','',#6,#9);
#6 = PRODUCT_DEFINITION_FORMATION('','',#7);
#7 = PRODUCT('Open CASCADE STEP translator 7.8 58',
  'Open CASCADE STEP translator 7.8 58','',(#8));
#8 = PRODUCT_CONTEXT('',#2,'mechanical');
#9 = PRODUCT_DEFINITION_CONTEXT('part definition',#2,'design');
#10 = ADVANCED_BREP_SHAPE_REPRESENTATION('',(#11,#15),#782);
#11 = AXIS2_PLACEMENT_3D('',#12,#13,#14);
#12 = CARTESIAN_POINT('',(0.,0.,0.));
#13 = DIRECTION('',(0.,0.,1.));
#14 = DIRECTION('',(1.,0.,-0.));
#15 = MANIFOLD_SOLID_BREP('',#16);
#16 = CLOSED_SHELL('',(#17,#67,#128,#160,#202,#227,#252,#287,#447,#607,
    #631,#655,#672,#708,#725,#742,#769));
#17 = ADVANCED_FACE('',(#18),#62,.F.);
#18 = FACE_BOUND('',#19,.F.);
#19 = EDGE_LOOP('',(#20,#30,#39,#48,#56));
#20 = ORIENTED_EDGE('',*,*,#21,.T.);
#21 = EDGE_CURVE('',#22,#24,#26,.T.);
#22 = VERTEX_POINT('',#23);
#23 = CARTESIAN_POINT('',(7.,-2.5,0.));
#24 = VERTEX_POINT('',#25);
#25 = CARTESIAN_POINT('',(9.682458365519,-2.5,0.));
#26 = LINE('',#27,#28);
#27 = CARTESIAN_POINT('',(7.,-2.5,0.));
#28 = VECTOR('',#29,1.);
#29 = DIRECTION('',(1.,0.,0.));
#30 = ORIENTED_EDGE('',*,*,#31,.T.);
#31 = EDGE_CURVE('',#24,#32,#34,.T.);
#32 = VERTEX_POINT('',#33);
#33 = CARTESIAN_POINT('',(10.,-2.449293598295E-15,0.));
#34 = CIRCLE('',#35,10.);
#35 = AXIS2_PLACEMENT_3D('',#36,#37,#38);
#36 = CARTESIAN_POINT('',(0.,0.,0.));
#37 = DIRECTION('',(0.,0.,1.));
#38 = DIRECTION('',(1.,0.,0.));
#39 = ORIENTED_EDGE('',*,*,#40,.T.);
#40 = EDGE_CURVE('',#32,#41,#43,.T.);
#41 = VERTEX_POINT('',#42);
#42 = CARTESIAN_POINT('',(9.682458365518,2.5,0.));
#43 = CIRCLE('',#44,10.);
#44 = AXIS2_PLACEMENT_3D('',#45,#46,#47);
#45 = CARTESIAN_POINT('',(0.,0.,0.));
#46 = DIRECTION('',(0.,0.,1.));
#47 = DIRECTION('',(1.,0.,0.));
#48 = ORIENTED_EDGE('',*,*,#49,.F.);
#49 = EDGE_CURVE('',#50,#41,#52,.T.);
#50 = VERTEX_POINT('',#51);
#51 = CARTESIAN_POINT('',(7.,2.5,0.));
#52 = LINE('',#53,#54);
#53 = CARTESIAN_POINT('',(7.,2.5,0.));
#54 = VECTOR('',#55,1.);
#55 = DIRECTION('',(1.,0.,0.));
#56 = ORIENTED_EDGE('',*,*,#57,.F.);
#57 = EDGE_CURVE('',#22,#50,#58,.T.);
#58 = LINE('',#59,#60);
#59 = CARTESIAN_POINT('',(7.,-2.5,0.));
#60 = VECTOR('',#61,1.);
#61 = DIRECTION('',(0.,1.,0.));
#62 = PLANE('',#63);
#63 = AXIS2_PLACEMENT_3D('',#64,#65,#66);
#64 = CARTESIAN_POINT('',(0.,0.,0.));
#65 = DIRECTION('',(0.,0.,1.));
#66 = DIRECTION('',(1.,0.,0.));
#67 = ADVANCED_FACE('',(#68),#123,.F.);
#68 = FACE_BOUND('',#69,.F.);
#69 = EDGE_LOOP('',(#70,#80,#87,#88,#89,#90,#99,#107,#116));
#70 = ORIENTED_EDGE('',*,*,#71,.T.);
#71 = EDGE_CURVE('',#72,#74,#76,.T.);
#72 = VERTEX_POINT('',#73);
#73 = CARTESIAN_POINT('',(-0.5,2.525989904968,0.));
#74 = VERTEX_POINT('',#75);
#75 = CARTESIAN_POINT('',(-0.5,9.987492177719,0.));
#76 = LINE('',#77,#78);
#77 = CARTESIAN_POINT('',(-0.5,0.,0.));
#78 = VECTOR('',#79,1.);
#79 = DIRECTION('',(0.,1.,0.));
#80 = ORIENTED_EDGE('',*,*,#81,.T.);
#81 = EDGE_CURVE('',#74,#24,#82,.T.);
#82 = CIRCLE('',#83,10.);
#83 = AXIS2_PLACEMENT_3D('',#84,#85,#86);
#84 = CARTESIAN_POINT('',(0.,0.,0.));
#85 = DIRECTION('',(0.,0.,1.));
#86 = DIRECTION('',(1.,0.,0.));
#87 = ORIENTED_EDGE('',*,*,#21,.F.);
#88 = ORIENTED_EDGE('',*,*,#57,.T.);
#89 = ORIENTED_EDGE('',*,*,#49,.T.);
#90 = ORIENTED_EDGE('',*,*,#91,.T.);
#91 = EDGE_CURVE('',#41,#92,#94,.T.);
#92 = VERTEX_POINT('',#93);
#93 = CARTESIAN_POINT('',(0.5,9.987492177719,0.));
#94 = CIRCLE('',#95,10.);
#95 = AXIS2_PLACEMENT_3D('',#96,#97,#98);
#96 = CARTESIAN_POINT('',(0.,0.,0.));
#97 = DIRECTION('',(0.,0.,1.));
#98 = DIRECTION('',(1.,0.,0.));
#99 = ORIENTED_EDGE('',*,*,#100,.F.);
#100 = EDGE_CURVE('',#101,#92,#103,.T.);
#101 = VERTEX_POINT('',#102);
#102 = CARTESIAN_POINT('',(0.5,2.525989904968,0.));
#103 = LINE('',#104,#105);
#104 = CARTESIAN_POINT('',(0.5,0.,0.));
#105 = VECTOR('',#106,1.);
#106 = DIRECTION('',(0.,1.,0.));
#107 = ORIENTED_EDGE('',*,*,#108,.F.);
#108 = EDGE_CURVE('',#109,#101,#111,.T.);
#109 = VERTEX_POINT('',#110);
#110 = CARTESIAN_POINT('',(2.575,-6.306931015609E-16,0.));
#111 = CIRCLE('',#112,2.575);
#112 = AXIS2_PLACEMENT_3D('',#113,#114,#115);
#113 = CARTESIAN_POINT('',(0.,0.,0.));
#114 = DIRECTION('',(0.,0.,1.));
#115 = DIRECTION('',(1.,0.,0.));
#116 = ORIENTED_EDGE('',*,*,#117,.F.);
#117 = EDGE_CURVE('',#72,#109,#118,.T.);
#118 = CIRCLE('',#119,2.575);
#119 = AXIS2_PLACEMENT_3D('',#120,#121,#122);
#120 = CARTESIAN_POINT('',(0.,0.,0.));
#121 = DIRECTION('',(0.,0.,1.));
#122 = DIRECTION('',(1.,0.,0.));
#123 = PLANE('',#124);
#124 = AXIS2_PLACEMENT_3D('',#125,#126,#127);
#125 = CARTESIAN_POINT('',(0.,0.,0.));
#126 = DIRECTION('',(0.,0.,1.));
#127 = DIRECTION('',(1.,0.,0.));
#128 = ADVANCED_FACE('',(#129),#155,.F.);
#129 = FACE_BOUND('',#130,.F.);
#130 = EDGE_LOOP('',(#131,#132,#140,#148,#154));
#131 = ORIENTED_EDGE('',*,*,#31,.F.);
#132 = ORIENTED_EDGE('',*,*,#133,.T.);
#133 = EDGE_CURVE('',#24,#134,#136,.T.);
#134 = VERTEX_POINT('',#135);
#135 = CARTESIAN_POINT('',(29.,-2.5,0.));
#136 = LINE('',#137,#138);
#137 = CARTESIAN_POINT('',(7.,-2.5,0.));
#138 = VECTOR('',#139,1.);
#139 = DIRECTION('',(1.,0.,0.));
#140 = ORIENTED_EDGE('',*,*,#141,.T.);
#141 = EDGE_CURVE('',#134,#142,#144,.T.);
#142 = VERTEX_POINT('',#143);
#143 = CARTESIAN_POINT('',(29.,2.5,0.));
#144 = LINE('',#145,#146);
#145 = CARTESIAN_POINT('',(29.,-2.5,0.));
#146 = VECTOR('',#147,1.);
#147 = DIRECTION('',(0.,1.,0.));
#148 = ORIENTED_EDGE('',*,*,#149,.F.);
#149 = EDGE_CURVE('',#41,#142,#150,.T.);
#150 = LINE('',#151,#152);
#151 = CARTESIAN_POINT('',(7.,2.5,0.));
#152 = VECTOR('',#153,1.);
#153 = DIRECTION('',(1.,0.,0.));
#154 = ORIENTED_EDGE('',*,*,#40,.F.);
#155 = PLANE('',#156);
#156 = AXIS2_PLACEMENT_3D('',#157,#158,#159);
#157 = CARTESIAN_POINT('',(7.,-2.5,0.));
#158 = DIRECTION('',(0.,0.,1.));
#159 = DIRECTION('',(1.,0.,0.));
#160 = ADVANCED_FACE('',(#161,#186),#197,.T.);
#161 = FACE_BOUND('',#162,.T.);
#162 = EDGE_LOOP('',(#163,#173,#179,#180));
#163 = ORIENTED_EDGE('',*,*,#164,.F.);
#164 = EDGE_CURVE('',#165,#167,#169,.T.);
#165 = VERTEX_POINT('',#166);
#166 = CARTESIAN_POINT('',(-0.5,2.525989904968,5.));
#167 = VERTEX_POINT('',#168);
#168 = CARTESIAN_POINT('',(-0.5,9.987492177719,5.));
#169 = LINE('',#170,#171);
#170 = CARTESIAN_POINT('',(-0.5,0.,5.));
#171 = VECTOR('',#172,1.);
#172 = DIRECTION('',(0.,1.,0.));
#173 = ORIENTED_EDGE('',*,*,#174,.F.);
#174 = EDGE_CURVE('',#72,#165,#175,.T.);
#175 = LINE('',#176,#177);
#176 = CARTESIAN_POINT('',(-0.5,2.525989904968,0.));
#177 = VECTOR('',#178,1.);
#178 = DIRECTION('',(0.,0.,1.));
#179 = ORIENTED_EDGE('',*,*,#71,.T.);
#180 = ORIENTED_EDGE('',*,*,#181,.T.);
#181 = EDGE_CURVE('',#74,#167,#182,.T.);
#182 = LINE('',#183,#184);
#183 = CARTESIAN_POINT('',(-0.5,9.987492177719,0.));
#184 = VECTOR('',#185,1.);
#185 = DIRECTION('',(0.,0.,1.));
#186 = FACE_BOUND('',#187,.T.);
#187 = EDGE_LOOP('',(#188));
#188 = ORIENTED_EDGE('',*,*,#189,.F.);
#189 = EDGE_CURVE('',#190,#190,#192,.T.);
#190 = VERTEX_POINT('',#191);
#191 = CARTESIAN_POINT('',(-0.5,7.,4.125));
#192 = CIRCLE('',#193,1.625);
#193 = AXIS2_PLACEMENT_3D('',#194,#195,#196);
#194 = CARTESIAN_POINT('',(-0.5,7.,2.5));
#195 = DIRECTION('',(1.,0.,-0.));
#196 = DIRECTION('',(0.,0.,1.));
#197 = PLANE('',#198);
#198 = AXIS2_PLACEMENT_3D('',#199,#200,#201);
#199 = CARTESIAN_POINT('',(-0.5,0.,0.));
#200 = DIRECTION('',(1.,0.,0.));
#201 = DIRECTION('',(0.,0.,1.));
#202 = ADVANCED_FACE('',(#203),#222,.F.);
#203 = FACE_BOUND('',#204,.F.);
#204 = EDGE_LOOP('',(#205,#213,#220,#221));
#205 = ORIENTED_EDGE('',*,*,#206,.T.);
#206 = EDGE_CURVE('',#109,#207,#209,.T.);
#207 = VERTEX_POINT('',#208);
#208 = CARTESIAN_POINT('',(2.575,-6.306931015609E-16,5.));
#209 = LINE('',#210,#211);
#210 = CARTESIAN_POINT('',(2.575,-6.306931015609E-16,0.));
#211 = VECTOR('',#212,1.);
#212 = DIRECTION('',(0.,0.,1.));
#213 = ORIENTED_EDGE('',*,*,#214,.F.);
#214 = EDGE_CURVE('',#165,#207,#215,.T.);
#215 = CIRCLE('',#216,2.575);
#216 = AXIS2_PLACEMENT_3D('',#217,#218,#219);
#217 = CARTESIAN_POINT('',(0.,0.,5.));
#218 = DIRECTION('',(0.,0.,1.));
#219 = DIRECTION('',(1.,0.,0.));
#220 = ORIENTED_EDGE('',*,*,#174,.F.);
#221 = ORIENTED_EDGE('',*,*,#117,.T.);
#222 = CYLINDRICAL_SURFACE('',#223,2.575);
#223 = AXIS2_PLACEMENT_3D('',#224,#225,#226);
#224 = CARTESIAN_POINT('',(0.,0.,0.));
#225 = DIRECTION('',(0.,0.,1.));
#226 = DIRECTION('',(1.,0.,0.));
#227 = ADVANCED_FACE('',(#228),#247,.F.);
#228 = FACE_BOUND('',#229,.F.);
#229 = EDGE_LOOP('',(#230,#239,#240,#241));
#230 = ORIENTED_EDGE('',*,*,#231,.F.);
#231 = EDGE_CURVE('',#207,#232,#234,.T.);
#232 = VERTEX_POINT('',#233);
#233 = CARTESIAN_POINT('',(0.5,2.525989904968,5.));
#234 = CIRCLE('',#235,2.575);
#235 = AXIS2_PLACEMENT_3D('',#236,#237,#238);
#236 = CARTESIAN_POINT('',(0.,0.,5.));
#237 = DIRECTION('',(0.,0.,1.));
#238 = DIRECTION('',(1.,0.,0.));
#239 = ORIENTED_EDGE('',*,*,#206,.F.);
#240 = ORIENTED_EDGE('',*,*,#108,.T.);
#241 = ORIENTED_EDGE('',*,*,#242,.T.);
#242 = EDGE_CURVE('',#101,#232,#243,.T.);
#243 = LINE('',#244,#245);
#244 = CARTESIAN_POINT('',(0.5,2.525989904968,0.));
#245 = VECTOR('',#246,1.);
#246 = DIRECTION('',(0.,0.,1.));
#247 = CYLINDRICAL_SURFACE('',#248,2.575);
#248 = AXIS2_PLACEMENT_3D('',#249,#250,#251);
#249 = CARTESIAN_POINT('',(0.,0.,0.));
#250 = DIRECTION('',(0.,0.,1.));
#251 = DIRECTION('',(1.,0.,0.));
#252 = ADVANCED_FACE('',(#253,#271),#282,.F.);
#253 = FACE_BOUND('',#254,.F.);
#254 = EDGE_LOOP('',(#255,#263,#264,#265));
#255 = ORIENTED_EDGE('',*,*,#256,.F.);
#256 = EDGE_CURVE('',#232,#257,#259,.T.);
#257 = VERTEX_POINT('',#258);
#258 = CARTESIAN_POINT('',(0.5,9.987492177719,5.));
#259 = LINE('',#260,#261);
#260 = CARTESIAN_POINT('',(0.5,0.,5.));
#261 = VECTOR('',#262,1.);
#262 = DIRECTION('',(0.,1.,0.));
#263 = ORIENTED_EDGE('',*,*,#242,.F.);
#264 = ORIENTED_EDGE('',*,*,#100,.T.);
#265 = ORIENTED_EDGE('',*,*,#266,.T.);
#266 = EDGE_CURVE('',#92,#257,#267,.T.);
#267 = LINE('',#268,#269);
#268 = CARTESIAN_POINT('',(0.5,9.987492177719,0.));
#269 = VECTOR('',#270,1.);
#270 = DIRECTION('',(0.,0.,1.));
#271 = FACE_BOUND('',#272,.F.);
#272 = EDGE_LOOP('',(#273));
#273 = ORIENTED_EDGE('',*,*,#274,.F.);
#274 = EDGE_CURVE('',#275,#275,#277,.T.);
#275 = VERTEX_POINT('',#276);
#276 = CARTESIAN_POINT('',(0.5,7.,4.125));
#277 = CIRCLE('',#278,1.625);
#278 = AXIS2_PLACEMENT_3D('',#279,#280,#281);
#279 = CARTESIAN_POINT('',(0.5,7.,2.5));
#280 = DIRECTION('',(1.,0.,-0.));
#281 = DIRECTION('',(0.,0.,1.));
#282 = PLANE('',#283);
#283 = AXIS2_PLACEMENT_3D('',#284,#285,#286);
#284 = CARTESIAN_POINT('',(0.5,0.,0.));
#285 = DIRECTION('',(1.,0.,0.));
#286 = DIRECTION('',(0.,0.,1.));
#287 = ADVANCED_FACE('',(#288,#307),#442,.T.);
#288 = FACE_BOUND('',#289,.T.);
#289 = EDGE_LOOP('',(#290,#299,#305,#306));
#290 = ORIENTED_EDGE('',*,*,#291,.F.);
#291 = EDGE_CURVE('',#292,#257,#294,.T.);
#292 = VERTEX_POINT('',#293);
#293 = CARTESIAN_POINT('',(9.682458365518,2.5,5.));
#294 = CIRCLE('',#295,10.);
#295 = AXIS2_PLACEMENT_3D('',#296,#297,#298);
#296 = CARTESIAN_POINT('',(0.,0.,5.));
#297 = DIRECTION('',(0.,0.,1.));
#298 = DIRECTION('',(1.,0.,0.));
#299 = ORIENTED_EDGE('',*,*,#300,.F.);
#300 = EDGE_CURVE('',#41,#292,#301,.T.);
#301 = LINE('',#302,#303);
#302 = CARTESIAN_POINT('',(9.682458365519,2.5,0.));
#303 = VECTOR('',#304,1.);
#304 = DIRECTION('',(0.,0.,1.));
#305 = ORIENTED_EDGE('',*,*,#91,.T.);
#306 = ORIENTED_EDGE('',*,*,#266,.T.);
#307 = FACE_BOUND('',#308,.T.);
#308 = EDGE_LOOP('',(#309));
#309 = ORIENTED_EDGE('',*,*,#310,.F.);
#310 = EDGE_CURVE('',#311,#311,#313,.T.);
#311 = VERTEX_POINT('',#312);
#312 = CARTESIAN_POINT('',(7.141428428543,7.,4.125));
#313 = B_SPLINE_CURVE_WITH_KNOTS('',7,(#314,#315,#316,#317,#318,#319,
    #320,#321,#322,#323,#324,#325,#326,#327,#328,#329,#330,#331,#332,
    #333,#334,#335,#336,#337,#338,#339,#340,#341,#342,#343,#344,#345,
    #346,#347,#348,#349,#350,#351,#352,#353,#354,#355,#356,#357,#358,
    #359,#360,#361,#362,#363,#364,#365,#366,#367,#368,#369,#370,#371,
    #372,#373,#374,#375,#376,#377,#378,#379,#380,#381,#382,#383,#384,
    #385,#386,#387,#388,#389,#390,#391,#392,#393,#394,#395,#396,#397,
    #398,#399,#400,#401,#402,#403,#404,#405,#406,#407,#408,#409,#410,
    #411,#412,#413,#414,#415,#416,#417,#418,#419,#420,#421,#422,#423,
    #424,#425,#426,#427,#428,#429,#430,#431,#432,#433,#434,#435,#436,
    #437,#438,#439,#440,#441),.UNSPECIFIED.,.T.,.F.,(8,6,6,6,6,6,6,6,6,6
    ,6,6,6,6,6,6,6,6,6,6,6,8),(0.,6.991219415785E-02,0.117762695552,
    0.170636167492,0.190423337979,0.231468643167,0.273883579767,
    0.345902767869,0.390529876965,0.443079293521,0.559189839961,
    0.628990657601,0.677616700673,0.709216499444,0.732090674062,
    0.753727829074,0.764993662649,0.785870937861,0.813098175495,
    0.834956855594,0.904196727068,1.),.UNSPECIFIED.);
#314 = CARTESIAN_POINT('',(7.141428428543,7.,4.125));
#315 = CARTESIAN_POINT('',(7.235796616734,6.903725191158,4.125));
#316 = CARTESIAN_POINT('',(7.329160969306,6.805445457745,4.118345367715)
  );
#317 = CARTESIAN_POINT('',(7.420846801444,6.705790187811,4.104537648155)
  );
#318 = CARTESIAN_POINT('',(7.510239386799,6.605447197903,4.083150720298)
  );
#319 = CARTESIAN_POINT('',(7.596783315243,6.505166526564,4.053830397661)
  );
#320 = CARTESIAN_POINT('',(7.679977565321,6.405761725899,4.016296009158)
  );
#321 = CARTESIAN_POINT('',(7.813702883137,6.241271261206,3.938892671874)
  );
#322 = CARTESIAN_POINT('',(7.866191307199,6.175335109593,3.903535912547)
  );
#323 = CARTESIAN_POINT('',(7.916603150764,6.11068762021,3.864277471999)
  );
#324 = CARTESIAN_POINT('',(7.964745733127,6.047711726057,3.821173512971)
  );
#325 = CARTESIAN_POINT('',(8.010459091449,5.986779138547,3.77433262782)
  );
#326 = CARTESIAN_POINT('',(8.053612966471,5.928243616776,3.723915895121)
  );
#327 = CARTESIAN_POINT('',(8.138845019069,5.810766425547,3.610712683869)
  );
#328 = CARTESIAN_POINT('',(8.180295124964,5.752481503779,3.547235975587)
  );
#329 = CARTESIAN_POINT('',(8.218351265253,5.697976179176,3.479972929566)
  );
#330 = CARTESIAN_POINT('',(8.252940769546,5.647615538614,3.409251608221)
  );
#331 = CARTESIAN_POINT('',(8.284018525616,5.601720692728,3.335456586416)
  );
#332 = CARTESIAN_POINT('',(8.311564367279,5.560556420498,3.259023519656)
  );
#333 = CARTESIAN_POINT('',(8.344568155893,5.510757387381,3.151022556544)
  );
#334 = CARTESIAN_POINT('',(8.353064330752,5.497881679572,3.121299922079)
  );
#335 = CARTESIAN_POINT('',(8.361069831744,5.485700915085,3.091287000449)
  );
#336 = CARTESIAN_POINT('',(8.368585671108,5.474223310728,3.061004820002)
  );
#337 = CARTESIAN_POINT('',(8.37561302844,5.463456075433,3.030474245857)
  );
#338 = CARTESIAN_POINT('',(8.382153250685,5.453405410259,2.999715979905)
  );
#339 = CARTESIAN_POINT('',(8.40076714984,5.424725200712,2.904517775342)
  );
#340 = CARTESIAN_POINT('',(8.411234622078,5.408482878588,2.839403746358)
  );
#341 = CARTESIAN_POINT('',(8.419626302325,5.395391661307,2.773580559847)
  );
#342 = CARTESIAN_POINT('',(8.425954688571,5.385483346501,2.707222071073)
  );
#343 = CARTESIAN_POINT('',(8.430228584327,5.378779164003,2.640503760339)
  );
#344 = CARTESIAN_POINT('',(8.432452939614,5.375289529701,2.573602588754)
  );
#345 = CARTESIAN_POINT('',(8.432810308923,5.374728868314,2.437558557068)
  );
#346 = CARTESIAN_POINT('',(8.430804360929,5.377875843146,2.368398649904)
  );
#347 = CARTESIAN_POINT('',(8.42661037326,5.38445672142,2.299413753709));
#348 = CARTESIAN_POINT('',(8.420223257107,5.394460928124,2.230799026638)
  );
#349 = CARTESIAN_POINT('',(8.411633491685,5.407865598151,2.162747992468)
  );
#350 = CARTESIAN_POINT('',(8.400827306368,5.424635858733,2.09545236927)
  );
#351 = CARTESIAN_POINT('',(8.365644612176,5.47883601284,1.916440947752)
  );
#352 = CARTESIAN_POINT('',(8.337019967678,5.522578646976,1.806297875166)
  );
#353 = CARTESIAN_POINT('',(8.301845840356,5.575693561283,1.699926662881)
  );
#354 = CARTESIAN_POINT('',(8.260112357925,5.637682090057,1.598476608288)
  );
#355 = CARTESIAN_POINT('',(8.211868134623,5.707849830471,1.502959302286)
  );
#356 = CARTESIAN_POINT('',(8.15722984967,5.785355879242,1.414221310333)
  );
#357 = CARTESIAN_POINT('',(8.05870664714,5.921264359352,1.282545309437)
  );
#358 = CARTESIAN_POINT('',(8.018685762107,5.975651667465,1.235091502842)
  );
#359 = CARTESIAN_POINT('',(7.97642144189,6.032161940228,1.190737563499)
  );
#360 = CARTESIAN_POINT('',(7.932018115341,6.090508075939,1.149619738507)
  );
#361 = CARTESIAN_POINT('',(7.885602864942,6.150388557623,1.11183410661)
  );
#362 = CARTESIAN_POINT('',(7.837327614244,6.211492324938,1.07743659017)
  );
#363 = CARTESIAN_POINT('',(7.728546658833,6.346523360163,1.009947284598)
  );
#364 = CARTESIAN_POINT('',(7.667432039096,6.420750759583,0.978196552426)
  );
#365 = CARTESIAN_POINT('',(7.604232175671,6.495781761075,0.951147219832)
  );
#366 = CARTESIAN_POINT('',(7.539175253479,6.571224425196,0.928718988781)
  );
#367 = CARTESIAN_POINT('',(7.472514058766,6.646701258193,0.910795142303)
  );
#368 = CARTESIAN_POINT('',(7.404527115078,6.721851513871,0.897222872803)
  );
#369 = CARTESIAN_POINT('',(7.183044770941,6.960905133903,0.867023377569)
  );
#370 = CARTESIAN_POINT('',(7.025882135526,7.121896154578,0.866597344904)
  );
#371 = CARTESIAN_POINT('',(6.865667758756,7.277463109921,0.88413238145)
  );
#372 = CARTESIAN_POINT('',(6.703876127433,7.426475242154,0.917695239639)
  );
#373 = CARTESIAN_POINT('',(6.541914212968,7.568169088314,0.965769300636)
  );
#374 = CARTESIAN_POINT('',(6.381266575495,7.701943629948,1.027222348783)
  );
#375 = CARTESIAN_POINT('',(6.129057170829,7.902486577363,1.145823117269)
  );
#376 = CARTESIAN_POINT('',(6.035458679475,7.974728910032,1.194929808233)
  );
#377 = CARTESIAN_POINT('',(5.943134167056,8.043957175437,1.248558552247)
  );
#378 = CARTESIAN_POINT('',(5.852361551782,8.110130395033,1.306745070036)
  );
#379 = CARTESIAN_POINT('',(5.763577289315,8.173112562081,1.369584417157)
  );
#380 = CARTESIAN_POINT('',(5.677436904101,8.232656468818,1.437198871352)
  );
#381 = CARTESIAN_POINT('',(5.537359956829,8.327212023819,1.560217062055)
  );
#382 = CARTESIAN_POINT('',(5.481527453274,8.36422255704,1.613149888719)
  );
#383 = CARTESIAN_POINT('',(5.427643881136,8.399324610607,1.668601525142)
  );
#384 = CARTESIAN_POINT('',(5.3760720243,8.432368932172,1.72666455192));
#385 = CARTESIAN_POINT('',(5.327277242532,8.463157594536,1.787422766123)
  );
#386 = CARTESIAN_POINT('',(5.281830803204,8.491444428488,1.850947124863)
  );
#387 = CARTESIAN_POINT('',(5.213494005356,8.533491610519,1.960406064528)
  );
#388 = CARTESIAN_POINT('',(5.18824359705,8.5488912097,2.004765804363));
#389 = CARTESIAN_POINT('',(5.164910881575,8.563005630764,2.050298972482)
  );
#390 = CARTESIAN_POINT('',(5.143734842439,8.575723676506,2.096934156016)
  );
#391 = CARTESIAN_POINT('',(5.124941323568,8.586943289462,2.144600771325)
  );
#392 = CARTESIAN_POINT('',(5.108742131062,8.59656888842,2.193229287742)
  );
#393 = CARTESIAN_POINT('',(5.0856284768,8.610256107015,2.278599104187));
#394 = CARTESIAN_POINT('',(5.077391608572,8.615116445652,2.314891789764)
  );
#395 = CARTESIAN_POINT('',(5.070711317234,8.619047329405,2.351542082458)
  );
#396 = CARTESIAN_POINT('',(5.065654304057,8.622017270115,2.388463300937)
  );
#397 = CARTESIAN_POINT('',(5.062266039817,8.624005201875,2.425569657575)
  );
#398 = CARTESIAN_POINT('',(5.060570619999,8.625,2.462776407892));
#399 = CARTESIAN_POINT('',(5.060570619999,8.625,2.535210565888));
#400 = CARTESIAN_POINT('',(5.06208763143,8.624109890523,2.570408186549)
  );
#401 = CARTESIAN_POINT('',(5.065119783905,8.622330881354,2.605521077833)
  );
#402 = CARTESIAN_POINT('',(5.069647727758,8.619671926657,2.640476530141)
  );
#403 = CARTESIAN_POINT('',(5.075634739408,8.616150074565,2.675201025076)
  );
#404 = CARTESIAN_POINT('',(5.083026826742,8.61179081678,2.709620352105)
  );
#405 = CARTESIAN_POINT('',(5.09629621141,8.603940538651,2.761383030892)
  );
#406 = CARTESIAN_POINT('',(5.101202602051,8.601034110138,2.779008348582)
  );
#407 = CARTESIAN_POINT('',(5.106462870504,8.597913441011,2.796527940988)
  );
#408 = CARTESIAN_POINT('',(5.112067509215,8.594582982281,2.813934866367)
  );
#409 = CARTESIAN_POINT('',(5.118006638969,8.591047347583,2.831222978518)
  );
#410 = CARTESIAN_POINT('',(5.124270008891,8.587311313176,2.848386926785)
  );
#411 = CARTESIAN_POINT('',(5.143035138446,8.576094169037,2.896990984721)
  );
#412 = CARTESIAN_POINT('',(5.156295134777,8.56814056609,2.928103434008)
  );
#413 = CARTESIAN_POINT('',(5.170564570966,8.559547133349,2.958745833476)
  );
#414 = CARTESIAN_POINT('',(5.185780208778,8.55034262886,2.988904545645)
  );
#415 = CARTESIAN_POINT('',(5.201877986219,8.540556444459,3.018565966001)
  );
#416 = CARTESIAN_POINT('',(5.218793017534,8.530218605775,3.047716522994)
  );
#417 = CARTESIAN_POINT('',(5.259499575643,8.505198152077,3.113675668966)
  );
#418 = CARTESIAN_POINT('',(5.283824225069,8.490146769237,3.150127021251)
  );
#419 = CARTESIAN_POINT('',(5.309312680654,8.474259020264,3.185703830751)
  );
#420 = CARTESIAN_POINT('',(5.335853753069,8.457583659633,3.220414642908)
  );
#421 = CARTESIAN_POINT('',(5.363345936369,8.440164904104,3.254269362485)
  );
#422 = CARTESIAN_POINT('',(5.391697419864,8.422042537083,3.28727916329)
  );
#423 = CARTESIAN_POINT('',(5.444211303785,8.388166529065,3.345289054438)
  );
#424 = CARTESIAN_POINT('',(5.468100230373,8.372648542511,3.370588315018)
  );
#425 = CARTESIAN_POINT('',(5.492453280345,8.356714537555,3.395362993163)
  );
#426 = CARTESIAN_POINT('',(5.517234404232,8.340379258913,3.41962165011)
  );
#427 = CARTESIAN_POINT('',(5.542411102505,8.323655711779,3.44337259482)
  );
#428 = CARTESIAN_POINT('',(5.567954425582,8.306555161825,3.466623883981)
  );
#429 = CARTESIAN_POINT('',(5.67583124349,8.233755161228,3.561476447315)
  );
#430 = CARTESIAN_POINT('',(5.761355049917,8.174662600374,3.62873005958)
  );
#431 = CARTESIAN_POINT('',(5.849493334038,8.112176851611,3.691264516709)
  );
#432 = CARTESIAN_POINT('',(5.939604280535,8.046539390218,3.749204347766)
  );
#433 = CARTESIAN_POINT('',(6.031261720707,7.977881665256,3.802646813289)
  );
#434 = CARTESIAN_POINT('',(6.124195535341,7.906240997044,3.851630465615)
  );
#435 = CARTESIAN_POINT('',(6.348345046173,7.728267420655,3.957638807442)
  );
#436 = CARTESIAN_POINT('',(6.480487365952,7.619235366126,4.010500099177)
  );
#437 = CARTESIAN_POINT('',(6.613684332894,7.504794608648,4.054324992099)
  );
#438 = CARTESIAN_POINT('',(6.747131284138,7.385240411394,4.088558416985)
  );
#439 = CARTESIAN_POINT('',(6.880088462609,7.260904342966,4.112443048135)
  );
#440 = CARTESIAN_POINT('',(7.01179877577,7.132248698213,4.125));
#441 = CARTESIAN_POINT('',(7.141428428543,7.,4.125));
#442 = CYLINDRICAL_SURFACE('',#443,10.);
#443 = AXIS2_PLACEMENT_3D('',#444,#445,#446);
#444 = CARTESIAN_POINT('',(0.,0.,0.));
#445 = DIRECTION('',(0.,0.,1.));
#446 = DIRECTION('',(1.,0.,0.));
#447 = ADVANCED_FACE('',(#448,#467),#602,.T.);
#448 = FACE_BOUND('',#449,.T.);
#449 = EDGE_LOOP('',(#450,#451,#459,#466));
#450 = ORIENTED_EDGE('',*,*,#81,.T.);
#451 = ORIENTED_EDGE('',*,*,#452,.T.);
#452 = EDGE_CURVE('',#24,#453,#455,.T.);
#453 = VERTEX_POINT('',#454);
#454 = CARTESIAN_POINT('',(9.682458365519,-2.5,5.));
#455 = LINE('',#456,#457);
#456 = CARTESIAN_POINT('',(9.682458365519,-2.5,0.));
#457 = VECTOR('',#458,1.);
#458 = DIRECTION('',(0.,0.,1.));
#459 = ORIENTED_EDGE('',*,*,#460,.F.);
#460 = EDGE_CURVE('',#167,#453,#461,.T.);
#461 = CIRCLE('',#462,10.);
#462 = AXIS2_PLACEMENT_3D('',#463,#464,#465);
#463 = CARTESIAN_POINT('',(0.,0.,5.));
#464 = DIRECTION('',(0.,0.,1.));
#465 = DIRECTION('',(1.,0.,0.));
#466 = ORIENTED_EDGE('',*,*,#181,.F.);
#467 = FACE_BOUND('',#468,.T.);
#468 = EDGE_LOOP('',(#469));
#469 = ORIENTED_EDGE('',*,*,#470,.T.);
#470 = EDGE_CURVE('',#471,#471,#473,.T.);
#471 = VERTEX_POINT('',#472);
#472 = CARTESIAN_POINT('',(-7.141428428543,7.,4.125));
#473 = B_SPLINE_CURVE_WITH_KNOTS('',7,(#474,#475,#476,#477,#478,#479,
    #480,#481,#482,#483,#484,#485,#486,#487,#488,#489,#490,#491,#492,
    #493,#494,#495,#496,#497,#498,#499,#500,#501,#502,#503,#504,#505,
    #506,#507,#508,#509,#510,#511,#512,#513,#514,#515,#516,#517,#518,
    #519,#520,#521,#522,#523,#524,#525,#526,#527,#528,#529,#530,#531,
    #532,#533,#534,#535,#536,#537,#538,#539,#540,#541,#542,#543,#544,
    #545,#546,#547,#548,#549,#550,#551,#552,#553,#554,#555,#556,#557,
    #558,#559,#560,#561,#562,#563,#564,#565,#566,#567,#568,#569,#570,
    #571,#572,#573,#574,#575,#576,#577,#578,#579,#580,#581,#582,#583,
    #584,#585,#586,#587,#588,#589,#590,#591,#592,#593,#594,#595,#596,
    #597,#598,#599,#600,#601),.UNSPECIFIED.,.T.,.F.,(8,6,6,6,6,6,6,6,6,6
    ,6,6,6,6,6,6,6,6,6,6,6,8),(0.,6.991218911391E-02,0.117762687081,
    0.170636155234,0.190423324303,0.231468626551,0.273883560113,
    0.345902743057,0.390529848956,0.443079261745,0.559189801026,
    0.628990615032,0.677616655574,0.7092164527,0.732090626127,
    0.753727780013,0.764993613002,0.785870890012,0.813098133729,
    0.834956818713,0.90419670566,1.),.UNSPECIFIED.);
#474 = CARTESIAN_POINT('',(-7.141428428543,7.,4.125));
#475 = CARTESIAN_POINT('',(-7.235796616789,6.903725191101,4.125));
#476 = CARTESIAN_POINT('',(-7.329160969306,6.805445457741,4.118345367708
    ));
#477 = CARTESIAN_POINT('',(-7.4208468014,6.705790187858,4.104537648158)
  );
#478 = CARTESIAN_POINT('',(-7.510239386765,6.605447197945,4.083150720314
    ));
#479 = CARTESIAN_POINT('',(-7.596783315253,6.505166526554,4.053830397666
    ));
#480 = CARTESIAN_POINT('',(-7.679977565362,6.405761725849,4.016296009134
    ));
#481 = CARTESIAN_POINT('',(-7.813702883137,6.241271261206,3.938892671874
    ));
#482 = CARTESIAN_POINT('',(-7.866191307199,6.175335109593,3.903535912547
    ));
#483 = CARTESIAN_POINT('',(-7.916603150764,6.11068762021,3.864277471999)
  );
#484 = CARTESIAN_POINT('',(-7.964745733127,6.047711726057,3.821173512971
    ));
#485 = CARTESIAN_POINT('',(-8.010459091449,5.986779138547,3.77433262782)
  );
#486 = CARTESIAN_POINT('',(-8.053612966471,5.928243616776,3.723915895121
    ));
#487 = CARTESIAN_POINT('',(-8.138845019069,5.810766425547,3.610712683869
    ));
#488 = CARTESIAN_POINT('',(-8.180295124964,5.752481503779,3.547235975587
    ));
#489 = CARTESIAN_POINT('',(-8.218351265253,5.697976179176,3.479972929566
    ));
#490 = CARTESIAN_POINT('',(-8.252940769546,5.647615538614,3.409251608221
    ));
#491 = CARTESIAN_POINT('',(-8.284018525616,5.601720692728,3.335456586416
    ));
#492 = CARTESIAN_POINT('',(-8.311564367279,5.560556420498,3.259023519656
    ));
#493 = CARTESIAN_POINT('',(-8.344568155893,5.510757387381,3.151022556544
    ));
#494 = CARTESIAN_POINT('',(-8.353064330752,5.497881679572,3.121299922079
    ));
#495 = CARTESIAN_POINT('',(-8.361069831744,5.485700915085,3.091287000449
    ));
#496 = CARTESIAN_POINT('',(-8.368585671108,5.474223310728,3.061004820002
    ));
#497 = CARTESIAN_POINT('',(-8.37561302844,5.463456075433,3.030474245857)
  );
#498 = CARTESIAN_POINT('',(-8.382153250685,5.453405410259,2.999715979905
    ));
#499 = CARTESIAN_POINT('',(-8.40076714984,5.424725200712,2.904517775342)
  );
#500 = CARTESIAN_POINT('',(-8.411234622078,5.408482878588,2.839403746358
    ));
#501 = CARTESIAN_POINT('',(-8.419626302325,5.395391661307,2.773580559847
    ));
#502 = CARTESIAN_POINT('',(-8.425954688571,5.385483346501,2.707222071073
    ));
#503 = CARTESIAN_POINT('',(-8.430228584327,5.378779164003,2.640503760339
    ));
#504 = CARTESIAN_POINT('',(-8.432452939614,5.375289529701,2.573602588754
    ));
#505 = CARTESIAN_POINT('',(-8.432810308923,5.374728868314,2.437558557068
    ));
#506 = CARTESIAN_POINT('',(-8.430804360929,5.377875843146,2.368398649904
    ));
#507 = CARTESIAN_POINT('',(-8.42661037326,5.38445672142,2.299413753709)
  );
#508 = CARTESIAN_POINT('',(-8.420223257107,5.394460928124,2.230799026638
    ));
#509 = CARTESIAN_POINT('',(-8.411633491685,5.407865598151,2.162747992468
    ));
#510 = CARTESIAN_POINT('',(-8.400827306368,5.424635858733,2.09545236927)
  );
#511 = CARTESIAN_POINT('',(-8.365644612176,5.47883601284,1.916440947752)
  );
#512 = CARTESIAN_POINT('',(-8.337019967678,5.522578646976,1.806297875166
    ));
#513 = CARTESIAN_POINT('',(-8.301845840356,5.575693561283,1.699926662881
    ));
#514 = CARTESIAN_POINT('',(-8.260112357925,5.637682090057,1.598476608288
    ));
#515 = CARTESIAN_POINT('',(-8.211868134623,5.707849830471,1.502959302286
    ));
#516 = CARTESIAN_POINT('',(-8.15722984967,5.785355879242,1.414221310333)
  );
#517 = CARTESIAN_POINT('',(-8.05870664714,5.921264359352,1.282545309437)
  );
#518 = CARTESIAN_POINT('',(-8.018685762107,5.975651667465,1.235091502842
    ));
#519 = CARTESIAN_POINT('',(-7.97642144189,6.032161940228,1.190737563499)
  );
#520 = CARTESIAN_POINT('',(-7.932018115341,6.090508075939,1.149619738507
    ));
#521 = CARTESIAN_POINT('',(-7.885602864942,6.150388557623,1.11183410661)
  );
#522 = CARTESIAN_POINT('',(-7.837327614244,6.211492324938,1.07743659017)
  );
#523 = CARTESIAN_POINT('',(-7.728546658836,6.346523360159,1.0099472846)
  );
#524 = CARTESIAN_POINT('',(-7.667432039096,6.420750759582,0.978196552425
    ));
#525 = CARTESIAN_POINT('',(-7.604232175668,6.495781761079,0.951147219831
    ));
#526 = CARTESIAN_POINT('',(-7.539175253476,6.571224425199,0.92871898878)
  );
#527 = CARTESIAN_POINT('',(-7.472514058766,6.646701258192,0.910795142304
    ));
#528 = CARTESIAN_POINT('',(-7.404527115082,6.721851513866,0.897222872804
    ));
#529 = CARTESIAN_POINT('',(-7.183044769403,6.960905135563,0.86702337736)
  );
#530 = CARTESIAN_POINT('',(-7.025882139115,7.121896150558,0.866597345703
    ));
#531 = CARTESIAN_POINT('',(-6.865667756721,7.277463112847,0.884132379611
    ));
#532 = CARTESIAN_POINT('',(-6.703876125013,7.426475243386,0.917695242266
    ));
#533 = CARTESIAN_POINT('',(-6.541914216714,7.568169085478,0.965769298566
    ));
#534 = CARTESIAN_POINT('',(-6.381266573982,7.701943631151,1.027222349495
    ));
#535 = CARTESIAN_POINT('',(-6.129057170829,7.902486577363,1.145823117269
    ));
#536 = CARTESIAN_POINT('',(-6.035458679476,7.974728910032,1.194929808233
    ));
#537 = CARTESIAN_POINT('',(-5.943134167056,8.043957175436,1.248558552247
    ));
#538 = CARTESIAN_POINT('',(-5.852361551782,8.110130395033,1.306745070036
    ));
#539 = CARTESIAN_POINT('',(-5.763577289315,8.173112562081,1.369584417157
    ));
#540 = CARTESIAN_POINT('',(-5.677436904101,8.232656468818,1.437198871352
    ));
#541 = CARTESIAN_POINT('',(-5.537359956829,8.327212023819,1.560217062055
    ));
#542 = CARTESIAN_POINT('',(-5.481527453274,8.36422255704,1.613149888719)
  );
#543 = CARTESIAN_POINT('',(-5.427643881136,8.399324610607,1.668601525142
    ));
#544 = CARTESIAN_POINT('',(-5.3760720243,8.432368932172,1.726664551921)
  );
#545 = CARTESIAN_POINT('',(-5.327277242532,8.463157594536,1.787422766122
    ));
#546 = CARTESIAN_POINT('',(-5.281830803204,8.491444428488,1.850947124863
    ));
#547 = CARTESIAN_POINT('',(-5.213494005356,8.533491610519,1.960406064528
    ));
#548 = CARTESIAN_POINT('',(-5.18824359705,8.5488912097,2.004765804363));
#549 = CARTESIAN_POINT('',(-5.164910881575,8.563005630764,2.050298972482
    ));
#550 = CARTESIAN_POINT('',(-5.143734842439,8.575723676506,2.096934156016
    ));
#551 = CARTESIAN_POINT('',(-5.124941323568,8.586943289462,2.144600771325
    ));
#552 = CARTESIAN_POINT('',(-5.108742131062,8.59656888842,2.193229287742)
  );
#553 = CARTESIAN_POINT('',(-5.0856284768,8.610256107015,2.278599104187)
  );
#554 = CARTESIAN_POINT('',(-5.077391608572,8.615116445652,2.314891789764
    ));
#555 = CARTESIAN_POINT('',(-5.070711317234,8.619047329405,2.351542082458
    ));
#556 = CARTESIAN_POINT('',(-5.065654304057,8.622017270115,2.388463300937
    ));
#557 = CARTESIAN_POINT('',(-5.062266039817,8.624005201875,2.425569657575
    ));
#558 = CARTESIAN_POINT('',(-5.060570619999,8.625,2.462776407892));
#559 = CARTESIAN_POINT('',(-5.060570619999,8.625,2.535210565888));
#560 = CARTESIAN_POINT('',(-5.06208763143,8.624109890523,2.570408186549)
  );
#561 = CARTESIAN_POINT('',(-5.065119783905,8.622330881354,2.605521077833
    ));
#562 = CARTESIAN_POINT('',(-5.069647727758,8.619671926657,2.64047653014)
  );
#563 = CARTESIAN_POINT('',(-5.075634739408,8.616150074565,2.675201025076
    ));
#564 = CARTESIAN_POINT('',(-5.083026826742,8.61179081678,2.709620352106)
  );
#565 = CARTESIAN_POINT('',(-5.09629621141,8.603940538651,2.761383030892)
  );
#566 = CARTESIAN_POINT('',(-5.101202602051,8.601034110138,2.779008348582
    ));
#567 = CARTESIAN_POINT('',(-5.106462870504,8.597913441011,2.796527940988
    ));
#568 = CARTESIAN_POINT('',(-5.112067509215,8.594582982281,2.813934866367
    ));
#569 = CARTESIAN_POINT('',(-5.118006638969,8.591047347583,2.831222978518
    ));
#570 = CARTESIAN_POINT('',(-5.124270008891,8.587311313176,2.848386926785
    ));
#571 = CARTESIAN_POINT('',(-5.143035140129,8.576094168031,2.896990989081
    ));
#572 = CARTESIAN_POINT('',(-5.15629513463,8.568140566195,2.928103434676)
  );
#573 = CARTESIAN_POINT('',(-5.170564569167,8.559547134448,2.958745830232
    ));
#574 = CARTESIAN_POINT('',(-5.185780207277,8.550342629764,2.98890454223)
  );
#575 = CARTESIAN_POINT('',(-5.201877986816,8.540556444079,3.01856596624)
  );
#576 = CARTESIAN_POINT('',(-5.218793019961,8.530218604283,3.047716526926
    ));
#577 = CARTESIAN_POINT('',(-5.259499575643,8.505198152077,3.113675668966
    ));
#578 = CARTESIAN_POINT('',(-5.283824225069,8.490146769237,3.150127021251
    ));
#579 = CARTESIAN_POINT('',(-5.309312680654,8.474259020264,3.185703830751
    ));
#580 = CARTESIAN_POINT('',(-5.335853753069,8.457583659633,3.220414642909
    ));
#581 = CARTESIAN_POINT('',(-5.363345936369,8.440164904104,3.254269362485
    ));
#582 = CARTESIAN_POINT('',(-5.391697419864,8.422042537083,3.28727916329)
  );
#583 = CARTESIAN_POINT('',(-5.444211303785,8.388166529065,3.345289054438
    ));
#584 = CARTESIAN_POINT('',(-5.468100230373,8.372648542511,3.370588315018
    ));
#585 = CARTESIAN_POINT('',(-5.492453280345,8.356714537555,3.395362993163
    ));
#586 = CARTESIAN_POINT('',(-5.517234404231,8.340379258913,3.41962165011)
  );
#587 = CARTESIAN_POINT('',(-5.542411102505,8.323655711779,3.44337259482)
  );
#588 = CARTESIAN_POINT('',(-5.567954425582,8.306555161825,3.466623883981
    ));
#589 = CARTESIAN_POINT('',(-5.67583124349,8.233755161228,3.561476447315)
  );
#590 = CARTESIAN_POINT('',(-5.761355049917,8.174662600374,3.62873005958)
  );
#591 = CARTESIAN_POINT('',(-5.849493334038,8.112176851611,3.691264516709
    ));
#592 = CARTESIAN_POINT('',(-5.939604280535,8.046539390218,3.749204347766
    ));
#593 = CARTESIAN_POINT('',(-6.031261720707,7.977881665256,3.802646813289
    ));
#594 = CARTESIAN_POINT('',(-6.124195535341,7.906240997044,3.851630465615
    ));
#595 = CARTESIAN_POINT('',(-6.348345046173,7.728267420655,3.957638807442
    ));
#596 = CARTESIAN_POINT('',(-6.480487365952,7.619235366126,4.010500099177
    ));
#597 = CARTESIAN_POINT('',(-6.613684332894,7.504794608648,4.054324992099
    ));
#598 = CARTESIAN_POINT('',(-6.747131284138,7.385240411394,4.088558416985
    ));
#599 = CARTESIAN_POINT('',(-6.880088462609,7.260904342966,4.112443048135
    ));
#600 = CARTESIAN_POINT('',(-7.01179877577,7.132248698213,4.125));
#601 = CARTESIAN_POINT('',(-7.141428428543,7.,4.125));
#602 = CYLINDRICAL_SURFACE('',#603,10.);
#603 = AXIS2_PLACEMENT_3D('',#604,#605,#606);
#604 = CARTESIAN_POINT('',(0.,0.,0.));
#605 = DIRECTION('',(0.,0.,1.));
#606 = DIRECTION('',(1.,0.,0.));
#607 = ADVANCED_FACE('',(#608),#626,.T.);
#608 = FACE_BOUND('',#609,.T.);
#609 = EDGE_LOOP('',(#610,#611,#612,#620));
#610 = ORIENTED_EDGE('',*,*,#149,.F.);
#611 = ORIENTED_EDGE('',*,*,#300,.T.);
#612 = ORIENTED_EDGE('',*,*,#613,.T.);
#613 = EDGE_CURVE('',#292,#614,#616,.T.);
#614 = VERTEX_POINT('',#615);
#615 = CARTESIAN_POINT('',(29.,2.5,5.));
#616 = LINE('',#617,#618);
#617 = CARTESIAN_POINT('',(7.,2.5,5.));
#618 = VECTOR('',#619,1.);
#619 = DIRECTION('',(1.,0.,0.));
#620 = ORIENTED_EDGE('',*,*,#621,.F.);
#621 = EDGE_CURVE('',#142,#614,#622,.T.);
#622 = LINE('',#623,#624);
#623 = CARTESIAN_POINT('',(29.,2.5,0.));
#624 = VECTOR('',#625,1.);
#625 = DIRECTION('',(0.,0.,1.));
#626 = PLANE('',#627);
#627 = AXIS2_PLACEMENT_3D('',#628,#629,#630);
#628 = CARTESIAN_POINT('',(7.,2.5,0.));
#629 = DIRECTION('',(0.,1.,0.));
#630 = DIRECTION('',(0.,0.,1.));
#631 = ADVANCED_FACE('',(#632),#650,.T.);
#632 = FACE_BOUND('',#633,.T.);
#633 = EDGE_LOOP('',(#634,#642,#643,#644));
#634 = ORIENTED_EDGE('',*,*,#635,.F.);
#635 = EDGE_CURVE('',#134,#636,#638,.T.);
#636 = VERTEX_POINT('',#637);
#637 = CARTESIAN_POINT('',(29.,-2.5,5.));
#638 = LINE('',#639,#640);
#639 = CARTESIAN_POINT('',(29.,-2.5,0.));
#640 = VECTOR('',#641,1.);
#641 = DIRECTION('',(0.,0.,1.));
#642 = ORIENTED_EDGE('',*,*,#141,.T.);
#643 = ORIENTED_EDGE('',*,*,#621,.T.);
#644 = ORIENTED_EDGE('',*,*,#645,.F.);
#645 = EDGE_CURVE('',#636,#614,#646,.T.);
#646 = LINE('',#647,#648);
#647 = CARTESIAN_POINT('',(29.,-2.5,5.));
#648 = VECTOR('',#649,1.);
#649 = DIRECTION('',(0.,1.,0.));
#650 = PLANE('',#651);
#651 = AXIS2_PLACEMENT_3D('',#652,#653,#654);
#652 = CARTESIAN_POINT('',(29.,-2.5,0.));
#653 = DIRECTION('',(1.,0.,0.));
#654 = DIRECTION('',(0.,0.,1.));
#655 = ADVANCED_FACE('',(#656),#667,.F.);
#656 = FACE_BOUND('',#657,.F.);
#657 = EDGE_LOOP('',(#658,#659,#660,#666));
#658 = ORIENTED_EDGE('',*,*,#133,.F.);
#659 = ORIENTED_EDGE('',*,*,#452,.T.);
#660 = ORIENTED_EDGE('',*,*,#661,.T.);
#661 = EDGE_CURVE('',#453,#636,#662,.T.);
#662 = LINE('',#663,#664);
#663 = CARTESIAN_POINT('',(7.,-2.5,5.));
#664 = VECTOR('',#665,1.);
#665 = DIRECTION('',(1.,0.,0.));
#666 = ORIENTED_EDGE('',*,*,#635,.F.);
#667 = PLANE('',#668);
#668 = AXIS2_PLACEMENT_3D('',#669,#670,#671);
#669 = CARTESIAN_POINT('',(7.,-2.5,0.));
#670 = DIRECTION('',(0.,1.,0.));
#671 = DIRECTION('',(0.,0.,1.));
#672 = ADVANCED_FACE('',(#673),#703,.T.);
#673 = FACE_BOUND('',#674,.T.);
#674 = EDGE_LOOP('',(#675,#676,#677,#685,#693,#699,#700,#701,#702));
#675 = ORIENTED_EDGE('',*,*,#164,.T.);
#676 = ORIENTED_EDGE('',*,*,#460,.T.);
#677 = ORIENTED_EDGE('',*,*,#678,.F.);
#678 = EDGE_CURVE('',#679,#453,#681,.T.);
#679 = VERTEX_POINT('',#680);
#680 = CARTESIAN_POINT('',(7.,-2.5,5.));
#681 = LINE('',#682,#683);
#682 = CARTESIAN_POINT('',(7.,-2.5,5.));
#683 = VECTOR('',#684,1.);
#684 = DIRECTION('',(1.,0.,0.));
#685 = ORIENTED_EDGE('',*,*,#686,.T.);
#686 = EDGE_CURVE('',#679,#687,#689,.T.);
#687 = VERTEX_POINT('',#688);
#688 = CARTESIAN_POINT('',(7.,2.5,5.));
#689 = LINE('',#690,#691);
#690 = CARTESIAN_POINT('',(7.,-2.5,5.));
#691 = VECTOR('',#692,1.);
#692 = DIRECTION('',(0.,1.,0.));
#693 = ORIENTED_EDGE('',*,*,#694,.T.);
#694 = EDGE_CURVE('',#687,#292,#695,.T.);
#695 = LINE('',#696,#697);
#696 = CARTESIAN_POINT('',(7.,2.5,5.));
#697 = VECTOR('',#698,1.);
#698 = DIRECTION('',(1.,0.,0.));
#699 = ORIENTED_EDGE('',*,*,#291,.T.);
#700 = ORIENTED_EDGE('',*,*,#256,.F.);
#701 = ORIENTED_EDGE('',*,*,#231,.F.);
#702 = ORIENTED_EDGE('',*,*,#214,.F.);
#703 = PLANE('',#704);
#704 = AXIS2_PLACEMENT_3D('',#705,#706,#707);
#705 = CARTESIAN_POINT('',(0.,0.,5.));
#706 = DIRECTION('',(0.,0.,1.));
#707 = DIRECTION('',(1.,0.,0.));
#708 = ADVANCED_FACE('',(#709),#720,.F.);
#709 = FACE_BOUND('',#710,.F.);
#710 = EDGE_LOOP('',(#711,#712,#718,#719));
#711 = ORIENTED_EDGE('',*,*,#189,.F.);
#712 = ORIENTED_EDGE('',*,*,#713,.F.);
#713 = EDGE_CURVE('',#471,#190,#714,.T.);
#714 = LINE('',#715,#716);
#715 = CARTESIAN_POINT('',(-10.,7.,4.125));
#716 = VECTOR('',#717,1.);
#717 = DIRECTION('',(1.,0.,0.));
#718 = ORIENTED_EDGE('',*,*,#470,.T.);
#719 = ORIENTED_EDGE('',*,*,#713,.T.);
#720 = CYLINDRICAL_SURFACE('',#721,1.625);
#721 = AXIS2_PLACEMENT_3D('',#722,#723,#724);
#722 = CARTESIAN_POINT('',(-10.,7.,2.5));
#723 = DIRECTION('',(1.,0.,0.));
#724 = DIRECTION('',(0.,0.,1.));
#725 = ADVANCED_FACE('',(#726),#737,.F.);
#726 = FACE_BOUND('',#727,.F.);
#727 = EDGE_LOOP('',(#728,#729,#735,#736));
#728 = ORIENTED_EDGE('',*,*,#310,.F.);
#729 = ORIENTED_EDGE('',*,*,#730,.F.);
#730 = EDGE_CURVE('',#275,#311,#731,.T.);
#731 = LINE('',#732,#733);
#732 = CARTESIAN_POINT('',(-10.,7.,4.125));
#733 = VECTOR('',#734,1.);
#734 = DIRECTION('',(1.,0.,0.));
#735 = ORIENTED_EDGE('',*,*,#274,.T.);
#736 = ORIENTED_EDGE('',*,*,#730,.T.);
#737 = CYLINDRICAL_SURFACE('',#738,1.625);
#738 = AXIS2_PLACEMENT_3D('',#739,#740,#741);
#739 = CARTESIAN_POINT('',(-10.,7.,2.5));
#740 = DIRECTION('',(1.,0.,0.));
#741 = DIRECTION('',(0.,0.,1.));
#742 = ADVANCED_FACE('',(#743),#764,.T.);
#743 = FACE_BOUND('',#744,.T.);
#744 = EDGE_LOOP('',(#745,#754,#755,#756,#757));
#745 = ORIENTED_EDGE('',*,*,#746,.F.);
#746 = EDGE_CURVE('',#453,#747,#749,.T.);
#747 = VERTEX_POINT('',#748);
#748 = CARTESIAN_POINT('',(10.,-2.449293598295E-15,5.));
#749 = CIRCLE('',#750,10.);
#750 = AXIS2_PLACEMENT_3D('',#751,#752,#753);
#751 = CARTESIAN_POINT('',(0.,0.,5.));
#752 = DIRECTION('',(0.,0.,1.));
#753 = DIRECTION('',(1.,0.,0.));
#754 = ORIENTED_EDGE('',*,*,#661,.T.);
#755 = ORIENTED_EDGE('',*,*,#645,.T.);
#756 = ORIENTED_EDGE('',*,*,#613,.F.);
#757 = ORIENTED_EDGE('',*,*,#758,.F.);
#758 = EDGE_CURVE('',#747,#292,#759,.T.);
#759 = CIRCLE('',#760,10.);
#760 = AXIS2_PLACEMENT_3D('',#761,#762,#763);
#761 = CARTESIAN_POINT('',(0.,0.,5.));
#762 = DIRECTION('',(0.,0.,1.));
#763 = DIRECTION('',(1.,0.,0.));
#764 = PLANE('',#765);
#765 = AXIS2_PLACEMENT_3D('',#766,#767,#768);
#766 = CARTESIAN_POINT('',(7.,-2.5,5.));
#767 = DIRECTION('',(0.,0.,1.));
#768 = DIRECTION('',(1.,0.,0.));
#769 = ADVANCED_FACE('',(#770),#777,.T.);
#770 = FACE_BOUND('',#771,.T.);
#771 = EDGE_LOOP('',(#772,#773,#774,#775,#776));
#772 = ORIENTED_EDGE('',*,*,#678,.T.);
#773 = ORIENTED_EDGE('',*,*,#746,.T.);
#774 = ORIENTED_EDGE('',*,*,#758,.T.);
#775 = ORIENTED_EDGE('',*,*,#694,.F.);
#776 = ORIENTED_EDGE('',*,*,#686,.F.);
#777 = PLANE('',#778);
#778 = AXIS2_PLACEMENT_3D('',#779,#780,#781);
#779 = CARTESIAN_POINT('',(0.,0.,5.));
#780 = DIRECTION('',(0.,0.,1.));
#781 = DIRECTION('',(1.,0.,0.));
#782 = ( GEOMETRIC_REPRESENTATION_CONTEXT(3) 
GLOBAL_UNCERTAINTY_ASSIGNED_CONTEXT((#786)) GLOBAL_UNIT_ASSIGNED_CONTEXT
((#783,#784,#785)) REPRESENTATION_CONTEXT('Context #1',
  '3D Context with UNIT and UNCERTAINTY') );
#783 = ( LENGTH_UNIT() NAMED_UNIT(*) SI_UNIT(.MILLI.,.METRE.) );
#784 = ( NAMED_UNIT(*) PLANE_ANGLE_UNIT() SI_UNIT($,.RADIAN.) );
#785 = ( NAMED_UNIT(*) SI_UNIT($,.STERADIAN.) SOLID_ANGLE_UNIT() );
#786 = UNCERTAINTY_MEASURE_WITH_UNIT(LENGTH_MEASURE(1.E-07),#783,
  'distance_accuracy_value','confusion accuracy');
#787 = PRODUCT_RELATED_PRODUCT_CATEGORY('part',$,(#7));
ENDSEC;
END-ISO-10303-21;
