ISO-10303-21;
HEADER;
FILE_DESCRIPTION(('FreeCAD Model'),'2;1');
FILE_NAME('Open CASCADE Shape Model','2026-07-25T00:42:08',('FreeCAD'),(
    'FreeCAD'),'Open CASCADE STEP processor 7.8','FreeCAD','Unknown');
FILE_SCHEMA(('AUTOMOTIVE_DESIGN { 1 0 10303 214 1 1 1 1 }'));
ENDSEC;
DATA;
#1 = APPLICATION_PROTOCOL_DEFINITION('international standard',
  'automotive_design',2000,#2);
#2 = APPLICATION_CONTEXT(
  'core data for automotive mechanical design processes');
#3 = SHAPE_DEFINITION_REPRESENTATION(#4,#10);
#4 = PRODUCT_DEFINITION_SHAPE('','',#5);
#5 = PRODUCT_DEFINITION('design','',#6,#9);
#6 = PRODUCT_DEFINITION_FORMATION('','',#7);
#7 = PRODUCT('Open CASCADE STEP translator 7.8 182',
  'Open CASCADE STEP translator 7.8 182','',(#8));
#8 = PRODUCT_CONTEXT('',#2,'mechanical');
#9 = PRODUCT_DEFINITION_CONTEXT('part definition',#2,'design');
#10 = ADVANCED_BREP_SHAPE_REPRESENTATION('',(#11,#15),#1067);
#11 = AXIS2_PLACEMENT_3D('',#12,#13,#14);
#12 = CARTESIAN_POINT('',(0.,0.,0.));
#13 = DIRECTION('',(0.,0.,1.));
#14 = DIRECTION('',(1.,0.,-0.));
#15 = MANIFOLD_SOLID_BREP('',#16);
#16 = CLOSED_SHELL('',(#17,#68,#143,#167,#191,#252,#277,#300,#414,#527,
    #585,#643,#663,#688,#723,#746,#779,#828,#852,#894,#911,#931,#948,
    #981,#993,#1005,#1030,#1055));
#17 = ADVANCED_FACE('',(#18,#52),#63,.F.);
#18 = FACE_BOUND('',#19,.F.);
#19 = EDGE_LOOP('',(#20,#30,#38,#46));
#20 = ORIENTED_EDGE('',*,*,#21,.F.);
#21 = EDGE_CURVE('',#22,#24,#26,.T.);
#22 = VERTEX_POINT('',#23);
#23 = CARTESIAN_POINT('',(0.,-17.,-17.));
#24 = VERTEX_POINT('',#25);
#25 = CARTESIAN_POINT('',(0.,-17.,17.));
#26 = LINE('',#27,#28);
#27 = CARTESIAN_POINT('',(0.,-17.,-17.));
#28 = VECTOR('',#29,1.);
#29 = DIRECTION('',(0.,0.,1.));
#30 = ORIENTED_EDGE('',*,*,#31,.T.);
#31 = EDGE_CURVE('',#22,#32,#34,.T.);
#32 = VERTEX_POINT('',#33);
#33 = CARTESIAN_POINT('',(0.,17.,-17.));
#34 = LINE('',#35,#36);
#35 = CARTESIAN_POINT('',(0.,-17.,-17.));
#36 = VECTOR('',#37,1.);
#37 = DIRECTION('',(0.,1.,0.));
#38 = ORIENTED_EDGE('',*,*,#39,.T.);
#39 = EDGE_CURVE('',#32,#40,#42,.T.);
#40 = VERTEX_POINT('',#41);
#41 = CARTESIAN_POINT('',(0.,17.,17.));
#42 = LINE('',#43,#44);
#43 = CARTESIAN_POINT('',(0.,17.,-17.));
#44 = VECTOR('',#45,1.);
#45 = DIRECTION('',(0.,0.,1.));
#46 = ORIENTED_EDGE('',*,*,#47,.F.);
#47 = EDGE_CURVE('',#24,#40,#48,.T.);
#48 = LINE('',#49,#50);
#49 = CARTESIAN_POINT('',(0.,-17.,17.));
#50 = VECTOR('',#51,1.);
#51 = DIRECTION('',(0.,1.,0.));
#52 = FACE_BOUND('',#53,.F.);
#53 = EDGE_LOOP('',(#54));
#54 = ORIENTED_EDGE('',*,*,#55,.F.);
#55 = EDGE_CURVE('',#56,#56,#58,.T.);
#56 = VERTEX_POINT('',#57);
#57 = CARTESIAN_POINT('',(0.,1.861463134704E-15,7.6));
#58 = CIRCLE('',#59,7.6);
#59 = AXIS2_PLACEMENT_3D('',#60,#61,#62);
#60 = CARTESIAN_POINT('',(0.,0.,0.));
#61 = DIRECTION('',(1.,0.,-0.));
#62 = DIRECTION('',(0.,0.,1.));
#63 = PLANE('',#64);
#64 = AXIS2_PLACEMENT_3D('',#65,#66,#67);
#65 = CARTESIAN_POINT('',(0.,-17.,-17.));
#66 = DIRECTION('',(1.,0.,0.));
#67 = DIRECTION('',(0.,0.,1.));
#68 = ADVANCED_FACE('',(#69,#94,#105,#116,#127),#138,.F.);
#69 = FACE_BOUND('',#70,.F.);
#70 = EDGE_LOOP('',(#71,#79,#80,#88));
#71 = ORIENTED_EDGE('',*,*,#72,.F.);
#72 = EDGE_CURVE('',#22,#73,#75,.T.);
#73 = VERTEX_POINT('',#74);
#74 = CARTESIAN_POINT('',(44.,-17.,-17.));
#75 = LINE('',#76,#77);
#76 = CARTESIAN_POINT('',(0.,-17.,-17.));
#77 = VECTOR('',#78,1.);
#78 = DIRECTION('',(1.,0.,0.));
#79 = ORIENTED_EDGE('',*,*,#21,.T.);
#80 = ORIENTED_EDGE('',*,*,#81,.T.);
#81 = EDGE_CURVE('',#24,#82,#84,.T.);
#82 = VERTEX_POINT('',#83);
#83 = CARTESIAN_POINT('',(44.,-17.,17.));
#84 = LINE('',#85,#86);
#85 = CARTESIAN_POINT('',(0.,-17.,17.));
#86 = VECTOR('',#87,1.);
#87 = DIRECTION('',(1.,0.,0.));
#88 = ORIENTED_EDGE('',*,*,#89,.F.);
#89 = EDGE_CURVE('',#73,#82,#90,.T.);
#90 = LINE('',#91,#92);
#91 = CARTESIAN_POINT('',(44.,-17.,-17.));
#92 = VECTOR('',#93,1.);
#93 = DIRECTION('',(0.,0.,1.));
#94 = FACE_BOUND('',#95,.F.);
#95 = EDGE_LOOP('',(#96));
#96 = ORIENTED_EDGE('',*,*,#97,.F.);
#97 = EDGE_CURVE('',#98,#98,#100,.T.);
#98 = VERTEX_POINT('',#99);
#99 = CARTESIAN_POINT('',(4.,-17.,-6.35));
#100 = CIRCLE('',#101,1.65);
#101 = AXIS2_PLACEMENT_3D('',#102,#103,#104);
#102 = CARTESIAN_POINT('',(4.,-17.,-8.));
#103 = DIRECTION('',(0.,1.,0.));
#104 = DIRECTION('',(0.,0.,1.));
#105 = FACE_BOUND('',#106,.F.);
#106 = EDGE_LOOP('',(#107));
#107 = ORIENTED_EDGE('',*,*,#108,.F.);
#108 = EDGE_CURVE('',#109,#109,#111,.T.);
#109 = VERTEX_POINT('',#110);
#110 = CARTESIAN_POINT('',(4.,-17.,9.65));
#111 = CIRCLE('',#112,1.65);
#112 = AXIS2_PLACEMENT_3D('',#113,#114,#115);
#113 = CARTESIAN_POINT('',(4.,-17.,8.));
#114 = DIRECTION('',(0.,1.,0.));
#115 = DIRECTION('',(0.,0.,1.));
#116 = FACE_BOUND('',#117,.F.);
#117 = EDGE_LOOP('',(#118));
#118 = ORIENTED_EDGE('',*,*,#119,.F.);
#119 = EDGE_CURVE('',#120,#120,#122,.T.);
#120 = VERTEX_POINT('',#121);
#121 = CARTESIAN_POINT('',(12.,-17.,-6.35));
#122 = CIRCLE('',#123,1.65);
#123 = AXIS2_PLACEMENT_3D('',#124,#125,#126);
#124 = CARTESIAN_POINT('',(12.,-17.,-8.));
#125 = DIRECTION('',(0.,1.,0.));
#126 = DIRECTION('',(0.,0.,1.));
#127 = FACE_BOUND('',#128,.F.);
#128 = EDGE_LOOP('',(#129));
#129 = ORIENTED_EDGE('',*,*,#130,.F.);
#130 = EDGE_CURVE('',#131,#131,#133,.T.);
#131 = VERTEX_POINT('',#132);
#132 = CARTESIAN_POINT('',(12.,-17.,9.65));
#133 = CIRCLE('',#134,1.65);
#134 = AXIS2_PLACEMENT_3D('',#135,#136,#137);
#135 = CARTESIAN_POINT('',(12.,-17.,8.));
#136 = DIRECTION('',(0.,1.,0.));
#137 = DIRECTION('',(0.,0.,1.));
#138 = PLANE('',#139);
#139 = AXIS2_PLACEMENT_3D('',#140,#141,#142);
#140 = CARTESIAN_POINT('',(0.,-17.,-17.));
#141 = DIRECTION('',(0.,1.,0.));
#142 = DIRECTION('',(0.,0.,1.));
#143 = ADVANCED_FACE('',(#144),#162,.T.);
#144 = FACE_BOUND('',#145,.T.);
#145 = EDGE_LOOP('',(#146,#147,#148,#156));
#146 = ORIENTED_EDGE('',*,*,#47,.F.);
#147 = ORIENTED_EDGE('',*,*,#81,.T.);
#148 = ORIENTED_EDGE('',*,*,#149,.T.);
#149 = EDGE_CURVE('',#82,#150,#152,.T.);
#150 = VERTEX_POINT('',#151);
#151 = CARTESIAN_POINT('',(44.,17.,17.));
#152 = LINE('',#153,#154);
#153 = CARTESIAN_POINT('',(44.,-17.,17.));
#154 = VECTOR('',#155,1.);
#155 = DIRECTION('',(0.,1.,0.));
#156 = ORIENTED_EDGE('',*,*,#157,.F.);
#157 = EDGE_CURVE('',#40,#150,#158,.T.);
#158 = LINE('',#159,#160);
#159 = CARTESIAN_POINT('',(0.,17.,17.));
#160 = VECTOR('',#161,1.);
#161 = DIRECTION('',(1.,0.,0.));
#162 = PLANE('',#163);
#163 = AXIS2_PLACEMENT_3D('',#164,#165,#166);
#164 = CARTESIAN_POINT('',(0.,-17.,17.));
#165 = DIRECTION('',(0.,0.,1.));
#166 = DIRECTION('',(1.,0.,0.));
#167 = ADVANCED_FACE('',(#168),#186,.F.);
#168 = FACE_BOUND('',#169,.F.);
#169 = EDGE_LOOP('',(#170,#171,#172,#180));
#170 = ORIENTED_EDGE('',*,*,#31,.F.);
#171 = ORIENTED_EDGE('',*,*,#72,.T.);
#172 = ORIENTED_EDGE('',*,*,#173,.T.);
#173 = EDGE_CURVE('',#73,#174,#176,.T.);
#174 = VERTEX_POINT('',#175);
#175 = CARTESIAN_POINT('',(44.,17.,-17.));
#176 = LINE('',#177,#178);
#177 = CARTESIAN_POINT('',(44.,-17.,-17.));
#178 = VECTOR('',#179,1.);
#179 = DIRECTION('',(0.,1.,0.));
#180 = ORIENTED_EDGE('',*,*,#181,.F.);
#181 = EDGE_CURVE('',#32,#174,#182,.T.);
#182 = LINE('',#183,#184);
#183 = CARTESIAN_POINT('',(0.,17.,-17.));
#184 = VECTOR('',#185,1.);
#185 = DIRECTION('',(1.,0.,0.));
#186 = PLANE('',#187);
#187 = AXIS2_PLACEMENT_3D('',#188,#189,#190);
#188 = CARTESIAN_POINT('',(0.,-17.,-17.));
#189 = DIRECTION('',(0.,0.,1.));
#190 = DIRECTION('',(1.,0.,0.));
#191 = ADVANCED_FACE('',(#192,#203,#214,#225,#236),#247,.T.);
#192 = FACE_BOUND('',#193,.T.);
#193 = EDGE_LOOP('',(#194,#195,#196,#197));
#194 = ORIENTED_EDGE('',*,*,#181,.F.);
#195 = ORIENTED_EDGE('',*,*,#39,.T.);
#196 = ORIENTED_EDGE('',*,*,#157,.T.);
#197 = ORIENTED_EDGE('',*,*,#198,.F.);
#198 = EDGE_CURVE('',#174,#150,#199,.T.);
#199 = LINE('',#200,#201);
#200 = CARTESIAN_POINT('',(44.,17.,-17.));
#201 = VECTOR('',#202,1.);
#202 = DIRECTION('',(0.,0.,1.));
#203 = FACE_BOUND('',#204,.T.);
#204 = EDGE_LOOP('',(#205));
#205 = ORIENTED_EDGE('',*,*,#206,.F.);
#206 = EDGE_CURVE('',#207,#207,#209,.T.);
#207 = VERTEX_POINT('',#208);
#208 = CARTESIAN_POINT('',(4.,17.,-6.35));
#209 = CIRCLE('',#210,1.65);
#210 = AXIS2_PLACEMENT_3D('',#211,#212,#213);
#211 = CARTESIAN_POINT('',(4.,17.,-8.));
#212 = DIRECTION('',(0.,1.,0.));
#213 = DIRECTION('',(0.,0.,1.));
#214 = FACE_BOUND('',#215,.T.);
#215 = EDGE_LOOP('',(#216));
#216 = ORIENTED_EDGE('',*,*,#217,.F.);
#217 = EDGE_CURVE('',#218,#218,#220,.T.);
#218 = VERTEX_POINT('',#219);
#219 = CARTESIAN_POINT('',(4.,17.,9.65));
#220 = CIRCLE('',#221,1.65);
#221 = AXIS2_PLACEMENT_3D('',#222,#223,#224);
#222 = CARTESIAN_POINT('',(4.,17.,8.));
#223 = DIRECTION('',(0.,1.,0.));
#224 = DIRECTION('',(0.,0.,1.));
#225 = FACE_BOUND('',#226,.T.);
#226 = EDGE_LOOP('',(#227));
#227 = ORIENTED_EDGE('',*,*,#228,.F.);
#228 = EDGE_CURVE('',#229,#229,#231,.T.);
#229 = VERTEX_POINT('',#230);
#230 = CARTESIAN_POINT('',(12.,17.,-6.35));
#231 = CIRCLE('',#232,1.65);
#232 = AXIS2_PLACEMENT_3D('',#233,#234,#235);
#233 = CARTESIAN_POINT('',(12.,17.,-8.));
#234 = DIRECTION('',(0.,1.,0.));
#235 = DIRECTION('',(0.,0.,1.));
#236 = FACE_BOUND('',#237,.T.);
#237 = EDGE_LOOP('',(#238));
#238 = ORIENTED_EDGE('',*,*,#239,.F.);
#239 = EDGE_CURVE('',#240,#240,#242,.T.);
#240 = VERTEX_POINT('',#241);
#241 = CARTESIAN_POINT('',(12.,17.,9.65));
#242 = CIRCLE('',#243,1.65);
#243 = AXIS2_PLACEMENT_3D('',#244,#245,#246);
#244 = CARTESIAN_POINT('',(12.,17.,8.));
#245 = DIRECTION('',(0.,1.,0.));
#246 = DIRECTION('',(0.,0.,1.));
#247 = PLANE('',#248);
#248 = AXIS2_PLACEMENT_3D('',#249,#250,#251);
#249 = CARTESIAN_POINT('',(0.,17.,-17.));
#250 = DIRECTION('',(0.,1.,0.));
#251 = DIRECTION('',(0.,0.,1.));
#252 = ADVANCED_FACE('',(#253),#272,.F.);
#253 = FACE_BOUND('',#254,.F.);
#254 = EDGE_LOOP('',(#255,#263,#270,#271));
#255 = ORIENTED_EDGE('',*,*,#256,.T.);
#256 = EDGE_CURVE('',#56,#257,#259,.T.);
#257 = VERTEX_POINT('',#258);
#258 = CARTESIAN_POINT('',(1.1,1.861463134704E-15,7.6));
#259 = LINE('',#260,#261);
#260 = CARTESIAN_POINT('',(-0.1,1.861463134704E-15,7.6));
#261 = VECTOR('',#262,1.);
#262 = DIRECTION('',(1.,0.,0.));
#263 = ORIENTED_EDGE('',*,*,#264,.F.);
#264 = EDGE_CURVE('',#257,#257,#265,.T.);
#265 = CIRCLE('',#266,7.6);
#266 = AXIS2_PLACEMENT_3D('',#267,#268,#269);
#267 = CARTESIAN_POINT('',(1.1,0.,0.));
#268 = DIRECTION('',(1.,0.,-0.));
#269 = DIRECTION('',(0.,0.,1.));
#270 = ORIENTED_EDGE('',*,*,#256,.F.);
#271 = ORIENTED_EDGE('',*,*,#55,.T.);
#272 = CYLINDRICAL_SURFACE('',#273,7.6);
#273 = AXIS2_PLACEMENT_3D('',#274,#275,#276);
#274 = CARTESIAN_POINT('',(-0.1,0.,0.));
#275 = DIRECTION('',(1.,0.,0.));
#276 = DIRECTION('',(0.,0.,1.));
#277 = ADVANCED_FACE('',(#278,#284),#295,.T.);
#278 = FACE_BOUND('',#279,.T.);
#279 = EDGE_LOOP('',(#280,#281,#282,#283));
#280 = ORIENTED_EDGE('',*,*,#89,.F.);
#281 = ORIENTED_EDGE('',*,*,#173,.T.);
#282 = ORIENTED_EDGE('',*,*,#198,.T.);
#283 = ORIENTED_EDGE('',*,*,#149,.F.);
#284 = FACE_BOUND('',#285,.T.);
#285 = EDGE_LOOP('',(#286));
#286 = ORIENTED_EDGE('',*,*,#287,.F.);
#287 = EDGE_CURVE('',#288,#288,#290,.T.);
#288 = VERTEX_POINT('',#289);
#289 = CARTESIAN_POINT('',(44.,1.861463134704E-15,7.6));
#290 = CIRCLE('',#291,7.6);
#291 = AXIS2_PLACEMENT_3D('',#292,#293,#294);
#292 = CARTESIAN_POINT('',(44.,0.,0.));
#293 = DIRECTION('',(1.,0.,-0.));
#294 = DIRECTION('',(0.,0.,1.));
#295 = PLANE('',#296);
#296 = AXIS2_PLACEMENT_3D('',#297,#298,#299);
#297 = CARTESIAN_POINT('',(44.,-17.,-17.));
#298 = DIRECTION('',(1.,0.,0.));
#299 = DIRECTION('',(0.,0.,1.));
#300 = ADVANCED_FACE('',(#301),#409,.F.);
#301 = FACE_BOUND('',#302,.F.);
#302 = EDGE_LOOP('',(#303,#304,#312,#322,#330,#340,#346,#347,#348,#408)
  );
#303 = ORIENTED_EDGE('',*,*,#206,.F.);
#304 = ORIENTED_EDGE('',*,*,#305,.F.);
#305 = EDGE_CURVE('',#306,#207,#308,.T.);
#306 = VERTEX_POINT('',#307);
#307 = CARTESIAN_POINT('',(4.,1.501041305228,-6.35));
#308 = LINE('',#309,#310);
#309 = CARTESIAN_POINT('',(4.,-18.,-6.35));
#310 = VECTOR('',#311,1.);
#311 = DIRECTION('',(0.,1.,0.));
#312 = ORIENTED_EDGE('',*,*,#313,.T.);
#313 = EDGE_CURVE('',#306,#314,#316,.T.);
#314 = VERTEX_POINT('',#315);
#315 = CARTESIAN_POINT('',(4.1,1.488151721835,-6.3530330908));
#316 = B_SPLINE_CURVE_WITH_KNOTS('',4,(#317,#318,#319,#320,#321),
  .UNSPECIFIED.,.F.,.F.,(5,5),(0.,1.),.PIECEWISE_BEZIER_KNOTS.);
#317 = CARTESIAN_POINT('',(4.,1.501041305228,-6.35));
#318 = CARTESIAN_POINT('',(4.025246449391,1.501041305228,-6.35));
#319 = CARTESIAN_POINT('',(4.05048556391,1.498862389904,-6.350515142733)
  );
#320 = CARTESIAN_POINT('',(4.075479654424,1.494507639793,-6.351544263483
    ));
#321 = CARTESIAN_POINT('',(4.1000006,1.48815156631,-6.353033127231));
#322 = ORIENTED_EDGE('',*,*,#323,.F.);
#323 = EDGE_CURVE('',#324,#314,#326,.T.);
#324 = VERTEX_POINT('',#325);
#325 = CARTESIAN_POINT('',(4.1,-1.488151721835,-6.3530330908));
#326 = LINE('',#327,#328);
#327 = CARTESIAN_POINT('',(4.1,-18.,-6.3530330908));
#328 = VECTOR('',#329,1.);
#329 = DIRECTION('',(0.,1.,0.));
#330 = ORIENTED_EDGE('',*,*,#331,.F.);
#331 = EDGE_CURVE('',#332,#324,#334,.T.);
#332 = VERTEX_POINT('',#333);
#333 = CARTESIAN_POINT('',(4.,-1.501041305228,-6.35));
#334 = B_SPLINE_CURVE_WITH_KNOTS('',4,(#335,#336,#337,#338,#339),
  .UNSPECIFIED.,.F.,.F.,(5,5),(0.,1.),.PIECEWISE_BEZIER_KNOTS.);
#335 = CARTESIAN_POINT('',(4.,-1.501041305228,-6.35));
#336 = CARTESIAN_POINT('',(4.025246454396,-1.501041305228,-6.35));
#337 = CARTESIAN_POINT('',(4.050485555103,-1.498862391029,
    -6.350515142469));
#338 = CARTESIAN_POINT('',(4.075479659299,-1.494507638529,
    -6.351544263779));
#339 = CARTESIAN_POINT('',(4.1000006,-1.48815156631,-6.353033127231));
#340 = ORIENTED_EDGE('',*,*,#341,.F.);
#341 = EDGE_CURVE('',#98,#332,#342,.T.);
#342 = LINE('',#343,#344);
#343 = CARTESIAN_POINT('',(4.,-18.,-6.35));
#344 = VECTOR('',#345,1.);
#345 = DIRECTION('',(0.,1.,0.));
#346 = ORIENTED_EDGE('',*,*,#97,.T.);
#347 = ORIENTED_EDGE('',*,*,#341,.T.);
#348 = ORIENTED_EDGE('',*,*,#349,.T.);
#349 = EDGE_CURVE('',#332,#306,#350,.T.);
#350 = B_SPLINE_CURVE_WITH_KNOTS('',6,(#351,#352,#353,#354,#355,#356,
    #357,#358,#359,#360,#361,#362,#363,#364,#365,#366,#367,#368,#369,
    #370,#371,#372,#373,#374,#375,#376,#377,#378,#379,#380,#381,#382,
    #383,#384,#385,#386,#387,#388,#389,#390,#391,#392,#393,#394,#395,
    #396,#397,#398,#399,#400,#401,#402,#403,#404,#405,#406,#407),
  .UNSPECIFIED.,.F.,.F.,(7,5,5,5,5,5,5,5,5,5,5,7),(0.,6.463631815569E-02
    ,0.109587634839,0.178856418943,0.245900595055,0.30619555207,
    0.499714695509,0.72815606838,0.793742874146,0.862511171588,
    0.925800937581,1.),.UNSPECIFIED.);
#351 = CARTESIAN_POINT('',(4.,-1.501041305228,-6.35));
#352 = CARTESIAN_POINT('',(3.962723921437,-1.501041305228,-6.35));
#353 = CARTESIAN_POINT('',(3.925578178298,-1.49676616236,-6.351010197744
    ));
#354 = CARTESIAN_POINT('',(3.888980261969,-1.488272646667,
    -6.353019046706));
#355 = CARTESIAN_POINT('',(3.853336970576,-1.475817480075,
    -6.355939176278));
#356 = CARTESIAN_POINT('',(3.81902749788,-1.459854978812,-6.35962426607)
  );
#357 = CARTESIAN_POINT('',(3.763686361085,-1.427946133171,
    -6.366849686866));
#358 = CARTESIAN_POINT('',(3.741734136335,-1.413441377754,
    -6.370100409361));
#359 = CARTESIAN_POINT('',(3.72054601859,-1.3976648959,-6.373590939708)
  );
#360 = CARTESIAN_POINT('',(3.700132356928,-1.380756768681,
    -6.377276512918));
#361 = CARTESIAN_POINT('',(3.680497678856,-1.362852691923,
    -6.381114747001));
#362 = CARTESIAN_POINT('',(3.632582572223,-1.315161884192,
    -6.391153868611));
#363 = CARTESIAN_POINT('',(3.605350691743,-1.28416663848,-6.397514425352
    ));
#364 = CARTESIAN_POINT('',(3.579854353675,-1.251479729642,
    -6.404023093858));
#365 = CARTESIAN_POINT('',(3.555996706986,-1.217410647981,
    -6.410581974794));
#366 = CARTESIAN_POINT('',(3.533675546946,-1.182197188889,-6.41711666687
    ));
#367 = CARTESIAN_POINT('',(3.492563628184,-1.110976636757,-6.4298228597)
  );
#368 = CARTESIAN_POINT('',(3.473678812475,-1.075024652428,
    -6.436000415752));
#369 = CARTESIAN_POINT('',(3.456044799025,-1.038315936285,
    -6.442054050849));
#370 = CARTESIAN_POINT('',(3.439581675781,-1.00097832104,-6.447945475883
    ));
#371 = CARTESIAN_POINT('',(3.424214415288,-0.963101325005,
    -6.453647255196));
#372 = CARTESIAN_POINT('',(3.39697493032,-0.890233103072,-6.464079585068
    ));
#373 = CARTESIAN_POINT('',(3.384909412945,-0.855342677566,
    -6.468848840278));
#374 = CARTESIAN_POINT('',(3.373633342933,-0.820124799186,
    -6.473430957946));
#375 = CARTESIAN_POINT('',(3.363107496076,-0.784626129487,-6.47781259381
    ));
#376 = CARTESIAN_POINT('',(3.353296329145,-0.748880051922,-6.48198375394
    ));
#377 = CARTESIAN_POINT('',(3.31487016765,-0.597448629489,-6.498628451252
    ));
#378 = CARTESIAN_POINT('',(3.292568869631,-0.47950284853,-6.509096444114
    ));
#379 = CARTESIAN_POINT('',(3.276405201394,-0.360350438904,
    -6.517020816064));
#380 = CARTESIAN_POINT('',(3.265807521954,-0.240576691232,
    -6.522333989252));
#381 = CARTESIAN_POINT('',(3.260490027113,-0.120399942003,-6.525));
#382 = CARTESIAN_POINT('',(3.260490027113,0.142127169209,-6.525));
#383 = CARTESIAN_POINT('',(3.267900042359,0.28369995208,-6.521284786966)
  );
#384 = CARTESIAN_POINT('',(3.282610451484,0.424599669805,-6.513910148829
    ));
#385 = CARTESIAN_POINT('',(3.305201687689,0.564626121847,-6.502930936457
    ));
#386 = CARTESIAN_POINT('',(3.336830129137,0.702673853503,-6.488445172337
    ));
#387 = CARTESIAN_POINT('',(3.391378294838,0.874154440317,-6.46629465494)
  );
#388 = CARTESIAN_POINT('',(3.404441347535,0.912036813789,-6.461125469428
    ));
#389 = CARTESIAN_POINT('',(3.418453861738,0.949515717594,-6.455741547994
    ));
#390 = CARTESIAN_POINT('',(3.43347486749,0.986529323757,-6.450161474691)
  );
#391 = CARTESIAN_POINT('',(3.449568483217,1.02298886391,-6.444411092652)
  );
#392 = CARTESIAN_POINT('',(3.484875702002,1.096304524231,-6.432354752486
    ));
#393 = CARTESIAN_POINT('',(3.504200256014,1.133089094681,-6.426036234008
    ));
#394 = CARTESIAN_POINT('',(3.524873947921,1.169031963728,-6.419605212707
    ));
#395 = CARTESIAN_POINT('',(3.546994577644,1.203973144086,-6.413111472134
    ));
#396 = CARTESIAN_POINT('',(3.57066123335,1.237692983187,-6.406623136898)
  );
#397 = CARTESIAN_POINT('',(3.619270197273,1.299564413935,-6.394346816528
    ));
#398 = CARTESIAN_POINT('',(3.643986831599,1.327978945888,-6.388537648487
    ));
#399 = CARTESIAN_POINT('',(3.67017906345,1.354892976356,-6.382880631574)
  );
#400 = CARTESIAN_POINT('',(3.697887545985,1.380004009099,-6.377471206791
    ));
#401 = CARTESIAN_POINT('',(3.727137477879,1.402969183665,-6.372420336578
    ));
#402 = CARTESIAN_POINT('',(3.794046868076,1.447362692827,-6.36249706487)
  );
#403 = CARTESIAN_POINT('',(3.832497937747,1.467983603442,-6.35777417482)
  );
#404 = CARTESIAN_POINT('',(3.872854995217,1.484239022691,-6.353972015766
    ));
#405 = CARTESIAN_POINT('',(3.914605680852,1.495400766528,-6.351333277716
    ));
#406 = CARTESIAN_POINT('',(3.957183107498,1.501041305228,-6.35));
#407 = CARTESIAN_POINT('',(4.,1.501041305228,-6.35));
#408 = ORIENTED_EDGE('',*,*,#305,.T.);
#409 = CYLINDRICAL_SURFACE('',#410,1.65);
#410 = AXIS2_PLACEMENT_3D('',#411,#412,#413);
#411 = CARTESIAN_POINT('',(4.,-18.,-8.));
#412 = DIRECTION('',(0.,1.,0.));
#413 = DIRECTION('',(0.,0.,1.));
#414 = ADVANCED_FACE('',(#415,#426),#522,.F.);
#415 = FACE_BOUND('',#416,.F.);
#416 = EDGE_LOOP('',(#417,#418,#424,#425));
#417 = ORIENTED_EDGE('',*,*,#217,.F.);
#418 = ORIENTED_EDGE('',*,*,#419,.F.);
#419 = EDGE_CURVE('',#109,#218,#420,.T.);
#420 = LINE('',#421,#422);
#421 = CARTESIAN_POINT('',(4.,-18.,9.65));
#422 = VECTOR('',#423,1.);
#423 = DIRECTION('',(0.,1.,0.));
#424 = ORIENTED_EDGE('',*,*,#108,.T.);
#425 = ORIENTED_EDGE('',*,*,#419,.T.);
#426 = FACE_BOUND('',#427,.F.);
#427 = EDGE_LOOP('',(#428,#438,#481));
#428 = ORIENTED_EDGE('',*,*,#429,.T.);
#429 = EDGE_CURVE('',#430,#432,#434,.T.);
#430 = VERTEX_POINT('',#431);
#431 = CARTESIAN_POINT('',(4.1,-1.488151721835,6.3530330908));
#432 = VERTEX_POINT('',#433);
#433 = CARTESIAN_POINT('',(4.1,1.488151721835,6.3530330908));
#434 = LINE('',#435,#436);
#435 = CARTESIAN_POINT('',(4.1,-18.,6.3530330908));
#436 = VECTOR('',#437,1.);
#437 = DIRECTION('',(0.,1.,0.));
#438 = ORIENTED_EDGE('',*,*,#439,.T.);
#439 = EDGE_CURVE('',#432,#440,#442,.T.);
#440 = VERTEX_POINT('',#441);
#441 = CARTESIAN_POINT('',(3.260490027113,1.598164072887E-15,6.525));
#442 = B_SPLINE_CURVE_WITH_KNOTS('',7,(#443,#444,#445,#446,#447,#448,
    #449,#450,#451,#452,#453,#454,#455,#456,#457,#458,#459,#460,#461,
    #462,#463,#464,#465,#466,#467,#468,#469,#470,#471,#472,#473,#474,
    #475,#476,#477,#478,#479,#480),.UNSPECIFIED.,.F.,.F.,(8,6,6,6,6,6,8)
  ,(0.,5.533661889242E-02,0.135264858276,0.177429749499,0.264066952901,
    0.395414770427,1.),.UNSPECIFIED.);
#443 = CARTESIAN_POINT('',(4.1000006,1.48815156631,6.353033127231));
#444 = CARTESIAN_POINT('',(4.086035358196,1.491771496171,6.352185185124)
  );
#445 = CARTESIAN_POINT('',(4.071935842784,1.494823424125,6.351467724379)
  );
#446 = CARTESIAN_POINT('',(4.057727857861,1.497287607937,6.350886880386)
  );
#447 = CARTESIAN_POINT('',(4.043437478107,1.499149136879,6.350447292954)
  );
#448 = CARTESIAN_POINT('',(4.029091048786,1.500397931732,6.350152106308)
  );
#449 = CARTESIAN_POINT('',(4.014715185746,1.501028744784,6.350002969093)
  );
#450 = CARTESIAN_POINT('',(3.979568592514,1.501059092137,6.349995795452)
  );
#451 = CARTESIAN_POINT('',(3.958811595308,1.499786799481,6.350296515337)
  );
#452 = CARTESIAN_POINT('',(3.938142516781,1.497227044892,6.350901674355)
  );
#453 = CARTESIAN_POINT('',(3.917636669727,1.493401752068,6.351804215415)
  );
#454 = CARTESIAN_POINT('',(3.897367837031,1.488352046949,6.352990973702)
  );
#455 = CARTESIAN_POINT('',(3.877408161951,1.482138299286,6.35444310638)
  );
#456 = CARTESIAN_POINT('',(3.847498850792,1.470990147314,6.357029857345)
  );
#457 = CARTESIAN_POINT('',(3.837269951374,1.466836253763,6.357990844629)
  );
#458 = CARTESIAN_POINT('',(3.827148547363,1.462388712547,6.359016274333)
  );
#459 = CARTESIAN_POINT('',(3.817140868344,1.45765796451,6.360102867343)
  );
#460 = CARTESIAN_POINT('',(3.807252166271,1.452654662346,6.361247275246)
  );
#461 = CARTESIAN_POINT('',(3.797486715466,1.447389670603,6.362446080331)
  );
#462 = CARTESIAN_POINT('',(3.768042530015,1.430541021235,6.366263615195)
  );
#463 = CARTESIAN_POINT('',(3.748787983153,1.418158832638,6.369044573902)
  );
#464 = CARTESIAN_POINT('',(3.73009408465,1.404814174035,6.372010372055)
  );
#465 = CARTESIAN_POINT('',(3.711968081654,1.390591749314,6.375133788923)
  );
#466 = CARTESIAN_POINT('',(3.694414555838,1.375574292098,6.378388682696)
  );
#467 = CARTESIAN_POINT('',(3.677435423403,1.359842565747,6.381749990483)
  );
#468 = CARTESIAN_POINT('',(3.636158113245,1.318661585566,6.390414666085)
  );
#469 = CARTESIAN_POINT('',(3.612589159857,1.292371867966,6.395828736013)
  );
#470 = CARTESIAN_POINT('',(3.590271170905,1.264823493362,6.401365190721)
  );
#471 = CARTESIAN_POINT('',(3.569149641941,1.236202948096,6.406964542623)
  );
#472 = CARTESIAN_POINT('',(3.549167695367,1.206666008253,6.412577754094)
  );
#473 = CARTESIAN_POINT('',(3.530266307718,1.176337825867,6.418165427641)
  );
#474 = CARTESIAN_POINT('',(3.430075940627,1.002507883893,6.449158436042)
  );
#475 = CARTESIAN_POINT('',(3.368334828407,0.843141124622,6.473752015989)
  );
#476 = CARTESIAN_POINT('',(3.323372451805,0.677656356986,6.494075786362)
  );
#477 = CARTESIAN_POINT('',(3.291695244219,0.5101813053,6.509353365665));
#478 = CARTESIAN_POINT('',(3.271104689995,0.342184172386,6.519678747019)
  );
#479 = CARTESIAN_POINT('',(3.260490027113,0.172512946447,6.525));
#480 = CARTESIAN_POINT('',(3.260490027113,7.990820364436E-16,6.525));
#481 = ORIENTED_EDGE('',*,*,#482,.F.);
#482 = EDGE_CURVE('',#430,#440,#483,.T.);
#483 = B_SPLINE_CURVE_WITH_KNOTS('',7,(#484,#485,#486,#487,#488,#489,
    #490,#491,#492,#493,#494,#495,#496,#497,#498,#499,#500,#501,#502,
    #503,#504,#505,#506,#507,#508,#509,#510,#511,#512,#513,#514,#515,
    #516,#517,#518,#519,#520,#521),.UNSPECIFIED.,.F.,.F.,(8,6,6,6,6,6,8)
  ,(0.,5.533661647428E-02,0.135264852365,0.177429741746,0.264066941362,
    0.395414753148,1.),.UNSPECIFIED.);
#484 = CARTESIAN_POINT('',(4.1000006,-1.48815156631,6.353033127231));
#485 = CARTESIAN_POINT('',(4.086035358196,-1.491771496171,6.352185185124
    ));
#486 = CARTESIAN_POINT('',(4.071935842784,-1.494823424125,6.351467724379
    ));
#487 = CARTESIAN_POINT('',(4.057727857861,-1.497287607937,6.350886880386
    ));
#488 = CARTESIAN_POINT('',(4.043437478107,-1.499149136879,6.350447292954
    ));
#489 = CARTESIAN_POINT('',(4.029091048786,-1.500397931732,6.350152106308
    ));
#490 = CARTESIAN_POINT('',(4.014715185746,-1.501028744784,6.350002969093
    ));
#491 = CARTESIAN_POINT('',(3.979568592514,-1.501059092137,6.349995795452
    ));
#492 = CARTESIAN_POINT('',(3.958811595308,-1.499786799481,6.350296515337
    ));
#493 = CARTESIAN_POINT('',(3.938142516781,-1.497227044892,6.350901674355
    ));
#494 = CARTESIAN_POINT('',(3.917636669727,-1.493401752068,6.351804215415
    ));
#495 = CARTESIAN_POINT('',(3.897367837031,-1.488352046949,6.352990973702
    ));
#496 = CARTESIAN_POINT('',(3.877408161951,-1.482138299286,6.35444310638)
  );
#497 = CARTESIAN_POINT('',(3.847498850792,-1.470990147314,6.357029857345
    ));
#498 = CARTESIAN_POINT('',(3.837269951374,-1.466836253763,6.357990844629
    ));
#499 = CARTESIAN_POINT('',(3.827148547363,-1.462388712547,6.359016274333
    ));
#500 = CARTESIAN_POINT('',(3.817140868344,-1.45765796451,6.360102867343)
  );
#501 = CARTESIAN_POINT('',(3.807252166271,-1.452654662346,6.361247275246
    ));
#502 = CARTESIAN_POINT('',(3.797486715466,-1.447389670603,6.362446080331
    ));
#503 = CARTESIAN_POINT('',(3.768042530015,-1.430541021235,6.366263615195
    ));
#504 = CARTESIAN_POINT('',(3.748787983153,-1.418158832638,6.369044573902
    ));
#505 = CARTESIAN_POINT('',(3.73009408465,-1.404814174035,6.372010372055)
  );
#506 = CARTESIAN_POINT('',(3.711968081654,-1.390591749314,6.375133788923
    ));
#507 = CARTESIAN_POINT('',(3.694414555838,-1.375574292098,6.378388682696
    ));
#508 = CARTESIAN_POINT('',(3.677435423403,-1.359842565747,6.381749990483
    ));
#509 = CARTESIAN_POINT('',(3.636158113245,-1.318661585566,6.390414666085
    ));
#510 = CARTESIAN_POINT('',(3.612589159857,-1.292371867966,6.395828736013
    ));
#511 = CARTESIAN_POINT('',(3.590271170905,-1.264823493362,6.401365190721
    ));
#512 = CARTESIAN_POINT('',(3.569149641941,-1.236202948096,6.406964542623
    ));
#513 = CARTESIAN_POINT('',(3.549167695367,-1.206666008253,6.412577754094
    ));
#514 = CARTESIAN_POINT('',(3.530266307718,-1.176337825867,6.418165427641
    ));
#515 = CARTESIAN_POINT('',(3.430075934678,-1.002507873571,6.449158437882
    ));
#516 = CARTESIAN_POINT('',(3.368334848337,-0.843141172176,6.473752009584
    ));
#517 = CARTESIAN_POINT('',(3.323372421082,-0.677656256749,6.494075796541
    ));
#518 = CARTESIAN_POINT('',(3.291695268945,-0.510181422683,6.509353357277
    ));
#519 = CARTESIAN_POINT('',(3.271104681134,-0.342184096112,6.519678750079
    ));
#520 = CARTESIAN_POINT('',(3.260490027113,-0.172512968528,6.525));
#521 = CARTESIAN_POINT('',(3.260490027113,0.,6.525));
#522 = CYLINDRICAL_SURFACE('',#523,1.65);
#523 = AXIS2_PLACEMENT_3D('',#524,#525,#526);
#524 = CARTESIAN_POINT('',(4.,-18.,8.));
#525 = DIRECTION('',(0.,1.,0.));
#526 = DIRECTION('',(0.,0.,1.));
#527 = ADVANCED_FACE('',(#528),#580,.F.);
#528 = FACE_BOUND('',#529,.F.);
#529 = EDGE_LOOP('',(#530,#538,#539,#540,#549,#557,#566,#572,#573,#574)
  );
#530 = ORIENTED_EDGE('',*,*,#531,.T.);
#531 = EDGE_CURVE('',#532,#229,#534,.T.);
#532 = VERTEX_POINT('',#533);
#533 = CARTESIAN_POINT('',(12.,10.,-6.35));
#534 = LINE('',#535,#536);
#535 = CARTESIAN_POINT('',(12.,-18.,-6.35));
#536 = VECTOR('',#537,1.);
#537 = DIRECTION('',(0.,1.,0.));
#538 = ORIENTED_EDGE('',*,*,#228,.F.);
#539 = ORIENTED_EDGE('',*,*,#531,.F.);
#540 = ORIENTED_EDGE('',*,*,#541,.T.);
#541 = EDGE_CURVE('',#532,#542,#544,.T.);
#542 = VERTEX_POINT('',#543);
#543 = CARTESIAN_POINT('',(12.,10.,-9.65));
#544 = CIRCLE('',#545,1.65);
#545 = AXIS2_PLACEMENT_3D('',#546,#547,#548);
#546 = CARTESIAN_POINT('',(12.,10.,-8.));
#547 = DIRECTION('',(0.,1.,0.));
#548 = DIRECTION('',(0.,0.,1.));
#549 = ORIENTED_EDGE('',*,*,#550,.F.);
#550 = EDGE_CURVE('',#551,#542,#553,.T.);
#551 = VERTEX_POINT('',#552);
#552 = CARTESIAN_POINT('',(12.,-10.,-9.65));
#553 = LINE('',#554,#555);
#554 = CARTESIAN_POINT('',(12.,-18.,-9.65));
#555 = VECTOR('',#556,1.);
#556 = DIRECTION('',(0.,1.,0.));
#557 = ORIENTED_EDGE('',*,*,#558,.F.);
#558 = EDGE_CURVE('',#559,#551,#561,.T.);
#559 = VERTEX_POINT('',#560);
#560 = CARTESIAN_POINT('',(12.,-10.,-6.35));
#561 = CIRCLE('',#562,1.65);
#562 = AXIS2_PLACEMENT_3D('',#563,#564,#565);
#563 = CARTESIAN_POINT('',(12.,-10.,-8.));
#564 = DIRECTION('',(0.,1.,0.));
#565 = DIRECTION('',(0.,0.,1.));
#566 = ORIENTED_EDGE('',*,*,#567,.F.);
#567 = EDGE_CURVE('',#120,#559,#568,.T.);
#568 = LINE('',#569,#570);
#569 = CARTESIAN_POINT('',(12.,-18.,-6.35));
#570 = VECTOR('',#571,1.);
#571 = DIRECTION('',(0.,1.,0.));
#572 = ORIENTED_EDGE('',*,*,#119,.T.);
#573 = ORIENTED_EDGE('',*,*,#567,.T.);
#574 = ORIENTED_EDGE('',*,*,#575,.T.);
#575 = EDGE_CURVE('',#559,#532,#576,.T.);
#576 = LINE('',#577,#578);
#577 = CARTESIAN_POINT('',(12.,-18.,-6.35));
#578 = VECTOR('',#579,1.);
#579 = DIRECTION('',(0.,1.,0.));
#580 = CYLINDRICAL_SURFACE('',#581,1.65);
#581 = AXIS2_PLACEMENT_3D('',#582,#583,#584);
#582 = CARTESIAN_POINT('',(12.,-18.,-8.));
#583 = DIRECTION('',(0.,1.,0.));
#584 = DIRECTION('',(0.,0.,1.));
#585 = ADVANCED_FACE('',(#586),#638,.F.);
#586 = FACE_BOUND('',#587,.F.);
#587 = EDGE_LOOP('',(#588,#596,#597,#598,#607,#615,#624,#630,#631,#632)
  );
#588 = ORIENTED_EDGE('',*,*,#589,.T.);
#589 = EDGE_CURVE('',#590,#240,#592,.T.);
#590 = VERTEX_POINT('',#591);
#591 = CARTESIAN_POINT('',(12.,10.,9.65));
#592 = LINE('',#593,#594);
#593 = CARTESIAN_POINT('',(12.,-18.,9.65));
#594 = VECTOR('',#595,1.);
#595 = DIRECTION('',(0.,1.,0.));
#596 = ORIENTED_EDGE('',*,*,#239,.F.);
#597 = ORIENTED_EDGE('',*,*,#589,.F.);
#598 = ORIENTED_EDGE('',*,*,#599,.T.);
#599 = EDGE_CURVE('',#590,#600,#602,.T.);
#600 = VERTEX_POINT('',#601);
#601 = CARTESIAN_POINT('',(12.,10.,6.35));
#602 = CIRCLE('',#603,1.65);
#603 = AXIS2_PLACEMENT_3D('',#604,#605,#606);
#604 = CARTESIAN_POINT('',(12.,10.,8.));
#605 = DIRECTION('',(0.,1.,0.));
#606 = DIRECTION('',(0.,0.,1.));
#607 = ORIENTED_EDGE('',*,*,#608,.F.);
#608 = EDGE_CURVE('',#609,#600,#611,.T.);
#609 = VERTEX_POINT('',#610);
#610 = CARTESIAN_POINT('',(12.,-10.,6.35));
#611 = LINE('',#612,#613);
#612 = CARTESIAN_POINT('',(12.,-18.,6.35));
#613 = VECTOR('',#614,1.);
#614 = DIRECTION('',(0.,1.,0.));
#615 = ORIENTED_EDGE('',*,*,#616,.F.);
#616 = EDGE_CURVE('',#617,#609,#619,.T.);
#617 = VERTEX_POINT('',#618);
#618 = CARTESIAN_POINT('',(12.,-10.,9.65));
#619 = CIRCLE('',#620,1.65);
#620 = AXIS2_PLACEMENT_3D('',#621,#622,#623);
#621 = CARTESIAN_POINT('',(12.,-10.,8.));
#622 = DIRECTION('',(0.,1.,0.));
#623 = DIRECTION('',(0.,0.,1.));
#624 = ORIENTED_EDGE('',*,*,#625,.F.);
#625 = EDGE_CURVE('',#131,#617,#626,.T.);
#626 = LINE('',#627,#628);
#627 = CARTESIAN_POINT('',(12.,-18.,9.65));
#628 = VECTOR('',#629,1.);
#629 = DIRECTION('',(0.,1.,0.));
#630 = ORIENTED_EDGE('',*,*,#130,.T.);
#631 = ORIENTED_EDGE('',*,*,#625,.T.);
#632 = ORIENTED_EDGE('',*,*,#633,.T.);
#633 = EDGE_CURVE('',#617,#590,#634,.T.);
#634 = LINE('',#635,#636);
#635 = CARTESIAN_POINT('',(12.,-18.,9.65));
#636 = VECTOR('',#637,1.);
#637 = DIRECTION('',(0.,1.,0.));
#638 = CYLINDRICAL_SURFACE('',#639,1.65);
#639 = AXIS2_PLACEMENT_3D('',#640,#641,#642);
#640 = CARTESIAN_POINT('',(12.,-18.,8.));
#641 = DIRECTION('',(0.,1.,0.));
#642 = DIRECTION('',(0.,0.,1.));
#643 = ADVANCED_FACE('',(#644,#647),#658,.F.);
#644 = FACE_BOUND('',#645,.F.);
#645 = EDGE_LOOP('',(#646));
#646 = ORIENTED_EDGE('',*,*,#264,.T.);
#647 = FACE_BOUND('',#648,.F.);
#648 = EDGE_LOOP('',(#649));
#649 = ORIENTED_EDGE('',*,*,#650,.F.);
#650 = EDGE_CURVE('',#651,#651,#653,.T.);
#651 = VERTEX_POINT('',#652);
#652 = CARTESIAN_POINT('',(1.1,1.598164072887E-15,6.525));
#653 = CIRCLE('',#654,6.525);
#654 = AXIS2_PLACEMENT_3D('',#655,#656,#657);
#655 = CARTESIAN_POINT('',(1.1,0.,0.));
#656 = DIRECTION('',(1.,0.,-0.));
#657 = DIRECTION('',(0.,0.,1.));
#658 = PLANE('',#659);
#659 = AXIS2_PLACEMENT_3D('',#660,#661,#662);
#660 = CARTESIAN_POINT('',(1.1,0.,0.));
#661 = DIRECTION('',(1.,0.,0.));
#662 = DIRECTION('',(0.,0.,1.));
#663 = ADVANCED_FACE('',(#664),#683,.F.);
#664 = FACE_BOUND('',#665,.F.);
#665 = EDGE_LOOP('',(#666,#667,#675,#682));
#666 = ORIENTED_EDGE('',*,*,#287,.F.);
#667 = ORIENTED_EDGE('',*,*,#668,.F.);
#668 = EDGE_CURVE('',#669,#288,#671,.T.);
#669 = VERTEX_POINT('',#670);
#670 = CARTESIAN_POINT('',(42.9,1.861463134704E-15,7.6));
#671 = LINE('',#672,#673);
#672 = CARTESIAN_POINT('',(42.9,1.861463134704E-15,7.6));
#673 = VECTOR('',#674,1.);
#674 = DIRECTION('',(1.,0.,0.));
#675 = ORIENTED_EDGE('',*,*,#676,.T.);
#676 = EDGE_CURVE('',#669,#669,#677,.T.);
#677 = CIRCLE('',#678,7.6);
#678 = AXIS2_PLACEMENT_3D('',#679,#680,#681);
#679 = CARTESIAN_POINT('',(42.9,0.,0.));
#680 = DIRECTION('',(1.,0.,-0.));
#681 = DIRECTION('',(0.,0.,1.));
#682 = ORIENTED_EDGE('',*,*,#668,.T.);
#683 = CYLINDRICAL_SURFACE('',#684,7.6);
#684 = AXIS2_PLACEMENT_3D('',#685,#686,#687);
#685 = CARTESIAN_POINT('',(42.9,0.,0.));
#686 = DIRECTION('',(1.,0.,0.));
#687 = DIRECTION('',(0.,0.,1.));
#688 = ADVANCED_FACE('',(#689),#718,.F.);
#689 = FACE_BOUND('',#690,.F.);
#690 = EDGE_LOOP('',(#691,#692,#698,#699,#706,#707,#708,#709,#716,#717)
  );
#691 = ORIENTED_EDGE('',*,*,#650,.T.);
#692 = ORIENTED_EDGE('',*,*,#693,.T.);
#693 = EDGE_CURVE('',#651,#440,#694,.T.);
#694 = LINE('',#695,#696);
#695 = CARTESIAN_POINT('',(-0.1,1.598164072887E-15,6.525));
#696 = VECTOR('',#697,1.);
#697 = DIRECTION('',(1.,0.,0.));
#698 = ORIENTED_EDGE('',*,*,#439,.F.);
#699 = ORIENTED_EDGE('',*,*,#700,.F.);
#700 = EDGE_CURVE('',#314,#432,#701,.T.);
#701 = CIRCLE('',#702,6.525);
#702 = AXIS2_PLACEMENT_3D('',#703,#704,#705);
#703 = CARTESIAN_POINT('',(4.1,0.,0.));
#704 = DIRECTION('',(1.,0.,-0.));
#705 = DIRECTION('',(0.,0.,1.));
#706 = ORIENTED_EDGE('',*,*,#313,.F.);
#707 = ORIENTED_EDGE('',*,*,#349,.F.);
#708 = ORIENTED_EDGE('',*,*,#331,.T.);
#709 = ORIENTED_EDGE('',*,*,#710,.F.);
#710 = EDGE_CURVE('',#430,#324,#711,.T.);
#711 = CIRCLE('',#712,6.525);
#712 = AXIS2_PLACEMENT_3D('',#713,#714,#715);
#713 = CARTESIAN_POINT('',(4.1,0.,0.));
#714 = DIRECTION('',(1.,0.,-0.));
#715 = DIRECTION('',(0.,0.,1.));
#716 = ORIENTED_EDGE('',*,*,#482,.T.);
#717 = ORIENTED_EDGE('',*,*,#693,.F.);
#718 = CYLINDRICAL_SURFACE('',#719,6.525);
#719 = AXIS2_PLACEMENT_3D('',#720,#721,#722);
#720 = CARTESIAN_POINT('',(-0.1,0.,0.));
#721 = DIRECTION('',(1.,0.,0.));
#722 = DIRECTION('',(0.,0.,1.));
#723 = ADVANCED_FACE('',(#724,#730),#741,.F.);
#724 = FACE_BOUND('',#725,.F.);
#725 = EDGE_LOOP('',(#726,#727,#728,#729));
#726 = ORIENTED_EDGE('',*,*,#323,.T.);
#727 = ORIENTED_EDGE('',*,*,#700,.T.);
#728 = ORIENTED_EDGE('',*,*,#429,.F.);
#729 = ORIENTED_EDGE('',*,*,#710,.T.);
#730 = FACE_BOUND('',#731,.F.);
#731 = EDGE_LOOP('',(#732));
#732 = ORIENTED_EDGE('',*,*,#733,.F.);
#733 = EDGE_CURVE('',#734,#734,#736,.T.);
#734 = VERTEX_POINT('',#735);
#735 = CARTESIAN_POINT('',(4.1,6.490628035481E-16,2.65));
#736 = CIRCLE('',#737,2.65);
#737 = AXIS2_PLACEMENT_3D('',#738,#739,#740);
#738 = CARTESIAN_POINT('',(4.1,0.,0.));
#739 = DIRECTION('',(1.,0.,-0.));
#740 = DIRECTION('',(0.,0.,1.));
#741 = PLANE('',#742);
#742 = AXIS2_PLACEMENT_3D('',#743,#744,#745);
#743 = CARTESIAN_POINT('',(4.1,0.,0.));
#744 = DIRECTION('',(1.,0.,0.));
#745 = DIRECTION('',(0.,0.,1.));
#746 = ADVANCED_FACE('',(#747,#763),#774,.T.);
#747 = FACE_BOUND('',#748,.T.);
#748 = EDGE_LOOP('',(#749,#750,#756,#757));
#749 = ORIENTED_EDGE('',*,*,#608,.F.);
#750 = ORIENTED_EDGE('',*,*,#751,.F.);
#751 = EDGE_CURVE('',#559,#609,#752,.T.);
#752 = LINE('',#753,#754);
#753 = CARTESIAN_POINT('',(12.,-10.,-11.));
#754 = VECTOR('',#755,1.);
#755 = DIRECTION('',(0.,0.,1.));
#756 = ORIENTED_EDGE('',*,*,#575,.T.);
#757 = ORIENTED_EDGE('',*,*,#758,.T.);
#758 = EDGE_CURVE('',#532,#600,#759,.T.);
#759 = LINE('',#760,#761);
#760 = CARTESIAN_POINT('',(12.,10.,-11.));
#761 = VECTOR('',#762,1.);
#762 = DIRECTION('',(0.,0.,1.));
#763 = FACE_BOUND('',#764,.T.);
#764 = EDGE_LOOP('',(#765));
#765 = ORIENTED_EDGE('',*,*,#766,.F.);
#766 = EDGE_CURVE('',#767,#767,#769,.T.);
#767 = VERTEX_POINT('',#768);
#768 = CARTESIAN_POINT('',(12.,6.490628035481E-16,2.65));
#769 = CIRCLE('',#770,2.65);
#770 = AXIS2_PLACEMENT_3D('',#771,#772,#773);
#771 = CARTESIAN_POINT('',(12.,0.,0.));
#772 = DIRECTION('',(1.,0.,-0.));
#773 = DIRECTION('',(0.,0.,1.));
#774 = PLANE('',#775);
#775 = AXIS2_PLACEMENT_3D('',#776,#777,#778);
#776 = CARTESIAN_POINT('',(12.,-10.,-11.));
#777 = DIRECTION('',(1.,0.,0.));
#778 = DIRECTION('',(0.,0.,1.));
#779 = ADVANCED_FACE('',(#780),#823,.T.);
#780 = FACE_BOUND('',#781,.T.);
#781 = EDGE_LOOP('',(#782,#792,#800,#806,#807,#808,#809,#817));
#782 = ORIENTED_EDGE('',*,*,#783,.F.);
#783 = EDGE_CURVE('',#784,#786,#788,.T.);
#784 = VERTEX_POINT('',#785);
#785 = CARTESIAN_POINT('',(36.,-10.,-11.));
#786 = VERTEX_POINT('',#787);
#787 = CARTESIAN_POINT('',(36.,-10.,11.));
#788 = LINE('',#789,#790);
#789 = CARTESIAN_POINT('',(36.,-10.,-11.));
#790 = VECTOR('',#791,1.);
#791 = DIRECTION('',(0.,0.,1.));
#792 = ORIENTED_EDGE('',*,*,#793,.F.);
#793 = EDGE_CURVE('',#794,#784,#796,.T.);
#794 = VERTEX_POINT('',#795);
#795 = CARTESIAN_POINT('',(12.,-10.,-11.));
#796 = LINE('',#797,#798);
#797 = CARTESIAN_POINT('',(12.,-10.,-11.));
#798 = VECTOR('',#799,1.);
#799 = DIRECTION('',(1.,0.,0.));
#800 = ORIENTED_EDGE('',*,*,#801,.T.);
#801 = EDGE_CURVE('',#794,#551,#802,.T.);
#802 = LINE('',#803,#804);
#803 = CARTESIAN_POINT('',(12.,-10.,-11.));
#804 = VECTOR('',#805,1.);
#805 = DIRECTION('',(0.,0.,1.));
#806 = ORIENTED_EDGE('',*,*,#558,.F.);
#807 = ORIENTED_EDGE('',*,*,#751,.T.);
#808 = ORIENTED_EDGE('',*,*,#616,.F.);
#809 = ORIENTED_EDGE('',*,*,#810,.T.);
#810 = EDGE_CURVE('',#617,#811,#813,.T.);
#811 = VERTEX_POINT('',#812);
#812 = CARTESIAN_POINT('',(12.,-10.,11.));
#813 = LINE('',#814,#815);
#814 = CARTESIAN_POINT('',(12.,-10.,-11.));
#815 = VECTOR('',#816,1.);
#816 = DIRECTION('',(0.,0.,1.));
#817 = ORIENTED_EDGE('',*,*,#818,.T.);
#818 = EDGE_CURVE('',#811,#786,#819,.T.);
#819 = LINE('',#820,#821);
#820 = CARTESIAN_POINT('',(12.,-10.,11.));
#821 = VECTOR('',#822,1.);
#822 = DIRECTION('',(1.,0.,0.));
#823 = PLANE('',#824);
#824 = AXIS2_PLACEMENT_3D('',#825,#826,#827);
#825 = CARTESIAN_POINT('',(12.,-10.,-11.));
#826 = DIRECTION('',(0.,1.,0.));
#827 = DIRECTION('',(0.,0.,1.));
#828 = ADVANCED_FACE('',(#829),#847,.T.);
#829 = FACE_BOUND('',#830,.T.);
#830 = EDGE_LOOP('',(#831,#832,#833,#841));
#831 = ORIENTED_EDGE('',*,*,#550,.F.);
#832 = ORIENTED_EDGE('',*,*,#801,.F.);
#833 = ORIENTED_EDGE('',*,*,#834,.T.);
#834 = EDGE_CURVE('',#794,#835,#837,.T.);
#835 = VERTEX_POINT('',#836);
#836 = CARTESIAN_POINT('',(12.,10.,-11.));
#837 = LINE('',#838,#839);
#838 = CARTESIAN_POINT('',(12.,-10.,-11.));
#839 = VECTOR('',#840,1.);
#840 = DIRECTION('',(0.,1.,0.));
#841 = ORIENTED_EDGE('',*,*,#842,.T.);
#842 = EDGE_CURVE('',#835,#542,#843,.T.);
#843 = LINE('',#844,#845);
#844 = CARTESIAN_POINT('',(12.,10.,-11.));
#845 = VECTOR('',#846,1.);
#846 = DIRECTION('',(0.,0.,1.));
#847 = PLANE('',#848);
#848 = AXIS2_PLACEMENT_3D('',#849,#850,#851);
#849 = CARTESIAN_POINT('',(12.,-10.,-11.));
#850 = DIRECTION('',(1.,0.,0.));
#851 = DIRECTION('',(0.,0.,1.));
#852 = ADVANCED_FACE('',(#853),#889,.F.);
#853 = FACE_BOUND('',#854,.F.);
#854 = EDGE_LOOP('',(#855,#865,#871,#872,#873,#874,#875,#883));
#855 = ORIENTED_EDGE('',*,*,#856,.F.);
#856 = EDGE_CURVE('',#857,#859,#861,.T.);
#857 = VERTEX_POINT('',#858);
#858 = CARTESIAN_POINT('',(36.,10.,-11.));
#859 = VERTEX_POINT('',#860);
#860 = CARTESIAN_POINT('',(36.,10.,11.));
#861 = LINE('',#862,#863);
#862 = CARTESIAN_POINT('',(36.,10.,-11.));
#863 = VECTOR('',#864,1.);
#864 = DIRECTION('',(0.,0.,1.));
#865 = ORIENTED_EDGE('',*,*,#866,.F.);
#866 = EDGE_CURVE('',#835,#857,#867,.T.);
#867 = LINE('',#868,#869);
#868 = CARTESIAN_POINT('',(12.,10.,-11.));
#869 = VECTOR('',#870,1.);
#870 = DIRECTION('',(1.,0.,0.));
#871 = ORIENTED_EDGE('',*,*,#842,.T.);
#872 = ORIENTED_EDGE('',*,*,#541,.F.);
#873 = ORIENTED_EDGE('',*,*,#758,.T.);
#874 = ORIENTED_EDGE('',*,*,#599,.F.);
#875 = ORIENTED_EDGE('',*,*,#876,.T.);
#876 = EDGE_CURVE('',#590,#877,#879,.T.);
#877 = VERTEX_POINT('',#878);
#878 = CARTESIAN_POINT('',(12.,10.,11.));
#879 = LINE('',#880,#881);
#880 = CARTESIAN_POINT('',(12.,10.,-11.));
#881 = VECTOR('',#882,1.);
#882 = DIRECTION('',(0.,0.,1.));
#883 = ORIENTED_EDGE('',*,*,#884,.T.);
#884 = EDGE_CURVE('',#877,#859,#885,.T.);
#885 = LINE('',#886,#887);
#886 = CARTESIAN_POINT('',(12.,10.,11.));
#887 = VECTOR('',#888,1.);
#888 = DIRECTION('',(1.,0.,0.));
#889 = PLANE('',#890);
#890 = AXIS2_PLACEMENT_3D('',#891,#892,#893);
#891 = CARTESIAN_POINT('',(12.,10.,-11.));
#892 = DIRECTION('',(0.,1.,0.));
#893 = DIRECTION('',(0.,0.,1.));
#894 = ADVANCED_FACE('',(#895),#906,.T.);
#895 = FACE_BOUND('',#896,.T.);
#896 = EDGE_LOOP('',(#897,#898,#899,#900));
#897 = ORIENTED_EDGE('',*,*,#810,.F.);
#898 = ORIENTED_EDGE('',*,*,#633,.T.);
#899 = ORIENTED_EDGE('',*,*,#876,.T.);
#900 = ORIENTED_EDGE('',*,*,#901,.F.);
#901 = EDGE_CURVE('',#811,#877,#902,.T.);
#902 = LINE('',#903,#904);
#903 = CARTESIAN_POINT('',(12.,-10.,11.));
#904 = VECTOR('',#905,1.);
#905 = DIRECTION('',(0.,1.,0.));
#906 = PLANE('',#907);
#907 = AXIS2_PLACEMENT_3D('',#908,#909,#910);
#908 = CARTESIAN_POINT('',(12.,-10.,-11.));
#909 = DIRECTION('',(1.,0.,0.));
#910 = DIRECTION('',(0.,0.,1.));
#911 = ADVANCED_FACE('',(#912,#915),#926,.T.);
#912 = FACE_BOUND('',#913,.T.);
#913 = EDGE_LOOP('',(#914));
#914 = ORIENTED_EDGE('',*,*,#676,.T.);
#915 = FACE_BOUND('',#916,.T.);
#916 = EDGE_LOOP('',(#917));
#917 = ORIENTED_EDGE('',*,*,#918,.F.);
#918 = EDGE_CURVE('',#919,#919,#921,.T.);
#919 = VERTEX_POINT('',#920);
#920 = CARTESIAN_POINT('',(42.9,1.598164072887E-15,6.525));
#921 = CIRCLE('',#922,6.525);
#922 = AXIS2_PLACEMENT_3D('',#923,#924,#925);
#923 = CARTESIAN_POINT('',(42.9,0.,0.));
#924 = DIRECTION('',(1.,0.,-0.));
#925 = DIRECTION('',(0.,0.,1.));
#926 = PLANE('',#927);
#927 = AXIS2_PLACEMENT_3D('',#928,#929,#930);
#928 = CARTESIAN_POINT('',(42.9,0.,0.));
#929 = DIRECTION('',(1.,0.,0.));
#930 = DIRECTION('',(0.,0.,1.));
#931 = ADVANCED_FACE('',(#932),#943,.F.);
#932 = FACE_BOUND('',#933,.F.);
#933 = EDGE_LOOP('',(#934,#940,#941,#942));
#934 = ORIENTED_EDGE('',*,*,#935,.F.);
#935 = EDGE_CURVE('',#734,#767,#936,.T.);
#936 = LINE('',#937,#938);
#937 = CARTESIAN_POINT('',(-1.,6.490628035481E-16,2.65));
#938 = VECTOR('',#939,1.);
#939 = DIRECTION('',(1.,0.,0.));
#940 = ORIENTED_EDGE('',*,*,#733,.T.);
#941 = ORIENTED_EDGE('',*,*,#935,.T.);
#942 = ORIENTED_EDGE('',*,*,#766,.F.);
#943 = CYLINDRICAL_SURFACE('',#944,2.65);
#944 = AXIS2_PLACEMENT_3D('',#945,#946,#947);
#945 = CARTESIAN_POINT('',(-1.,0.,0.));
#946 = DIRECTION('',(1.,0.,0.));
#947 = DIRECTION('',(0.,0.,1.));
#948 = ADVANCED_FACE('',(#949,#965),#976,.F.);
#949 = FACE_BOUND('',#950,.F.);
#950 = EDGE_LOOP('',(#951,#952,#958,#959));
#951 = ORIENTED_EDGE('',*,*,#783,.F.);
#952 = ORIENTED_EDGE('',*,*,#953,.T.);
#953 = EDGE_CURVE('',#784,#857,#954,.T.);
#954 = LINE('',#955,#956);
#955 = CARTESIAN_POINT('',(36.,-10.,-11.));
#956 = VECTOR('',#957,1.);
#957 = DIRECTION('',(0.,1.,0.));
#958 = ORIENTED_EDGE('',*,*,#856,.T.);
#959 = ORIENTED_EDGE('',*,*,#960,.F.);
#960 = EDGE_CURVE('',#786,#859,#961,.T.);
#961 = LINE('',#962,#963);
#962 = CARTESIAN_POINT('',(36.,-10.,11.));
#963 = VECTOR('',#964,1.);
#964 = DIRECTION('',(0.,1.,0.));
#965 = FACE_BOUND('',#966,.F.);
#966 = EDGE_LOOP('',(#967));
#967 = ORIENTED_EDGE('',*,*,#968,.F.);
#968 = EDGE_CURVE('',#969,#969,#971,.T.);
#969 = VERTEX_POINT('',#970);
#970 = CARTESIAN_POINT('',(36.,6.490628035481E-16,2.65));
#971 = CIRCLE('',#972,2.65);
#972 = AXIS2_PLACEMENT_3D('',#973,#974,#975);
#973 = CARTESIAN_POINT('',(36.,0.,0.));
#974 = DIRECTION('',(1.,0.,-0.));
#975 = DIRECTION('',(0.,0.,1.));
#976 = PLANE('',#977);
#977 = AXIS2_PLACEMENT_3D('',#978,#979,#980);
#978 = CARTESIAN_POINT('',(36.,-10.,-11.));
#979 = DIRECTION('',(1.,0.,0.));
#980 = DIRECTION('',(0.,0.,1.));
#981 = ADVANCED_FACE('',(#982),#988,.F.);
#982 = FACE_BOUND('',#983,.F.);
#983 = EDGE_LOOP('',(#984,#985,#986,#987));
#984 = ORIENTED_EDGE('',*,*,#901,.F.);
#985 = ORIENTED_EDGE('',*,*,#818,.T.);
#986 = ORIENTED_EDGE('',*,*,#960,.T.);
#987 = ORIENTED_EDGE('',*,*,#884,.F.);
#988 = PLANE('',#989);
#989 = AXIS2_PLACEMENT_3D('',#990,#991,#992);
#990 = CARTESIAN_POINT('',(12.,-10.,11.));
#991 = DIRECTION('',(0.,0.,1.));
#992 = DIRECTION('',(1.,0.,0.));
#993 = ADVANCED_FACE('',(#994),#1000,.T.);
#994 = FACE_BOUND('',#995,.T.);
#995 = EDGE_LOOP('',(#996,#997,#998,#999));
#996 = ORIENTED_EDGE('',*,*,#834,.F.);
#997 = ORIENTED_EDGE('',*,*,#793,.T.);
#998 = ORIENTED_EDGE('',*,*,#953,.T.);
#999 = ORIENTED_EDGE('',*,*,#866,.F.);
#1000 = PLANE('',#1001);
#1001 = AXIS2_PLACEMENT_3D('',#1002,#1003,#1004);
#1002 = CARTESIAN_POINT('',(12.,-10.,-11.));
#1003 = DIRECTION('',(0.,0.,1.));
#1004 = DIRECTION('',(1.,0.,0.));
#1005 = ADVANCED_FACE('',(#1006),#1025,.F.);
#1006 = FACE_BOUND('',#1007,.F.);
#1007 = EDGE_LOOP('',(#1008,#1009,#1017,#1024));
#1008 = ORIENTED_EDGE('',*,*,#918,.F.);
#1009 = ORIENTED_EDGE('',*,*,#1010,.F.);
#1010 = EDGE_CURVE('',#1011,#919,#1013,.T.);
#1011 = VERTEX_POINT('',#1012);
#1012 = CARTESIAN_POINT('',(39.9,1.598164072887E-15,6.525));
#1013 = LINE('',#1014,#1015);
#1014 = CARTESIAN_POINT('',(39.9,1.598164072887E-15,6.525));
#1015 = VECTOR('',#1016,1.);
#1016 = DIRECTION('',(1.,0.,0.));
#1017 = ORIENTED_EDGE('',*,*,#1018,.T.);
#1018 = EDGE_CURVE('',#1011,#1011,#1019,.T.);
#1019 = CIRCLE('',#1020,6.525);
#1020 = AXIS2_PLACEMENT_3D('',#1021,#1022,#1023);
#1021 = CARTESIAN_POINT('',(39.9,0.,0.));
#1022 = DIRECTION('',(1.,0.,-0.));
#1023 = DIRECTION('',(0.,0.,1.));
#1024 = ORIENTED_EDGE('',*,*,#1010,.T.);
#1025 = CYLINDRICAL_SURFACE('',#1026,6.525);
#1026 = AXIS2_PLACEMENT_3D('',#1027,#1028,#1029);
#1027 = CARTESIAN_POINT('',(39.9,0.,0.));
#1028 = DIRECTION('',(1.,0.,0.));
#1029 = DIRECTION('',(0.,0.,1.));
#1030 = ADVANCED_FACE('',(#1031),#1050,.F.);
#1031 = FACE_BOUND('',#1032,.F.);
#1032 = EDGE_LOOP('',(#1033,#1034,#1042,#1049));
#1033 = ORIENTED_EDGE('',*,*,#968,.T.);
#1034 = ORIENTED_EDGE('',*,*,#1035,.T.);
#1035 = EDGE_CURVE('',#969,#1036,#1038,.T.);
#1036 = VERTEX_POINT('',#1037);
#1037 = CARTESIAN_POINT('',(39.9,6.490628035481E-16,2.65));
#1038 = LINE('',#1039,#1040);
#1039 = CARTESIAN_POINT('',(-1.,6.490628035481E-16,2.65));
#1040 = VECTOR('',#1041,1.);
#1041 = DIRECTION('',(1.,0.,0.));
#1042 = ORIENTED_EDGE('',*,*,#1043,.F.);
#1043 = EDGE_CURVE('',#1036,#1036,#1044,.T.);
#1044 = CIRCLE('',#1045,2.65);
#1045 = AXIS2_PLACEMENT_3D('',#1046,#1047,#1048);
#1046 = CARTESIAN_POINT('',(39.9,0.,0.));
#1047 = DIRECTION('',(1.,0.,-0.));
#1048 = DIRECTION('',(0.,0.,1.));
#1049 = ORIENTED_EDGE('',*,*,#1035,.F.);
#1050 = CYLINDRICAL_SURFACE('',#1051,2.65);
#1051 = AXIS2_PLACEMENT_3D('',#1052,#1053,#1054);
#1052 = CARTESIAN_POINT('',(-1.,0.,0.));
#1053 = DIRECTION('',(1.,0.,0.));
#1054 = DIRECTION('',(0.,0.,1.));
#1055 = ADVANCED_FACE('',(#1056,#1059),#1062,.T.);
#1056 = FACE_BOUND('',#1057,.T.);
#1057 = EDGE_LOOP('',(#1058));
#1058 = ORIENTED_EDGE('',*,*,#1018,.T.);
#1059 = FACE_BOUND('',#1060,.T.);
#1060 = EDGE_LOOP('',(#1061));
#1061 = ORIENTED_EDGE('',*,*,#1043,.F.);
#1062 = PLANE('',#1063);
#1063 = AXIS2_PLACEMENT_3D('',#1064,#1065,#1066);
#1064 = CARTESIAN_POINT('',(39.9,0.,0.));
#1065 = DIRECTION('',(1.,0.,0.));
#1066 = DIRECTION('',(0.,0.,1.));
#1067 = ( GEOMETRIC_REPRESENTATION_CONTEXT(3) 
GLOBAL_UNCERTAINTY_ASSIGNED_CONTEXT((#1071)) 
GLOBAL_UNIT_ASSIGNED_CONTEXT((#1068,#1069,#1070)) REPRESENTATION_CONTEXT
('Context #1','3D Context with UNIT and UNCERTAINTY') );
#1068 = ( LENGTH_UNIT() NAMED_UNIT(*) SI_UNIT(.MILLI.,.METRE.) );
#1069 = ( NAMED_UNIT(*) PLANE_ANGLE_UNIT() SI_UNIT($,.RADIAN.) );
#1070 = ( NAMED_UNIT(*) SI_UNIT($,.STERADIAN.) SOLID_ANGLE_UNIT() );
#1071 = UNCERTAINTY_MEASURE_WITH_UNIT(LENGTH_MEASURE(1.E-07),#1068,
  'distance_accuracy_value','confusion accuracy');
#1072 = PRODUCT_RELATED_PRODUCT_CATEGORY('part',$,(#7));
ENDSEC;
END-ISO-10303-21;
