ISO-10303-21;
HEADER;
FILE_DESCRIPTION(('FreeCAD Model'),'2;1');
FILE_NAME('Open CASCADE Shape Model','2026-07-20T21:53:42',('FreeCAD'),(
    'FreeCAD'),'Open CASCADE STEP processor 7.8','FreeCAD','Unknown');
FILE_SCHEMA(('AUTOMOTIVE_DESIGN { 1 0 10303 214 1 1 1 1 }'));
ENDSEC;
DATA;
#1 = APPLICATION_PROTOCOL_DEFINITION('international standard',
  'automotive_design',2000,#2);
#2 = APPLICATION_CONTEXT(
  'core data for automotive mechanical design processes');
#3 = SHAPE_DEFINITION_REPRESENTATION(#4,#10);
#4 = PRODUCT_DEFINITION_SHAPE('','',#5);
#5 = PRODUCT_DEFINITION('design','',#6,#9);
#6 = PRODUCT_DEFINITION_FORMATION('','',#7);
#7 = PRODUCT('Open CASCADE STEP translator 7.8 37',
  'Open CASCADE STEP translator 7.8 37','',(#8));
#8 = PRODUCT_CONTEXT('',#2,'mechanical');
#9 = PRODUCT_DEFINITION_CONTEXT('part definition',#2,'design');
#10 = ADVANCED_BREP_SHAPE_REPRESENTATION('',(#11,#15),#886);
#11 = AXIS2_PLACEMENT_3D('',#12,#13,#14);
#12 = CARTESIAN_POINT('',(0.,0.,0.));
#13 = DIRECTION('',(0.,0.,1.));
#14 = DIRECTION('',(1.,0.,-0.));
#15 = MANIFOLD_SOLID_BREP('',#16);
#16 = CLOSED_SHELL('',(#17,#287,#318,#343,#403,#437,#468,#510,#561,#592,
    #609,#640,#671,#754,#799,#858,#872));
#17 = ADVANCED_FACE('',(#18,#54,#168),#282,.T.);
#18 = FACE_BOUND('',#19,.T.);
#19 = EDGE_LOOP('',(#20,#31,#39,#48));
#20 = ORIENTED_EDGE('',*,*,#21,.F.);
#21 = EDGE_CURVE('',#22,#24,#26,.T.);
#22 = VERTEX_POINT('',#23);
#23 = CARTESIAN_POINT('',(190.39230484541,6.,6.));
#24 = VERTEX_POINT('',#25);
#25 = CARTESIAN_POINT('',(190.39230484541,-6.,6.));
#26 = CIRCLE('',#27,12.);
#27 = AXIS2_PLACEMENT_3D('',#28,#29,#30);
#28 = CARTESIAN_POINT('',(180.,0.,6.));
#29 = DIRECTION('',(0.,0.,1.));
#30 = DIRECTION('',(1.,0.,0.));
#31 = ORIENTED_EDGE('',*,*,#32,.F.);
#32 = EDGE_CURVE('',#33,#22,#35,.T.);
#33 = VERTEX_POINT('',#34);
#34 = CARTESIAN_POINT('',(190.39230484541,6.,0.));
#35 = LINE('',#36,#37);
#36 = CARTESIAN_POINT('',(190.39230484541,6.,0.));
#37 = VECTOR('',#38,1.);
#38 = DIRECTION('',(0.,0.,1.));
#39 = ORIENTED_EDGE('',*,*,#40,.T.);
#40 = EDGE_CURVE('',#33,#41,#43,.T.);
#41 = VERTEX_POINT('',#42);
#42 = CARTESIAN_POINT('',(190.39230484541,-6.,0.));
#43 = CIRCLE('',#44,12.);
#44 = AXIS2_PLACEMENT_3D('',#45,#46,#47);
#45 = CARTESIAN_POINT('',(180.,0.,0.));
#46 = DIRECTION('',(0.,0.,1.));
#47 = DIRECTION('',(1.,0.,0.));
#48 = ORIENTED_EDGE('',*,*,#49,.T.);
#49 = EDGE_CURVE('',#41,#24,#50,.T.);
#50 = LINE('',#51,#52);
#51 = CARTESIAN_POINT('',(190.39230484541,-6.,0.));
#52 = VECTOR('',#53,1.);
#53 = DIRECTION('',(0.,0.,1.));
#54 = FACE_BOUND('',#55,.T.);
#55 = EDGE_LOOP('',(#56));
#56 = ORIENTED_EDGE('',*,*,#57,.F.);
#57 = EDGE_CURVE('',#58,#58,#60,.T.);
#58 = VERTEX_POINT('',#59);
#59 = CARTESIAN_POINT('',(187.,9.746794344809,4.65));
#60 = B_SPLINE_CURVE_WITH_KNOTS('',6,(#61,#62,#63,#64,#65,#66,#67,#68,
    #69,#70,#71,#72,#73,#74,#75,#76,#77,#78,#79,#80,#81,#82,#83,#84,#85,
    #86,#87,#88,#89,#90,#91,#92,#93,#94,#95,#96,#97,#98,#99,#100,#101,
    #102,#103,#104,#105,#106,#107,#108,#109,#110,#111,#112,#113,#114,
    #115,#116,#117,#118,#119,#120,#121,#122,#123,#124,#125,#126,#127,
    #128,#129,#130,#131,#132,#133,#134,#135,#136,#137,#138,#139,#140,
    #141,#142,#143,#144,#145,#146,#147,#148,#149,#150,#151,#152,#153,
    #154,#155,#156,#157,#158,#159,#160,#161,#162,#163,#164,#165,#166,
    #167),.UNSPECIFIED.,.T.,.F.,(7,5,5,5,5,5,5,5,5,5,5,5,5,5,5,5,5,5,5,5
    ,5,7),(0.,9.516804290471E-02,0.159454593827,0.18737269597,
    0.212619964804,0.227444865446,0.258511302947,0.303444220037,
    0.329419164062,0.35813886783,0.42303926811,0.483311692213,
    0.555490961805,0.591374573729,0.639796550008,0.695370296925,
    0.758533709277,0.82120519572,0.850017750515,0.876172919327,
    0.925816394835,1.),.UNSPECIFIED.);
#61 = CARTESIAN_POINT('',(187.,9.746794344809,4.65));
#62 = CARTESIAN_POINT('',(187.16509074508,9.628228673398,4.65));
#63 = CARTESIAN_POINT('',(187.32654154873,9.50719075661,4.630178569333)
  );
#64 = CARTESIAN_POINT('',(187.48224553176,9.38533631289,4.592171987229)
  );
#65 = CARTESIAN_POINT('',(187.63053168748,9.264437804176,4.537469703977)
  );
#66 = CARTESIAN_POINT('',(187.76997433623,9.146419612451,4.467451631779)
  );
#67 = CARTESIAN_POINT('',(187.98658176728,8.957006727876,4.326651812479)
  );
#68 = CARTESIAN_POINT('',(188.06942282223,8.882778636022,4.263393038607)
  );
#69 = CARTESIAN_POINT('',(188.1474192257,8.811274951827,4.19394859164));
#70 = CARTESIAN_POINT('',(188.22019577205,8.743148759682,4.118582378792)
  );
#71 = CARTESIAN_POINT('',(188.28733314948,8.67913143516,4.037534062062)
  );
#72 = CARTESIAN_POINT('',(188.37483656352,8.594386127686,3.913475433189)
  );
#73 = CARTESIAN_POINT('',(188.40017289713,8.569658848702,3.874888428696)
  );
#74 = CARTESIAN_POINT('',(188.42430211001,8.545940100963,3.835310272603)
  );
#75 = CARTESIAN_POINT('',(188.44717573038,8.523306117151,3.794775030462)
  );
#76 = CARTESIAN_POINT('',(188.46874562725,8.501833083363,3.753317959764)
  );
#77 = CARTESIAN_POINT('',(188.50724816711,8.4632971013,3.672683823475));
#78 = CARTESIAN_POINT('',(188.52442750497,8.44600798953,3.633666629188)
  );
#79 = CARTESIAN_POINT('',(188.54045907376,8.429793841656,3.593966656246)
  );
#80 = CARTESIAN_POINT('',(188.55530296186,8.414714647963,3.553627790959)
  );
#81 = CARTESIAN_POINT('',(188.56892229626,8.400826351164,3.512695076782)
  );
#82 = CARTESIAN_POINT('',(188.5885414454,8.380755554071,3.446857931154)
  );
#83 = CARTESIAN_POINT('',(188.59536497611,8.373759504468,3.422314965216)
  );
#84 = CARTESIAN_POINT('',(188.60174642025,8.367203720998,3.397597208501)
  );
#85 = CARTESIAN_POINT('',(188.60767885708,8.361098456844,3.372716971572)
  );
#86 = CARTESIAN_POINT('',(188.61315585949,8.355453194964,3.347687483553)
  );
#87 = CARTESIAN_POINT('',(188.6286820465,8.33942889446,3.269789034038));
#88 = CARTESIAN_POINT('',(188.63716926916,8.330636557092,3.216448838113)
  );
#89 = CARTESIAN_POINT('',(188.643574096,8.323984264396,3.162650059972));
#90 = CARTESIAN_POINT('',(188.64785757784,8.319529325013,3.108542033053)
  );
#91 = CARTESIAN_POINT('',(188.65,8.317301244995,3.05427509266));
#92 = CARTESIAN_POINT('',(188.65,8.317301244995,2.92149926304));
#93 = CARTESIAN_POINT('',(188.64551800632,8.321962193665,2.843046641951)
  );
#94 = CARTESIAN_POINT('',(188.63656562036,8.331273613269,2.765075962261)
  );
#95 = CARTESIAN_POINT('',(188.62322446285,8.345109757641,2.68801832327)
  );
#96 = CARTESIAN_POINT('',(188.60565356957,8.363233724162,2.612298604338)
  );
#97 = CARTESIAN_POINT('',(188.57163518325,8.398058604151,2.495573136884)
  );
#98 = CARTESIAN_POINT('',(188.55783731004,8.412138274453,2.45338474517)
  );
#99 = CARTESIAN_POINT('',(188.54273960716,8.427484697135,2.411817646568)
  );
#100 = CARTESIAN_POINT('',(188.52638200746,8.444037329443,2.370921411265
    ));
#101 = CARTESIAN_POINT('',(188.50880793705,8.461730965373,2.330744329101
    ));
#102 = CARTESIAN_POINT('',(188.46934006404,8.501243370152,2.247757957281
    ));
#103 = CARTESIAN_POINT('',(188.44718533839,8.52330160709,2.205117071367)
  );
#104 = CARTESIAN_POINT('',(188.42365204726,8.546587714401,2.163450338428
    ));
#105 = CARTESIAN_POINT('',(188.39879245831,8.571018935945,2.122796006993
    ));
#106 = CARTESIAN_POINT('',(188.37265919799,8.596512491523,2.08319098752)
  );
#107 = CARTESIAN_POINT('',(188.28349117117,8.682809099098,1.957623569166
    ));
#108 = CARTESIAN_POINT('',(188.21545641657,8.74762348602,1.876133456248)
  );
#109 = CARTESIAN_POINT('',(188.14170162812,8.816586275467,1.800439381989
    ));
#110 = CARTESIAN_POINT('',(188.06265426267,8.888950614341,1.730786082244
    ));
#111 = CARTESIAN_POINT('',(187.97869601838,8.964050912387,1.667444735543
    ));
#112 = CARTESIAN_POINT('',(187.80799574916,9.113018352382,1.558066354105
    ));
#113 = CARTESIAN_POINT('',(187.72183619936,9.186628902074,1.511089580023
    ));
#114 = CARTESIAN_POINT('',(187.63201362172,9.261627061925,1.47008366175)
  );
#115 = CARTESIAN_POINT('',(187.5388438654,9.337545503299,1.435363627898)
  );
#116 = CARTESIAN_POINT('',(187.44266665959,9.413943011323,1.407281216635
    ));
#117 = CARTESIAN_POINT('',(187.22552449219,9.581971747756,1.36101351821)
  );
#118 = CARTESIAN_POINT('',(187.10320571547,9.67379367843,1.345835307986)
  );
#119 = CARTESIAN_POINT('',(186.97804513224,9.764749201766,1.341545731266
    ));
#120 = CARTESIAN_POINT('',(186.85131926819,9.853803850378,1.34879358936)
  );
#121 = CARTESIAN_POINT('',(186.72442293601,9.940057705751,1.368031277192
    ));
#122 = CARTESIAN_POINT('',(186.53639187707,10.063854610854,
    1.415162168897));
#123 = CARTESIAN_POINT('',(186.47434211194,10.104038205748,
    1.433821912415));
#124 = CARTESIAN_POINT('',(186.4129254942,10.14316373065,1.455493712604)
  );
#125 = CARTESIAN_POINT('',(186.35238383158,10.181115964899,
    1.480148471655));
#126 = CARTESIAN_POINT('',(186.29295278219,10.21779663932,1.507725329335
    ));
#127 = CARTESIAN_POINT('',(186.15646571007,10.300793556504,
    1.579162602722));
#128 = CARTESIAN_POINT('',(186.08054743934,10.345973769057,
    1.625324971498));
#129 = CARTESIAN_POINT('',(186.00763955497,10.388475361443,
    1.676388444634));
#130 = CARTESIAN_POINT('',(185.93823778367,10.428165095414,
    1.732031294175));
#131 = CARTESIAN_POINT('',(185.87278156651,10.464956800153,
    1.791841675183));
#132 = CARTESIAN_POINT('',(185.74146294095,10.537648539789,
    1.928171442781));
#133 = CARTESIAN_POINT('',(185.67698647187,10.572604171335,
    2.005835067971));
#134 = CARTESIAN_POINT('',(185.61858153901,10.603700215102,
    2.087726920915));
#135 = CARTESIAN_POINT('',(185.56655206545,10.630988474253,2.17322390898
    ));
#136 = CARTESIAN_POINT('',(185.52112108342,10.654534946554,
    2.261664654105));
#137 = CARTESIAN_POINT('',(185.43843189655,10.697004430849,
    2.455423328743));
#138 = CARTESIAN_POINT('',(185.40311241938,10.714869720299,
    2.561453288357));
#139 = CARTESIAN_POINT('',(185.37656391506,10.728161190671,
    2.669672400358));
#140 = CARTESIAN_POINT('',(185.35885094388,10.73698344929,2.779328041479
    ));
#141 = CARTESIAN_POINT('',(185.35,10.741391902356,2.889680573892));
#142 = CARTESIAN_POINT('',(185.35,10.741391902356,3.109460242257));
#143 = CARTESIAN_POINT('',(185.35871362181,10.737051848146,
    3.218952340895));
#144 = CARTESIAN_POINT('',(185.37615145287,10.728366622586,
    3.327763674283));
#145 = CARTESIAN_POINT('',(185.40228792907,10.715282481518,
    3.435172306616));
#146 = CARTESIAN_POINT('',(185.43706084829,10.697697856477,
    3.540443732269));
#147 = CARTESIAN_POINT('',(185.50028221577,10.665242448782,
    3.689897532593));
#148 = CARTESIAN_POINT('',(185.52199528846,10.654039544643,
    3.736350577219));
#149 = CARTESIAN_POINT('',(185.54549327938,10.641844559934,
    3.782099466621));
#150 = CARTESIAN_POINT('',(185.57075463807,10.628646517377,
    3.827058055135));
#151 = CARTESIAN_POINT('',(185.59775308617,10.614434347456,
    3.871141338836));
#152 = CARTESIAN_POINT('',(185.65251472566,10.585364782385,3.9534122289)
  );
#153 = CARTESIAN_POINT('',(185.67997804516,10.570687761757,
    3.991768921723));
#154 = CARTESIAN_POINT('',(185.70881708246,10.555161234262,
    4.029261965762));
#155 = CARTESIAN_POINT('',(185.73899674391,10.5387821197,4.065821007528)
  );
#156 = CARTESIAN_POINT('',(185.77047733564,10.52154884995,4.101378908299
    ));
#157 = CARTESIAN_POINT('',(185.86535103006,10.469130662665,
    4.201340419252));
#158 = CARTESIAN_POINT('',(185.93204441618,10.431706469486,4.26300300282
    ));
#159 = CARTESIAN_POINT('',(186.00290731352,10.391236083943,
    4.320318385726));
#160 = CARTESIAN_POINT('',(186.07747198157,10.34780882515,4.372842011603
    ));
#161 = CARTESIAN_POINT('',(186.15520874414,10.301565236811,
    4.420227277833));
#162 = CARTESIAN_POINT('',(186.35559213569,10.179695020576,4.52498817699
    ));
#163 = CARTESIAN_POINT('',(186.48114596721,10.101024321845,
    4.575568587751));
#164 = CARTESIAN_POINT('',(186.61034206273,10.017356651387,
    4.613311186872));
#165 = CARTESIAN_POINT('',(186.74118478324,9.929599523902,4.638027851908
    ));
#166 = CARTESIAN_POINT('',(186.8716977528,9.838939074509,4.65));
#167 = CARTESIAN_POINT('',(187.,9.746794344809,4.65));
#168 = FACE_BOUND('',#169,.T.);
#169 = EDGE_LOOP('',(#170));
#170 = ORIENTED_EDGE('',*,*,#171,.T.);
#171 = EDGE_CURVE('',#172,#172,#174,.T.);
#172 = VERTEX_POINT('',#173);
#173 = CARTESIAN_POINT('',(187.,-9.746794344809,4.65));
#174 = B_SPLINE_CURVE_WITH_KNOTS('',6,(#175,#176,#177,#178,#179,#180,
    #181,#182,#183,#184,#185,#186,#187,#188,#189,#190,#191,#192,#193,
    #194,#195,#196,#197,#198,#199,#200,#201,#202,#203,#204,#205,#206,
    #207,#208,#209,#210,#211,#212,#213,#214,#215,#216,#217,#218,#219,
    #220,#221,#222,#223,#224,#225,#226,#227,#228,#229,#230,#231,#232,
    #233,#234,#235,#236,#237,#238,#239,#240,#241,#242,#243,#244,#245,
    #246,#247,#248,#249,#250,#251,#252,#253,#254,#255,#256,#257,#258,
    #259,#260,#261,#262,#263,#264,#265,#266,#267,#268,#269,#270,#271,
    #272,#273,#274,#275,#276,#277,#278,#279,#280,#281),.UNSPECIFIED.,.T.
  ,.F.,(7,5,5,5,5,5,5,5,5,5,5,5,5,5,5,5,5,5,5,5,5,7),(0.,
    9.516801718702E-02,0.159454552824,0.187372651409,0.212619920819,
    0.227444821983,0.258511260577,0.303444179248,0.329419124186,
    0.358138828965,0.423039231528,0.483311657752,0.555490929863,
    0.59137454303,0.639796520988,0.69537026983,0.758533684355,
    0.821205172939,0.850017730164,0.876172902533,0.925816384793,1.),
  .UNSPECIFIED.);
#175 = CARTESIAN_POINT('',(187.,-9.746794344809,4.65));
#176 = CARTESIAN_POINT('',(187.16509074508,-9.628228673398,4.65));
#177 = CARTESIAN_POINT('',(187.32654154873,-9.50719075661,4.630178569333
    ));
#178 = CARTESIAN_POINT('',(187.48224553176,-9.38533631289,4.592171987229
    ));
#179 = CARTESIAN_POINT('',(187.63053168748,-9.264437804176,
    4.537469703977));
#180 = CARTESIAN_POINT('',(187.76997433623,-9.146419612451,
    4.467451631779));
#181 = CARTESIAN_POINT('',(187.98658177011,-8.957006725397,
    4.326651810636));
#182 = CARTESIAN_POINT('',(188.06942281844,-8.882778639471,
    4.263393042097));
#183 = CARTESIAN_POINT('',(188.14741922521,-8.81127495218,4.193948591327
    ));
#184 = CARTESIAN_POINT('',(188.22019577561,-8.743148756406,
    4.118582375163));
#185 = CARTESIAN_POINT('',(188.28733314769,-8.679131436893,4.0375340646)
  );
#186 = CARTESIAN_POINT('',(188.37483656722,-8.594386124102,
    3.913475427943));
#187 = CARTESIAN_POINT('',(188.40017289663,-8.569658849234,
    3.874888430419));
#188 = CARTESIAN_POINT('',(188.42430210676,-8.54594010415,3.835310278159
    ));
#189 = CARTESIAN_POINT('',(188.44717572915,-8.52330611832,3.794775031715
    ));
#190 = CARTESIAN_POINT('',(188.46874563003,-8.501833080575,3.75331795393
    ));
#191 = CARTESIAN_POINT('',(188.50724816734,-8.463297101072,
    3.672683822998));
#192 = CARTESIAN_POINT('',(188.52442750495,-8.446007989553,
    3.633666629336));
#193 = CARTESIAN_POINT('',(188.54045907357,-8.429793841848,
    3.593966656742));
#194 = CARTESIAN_POINT('',(188.55530296178,-8.414714648043,
    3.553627791078));
#195 = CARTESIAN_POINT('',(188.56892229641,-8.400826351008,
    3.512695076268));
#196 = CARTESIAN_POINT('',(188.5885414454,-8.380755554071,3.446857931154
    ));
#197 = CARTESIAN_POINT('',(188.59536497611,-8.373759504468,
    3.422314965216));
#198 = CARTESIAN_POINT('',(188.60174642025,-8.367203720998,
    3.397597208501));
#199 = CARTESIAN_POINT('',(188.60767885708,-8.361098456844,
    3.372716971572));
#200 = CARTESIAN_POINT('',(188.61315585949,-8.355453194964,
    3.347687483553));
#201 = CARTESIAN_POINT('',(188.6286820465,-8.33942889446,3.269789034038)
  );
#202 = CARTESIAN_POINT('',(188.63716926916,-8.330636557092,
    3.216448838113));
#203 = CARTESIAN_POINT('',(188.643574096,-8.323984264396,3.162650059972)
  );
#204 = CARTESIAN_POINT('',(188.64785757784,-8.319529325013,
    3.108542033053));
#205 = CARTESIAN_POINT('',(188.65,-8.317301244995,3.05427509266));
#206 = CARTESIAN_POINT('',(188.65,-8.317301244995,2.92149926304));
#207 = CARTESIAN_POINT('',(188.64551800632,-8.321962193665,
    2.843046641951));
#208 = CARTESIAN_POINT('',(188.63656562036,-8.331273613269,
    2.765075962261));
#209 = CARTESIAN_POINT('',(188.62322446285,-8.345109757641,2.68801832327
    ));
#210 = CARTESIAN_POINT('',(188.60565356957,-8.363233724162,
    2.612298604338));
#211 = CARTESIAN_POINT('',(188.57163518325,-8.398058604151,
    2.495573136884));
#212 = CARTESIAN_POINT('',(188.55783731004,-8.412138274453,2.45338474517
    ));
#213 = CARTESIAN_POINT('',(188.54273960716,-8.427484697135,
    2.411817646568));
#214 = CARTESIAN_POINT('',(188.52638200746,-8.444037329443,
    2.370921411265));
#215 = CARTESIAN_POINT('',(188.50880793705,-8.461730965373,
    2.330744329101));
#216 = CARTESIAN_POINT('',(188.46934006404,-8.501243370152,
    2.247757957281));
#217 = CARTESIAN_POINT('',(188.44718533839,-8.52330160709,2.205117071367
    ));
#218 = CARTESIAN_POINT('',(188.42365204726,-8.546587714401,
    2.163450338428));
#219 = CARTESIAN_POINT('',(188.39879245831,-8.571018935945,
    2.122796006993));
#220 = CARTESIAN_POINT('',(188.37265919799,-8.596512491523,2.08319098752
    ));
#221 = CARTESIAN_POINT('',(188.28349117117,-8.682809099098,
    1.957623569166));
#222 = CARTESIAN_POINT('',(188.21545641657,-8.74762348602,1.876133456248
    ));
#223 = CARTESIAN_POINT('',(188.14170162812,-8.816586275467,
    1.800439381989));
#224 = CARTESIAN_POINT('',(188.06265426267,-8.888950614341,
    1.730786082244));
#225 = CARTESIAN_POINT('',(187.97869601838,-8.964050912387,
    1.667444735543));
#226 = CARTESIAN_POINT('',(187.80799574916,-9.113018352382,
    1.558066354105));
#227 = CARTESIAN_POINT('',(187.72183619936,-9.186628902074,
    1.511089580023));
#228 = CARTESIAN_POINT('',(187.63201362172,-9.261627061925,1.47008366175
    ));
#229 = CARTESIAN_POINT('',(187.5388438654,-9.337545503299,1.435363627898
    ));
#230 = CARTESIAN_POINT('',(187.44266665959,-9.413943011323,
    1.407281216635));
#231 = CARTESIAN_POINT('',(187.22552449222,-9.581971747731,
    1.361013518217));
#232 = CARTESIAN_POINT('',(187.10320571546,-9.673793678439,
    1.345835307978));
#233 = CARTESIAN_POINT('',(186.97804513221,-9.764749201789,
    1.341545731267));
#234 = CARTESIAN_POINT('',(186.85131926819,-9.853803850381,
    1.348793589368));
#235 = CARTESIAN_POINT('',(186.72442293604,-9.94005770573,1.368031277184
    ));
#236 = CARTESIAN_POINT('',(186.53639187707,-10.06385461085,
    1.415162168897));
#237 = CARTESIAN_POINT('',(186.47434211194,-10.10403820574,
    1.433821912415));
#238 = CARTESIAN_POINT('',(186.4129254942,-10.14316373065,1.455493712604
    ));
#239 = CARTESIAN_POINT('',(186.35238383158,-10.18111596489,
    1.480148471655));
#240 = CARTESIAN_POINT('',(186.29295278219,-10.21779663932,
    1.507725329335));
#241 = CARTESIAN_POINT('',(186.15646571007,-10.3007935565,1.579162602722
    ));
#242 = CARTESIAN_POINT('',(186.08054743934,-10.34597376905,
    1.625324971498));
#243 = CARTESIAN_POINT('',(186.00763955497,-10.38847536144,
    1.676388444634));
#244 = CARTESIAN_POINT('',(185.93823778367,-10.42816509541,
    1.732031294175));
#245 = CARTESIAN_POINT('',(185.87278156651,-10.46495680015,
    1.791841675183));
#246 = CARTESIAN_POINT('',(185.74146294095,-10.53764853978,
    1.928171442781));
#247 = CARTESIAN_POINT('',(185.67698647187,-10.57260417133,
    2.005835067971));
#248 = CARTESIAN_POINT('',(185.61858153901,-10.6037002151,2.087726920915
    ));
#249 = CARTESIAN_POINT('',(185.56655206545,-10.63098847425,2.17322390898
    ));
#250 = CARTESIAN_POINT('',(185.52112108342,-10.65453494655,
    2.261664654105));
#251 = CARTESIAN_POINT('',(185.43843189656,-10.69700443084,
    2.455423328716));
#252 = CARTESIAN_POINT('',(185.40311241938,-10.7148697203,2.561453288363
    ));
#253 = CARTESIAN_POINT('',(185.37656391506,-10.72816119067,
    2.669672400385));
#254 = CARTESIAN_POINT('',(185.35885094388,-10.73698344928,
    2.779328041488));
#255 = CARTESIAN_POINT('',(185.35,-10.74139190235,2.889680573865));
#256 = CARTESIAN_POINT('',(185.35,-10.74139190235,3.109460242256));
#257 = CARTESIAN_POINT('',(185.35871362181,-10.73705184814,
    3.218952340895));
#258 = CARTESIAN_POINT('',(185.37615145287,-10.72836662258,
    3.327763674283));
#259 = CARTESIAN_POINT('',(185.40228792907,-10.71528248151,
    3.435172306616));
#260 = CARTESIAN_POINT('',(185.43706084829,-10.69769785647,
    3.540443732269));
#261 = CARTESIAN_POINT('',(185.50028221677,-10.66524244826,
    3.689897534957));
#262 = CARTESIAN_POINT('',(185.52199528794,-10.65403954492,
    3.736350576658));
#263 = CARTESIAN_POINT('',(185.54549327814,-10.64184456058,3.78209946432
    ));
#264 = CARTESIAN_POINT('',(185.57075463793,-10.62864651744,
    3.827058054464));
#265 = CARTESIAN_POINT('',(185.59775308766,-10.61443434667,
    3.871141341063));
#266 = CARTESIAN_POINT('',(185.65251472566,-10.58536478238,3.9534122289)
  );
#267 = CARTESIAN_POINT('',(185.67997804516,-10.57068776175,
    3.991768921723));
#268 = CARTESIAN_POINT('',(185.70881708246,-10.55516123426,
    4.029261965762));
#269 = CARTESIAN_POINT('',(185.73899674391,-10.5387821197,4.065821007528
    ));
#270 = CARTESIAN_POINT('',(185.77047733564,-10.52154884995,
    4.101378908299));
#271 = CARTESIAN_POINT('',(185.86535103006,-10.46913066266,
    4.201340419252));
#272 = CARTESIAN_POINT('',(185.93204441618,-10.43170646948,4.26300300282
    ));
#273 = CARTESIAN_POINT('',(186.00290731352,-10.39123608394,
    4.320318385726));
#274 = CARTESIAN_POINT('',(186.07747198157,-10.34780882515,
    4.372842011603));
#275 = CARTESIAN_POINT('',(186.15520874414,-10.30156523681,
    4.420227277833));
#276 = CARTESIAN_POINT('',(186.35559213562,-10.17969502062,
    4.524988176951));
#277 = CARTESIAN_POINT('',(186.48114596723,-10.10102432183,
    4.575568587779));
#278 = CARTESIAN_POINT('',(186.61034206282,-10.01735665133,
    4.613311186893));
#279 = CARTESIAN_POINT('',(186.74118478327,-9.929599523878,
    4.638027851891));
#280 = CARTESIAN_POINT('',(186.87169775271,-9.838939074574,4.65));
#281 = CARTESIAN_POINT('',(187.,-9.746794344809,4.65));
#282 = CYLINDRICAL_SURFACE('',#283,12.);
#283 = AXIS2_PLACEMENT_3D('',#284,#285,#286);
#284 = CARTESIAN_POINT('',(180.,0.,0.));
#285 = DIRECTION('',(0.,0.,1.));
#286 = DIRECTION('',(1.,0.,0.));
#287 = ADVANCED_FACE('',(#288),#313,.T.);
#288 = FACE_BOUND('',#289,.T.);
#289 = EDGE_LOOP('',(#290,#298,#299,#307));
#290 = ORIENTED_EDGE('',*,*,#291,.F.);
#291 = EDGE_CURVE('',#33,#292,#294,.T.);
#292 = VERTEX_POINT('',#293);
#293 = CARTESIAN_POINT('',(211.,6.,0.));
#294 = LINE('',#295,#296);
#295 = CARTESIAN_POINT('',(180.,6.,0.));
#296 = VECTOR('',#297,1.);
#297 = DIRECTION('',(1.,0.,0.));
#298 = ORIENTED_EDGE('',*,*,#32,.T.);
#299 = ORIENTED_EDGE('',*,*,#300,.T.);
#300 = EDGE_CURVE('',#22,#301,#303,.T.);
#301 = VERTEX_POINT('',#302);
#302 = CARTESIAN_POINT('',(211.,6.,6.));
#303 = LINE('',#304,#305);
#304 = CARTESIAN_POINT('',(180.,6.,6.));
#305 = VECTOR('',#306,1.);
#306 = DIRECTION('',(1.,0.,0.));
#307 = ORIENTED_EDGE('',*,*,#308,.F.);
#308 = EDGE_CURVE('',#292,#301,#309,.T.);
#309 = LINE('',#310,#311);
#310 = CARTESIAN_POINT('',(211.,6.,0.));
#311 = VECTOR('',#312,1.);
#312 = DIRECTION('',(0.,0.,1.));
#313 = PLANE('',#314);
#314 = AXIS2_PLACEMENT_3D('',#315,#316,#317);
#315 = CARTESIAN_POINT('',(180.,6.,0.));
#316 = DIRECTION('',(0.,1.,0.));
#317 = DIRECTION('',(0.,0.,1.));
#318 = ADVANCED_FACE('',(#319),#338,.F.);
#319 = FACE_BOUND('',#320,.F.);
#320 = EDGE_LOOP('',(#321,#322,#330,#337));
#321 = ORIENTED_EDGE('',*,*,#57,.F.);
#322 = ORIENTED_EDGE('',*,*,#323,.F.);
#323 = EDGE_CURVE('',#324,#58,#326,.T.);
#324 = VERTEX_POINT('',#325);
#325 = CARTESIAN_POINT('',(187.,0.6,4.65));
#326 = LINE('',#327,#328);
#327 = CARTESIAN_POINT('',(187.,-12.,4.65));
#328 = VECTOR('',#329,1.);
#329 = DIRECTION('',(0.,1.,0.));
#330 = ORIENTED_EDGE('',*,*,#331,.T.);
#331 = EDGE_CURVE('',#324,#324,#332,.T.);
#332 = CIRCLE('',#333,1.65);
#333 = AXIS2_PLACEMENT_3D('',#334,#335,#336);
#334 = CARTESIAN_POINT('',(187.,0.6,3.));
#335 = DIRECTION('',(0.,1.,0.));
#336 = DIRECTION('',(0.,0.,1.));
#337 = ORIENTED_EDGE('',*,*,#323,.T.);
#338 = CYLINDRICAL_SURFACE('',#339,1.65);
#339 = AXIS2_PLACEMENT_3D('',#340,#341,#342);
#340 = CARTESIAN_POINT('',(187.,-12.,3.));
#341 = DIRECTION('',(0.,1.,0.));
#342 = DIRECTION('',(0.,0.,1.));
#343 = ADVANCED_FACE('',(#344),#398,.F.);
#344 = FACE_BOUND('',#345,.F.);
#345 = EDGE_LOOP('',(#346,#357,#365,#374,#383,#391));
#346 = ORIENTED_EDGE('',*,*,#347,.F.);
#347 = EDGE_CURVE('',#348,#350,#352,.T.);
#348 = VERTEX_POINT('',#349);
#349 = CARTESIAN_POINT('',(192.1,2.1,6.));
#350 = VERTEX_POINT('',#351);
#351 = CARTESIAN_POINT('',(191.81818181818,2.081004207684,6.));
#352 = CIRCLE('',#353,2.1);
#353 = AXIS2_PLACEMENT_3D('',#354,#355,#356);
#354 = CARTESIAN_POINT('',(192.1,0.,6.));
#355 = DIRECTION('',(0.,0.,1.));
#356 = DIRECTION('',(1.,0.,0.));
#357 = ORIENTED_EDGE('',*,*,#358,.F.);
#358 = EDGE_CURVE('',#359,#348,#361,.T.);
#359 = VERTEX_POINT('',#360);
#360 = CARTESIAN_POINT('',(192.1,2.1,0.));
#361 = LINE('',#362,#363);
#362 = CARTESIAN_POINT('',(192.1,2.1,-1.));
#363 = VECTOR('',#364,1.);
#364 = DIRECTION('',(0.,0.,1.));
#365 = ORIENTED_EDGE('',*,*,#366,.T.);
#366 = EDGE_CURVE('',#359,#367,#369,.T.);
#367 = VERTEX_POINT('',#368);
#368 = CARTESIAN_POINT('',(191.81818181818,2.081004207684,0.));
#369 = CIRCLE('',#370,2.1);
#370 = AXIS2_PLACEMENT_3D('',#371,#372,#373);
#371 = CARTESIAN_POINT('',(192.1,0.,0.));
#372 = DIRECTION('',(0.,0.,1.));
#373 = DIRECTION('',(1.,0.,0.));
#374 = ORIENTED_EDGE('',*,*,#375,.T.);
#375 = EDGE_CURVE('',#367,#376,#378,.T.);
#376 = VERTEX_POINT('',#377);
#377 = CARTESIAN_POINT('',(190.08753882025,0.6,0.));
#378 = CIRCLE('',#379,2.1);
#379 = AXIS2_PLACEMENT_3D('',#380,#381,#382);
#380 = CARTESIAN_POINT('',(192.1,0.,0.));
#381 = DIRECTION('',(0.,0.,1.));
#382 = DIRECTION('',(1.,0.,0.));
#383 = ORIENTED_EDGE('',*,*,#384,.T.);
#384 = EDGE_CURVE('',#376,#385,#387,.T.);
#385 = VERTEX_POINT('',#386);
#386 = CARTESIAN_POINT('',(190.08753882025,0.6,6.));
#387 = LINE('',#388,#389);
#388 = CARTESIAN_POINT('',(190.08753882025,0.6,-1.));
#389 = VECTOR('',#390,1.);
#390 = DIRECTION('',(0.,0.,1.));
#391 = ORIENTED_EDGE('',*,*,#392,.F.);
#392 = EDGE_CURVE('',#350,#385,#393,.T.);
#393 = CIRCLE('',#394,2.1);
#394 = AXIS2_PLACEMENT_3D('',#395,#396,#397);
#395 = CARTESIAN_POINT('',(192.1,0.,6.));
#396 = DIRECTION('',(0.,0.,1.));
#397 = DIRECTION('',(1.,0.,0.));
#398 = CYLINDRICAL_SURFACE('',#399,2.1);
#399 = AXIS2_PLACEMENT_3D('',#400,#401,#402);
#400 = CARTESIAN_POINT('',(192.1,0.,-1.));
#401 = DIRECTION('',(0.,0.,1.));
#402 = DIRECTION('',(1.,0.,0.));
#403 = ADVANCED_FACE('',(#404,#429),#432,.F.);
#404 = FACE_BOUND('',#405,.F.);
#405 = EDGE_LOOP('',(#406,#407,#415,#423));
#406 = ORIENTED_EDGE('',*,*,#384,.F.);
#407 = ORIENTED_EDGE('',*,*,#408,.T.);
#408 = EDGE_CURVE('',#376,#409,#411,.T.);
#409 = VERTEX_POINT('',#410);
#410 = CARTESIAN_POINT('',(184.,0.6,0.));
#411 = LINE('',#412,#413);
#412 = CARTESIAN_POINT('',(182.,0.6,0.));
#413 = VECTOR('',#414,1.);
#414 = DIRECTION('',(-1.,0.,0.));
#415 = ORIENTED_EDGE('',*,*,#416,.T.);
#416 = EDGE_CURVE('',#409,#417,#419,.T.);
#417 = VERTEX_POINT('',#418);
#418 = CARTESIAN_POINT('',(184.,0.6,6.));
#419 = LINE('',#420,#421);
#420 = CARTESIAN_POINT('',(184.,0.6,-1.));
#421 = VECTOR('',#422,1.);
#422 = DIRECTION('',(0.,0.,1.));
#423 = ORIENTED_EDGE('',*,*,#424,.F.);
#424 = EDGE_CURVE('',#385,#417,#425,.T.);
#425 = LINE('',#426,#427);
#426 = CARTESIAN_POINT('',(182.,0.6,6.));
#427 = VECTOR('',#428,1.);
#428 = DIRECTION('',(-1.,0.,0.));
#429 = FACE_BOUND('',#430,.F.);
#430 = EDGE_LOOP('',(#431));
#431 = ORIENTED_EDGE('',*,*,#331,.F.);
#432 = PLANE('',#433);
#433 = AXIS2_PLACEMENT_3D('',#434,#435,#436);
#434 = CARTESIAN_POINT('',(184.,0.6,-1.));
#435 = DIRECTION('',(0.,1.,0.));
#436 = DIRECTION('',(0.,0.,1.));
#437 = ADVANCED_FACE('',(#438),#463,.T.);
#438 = FACE_BOUND('',#439,.T.);
#439 = EDGE_LOOP('',(#440,#450,#456,#457));
#440 = ORIENTED_EDGE('',*,*,#441,.F.);
#441 = EDGE_CURVE('',#442,#444,#446,.T.);
#442 = VERTEX_POINT('',#443);
#443 = CARTESIAN_POINT('',(184.,-0.6,0.));
#444 = VERTEX_POINT('',#445);
#445 = CARTESIAN_POINT('',(184.,-0.6,6.));
#446 = LINE('',#447,#448);
#447 = CARTESIAN_POINT('',(184.,-0.6,-1.));
#448 = VECTOR('',#449,1.);
#449 = DIRECTION('',(0.,0.,1.));
#450 = ORIENTED_EDGE('',*,*,#451,.T.);
#451 = EDGE_CURVE('',#442,#409,#452,.T.);
#452 = LINE('',#453,#454);
#453 = CARTESIAN_POINT('',(184.,-0.3,0.));
#454 = VECTOR('',#455,1.);
#455 = DIRECTION('',(0.,1.,0.));
#456 = ORIENTED_EDGE('',*,*,#416,.T.);
#457 = ORIENTED_EDGE('',*,*,#458,.F.);
#458 = EDGE_CURVE('',#444,#417,#459,.T.);
#459 = LINE('',#460,#461);
#460 = CARTESIAN_POINT('',(184.,-0.3,6.));
#461 = VECTOR('',#462,1.);
#462 = DIRECTION('',(0.,1.,0.));
#463 = PLANE('',#464);
#464 = AXIS2_PLACEMENT_3D('',#465,#466,#467);
#465 = CARTESIAN_POINT('',(184.,-0.6,-1.));
#466 = DIRECTION('',(1.,0.,0.));
#467 = DIRECTION('',(0.,0.,1.));
#468 = ADVANCED_FACE('',(#469,#494),#505,.T.);
#469 = FACE_BOUND('',#470,.T.);
#470 = EDGE_LOOP('',(#471,#481,#487,#488));
#471 = ORIENTED_EDGE('',*,*,#472,.F.);
#472 = EDGE_CURVE('',#473,#475,#477,.T.);
#473 = VERTEX_POINT('',#474);
#474 = CARTESIAN_POINT('',(190.08753882025,-0.6,0.));
#475 = VERTEX_POINT('',#476);
#476 = CARTESIAN_POINT('',(190.08753882025,-0.6,6.));
#477 = LINE('',#478,#479);
#478 = CARTESIAN_POINT('',(190.08753882025,-0.6,-1.));
#479 = VECTOR('',#480,1.);
#480 = DIRECTION('',(0.,0.,1.));
#481 = ORIENTED_EDGE('',*,*,#482,.T.);
#482 = EDGE_CURVE('',#473,#442,#483,.T.);
#483 = LINE('',#484,#485);
#484 = CARTESIAN_POINT('',(182.,-0.6,0.));
#485 = VECTOR('',#486,1.);
#486 = DIRECTION('',(-1.,0.,0.));
#487 = ORIENTED_EDGE('',*,*,#441,.T.);
#488 = ORIENTED_EDGE('',*,*,#489,.F.);
#489 = EDGE_CURVE('',#475,#444,#490,.T.);
#490 = LINE('',#491,#492);
#491 = CARTESIAN_POINT('',(182.,-0.6,6.));
#492 = VECTOR('',#493,1.);
#493 = DIRECTION('',(-1.,0.,0.));
#494 = FACE_BOUND('',#495,.T.);
#495 = EDGE_LOOP('',(#496));
#496 = ORIENTED_EDGE('',*,*,#497,.F.);
#497 = EDGE_CURVE('',#498,#498,#500,.T.);
#498 = VERTEX_POINT('',#499);
#499 = CARTESIAN_POINT('',(187.,-0.6,4.65));
#500 = CIRCLE('',#501,1.65);
#501 = AXIS2_PLACEMENT_3D('',#502,#503,#504);
#502 = CARTESIAN_POINT('',(187.,-0.6,3.));
#503 = DIRECTION('',(0.,1.,0.));
#504 = DIRECTION('',(0.,0.,1.));
#505 = PLANE('',#506);
#506 = AXIS2_PLACEMENT_3D('',#507,#508,#509);
#507 = CARTESIAN_POINT('',(184.,-0.6,-1.));
#508 = DIRECTION('',(0.,1.,0.));
#509 = DIRECTION('',(0.,0.,1.));
#510 = ADVANCED_FACE('',(#511),#556,.F.);
#511 = FACE_BOUND('',#512,.F.);
#512 = EDGE_LOOP('',(#513,#523,#532,#539,#540,#549));
#513 = ORIENTED_EDGE('',*,*,#514,.T.);
#514 = EDGE_CURVE('',#515,#517,#519,.T.);
#515 = VERTEX_POINT('',#516);
#516 = CARTESIAN_POINT('',(192.1,-2.1,0.));
#517 = VERTEX_POINT('',#518);
#518 = CARTESIAN_POINT('',(192.1,-2.1,6.));
#519 = LINE('',#520,#521);
#520 = CARTESIAN_POINT('',(192.1,-2.1,-1.));
#521 = VECTOR('',#522,1.);
#522 = DIRECTION('',(0.,0.,1.));
#523 = ORIENTED_EDGE('',*,*,#524,.F.);
#524 = EDGE_CURVE('',#525,#517,#527,.T.);
#525 = VERTEX_POINT('',#526);
#526 = CARTESIAN_POINT('',(191.81818181818,-2.081004207684,6.));
#527 = CIRCLE('',#528,2.1);
#528 = AXIS2_PLACEMENT_3D('',#529,#530,#531);
#529 = CARTESIAN_POINT('',(192.1,0.,6.));
#530 = DIRECTION('',(0.,0.,1.));
#531 = DIRECTION('',(1.,0.,0.));
#532 = ORIENTED_EDGE('',*,*,#533,.F.);
#533 = EDGE_CURVE('',#475,#525,#534,.T.);
#534 = CIRCLE('',#535,2.1);
#535 = AXIS2_PLACEMENT_3D('',#536,#537,#538);
#536 = CARTESIAN_POINT('',(192.1,0.,6.));
#537 = DIRECTION('',(0.,0.,1.));
#538 = DIRECTION('',(1.,0.,0.));
#539 = ORIENTED_EDGE('',*,*,#472,.F.);
#540 = ORIENTED_EDGE('',*,*,#541,.T.);
#541 = EDGE_CURVE('',#473,#542,#544,.T.);
#542 = VERTEX_POINT('',#543);
#543 = CARTESIAN_POINT('',(191.81818181818,-2.081004207684,0.));
#544 = CIRCLE('',#545,2.1);
#545 = AXIS2_PLACEMENT_3D('',#546,#547,#548);
#546 = CARTESIAN_POINT('',(192.1,0.,0.));
#547 = DIRECTION('',(0.,0.,1.));
#548 = DIRECTION('',(1.,0.,0.));
#549 = ORIENTED_EDGE('',*,*,#550,.T.);
#550 = EDGE_CURVE('',#542,#515,#551,.T.);
#551 = CIRCLE('',#552,2.1);
#552 = AXIS2_PLACEMENT_3D('',#553,#554,#555);
#553 = CARTESIAN_POINT('',(192.1,0.,0.));
#554 = DIRECTION('',(0.,0.,1.));
#555 = DIRECTION('',(1.,0.,0.));
#556 = CYLINDRICAL_SURFACE('',#557,2.1);
#557 = AXIS2_PLACEMENT_3D('',#558,#559,#560);
#558 = CARTESIAN_POINT('',(192.1,0.,-1.));
#559 = DIRECTION('',(0.,0.,1.));
#560 = DIRECTION('',(1.,0.,0.));
#561 = ADVANCED_FACE('',(#562),#587,.F.);
#562 = FACE_BOUND('',#563,.F.);
#563 = EDGE_LOOP('',(#564,#572,#573,#581));
#564 = ORIENTED_EDGE('',*,*,#565,.T.);
#565 = EDGE_CURVE('',#566,#359,#568,.T.);
#566 = VERTEX_POINT('',#567);
#567 = CARTESIAN_POINT('',(205.9,2.1,0.));
#568 = LINE('',#569,#570);
#569 = CARTESIAN_POINT('',(186.05,2.1,0.));
#570 = VECTOR('',#571,1.);
#571 = DIRECTION('',(-1.,0.,0.));
#572 = ORIENTED_EDGE('',*,*,#358,.T.);
#573 = ORIENTED_EDGE('',*,*,#574,.F.);
#574 = EDGE_CURVE('',#575,#348,#577,.T.);
#575 = VERTEX_POINT('',#576);
#576 = CARTESIAN_POINT('',(205.9,2.1,6.));
#577 = LINE('',#578,#579);
#578 = CARTESIAN_POINT('',(186.05,2.1,6.));
#579 = VECTOR('',#580,1.);
#580 = DIRECTION('',(-1.,0.,0.));
#581 = ORIENTED_EDGE('',*,*,#582,.F.);
#582 = EDGE_CURVE('',#566,#575,#583,.T.);
#583 = LINE('',#584,#585);
#584 = CARTESIAN_POINT('',(205.9,2.1,-1.));
#585 = VECTOR('',#586,1.);
#586 = DIRECTION('',(0.,0.,1.));
#587 = PLANE('',#588);
#588 = AXIS2_PLACEMENT_3D('',#589,#590,#591);
#589 = CARTESIAN_POINT('',(192.1,2.1,-1.));
#590 = DIRECTION('',(0.,1.,0.));
#591 = DIRECTION('',(0.,0.,1.));
#592 = ADVANCED_FACE('',(#593),#604,.F.);
#593 = FACE_BOUND('',#594,.F.);
#594 = EDGE_LOOP('',(#595,#596,#602,#603));
#595 = ORIENTED_EDGE('',*,*,#497,.F.);
#596 = ORIENTED_EDGE('',*,*,#597,.F.);
#597 = EDGE_CURVE('',#172,#498,#598,.T.);
#598 = LINE('',#599,#600);
#599 = CARTESIAN_POINT('',(187.,-12.,4.65));
#600 = VECTOR('',#601,1.);
#601 = DIRECTION('',(0.,1.,0.));
#602 = ORIENTED_EDGE('',*,*,#171,.T.);
#603 = ORIENTED_EDGE('',*,*,#597,.T.);
#604 = CYLINDRICAL_SURFACE('',#605,1.65);
#605 = AXIS2_PLACEMENT_3D('',#606,#607,#608);
#606 = CARTESIAN_POINT('',(187.,-12.,3.));
#607 = DIRECTION('',(0.,1.,0.));
#608 = DIRECTION('',(0.,0.,1.));
#609 = ADVANCED_FACE('',(#610),#635,.T.);
#610 = FACE_BOUND('',#611,.T.);
#611 = EDGE_LOOP('',(#612,#620,#621,#629));
#612 = ORIENTED_EDGE('',*,*,#613,.T.);
#613 = EDGE_CURVE('',#614,#515,#616,.T.);
#614 = VERTEX_POINT('',#615);
#615 = CARTESIAN_POINT('',(205.9,-2.1,0.));
#616 = LINE('',#617,#618);
#617 = CARTESIAN_POINT('',(186.05,-2.1,0.));
#618 = VECTOR('',#619,1.);
#619 = DIRECTION('',(-1.,0.,0.));
#620 = ORIENTED_EDGE('',*,*,#514,.T.);
#621 = ORIENTED_EDGE('',*,*,#622,.F.);
#622 = EDGE_CURVE('',#623,#517,#625,.T.);
#623 = VERTEX_POINT('',#624);
#624 = CARTESIAN_POINT('',(205.9,-2.1,6.));
#625 = LINE('',#626,#627);
#626 = CARTESIAN_POINT('',(186.05,-2.1,6.));
#627 = VECTOR('',#628,1.);
#628 = DIRECTION('',(-1.,0.,0.));
#629 = ORIENTED_EDGE('',*,*,#630,.F.);
#630 = EDGE_CURVE('',#614,#623,#631,.T.);
#631 = LINE('',#632,#633);
#632 = CARTESIAN_POINT('',(205.9,-2.1,-1.));
#633 = VECTOR('',#634,1.);
#634 = DIRECTION('',(0.,0.,1.));
#635 = PLANE('',#636);
#636 = AXIS2_PLACEMENT_3D('',#637,#638,#639);
#637 = CARTESIAN_POINT('',(192.1,-2.1,-1.));
#638 = DIRECTION('',(0.,1.,0.));
#639 = DIRECTION('',(0.,0.,1.));
#640 = ADVANCED_FACE('',(#641),#666,.F.);
#641 = FACE_BOUND('',#642,.F.);
#642 = EDGE_LOOP('',(#643,#651,#652,#660));
#643 = ORIENTED_EDGE('',*,*,#644,.F.);
#644 = EDGE_CURVE('',#41,#645,#647,.T.);
#645 = VERTEX_POINT('',#646);
#646 = CARTESIAN_POINT('',(211.,-6.,0.));
#647 = LINE('',#648,#649);
#648 = CARTESIAN_POINT('',(180.,-6.,0.));
#649 = VECTOR('',#650,1.);
#650 = DIRECTION('',(1.,0.,0.));
#651 = ORIENTED_EDGE('',*,*,#49,.T.);
#652 = ORIENTED_EDGE('',*,*,#653,.T.);
#653 = EDGE_CURVE('',#24,#654,#656,.T.);
#654 = VERTEX_POINT('',#655);
#655 = CARTESIAN_POINT('',(211.,-6.,6.));
#656 = LINE('',#657,#658);
#657 = CARTESIAN_POINT('',(180.,-6.,6.));
#658 = VECTOR('',#659,1.);
#659 = DIRECTION('',(1.,0.,0.));
#660 = ORIENTED_EDGE('',*,*,#661,.F.);
#661 = EDGE_CURVE('',#645,#654,#662,.T.);
#662 = LINE('',#663,#664);
#663 = CARTESIAN_POINT('',(211.,-6.,0.));
#664 = VECTOR('',#665,1.);
#665 = DIRECTION('',(0.,0.,1.));
#666 = PLANE('',#667);
#667 = AXIS2_PLACEMENT_3D('',#668,#669,#670);
#668 = CARTESIAN_POINT('',(180.,-6.,0.));
#669 = DIRECTION('',(0.,1.,0.));
#670 = DIRECTION('',(0.,0.,1.));
#671 = ADVANCED_FACE('',(#672,#693,#720),#749,.T.);
#672 = FACE_BOUND('',#673,.T.);
#673 = EDGE_LOOP('',(#674,#675,#676,#685,#692));
#674 = ORIENTED_EDGE('',*,*,#40,.F.);
#675 = ORIENTED_EDGE('',*,*,#291,.T.);
#676 = ORIENTED_EDGE('',*,*,#677,.F.);
#677 = EDGE_CURVE('',#678,#292,#680,.T.);
#678 = VERTEX_POINT('',#679);
#679 = CARTESIAN_POINT('',(217.,-1.469576158977E-15,0.));
#680 = CIRCLE('',#681,6.);
#681 = AXIS2_PLACEMENT_3D('',#682,#683,#684);
#682 = CARTESIAN_POINT('',(211.,0.,0.));
#683 = DIRECTION('',(0.,0.,1.));
#684 = DIRECTION('',(1.,0.,0.));
#685 = ORIENTED_EDGE('',*,*,#686,.F.);
#686 = EDGE_CURVE('',#645,#678,#687,.T.);
#687 = CIRCLE('',#688,6.);
#688 = AXIS2_PLACEMENT_3D('',#689,#690,#691);
#689 = CARTESIAN_POINT('',(211.,0.,0.));
#690 = DIRECTION('',(0.,0.,1.));
#691 = DIRECTION('',(1.,0.,0.));
#692 = ORIENTED_EDGE('',*,*,#644,.F.);
#693 = FACE_BOUND('',#694,.T.);
#694 = EDGE_LOOP('',(#695,#696,#697,#698,#699,#700,#701,#702,#711,#718,
    #719));
#695 = ORIENTED_EDGE('',*,*,#375,.T.);
#696 = ORIENTED_EDGE('',*,*,#408,.T.);
#697 = ORIENTED_EDGE('',*,*,#451,.F.);
#698 = ORIENTED_EDGE('',*,*,#482,.F.);
#699 = ORIENTED_EDGE('',*,*,#541,.T.);
#700 = ORIENTED_EDGE('',*,*,#550,.T.);
#701 = ORIENTED_EDGE('',*,*,#613,.F.);
#702 = ORIENTED_EDGE('',*,*,#703,.T.);
#703 = EDGE_CURVE('',#614,#704,#706,.T.);
#704 = VERTEX_POINT('',#705);
#705 = CARTESIAN_POINT('',(208.,-5.143516556419E-16,0.));
#706 = CIRCLE('',#707,2.1);
#707 = AXIS2_PLACEMENT_3D('',#708,#709,#710);
#708 = CARTESIAN_POINT('',(205.9,0.,0.));
#709 = DIRECTION('',(0.,0.,1.));
#710 = DIRECTION('',(1.,0.,0.));
#711 = ORIENTED_EDGE('',*,*,#712,.T.);
#712 = EDGE_CURVE('',#704,#566,#713,.T.);
#713 = CIRCLE('',#714,2.1);
#714 = AXIS2_PLACEMENT_3D('',#715,#716,#717);
#715 = CARTESIAN_POINT('',(205.9,0.,0.));
#716 = DIRECTION('',(0.,0.,1.));
#717 = DIRECTION('',(1.,0.,0.));
#718 = ORIENTED_EDGE('',*,*,#565,.T.);
#719 = ORIENTED_EDGE('',*,*,#366,.T.);
#720 = FACE_BOUND('',#721,.T.);
#721 = EDGE_LOOP('',(#722,#733,#742));
#722 = ORIENTED_EDGE('',*,*,#723,.T.);
#723 = EDGE_CURVE('',#724,#726,#728,.T.);
#724 = VERTEX_POINT('',#725);
#725 = CARTESIAN_POINT('',(180.,-2.6,0.));
#726 = VERTEX_POINT('',#727);
#727 = CARTESIAN_POINT('',(182.6,-6.368163355566E-16,0.));
#728 = CIRCLE('',#729,2.6);
#729 = AXIS2_PLACEMENT_3D('',#730,#731,#732);
#730 = CARTESIAN_POINT('',(180.,0.,0.));
#731 = DIRECTION('',(0.,0.,1.));
#732 = DIRECTION('',(1.,0.,0.));
#733 = ORIENTED_EDGE('',*,*,#734,.T.);
#734 = EDGE_CURVE('',#726,#735,#737,.T.);
#735 = VERTEX_POINT('',#736);
#736 = CARTESIAN_POINT('',(180.,2.6,0.));
#737 = CIRCLE('',#738,2.6);
#738 = AXIS2_PLACEMENT_3D('',#739,#740,#741);
#739 = CARTESIAN_POINT('',(180.,0.,0.));
#740 = DIRECTION('',(0.,0.,1.));
#741 = DIRECTION('',(1.,0.,0.));
#742 = ORIENTED_EDGE('',*,*,#743,.T.);
#743 = EDGE_CURVE('',#735,#724,#744,.T.);
#744 = CIRCLE('',#745,2.6);
#745 = AXIS2_PLACEMENT_3D('',#746,#747,#748);
#746 = CARTESIAN_POINT('',(180.,0.,0.));
#747 = DIRECTION('',(0.,0.,1.));
#748 = DIRECTION('',(1.,0.,0.));
#749 = PLANE('',#750);
#750 = AXIS2_PLACEMENT_3D('',#751,#752,#753);
#751 = CARTESIAN_POINT('',(192.24001113061,2.471333478948E-16,0.));
#752 = DIRECTION('',(-0.,-0.,-1.));
#753 = DIRECTION('',(-1.,0.,0.));
#754 = ADVANCED_FACE('',(#755),#794,.F.);
#755 = FACE_BOUND('',#756,.F.);
#756 = EDGE_LOOP('',(#757,#768,#774,#775,#776,#777,#778,#787));
#757 = ORIENTED_EDGE('',*,*,#758,.F.);
#758 = EDGE_CURVE('',#759,#761,#763,.T.);
#759 = VERTEX_POINT('',#760);
#760 = CARTESIAN_POINT('',(182.6,-6.368163355566E-16,6.));
#761 = VERTEX_POINT('',#762);
#762 = CARTESIAN_POINT('',(180.,2.6,6.));
#763 = CIRCLE('',#764,2.6);
#764 = AXIS2_PLACEMENT_3D('',#765,#766,#767);
#765 = CARTESIAN_POINT('',(180.,0.,6.));
#766 = DIRECTION('',(0.,0.,1.));
#767 = DIRECTION('',(1.,0.,0.));
#768 = ORIENTED_EDGE('',*,*,#769,.F.);
#769 = EDGE_CURVE('',#726,#759,#770,.T.);
#770 = LINE('',#771,#772);
#771 = CARTESIAN_POINT('',(182.6,-6.368163355566E-16,-1.));
#772 = VECTOR('',#773,1.);
#773 = DIRECTION('',(0.,0.,1.));
#774 = ORIENTED_EDGE('',*,*,#734,.T.);
#775 = ORIENTED_EDGE('',*,*,#743,.T.);
#776 = ORIENTED_EDGE('',*,*,#723,.T.);
#777 = ORIENTED_EDGE('',*,*,#769,.T.);
#778 = ORIENTED_EDGE('',*,*,#779,.F.);
#779 = EDGE_CURVE('',#780,#759,#782,.T.);
#780 = VERTEX_POINT('',#781);
#781 = CARTESIAN_POINT('',(180.,-2.6,6.));
#782 = CIRCLE('',#783,2.6);
#783 = AXIS2_PLACEMENT_3D('',#784,#785,#786);
#784 = CARTESIAN_POINT('',(180.,0.,6.));
#785 = DIRECTION('',(0.,0.,1.));
#786 = DIRECTION('',(1.,0.,0.));
#787 = ORIENTED_EDGE('',*,*,#788,.F.);
#788 = EDGE_CURVE('',#761,#780,#789,.T.);
#789 = CIRCLE('',#790,2.6);
#790 = AXIS2_PLACEMENT_3D('',#791,#792,#793);
#791 = CARTESIAN_POINT('',(180.,0.,6.));
#792 = DIRECTION('',(0.,0.,1.));
#793 = DIRECTION('',(1.,0.,0.));
#794 = CYLINDRICAL_SURFACE('',#795,2.6);
#795 = AXIS2_PLACEMENT_3D('',#796,#797,#798);
#796 = CARTESIAN_POINT('',(180.,0.,-1.));
#797 = DIRECTION('',(0.,0.,1.));
#798 = DIRECTION('',(1.,0.,0.));
#799 = ADVANCED_FACE('',(#800,#821,#848),#853,.T.);
#800 = FACE_BOUND('',#801,.T.);
#801 = EDGE_LOOP('',(#802,#803,#804,#813,#820));
#802 = ORIENTED_EDGE('',*,*,#21,.T.);
#803 = ORIENTED_EDGE('',*,*,#653,.T.);
#804 = ORIENTED_EDGE('',*,*,#805,.T.);
#805 = EDGE_CURVE('',#654,#806,#808,.T.);
#806 = VERTEX_POINT('',#807);
#807 = CARTESIAN_POINT('',(217.,-1.469576158977E-15,6.));
#808 = CIRCLE('',#809,6.);
#809 = AXIS2_PLACEMENT_3D('',#810,#811,#812);
#810 = CARTESIAN_POINT('',(211.,0.,6.));
#811 = DIRECTION('',(0.,0.,1.));
#812 = DIRECTION('',(1.,0.,0.));
#813 = ORIENTED_EDGE('',*,*,#814,.T.);
#814 = EDGE_CURVE('',#806,#301,#815,.T.);
#815 = CIRCLE('',#816,6.);
#816 = AXIS2_PLACEMENT_3D('',#817,#818,#819);
#817 = CARTESIAN_POINT('',(211.,0.,6.));
#818 = DIRECTION('',(0.,0.,1.));
#819 = DIRECTION('',(1.,0.,0.));
#820 = ORIENTED_EDGE('',*,*,#300,.F.);
#821 = FACE_BOUND('',#822,.T.);
#822 = EDGE_LOOP('',(#823,#824,#825,#826,#835,#842,#843,#844,#845,#846,
    #847));
#823 = ORIENTED_EDGE('',*,*,#392,.F.);
#824 = ORIENTED_EDGE('',*,*,#347,.F.);
#825 = ORIENTED_EDGE('',*,*,#574,.F.);
#826 = ORIENTED_EDGE('',*,*,#827,.F.);
#827 = EDGE_CURVE('',#828,#575,#830,.T.);
#828 = VERTEX_POINT('',#829);
#829 = CARTESIAN_POINT('',(208.,-5.143516556419E-16,6.));
#830 = CIRCLE('',#831,2.1);
#831 = AXIS2_PLACEMENT_3D('',#832,#833,#834);
#832 = CARTESIAN_POINT('',(205.9,0.,6.));
#833 = DIRECTION('',(0.,0.,1.));
#834 = DIRECTION('',(1.,0.,0.));
#835 = ORIENTED_EDGE('',*,*,#836,.F.);
#836 = EDGE_CURVE('',#623,#828,#837,.T.);
#837 = CIRCLE('',#838,2.1);
#838 = AXIS2_PLACEMENT_3D('',#839,#840,#841);
#839 = CARTESIAN_POINT('',(205.9,0.,6.));
#840 = DIRECTION('',(0.,0.,1.));
#841 = DIRECTION('',(1.,0.,0.));
#842 = ORIENTED_EDGE('',*,*,#622,.T.);
#843 = ORIENTED_EDGE('',*,*,#524,.F.);
#844 = ORIENTED_EDGE('',*,*,#533,.F.);
#845 = ORIENTED_EDGE('',*,*,#489,.T.);
#846 = ORIENTED_EDGE('',*,*,#458,.T.);
#847 = ORIENTED_EDGE('',*,*,#424,.F.);
#848 = FACE_BOUND('',#849,.T.);
#849 = EDGE_LOOP('',(#850,#851,#852));
#850 = ORIENTED_EDGE('',*,*,#779,.F.);
#851 = ORIENTED_EDGE('',*,*,#788,.F.);
#852 = ORIENTED_EDGE('',*,*,#758,.F.);
#853 = PLANE('',#854);
#854 = AXIS2_PLACEMENT_3D('',#855,#856,#857);
#855 = CARTESIAN_POINT('',(192.24001113061,2.471333478948E-16,6.));
#856 = DIRECTION('',(0.,0.,1.));
#857 = DIRECTION('',(1.,0.,0.));
#858 = ADVANCED_FACE('',(#859),#867,.T.);
#859 = FACE_BOUND('',#860,.T.);
#860 = EDGE_LOOP('',(#861,#862,#863,#864,#865,#866));
#861 = ORIENTED_EDGE('',*,*,#805,.F.);
#862 = ORIENTED_EDGE('',*,*,#661,.F.);
#863 = ORIENTED_EDGE('',*,*,#686,.T.);
#864 = ORIENTED_EDGE('',*,*,#677,.T.);
#865 = ORIENTED_EDGE('',*,*,#308,.T.);
#866 = ORIENTED_EDGE('',*,*,#814,.F.);
#867 = CYLINDRICAL_SURFACE('',#868,6.);
#868 = AXIS2_PLACEMENT_3D('',#869,#870,#871);
#869 = CARTESIAN_POINT('',(211.,0.,0.));
#870 = DIRECTION('',(0.,0.,1.));
#871 = DIRECTION('',(1.,0.,0.));
#872 = ADVANCED_FACE('',(#873),#881,.F.);
#873 = FACE_BOUND('',#874,.F.);
#874 = EDGE_LOOP('',(#875,#876,#877,#878,#879,#880));
#875 = ORIENTED_EDGE('',*,*,#582,.T.);
#876 = ORIENTED_EDGE('',*,*,#827,.F.);
#877 = ORIENTED_EDGE('',*,*,#836,.F.);
#878 = ORIENTED_EDGE('',*,*,#630,.F.);
#879 = ORIENTED_EDGE('',*,*,#703,.T.);
#880 = ORIENTED_EDGE('',*,*,#712,.T.);
#881 = CYLINDRICAL_SURFACE('',#882,2.1);
#882 = AXIS2_PLACEMENT_3D('',#883,#884,#885);
#883 = CARTESIAN_POINT('',(205.9,0.,-1.));
#884 = DIRECTION('',(0.,0.,1.));
#885 = DIRECTION('',(1.,0.,0.));
#886 = ( GEOMETRIC_REPRESENTATION_CONTEXT(3) 
GLOBAL_UNCERTAINTY_ASSIGNED_CONTEXT((#890)) GLOBAL_UNIT_ASSIGNED_CONTEXT
((#887,#888,#889)) REPRESENTATION_CONTEXT('Context #1',
  '3D Context with UNIT and UNCERTAINTY') );
#887 = ( LENGTH_UNIT() NAMED_UNIT(*) SI_UNIT(.MILLI.,.METRE.) );
#888 = ( NAMED_UNIT(*) PLANE_ANGLE_UNIT() SI_UNIT($,.RADIAN.) );
#889 = ( NAMED_UNIT(*) SI_UNIT($,.STERADIAN.) SOLID_ANGLE_UNIT() );
#890 = UNCERTAINTY_MEASURE_WITH_UNIT(LENGTH_MEASURE(1.E-07),#887,
  'distance_accuracy_value','confusion accuracy');
#891 = PRODUCT_RELATED_PRODUCT_CATEGORY('part',$,(#7));
ENDSEC;
END-ISO-10303-21;
