ISO-10303-21;
HEADER;
FILE_DESCRIPTION(('FreeCAD Model'),'2;1');
FILE_NAME('Open CASCADE Shape Model','2026-07-20T21:53:42',('FreeCAD'),(
    'FreeCAD'),'Open CASCADE STEP processor 7.8','FreeCAD','Unknown');
FILE_SCHEMA(('AUTOMOTIVE_DESIGN { 1 0 10303 214 1 1 1 1 }'));
ENDSEC;
DATA;
#1 = APPLICATION_PROTOCOL_DEFINITION('international standard',
  'automotive_design',2000,#2);
#2 = APPLICATION_CONTEXT(
  'core data for automotive mechanical design processes');
#3 = SHAPE_DEFINITION_REPRESENTATION(#4,#10);
#4 = PRODUCT_DEFINITION_SHAPE('','',#5);
#5 = PRODUCT_DEFINITION('design','',#6,#9);
#6 = PRODUCT_DEFINITION_FORMATION('','',#7);
#7 = PRODUCT('Open CASCADE STEP translator 7.8 35',
  'Open CASCADE STEP translator 7.8 35','',(#8));
#8 = PRODUCT_CONTEXT('',#2,'mechanical');
#9 = PRODUCT_DEFINITION_CONTEXT('part definition',#2,'design');
#10 = ADVANCED_BREP_SHAPE_REPRESENTATION('',(#11,#15),#888);
#11 = AXIS2_PLACEMENT_3D('',#12,#13,#14);
#12 = CARTESIAN_POINT('',(0.,0.,0.));
#13 = DIRECTION('',(0.,0.,1.));
#14 = DIRECTION('',(1.,0.,-0.));
#15 = MANIFOLD_SOLID_BREP('',#16);
#16 = CLOSED_SHELL('',(#17,#287,#318,#349,#374,#417,#448,#490,#512,#529,
    #654,#685,#710,#734,#779,#856,#874));
#17 = ADVANCED_FACE('',(#18,#54,#168),#282,.T.);
#18 = FACE_BOUND('',#19,.T.);
#19 = EDGE_LOOP('',(#20,#31,#39,#48));
#20 = ORIENTED_EDGE('',*,*,#21,.F.);
#21 = EDGE_CURVE('',#22,#24,#26,.T.);
#22 = VERTEX_POINT('',#23);
#23 = CARTESIAN_POINT('',(100.39230484541,6.,6.));
#24 = VERTEX_POINT('',#25);
#25 = CARTESIAN_POINT('',(100.39230484541,-6.,6.));
#26 = CIRCLE('',#27,12.);
#27 = AXIS2_PLACEMENT_3D('',#28,#29,#30);
#28 = CARTESIAN_POINT('',(90.,0.,6.));
#29 = DIRECTION('',(0.,0.,1.));
#30 = DIRECTION('',(1.,0.,0.));
#31 = ORIENTED_EDGE('',*,*,#32,.F.);
#32 = EDGE_CURVE('',#33,#22,#35,.T.);
#33 = VERTEX_POINT('',#34);
#34 = CARTESIAN_POINT('',(100.39230484541,6.,0.));
#35 = LINE('',#36,#37);
#36 = CARTESIAN_POINT('',(100.39230484541,6.,0.));
#37 = VECTOR('',#38,1.);
#38 = DIRECTION('',(0.,0.,1.));
#39 = ORIENTED_EDGE('',*,*,#40,.T.);
#40 = EDGE_CURVE('',#33,#41,#43,.T.);
#41 = VERTEX_POINT('',#42);
#42 = CARTESIAN_POINT('',(100.39230484541,-6.,0.));
#43 = CIRCLE('',#44,12.);
#44 = AXIS2_PLACEMENT_3D('',#45,#46,#47);
#45 = CARTESIAN_POINT('',(90.,0.,0.));
#46 = DIRECTION('',(0.,0.,1.));
#47 = DIRECTION('',(1.,0.,0.));
#48 = ORIENTED_EDGE('',*,*,#49,.T.);
#49 = EDGE_CURVE('',#41,#24,#50,.T.);
#50 = LINE('',#51,#52);
#51 = CARTESIAN_POINT('',(100.39230484541,-6.,0.));
#52 = VECTOR('',#53,1.);
#53 = DIRECTION('',(0.,0.,1.));
#54 = FACE_BOUND('',#55,.T.);
#55 = EDGE_LOOP('',(#56));
#56 = ORIENTED_EDGE('',*,*,#57,.F.);
#57 = EDGE_CURVE('',#58,#58,#60,.T.);
#58 = VERTEX_POINT('',#59);
#59 = CARTESIAN_POINT('',(97.,9.746794344809,4.65));
#60 = B_SPLINE_CURVE_WITH_KNOTS('',6,(#61,#62,#63,#64,#65,#66,#67,#68,
    #69,#70,#71,#72,#73,#74,#75,#76,#77,#78,#79,#80,#81,#82,#83,#84,#85,
    #86,#87,#88,#89,#90,#91,#92,#93,#94,#95,#96,#97,#98,#99,#100,#101,
    #102,#103,#104,#105,#106,#107,#108,#109,#110,#111,#112,#113,#114,
    #115,#116,#117,#118,#119,#120,#121,#122,#123,#124,#125,#126,#127,
    #128,#129,#130,#131,#132,#133,#134,#135,#136,#137,#138,#139,#140,
    #141,#142,#143,#144,#145,#146,#147,#148,#149,#150,#151,#152,#153,
    #154,#155,#156,#157,#158,#159,#160,#161,#162,#163,#164,#165,#166,
    #167),.UNSPECIFIED.,.T.,.F.,(7,5,5,5,5,5,5,5,5,5,5,5,5,5,5,5,5,5,5,5
    ,5,7),(0.,9.516804290471E-02,0.159454593827,0.18737269597,
    0.212619964804,0.227444865446,0.258511302947,0.303444220037,
    0.329419164062,0.35813886783,0.42303926811,0.483311692213,
    0.555490961805,0.591374573729,0.639796550008,0.695370296925,
    0.758533709277,0.82120519572,0.850017750515,0.876172919327,
    0.925816394835,1.),.UNSPECIFIED.);
#61 = CARTESIAN_POINT('',(97.,9.746794344809,4.65));
#62 = CARTESIAN_POINT('',(97.165090745085,9.628228673398,4.65));
#63 = CARTESIAN_POINT('',(97.326541548732,9.50719075661,4.630178569333)
  );
#64 = CARTESIAN_POINT('',(97.482245531768,9.38533631289,4.592171987229)
  );
#65 = CARTESIAN_POINT('',(97.630531687482,9.264437804176,4.537469703977)
  );
#66 = CARTESIAN_POINT('',(97.769974336234,9.146419612451,4.467451631779)
  );
#67 = CARTESIAN_POINT('',(97.986581767282,8.957006727876,4.326651812479)
  );
#68 = CARTESIAN_POINT('',(98.069422822237,8.882778636022,4.263393038607)
  );
#69 = CARTESIAN_POINT('',(98.147419225709,8.811274951827,4.19394859164)
  );
#70 = CARTESIAN_POINT('',(98.220195772059,8.743148759682,4.118582378792)
  );
#71 = CARTESIAN_POINT('',(98.287333149482,8.67913143516,4.037534062062)
  );
#72 = CARTESIAN_POINT('',(98.374836563528,8.594386127686,3.913475433189)
  );
#73 = CARTESIAN_POINT('',(98.40017289713,8.569658848702,3.874888428696)
  );
#74 = CARTESIAN_POINT('',(98.42430211001,8.545940100963,3.835310272603)
  );
#75 = CARTESIAN_POINT('',(98.447175730384,8.523306117151,3.794775030462)
  );
#76 = CARTESIAN_POINT('',(98.468745627252,8.501833083363,3.753317959764)
  );
#77 = CARTESIAN_POINT('',(98.507248167116,8.4632971013,3.672683823475));
#78 = CARTESIAN_POINT('',(98.524427504972,8.44600798953,3.633666629188)
  );
#79 = CARTESIAN_POINT('',(98.540459073761,8.429793841656,3.593966656246)
  );
#80 = CARTESIAN_POINT('',(98.555302961868,8.414714647963,3.553627790959)
  );
#81 = CARTESIAN_POINT('',(98.568922296261,8.400826351164,3.512695076782)
  );
#82 = CARTESIAN_POINT('',(98.588541445402,8.380755554071,3.446857931154)
  );
#83 = CARTESIAN_POINT('',(98.59536497611,8.373759504468,3.422314965216)
  );
#84 = CARTESIAN_POINT('',(98.601746420251,8.367203720998,3.397597208501)
  );
#85 = CARTESIAN_POINT('',(98.607678857083,8.361098456844,3.372716971572)
  );
#86 = CARTESIAN_POINT('',(98.613155859498,8.355453194964,3.347687483553)
  );
#87 = CARTESIAN_POINT('',(98.628682046508,8.33942889446,3.269789034038)
  );
#88 = CARTESIAN_POINT('',(98.637169269162,8.330636557092,3.216448838113)
  );
#89 = CARTESIAN_POINT('',(98.643574096002,8.323984264396,3.162650059972)
  );
#90 = CARTESIAN_POINT('',(98.647857577842,8.319529325013,3.108542033053)
  );
#91 = CARTESIAN_POINT('',(98.65,8.317301244995,3.05427509266));
#92 = CARTESIAN_POINT('',(98.65,8.317301244995,2.92149926304));
#93 = CARTESIAN_POINT('',(98.645518006321,8.321962193665,2.843046641951)
  );
#94 = CARTESIAN_POINT('',(98.636565620368,8.331273613269,2.765075962261)
  );
#95 = CARTESIAN_POINT('',(98.623224462854,8.345109757641,2.68801832327)
  );
#96 = CARTESIAN_POINT('',(98.605653569575,8.363233724162,2.612298604338)
  );
#97 = CARTESIAN_POINT('',(98.571635183256,8.398058604151,2.495573136884)
  );
#98 = CARTESIAN_POINT('',(98.557837310045,8.412138274453,2.45338474517)
  );
#99 = CARTESIAN_POINT('',(98.542739607162,8.427484697135,2.411817646568)
  );
#100 = CARTESIAN_POINT('',(98.526382007464,8.444037329443,2.370921411265
    ));
#101 = CARTESIAN_POINT('',(98.50880793705,8.461730965373,2.330744329101)
  );
#102 = CARTESIAN_POINT('',(98.469340064041,8.501243370152,2.247757957281
    ));
#103 = CARTESIAN_POINT('',(98.447185338399,8.52330160709,2.205117071367)
  );
#104 = CARTESIAN_POINT('',(98.423652047261,8.546587714401,2.163450338428
    ));
#105 = CARTESIAN_POINT('',(98.39879245831,8.571018935945,2.122796006993)
  );
#106 = CARTESIAN_POINT('',(98.372659197992,8.596512491523,2.08319098752)
  );
#107 = CARTESIAN_POINT('',(98.283491171176,8.682809099098,1.957623569166
    ));
#108 = CARTESIAN_POINT('',(98.215456416573,8.74762348602,1.876133456248)
  );
#109 = CARTESIAN_POINT('',(98.141701628126,8.816586275467,1.800439381989
    ));
#110 = CARTESIAN_POINT('',(98.062654262678,8.888950614341,1.730786082244
    ));
#111 = CARTESIAN_POINT('',(97.978696018385,8.964050912387,1.667444735543
    ));
#112 = CARTESIAN_POINT('',(97.807995749166,9.113018352382,1.558066354105
    ));
#113 = CARTESIAN_POINT('',(97.721836199362,9.186628902074,1.511089580023
    ));
#114 = CARTESIAN_POINT('',(97.63201362172,9.261627061925,1.47008366175)
  );
#115 = CARTESIAN_POINT('',(97.538843865408,9.337545503299,1.435363627898
    ));
#116 = CARTESIAN_POINT('',(97.442666659599,9.413943011323,1.407281216635
    ));
#117 = CARTESIAN_POINT('',(97.225524492195,9.581971747756,1.36101351821)
  );
#118 = CARTESIAN_POINT('',(97.103205715477,9.67379367843,1.345835307986)
  );
#119 = CARTESIAN_POINT('',(96.978045132246,9.764749201766,1.341545731266
    ));
#120 = CARTESIAN_POINT('',(96.851319268198,9.853803850378,1.34879358936)
  );
#121 = CARTESIAN_POINT('',(96.72442293601,9.940057705751,1.368031277192)
  );
#122 = CARTESIAN_POINT('',(96.536391877074,10.063854610854,
    1.415162168897));
#123 = CARTESIAN_POINT('',(96.474342111944,10.104038205748,
    1.433821912415));
#124 = CARTESIAN_POINT('',(96.412925494208,10.14316373065,1.455493712604
    ));
#125 = CARTESIAN_POINT('',(96.352383831581,10.181115964899,
    1.480148471655));
#126 = CARTESIAN_POINT('',(96.29295278219,10.21779663932,1.507725329335)
  );
#127 = CARTESIAN_POINT('',(96.156465710076,10.300793556504,
    1.579162602722));
#128 = CARTESIAN_POINT('',(96.080547439346,10.345973769057,
    1.625324971498));
#129 = CARTESIAN_POINT('',(96.007639554978,10.388475361443,
    1.676388444634));
#130 = CARTESIAN_POINT('',(95.938237783673,10.428165095414,
    1.732031294175));
#131 = CARTESIAN_POINT('',(95.872781566517,10.464956800153,
    1.791841675183));
#132 = CARTESIAN_POINT('',(95.741462940953,10.537648539789,
    1.928171442781));
#133 = CARTESIAN_POINT('',(95.676986471871,10.572604171335,
    2.005835067971));
#134 = CARTESIAN_POINT('',(95.618581539017,10.603700215102,
    2.087726920915));
#135 = CARTESIAN_POINT('',(95.566552065459,10.630988474253,2.17322390898
    ));
#136 = CARTESIAN_POINT('',(95.521121083422,10.654534946554,
    2.261664654105));
#137 = CARTESIAN_POINT('',(95.43843189655,10.697004430849,2.455423328743
    ));
#138 = CARTESIAN_POINT('',(95.403112419389,10.714869720299,
    2.561453288357));
#139 = CARTESIAN_POINT('',(95.376563915067,10.728161190671,
    2.669672400358));
#140 = CARTESIAN_POINT('',(95.358850943881,10.73698344929,2.779328041479
    ));
#141 = CARTESIAN_POINT('',(95.35,10.741391902356,2.889680573892));
#142 = CARTESIAN_POINT('',(95.35,10.741391902356,3.109460242257));
#143 = CARTESIAN_POINT('',(95.358713621819,10.737051848146,
    3.218952340895));
#144 = CARTESIAN_POINT('',(95.37615145287,10.728366622586,3.327763674283
    ));
#145 = CARTESIAN_POINT('',(95.402287929072,10.715282481518,
    3.435172306616));
#146 = CARTESIAN_POINT('',(95.437060848297,10.697697856477,
    3.540443732269));
#147 = CARTESIAN_POINT('',(95.500282215775,10.665242448782,
    3.689897532593));
#148 = CARTESIAN_POINT('',(95.521995288469,10.654039544643,
    3.736350577219));
#149 = CARTESIAN_POINT('',(95.545493279382,10.641844559934,
    3.782099466621));
#150 = CARTESIAN_POINT('',(95.570754638073,10.628646517377,
    3.827058055135));
#151 = CARTESIAN_POINT('',(95.597753086177,10.614434347456,
    3.871141338836));
#152 = CARTESIAN_POINT('',(95.652514725669,10.585364782385,3.9534122289)
  );
#153 = CARTESIAN_POINT('',(95.679978045164,10.570687761757,
    3.991768921723));
#154 = CARTESIAN_POINT('',(95.708817082463,10.555161234262,
    4.029261965762));
#155 = CARTESIAN_POINT('',(95.738996743915,10.5387821197,4.065821007528)
  );
#156 = CARTESIAN_POINT('',(95.770477335643,10.52154884995,4.101378908299
    ));
#157 = CARTESIAN_POINT('',(95.865351030068,10.469130662665,
    4.201340419252));
#158 = CARTESIAN_POINT('',(95.932044416183,10.431706469486,4.26300300282
    ));
#159 = CARTESIAN_POINT('',(96.002907313525,10.391236083943,
    4.320318385726));
#160 = CARTESIAN_POINT('',(96.077471981574,10.34780882515,4.372842011603
    ));
#161 = CARTESIAN_POINT('',(96.155208744146,10.301565236811,
    4.420227277833));
#162 = CARTESIAN_POINT('',(96.355592135699,10.179695020576,4.52498817699
    ));
#163 = CARTESIAN_POINT('',(96.481145967213,10.101024321845,
    4.575568587751));
#164 = CARTESIAN_POINT('',(96.610342062738,10.017356651387,
    4.613311186872));
#165 = CARTESIAN_POINT('',(96.741184783247,9.929599523902,4.638027851908
    ));
#166 = CARTESIAN_POINT('',(96.871697752808,9.838939074509,4.65));
#167 = CARTESIAN_POINT('',(97.,9.746794344809,4.65));
#168 = FACE_BOUND('',#169,.T.);
#169 = EDGE_LOOP('',(#170));
#170 = ORIENTED_EDGE('',*,*,#171,.T.);
#171 = EDGE_CURVE('',#172,#172,#174,.T.);
#172 = VERTEX_POINT('',#173);
#173 = CARTESIAN_POINT('',(97.,-9.746794344809,4.65));
#174 = B_SPLINE_CURVE_WITH_KNOTS('',6,(#175,#176,#177,#178,#179,#180,
    #181,#182,#183,#184,#185,#186,#187,#188,#189,#190,#191,#192,#193,
    #194,#195,#196,#197,#198,#199,#200,#201,#202,#203,#204,#205,#206,
    #207,#208,#209,#210,#211,#212,#213,#214,#215,#216,#217,#218,#219,
    #220,#221,#222,#223,#224,#225,#226,#227,#228,#229,#230,#231,#232,
    #233,#234,#235,#236,#237,#238,#239,#240,#241,#242,#243,#244,#245,
    #246,#247,#248,#249,#250,#251,#252,#253,#254,#255,#256,#257,#258,
    #259,#260,#261,#262,#263,#264,#265,#266,#267,#268,#269,#270,#271,
    #272,#273,#274,#275,#276,#277,#278,#279,#280,#281),.UNSPECIFIED.,.T.
  ,.F.,(7,5,5,5,5,5,5,5,5,5,5,5,5,5,5,5,5,5,5,5,5,7),(0.,
    9.516801718702E-02,0.159454552824,0.187372651409,0.212619920819,
    0.227444821983,0.258511260577,0.303444179248,0.329419124186,
    0.358138828965,0.423039231528,0.483311657752,0.555490929863,
    0.59137454303,0.639796520988,0.69537026983,0.758533684355,
    0.821205172939,0.850017730164,0.876172902533,0.925816384793,1.),
  .UNSPECIFIED.);
#175 = CARTESIAN_POINT('',(97.,-9.746794344809,4.65));
#176 = CARTESIAN_POINT('',(97.165090745085,-9.628228673398,4.65));
#177 = CARTESIAN_POINT('',(97.326541548732,-9.50719075661,4.630178569333
    ));
#178 = CARTESIAN_POINT('',(97.482245531768,-9.38533631289,4.592171987229
    ));
#179 = CARTESIAN_POINT('',(97.630531687482,-9.264437804176,
    4.537469703977));
#180 = CARTESIAN_POINT('',(97.769974336234,-9.146419612451,
    4.467451631779));
#181 = CARTESIAN_POINT('',(97.986581770117,-8.957006725397,
    4.326651810636));
#182 = CARTESIAN_POINT('',(98.069422818445,-8.882778639471,
    4.263393042097));
#183 = CARTESIAN_POINT('',(98.147419225216,-8.81127495218,4.193948591327
    ));
#184 = CARTESIAN_POINT('',(98.220195775613,-8.743148756406,
    4.118582375163));
#185 = CARTESIAN_POINT('',(98.287333147692,-8.679131436893,4.0375340646)
  );
#186 = CARTESIAN_POINT('',(98.374836567229,-8.594386124102,
    3.913475427943));
#187 = CARTESIAN_POINT('',(98.400172896632,-8.569658849234,
    3.874888430419));
#188 = CARTESIAN_POINT('',(98.424302106768,-8.54594010415,3.835310278159
    ));
#189 = CARTESIAN_POINT('',(98.447175729153,-8.52330611832,3.794775031715
    ));
#190 = CARTESIAN_POINT('',(98.468745630037,-8.501833080575,3.75331795393
    ));
#191 = CARTESIAN_POINT('',(98.507248167344,-8.463297101072,
    3.672683822998));
#192 = CARTESIAN_POINT('',(98.524427504951,-8.446007989553,
    3.633666629336));
#193 = CARTESIAN_POINT('',(98.540459073571,-8.429793841848,
    3.593966656742));
#194 = CARTESIAN_POINT('',(98.555302961787,-8.414714648043,
    3.553627791078));
#195 = CARTESIAN_POINT('',(98.568922296415,-8.400826351008,
    3.512695076268));
#196 = CARTESIAN_POINT('',(98.588541445402,-8.380755554071,
    3.446857931154));
#197 = CARTESIAN_POINT('',(98.59536497611,-8.373759504468,3.422314965216
    ));
#198 = CARTESIAN_POINT('',(98.601746420251,-8.367203720998,
    3.397597208501));
#199 = CARTESIAN_POINT('',(98.607678857083,-8.361098456844,
    3.372716971572));
#200 = CARTESIAN_POINT('',(98.613155859498,-8.355453194964,
    3.347687483553));
#201 = CARTESIAN_POINT('',(98.628682046508,-8.33942889446,3.269789034038
    ));
#202 = CARTESIAN_POINT('',(98.637169269162,-8.330636557092,
    3.216448838113));
#203 = CARTESIAN_POINT('',(98.643574096002,-8.323984264396,
    3.162650059972));
#204 = CARTESIAN_POINT('',(98.647857577842,-8.319529325013,
    3.108542033053));
#205 = CARTESIAN_POINT('',(98.65,-8.317301244995,3.05427509266));
#206 = CARTESIAN_POINT('',(98.65,-8.317301244995,2.92149926304));
#207 = CARTESIAN_POINT('',(98.645518006321,-8.321962193665,
    2.843046641951));
#208 = CARTESIAN_POINT('',(98.636565620368,-8.331273613269,
    2.765075962261));
#209 = CARTESIAN_POINT('',(98.623224462854,-8.345109757641,2.68801832327
    ));
#210 = CARTESIAN_POINT('',(98.605653569575,-8.363233724162,
    2.612298604338));
#211 = CARTESIAN_POINT('',(98.571635183256,-8.398058604151,
    2.495573136884));
#212 = CARTESIAN_POINT('',(98.557837310045,-8.412138274453,2.45338474517
    ));
#213 = CARTESIAN_POINT('',(98.542739607162,-8.427484697135,
    2.411817646568));
#214 = CARTESIAN_POINT('',(98.526382007464,-8.444037329443,
    2.370921411265));
#215 = CARTESIAN_POINT('',(98.50880793705,-8.461730965373,2.330744329101
    ));
#216 = CARTESIAN_POINT('',(98.469340064041,-8.501243370152,
    2.247757957281));
#217 = CARTESIAN_POINT('',(98.447185338399,-8.52330160709,2.205117071367
    ));
#218 = CARTESIAN_POINT('',(98.423652047261,-8.546587714401,
    2.163450338428));
#219 = CARTESIAN_POINT('',(98.39879245831,-8.571018935945,2.122796006993
    ));
#220 = CARTESIAN_POINT('',(98.372659197992,-8.596512491523,2.08319098752
    ));
#221 = CARTESIAN_POINT('',(98.283491171176,-8.682809099098,
    1.957623569166));
#222 = CARTESIAN_POINT('',(98.215456416573,-8.74762348602,1.876133456248
    ));
#223 = CARTESIAN_POINT('',(98.141701628126,-8.816586275467,
    1.800439381989));
#224 = CARTESIAN_POINT('',(98.062654262678,-8.888950614341,
    1.730786082244));
#225 = CARTESIAN_POINT('',(97.978696018385,-8.964050912387,
    1.667444735543));
#226 = CARTESIAN_POINT('',(97.807995749166,-9.113018352382,
    1.558066354105));
#227 = CARTESIAN_POINT('',(97.721836199362,-9.186628902074,
    1.511089580023));
#228 = CARTESIAN_POINT('',(97.63201362172,-9.261627061925,1.47008366175)
  );
#229 = CARTESIAN_POINT('',(97.538843865408,-9.337545503299,
    1.435363627898));
#230 = CARTESIAN_POINT('',(97.442666659599,-9.413943011323,
    1.407281216635));
#231 = CARTESIAN_POINT('',(97.225524492228,-9.581971747731,
    1.361013518217));
#232 = CARTESIAN_POINT('',(97.103205715468,-9.673793678439,
    1.345835307978));
#233 = CARTESIAN_POINT('',(96.978045132213,-9.764749201789,
    1.341545731267));
#234 = CARTESIAN_POINT('',(96.85131926819,-9.853803850381,1.348793589368
    ));
#235 = CARTESIAN_POINT('',(96.724422936042,-9.94005770573,1.368031277184
    ));
#236 = CARTESIAN_POINT('',(96.536391877074,-10.06385461085,
    1.415162168897));
#237 = CARTESIAN_POINT('',(96.474342111944,-10.10403820574,
    1.433821912415));
#238 = CARTESIAN_POINT('',(96.412925494208,-10.14316373065,
    1.455493712604));
#239 = CARTESIAN_POINT('',(96.352383831581,-10.18111596489,
    1.480148471655));
#240 = CARTESIAN_POINT('',(96.29295278219,-10.21779663932,1.507725329335
    ));
#241 = CARTESIAN_POINT('',(96.156465710076,-10.3007935565,1.579162602722
    ));
#242 = CARTESIAN_POINT('',(96.080547439346,-10.34597376905,
    1.625324971498));
#243 = CARTESIAN_POINT('',(96.007639554978,-10.38847536144,
    1.676388444634));
#244 = CARTESIAN_POINT('',(95.938237783673,-10.42816509541,
    1.732031294175));
#245 = CARTESIAN_POINT('',(95.872781566517,-10.46495680015,
    1.791841675183));
#246 = CARTESIAN_POINT('',(95.741462940953,-10.53764853978,
    1.928171442781));
#247 = CARTESIAN_POINT('',(95.676986471871,-10.57260417133,
    2.005835067971));
#248 = CARTESIAN_POINT('',(95.618581539017,-10.6037002151,2.087726920915
    ));
#249 = CARTESIAN_POINT('',(95.566552065459,-10.63098847425,2.17322390898
    ));
#250 = CARTESIAN_POINT('',(95.521121083422,-10.65453494655,
    2.261664654105));
#251 = CARTESIAN_POINT('',(95.438431896561,-10.69700443084,
    2.455423328716));
#252 = CARTESIAN_POINT('',(95.403112419382,-10.7148697203,2.561453288363
    ));
#253 = CARTESIAN_POINT('',(95.376563915062,-10.72816119067,
    2.669672400385));
#254 = CARTESIAN_POINT('',(95.358850943885,-10.73698344928,
    2.779328041488));
#255 = CARTESIAN_POINT('',(95.35,-10.74139190235,2.889680573865));
#256 = CARTESIAN_POINT('',(95.35,-10.74139190235,3.109460242256));
#257 = CARTESIAN_POINT('',(95.358713621819,-10.73705184814,
    3.218952340895));
#258 = CARTESIAN_POINT('',(95.37615145287,-10.72836662258,3.327763674283
    ));
#259 = CARTESIAN_POINT('',(95.402287929072,-10.71528248151,
    3.435172306616));
#260 = CARTESIAN_POINT('',(95.437060848297,-10.69769785647,
    3.540443732269));
#261 = CARTESIAN_POINT('',(95.500282216775,-10.66524244826,
    3.689897534957));
#262 = CARTESIAN_POINT('',(95.521995287947,-10.65403954492,
    3.736350576658));
#263 = CARTESIAN_POINT('',(95.545493278142,-10.64184456058,3.78209946432
    ));
#264 = CARTESIAN_POINT('',(95.570754637936,-10.62864651744,
    3.827058054464));
#265 = CARTESIAN_POINT('',(95.59775308766,-10.61443434667,3.871141341063
    ));
#266 = CARTESIAN_POINT('',(95.652514725669,-10.58536478238,3.9534122289)
  );
#267 = CARTESIAN_POINT('',(95.679978045164,-10.57068776175,
    3.991768921723));
#268 = CARTESIAN_POINT('',(95.708817082463,-10.55516123426,
    4.029261965762));
#269 = CARTESIAN_POINT('',(95.738996743915,-10.5387821197,4.065821007528
    ));
#270 = CARTESIAN_POINT('',(95.770477335643,-10.52154884995,
    4.101378908299));
#271 = CARTESIAN_POINT('',(95.865351030068,-10.46913066266,
    4.201340419252));
#272 = CARTESIAN_POINT('',(95.932044416183,-10.43170646948,4.26300300282
    ));
#273 = CARTESIAN_POINT('',(96.002907313525,-10.39123608394,
    4.320318385726));
#274 = CARTESIAN_POINT('',(96.077471981574,-10.34780882515,
    4.372842011603));
#275 = CARTESIAN_POINT('',(96.155208744146,-10.30156523681,
    4.420227277833));
#276 = CARTESIAN_POINT('',(96.355592135624,-10.17969502062,
    4.524988176951));
#277 = CARTESIAN_POINT('',(96.481145967231,-10.10102432183,
    4.575568587779));
#278 = CARTESIAN_POINT('',(96.610342062826,-10.01735665133,
    4.613311186893));
#279 = CARTESIAN_POINT('',(96.741184783273,-9.929599523878,
    4.638027851891));
#280 = CARTESIAN_POINT('',(96.871697752717,-9.838939074574,4.65));
#281 = CARTESIAN_POINT('',(97.,-9.746794344809,4.65));
#282 = CYLINDRICAL_SURFACE('',#283,12.);
#283 = AXIS2_PLACEMENT_3D('',#284,#285,#286);
#284 = CARTESIAN_POINT('',(90.,0.,0.));
#285 = DIRECTION('',(0.,0.,1.));
#286 = DIRECTION('',(1.,0.,0.));
#287 = ADVANCED_FACE('',(#288),#313,.T.);
#288 = FACE_BOUND('',#289,.T.);
#289 = EDGE_LOOP('',(#290,#298,#299,#307));
#290 = ORIENTED_EDGE('',*,*,#291,.F.);
#291 = EDGE_CURVE('',#33,#292,#294,.T.);
#292 = VERTEX_POINT('',#293);
#293 = CARTESIAN_POINT('',(128.,6.,0.));
#294 = LINE('',#295,#296);
#295 = CARTESIAN_POINT('',(90.,6.,0.));
#296 = VECTOR('',#297,1.);
#297 = DIRECTION('',(1.,0.,0.));
#298 = ORIENTED_EDGE('',*,*,#32,.T.);
#299 = ORIENTED_EDGE('',*,*,#300,.T.);
#300 = EDGE_CURVE('',#22,#301,#303,.T.);
#301 = VERTEX_POINT('',#302);
#302 = CARTESIAN_POINT('',(128.,6.,6.));
#303 = LINE('',#304,#305);
#304 = CARTESIAN_POINT('',(90.,6.,6.));
#305 = VECTOR('',#306,1.);
#306 = DIRECTION('',(1.,0.,0.));
#307 = ORIENTED_EDGE('',*,*,#308,.F.);
#308 = EDGE_CURVE('',#292,#301,#309,.T.);
#309 = LINE('',#310,#311);
#310 = CARTESIAN_POINT('',(128.,6.,0.));
#311 = VECTOR('',#312,1.);
#312 = DIRECTION('',(0.,0.,1.));
#313 = PLANE('',#314);
#314 = AXIS2_PLACEMENT_3D('',#315,#316,#317);
#315 = CARTESIAN_POINT('',(90.,6.,0.));
#316 = DIRECTION('',(0.,1.,0.));
#317 = DIRECTION('',(0.,0.,1.));
#318 = ADVANCED_FACE('',(#319),#344,.F.);
#319 = FACE_BOUND('',#320,.F.);
#320 = EDGE_LOOP('',(#321,#329,#330,#338));
#321 = ORIENTED_EDGE('',*,*,#322,.F.);
#322 = EDGE_CURVE('',#41,#323,#325,.T.);
#323 = VERTEX_POINT('',#324);
#324 = CARTESIAN_POINT('',(128.,-6.,0.));
#325 = LINE('',#326,#327);
#326 = CARTESIAN_POINT('',(90.,-6.,0.));
#327 = VECTOR('',#328,1.);
#328 = DIRECTION('',(1.,0.,0.));
#329 = ORIENTED_EDGE('',*,*,#49,.T.);
#330 = ORIENTED_EDGE('',*,*,#331,.T.);
#331 = EDGE_CURVE('',#24,#332,#334,.T.);
#332 = VERTEX_POINT('',#333);
#333 = CARTESIAN_POINT('',(128.,-6.,6.));
#334 = LINE('',#335,#336);
#335 = CARTESIAN_POINT('',(90.,-6.,6.));
#336 = VECTOR('',#337,1.);
#337 = DIRECTION('',(1.,0.,0.));
#338 = ORIENTED_EDGE('',*,*,#339,.F.);
#339 = EDGE_CURVE('',#323,#332,#340,.T.);
#340 = LINE('',#341,#342);
#341 = CARTESIAN_POINT('',(128.,-6.,0.));
#342 = VECTOR('',#343,1.);
#343 = DIRECTION('',(0.,0.,1.));
#344 = PLANE('',#345);
#345 = AXIS2_PLACEMENT_3D('',#346,#347,#348);
#346 = CARTESIAN_POINT('',(90.,-6.,0.));
#347 = DIRECTION('',(0.,1.,0.));
#348 = DIRECTION('',(0.,0.,1.));
#349 = ADVANCED_FACE('',(#350),#369,.F.);
#350 = FACE_BOUND('',#351,.F.);
#351 = EDGE_LOOP('',(#352,#353,#361,#368));
#352 = ORIENTED_EDGE('',*,*,#57,.F.);
#353 = ORIENTED_EDGE('',*,*,#354,.F.);
#354 = EDGE_CURVE('',#355,#58,#357,.T.);
#355 = VERTEX_POINT('',#356);
#356 = CARTESIAN_POINT('',(97.,0.6,4.65));
#357 = LINE('',#358,#359);
#358 = CARTESIAN_POINT('',(97.,-12.,4.65));
#359 = VECTOR('',#360,1.);
#360 = DIRECTION('',(0.,1.,0.));
#361 = ORIENTED_EDGE('',*,*,#362,.T.);
#362 = EDGE_CURVE('',#355,#355,#363,.T.);
#363 = CIRCLE('',#364,1.65);
#364 = AXIS2_PLACEMENT_3D('',#365,#366,#367);
#365 = CARTESIAN_POINT('',(97.,0.6,3.));
#366 = DIRECTION('',(0.,1.,0.));
#367 = DIRECTION('',(0.,0.,1.));
#368 = ORIENTED_EDGE('',*,*,#354,.T.);
#369 = CYLINDRICAL_SURFACE('',#370,1.65);
#370 = AXIS2_PLACEMENT_3D('',#371,#372,#373);
#371 = CARTESIAN_POINT('',(97.,-12.,3.));
#372 = DIRECTION('',(0.,1.,0.));
#373 = DIRECTION('',(0.,0.,1.));
#374 = ADVANCED_FACE('',(#375,#409),#412,.F.);
#375 = FACE_BOUND('',#376,.F.);
#376 = EDGE_LOOP('',(#377,#387,#395,#403));
#377 = ORIENTED_EDGE('',*,*,#378,.F.);
#378 = EDGE_CURVE('',#379,#381,#383,.T.);
#379 = VERTEX_POINT('',#380);
#380 = CARTESIAN_POINT('',(102.,0.6,0.));
#381 = VERTEX_POINT('',#382);
#382 = CARTESIAN_POINT('',(102.,0.6,6.));
#383 = LINE('',#384,#385);
#384 = CARTESIAN_POINT('',(102.,0.6,-1.));
#385 = VECTOR('',#386,1.);
#386 = DIRECTION('',(0.,0.,1.));
#387 = ORIENTED_EDGE('',*,*,#388,.T.);
#388 = EDGE_CURVE('',#379,#389,#391,.T.);
#389 = VERTEX_POINT('',#390);
#390 = CARTESIAN_POINT('',(94.,0.6,0.));
#391 = LINE('',#392,#393);
#392 = CARTESIAN_POINT('',(92.,0.6,0.));
#393 = VECTOR('',#394,1.);
#394 = DIRECTION('',(-1.,0.,0.));
#395 = ORIENTED_EDGE('',*,*,#396,.T.);
#396 = EDGE_CURVE('',#389,#397,#399,.T.);
#397 = VERTEX_POINT('',#398);
#398 = CARTESIAN_POINT('',(94.,0.6,6.));
#399 = LINE('',#400,#401);
#400 = CARTESIAN_POINT('',(94.,0.6,-1.));
#401 = VECTOR('',#402,1.);
#402 = DIRECTION('',(0.,0.,1.));
#403 = ORIENTED_EDGE('',*,*,#404,.F.);
#404 = EDGE_CURVE('',#381,#397,#405,.T.);
#405 = LINE('',#406,#407);
#406 = CARTESIAN_POINT('',(92.,0.6,6.));
#407 = VECTOR('',#408,1.);
#408 = DIRECTION('',(-1.,0.,0.));
#409 = FACE_BOUND('',#410,.F.);
#410 = EDGE_LOOP('',(#411));
#411 = ORIENTED_EDGE('',*,*,#362,.F.);
#412 = PLANE('',#413);
#413 = AXIS2_PLACEMENT_3D('',#414,#415,#416);
#414 = CARTESIAN_POINT('',(94.,0.6,-1.));
#415 = DIRECTION('',(0.,1.,0.));
#416 = DIRECTION('',(0.,0.,1.));
#417 = ADVANCED_FACE('',(#418),#443,.T.);
#418 = FACE_BOUND('',#419,.T.);
#419 = EDGE_LOOP('',(#420,#430,#436,#437));
#420 = ORIENTED_EDGE('',*,*,#421,.F.);
#421 = EDGE_CURVE('',#422,#424,#426,.T.);
#422 = VERTEX_POINT('',#423);
#423 = CARTESIAN_POINT('',(94.,-0.6,0.));
#424 = VERTEX_POINT('',#425);
#425 = CARTESIAN_POINT('',(94.,-0.6,6.));
#426 = LINE('',#427,#428);
#427 = CARTESIAN_POINT('',(94.,-0.6,-1.));
#428 = VECTOR('',#429,1.);
#429 = DIRECTION('',(0.,0.,1.));
#430 = ORIENTED_EDGE('',*,*,#431,.T.);
#431 = EDGE_CURVE('',#422,#389,#432,.T.);
#432 = LINE('',#433,#434);
#433 = CARTESIAN_POINT('',(94.,-0.3,0.));
#434 = VECTOR('',#435,1.);
#435 = DIRECTION('',(0.,1.,0.));
#436 = ORIENTED_EDGE('',*,*,#396,.T.);
#437 = ORIENTED_EDGE('',*,*,#438,.F.);
#438 = EDGE_CURVE('',#424,#397,#439,.T.);
#439 = LINE('',#440,#441);
#440 = CARTESIAN_POINT('',(94.,-0.3,6.));
#441 = VECTOR('',#442,1.);
#442 = DIRECTION('',(0.,1.,0.));
#443 = PLANE('',#444);
#444 = AXIS2_PLACEMENT_3D('',#445,#446,#447);
#445 = CARTESIAN_POINT('',(94.,-0.6,-1.));
#446 = DIRECTION('',(1.,0.,0.));
#447 = DIRECTION('',(0.,0.,1.));
#448 = ADVANCED_FACE('',(#449,#474),#485,.T.);
#449 = FACE_BOUND('',#450,.T.);
#450 = EDGE_LOOP('',(#451,#461,#467,#468));
#451 = ORIENTED_EDGE('',*,*,#452,.F.);
#452 = EDGE_CURVE('',#453,#455,#457,.T.);
#453 = VERTEX_POINT('',#454);
#454 = CARTESIAN_POINT('',(102.,-0.6,0.));
#455 = VERTEX_POINT('',#456);
#456 = CARTESIAN_POINT('',(102.,-0.6,6.));
#457 = LINE('',#458,#459);
#458 = CARTESIAN_POINT('',(102.,-0.6,-1.));
#459 = VECTOR('',#460,1.);
#460 = DIRECTION('',(0.,0.,1.));
#461 = ORIENTED_EDGE('',*,*,#462,.T.);
#462 = EDGE_CURVE('',#453,#422,#463,.T.);
#463 = LINE('',#464,#465);
#464 = CARTESIAN_POINT('',(92.,-0.6,0.));
#465 = VECTOR('',#466,1.);
#466 = DIRECTION('',(-1.,0.,0.));
#467 = ORIENTED_EDGE('',*,*,#421,.T.);
#468 = ORIENTED_EDGE('',*,*,#469,.F.);
#469 = EDGE_CURVE('',#455,#424,#470,.T.);
#470 = LINE('',#471,#472);
#471 = CARTESIAN_POINT('',(92.,-0.6,6.));
#472 = VECTOR('',#473,1.);
#473 = DIRECTION('',(-1.,0.,0.));
#474 = FACE_BOUND('',#475,.T.);
#475 = EDGE_LOOP('',(#476));
#476 = ORIENTED_EDGE('',*,*,#477,.F.);
#477 = EDGE_CURVE('',#478,#478,#480,.T.);
#478 = VERTEX_POINT('',#479);
#479 = CARTESIAN_POINT('',(97.,-0.6,4.65));
#480 = CIRCLE('',#481,1.65);
#481 = AXIS2_PLACEMENT_3D('',#482,#483,#484);
#482 = CARTESIAN_POINT('',(97.,-0.6,3.));
#483 = DIRECTION('',(0.,1.,0.));
#484 = DIRECTION('',(0.,0.,1.));
#485 = PLANE('',#486);
#486 = AXIS2_PLACEMENT_3D('',#487,#488,#489);
#487 = CARTESIAN_POINT('',(94.,-0.6,-1.));
#488 = DIRECTION('',(0.,1.,0.));
#489 = DIRECTION('',(0.,0.,1.));
#490 = ADVANCED_FACE('',(#491),#507,.F.);
#491 = FACE_BOUND('',#492,.F.);
#492 = EDGE_LOOP('',(#493,#494,#500,#501));
#493 = ORIENTED_EDGE('',*,*,#452,.F.);
#494 = ORIENTED_EDGE('',*,*,#495,.T.);
#495 = EDGE_CURVE('',#453,#379,#496,.T.);
#496 = LINE('',#497,#498);
#497 = CARTESIAN_POINT('',(102.,-3.3,0.));
#498 = VECTOR('',#499,1.);
#499 = DIRECTION('',(0.,1.,0.));
#500 = ORIENTED_EDGE('',*,*,#378,.T.);
#501 = ORIENTED_EDGE('',*,*,#502,.F.);
#502 = EDGE_CURVE('',#455,#381,#503,.T.);
#503 = LINE('',#504,#505);
#504 = CARTESIAN_POINT('',(102.,-3.3,6.));
#505 = VECTOR('',#506,1.);
#506 = DIRECTION('',(0.,1.,0.));
#507 = PLANE('',#508);
#508 = AXIS2_PLACEMENT_3D('',#509,#510,#511);
#509 = CARTESIAN_POINT('',(102.,-0.6,-1.));
#510 = DIRECTION('',(1.,0.,0.));
#511 = DIRECTION('',(0.,0.,1.));
#512 = ADVANCED_FACE('',(#513),#524,.F.);
#513 = FACE_BOUND('',#514,.F.);
#514 = EDGE_LOOP('',(#515,#516,#522,#523));
#515 = ORIENTED_EDGE('',*,*,#477,.F.);
#516 = ORIENTED_EDGE('',*,*,#517,.F.);
#517 = EDGE_CURVE('',#172,#478,#518,.T.);
#518 = LINE('',#519,#520);
#519 = CARTESIAN_POINT('',(97.,-12.,4.65));
#520 = VECTOR('',#521,1.);
#521 = DIRECTION('',(0.,1.,0.));
#522 = ORIENTED_EDGE('',*,*,#171,.T.);
#523 = ORIENTED_EDGE('',*,*,#517,.T.);
#524 = CYLINDRICAL_SURFACE('',#525,1.65);
#525 = AXIS2_PLACEMENT_3D('',#526,#527,#528);
#526 = CARTESIAN_POINT('',(97.,-12.,3.));
#527 = DIRECTION('',(0.,1.,0.));
#528 = DIRECTION('',(0.,0.,1.));
#529 = ADVANCED_FACE('',(#530,#551,#614,#620),#649,.T.);
#530 = FACE_BOUND('',#531,.T.);
#531 = EDGE_LOOP('',(#532,#533,#534,#543,#550));
#532 = ORIENTED_EDGE('',*,*,#40,.F.);
#533 = ORIENTED_EDGE('',*,*,#291,.T.);
#534 = ORIENTED_EDGE('',*,*,#535,.F.);
#535 = EDGE_CURVE('',#536,#292,#538,.T.);
#536 = VERTEX_POINT('',#537);
#537 = CARTESIAN_POINT('',(134.,-1.469576158977E-15,0.));
#538 = CIRCLE('',#539,6.);
#539 = AXIS2_PLACEMENT_3D('',#540,#541,#542);
#540 = CARTESIAN_POINT('',(128.,0.,0.));
#541 = DIRECTION('',(0.,0.,1.));
#542 = DIRECTION('',(1.,0.,0.));
#543 = ORIENTED_EDGE('',*,*,#544,.F.);
#544 = EDGE_CURVE('',#323,#536,#545,.T.);
#545 = CIRCLE('',#546,6.);
#546 = AXIS2_PLACEMENT_3D('',#547,#548,#549);
#547 = CARTESIAN_POINT('',(128.,0.,0.));
#548 = DIRECTION('',(0.,0.,1.));
#549 = DIRECTION('',(1.,0.,0.));
#550 = ORIENTED_EDGE('',*,*,#322,.F.);
#551 = FACE_BOUND('',#552,.T.);
#552 = EDGE_LOOP('',(#553,#564,#572,#581,#589,#598,#607));
#553 = ORIENTED_EDGE('',*,*,#554,.T.);
#554 = EDGE_CURVE('',#555,#557,#559,.T.);
#555 = VERTEX_POINT('',#556);
#556 = CARTESIAN_POINT('',(122.3606557377,2.048852432783,0.));
#557 = VERTEX_POINT('',#558);
#558 = CARTESIAN_POINT('',(121.9,2.1,0.));
#559 = CIRCLE('',#560,2.1);
#560 = AXIS2_PLACEMENT_3D('',#561,#562,#563);
#561 = CARTESIAN_POINT('',(121.9,0.,0.));
#562 = DIRECTION('',(0.,0.,1.));
#563 = DIRECTION('',(1.,0.,0.));
#564 = ORIENTED_EDGE('',*,*,#565,.T.);
#565 = EDGE_CURVE('',#557,#566,#568,.T.);
#566 = VERTEX_POINT('',#567);
#567 = CARTESIAN_POINT('',(106.1,2.1,0.));
#568 = LINE('',#569,#570);
#569 = CARTESIAN_POINT('',(98.05,2.1,0.));
#570 = VECTOR('',#571,1.);
#571 = DIRECTION('',(-1.,0.,0.));
#572 = ORIENTED_EDGE('',*,*,#573,.T.);
#573 = EDGE_CURVE('',#566,#574,#576,.T.);
#574 = VERTEX_POINT('',#575);
#575 = CARTESIAN_POINT('',(106.1,-2.1,0.));
#576 = CIRCLE('',#577,2.1);
#577 = AXIS2_PLACEMENT_3D('',#578,#579,#580);
#578 = CARTESIAN_POINT('',(106.1,0.,0.));
#579 = DIRECTION('',(0.,0.,1.));
#580 = DIRECTION('',(1.,0.,0.));
#581 = ORIENTED_EDGE('',*,*,#582,.F.);
#582 = EDGE_CURVE('',#583,#574,#585,.T.);
#583 = VERTEX_POINT('',#584);
#584 = CARTESIAN_POINT('',(121.9,-2.1,0.));
#585 = LINE('',#586,#587);
#586 = CARTESIAN_POINT('',(98.05,-2.1,0.));
#587 = VECTOR('',#588,1.);
#588 = DIRECTION('',(-1.,0.,0.));
#589 = ORIENTED_EDGE('',*,*,#590,.T.);
#590 = EDGE_CURVE('',#583,#591,#593,.T.);
#591 = VERTEX_POINT('',#592);
#592 = CARTESIAN_POINT('',(122.3606557377,-2.048852432783,0.));
#593 = CIRCLE('',#594,2.1);
#594 = AXIS2_PLACEMENT_3D('',#595,#596,#597);
#595 = CARTESIAN_POINT('',(121.9,0.,0.));
#596 = DIRECTION('',(0.,0.,1.));
#597 = DIRECTION('',(1.,0.,0.));
#598 = ORIENTED_EDGE('',*,*,#599,.T.);
#599 = EDGE_CURVE('',#591,#600,#602,.T.);
#600 = VERTEX_POINT('',#601);
#601 = CARTESIAN_POINT('',(124.,-5.143516556419E-16,0.));
#602 = CIRCLE('',#603,2.1);
#603 = AXIS2_PLACEMENT_3D('',#604,#605,#606);
#604 = CARTESIAN_POINT('',(121.9,0.,0.));
#605 = DIRECTION('',(0.,0.,1.));
#606 = DIRECTION('',(1.,0.,0.));
#607 = ORIENTED_EDGE('',*,*,#608,.T.);
#608 = EDGE_CURVE('',#600,#555,#609,.T.);
#609 = CIRCLE('',#610,2.1);
#610 = AXIS2_PLACEMENT_3D('',#611,#612,#613);
#611 = CARTESIAN_POINT('',(121.9,0.,0.));
#612 = DIRECTION('',(0.,0.,1.));
#613 = DIRECTION('',(1.,0.,0.));
#614 = FACE_BOUND('',#615,.T.);
#615 = EDGE_LOOP('',(#616,#617,#618,#619));
#616 = ORIENTED_EDGE('',*,*,#388,.T.);
#617 = ORIENTED_EDGE('',*,*,#431,.F.);
#618 = ORIENTED_EDGE('',*,*,#462,.F.);
#619 = ORIENTED_EDGE('',*,*,#495,.T.);
#620 = FACE_BOUND('',#621,.T.);
#621 = EDGE_LOOP('',(#622,#633,#642));
#622 = ORIENTED_EDGE('',*,*,#623,.T.);
#623 = EDGE_CURVE('',#624,#626,#628,.T.);
#624 = VERTEX_POINT('',#625);
#625 = CARTESIAN_POINT('',(90.,-2.6,0.));
#626 = VERTEX_POINT('',#627);
#627 = CARTESIAN_POINT('',(92.6,-6.368163355566E-16,0.));
#628 = CIRCLE('',#629,2.6);
#629 = AXIS2_PLACEMENT_3D('',#630,#631,#632);
#630 = CARTESIAN_POINT('',(90.,0.,0.));
#631 = DIRECTION('',(0.,0.,1.));
#632 = DIRECTION('',(1.,0.,0.));
#633 = ORIENTED_EDGE('',*,*,#634,.T.);
#634 = EDGE_CURVE('',#626,#635,#637,.T.);
#635 = VERTEX_POINT('',#636);
#636 = CARTESIAN_POINT('',(90.,2.6,0.));
#637 = CIRCLE('',#638,2.6);
#638 = AXIS2_PLACEMENT_3D('',#639,#640,#641);
#639 = CARTESIAN_POINT('',(90.,0.,0.));
#640 = DIRECTION('',(0.,0.,1.));
#641 = DIRECTION('',(1.,0.,0.));
#642 = ORIENTED_EDGE('',*,*,#643,.T.);
#643 = EDGE_CURVE('',#635,#624,#644,.T.);
#644 = CIRCLE('',#645,2.6);
#645 = AXIS2_PLACEMENT_3D('',#646,#647,#648);
#646 = CARTESIAN_POINT('',(90.,0.,0.));
#647 = DIRECTION('',(0.,0.,1.));
#648 = DIRECTION('',(1.,0.,0.));
#649 = PLANE('',#650);
#650 = AXIS2_PLACEMENT_3D('',#651,#652,#653);
#651 = CARTESIAN_POINT('',(105.66687612694,4.406276614512E-16,0.));
#652 = DIRECTION('',(-0.,-0.,-1.));
#653 = DIRECTION('',(-1.,0.,0.));
#654 = ADVANCED_FACE('',(#655),#680,.F.);
#655 = FACE_BOUND('',#656,.F.);
#656 = EDGE_LOOP('',(#657,#658,#666,#674));
#657 = ORIENTED_EDGE('',*,*,#565,.T.);
#658 = ORIENTED_EDGE('',*,*,#659,.T.);
#659 = EDGE_CURVE('',#566,#660,#662,.T.);
#660 = VERTEX_POINT('',#661);
#661 = CARTESIAN_POINT('',(106.1,2.1,6.));
#662 = LINE('',#663,#664);
#663 = CARTESIAN_POINT('',(106.1,2.1,-1.));
#664 = VECTOR('',#665,1.);
#665 = DIRECTION('',(0.,0.,1.));
#666 = ORIENTED_EDGE('',*,*,#667,.F.);
#667 = EDGE_CURVE('',#668,#660,#670,.T.);
#668 = VERTEX_POINT('',#669);
#669 = CARTESIAN_POINT('',(121.9,2.1,6.));
#670 = LINE('',#671,#672);
#671 = CARTESIAN_POINT('',(98.05,2.1,6.));
#672 = VECTOR('',#673,1.);
#673 = DIRECTION('',(-1.,0.,0.));
#674 = ORIENTED_EDGE('',*,*,#675,.F.);
#675 = EDGE_CURVE('',#557,#668,#676,.T.);
#676 = LINE('',#677,#678);
#677 = CARTESIAN_POINT('',(121.9,2.1,-1.));
#678 = VECTOR('',#679,1.);
#679 = DIRECTION('',(0.,0.,1.));
#680 = PLANE('',#681);
#681 = AXIS2_PLACEMENT_3D('',#682,#683,#684);
#682 = CARTESIAN_POINT('',(106.1,2.1,-1.));
#683 = DIRECTION('',(0.,1.,0.));
#684 = DIRECTION('',(0.,0.,1.));
#685 = ADVANCED_FACE('',(#686),#705,.F.);
#686 = FACE_BOUND('',#687,.F.);
#687 = EDGE_LOOP('',(#688,#697,#698,#699));
#688 = ORIENTED_EDGE('',*,*,#689,.F.);
#689 = EDGE_CURVE('',#660,#690,#692,.T.);
#690 = VERTEX_POINT('',#691);
#691 = CARTESIAN_POINT('',(106.1,-2.1,6.));
#692 = CIRCLE('',#693,2.1);
#693 = AXIS2_PLACEMENT_3D('',#694,#695,#696);
#694 = CARTESIAN_POINT('',(106.1,0.,6.));
#695 = DIRECTION('',(0.,0.,1.));
#696 = DIRECTION('',(1.,0.,0.));
#697 = ORIENTED_EDGE('',*,*,#659,.F.);
#698 = ORIENTED_EDGE('',*,*,#573,.T.);
#699 = ORIENTED_EDGE('',*,*,#700,.T.);
#700 = EDGE_CURVE('',#574,#690,#701,.T.);
#701 = LINE('',#702,#703);
#702 = CARTESIAN_POINT('',(106.1,-2.1,-1.));
#703 = VECTOR('',#704,1.);
#704 = DIRECTION('',(0.,0.,1.));
#705 = CYLINDRICAL_SURFACE('',#706,2.1);
#706 = AXIS2_PLACEMENT_3D('',#707,#708,#709);
#707 = CARTESIAN_POINT('',(106.1,0.,-1.));
#708 = DIRECTION('',(0.,0.,1.));
#709 = DIRECTION('',(1.,0.,0.));
#710 = ADVANCED_FACE('',(#711),#729,.T.);
#711 = FACE_BOUND('',#712,.T.);
#712 = EDGE_LOOP('',(#713,#714,#715,#723));
#713 = ORIENTED_EDGE('',*,*,#582,.T.);
#714 = ORIENTED_EDGE('',*,*,#700,.T.);
#715 = ORIENTED_EDGE('',*,*,#716,.F.);
#716 = EDGE_CURVE('',#717,#690,#719,.T.);
#717 = VERTEX_POINT('',#718);
#718 = CARTESIAN_POINT('',(121.9,-2.1,6.));
#719 = LINE('',#720,#721);
#720 = CARTESIAN_POINT('',(98.05,-2.1,6.));
#721 = VECTOR('',#722,1.);
#722 = DIRECTION('',(-1.,0.,0.));
#723 = ORIENTED_EDGE('',*,*,#724,.F.);
#724 = EDGE_CURVE('',#583,#717,#725,.T.);
#725 = LINE('',#726,#727);
#726 = CARTESIAN_POINT('',(121.9,-2.1,-1.));
#727 = VECTOR('',#728,1.);
#728 = DIRECTION('',(0.,0.,1.));
#729 = PLANE('',#730);
#730 = AXIS2_PLACEMENT_3D('',#731,#732,#733);
#731 = CARTESIAN_POINT('',(106.1,-2.1,-1.));
#732 = DIRECTION('',(0.,1.,0.));
#733 = DIRECTION('',(0.,0.,1.));
#734 = ADVANCED_FACE('',(#735),#774,.F.);
#735 = FACE_BOUND('',#736,.F.);
#736 = EDGE_LOOP('',(#737,#748,#754,#755,#756,#757,#758,#767));
#737 = ORIENTED_EDGE('',*,*,#738,.F.);
#738 = EDGE_CURVE('',#739,#741,#743,.T.);
#739 = VERTEX_POINT('',#740);
#740 = CARTESIAN_POINT('',(92.6,-6.368163355566E-16,6.));
#741 = VERTEX_POINT('',#742);
#742 = CARTESIAN_POINT('',(90.,2.6,6.));
#743 = CIRCLE('',#744,2.6);
#744 = AXIS2_PLACEMENT_3D('',#745,#746,#747);
#745 = CARTESIAN_POINT('',(90.,0.,6.));
#746 = DIRECTION('',(0.,0.,1.));
#747 = DIRECTION('',(1.,0.,0.));
#748 = ORIENTED_EDGE('',*,*,#749,.F.);
#749 = EDGE_CURVE('',#626,#739,#750,.T.);
#750 = LINE('',#751,#752);
#751 = CARTESIAN_POINT('',(92.6,-6.368163355566E-16,-1.));
#752 = VECTOR('',#753,1.);
#753 = DIRECTION('',(0.,0.,1.));
#754 = ORIENTED_EDGE('',*,*,#634,.T.);
#755 = ORIENTED_EDGE('',*,*,#643,.T.);
#756 = ORIENTED_EDGE('',*,*,#623,.T.);
#757 = ORIENTED_EDGE('',*,*,#749,.T.);
#758 = ORIENTED_EDGE('',*,*,#759,.F.);
#759 = EDGE_CURVE('',#760,#739,#762,.T.);
#760 = VERTEX_POINT('',#761);
#761 = CARTESIAN_POINT('',(90.,-2.6,6.));
#762 = CIRCLE('',#763,2.6);
#763 = AXIS2_PLACEMENT_3D('',#764,#765,#766);
#764 = CARTESIAN_POINT('',(90.,0.,6.));
#765 = DIRECTION('',(0.,0.,1.));
#766 = DIRECTION('',(1.,0.,0.));
#767 = ORIENTED_EDGE('',*,*,#768,.F.);
#768 = EDGE_CURVE('',#741,#760,#769,.T.);
#769 = CIRCLE('',#770,2.6);
#770 = AXIS2_PLACEMENT_3D('',#771,#772,#773);
#771 = CARTESIAN_POINT('',(90.,0.,6.));
#772 = DIRECTION('',(0.,0.,1.));
#773 = DIRECTION('',(1.,0.,0.));
#774 = CYLINDRICAL_SURFACE('',#775,2.6);
#775 = AXIS2_PLACEMENT_3D('',#776,#777,#778);
#776 = CARTESIAN_POINT('',(90.,0.,-1.));
#777 = DIRECTION('',(0.,0.,1.));
#778 = DIRECTION('',(1.,0.,0.));
#779 = ADVANCED_FACE('',(#780,#801,#840,#846),#851,.T.);
#780 = FACE_BOUND('',#781,.T.);
#781 = EDGE_LOOP('',(#782,#783,#784,#793,#800));
#782 = ORIENTED_EDGE('',*,*,#21,.T.);
#783 = ORIENTED_EDGE('',*,*,#331,.T.);
#784 = ORIENTED_EDGE('',*,*,#785,.T.);
#785 = EDGE_CURVE('',#332,#786,#788,.T.);
#786 = VERTEX_POINT('',#787);
#787 = CARTESIAN_POINT('',(134.,-1.469576158977E-15,6.));
#788 = CIRCLE('',#789,6.);
#789 = AXIS2_PLACEMENT_3D('',#790,#791,#792);
#790 = CARTESIAN_POINT('',(128.,0.,6.));
#791 = DIRECTION('',(0.,0.,1.));
#792 = DIRECTION('',(1.,0.,0.));
#793 = ORIENTED_EDGE('',*,*,#794,.T.);
#794 = EDGE_CURVE('',#786,#301,#795,.T.);
#795 = CIRCLE('',#796,6.);
#796 = AXIS2_PLACEMENT_3D('',#797,#798,#799);
#797 = CARTESIAN_POINT('',(128.,0.,6.));
#798 = DIRECTION('',(0.,0.,1.));
#799 = DIRECTION('',(1.,0.,0.));
#800 = ORIENTED_EDGE('',*,*,#300,.F.);
#801 = FACE_BOUND('',#802,.T.);
#802 = EDGE_LOOP('',(#803,#812,#821,#830,#837,#838,#839));
#803 = ORIENTED_EDGE('',*,*,#804,.F.);
#804 = EDGE_CURVE('',#805,#668,#807,.T.);
#805 = VERTEX_POINT('',#806);
#806 = CARTESIAN_POINT('',(122.3606557377,2.048852432783,6.));
#807 = CIRCLE('',#808,2.1);
#808 = AXIS2_PLACEMENT_3D('',#809,#810,#811);
#809 = CARTESIAN_POINT('',(121.9,0.,6.));
#810 = DIRECTION('',(0.,0.,1.));
#811 = DIRECTION('',(1.,0.,0.));
#812 = ORIENTED_EDGE('',*,*,#813,.F.);
#813 = EDGE_CURVE('',#814,#805,#816,.T.);
#814 = VERTEX_POINT('',#815);
#815 = CARTESIAN_POINT('',(124.,-5.143516556419E-16,6.));
#816 = CIRCLE('',#817,2.1);
#817 = AXIS2_PLACEMENT_3D('',#818,#819,#820);
#818 = CARTESIAN_POINT('',(121.9,0.,6.));
#819 = DIRECTION('',(0.,0.,1.));
#820 = DIRECTION('',(1.,0.,0.));
#821 = ORIENTED_EDGE('',*,*,#822,.F.);
#822 = EDGE_CURVE('',#823,#814,#825,.T.);
#823 = VERTEX_POINT('',#824);
#824 = CARTESIAN_POINT('',(122.3606557377,-2.048852432783,6.));
#825 = CIRCLE('',#826,2.1);
#826 = AXIS2_PLACEMENT_3D('',#827,#828,#829);
#827 = CARTESIAN_POINT('',(121.9,0.,6.));
#828 = DIRECTION('',(0.,0.,1.));
#829 = DIRECTION('',(1.,0.,0.));
#830 = ORIENTED_EDGE('',*,*,#831,.F.);
#831 = EDGE_CURVE('',#717,#823,#832,.T.);
#832 = CIRCLE('',#833,2.1);
#833 = AXIS2_PLACEMENT_3D('',#834,#835,#836);
#834 = CARTESIAN_POINT('',(121.9,0.,6.));
#835 = DIRECTION('',(0.,0.,1.));
#836 = DIRECTION('',(1.,0.,0.));
#837 = ORIENTED_EDGE('',*,*,#716,.T.);
#838 = ORIENTED_EDGE('',*,*,#689,.F.);
#839 = ORIENTED_EDGE('',*,*,#667,.F.);
#840 = FACE_BOUND('',#841,.T.);
#841 = EDGE_LOOP('',(#842,#843,#844,#845));
#842 = ORIENTED_EDGE('',*,*,#404,.F.);
#843 = ORIENTED_EDGE('',*,*,#502,.F.);
#844 = ORIENTED_EDGE('',*,*,#469,.T.);
#845 = ORIENTED_EDGE('',*,*,#438,.T.);
#846 = FACE_BOUND('',#847,.T.);
#847 = EDGE_LOOP('',(#848,#849,#850));
#848 = ORIENTED_EDGE('',*,*,#759,.F.);
#849 = ORIENTED_EDGE('',*,*,#768,.F.);
#850 = ORIENTED_EDGE('',*,*,#738,.F.);
#851 = PLANE('',#852);
#852 = AXIS2_PLACEMENT_3D('',#853,#854,#855);
#853 = CARTESIAN_POINT('',(105.66687612694,6.609414921767E-16,6.));
#854 = DIRECTION('',(0.,0.,1.));
#855 = DIRECTION('',(1.,0.,0.));
#856 = ADVANCED_FACE('',(#857),#869,.F.);
#857 = FACE_BOUND('',#858,.F.);
#858 = EDGE_LOOP('',(#859,#860,#861,#862,#863,#864,#865,#866,#867,#868)
  );
#859 = ORIENTED_EDGE('',*,*,#831,.F.);
#860 = ORIENTED_EDGE('',*,*,#724,.F.);
#861 = ORIENTED_EDGE('',*,*,#590,.T.);
#862 = ORIENTED_EDGE('',*,*,#599,.T.);
#863 = ORIENTED_EDGE('',*,*,#608,.T.);
#864 = ORIENTED_EDGE('',*,*,#554,.T.);
#865 = ORIENTED_EDGE('',*,*,#675,.T.);
#866 = ORIENTED_EDGE('',*,*,#804,.F.);
#867 = ORIENTED_EDGE('',*,*,#813,.F.);
#868 = ORIENTED_EDGE('',*,*,#822,.F.);
#869 = CYLINDRICAL_SURFACE('',#870,2.1);
#870 = AXIS2_PLACEMENT_3D('',#871,#872,#873);
#871 = CARTESIAN_POINT('',(121.9,0.,-1.));
#872 = DIRECTION('',(0.,0.,1.));
#873 = DIRECTION('',(1.,0.,0.));
#874 = ADVANCED_FACE('',(#875),#883,.T.);
#875 = FACE_BOUND('',#876,.T.);
#876 = EDGE_LOOP('',(#877,#878,#879,#880,#881,#882));
#877 = ORIENTED_EDGE('',*,*,#785,.F.);
#878 = ORIENTED_EDGE('',*,*,#339,.F.);
#879 = ORIENTED_EDGE('',*,*,#544,.T.);
#880 = ORIENTED_EDGE('',*,*,#535,.T.);
#881 = ORIENTED_EDGE('',*,*,#308,.T.);
#882 = ORIENTED_EDGE('',*,*,#794,.F.);
#883 = CYLINDRICAL_SURFACE('',#884,6.);
#884 = AXIS2_PLACEMENT_3D('',#885,#886,#887);
#885 = CARTESIAN_POINT('',(128.,0.,0.));
#886 = DIRECTION('',(0.,0.,1.));
#887 = DIRECTION('',(1.,0.,0.));
#888 = ( GEOMETRIC_REPRESENTATION_CONTEXT(3) 
GLOBAL_UNCERTAINTY_ASSIGNED_CONTEXT((#892)) GLOBAL_UNIT_ASSIGNED_CONTEXT
((#889,#890,#891)) REPRESENTATION_CONTEXT('Context #1',
  '3D Context with UNIT and UNCERTAINTY') );
#889 = ( LENGTH_UNIT() NAMED_UNIT(*) SI_UNIT(.MILLI.,.METRE.) );
#890 = ( NAMED_UNIT(*) PLANE_ANGLE_UNIT() SI_UNIT($,.RADIAN.) );
#891 = ( NAMED_UNIT(*) SI_UNIT($,.STERADIAN.) SOLID_ANGLE_UNIT() );
#892 = UNCERTAINTY_MEASURE_WITH_UNIT(LENGTH_MEASURE(1.E-07),#889,
  'distance_accuracy_value','confusion accuracy');
#893 = PRODUCT_RELATED_PRODUCT_CATEGORY('part',$,(#7));
ENDSEC;
END-ISO-10303-21;
